<?xml version="1.0" standalone="no"?>
 <!DOCTYPE svg PUBLIC "-//W3C//DTD SVG 1.1//EN" 
 "http://www.w3.org/Graphics/SVG/1.1/DTD/svg11.dtd"> 
<svg xmlns="http://www.w3.org/2000/svg" version="1.1" 
    width="1.83388cm" height="4.33832cm" viewBox="0 0 7220 17080 ">
<title>SVG Picture created as pixel-stick-B_Cu.svg date 2019/12/07 15:42:51 </title>
  <desc>Picture generated by PCBNEW </desc>
<g style="fill:#000000; fill-opacity:1;stroke:#000000; stroke-opacity:1;
stroke-linecap:round; stroke-linejoin:round; "
 transform="translate(0 0) scale(1 1)">
</g>
<g style="fill:#000000; fill-opacity:0.0; 
stroke:#000000; stroke-width:-0.000393701; stroke-opacity:1; 
stroke-linecap:round; stroke-linejoin:round;">
</g>
<g style="fill:#000000; fill-opacity:1.0; 
stroke:#000000; stroke-width:0; stroke-opacity:1; 
stroke-linecap:round; stroke-linejoin:round;">
<path style="fill:#000000; fill-opacity:1.0; 
stroke:#000000; stroke-width:0; stroke-opacity:1; 
stroke-linecap:round; stroke-linejoin:round;fill-rule:evenodd;"
d="M 4299,12814
4299,13208
4496,13208
4496,12814
Z" /> 
<g >
</g>
<g >
</g>
<g >
</g>
<g >
</g>
<g >
</g>
<g >
</g>
<g >
</g>
<g >
</g>
<g >
</g>
<g >
</g>
<g >
<circle cx="1297.83" cy="14464.8" r="492" /> 
</g>
<g style="fill:#000000; fill-opacity:1.0; 
stroke:#000000; stroke-width:39.3701; stroke-opacity:1; 
stroke-linecap:round; stroke-linejoin:round;">
</g>
<g style="fill:#000000; fill-opacity:1.0; 
stroke:#000000; stroke-width:0; stroke-opacity:1; 
stroke-linecap:round; stroke-linejoin:round;">
<circle cx="2797.83" cy="14464.8" r="492" /> 
</g>
<g style="fill:#000000; fill-opacity:1.0; 
stroke:#000000; stroke-width:39.3701; stroke-opacity:1; 
stroke-linecap:round; stroke-linejoin:round;">
</g>
<g style="fill:#000000; fill-opacity:1.0; 
stroke:#000000; stroke-width:0; stroke-opacity:1; 
stroke-linecap:round; stroke-linejoin:round;">
<circle cx="4297.83" cy="14464.8" r="492" /> 
</g>
<g style="fill:#000000; fill-opacity:1.0; 
stroke:#000000; stroke-width:39.3701; stroke-opacity:1; 
stroke-linecap:round; stroke-linejoin:round;">
</g>
<g style="fill:#000000; fill-opacity:1.0; 
stroke:#000000; stroke-width:0; stroke-opacity:1; 
stroke-linecap:round; stroke-linejoin:round;">
<path style="fill:#000000; fill-opacity:1.0; 
stroke:#000000; stroke-width:0; stroke-opacity:1; 
stroke-linecap:round; stroke-linejoin:round;fill-rule:evenodd;"
d="M 6289,13972
6289,14956
5305,14956
5305,13972
6289,13972
Z" /> 
</g>
<g >
</g>
<g style="fill:#000000; fill-opacity:1.0; 
stroke:#000000; stroke-width:669.291; stroke-opacity:1; 
stroke-linecap:round; stroke-linejoin:round;">
</g>
<g style="fill:#000000; fill-opacity:0.0; 
stroke:#000000; stroke-width:669.291; stroke-opacity:1; 
stroke-linecap:round; stroke-linejoin:round;">
<path d="M2097 3364
L2097 3364
" />
<path d="M2097 2364
L2097 2364
" />
<path d="M3097 3364
L3097 3364
" />
<path d="M3097 2364
L3097 2364
" />
<path d="M4097 3364
L4097 3364
" />
<path d="M4097 2364
L4097 2364
" />
<path d="M5097 3364
L5097 3364
" />
</g>
<g style="fill:#000000; fill-opacity:0.0; 
stroke:#000000; stroke-width:0; stroke-opacity:1; 
stroke-linecap:round; stroke-linejoin:round;">
</g>
<g style="fill:#000000; fill-opacity:1.0; 
stroke:#000000; stroke-width:0; stroke-opacity:1; 
stroke-linecap:round; stroke-linejoin:round;">
<path style="fill:#000000; fill-opacity:1.0; 
stroke:#000000; stroke-width:0; stroke-opacity:1; 
stroke-linecap:round; stroke-linejoin:round;fill-rule:evenodd;"
d="M 4763,2030
5432,2030
5432,2699
4763,2699
4763,2030
Z" /> 
</g>
<g >
<circle cx="4397.83" cy="13208.5" r="98.4252" /> 
</g>
<g style="fill:#000000; fill-opacity:1.0; 
stroke:#000000; stroke-width:39.3701; stroke-opacity:1; 
stroke-linecap:round; stroke-linejoin:round;">
</g>
<g style="fill:#000000; fill-opacity:1.0; 
stroke:#000000; stroke-width:0; stroke-opacity:1; 
stroke-linecap:round; stroke-linejoin:round;">
<circle cx="4397.83" cy="12814.8" r="98.4252" /> 
</g>
<g style="fill:#000000; fill-opacity:1.0; 
stroke:#000000; stroke-width:39.3701; stroke-opacity:1; 
stroke-linecap:round; stroke-linejoin:round;">
</g>
<g >
</g>
<g >
</g>
<g >
</g>
<g style="fill:#000000; fill-opacity:1.0; 
stroke:#000000; stroke-width:0; stroke-opacity:1; 
stroke-linecap:round; stroke-linejoin:round;">
<circle cx="4697.83" cy="1014.76" r="157.48" /> 
</g>
<g style="fill:#000000; fill-opacity:1.0; 
stroke:#000000; stroke-width:39.3701; stroke-opacity:1; 
stroke-linecap:round; stroke-linejoin:round;">
</g>
<g style="fill:#000000; fill-opacity:1.0; 
stroke:#000000; stroke-width:0; stroke-opacity:1; 
stroke-linecap:round; stroke-linejoin:round;">
<circle cx="1697.83" cy="5514.76" r="157.48" /> 
</g>
<g style="fill:#000000; fill-opacity:1.0; 
stroke:#000000; stroke-width:39.3701; stroke-opacity:1; 
stroke-linecap:round; stroke-linejoin:round;">
</g>
<g >
</g>
<g style="fill:#000000; fill-opacity:1.0; 
stroke:#000000; stroke-width:98.4252; stroke-opacity:1; 
stroke-linecap:round; stroke-linejoin:round;">
</g>
<g style="fill:#000000; fill-opacity:0.0; 
stroke:#000000; stroke-width:98.4252; stroke-opacity:1; 
stroke-linecap:round; stroke-linejoin:round;">
<path d="M4086 2352
L4097 2364
" />
</g>
<g style="fill:#000000; fill-opacity:0.0; 
stroke:#000000; stroke-width:196.85; stroke-opacity:1; 
stroke-linecap:round; stroke-linejoin:round;">
<path d="M4397 14464
L4397 13214
" />
<path d="M2797 6614
L1697 5514
" />
<path d="M2797 14464
L2797 6614
" />
<path d="M4397 5145
L4397 12814
" />
<path d="M3097 3845
L4397 5145
" />
<path d="M3097 3364
L3097 3845
" />
</g>
<g >
</g>
<g style="fill:#000000; fill-opacity:1.0; 
stroke:#000000; stroke-width:100; stroke-opacity:1; 
stroke-linecap:round; stroke-linejoin:round;">
<path style="fill:#000000; fill-opacity:1.0; 
stroke:#000000; stroke-width:100; stroke-opacity:1; 
stroke-linecap:round; stroke-linejoin:round;fill-rule:evenodd;"
d="M 6363,682
6426,701
6485,732
6536,774
6578,825
6610,883
6629,946
6637,1024
6637,15202
6630,15280
6611,15343
6580,15402
6538,15453
6487,15495
6429,15527
6365,15546
6288,15554
910,15554
832,15547
768,15528
710,15497
659,15455
616,15404
585,15346
565,15282
557,15205
557,14981
851,14981
901,15095
1031,15161
1172,15199
1318,15210
1463,15191
1602,15145
1694,15095
1744,14981
1297,14535
851,14981
557,14981
557,14526
570,14630
617,14769
666,14861
780,14911
1227,14464
1368,14464
1814,14911
1929,14861
1994,14730
2032,14589
2043,14444
2024,14299
1978,14160
1929,14067
1814,14018
1368,14464
1227,14464
780,14018
666,14067
601,14198
562,14339
557,14412
557,13947
851,13947
1297,14394
1744,13947
1694,13833
1563,13768
1422,13729
1277,13719
1132,13737
993,13784
901,13833
851,13947
557,13947
557,5474
1290,5474
1290,5554
1306,5633
1336,5707
1381,5774
1438,5831
1504,5875
1578,5906
1601,5911
2449,6759
2449,13805
2446,13807
2324,13888
2221,13991
2140,14113
2084,14248
2055,14391
2055,14537
2084,14681
2140,14816
2221,14937
2324,15041
2446,15122
2581,15178
2724,15206
2870,15206
3014,15178
3149,15122
3270,15041
3374,14937
3455,14816
3511,14681
3539,14537
3539,14391
3511,14248
3455,14113
3374,13991
3270,13888
3149,13807
3146,13805
3146,6631
3147,6614
3146,6597
3146,6597
3141,6546
3121,6480
3121,6480
3088,6420
3056,6380
3056,6380
3045,6367
3032,6356
2094,5418
2089,5395
2058,5321
2014,5255
1957,5198
1890,5153
1816,5122
1737,5107
1657,5107
1578,5122
1504,5153
1438,5198
1381,5255
1336,5321
1306,5395
1290,5474
557,5474
557,2364
1510,2364
1521,2479
1555,2589
1609,2691
1682,2780
1771,2853
1793,2864
1771,2876
1682,2949
1609,3038
1555,3139
1521,3250
1510,3364
1521,3479
1555,3589
1609,3691
1682,3780
1771,3853
1873,3907
1983,3940
2069,3949
2126,3949
2212,3940
2322,3907
2424,3853
2513,3780
2586,3691
2597,3669
2609,3691
2682,3780
2748,3834
2747,3845
2754,3913
2774,3979
2806,4040
2839,4079
2839,4079
2850,4093
2863,4104
4049,5289
4049,12780
4049,12780
4049,13242
4049,13242
4049,13764
3946,13807
3824,13888
3721,13991
3640,14113
3584,14248
3555,14391
3555,14537
3584,14681
3640,14816
3721,14937
3824,15041
3946,15122
4081,15178
4224,15206
4370,15206
4514,15178
4649,15122
4770,15041
4874,14937
4955,14816
5011,14681
5039,14537
5039,14391
5011,14248
4955,14113
4874,13991
4855,13972
5054,13972
5054,14956
5059,15005
5073,15052
5096,15096
5128,15134
5166,15165
5209,15188
5256,15203
5305,15207
6289,15207
6338,15203
6385,15188
6429,15165
6467,15134
6498,15096
6521,15052
6536,15005
6541,14956
6541,13972
6536,13923
6521,13876
6498,13833
6467,13795
6429,13763
6385,13740
6338,13726
6289,13721
5305,13721
5256,13726
5209,13740
5166,13763
5128,13795
5096,13833
5073,13876
5059,13923
5054,13972
4855,13972
4770,13888
4746,13871
4746,5162
4747,5145
4746,5128
4746,5128
4741,5077
4721,5011
4688,4951
4645,4898
4632,4887
3518,3773
3586,3691
3597,3669
3609,3691
3682,3780
3771,3853
3873,3907
3983,3940
4069,3949
4126,3949
4212,3940
4322,3907
4424,3853
4513,3780
4586,3691
4599,3665
4627,3711
4704,3796
4795,3865
4899,3914
4957,3932
5047,3884
5047,3414
5147,3414
5147,3884
5238,3932
5296,3914
5399,3865
5491,3796
5568,3711
5627,3613
5665,3505
5617,3414
5147,3414
5047,3414
5039,3414
5039,3314
5047,3314
5047,3306
5147,3306
5147,3314
5617,3314
5665,3224
5627,3116
5568,3017
5498,2940
5528,2931
5572,2908
5610,2877
5641,2838
5664,2795
5678,2748
5683,2699
5683,2030
5678,1981
5664,1933
5641,1890
5610,1852
5572,1821
5528,1798
5481,1783
5432,1778
4763,1778
4714,1783
4667,1798
4623,1821
4585,1852
4554,1890
4531,1933
4522,1961
4513,1949
4424,1876
4322,1822
4212,1788
4126,1780
4069,1780
3983,1788
3873,1822
3771,1876
3682,1949
3609,2038
3597,2059
3586,2038
3513,1949
3424,1876
3322,1822
3212,1788
3126,1780
3069,1780
2983,1788
2873,1822
2771,1876
2682,1949
2609,2038
2597,2059
2586,2038
2513,1949
2424,1876
2322,1822
2212,1788
2126,1780
2069,1780
1983,1788
1873,1822
1771,1876
1682,1949
1609,2038
1555,2139
1521,2250
1510,2364
557,2364
557,1027
565,948
584,885
615,827
657,775
708,733
766,702
829,682
907,674
6285,674
6363,682
Z" /> 
</g>
</g>
<g style="fill:#FFFFFF; fill-opacity:1.0; 
stroke:#FFFFFF; stroke-width:100; stroke-opacity:1; 
stroke-linecap:round; stroke-linejoin:round;">
</g>
<g style="fill:#FFFFFF; fill-opacity:1.0; 
stroke:#FFFFFF; stroke-width:0; stroke-opacity:1; 
stroke-linecap:round; stroke-linejoin:round;">
<circle cx="4697.83" cy="1014.76" r="78.7402" /> 
</g>
<g style="fill:#FFFFFF; fill-opacity:1.0; 
stroke:#FFFFFF; stroke-width:39.3701; stroke-opacity:1; 
stroke-linecap:round; stroke-linejoin:round;">
</g>
<g style="fill:#FFFFFF; fill-opacity:1.0; 
stroke:#FFFFFF; stroke-width:0; stroke-opacity:1; 
stroke-linecap:round; stroke-linejoin:round;">
<circle cx="1697.83" cy="5514.76" r="78.7402" /> 
</g>
<g style="fill:#FFFFFF; fill-opacity:1.0; 
stroke:#FFFFFF; stroke-width:39.3701; stroke-opacity:1; 
stroke-linecap:round; stroke-linejoin:round;">
</g>
<g style="fill:#FFFFFF; fill-opacity:1.0; 
stroke:#FFFFFF; stroke-width:0; stroke-opacity:1; 
stroke-linecap:round; stroke-linejoin:round;">
<circle cx="1297.83" cy="14464.8" r="197" /> 
</g>
<g style="fill:#FFFFFF; fill-opacity:1.0; 
stroke:#FFFFFF; stroke-width:39.3701; stroke-opacity:1; 
stroke-linecap:round; stroke-linejoin:round;">
</g>
<g style="fill:#FFFFFF; fill-opacity:1.0; 
stroke:#FFFFFF; stroke-width:0; stroke-opacity:1; 
stroke-linecap:round; stroke-linejoin:round;">
<circle cx="2797.83" cy="14464.8" r="197" /> 
</g>
<g style="fill:#FFFFFF; fill-opacity:1.0; 
stroke:#FFFFFF; stroke-width:39.3701; stroke-opacity:1; 
stroke-linecap:round; stroke-linejoin:round;">
</g>
<g style="fill:#FFFFFF; fill-opacity:1.0; 
stroke:#FFFFFF; stroke-width:0; stroke-opacity:1; 
stroke-linecap:round; stroke-linejoin:round;">
<circle cx="4297.83" cy="14464.8" r="197" /> 
</g>
<g style="fill:#FFFFFF; fill-opacity:1.0; 
stroke:#FFFFFF; stroke-width:39.3701; stroke-opacity:1; 
stroke-linecap:round; stroke-linejoin:round;">
</g>
<g style="fill:#FFFFFF; fill-opacity:1.0; 
stroke:#FFFFFF; stroke-width:0; stroke-opacity:1; 
stroke-linecap:round; stroke-linejoin:round;">
<circle cx="5797.83" cy="14464.8" r="197" /> 
</g>
<g style="fill:#FFFFFF; fill-opacity:1.0; 
stroke:#FFFFFF; stroke-width:39.3701; stroke-opacity:1; 
stroke-linecap:round; stroke-linejoin:round;">
</g>
<g style="fill:#FFFFFF; fill-opacity:1.0; 
stroke:#FFFFFF; stroke-width:0; stroke-opacity:1; 
stroke-linecap:round; stroke-linejoin:round;">
<circle cx="2097.83" cy="3364.76" r="196.85" /> 
</g>
<g style="fill:#FFFFFF; fill-opacity:1.0; 
stroke:#FFFFFF; stroke-width:39.3701; stroke-opacity:1; 
stroke-linecap:round; stroke-linejoin:round;">
</g>
<g style="fill:#FFFFFF; fill-opacity:1.0; 
stroke:#FFFFFF; stroke-width:0; stroke-opacity:1; 
stroke-linecap:round; stroke-linejoin:round;">
<circle cx="2097.83" cy="2364.76" r="196.85" /> 
</g>
<g style="fill:#FFFFFF; fill-opacity:1.0; 
stroke:#FFFFFF; stroke-width:39.3701; stroke-opacity:1; 
stroke-linecap:round; stroke-linejoin:round;">
</g>
<g style="fill:#FFFFFF; fill-opacity:1.0; 
stroke:#FFFFFF; stroke-width:0; stroke-opacity:1; 
stroke-linecap:round; stroke-linejoin:round;">
<circle cx="3097.83" cy="3364.76" r="196.85" /> 
</g>
<g style="fill:#FFFFFF; fill-opacity:1.0; 
stroke:#FFFFFF; stroke-width:39.3701; stroke-opacity:1; 
stroke-linecap:round; stroke-linejoin:round;">
</g>
<g style="fill:#FFFFFF; fill-opacity:1.0; 
stroke:#FFFFFF; stroke-width:0; stroke-opacity:1; 
stroke-linecap:round; stroke-linejoin:round;">
<circle cx="3097.83" cy="2364.76" r="196.85" /> 
</g>
<g style="fill:#FFFFFF; fill-opacity:1.0; 
stroke:#FFFFFF; stroke-width:39.3701; stroke-opacity:1; 
stroke-linecap:round; stroke-linejoin:round;">
</g>
<g style="fill:#FFFFFF; fill-opacity:1.0; 
stroke:#FFFFFF; stroke-width:0; stroke-opacity:1; 
stroke-linecap:round; stroke-linejoin:round;">
<circle cx="4097.83" cy="3364.76" r="196.85" /> 
</g>
<g style="fill:#FFFFFF; fill-opacity:1.0; 
stroke:#FFFFFF; stroke-width:39.3701; stroke-opacity:1; 
stroke-linecap:round; stroke-linejoin:round;">
</g>
<g style="fill:#FFFFFF; fill-opacity:1.0; 
stroke:#FFFFFF; stroke-width:0; stroke-opacity:1; 
stroke-linecap:round; stroke-linejoin:round;">
<circle cx="4097.83" cy="2364.76" r="196.85" /> 
</g>
<g style="fill:#FFFFFF; fill-opacity:1.0; 
stroke:#FFFFFF; stroke-width:39.3701; stroke-opacity:1; 
stroke-linecap:round; stroke-linejoin:round;">
</g>
<g style="fill:#FFFFFF; fill-opacity:1.0; 
stroke:#FFFFFF; stroke-width:0; stroke-opacity:1; 
stroke-linecap:round; stroke-linejoin:round;">
<circle cx="5097.83" cy="3364.76" r="196.85" /> 
</g>
<g style="fill:#FFFFFF; fill-opacity:1.0; 
stroke:#FFFFFF; stroke-width:39.3701; stroke-opacity:1; 
stroke-linecap:round; stroke-linejoin:round;">
</g>
<g style="fill:#FFFFFF; fill-opacity:1.0; 
stroke:#FFFFFF; stroke-width:0; stroke-opacity:1; 
stroke-linecap:round; stroke-linejoin:round;">
<circle cx="5097.83" cy="2364.76" r="196.85" /> 
</g>
<g style="fill:#FFFFFF; fill-opacity:1.0; 
stroke:#FFFFFF; stroke-width:39.3701; stroke-opacity:1; 
stroke-linecap:round; stroke-linejoin:round;">
</g>
<g style="fill:#000000; fill-opacity:1.0; 
stroke:#000000; stroke-width:39.3701; stroke-opacity:1; 
stroke-linecap:round; stroke-linejoin:round;">
</g>
<g style="fill:#000000; fill-opacity:0.0; 
stroke:#000000; stroke-width:19.685; stroke-opacity:1; 
stroke-linecap:round; stroke-linejoin:round;">
<path d="M6897.83 1014.76 A600 600 0.0 0 0 6297.83 414.764 " />
<path d="M897.835 414.764 A600 600 0.0 0 0 297.835 1014.76 " />
<path d="M297.835 15214.8 A600 600 0.0 0 0 897.835 15814.8 " />
<path d="M6297.83 15814.8 A600 600 0.0 0 0 6897.83 15214.8 " />
<path d="M6897 1014
L6897 15214
" />
<path d="M297 15214
L297 1014
" />
<path d="M6297 414
L897 414
" />
<path d="M897 15814
L6297 15814
" />
<g >
</g>
<g >
</g>
<g >
</g>
<g >
</g>
<g >
</g>
<g >
</g>
<g >
</g>
<g >
</g>
<g >
</g>
<g >
</g>
<g >
</g>
<g >
</g>
<g >
</g>
<g >
</g>
<g >
</g>
<g >
</g>
</g> 
</svg>
