<?xml version="1.0" standalone="no"?>
 <!DOCTYPE svg PUBLIC "-//W3C//DTD SVG 1.1//EN" 
 "http://www.w3.org/Graphics/SVG/1.1/DTD/svg11.dtd"> 
<svg xmlns="http://www.w3.org/2000/svg" version="1.1" 
    width="5.15874cm" height="2.4638cm" viewBox="0 0 20310 9700 ">
<title>SVG Picture created as pixel-stick-B_Cu.svg date 2019/12/17 12:56:12 </title>
  <desc>Picture generated by PCBNEW </desc>
<g style="fill:#000000; fill-opacity:1;stroke:#000000; stroke-opacity:1;
stroke-linecap:round; stroke-linejoin:round; "
 transform="translate(0 0) scale(1 1)">
</g>
<g style="fill:#000000; fill-opacity:0.0; 
stroke:#000000; stroke-width:-0.000393701; stroke-opacity:1; 
stroke-linecap:round; stroke-linejoin:round;">
<g >
</g>
<g style="fill:#000000; fill-opacity:0.0; 
stroke:#000000; stroke-width:472.441; stroke-opacity:1; 
stroke-linecap:round; stroke-linejoin:round;">
<path d="M16920 4038
L17137 4038
" />
<path d="M16920 4825
L17137 4825
" />
</g>
<g style="fill:#000000; fill-opacity:0.0; 
stroke:#000000; stroke-width:0; stroke-opacity:1; 
stroke-linecap:round; stroke-linejoin:round;">
</g>
<g style="fill:#000000; fill-opacity:1.0; 
stroke:#000000; stroke-width:0; stroke-opacity:1; 
stroke-linecap:round; stroke-linejoin:round;">
<path style="fill:#000000; fill-opacity:1.0; 
stroke:#000000; stroke-width:0; stroke-opacity:1; 
stroke-linecap:round; stroke-linejoin:round;fill-rule:evenodd;"
d="M 17284,5377
17294,5378
17303,5381
17312,5384
17321,5388
17329,5393
17337,5399
17344,5405
17351,5412
17356,5420
17361,5428
17365,5437
17369,5446
17371,5456
17372,5465
17373,5475
17373,5750
17372,5760
17371,5770
17369,5779
17365,5788
17361,5797
17356,5805
17351,5813
17344,5820
17337,5827
17329,5832
17321,5837
17312,5841
17303,5845
17294,5847
17284,5848
17275,5849
16782,5849
16773,5848
16763,5847
16754,5845
16745,5841
16736,5837
16728,5832
16720,5827
16713,5820
16706,5813
16701,5805
16696,5797
16691,5788
16688,5779
16686,5770
16684,5760
16684,5750
16684,5475
16684,5465
16686,5456
16688,5446
16691,5437
16696,5428
16701,5420
16706,5412
16713,5405
16720,5399
16728,5393
16736,5388
16745,5384
16754,5381
16763,5378
16773,5377
16782,5376
17275,5376
17284,5377
Z" /> 
</g>
<g >
</g>
<g >
</g>
<g style="fill:#000000; fill-opacity:1.0; 
stroke:#000000; stroke-width:0; stroke-opacity:1; 
stroke-linecap:round; stroke-linejoin:round;">
</g>
<g style="fill:#000000; fill-opacity:1.0; 
stroke:#000000; stroke-width:669.291; stroke-opacity:1; 
stroke-linecap:round; stroke-linejoin:round;">
</g>
<g style="fill:#000000; fill-opacity:0.0; 
stroke:#000000; stroke-width:669.291; stroke-opacity:1; 
stroke-linecap:round; stroke-linejoin:round;">
<path d="M8449 1873
L8449 1873
" />
</g>
<g style="fill:#000000; fill-opacity:0.0; 
stroke:#000000; stroke-width:0; stroke-opacity:1; 
stroke-linecap:round; stroke-linejoin:round;">
</g>
<g style="fill:#000000; fill-opacity:1.0; 
stroke:#000000; stroke-width:0; stroke-opacity:1; 
stroke-linecap:round; stroke-linejoin:round;">
<path style="fill:#000000; fill-opacity:1.0; 
stroke:#000000; stroke-width:0; stroke-opacity:1; 
stroke-linecap:round; stroke-linejoin:round;fill-rule:evenodd;"
d="M 7783,2207
7114,2207
7114,1538
7783,1538
7783,2207
Z" /> 
</g>
<g >
</g>
<g >
</g>
<g >
</g>
<g >
</g>
<g >
</g>
<g >
</g>
<g >
</g>
<g >
</g>
<g >
</g>
<g >
</g>
<g >
</g>
<g >
</g>
<g >
</g>
<g >
</g>
<g >
</g>
<g >
</g>
<g >
</g>
<g >
</g>
<g style="fill:#000000; fill-opacity:1.0; 
stroke:#000000; stroke-width:0; stroke-opacity:1; 
stroke-linecap:round; stroke-linejoin:round;">
<circle cx="13190.4" cy="2857.28" r="157.48" /> 
</g>
<g style="fill:#000000; fill-opacity:1.0; 
stroke:#000000; stroke-width:39.3701; stroke-opacity:1; 
stroke-linecap:round; stroke-linejoin:round;">
</g>
<g style="fill:#000000; fill-opacity:1.0; 
stroke:#000000; stroke-width:0; stroke-opacity:1; 
stroke-linecap:round; stroke-linejoin:round;">
<circle cx="10434.5" cy="1873.03" r="157.48" /> 
</g>
<g style="fill:#000000; fill-opacity:1.0; 
stroke:#000000; stroke-width:39.3701; stroke-opacity:1; 
stroke-linecap:round; stroke-linejoin:round;">
</g>
<g style="fill:#000000; fill-opacity:1.0; 
stroke:#000000; stroke-width:0; stroke-opacity:1; 
stroke-linecap:round; stroke-linejoin:round;">
<circle cx="5611.64" cy="1873.03" r="157.48" /> 
</g>
<g style="fill:#000000; fill-opacity:1.0; 
stroke:#000000; stroke-width:39.3701; stroke-opacity:1; 
stroke-linecap:round; stroke-linejoin:round;">
</g>
<g style="fill:#000000; fill-opacity:1.0; 
stroke:#000000; stroke-width:0; stroke-opacity:1; 
stroke-linecap:round; stroke-linejoin:round;">
<circle cx="15847.9" cy="6597.44" r="157.48" /> 
</g>
<g style="fill:#000000; fill-opacity:1.0; 
stroke:#000000; stroke-width:39.3701; stroke-opacity:1; 
stroke-linecap:round; stroke-linejoin:round;">
</g>
<g style="fill:#000000; fill-opacity:1.0; 
stroke:#000000; stroke-width:0; stroke-opacity:1; 
stroke-linecap:round; stroke-linejoin:round;">
<circle cx="11796.7" cy="1380.91" r="157.48" /> 
</g>
<g style="fill:#000000; fill-opacity:1.0; 
stroke:#000000; stroke-width:39.3701; stroke-opacity:1; 
stroke-linecap:round; stroke-linejoin:round;">
</g>
<g style="fill:#000000; fill-opacity:1.0; 
stroke:#000000; stroke-width:0; stroke-opacity:1; 
stroke-linecap:round; stroke-linejoin:round;">
<circle cx="11796.7" cy="2282.49" r="157.48" /> 
</g>
<g style="fill:#000000; fill-opacity:1.0; 
stroke:#000000; stroke-width:39.3701; stroke-opacity:1; 
stroke-linecap:round; stroke-linejoin:round;">
</g>
<g >
</g>
<g style="fill:#000000; fill-opacity:1.0; 
stroke:#000000; stroke-width:39.3701; stroke-opacity:1; 
stroke-linecap:round; stroke-linejoin:round;">
</g>
<g style="fill:#000000; fill-opacity:1.0; 
stroke:#000000; stroke-width:196.85; stroke-opacity:1; 
stroke-linecap:round; stroke-linejoin:round;">
</g>
<g style="fill:#000000; fill-opacity:0.0; 
stroke:#000000; stroke-width:196.85; stroke-opacity:1; 
stroke-linecap:round; stroke-linejoin:round;">
<path d="M11796 1380
L11796 2282
" />
</g>
<g >
</g>
<g style="fill:#000000; fill-opacity:0.0; 
stroke:#000000; stroke-width:196.85; stroke-opacity:1; 
stroke-linecap:round; stroke-linejoin:round;">
</g>
<g style="fill:#000000; fill-opacity:1.0; 
stroke:#000000; stroke-width:100; stroke-opacity:1; 
stroke-linecap:round; stroke-linejoin:round;">
<path style="fill:#000000; fill-opacity:1.0; 
stroke:#000000; stroke-width:100; stroke-opacity:1; 
stroke-linecap:round; stroke-linejoin:round;fill-rule:evenodd;"
d="M 11538,1066
11482,1123
11438,1189
11407,1262
11392,1341
11392,1420
11407,1498
11438,1572
11451,1591
11451,2071
11438,2090
11407,2164
11392,2242
11392,2322
11407,2400
11438,2474
11482,2540
11538,2596
11605,2640
11678,2671
11756,2686
11836,2686
11914,2671
11988,2640
12054,2596
12110,2540
12154,2474
12185,2400
12201,2322
12201,2242
12185,2164
12154,2090
12141,2071
12141,1591
12154,1572
12185,1498
12201,1420
12201,1341
12185,1262
12154,1189
12110,1123
12054,1066
12024,1047
16870,1047
16870,1447
16869,1459
16874,1509
16889,1558
16912,1602
16945,1642
16984,1674
17028,1697
17077,1712
17114,1716
17127,1717
17139,1716
18248,1716
18248,7935
17139,7935
17127,7933
17114,7935
17077,7938
17028,7953
16984,7977
16945,8009
16912,8048
16889,8093
16874,8141
16869,8191
16870,8204
16870,8604
16531,8604
16614,8549
16717,8446
16798,8325
16853,8190
16882,8048
16882,7902
16853,7759
16798,7625
16717,7504
16614,7401
16493,7320
16358,7264
16215,7236
16070,7236
15927,7264
15793,7320
15672,7401
15569,7504
15488,7625
15432,7759
15404,7902
15404,8048
15432,8190
15488,8325
15569,8446
15672,8549
15754,8604
14618,8604
14618,6499
14617,6489
14614,6479
14609,6471
14603,6463
14596,6457
14587,6452
14578,6449
14568,6449
13584,6449
13574,6449
13564,6452
13556,6457
13548,6463
13542,6471
13537,6479
13535,6489
13534,6499
13534,8604
3988,8604
3988,4825
16435,4825
16444,4920
16472,5011
16517,5095
16577,5169
16596,5184
16590,5187
16537,5230
16494,5282
16462,5342
16443,5407
16436,5475
16436,5750
16443,5818
16462,5883
16494,5943
16537,5995
16590,6039
16650,6071
16715,6090
16782,6097
17275,6097
17342,6090
17407,6071
17467,6039
17520,5995
17563,5943
17595,5883
17614,5818
17621,5750
17621,5475
17614,5407
17595,5342
17563,5282
17520,5230
17467,5187
17461,5184
17480,5169
17540,5095
17585,5011
17613,4920
17622,4825
17613,4731
17585,4640
17540,4556
17480,4482
17420,4433
17448,4414
17516,4346
17569,4266
17605,4178
17607,4163
17557,4088
17078,4088
17078,4096
16978,4096
16978,4088
16499,4088
16450,4163
16452,4178
16488,4266
16541,4346
16608,4414
16636,4433
16577,4482
16517,4556
16472,4640
16444,4731
16435,4825
3988,4825
3988,3913
16450,3913
16499,3988
16978,3988
16978,3552
17078,3552
17078,3988
17557,3988
17607,3913
17605,3898
17569,3809
17516,3729
17448,3661
17369,3608
17281,3571
17187,3552
17078,3552
16978,3552
16870,3552
16776,3571
16688,3608
16608,3661
16541,3729
16488,3809
16452,3898
16450,3913
3988,3913
3988,1538
6866,1538
6866,2207
6871,2256
6885,2302
6908,2345
6939,2383
6976,2413
7019,2436
7066,2450
7114,2455
7783,2455
7832,2450
7878,2436
7921,2413
7959,2383
7990,2345
8013,2302
8022,2270
8036,2286
8124,2358
8225,2412
8335,2446
8420,2454
8477,2454
8563,2446
8672,2412
8773,2358
8862,2286
8935,2197
8989,2096
9022,1987
9033,1873
9022,1759
8989,1649
8935,1548
8862,1459
8773,1387
8672,1333
8563,1299
8477,1291
8420,1291
8335,1299
8225,1333
8124,1387
8036,1459
8022,1475
8013,1443
7990,1400
7959,1362
7921,1332
7878,1309
7832,1295
7783,1290
7114,1290
7066,1295
7019,1309
6976,1332
6939,1362
6908,1400
6885,1443
6871,1489
6866,1538
3988,1538
3988,1047
11568,1047
11538,1066
Z" /> 
</g>
</g>
<g style="fill:#FFFFFF; fill-opacity:1.0; 
stroke:#FFFFFF; stroke-width:100; stroke-opacity:1; 
stroke-linecap:round; stroke-linejoin:round;">
</g>
<g style="fill:#FFFFFF; fill-opacity:1.0; 
stroke:#FFFFFF; stroke-width:0; stroke-opacity:1; 
stroke-linecap:round; stroke-linejoin:round;">
<circle cx="13190.4" cy="2857.28" r="78.7402" /> 
</g>
<g style="fill:#FFFFFF; fill-opacity:1.0; 
stroke:#FFFFFF; stroke-width:39.3701; stroke-opacity:1; 
stroke-linecap:round; stroke-linejoin:round;">
</g>
<g style="fill:#FFFFFF; fill-opacity:1.0; 
stroke:#FFFFFF; stroke-width:0; stroke-opacity:1; 
stroke-linecap:round; stroke-linejoin:round;">
<circle cx="10434.5" cy="1873.03" r="78.7402" /> 
</g>
<g style="fill:#FFFFFF; fill-opacity:1.0; 
stroke:#FFFFFF; stroke-width:39.3701; stroke-opacity:1; 
stroke-linecap:round; stroke-linejoin:round;">
</g>
<g style="fill:#FFFFFF; fill-opacity:1.0; 
stroke:#FFFFFF; stroke-width:0; stroke-opacity:1; 
stroke-linecap:round; stroke-linejoin:round;">
<circle cx="5611.64" cy="1873.03" r="78.7402" /> 
</g>
<g style="fill:#FFFFFF; fill-opacity:1.0; 
stroke:#FFFFFF; stroke-width:39.3701; stroke-opacity:1; 
stroke-linecap:round; stroke-linejoin:round;">
</g>
<g style="fill:#FFFFFF; fill-opacity:1.0; 
stroke:#FFFFFF; stroke-width:0; stroke-opacity:1; 
stroke-linecap:round; stroke-linejoin:round;">
<circle cx="15847.9" cy="6597.44" r="78.7402" /> 
</g>
<g style="fill:#FFFFFF; fill-opacity:1.0; 
stroke:#FFFFFF; stroke-width:39.3701; stroke-opacity:1; 
stroke-linecap:round; stroke-linejoin:round;">
</g>
<g style="fill:#FFFFFF; fill-opacity:1.0; 
stroke:#FFFFFF; stroke-width:0; stroke-opacity:1; 
stroke-linecap:round; stroke-linejoin:round;">
<circle cx="11796.7" cy="1380.91" r="78.7402" /> 
</g>
<g style="fill:#FFFFFF; fill-opacity:1.0; 
stroke:#FFFFFF; stroke-width:39.3701; stroke-opacity:1; 
stroke-linecap:round; stroke-linejoin:round;">
</g>
<g style="fill:#FFFFFF; fill-opacity:1.0; 
stroke:#FFFFFF; stroke-width:0; stroke-opacity:1; 
stroke-linecap:round; stroke-linejoin:round;">
<circle cx="11796.7" cy="2282.49" r="78.7402" /> 
</g>
<g style="fill:#FFFFFF; fill-opacity:1.0; 
stroke:#FFFFFF; stroke-width:39.3701; stroke-opacity:1; 
stroke-linecap:round; stroke-linejoin:round;">
</g>
<g style="fill:#FFFFFF; fill-opacity:1.0; 
stroke:#FFFFFF; stroke-width:0; stroke-opacity:1; 
stroke-linecap:round; stroke-linejoin:round;">
<circle cx="17029" cy="4038.39" r="147.638" /> 
</g>
<g style="fill:#FFFFFF; fill-opacity:1.0; 
stroke:#FFFFFF; stroke-width:39.3701; stroke-opacity:1; 
stroke-linecap:round; stroke-linejoin:round;">
</g>
<g style="fill:#FFFFFF; fill-opacity:1.0; 
stroke:#FFFFFF; stroke-width:0; stroke-opacity:1; 
stroke-linecap:round; stroke-linejoin:round;">
<circle cx="17029" cy="4825.79" r="147.638" /> 
</g>
<g style="fill:#FFFFFF; fill-opacity:1.0; 
stroke:#FFFFFF; stroke-width:39.3701; stroke-opacity:1; 
stroke-linecap:round; stroke-linejoin:round;">
</g>
<g style="fill:#FFFFFF; fill-opacity:1.0; 
stroke:#FFFFFF; stroke-width:0; stroke-opacity:1; 
stroke-linecap:round; stroke-linejoin:round;">
<circle cx="17029" cy="5613.19" r="147.638" /> 
</g>
<g style="fill:#FFFFFF; fill-opacity:1.0; 
stroke:#FFFFFF; stroke-width:39.3701; stroke-opacity:1; 
stroke-linecap:round; stroke-linejoin:round;">
</g>
<g style="fill:#FFFFFF; fill-opacity:1.0; 
stroke:#FFFFFF; stroke-width:0; stroke-opacity:1; 
stroke-linecap:round; stroke-linejoin:round;">
<circle cx="8449.24" cy="1873.03" r="196.85" /> 
</g>
<g style="fill:#FFFFFF; fill-opacity:1.0; 
stroke:#FFFFFF; stroke-width:39.3701; stroke-opacity:1; 
stroke-linecap:round; stroke-linejoin:round;">
</g>
<g style="fill:#FFFFFF; fill-opacity:1.0; 
stroke:#FFFFFF; stroke-width:0; stroke-opacity:1; 
stroke-linecap:round; stroke-linejoin:round;">
<circle cx="7449.24" cy="1873.03" r="196.85" /> 
</g>
<g style="fill:#FFFFFF; fill-opacity:1.0; 
stroke:#FFFFFF; stroke-width:39.3701; stroke-opacity:1; 
stroke-linecap:round; stroke-linejoin:round;">
</g>
<g style="fill:#FFFFFF; fill-opacity:1.0; 
stroke:#FFFFFF; stroke-width:0; stroke-opacity:1; 
stroke-linecap:round; stroke-linejoin:round;">
<circle cx="3151.01" cy="1676.18" r="492.126" /> 
</g>
<g style="fill:#FFFFFF; fill-opacity:1.0; 
stroke:#FFFFFF; stroke-width:39.3701; stroke-opacity:1; 
stroke-linecap:round; stroke-linejoin:round;">
</g>
<g style="fill:#FFFFFF; fill-opacity:1.0; 
stroke:#FFFFFF; stroke-width:0; stroke-opacity:1; 
stroke-linecap:round; stroke-linejoin:round;">
<circle cx="16143.1" cy="7975.39" r="492.126" /> 
</g>
<g style="fill:#FFFFFF; fill-opacity:1.0; 
stroke:#FFFFFF; stroke-width:39.3701; stroke-opacity:1; 
stroke-linecap:round; stroke-linejoin:round;">
</g>
<g style="fill:#000000; fill-opacity:1.0; 
stroke:#000000; stroke-width:39.3701; stroke-opacity:1; 
stroke-linecap:round; stroke-linejoin:round;">
</g>
<g style="fill:#000000; fill-opacity:1.0; 
stroke:#000000; stroke-width:19.685; stroke-opacity:1; 
stroke-linecap:round; stroke-linejoin:round;">
</g>
<g style="fill:#000000; fill-opacity:0.0; 
stroke:#000000; stroke-width:19.685; stroke-opacity:1; 
stroke-linecap:round; stroke-linejoin:round;">
<path d="M17127 8191
L18505 8191
" />
<path d="M17127 8861
L17127 8191
" />
<path d="M17127 1459
L18505 1459
" />
<path d="M17127 790
L17127 1459
" />
<path d="M1969 7483
L1182 7483
" />
<path d="M1969 8861
L1969 7483
" />
<path d="M1969 2168
L1182 2168
" />
<path d="M1969 790
L1969 2168
" />
<path d="M1182 2168
L1182 7483
" />
<path d="M17127 790
L1969 790
" />
<path d="M18505 8191
L18505 1459
" />
<path d="M1969 8861
L17127 8861
" />
<g >
</g>
<g >
</g>
<g >
</g>
<g >
</g>
<g >
</g>
<g >
</g>
<g >
</g>
<g >
</g>
<g >
</g>
<g >
</g>
<g >
</g>
<g >
</g>
<g >
</g>
<g >
</g>
<g >
</g>
<g >
</g>
<g >
</g>
<g >
</g>
<g >
</g>
<g >
</g>
<g >
</g>
</g> 
</svg>
