<?xml version="1.0" standalone="no"?>
 <!DOCTYPE svg PUBLIC "-//W3C//DTD SVG 1.1//EN" 
 "http://www.w3.org/Graphics/SVG/1.1/DTD/svg11.dtd"> 
<svg xmlns="http://www.w3.org/2000/svg" version="1.1" 
    width="1.82118cm" height="4.03098cm" viewBox="0 0 7170 15870 ">
<title>SVG Picture created as pixel-stick-F_Cu.svg date 2019/12/06 13:33:01 </title>
  <desc>Picture generated by PCBNEW </desc>
<g style="fill:#000000; fill-opacity:1;stroke:#000000; stroke-opacity:1;
stroke-linecap:round; stroke-linejoin:round; "
 transform="translate(0 0) scale(1 1)">
</g>
<g style="fill:#000000; fill-opacity:0.0; 
stroke:#000000; stroke-width:-0.000393701; stroke-opacity:1; 
stroke-linecap:round; stroke-linejoin:round;">
<g >
</g>
<g style="fill:#000000; fill-opacity:0.0; 
stroke:#000000; stroke-width:0; stroke-opacity:1; 
stroke-linecap:round; stroke-linejoin:round;">
</g>
<g style="fill:#000000; fill-opacity:1.0; 
stroke:#000000; stroke-width:0; stroke-opacity:1; 
stroke-linecap:round; stroke-linejoin:round;">
<path style="fill:#000000; fill-opacity:1.0; 
stroke:#000000; stroke-width:0; stroke-opacity:1; 
stroke-linecap:round; stroke-linejoin:round;fill-rule:evenodd;"
d="M 5786,4087
5796,4088
5805,4091
5814,4094
5822,4098
5830,4103
5838,4108
5845,4115
5851,4122
5857,4129
5862,4137
5866,4146
5869,4155
5871,4164
5872,4173
5873,4182
5873,4374
5872,4384
5871,4393
5869,4402
5866,4411
5862,4420
5857,4428
5851,4435
5845,4442
5838,4449
5830,4454
5822,4459
5814,4463
5805,4466
5796,4469
5786,4470
5777,4470
5418,4470
5408,4470
5399,4469
5390,4466
5381,4463
5372,4459
5364,4454
5357,4449
5350,4442
5344,4435
5338,4428
5333,4420
5329,4411
5326,4402
5324,4393
5322,4384
5322,4374
5322,4182
5322,4173
5324,4164
5326,4155
5329,4146
5333,4137
5338,4129
5344,4122
5350,4115
5357,4108
5364,4103
5372,4098
5381,4094
5390,4091
5399,4088
5408,4087
5418,4087
5777,4087
5786,4087
Z" /> 
<path style="fill:#000000; fill-opacity:1.0; 
stroke:#000000; stroke-width:0; stroke-opacity:1; 
stroke-linecap:round; stroke-linejoin:round;fill-rule:evenodd;"
d="M 5786,3349
5796,3350
5805,3352
5814,3356
5822,3360
5830,3364
5838,3370
5845,3376
5851,3383
5857,3391
5862,3399
5866,3408
5869,3416
5871,3426
5872,3435
5873,3444
5873,3636
5872,3646
5871,3655
5869,3664
5866,3673
5862,3681
5857,3690
5851,3697
5845,3704
5838,3710
5830,3716
5822,3721
5814,3725
5805,3728
5796,3730
5786,3732
5777,3732
5418,3732
5408,3732
5399,3730
5390,3728
5381,3725
5372,3721
5364,3716
5357,3710
5350,3704
5344,3697
5338,3690
5333,3681
5329,3673
5326,3664
5324,3655
5322,3646
5322,3636
5322,3444
5322,3435
5324,3426
5326,3416
5329,3408
5333,3399
5338,3391
5344,3383
5350,3376
5357,3370
5364,3364
5372,3360
5381,3356
5390,3352
5399,3350
5408,3349
5418,3348
5777,3348
5786,3349
Z" /> 
</g>
<g >
<path style="fill:#000000; fill-opacity:1.0; 
stroke:#000000; stroke-width:0; stroke-opacity:1; 
stroke-linecap:round; stroke-linejoin:round;fill-rule:evenodd;"
d="M 4786,4068
4796,4069
4805,4072
4814,4075
4822,4079
4830,4084
4838,4089
4845,4096
4851,4102
4857,4110
4862,4118
4866,4127
4869,4136
4871,4145
4872,4154
4873,4163
4873,4355
4872,4365
4871,4374
4869,4383
4866,4392
4862,4401
4857,4409
4851,4416
4845,4423
4838,4429
4830,4435
4822,4440
4814,4444
4805,4447
4796,4449
4786,4451
4777,4451
4418,4451
4408,4451
4399,4449
4390,4447
4381,4444
4372,4440
4364,4435
4357,4429
4350,4423
4344,4416
4338,4409
4333,4401
4329,4392
4326,4383
4324,4374
4322,4365
4322,4355
4322,4163
4322,4154
4324,4145
4326,4136
4329,4127
4333,4118
4338,4110
4344,4102
4350,4096
4357,4089
4364,4084
4372,4079
4381,4075
4390,4072
4399,4069
4408,4068
4418,4067
4777,4067
4786,4068
Z" /> 
<path style="fill:#000000; fill-opacity:1.0; 
stroke:#000000; stroke-width:0; stroke-opacity:1; 
stroke-linecap:round; stroke-linejoin:round;fill-rule:evenodd;"
d="M 4786,3330
4796,3331
4805,3333
4814,3337
4822,3341
4830,3345
4838,3351
4845,3357
4851,3364
4857,3372
4862,3380
4866,3388
4869,3397
4871,3406
4872,3416
4873,3425
4873,3617
4872,3627
4871,3636
4869,3645
4866,3654
4862,3662
4857,3670
4851,3678
4845,3685
4838,3691
4830,3697
4822,3702
4814,3706
4805,3709
4796,3711
4786,3713
4777,3713
4418,3713
4408,3713
4399,3711
4390,3709
4381,3706
4372,3702
4364,3697
4357,3691
4350,3685
4344,3678
4338,3670
4333,3662
4329,3654
4326,3645
4324,3636
4322,3627
4322,3617
4322,3425
4322,3416
4324,3406
4326,3397
4329,3388
4333,3380
4338,3372
4344,3364
4350,3357
4357,3351
4364,3345
4372,3341
4381,3337
4390,3333
4399,3331
4408,3330
4418,3329
4777,3329
4786,3330
Z" /> 
</g>
<g >
<circle cx="1247.83" cy="13259.8" r="492" /> 
</g>
<g style="fill:#000000; fill-opacity:1.0; 
stroke:#000000; stroke-width:39.3701; stroke-opacity:1; 
stroke-linecap:round; stroke-linejoin:round;">
</g>
<g style="fill:#000000; fill-opacity:1.0; 
stroke:#000000; stroke-width:0; stroke-opacity:1; 
stroke-linecap:round; stroke-linejoin:round;">
<circle cx="2747.83" cy="13259.8" r="492" /> 
</g>
<g style="fill:#000000; fill-opacity:1.0; 
stroke:#000000; stroke-width:39.3701; stroke-opacity:1; 
stroke-linecap:round; stroke-linejoin:round;">
</g>
<g style="fill:#000000; fill-opacity:1.0; 
stroke:#000000; stroke-width:0; stroke-opacity:1; 
stroke-linecap:round; stroke-linejoin:round;">
<circle cx="4247.83" cy="13259.8" r="492" /> 
</g>
<g style="fill:#000000; fill-opacity:1.0; 
stroke:#000000; stroke-width:39.3701; stroke-opacity:1; 
stroke-linecap:round; stroke-linejoin:round;">
</g>
<g style="fill:#000000; fill-opacity:1.0; 
stroke:#000000; stroke-width:0; stroke-opacity:1; 
stroke-linecap:round; stroke-linejoin:round;">
<path style="fill:#000000; fill-opacity:1.0; 
stroke:#000000; stroke-width:0; stroke-opacity:1; 
stroke-linecap:round; stroke-linejoin:round;fill-rule:evenodd;"
d="M 6239,12767
6239,13751
5255,13751
5255,12767
6239,12767
Z" /> 
</g>
<g >
</g>
<g style="fill:#000000; fill-opacity:1.0; 
stroke:#000000; stroke-width:669.291; stroke-opacity:1; 
stroke-linecap:round; stroke-linejoin:round;">
</g>
<g style="fill:#000000; fill-opacity:0.0; 
stroke:#000000; stroke-width:669.291; stroke-opacity:1; 
stroke-linecap:round; stroke-linejoin:round;">
<path d="M2047 2159
L2047 2159
" />
<path d="M2047 1159
L2047 1159
" />
<path d="M3047 2159
L3047 2159
" />
<path d="M3047 1159
L3047 1159
" />
<path d="M4047 2159
L4047 2159
" />
<path d="M4047 1159
L4047 1159
" />
<path d="M5047 2159
L5047 2159
" />
</g>
<g style="fill:#000000; fill-opacity:0.0; 
stroke:#000000; stroke-width:0; stroke-opacity:1; 
stroke-linecap:round; stroke-linejoin:round;">
</g>
<g style="fill:#000000; fill-opacity:1.0; 
stroke:#000000; stroke-width:0; stroke-opacity:1; 
stroke-linecap:round; stroke-linejoin:round;">
<path style="fill:#000000; fill-opacity:1.0; 
stroke:#000000; stroke-width:0; stroke-opacity:1; 
stroke-linecap:round; stroke-linejoin:round;fill-rule:evenodd;"
d="M 4713,825
5382,825
5382,1494
4713,1494
4713,825
Z" /> 
</g>
<g >
</g>
<g >
<path style="fill:#000000; fill-opacity:1.0; 
stroke:#000000; stroke-width:0; stroke-opacity:1; 
stroke-linecap:round; stroke-linejoin:round;fill-rule:evenodd;"
d="M 1543,6801
1799,6801
1799,7218
1543,7218
1543,6801
Z" /> 
<path style="fill:#000000; fill-opacity:1.0; 
stroke:#000000; stroke-width:0; stroke-opacity:1; 
stroke-linecap:round; stroke-linejoin:round;fill-rule:evenodd;"
d="M 1917,6801
2173,6801
2173,7218
1917,7218
1917,6801
Z" /> 
<path style="fill:#000000; fill-opacity:1.0; 
stroke:#000000; stroke-width:0; stroke-opacity:1; 
stroke-linecap:round; stroke-linejoin:round;fill-rule:evenodd;"
d="M 1169,6801
1425,6801
1425,7218
1169,7218
1169,6801
Z" /> 
<path style="fill:#000000; fill-opacity:1.0; 
stroke:#000000; stroke-width:0; stroke-opacity:1; 
stroke-linecap:round; stroke-linejoin:round;fill-rule:evenodd;"
d="M 1169,5935
1425,5935
1425,6352
1169,6352
1169,5935
Z" /> 
<path style="fill:#000000; fill-opacity:1.0; 
stroke:#000000; stroke-width:0; stroke-opacity:1; 
stroke-linecap:round; stroke-linejoin:round;fill-rule:evenodd;"
d="M 1543,5935
1799,5935
1799,6352
1543,6352
1543,5935
Z" /> 
<path style="fill:#000000; fill-opacity:1.0; 
stroke:#000000; stroke-width:0; stroke-opacity:1; 
stroke-linecap:round; stroke-linejoin:round;fill-rule:evenodd;"
d="M 1917,5935
2173,5935
2173,6352
1917,6352
1917,5935
Z" /> 
</g>
<g >
<path style="fill:#000000; fill-opacity:1.0; 
stroke:#000000; stroke-width:0; stroke-opacity:1; 
stroke-linecap:round; stroke-linejoin:round;fill-rule:evenodd;"
d="M 1519,4034
1775,4034
1775,4451
1519,4451
1519,4034
Z" /> 
<path style="fill:#000000; fill-opacity:1.0; 
stroke:#000000; stroke-width:0; stroke-opacity:1; 
stroke-linecap:round; stroke-linejoin:round;fill-rule:evenodd;"
d="M 1893,4034
2149,4034
2149,4451
1893,4451
1893,4034
Z" /> 
<path style="fill:#000000; fill-opacity:1.0; 
stroke:#000000; stroke-width:0; stroke-opacity:1; 
stroke-linecap:round; stroke-linejoin:round;fill-rule:evenodd;"
d="M 1145,4034
1401,4034
1401,4451
1145,4451
1145,4034
Z" /> 
<path style="fill:#000000; fill-opacity:1.0; 
stroke:#000000; stroke-width:0; stroke-opacity:1; 
stroke-linecap:round; stroke-linejoin:round;fill-rule:evenodd;"
d="M 1145,3168
1401,3168
1401,3585
1145,3585
1145,3168
Z" /> 
<path style="fill:#000000; fill-opacity:1.0; 
stroke:#000000; stroke-width:0; stroke-opacity:1; 
stroke-linecap:round; stroke-linejoin:round;fill-rule:evenodd;"
d="M 1519,3168
1775,3168
1775,3585
1519,3585
1519,3168
Z" /> 
<path style="fill:#000000; fill-opacity:1.0; 
stroke:#000000; stroke-width:0; stroke-opacity:1; 
stroke-linecap:round; stroke-linejoin:round;fill-rule:evenodd;"
d="M 1893,3168
2149,3168
2149,3585
1893,3585
1893,3168
Z" /> 
</g>
<g >
<path style="fill:#000000; fill-opacity:1.0; 
stroke:#000000; stroke-width:0; stroke-opacity:1; 
stroke-linecap:round; stroke-linejoin:round;fill-rule:evenodd;"
d="M 4437,8543
3847,8543
3847,7756
4437,7756
4437,8543
Z" /> 
<path style="fill:#000000; fill-opacity:1.0; 
stroke:#000000; stroke-width:0; stroke-opacity:1; 
stroke-linecap:round; stroke-linejoin:round;fill-rule:evenodd;"
d="M 6248,8543
5658,8543
5658,7756
6248,7756
6248,8543
Z" /> 
<path style="fill:#000000; fill-opacity:1.0; 
stroke:#000000; stroke-width:0; stroke-opacity:1; 
stroke-linecap:round; stroke-linejoin:round;fill-rule:evenodd;"
d="M 5343,8543
4752,8543
4752,7756
5343,7756
5343,8543
Z" /> 
<path style="fill:#000000; fill-opacity:1.0; 
stroke:#000000; stroke-width:0; stroke-opacity:1; 
stroke-linecap:round; stroke-linejoin:round;fill-rule:evenodd;"
d="M 5795,6063
4299,6063
4299,5275
5795,5275
5795,6063
Z" /> 
</g>
<g >
<path style="fill:#000000; fill-opacity:1.0; 
stroke:#000000; stroke-width:0; stroke-opacity:1; 
stroke-linecap:round; stroke-linejoin:round;fill-rule:evenodd;"
d="M 3686,4068
3696,4069
3705,4072
3714,4075
3722,4079
3730,4084
3738,4089
3745,4096
3751,4102
3757,4110
3762,4118
3766,4127
3769,4136
3771,4145
3772,4154
3773,4163
3773,4355
3772,4365
3771,4374
3769,4383
3766,4392
3762,4401
3757,4409
3751,4416
3745,4423
3738,4429
3730,4435
3722,4440
3714,4444
3705,4447
3696,4449
3686,4451
3677,4451
3318,4451
3308,4451
3299,4449
3290,4447
3281,4444
3272,4440
3264,4435
3257,4429
3250,4423
3244,4416
3238,4409
3233,4401
3229,4392
3226,4383
3224,4374
3222,4365
3222,4355
3222,4163
3222,4154
3224,4145
3226,4136
3229,4127
3233,4118
3238,4110
3244,4102
3250,4096
3257,4089
3264,4084
3272,4079
3281,4075
3290,4072
3299,4069
3308,4068
3318,4067
3677,4067
3686,4068
Z" /> 
<path style="fill:#000000; fill-opacity:1.0; 
stroke:#000000; stroke-width:0; stroke-opacity:1; 
stroke-linecap:round; stroke-linejoin:round;fill-rule:evenodd;"
d="M 3686,3330
3696,3331
3705,3333
3714,3337
3722,3341
3730,3345
3738,3351
3745,3357
3751,3364
3757,3372
3762,3380
3766,3388
3769,3397
3771,3406
3772,3416
3773,3425
3773,3617
3772,3627
3771,3636
3769,3645
3766,3654
3762,3662
3757,3670
3751,3678
3745,3685
3738,3691
3730,3697
3722,3702
3714,3706
3705,3709
3696,3711
3686,3713
3677,3713
3318,3713
3308,3713
3299,3711
3290,3709
3281,3706
3272,3702
3264,3697
3257,3691
3250,3685
3244,3678
3238,3670
3233,3662
3229,3654
3226,3645
3224,3636
3222,3627
3222,3617
3222,3425
3222,3416
3224,3406
3226,3397
3229,3388
3233,3380
3238,3372
3244,3364
3250,3357
3257,3351
3264,3345
3272,3341
3281,3337
3290,3333
3299,3331
3308,3330
3318,3329
3677,3329
3686,3330
Z" /> 
</g>
<g >
<path style="fill:#000000; fill-opacity:1.0; 
stroke:#000000; stroke-width:0; stroke-opacity:1; 
stroke-linecap:round; stroke-linejoin:round;fill-rule:evenodd;"
d="M 6053,10613
6063,10614
6072,10616
6081,10620
6090,10624
6098,10629
6106,10634
6113,10641
6119,10648
6125,10656
6130,10664
6134,10673
6138,10682
6140,10691
6141,10701
6142,10711
6142,11006
6141,11015
6140,11025
6138,11034
6134,11043
6130,11052
6125,11060
6119,11068
6113,11075
6106,11082
6098,11088
6090,11093
6081,11097
6072,11100
6063,11102
6053,11104
6043,11104
5551,11104
5542,11104
5532,11102
5523,11100
5514,11097
5505,11093
5497,11088
5489,11082
5482,11075
5475,11068
5469,11060
5464,11052
5460,11043
5457,11034
5455,11025
5453,11015
5453,11006
5453,10711
5453,10701
5455,10691
5457,10682
5460,10673
5464,10664
5469,10656
5475,10648
5482,10641
5489,10634
5497,10629
5505,10624
5514,10620
5523,10616
5532,10614
5542,10613
5551,10612
6043,10612
6053,10613
Z" /> 
<path style="fill:#000000; fill-opacity:1.0; 
stroke:#000000; stroke-width:0; stroke-opacity:1; 
stroke-linecap:round; stroke-linejoin:round;fill-rule:evenodd;"
d="M 6053,11715
6063,11716
6072,11719
6081,11722
6090,11726
6098,11731
6106,11737
6113,11743
6119,11750
6125,11758
6130,11766
6134,11775
6138,11784
6140,11794
6141,11803
6142,11813
6142,12108
6141,12118
6140,12127
6138,12137
6134,12146
6130,12155
6125,12163
6119,12171
6113,12178
6106,12184
6098,12190
6090,12195
6081,12199
6072,12202
6063,12205
6053,12206
6043,12207
5551,12207
5542,12206
5532,12205
5523,12202
5514,12199
5505,12195
5497,12190
5489,12184
5482,12178
5475,12171
5469,12163
5464,12155
5460,12146
5457,12137
5455,12127
5453,12118
5453,12108
5453,11813
5453,11803
5455,11794
5457,11784
5460,11775
5464,11766
5469,11758
5475,11750
5482,11743
5489,11737
5497,11731
5505,11726
5514,11722
5523,11719
5532,11716
5542,11715
5551,11714
6043,11714
6053,11715
Z" /> 
</g>
<g >
<path style="fill:#000000; fill-opacity:1.0; 
stroke:#000000; stroke-width:0; stroke-opacity:1; 
stroke-linecap:round; stroke-linejoin:round;fill-rule:evenodd;"
d="M 2344,10168
2354,10169
2363,10171
2372,10175
2381,10179
2389,10184
2397,10190
2404,10196
2411,10203
2417,10211
2422,10219
2426,10228
2429,10237
2431,10246
2433,10256
2433,10266
2433,11053
2433,11063
2431,11072
2429,11082
2426,11091
2422,11099
2417,11108
2411,11115
2404,11123
2397,11129
2389,11135
2381,11140
2372,11144
2363,11147
2354,11150
2344,11151
2335,11151
957,11151
947,11151
938,11150
928,11147
919,11144
910,11140
902,11135
894,11129
887,11123
881,11115
875,11108
870,11099
866,11091
863,11082
860,11072
859,11063
858,11053
858,10266
859,10256
860,10246
863,10237
866,10228
870,10219
875,10211
881,10203
887,10196
894,10190
902,10184
910,10179
919,10175
928,10171
938,10169
947,10168
957,10167
2335,10167
2344,10168
Z" /> 
<path style="fill:#000000; fill-opacity:1.0; 
stroke:#000000; stroke-width:0; stroke-opacity:1; 
stroke-linecap:round; stroke-linejoin:round;fill-rule:evenodd;"
d="M 4746,10168
4756,10169
4765,10171
4774,10175
4783,10179
4791,10184
4799,10190
4806,10196
4812,10203
4818,10211
4823,10219
4827,10228
4830,10237
4833,10246
4834,10256
4835,10266
4835,11053
4834,11063
4833,11072
4830,11082
4827,11091
4823,11099
4818,11108
4812,11115
4806,11123
4799,11129
4791,11135
4783,11140
4774,11144
4765,11147
4756,11150
4746,11151
4736,11151
3358,11151
3349,11151
3339,11150
3330,11147
3321,11144
3312,11140
3304,11135
3296,11129
3289,11123
3282,11115
3277,11108
3272,11099
3267,11091
3264,11082
3262,11072
3260,11063
3260,11053
3260,10266
3260,10256
3262,10246
3264,10237
3267,10228
3272,10219
3277,10211
3282,10203
3289,10196
3296,10190
3304,10184
3312,10179
3321,10175
3330,10171
3339,10169
3349,10168
3358,10167
4736,10167
4746,10168
Z" /> 
</g>
<g >
<path style="fill:#000000; fill-opacity:1.0; 
stroke:#000000; stroke-width:0; stroke-opacity:1; 
stroke-linecap:round; stroke-linejoin:round;fill-rule:evenodd;"
d="M 1415,4834
1424,4836
1433,4838
1442,4841
1450,4845
1458,4850
1466,4856
1473,4862
1479,4869
1485,4876
1490,4884
1494,4893
1497,4902
1499,4911
1501,4920
1501,4930
1501,5289
1501,5298
1499,5308
1497,5317
1494,5326
1490,5334
1485,5342
1479,5350
1473,5357
1466,5363
1458,5369
1450,5374
1442,5378
1433,5381
1424,5383
1415,5384
1405,5385
1213,5385
1204,5384
1194,5383
1185,5381
1176,5378
1168,5374
1160,5369
1152,5363
1145,5357
1139,5350
1133,5342
1129,5334
1125,5326
1121,5317
1119,5308
1118,5298
1117,5289
1117,4930
1118,4920
1119,4911
1121,4902
1125,4893
1129,4884
1133,4876
1139,4869
1145,4862
1152,4856
1160,4850
1168,4845
1176,4841
1185,4838
1194,4836
1204,4834
1213,4834
1405,4834
1415,4834
Z" /> 
<path style="fill:#000000; fill-opacity:1.0; 
stroke:#000000; stroke-width:0; stroke-opacity:1; 
stroke-linecap:round; stroke-linejoin:round;fill-rule:evenodd;"
d="M 2153,4834
2162,4836
2171,4838
2180,4841
2189,4845
2197,4850
2204,4856
2211,4862
2217,4869
2223,4876
2228,4884
2232,4893
2235,4902
2237,4911
2239,4920
2239,4930
2239,5289
2239,5298
2237,5308
2235,5317
2232,5326
2228,5334
2223,5342
2217,5350
2211,5357
2204,5363
2197,5369
2189,5374
2180,5378
2171,5381
2162,5383
2153,5384
2143,5385
1951,5385
1942,5384
1933,5383
1924,5381
1915,5378
1906,5374
1898,5369
1890,5363
1884,5357
1877,5350
1872,5342
1867,5334
1863,5326
1860,5317
1857,5308
1856,5298
1855,5289
1855,4930
1856,4920
1857,4911
1860,4902
1863,4893
1867,4884
1872,4876
1877,4869
1884,4862
1890,4856
1898,4850
1906,4845
1915,4841
1924,4838
1933,4836
1942,4834
1951,4834
2143,4834
2153,4834
Z" /> 
</g>
<g >
<path style="fill:#000000; fill-opacity:1.0; 
stroke:#000000; stroke-width:0; stroke-opacity:1; 
stroke-linecap:round; stroke-linejoin:round;fill-rule:evenodd;"
d="M 1415,7734
1424,7736
1433,7738
1442,7741
1450,7745
1458,7750
1466,7756
1473,7762
1479,7769
1485,7776
1490,7784
1494,7793
1497,7802
1499,7811
1501,7820
1501,7830
1501,8189
1501,8198
1499,8208
1497,8217
1494,8226
1490,8234
1485,8242
1479,8250
1473,8257
1466,8263
1458,8269
1450,8274
1442,8278
1433,8281
1424,8283
1415,8284
1405,8285
1213,8285
1204,8284
1194,8283
1185,8281
1176,8278
1168,8274
1160,8269
1152,8263
1145,8257
1139,8250
1133,8242
1129,8234
1125,8226
1121,8217
1119,8208
1118,8198
1117,8189
1117,7830
1118,7820
1119,7811
1121,7802
1125,7793
1129,7784
1133,7776
1139,7769
1145,7762
1152,7756
1160,7750
1168,7745
1176,7741
1185,7738
1194,7736
1204,7734
1213,7734
1405,7734
1415,7734
Z" /> 
<path style="fill:#000000; fill-opacity:1.0; 
stroke:#000000; stroke-width:0; stroke-opacity:1; 
stroke-linecap:round; stroke-linejoin:round;fill-rule:evenodd;"
d="M 2153,7734
2162,7736
2171,7738
2180,7741
2189,7745
2197,7750
2204,7756
2211,7762
2217,7769
2223,7776
2228,7784
2232,7793
2235,7802
2237,7811
2239,7820
2239,7830
2239,8189
2239,8198
2237,8208
2235,8217
2232,8226
2228,8234
2223,8242
2217,8250
2211,8257
2204,8263
2197,8269
2189,8274
2180,8278
2171,8281
2162,8283
2153,8284
2143,8285
1951,8285
1942,8284
1933,8283
1924,8281
1915,8278
1906,8274
1898,8269
1890,8263
1884,8257
1877,8250
1872,8242
1867,8234
1863,8226
1860,8217
1857,8208
1856,8198
1855,8189
1855,7830
1856,7820
1857,7811
1860,7802
1863,7793
1867,7784
1872,7776
1877,7769
1884,7762
1890,7756
1898,7750
1906,7745
1915,7741
1924,7738
1933,7736
1942,7734
1951,7734
2143,7734
2153,7734
Z" /> 
</g>
<g >
<path style="fill:#000000; fill-opacity:1.0; 
stroke:#000000; stroke-width:0; stroke-opacity:1; 
stroke-linecap:round; stroke-linejoin:round;fill-rule:evenodd;"
d="M 3186,7106
3196,7107
3205,7110
3214,7113
3222,7117
3230,7122
3238,7127
3245,7134
3251,7141
3257,7148
3262,7156
3266,7165
3269,7174
3271,7183
3272,7192
3273,7202
3273,7393
3272,7403
3271,7412
3269,7421
3266,7430
3262,7439
3257,7447
3251,7454
3245,7461
3238,7468
3230,7473
3222,7478
3214,7482
3205,7485
3196,7488
3186,7489
3177,7489
2818,7489
2808,7489
2799,7488
2790,7485
2781,7482
2772,7478
2764,7473
2757,7468
2750,7461
2744,7454
2738,7447
2733,7439
2729,7430
2726,7421
2724,7412
2722,7403
2722,7393
2722,7202
2722,7192
2724,7183
2726,7174
2729,7165
2733,7156
2738,7148
2744,7141
2750,7134
2757,7127
2764,7122
2772,7117
2781,7113
2790,7110
2799,7107
2808,7106
2818,7106
3177,7106
3186,7106
Z" /> 
<path style="fill:#000000; fill-opacity:1.0; 
stroke:#000000; stroke-width:0; stroke-opacity:1; 
stroke-linecap:round; stroke-linejoin:round;fill-rule:evenodd;"
d="M 3186,6368
3196,6369
3205,6372
3214,6375
3222,6379
3230,6384
3238,6389
3245,6396
3251,6402
3257,6410
3262,6418
3266,6427
3269,6436
3271,6445
3272,6454
3273,6463
3273,6655
3272,6665
3271,6674
3269,6683
3266,6692
3262,6701
3257,6709
3251,6716
3245,6723
3238,6729
3230,6735
3222,6740
3214,6744
3205,6747
3196,6749
3186,6751
3177,6751
2818,6751
2808,6751
2799,6749
2790,6747
2781,6744
2772,6740
2764,6735
2757,6729
2750,6723
2744,6716
2738,6709
2733,6701
2729,6692
2726,6683
2724,6674
2722,6665
2722,6655
2722,6463
2722,6454
2724,6445
2726,6436
2729,6427
2733,6418
2738,6410
2744,6402
2750,6396
2757,6389
2764,6384
2772,6379
2781,6375
2790,6372
2799,6369
2808,6368
2818,6367
3177,6367
3186,6368
Z" /> 
</g>
<g >
<path style="fill:#000000; fill-opacity:1.0; 
stroke:#000000; stroke-width:0; stroke-opacity:1; 
stroke-linecap:round; stroke-linejoin:round;fill-rule:evenodd;"
d="M 5284,9134
5293,9136
5302,9138
5311,9141
5319,9145
5328,9150
5335,9156
5342,9162
5348,9169
5354,9176
5359,9184
5363,9193
5366,9202
5368,9211
5370,9220
5370,9230
5370,9589
5370,9598
5368,9608
5366,9617
5363,9626
5359,9634
5354,9642
5348,9650
5342,9657
5335,9663
5328,9669
5319,9674
5311,9678
5302,9681
5293,9683
5284,9684
5274,9685
5082,9685
5073,9684
5064,9683
5054,9681
5046,9678
5037,9674
5029,9669
5021,9663
5014,9657
5008,9650
5002,9642
4998,9634
4994,9626
4990,9617
4988,9608
4987,9598
4986,9589
4986,9230
4987,9220
4988,9211
4990,9202
4994,9193
4998,9184
5002,9176
5008,9169
5014,9162
5021,9156
5029,9150
5037,9145
5046,9141
5054,9138
5064,9136
5073,9134
5082,9134
5274,9134
5284,9134
Z" /> 
<path style="fill:#000000; fill-opacity:1.0; 
stroke:#000000; stroke-width:0; stroke-opacity:1; 
stroke-linecap:round; stroke-linejoin:round;fill-rule:evenodd;"
d="M 6022,9134
6031,9136
6040,9138
6049,9141
6058,9145
6066,9150
6073,9156
6080,9162
6087,9169
6092,9176
6097,9184
6101,9193
6104,9202
6107,9211
6108,9220
6108,9230
6108,9589
6108,9598
6107,9608
6104,9617
6101,9626
6097,9634
6092,9642
6087,9650
6080,9657
6073,9663
6066,9669
6058,9674
6049,9678
6040,9681
6031,9683
6022,9684
6012,9685
5820,9685
5811,9684
5802,9683
5793,9681
5784,9678
5775,9674
5767,9669
5760,9663
5753,9657
5746,9650
5741,9642
5736,9634
5732,9626
5729,9617
5726,9608
5725,9598
5725,9589
5725,9230
5725,9220
5726,9211
5729,9202
5732,9193
5736,9184
5741,9176
5746,9169
5753,9162
5760,9156
5767,9150
5775,9145
5784,9141
5793,9138
5802,9136
5811,9134
5820,9134
6012,9134
6022,9134
Z" /> 
</g>
<g >
<path style="fill:#000000; fill-opacity:1.0; 
stroke:#000000; stroke-width:0; stroke-opacity:1; 
stroke-linecap:round; stroke-linejoin:round;fill-rule:evenodd;"
d="M 1136,1787
1146,1788
1155,1791
1164,1794
1172,1798
1180,1803
1188,1808
1195,1815
1201,1822
1207,1829
1212,1837
1216,1846
1219,1855
1221,1864
1222,1873
1223,1882
1223,2074
1222,2084
1221,2093
1219,2102
1216,2111
1212,2120
1207,2128
1201,2135
1195,2142
1188,2149
1180,2154
1172,2159
1164,2163
1155,2166
1146,2169
1136,2170
1127,2170
768,2170
758,2170
749,2169
740,2166
731,2163
722,2159
714,2154
707,2149
700,2142
694,2135
688,2128
683,2120
679,2111
676,2102
674,2093
672,2084
672,2074
672,1882
672,1873
674,1864
676,1855
679,1846
683,1837
688,1829
694,1822
700,1815
707,1808
714,1803
722,1798
731,1794
740,1791
749,1788
758,1787
768,1787
1127,1787
1136,1787
Z" /> 
<path style="fill:#000000; fill-opacity:1.0; 
stroke:#000000; stroke-width:0; stroke-opacity:1; 
stroke-linecap:round; stroke-linejoin:round;fill-rule:evenodd;"
d="M 1136,1049
1146,1050
1155,1052
1164,1056
1172,1060
1180,1064
1188,1070
1195,1076
1201,1083
1207,1091
1212,1099
1216,1108
1219,1116
1221,1126
1222,1135
1223,1144
1223,1336
1222,1346
1221,1355
1219,1364
1216,1373
1212,1381
1207,1390
1201,1397
1195,1404
1188,1410
1180,1416
1172,1421
1164,1425
1155,1428
1146,1430
1136,1432
1127,1432
768,1432
758,1432
749,1430
740,1428
731,1425
722,1421
714,1416
707,1410
700,1404
694,1397
688,1390
683,1381
679,1373
676,1364
674,1355
672,1346
672,1336
672,1144
672,1135
674,1126
676,1116
679,1108
683,1099
688,1091
694,1083
700,1076
707,1070
714,1064
722,1060
731,1056
740,1052
749,1050
758,1049
768,1048
1127,1048
1136,1049
Z" /> 
</g>
<g >
<circle cx="2647.83" cy="3509.84" r="157.48" /> 
</g>
<g style="fill:#000000; fill-opacity:1.0; 
stroke:#000000; stroke-width:39.3701; stroke-opacity:1; 
stroke-linecap:round; stroke-linejoin:round;">
</g>
<g >
</g>
<g style="fill:#000000; fill-opacity:1.0; 
stroke:#000000; stroke-width:98.4252; stroke-opacity:1; 
stroke-linecap:round; stroke-linejoin:round;">
</g>
<g style="fill:#000000; fill-opacity:0.0; 
stroke:#000000; stroke-width:98.4252; stroke-opacity:1; 
stroke-linecap:round; stroke-linejoin:round;">
<path d="M1917 2799
L4408 2799
" />
<path d="M1647 3069
L1917 2799
" />
<path d="M1647 3376
L1647 3069
" />
</g>
<g style="fill:#000000; fill-opacity:0.0; 
stroke:#000000; stroke-width:196.85; stroke-opacity:1; 
stroke-linecap:round; stroke-linejoin:round;">
<path d="M1671 5738
L1593 5659
" />
<path d="M1671 6143
L1671 5738
" />
<path d="M1593 5659
L1297 5659
" />
</g>
<g style="fill:#000000; fill-opacity:0.0; 
stroke:#000000; stroke-width:393.701; stroke-opacity:1; 
stroke-linecap:round; stroke-linejoin:round;">
<path d="M5097 2209
L5047 2159
" />
</g>
<g style="fill:#000000; fill-opacity:0.0; 
stroke:#000000; stroke-width:98.4252; stroke-opacity:1; 
stroke-linecap:round; stroke-linejoin:round;">
<path d="M4988 2799
L5047 2858
" />
<path d="M4408 2799
L4988 2799
" />
</g>
<g style="fill:#000000; fill-opacity:0.0; 
stroke:#000000; stroke-width:393.701; stroke-opacity:1; 
stroke-linecap:round; stroke-linejoin:round;">
<path d="M5047 2990
L5597 3540
" />
<path d="M5047 2159
L5047 2990
" />
</g>
<g style="fill:#000000; fill-opacity:0.0; 
stroke:#000000; stroke-width:196.85; stroke-opacity:1; 
stroke-linecap:round; stroke-linejoin:round;">
<path d="M5047 8150
L5047 5669
" />
</g>
<g style="fill:#000000; fill-opacity:0.0; 
stroke:#000000; stroke-width:98.4252; stroke-opacity:1; 
stroke-linecap:round; stroke-linejoin:round;">
<path d="M2021 3069
L2081 3009
" />
<path d="M2021 3376
L2021 3069
" />
<path d="M5047 4909
L5047 5669
" />
</g>
<g style="fill:#000000; fill-opacity:0.0; 
stroke:#000000; stroke-width:196.85; stroke-opacity:1; 
stroke-linecap:round; stroke-linejoin:round;">
<path d="M1297 6143
L1297 6559
" />
<path d="M1671 7009
L1671 6583
" />
<path d="M1497 6559
L2997 6559
" />
<path d="M1297 6559
L1497 6559
" />
</g>
<g style="fill:#000000; fill-opacity:0.0; 
stroke:#000000; stroke-width:98.4252; stroke-opacity:1; 
stroke-linecap:round; stroke-linejoin:round;">
<path d="M2081 3009
L3836 3009
" />
<path d="M4047 4259
L4047 3009
" />
<path d="M3836 3009
L4047 3009
" />
<path d="M3497 4259
L4047 4259
" />
<path d="M4047 4259
L4597 4259
" />
</g>
<g style="fill:#000000; fill-opacity:0.0; 
stroke:#000000; stroke-width:196.85; stroke-opacity:1; 
stroke-linecap:round; stroke-linejoin:round;">
<path d="M1309 7021
L1297 7009
" />
<path d="M1309 8009
L1309 7021
" />
<path d="M2047 7011
L2045 7009
" />
<path d="M2047 8009
L2047 7011
" />
<path d="M2045 5111
L2047 5109
" />
<path d="M2045 6143
L2045 5111
" />
<path d="M2047 4268
L2021 4242
" />
<path d="M2047 5109
L2047 4268
" />
</g>
<g style="fill:#000000; fill-opacity:0.0; 
stroke:#000000; stroke-width:98.4252; stroke-opacity:1; 
stroke-linecap:round; stroke-linejoin:round;">
<path d="M2490 3667
L2647 3509
" />
<path d="M2444 3713
L2490 3667
" />
<path d="M1496 3713
L2444 3713
" />
<path d="M1273 3935
L1496 3713
" />
<path d="M1273 4242
L1273 3935
" />
<path d="M1273 3069
L1273 3376
" />
<path d="M1721 2622
L1273 3069
" />
<path d="M3585 2622
L1721 2622
" />
<path d="M4047 2159
L3585 2622
" />
<path d="M3109 3909
L3497 3521
" />
<path d="M1677 3906
L2252 3906
" />
<path d="M2255 3909
L3109 3909
" />
<path d="M2252 3906
L2255 3909
" />
<path d="M1647 3935
L1677 3906
" />
<path d="M1647 4242
L1647 3935
" />
<path d="M5346 4259
L5347 4261
" />
</g>
<g style="fill:#000000; fill-opacity:0.0; 
stroke:#000000; stroke-width:196.85; stroke-opacity:1; 
stroke-linecap:round; stroke-linejoin:round;">
<path d="M5355 4278
L5597 4278
" />
<path d="M4597 3521
L5355 4278
" />
</g>
<g >
</g>
<g style="fill:#000000; fill-opacity:1.0; 
stroke:#000000; stroke-width:100; stroke-opacity:1; 
stroke-linecap:round; stroke-linejoin:round;">
<path style="fill:#000000; fill-opacity:1.0; 
stroke:#000000; stroke-width:100; stroke-opacity:1; 
stroke-linecap:round; stroke-linejoin:round;fill-rule:evenodd;"
d="M 1559,1833
1505,1935
1471,2045
1467,2085
1410,2028
997,2028
997,2358
1060,2420
1223,2422
1272,2417
1319,2402
1362,2379
1401,2348
1432,2310
1455,2267
1467,2228
1471,2274
1505,2384
1515,2404
1508,2409
1499,2421
1072,2847
1061,2857
1048,2872
1023,2902
1005,2936
996,2954
990,2971
968,2990
936,3028
913,3071
899,3119
894,3168
894,3585
899,3634
913,3681
936,3724
968,3763
1006,3794
1009,3795
996,3820
992,3831
990,3838
968,3856
936,3894
913,3938
899,3985
894,4034
894,4451
899,4500
913,4547
936,4591
968,4629
970,4631
940,4656
908,4694
885,4738
871,4785
866,4834
867,4997
930,5059
1259,5059
1259,5051
1359,5051
1359,5059
1367,5059
1367,5159
1359,5159
1359,5572
1422,5635
1501,5636
1550,5631
1597,5617
1641,5594
1679,5563
1697,5540
1697,5817
1685,5838
1671,5884
1657,5838
1634,5795
1621,5779
1621,5747
1559,5685
1543,5683
1494,5688
1484,5691
1474,5688
1425,5683
1169,5683
1120,5688
1073,5702
1030,5726
992,5757
961,5795
937,5838
923,5886
918,5935
918,6352
923,6401
937,6448
949,6470
949,6542
947,6559
954,6628
963,6658
961,6661
937,6705
923,6752
918,6801
918,7218
923,7267
937,7314
961,7358
961,7358
961,7593
925,7637
892,7697
873,7762
866,7830
866,8189
873,8257
892,8322
925,8382
968,8434
1020,8478
1080,8510
1145,8529
1213,8536
1405,8536
1473,8529
1538,8510
1598,8478
1651,8434
1678,8401
1706,8434
1758,8478
1819,8510
1884,8529
1951,8536
2143,8536
2211,8529
2276,8510
2336,8478
2389,8434
2432,8382
2464,8322
2484,8257
2490,8189
2490,7830
2484,7762
2482,7756
3595,7756
3597,8037
3659,8100
4092,8100
4092,7568
4029,7506
3847,7505
3798,7509
3750,7524
3707,7547
3669,7578
3638,7616
3614,7660
3600,7707
3595,7756
2482,7756
2464,7697
2432,7637
2396,7593
2396,7489
2471,7489
2475,7538
2490,7586
2513,7629
2544,7667
2582,7698
2626,7722
2673,7736
2722,7741
2885,7739
2947,7677
2947,7348
3047,7348
3047,7677
3110,7739
3273,7741
3322,7736
3369,7722
3412,7698
3451,7667
3482,7629
3505,7586
3519,7538
3524,7489
3523,7410
3460,7348
3047,7348
2947,7348
2534,7348
2472,7410
2471,7489
2396,7489
2396,7332
2405,7314
2420,7267
2425,7218
2425,7059
2475,7059
2471,7106
2472,7185
2534,7248
2947,7248
2947,7240
3047,7240
3047,7248
3460,7248
3523,7185
3524,7106
3520,7059
4397,7059
4397,7505
4254,7506
4192,7568
4192,8100
4200,8100
4200,8200
4192,8200
4192,8731
4254,8793
4397,8794
4397,8809
4398,8819
4401,8828
4406,8837
4412,8845
4420,8851
4428,8856
4438,8858
4447,8859
5397,8859
5397,8885
5370,8883
5291,8884
5228,8946
5228,9359
5236,9359
5236,9459
5228,9459
5228,9467
5128,9467
5128,9459
4799,9459
4736,9522
4736,9559
2747,9559
2738,9560
2728,9563
2720,9568
2712,9574
2706,9582
2701,9590
2698,9600
2697,9609
2697,11809
2698,11819
2701,11828
2706,11837
2712,11845
2720,11851
2728,11856
2738,11858
2747,11859
4597,11859
4597,12601
4464,12546
4320,12517
4174,12517
4031,12546
3896,12602
3774,12683
3671,12786
3590,12908
3534,13043
3505,13186
3505,13332
3534,13476
3590,13611
3671,13732
3774,13836
3896,13917
4031,13973
4174,14001
4320,14001
4464,13973
4597,13918
4597,14350
810,14350
751,14344
706,14330
665,14308
629,14279
599,14243
577,14202
563,14157
557,14099
557,13776
801,13776
851,13891
981,13956
1122,13994
1268,14005
1413,13986
1552,13940
1644,13891
1694,13776
1247,13330
801,13776
557,13776
557,13535
567,13564
616,13656
730,13706
1177,13259
1318,13259
1764,13706
1879,13656
1944,13525
1982,13384
1993,13239
1986,13186
2005,13186
2005,13332
2034,13476
2090,13611
2171,13732
2274,13836
2396,13917
2531,13973
2674,14001
2820,14001
2964,13973
3099,13917
3220,13836
3324,13732
3405,13611
3461,13476
3489,13332
3489,13186
3461,13043
3405,12908
3324,12786
3220,12683
3099,12602
2964,12546
2820,12517
2674,12517
2531,12546
2396,12602
2274,12683
2171,12786
2090,12908
2034,13043
2005,13186
1986,13186
1974,13094
1928,12955
1879,12863
1764,12813
1318,13259
1177,13259
730,12813
616,12863
557,12981
557,12742
801,12742
1247,13189
1694,12742
1644,12628
1513,12563
1372,12524
1227,12514
1082,12532
943,12579
851,12628
801,12742
557,12742
557,11151
607,11151
612,11200
626,11248
649,11291
681,11329
719,11360
762,11384
809,11398
858,11403
1533,11401
1596,11339
1596,10709
1696,10709
1696,11339
1758,11401
2433,11403
2482,11398
2529,11384
2573,11360
2611,11329
2642,11291
2665,11248
2680,11200
2684,11151
2683,10772
2621,10709
1696,10709
1596,10709
671,10709
608,10772
607,11151
557,11151
557,10167
607,10167
608,10547
671,10609
1596,10609
1596,9980
1696,9980
1696,10609
2621,10609
2683,10547
2684,10167
2680,10118
2665,10071
2642,10028
2611,9990
2573,9958
2529,9935
2482,9921
2433,9916
1758,9917
1696,9980
1596,9980
1533,9917
858,9916
809,9921
762,9935
719,9958
681,9990
649,10028
626,10071
612,10118
607,10167
557,10167
557,9134
4735,9134
4736,9297
4799,9359
5128,9359
5128,8946
5066,8884
4986,8883
4937,8887
4890,8902
4847,8925
4809,8956
4777,8994
4754,9038
4740,9085
4735,9134
557,9134
557,8543
3595,8543
3600,8592
3614,8639
3638,8683
3669,8721
3707,8752
3750,8775
3798,8790
3847,8794
4029,8793
4092,8731
4092,8200
3659,8200
3597,8262
3595,8543
557,8543
557,5385
866,5385
871,5434
885,5481
908,5524
940,5563
978,5594
1021,5617
1068,5631
1117,5636
1197,5635
1259,5572
1259,5159
930,5159
867,5222
866,5385
557,5385
557,2393
576,2402
623,2417
672,2422
835,2420
897,2358
897,2028
889,2028
889,1928
897,1928
897,1921
997,1921
997,1928
1410,1928
1473,1866
1474,1787
1471,1759
1619,1759
1559,1833
Z" /> 
<path style="fill:#000000; fill-opacity:1.0; 
stroke:#000000; stroke-width:100; stroke-opacity:1; 
stroke-linecap:round; stroke-linejoin:round;fill-rule:evenodd;"
d="M 6537,11559
6283,11559
6238,11522
6177,11490
6112,11470
6043,11463
5551,11463
5483,11470
5417,11490
5357,11522
5312,11559
2997,11559
2997,11151
3009,11151
3014,11200
3028,11248
3051,11291
3082,11329
3120,11360
3164,11384
3211,11398
3260,11403
3935,11401
3997,11339
3997,10709
4097,10709
4097,11339
4160,11401
4835,11403
4884,11398
4931,11384
4974,11360
5012,11329
5044,11291
5067,11248
5081,11200
5086,11151
5086,11104
5202,11104
5206,11153
5221,11200
5244,11244
5275,11282
5313,11313
5357,11336
5404,11351
5453,11355
5685,11354
5747,11292
5747,10908
5847,10908
5847,11292
5910,11354
6142,11355
6191,11351
6238,11336
6281,11313
6319,11282
6351,11244
6374,11200
6388,11153
6393,11104
6392,10971
6329,10908
5847,10908
5747,10908
5265,10908
5203,10971
5202,11104
5086,11104
5085,10772
5022,10709
4097,10709
3997,10709
3072,10709
3010,10772
3009,11151
2997,11151
2997,10612
5202,10612
5203,10746
5265,10808
5747,10808
5747,10425
5847,10425
5847,10808
6329,10808
6392,10746
6393,10612
6388,10563
6374,10516
6351,10473
6319,10434
6281,10403
6238,10380
6191,10366
6142,10361
5910,10362
5847,10425
5747,10425
5685,10362
5453,10361
5404,10366
5357,10380
5313,10403
5275,10434
5244,10473
5221,10516
5206,10563
5202,10612
2997,10612
2997,10167
3009,10167
3010,10547
3072,10609
3997,10609
3997,9980
4097,9980
4097,10609
5022,10609
5085,10547
5086,10167
5081,10118
5067,10071
5044,10028
5012,9990
4974,9958
4931,9935
4884,9921
4835,9916
4160,9917
4097,9980
3997,9980
3935,9917
3260,9916
3211,9921
3164,9935
3120,9958
3082,9990
3051,10028
3028,10071
3014,10118
3009,10167
2997,10167
2997,9859
4867,9859
4889,9878
4949,9910
5015,9929
5082,9936
5274,9936
5342,9929
5407,9910
5467,9878
5489,9859
5544,9859
5547,9863
5585,9894
5628,9917
5675,9931
5725,9936
5804,9935
5866,9872
5866,9459
5966,9459
5966,9872
6029,9935
6108,9936
6157,9931
6204,9917
6248,9894
6286,9863
6317,9824
6340,9781
6355,9734
6360,9685
6358,9522
6296,9459
5966,9459
5866,9459
5859,9459
5859,9359
5866,9359
5866,8946
5966,8946
5966,9359
6296,9359
6358,9297
6360,9134
6355,9085
6340,9038
6317,8994
6286,8956
6248,8925
6204,8902
6157,8887
6108,8883
6029,8884
5966,8946
5866,8946
5804,8884
5725,8883
5697,8885
5697,8794
5840,8793
5903,8731
5903,8200
6003,8200
6003,8731
6065,8793
6248,8794
6297,8790
6344,8775
6388,8752
6426,8721
6457,8683
6480,8639
6495,8592
6499,8543
6498,8262
6436,8200
6003,8200
5903,8200
5895,8200
5895,8100
5903,8100
5903,7568
6003,7568
6003,8100
6436,8100
6498,8037
6499,7756
6495,7707
6480,7660
6457,7616
6426,7578
6388,7547
6344,7524
6297,7509
6248,7505
6065,7506
6003,7568
5903,7568
5840,7506
5697,7505
5697,7059
6537,7059
6537,11559
Z" /> 
<path style="fill:#000000; fill-opacity:1.0; 
stroke:#000000; stroke-width:100; stroke-opacity:1; 
stroke-linecap:round; stroke-linejoin:round;fill-rule:evenodd;"
d="M 5265,11911
5747,11911
5747,11903
5847,11903
5847,11911
6329,11911
6381,11859
6537,11859
6537,14097
6532,14156
6518,14200
6496,14242
6467,14278
6431,14307
6390,14330
6345,14343
6287,14350
4897,14350
4897,13751
5004,13751
5009,13800
5023,13847
5046,13891
5078,13929
5116,13960
5159,13983
5206,13998
5255,14003
5635,14001
5697,13939
5697,13309
5797,13309
5797,13939
5860,14001
6239,14003
6288,13998
6335,13983
6379,13960
6417,13929
6448,13891
6471,13847
6486,13800
6491,13751
6489,13372
6427,13309
5797,13309
5697,13309
5068,13309
5005,13372
5004,13751
4897,13751
4897,13622
4905,13611
4961,13476
4989,13332
4989,13186
4961,13043
4905,12908
4897,12897
4897,12767
5004,12767
5005,13147
5068,13209
5697,13209
5697,12580
5797,12580
5797,13209
6427,13209
6489,13147
6491,12767
6486,12718
6471,12671
6448,12628
6417,12590
6379,12558
6335,12535
6288,12521
6239,12516
5860,12517
5797,12580
5697,12580
5635,12517
5255,12516
5206,12521
5159,12535
5116,12558
5078,12590
5046,12628
5023,12671
5009,12718
5004,12767
4897,12767
4897,12207
5202,12207
5206,12256
5221,12303
5244,12346
5275,12384
5313,12415
5357,12439
5404,12453
5453,12458
5685,12457
5747,12394
5747,12011
5847,12011
5847,12394
5910,12457
6142,12458
6191,12453
6238,12439
6281,12415
6319,12384
6351,12346
6374,12303
6388,12256
6393,12207
6392,12073
6329,12011
5847,12011
5747,12011
5265,12011
5203,12073
5202,12207
4897,12207
4897,11859
5214,11859
5265,11911
Z" /> 
<path style="fill:#000000; fill-opacity:1.0; 
stroke:#000000; stroke-width:100; stroke-opacity:1; 
stroke-linecap:round; stroke-linejoin:round;fill-rule:evenodd;"
d="M 6344,275
6388,288
6430,310
6466,340
6495,376
6518,417
6531,461
6537,520
6537,6709
5447,6709
5438,6710
5428,6713
5420,6718
5412,6724
5406,6732
5401,6740
5398,6750
5397,6759
5397,7511
5392,7509
5343,7505
5160,7506
5097,7568
5097,7609
4997,7609
4997,7568
4935,7506
4752,7505
4703,7509
4697,7511
4697,6759
4696,6750
4694,6740
4689,6732
4683,6724
4675,6718
4666,6713
4657,6710
4647,6709
3523,6709
3523,6672
3460,6609
3047,6609
3047,6617
2947,6617
2947,6609
2534,6609
2472,6672
2471,6709
2448,6709
2453,6367
2471,6367
2472,6447
2534,6509
2947,6509
2947,6180
3047,6180
3047,6509
3460,6509
3523,6447
3524,6367
3519,6318
3505,6271
3482,6228
3451,6190
3412,6159
3369,6135
3322,6121
3273,6116
3110,6117
3047,6180
2947,6180
2885,6117
2722,6116
2673,6121
2626,6135
2582,6159
2544,6190
2513,6228
2490,6271
2475,6318
2471,6367
2453,6367
2458,6063
4048,6063
4053,6112
4067,6159
4090,6202
4122,6241
4160,6272
4203,6295
4250,6309
4299,6314
4935,6313
4997,6250
4997,5719
5097,5719
5097,6250
5160,6313
5795,6314
5844,6309
5892,6295
5935,6272
5973,6241
6004,6202
6027,6159
6042,6112
6047,6063
6045,5782
5983,5719
5097,5719
4997,5719
4112,5719
4049,5782
4048,6063
2458,6063
2467,5411
2484,5357
2490,5289
2490,5275
4048,5275
4049,5557
4112,5619
4997,5619
4997,5088
5097,5088
5097,5619
5983,5619
6045,5557
6047,5275
6042,5226
6027,5179
6004,5136
5973,5098
5935,5067
5892,5043
5844,5029
5795,5024
5160,5025
5097,5088
4997,5088
4935,5025
4299,5024
4250,5029
4203,5043
4160,5067
4122,5098
4090,5136
4067,5179
4053,5226
4048,5275
2490,5275
2490,4930
2484,4862
2476,4836
2481,4451
2971,4451
2975,4500
2990,4547
3013,4591
3044,4629
3082,4660
3126,4683
3173,4698
3222,4702
3385,4701
3447,4639
3447,4309
3547,4309
3547,4639
3610,4701
3773,4702
3822,4698
3869,4683
3912,4660
3951,4629
3982,4591
4005,4547
4019,4500
4024,4451
4071,4451
4075,4500
4090,4547
4113,4591
4144,4629
4182,4660
4226,4683
4273,4698
4322,4702
4485,4701
4547,4639
4547,4309
4134,4309
4072,4372
4071,4451
4024,4451
4023,4372
3960,4309
3547,4309
3447,4309
3034,4309
2972,4372
2971,4451
2481,4451
2485,4209
3033,4209
3034,4209
3102,4209
3109,4210
3116,4209
3447,4209
3447,4201
3547,4201
3547,4209
3960,4209
4023,4147
4024,4067
4019,4018
4017,4009
4078,4009
4075,4018
4071,4067
4072,4147
4134,4209
4547,4209
4547,4201
4647,4201
4647,4209
4655,4209
4655,4309
4647,4309
4647,4639
4710,4701
4873,4702
4922,4698
4969,4683
5012,4660
5051,4629
5082,4591
5105,4547
5110,4531
5129,4567
5172,4620
5225,4663
5285,4695
5350,4715
5418,4722
5777,4722
5845,4715
5910,4695
5970,4663
6022,4620
6066,4567
6098,4507
6117,4442
6124,4374
6124,4182
6117,4115
6098,4050
6066,3990
6022,3937
5989,3909
6022,3882
6066,3829
6098,3769
6117,3704
6124,3636
6124,3444
6117,3377
6098,3311
6066,3251
6022,3199
5970,3156
5910,3124
5845,3104
5787,3098
5494,2805
5494,2536
5536,2486
5590,2384
5624,2274
5635,2159
5624,2045
5590,1935
5536,1833
5463,1744
5451,1734
5478,1726
5522,1703
5560,1672
5591,1634
5614,1590
5628,1543
5633,1494
5633,825
5628,776
5614,729
5591,685
5560,647
5522,616
5478,593
5431,578
5382,573
4713,573
4664,578
4617,593
4573,616
4535,647
4504,685
4481,729
4471,760
4441,727
4349,659
4246,609
4188,592
4097,640
4097,1109
4105,1109
4105,1209
4097,1209
4097,1217
3997,1217
3997,1209
3989,1209
3989,1109
3997,1109
3997,640
3907,592
3849,609
3745,659
3654,727
3577,812
3549,858
3536,833
3463,744
3374,671
3272,617
3162,583
3076,575
3019,575
2933,583
2823,617
2721,671
2632,744
2559,833
2545,858
2518,812
2441,727
2349,659
2246,609
2188,592
2097,640
2097,1109
2105,1109
2105,1209
2097,1209
2097,1217
1997,1217
1997,1209
1527,1209
1480,1300
1518,1408
1549,1459
1471,1459
1474,1432
1473,1353
1410,1290
997,1290
997,1298
897,1298
897,1290
889,1290
889,1190
897,1190
897,861
997,861
997,1190
1410,1190
1473,1128
1474,1048
1471,1019
1480,1019
1527,1109
1997,1109
1997,640
1907,592
1849,609
1745,659
1654,727
1577,812
1518,911
1480,1019
1471,1019
1469,999
1455,952
1432,909
1401,871
1362,839
1319,816
1272,802
1223,797
1060,798
997,861
897,861
835,798
672,797
623,802
576,816
557,826
557,522
563,463
576,418
598,377
628,341
664,311
705,289
749,275
808,269
6285,269
6344,275
Z" /> 
</g>
</g>
<g style="fill:#FFFFFF; fill-opacity:1.0; 
stroke:#FFFFFF; stroke-width:100; stroke-opacity:1; 
stroke-linecap:round; stroke-linejoin:round;">
</g>
<g style="fill:#FFFFFF; fill-opacity:1.0; 
stroke:#FFFFFF; stroke-width:0; stroke-opacity:1; 
stroke-linecap:round; stroke-linejoin:round;">
<circle cx="2647.83" cy="3509.84" r="78.7402" /> 
</g>
<g style="fill:#FFFFFF; fill-opacity:1.0; 
stroke:#FFFFFF; stroke-width:39.3701; stroke-opacity:1; 
stroke-linecap:round; stroke-linejoin:round;">
</g>
<g style="fill:#FFFFFF; fill-opacity:1.0; 
stroke:#FFFFFF; stroke-width:0; stroke-opacity:1; 
stroke-linecap:round; stroke-linejoin:round;">
<circle cx="1247.83" cy="13259.8" r="197" /> 
</g>
<g style="fill:#FFFFFF; fill-opacity:1.0; 
stroke:#FFFFFF; stroke-width:39.3701; stroke-opacity:1; 
stroke-linecap:round; stroke-linejoin:round;">
</g>
<g style="fill:#FFFFFF; fill-opacity:1.0; 
stroke:#FFFFFF; stroke-width:0; stroke-opacity:1; 
stroke-linecap:round; stroke-linejoin:round;">
<circle cx="2747.83" cy="13259.8" r="197" /> 
</g>
<g style="fill:#FFFFFF; fill-opacity:1.0; 
stroke:#FFFFFF; stroke-width:39.3701; stroke-opacity:1; 
stroke-linecap:round; stroke-linejoin:round;">
</g>
<g style="fill:#FFFFFF; fill-opacity:1.0; 
stroke:#FFFFFF; stroke-width:0; stroke-opacity:1; 
stroke-linecap:round; stroke-linejoin:round;">
<circle cx="4247.83" cy="13259.8" r="197" /> 
</g>
<g style="fill:#FFFFFF; fill-opacity:1.0; 
stroke:#FFFFFF; stroke-width:39.3701; stroke-opacity:1; 
stroke-linecap:round; stroke-linejoin:round;">
</g>
<g style="fill:#FFFFFF; fill-opacity:1.0; 
stroke:#FFFFFF; stroke-width:0; stroke-opacity:1; 
stroke-linecap:round; stroke-linejoin:round;">
<circle cx="5747.83" cy="13259.8" r="197" /> 
</g>
<g style="fill:#FFFFFF; fill-opacity:1.0; 
stroke:#FFFFFF; stroke-width:39.3701; stroke-opacity:1; 
stroke-linecap:round; stroke-linejoin:round;">
</g>
<g style="fill:#FFFFFF; fill-opacity:1.0; 
stroke:#FFFFFF; stroke-width:0; stroke-opacity:1; 
stroke-linecap:round; stroke-linejoin:round;">
<circle cx="2047.83" cy="2159.84" r="196.85" /> 
</g>
<g style="fill:#FFFFFF; fill-opacity:1.0; 
stroke:#FFFFFF; stroke-width:39.3701; stroke-opacity:1; 
stroke-linecap:round; stroke-linejoin:round;">
</g>
<g style="fill:#FFFFFF; fill-opacity:1.0; 
stroke:#FFFFFF; stroke-width:0; stroke-opacity:1; 
stroke-linecap:round; stroke-linejoin:round;">
<circle cx="2047.83" cy="1159.84" r="196.85" /> 
</g>
<g style="fill:#FFFFFF; fill-opacity:1.0; 
stroke:#FFFFFF; stroke-width:39.3701; stroke-opacity:1; 
stroke-linecap:round; stroke-linejoin:round;">
</g>
<g style="fill:#FFFFFF; fill-opacity:1.0; 
stroke:#FFFFFF; stroke-width:0; stroke-opacity:1; 
stroke-linecap:round; stroke-linejoin:round;">
<circle cx="3047.83" cy="2159.84" r="196.85" /> 
</g>
<g style="fill:#FFFFFF; fill-opacity:1.0; 
stroke:#FFFFFF; stroke-width:39.3701; stroke-opacity:1; 
stroke-linecap:round; stroke-linejoin:round;">
</g>
<g style="fill:#FFFFFF; fill-opacity:1.0; 
stroke:#FFFFFF; stroke-width:0; stroke-opacity:1; 
stroke-linecap:round; stroke-linejoin:round;">
<circle cx="3047.83" cy="1159.84" r="196.85" /> 
</g>
<g style="fill:#FFFFFF; fill-opacity:1.0; 
stroke:#FFFFFF; stroke-width:39.3701; stroke-opacity:1; 
stroke-linecap:round; stroke-linejoin:round;">
</g>
<g style="fill:#FFFFFF; fill-opacity:1.0; 
stroke:#FFFFFF; stroke-width:0; stroke-opacity:1; 
stroke-linecap:round; stroke-linejoin:round;">
<circle cx="4047.83" cy="2159.84" r="196.85" /> 
</g>
<g style="fill:#FFFFFF; fill-opacity:1.0; 
stroke:#FFFFFF; stroke-width:39.3701; stroke-opacity:1; 
stroke-linecap:round; stroke-linejoin:round;">
</g>
<g style="fill:#FFFFFF; fill-opacity:1.0; 
stroke:#FFFFFF; stroke-width:0; stroke-opacity:1; 
stroke-linecap:round; stroke-linejoin:round;">
<circle cx="4047.83" cy="1159.84" r="196.85" /> 
</g>
<g style="fill:#FFFFFF; fill-opacity:1.0; 
stroke:#FFFFFF; stroke-width:39.3701; stroke-opacity:1; 
stroke-linecap:round; stroke-linejoin:round;">
</g>
<g style="fill:#FFFFFF; fill-opacity:1.0; 
stroke:#FFFFFF; stroke-width:0; stroke-opacity:1; 
stroke-linecap:round; stroke-linejoin:round;">
<circle cx="5047.83" cy="2159.84" r="196.85" /> 
</g>
<g style="fill:#FFFFFF; fill-opacity:1.0; 
stroke:#FFFFFF; stroke-width:39.3701; stroke-opacity:1; 
stroke-linecap:round; stroke-linejoin:round;">
</g>
<g style="fill:#FFFFFF; fill-opacity:1.0; 
stroke:#FFFFFF; stroke-width:0; stroke-opacity:1; 
stroke-linecap:round; stroke-linejoin:round;">
<circle cx="5047.83" cy="1159.84" r="196.85" /> 
</g>
<g style="fill:#FFFFFF; fill-opacity:1.0; 
stroke:#FFFFFF; stroke-width:39.3701; stroke-opacity:1; 
stroke-linecap:round; stroke-linejoin:round;">
</g>
<g style="fill:#000000; fill-opacity:1.0; 
stroke:#000000; stroke-width:39.3701; stroke-opacity:1; 
stroke-linecap:round; stroke-linejoin:round;">
</g>
<g style="fill:#000000; fill-opacity:0.0; 
stroke:#000000; stroke-width:19.685; stroke-opacity:1; 
stroke-linecap:round; stroke-linejoin:round;">
<path d="M6297.83 14609.8 A500 500 0.0 0 0 6797.83 14109.8 " />
<path d="M297.835 14109.8 A500 500 0.0 0 0 797.835 14609.8 " />
<path d="M797.835 9.84291 A500 500 0.0 0 0 297.835 509.843 " />
<path d="M6797.83 509.843 A500 500 0.0 0 0 6297.83 9.84291 " />
<path d="M6297 9
L797 9
" />
<path d="M6797 14109
L6797 509
" />
<path d="M797 14609
L6297 14609
" />
<path d="M297 509
L297 14109
" />
<g >
</g>
<g >
</g>
<g >
</g>
<g >
</g>
<g >
</g>
<g >
</g>
<g >
</g>
<g >
</g>
<g >
</g>
<g >
</g>
<g >
</g>
<g >
</g>
<g >
</g>
<g >
</g>
<g >
</g>
<g >
</g>
<g >
</g>
</g> 
</svg>
