<?xml version="1.0" standalone="no"?>
 <!DOCTYPE svg PUBLIC "-//W3C//DTD SVG 1.1//EN" 
 "http://www.w3.org/Graphics/SVG/1.1/DTD/svg11.dtd"> 
<svg xmlns="http://www.w3.org/2000/svg" version="1.1" 
    width="1.83388cm" height="4.03098cm" viewBox="0 0 7220 15870 ">
<title>SVG Picture created as pixel-stick-F_Cu.svg date 2019/12/06 14:35:54 </title>
  <desc>Picture generated by PCBNEW </desc>
<g style="fill:#000000; fill-opacity:1;stroke:#000000; stroke-opacity:1;
stroke-linecap:round; stroke-linejoin:round; "
 transform="translate(0 0) scale(1 1)">
</g>
<g style="fill:#000000; fill-opacity:0.0; 
stroke:#000000; stroke-width:-0.000393701; stroke-opacity:1; 
stroke-linecap:round; stroke-linejoin:round;">
<g >
</g>
<g style="fill:#000000; fill-opacity:0.0; 
stroke:#000000; stroke-width:0; stroke-opacity:1; 
stroke-linecap:round; stroke-linejoin:round;">
</g>
<g style="fill:#000000; fill-opacity:1.0; 
stroke:#000000; stroke-width:0; stroke-opacity:1; 
stroke-linecap:round; stroke-linejoin:round;">
<path style="fill:#000000; fill-opacity:1.0; 
stroke:#000000; stroke-width:0; stroke-opacity:1; 
stroke-linecap:round; stroke-linejoin:round;fill-rule:evenodd;"
d="M 5836,4087
5846,4088
5855,4091
5864,4094
5872,4098
5880,4103
5888,4108
5895,4115
5901,4122
5907,4129
5912,4137
5916,4146
5919,4155
5921,4164
5922,4173
5923,4182
5923,4374
5922,4384
5921,4393
5919,4402
5916,4411
5912,4420
5907,4428
5901,4435
5895,4442
5888,4449
5880,4454
5872,4459
5864,4463
5855,4466
5846,4469
5836,4470
5827,4470
5468,4470
5458,4470
5449,4469
5440,4466
5431,4463
5422,4459
5414,4454
5407,4449
5400,4442
5394,4435
5388,4428
5383,4420
5379,4411
5376,4402
5374,4393
5372,4384
5372,4374
5372,4182
5372,4173
5374,4164
5376,4155
5379,4146
5383,4137
5388,4129
5394,4122
5400,4115
5407,4108
5414,4103
5422,4098
5431,4094
5440,4091
5449,4088
5458,4087
5468,4087
5827,4087
5836,4087
Z" /> 
<path style="fill:#000000; fill-opacity:1.0; 
stroke:#000000; stroke-width:0; stroke-opacity:1; 
stroke-linecap:round; stroke-linejoin:round;fill-rule:evenodd;"
d="M 5836,3349
5846,3350
5855,3352
5864,3356
5872,3360
5880,3364
5888,3370
5895,3376
5901,3383
5907,3391
5912,3399
5916,3408
5919,3416
5921,3426
5922,3435
5923,3444
5923,3636
5922,3646
5921,3655
5919,3664
5916,3673
5912,3681
5907,3690
5901,3697
5895,3704
5888,3710
5880,3716
5872,3721
5864,3725
5855,3728
5846,3730
5836,3732
5827,3732
5468,3732
5458,3732
5449,3730
5440,3728
5431,3725
5422,3721
5414,3716
5407,3710
5400,3704
5394,3697
5388,3690
5383,3681
5379,3673
5376,3664
5374,3655
5372,3646
5372,3636
5372,3444
5372,3435
5374,3426
5376,3416
5379,3408
5383,3399
5388,3391
5394,3383
5400,3376
5407,3370
5414,3364
5422,3360
5431,3356
5440,3352
5449,3350
5458,3349
5468,3348
5827,3348
5836,3349
Z" /> 
</g>
<g >
<path style="fill:#000000; fill-opacity:1.0; 
stroke:#000000; stroke-width:0; stroke-opacity:1; 
stroke-linecap:round; stroke-linejoin:round;fill-rule:evenodd;"
d="M 4836,4068
4846,4069
4855,4072
4864,4075
4872,4079
4880,4084
4888,4089
4895,4096
4901,4102
4907,4110
4912,4118
4916,4127
4919,4136
4921,4145
4922,4154
4923,4163
4923,4355
4922,4365
4921,4374
4919,4383
4916,4392
4912,4401
4907,4409
4901,4416
4895,4423
4888,4429
4880,4435
4872,4440
4864,4444
4855,4447
4846,4449
4836,4451
4827,4451
4468,4451
4458,4451
4449,4449
4440,4447
4431,4444
4422,4440
4414,4435
4407,4429
4400,4423
4394,4416
4388,4409
4383,4401
4379,4392
4376,4383
4374,4374
4372,4365
4372,4355
4372,4163
4372,4154
4374,4145
4376,4136
4379,4127
4383,4118
4388,4110
4394,4102
4400,4096
4407,4089
4414,4084
4422,4079
4431,4075
4440,4072
4449,4069
4458,4068
4468,4067
4827,4067
4836,4068
Z" /> 
<path style="fill:#000000; fill-opacity:1.0; 
stroke:#000000; stroke-width:0; stroke-opacity:1; 
stroke-linecap:round; stroke-linejoin:round;fill-rule:evenodd;"
d="M 4836,3330
4846,3331
4855,3333
4864,3337
4872,3341
4880,3345
4888,3351
4895,3357
4901,3364
4907,3372
4912,3380
4916,3388
4919,3397
4921,3406
4922,3416
4923,3425
4923,3617
4922,3627
4921,3636
4919,3645
4916,3654
4912,3662
4907,3670
4901,3678
4895,3685
4888,3691
4880,3697
4872,3702
4864,3706
4855,3709
4846,3711
4836,3713
4827,3713
4468,3713
4458,3713
4449,3711
4440,3709
4431,3706
4422,3702
4414,3697
4407,3691
4400,3685
4394,3678
4388,3670
4383,3662
4379,3654
4376,3645
4374,3636
4372,3627
4372,3617
4372,3425
4372,3416
4374,3406
4376,3397
4379,3388
4383,3380
4388,3372
4394,3364
4400,3357
4407,3351
4414,3345
4422,3341
4431,3337
4440,3333
4449,3331
4458,3330
4468,3329
4827,3329
4836,3330
Z" /> 
</g>
<g >
<circle cx="1297.83" cy="13259.8" r="492" /> 
</g>
<g style="fill:#000000; fill-opacity:1.0; 
stroke:#000000; stroke-width:39.3701; stroke-opacity:1; 
stroke-linecap:round; stroke-linejoin:round;">
</g>
<g style="fill:#000000; fill-opacity:1.0; 
stroke:#000000; stroke-width:0; stroke-opacity:1; 
stroke-linecap:round; stroke-linejoin:round;">
<circle cx="2797.83" cy="13259.8" r="492" /> 
</g>
<g style="fill:#000000; fill-opacity:1.0; 
stroke:#000000; stroke-width:39.3701; stroke-opacity:1; 
stroke-linecap:round; stroke-linejoin:round;">
</g>
<g style="fill:#000000; fill-opacity:1.0; 
stroke:#000000; stroke-width:0; stroke-opacity:1; 
stroke-linecap:round; stroke-linejoin:round;">
<circle cx="4297.83" cy="13259.8" r="492" /> 
</g>
<g style="fill:#000000; fill-opacity:1.0; 
stroke:#000000; stroke-width:39.3701; stroke-opacity:1; 
stroke-linecap:round; stroke-linejoin:round;">
</g>
<g style="fill:#000000; fill-opacity:1.0; 
stroke:#000000; stroke-width:0; stroke-opacity:1; 
stroke-linecap:round; stroke-linejoin:round;">
<path style="fill:#000000; fill-opacity:1.0; 
stroke:#000000; stroke-width:0; stroke-opacity:1; 
stroke-linecap:round; stroke-linejoin:round;fill-rule:evenodd;"
d="M 6289,12767
6289,13751
5305,13751
5305,12767
6289,12767
Z" /> 
</g>
<g >
</g>
<g style="fill:#000000; fill-opacity:1.0; 
stroke:#000000; stroke-width:669.291; stroke-opacity:1; 
stroke-linecap:round; stroke-linejoin:round;">
</g>
<g style="fill:#000000; fill-opacity:0.0; 
stroke:#000000; stroke-width:669.291; stroke-opacity:1; 
stroke-linecap:round; stroke-linejoin:round;">
<path d="M2097 2159
L2097 2159
" />
<path d="M2097 1159
L2097 1159
" />
<path d="M3097 2159
L3097 2159
" />
<path d="M3097 1159
L3097 1159
" />
<path d="M4097 2159
L4097 2159
" />
<path d="M4097 1159
L4097 1159
" />
<path d="M5097 2159
L5097 2159
" />
</g>
<g style="fill:#000000; fill-opacity:0.0; 
stroke:#000000; stroke-width:0; stroke-opacity:1; 
stroke-linecap:round; stroke-linejoin:round;">
</g>
<g style="fill:#000000; fill-opacity:1.0; 
stroke:#000000; stroke-width:0; stroke-opacity:1; 
stroke-linecap:round; stroke-linejoin:round;">
<path style="fill:#000000; fill-opacity:1.0; 
stroke:#000000; stroke-width:0; stroke-opacity:1; 
stroke-linecap:round; stroke-linejoin:round;fill-rule:evenodd;"
d="M 4763,825
5432,825
5432,1494
4763,1494
4763,825
Z" /> 
</g>
<g >
</g>
<g >
<path style="fill:#000000; fill-opacity:1.0; 
stroke:#000000; stroke-width:0; stroke-opacity:1; 
stroke-linecap:round; stroke-linejoin:round;fill-rule:evenodd;"
d="M 1593,6801
1849,6801
1849,7218
1593,7218
1593,6801
Z" /> 
<path style="fill:#000000; fill-opacity:1.0; 
stroke:#000000; stroke-width:0; stroke-opacity:1; 
stroke-linecap:round; stroke-linejoin:round;fill-rule:evenodd;"
d="M 1967,6801
2223,6801
2223,7218
1967,7218
1967,6801
Z" /> 
<path style="fill:#000000; fill-opacity:1.0; 
stroke:#000000; stroke-width:0; stroke-opacity:1; 
stroke-linecap:round; stroke-linejoin:round;fill-rule:evenodd;"
d="M 1219,6801
1475,6801
1475,7218
1219,7218
1219,6801
Z" /> 
<path style="fill:#000000; fill-opacity:1.0; 
stroke:#000000; stroke-width:0; stroke-opacity:1; 
stroke-linecap:round; stroke-linejoin:round;fill-rule:evenodd;"
d="M 1219,5935
1475,5935
1475,6352
1219,6352
1219,5935
Z" /> 
<path style="fill:#000000; fill-opacity:1.0; 
stroke:#000000; stroke-width:0; stroke-opacity:1; 
stroke-linecap:round; stroke-linejoin:round;fill-rule:evenodd;"
d="M 1593,5935
1849,5935
1849,6352
1593,6352
1593,5935
Z" /> 
<path style="fill:#000000; fill-opacity:1.0; 
stroke:#000000; stroke-width:0; stroke-opacity:1; 
stroke-linecap:round; stroke-linejoin:round;fill-rule:evenodd;"
d="M 1967,5935
2223,5935
2223,6352
1967,6352
1967,5935
Z" /> 
</g>
<g >
<path style="fill:#000000; fill-opacity:1.0; 
stroke:#000000; stroke-width:0; stroke-opacity:1; 
stroke-linecap:round; stroke-linejoin:round;fill-rule:evenodd;"
d="M 1569,4034
1825,4034
1825,4451
1569,4451
1569,4034
Z" /> 
<path style="fill:#000000; fill-opacity:1.0; 
stroke:#000000; stroke-width:0; stroke-opacity:1; 
stroke-linecap:round; stroke-linejoin:round;fill-rule:evenodd;"
d="M 1943,4034
2199,4034
2199,4451
1943,4451
1943,4034
Z" /> 
<path style="fill:#000000; fill-opacity:1.0; 
stroke:#000000; stroke-width:0; stroke-opacity:1; 
stroke-linecap:round; stroke-linejoin:round;fill-rule:evenodd;"
d="M 1195,4034
1451,4034
1451,4451
1195,4451
1195,4034
Z" /> 
<path style="fill:#000000; fill-opacity:1.0; 
stroke:#000000; stroke-width:0; stroke-opacity:1; 
stroke-linecap:round; stroke-linejoin:round;fill-rule:evenodd;"
d="M 1195,3168
1451,3168
1451,3585
1195,3585
1195,3168
Z" /> 
<path style="fill:#000000; fill-opacity:1.0; 
stroke:#000000; stroke-width:0; stroke-opacity:1; 
stroke-linecap:round; stroke-linejoin:round;fill-rule:evenodd;"
d="M 1569,3168
1825,3168
1825,3585
1569,3585
1569,3168
Z" /> 
<path style="fill:#000000; fill-opacity:1.0; 
stroke:#000000; stroke-width:0; stroke-opacity:1; 
stroke-linecap:round; stroke-linejoin:round;fill-rule:evenodd;"
d="M 1943,3168
2199,3168
2199,3585
1943,3585
1943,3168
Z" /> 
</g>
<g >
<path style="fill:#000000; fill-opacity:1.0; 
stroke:#000000; stroke-width:0; stroke-opacity:1; 
stroke-linecap:round; stroke-linejoin:round;fill-rule:evenodd;"
d="M 4487,8543
3897,8543
3897,7756
4487,7756
4487,8543
Z" /> 
<path style="fill:#000000; fill-opacity:1.0; 
stroke:#000000; stroke-width:0; stroke-opacity:1; 
stroke-linecap:round; stroke-linejoin:round;fill-rule:evenodd;"
d="M 6298,8543
5708,8543
5708,7756
6298,7756
6298,8543
Z" /> 
<path style="fill:#000000; fill-opacity:1.0; 
stroke:#000000; stroke-width:0; stroke-opacity:1; 
stroke-linecap:round; stroke-linejoin:round;fill-rule:evenodd;"
d="M 5393,8543
4802,8543
4802,7756
5393,7756
5393,8543
Z" /> 
<path style="fill:#000000; fill-opacity:1.0; 
stroke:#000000; stroke-width:0; stroke-opacity:1; 
stroke-linecap:round; stroke-linejoin:round;fill-rule:evenodd;"
d="M 5845,6063
4349,6063
4349,5275
5845,5275
5845,6063
Z" /> 
</g>
<g >
<path style="fill:#000000; fill-opacity:1.0; 
stroke:#000000; stroke-width:0; stroke-opacity:1; 
stroke-linecap:round; stroke-linejoin:round;fill-rule:evenodd;"
d="M 3236,4099
3246,4100
3255,4102
3264,4106
3272,4110
3280,4114
3288,4120
3295,4126
3301,4133
3307,4141
3312,4149
3316,4158
3319,4166
3321,4176
3322,4185
3323,4194
3323,4386
3322,4396
3321,4405
3319,4414
3316,4423
3312,4431
3307,4440
3301,4447
3295,4454
3288,4460
3280,4466
3272,4471
3264,4475
3255,4478
3246,4480
3236,4482
3227,4482
2868,4482
2858,4482
2849,4480
2840,4478
2831,4475
2822,4471
2814,4466
2807,4460
2800,4454
2794,4447
2788,4440
2783,4431
2779,4423
2776,4414
2774,4405
2772,4396
2772,4386
2772,4194
2772,4185
2774,4176
2776,4166
2779,4158
2783,4149
2788,4141
2794,4133
2800,4126
2807,4120
2814,4114
2822,4110
2831,4106
2840,4102
2849,4100
2858,4099
2868,4098
3227,4098
3236,4099
Z" /> 
<path style="fill:#000000; fill-opacity:1.0; 
stroke:#000000; stroke-width:0; stroke-opacity:1; 
stroke-linecap:round; stroke-linejoin:round;fill-rule:evenodd;"
d="M 3236,4837
3246,4838
3255,4841
3264,4844
3272,4848
3280,4853
3288,4858
3295,4865
3301,4872
3307,4879
3312,4887
3316,4896
3319,4905
3321,4914
3322,4923
3323,4932
3323,5124
3322,5134
3321,5143
3319,5152
3316,5161
3312,5170
3307,5178
3301,5185
3295,5192
3288,5199
3280,5204
3272,5209
3264,5213
3255,5216
3246,5219
3236,5220
3227,5220
2868,5220
2858,5220
2849,5219
2840,5216
2831,5213
2822,5209
2814,5204
2807,5199
2800,5192
2794,5185
2788,5178
2783,5170
2779,5161
2776,5152
2774,5143
2772,5134
2772,5124
2772,4932
2772,4923
2774,4914
2776,4905
2779,4896
2783,4887
2788,4879
2794,4872
2800,4865
2807,4858
2814,4853
2822,4848
2831,4844
2840,4841
2849,4838
2858,4837
2868,4837
3227,4837
3236,4837
Z" /> 
</g>
<g >
<path style="fill:#000000; fill-opacity:1.0; 
stroke:#000000; stroke-width:0; stroke-opacity:1; 
stroke-linecap:round; stroke-linejoin:round;fill-rule:evenodd;"
d="M 6103,10613
6113,10614
6122,10616
6131,10620
6140,10624
6148,10629
6156,10634
6163,10641
6169,10648
6175,10656
6180,10664
6184,10673
6188,10682
6190,10691
6191,10701
6192,10711
6192,11006
6191,11015
6190,11025
6188,11034
6184,11043
6180,11052
6175,11060
6169,11068
6163,11075
6156,11082
6148,11088
6140,11093
6131,11097
6122,11100
6113,11102
6103,11104
6093,11104
5601,11104
5592,11104
5582,11102
5573,11100
5564,11097
5555,11093
5547,11088
5539,11082
5532,11075
5525,11068
5519,11060
5514,11052
5510,11043
5507,11034
5505,11025
5503,11015
5503,11006
5503,10711
5503,10701
5505,10691
5507,10682
5510,10673
5514,10664
5519,10656
5525,10648
5532,10641
5539,10634
5547,10629
5555,10624
5564,10620
5573,10616
5582,10614
5592,10613
5601,10612
6093,10612
6103,10613
Z" /> 
<path style="fill:#000000; fill-opacity:1.0; 
stroke:#000000; stroke-width:0; stroke-opacity:1; 
stroke-linecap:round; stroke-linejoin:round;fill-rule:evenodd;"
d="M 6103,11715
6113,11716
6122,11719
6131,11722
6140,11726
6148,11731
6156,11737
6163,11743
6169,11750
6175,11758
6180,11766
6184,11775
6188,11784
6190,11794
6191,11803
6192,11813
6192,12108
6191,12118
6190,12127
6188,12137
6184,12146
6180,12155
6175,12163
6169,12171
6163,12178
6156,12184
6148,12190
6140,12195
6131,12199
6122,12202
6113,12205
6103,12206
6093,12207
5601,12207
5592,12206
5582,12205
5573,12202
5564,12199
5555,12195
5547,12190
5539,12184
5532,12178
5525,12171
5519,12163
5514,12155
5510,12146
5507,12137
5505,12127
5503,12118
5503,12108
5503,11813
5503,11803
5505,11794
5507,11784
5510,11775
5514,11766
5519,11758
5525,11750
5532,11743
5539,11737
5547,11731
5555,11726
5564,11722
5573,11719
5582,11716
5592,11715
5601,11714
6093,11714
6103,11715
Z" /> 
</g>
<g >
<path style="fill:#000000; fill-opacity:1.0; 
stroke:#000000; stroke-width:0; stroke-opacity:1; 
stroke-linecap:round; stroke-linejoin:round;fill-rule:evenodd;"
d="M 2394,10168
2404,10169
2413,10171
2422,10175
2431,10179
2439,10184
2447,10190
2454,10196
2461,10203
2467,10211
2472,10219
2476,10228
2479,10237
2481,10246
2483,10256
2483,10266
2483,11053
2483,11063
2481,11072
2479,11082
2476,11091
2472,11099
2467,11108
2461,11115
2454,11123
2447,11129
2439,11135
2431,11140
2422,11144
2413,11147
2404,11150
2394,11151
2385,11151
1007,11151
997,11151
988,11150
978,11147
969,11144
960,11140
952,11135
944,11129
937,11123
931,11115
925,11108
920,11099
916,11091
913,11082
910,11072
909,11063
908,11053
908,10266
909,10256
910,10246
913,10237
916,10228
920,10219
925,10211
931,10203
937,10196
944,10190
952,10184
960,10179
969,10175
978,10171
988,10169
997,10168
1007,10167
2385,10167
2394,10168
Z" /> 
<path style="fill:#000000; fill-opacity:1.0; 
stroke:#000000; stroke-width:0; stroke-opacity:1; 
stroke-linecap:round; stroke-linejoin:round;fill-rule:evenodd;"
d="M 4796,10168
4806,10169
4815,10171
4824,10175
4833,10179
4841,10184
4849,10190
4856,10196
4862,10203
4868,10211
4873,10219
4877,10228
4880,10237
4883,10246
4884,10256
4885,10266
4885,11053
4884,11063
4883,11072
4880,11082
4877,11091
4873,11099
4868,11108
4862,11115
4856,11123
4849,11129
4841,11135
4833,11140
4824,11144
4815,11147
4806,11150
4796,11151
4786,11151
3408,11151
3399,11151
3389,11150
3380,11147
3371,11144
3362,11140
3354,11135
3346,11129
3339,11123
3332,11115
3327,11108
3322,11099
3317,11091
3314,11082
3312,11072
3310,11063
3310,11053
3310,10266
3310,10256
3312,10246
3314,10237
3317,10228
3322,10219
3327,10211
3332,10203
3339,10196
3346,10190
3354,10184
3362,10179
3371,10175
3380,10171
3389,10169
3399,10168
3408,10167
4786,10167
4796,10168
Z" /> 
</g>
<g >
<path style="fill:#000000; fill-opacity:1.0; 
stroke:#000000; stroke-width:0; stroke-opacity:1; 
stroke-linecap:round; stroke-linejoin:round;fill-rule:evenodd;"
d="M 1465,4834
1474,4836
1483,4838
1492,4841
1500,4845
1508,4850
1516,4856
1523,4862
1529,4869
1535,4876
1540,4884
1544,4893
1547,4902
1549,4911
1551,4920
1551,4930
1551,5289
1551,5298
1549,5308
1547,5317
1544,5326
1540,5334
1535,5342
1529,5350
1523,5357
1516,5363
1508,5369
1500,5374
1492,5378
1483,5381
1474,5383
1465,5384
1455,5385
1263,5385
1254,5384
1244,5383
1235,5381
1226,5378
1218,5374
1210,5369
1202,5363
1195,5357
1189,5350
1183,5342
1179,5334
1175,5326
1171,5317
1169,5308
1168,5298
1167,5289
1167,4930
1168,4920
1169,4911
1171,4902
1175,4893
1179,4884
1183,4876
1189,4869
1195,4862
1202,4856
1210,4850
1218,4845
1226,4841
1235,4838
1244,4836
1254,4834
1263,4834
1455,4834
1465,4834
Z" /> 
<path style="fill:#000000; fill-opacity:1.0; 
stroke:#000000; stroke-width:0; stroke-opacity:1; 
stroke-linecap:round; stroke-linejoin:round;fill-rule:evenodd;"
d="M 2203,4834
2212,4836
2221,4838
2230,4841
2239,4845
2247,4850
2254,4856
2261,4862
2267,4869
2273,4876
2278,4884
2282,4893
2285,4902
2287,4911
2289,4920
2289,4930
2289,5289
2289,5298
2287,5308
2285,5317
2282,5326
2278,5334
2273,5342
2267,5350
2261,5357
2254,5363
2247,5369
2239,5374
2230,5378
2221,5381
2212,5383
2203,5384
2193,5385
2001,5385
1992,5384
1983,5383
1974,5381
1965,5378
1956,5374
1948,5369
1940,5363
1934,5357
1927,5350
1922,5342
1917,5334
1913,5326
1910,5317
1907,5308
1906,5298
1905,5289
1905,4930
1906,4920
1907,4911
1910,4902
1913,4893
1917,4884
1922,4876
1927,4869
1934,4862
1940,4856
1948,4850
1956,4845
1965,4841
1974,4838
1983,4836
1992,4834
2001,4834
2193,4834
2203,4834
Z" /> 
</g>
<g >
<path style="fill:#000000; fill-opacity:1.0; 
stroke:#000000; stroke-width:0; stroke-opacity:1; 
stroke-linecap:round; stroke-linejoin:round;fill-rule:evenodd;"
d="M 1465,7734
1474,7736
1483,7738
1492,7741
1500,7745
1508,7750
1516,7756
1523,7762
1529,7769
1535,7776
1540,7784
1544,7793
1547,7802
1549,7811
1551,7820
1551,7830
1551,8189
1551,8198
1549,8208
1547,8217
1544,8226
1540,8234
1535,8242
1529,8250
1523,8257
1516,8263
1508,8269
1500,8274
1492,8278
1483,8281
1474,8283
1465,8284
1455,8285
1263,8285
1254,8284
1244,8283
1235,8281
1226,8278
1218,8274
1210,8269
1202,8263
1195,8257
1189,8250
1183,8242
1179,8234
1175,8226
1171,8217
1169,8208
1168,8198
1167,8189
1167,7830
1168,7820
1169,7811
1171,7802
1175,7793
1179,7784
1183,7776
1189,7769
1195,7762
1202,7756
1210,7750
1218,7745
1226,7741
1235,7738
1244,7736
1254,7734
1263,7734
1455,7734
1465,7734
Z" /> 
<path style="fill:#000000; fill-opacity:1.0; 
stroke:#000000; stroke-width:0; stroke-opacity:1; 
stroke-linecap:round; stroke-linejoin:round;fill-rule:evenodd;"
d="M 2203,7734
2212,7736
2221,7738
2230,7741
2239,7745
2247,7750
2254,7756
2261,7762
2267,7769
2273,7776
2278,7784
2282,7793
2285,7802
2287,7811
2289,7820
2289,7830
2289,8189
2289,8198
2287,8208
2285,8217
2282,8226
2278,8234
2273,8242
2267,8250
2261,8257
2254,8263
2247,8269
2239,8274
2230,8278
2221,8281
2212,8283
2203,8284
2193,8285
2001,8285
1992,8284
1983,8283
1974,8281
1965,8278
1956,8274
1948,8269
1940,8263
1934,8257
1927,8250
1922,8242
1917,8234
1913,8226
1910,8217
1907,8208
1906,8198
1905,8189
1905,7830
1906,7820
1907,7811
1910,7802
1913,7793
1917,7784
1922,7776
1927,7769
1934,7762
1940,7756
1948,7750
1956,7745
1965,7741
1974,7738
1983,7736
1992,7734
2001,7734
2193,7734
2203,7734
Z" /> 
</g>
<g >
<path style="fill:#000000; fill-opacity:1.0; 
stroke:#000000; stroke-width:0; stroke-opacity:1; 
stroke-linecap:round; stroke-linejoin:round;fill-rule:evenodd;"
d="M 3236,7106
3246,7107
3255,7110
3264,7113
3272,7117
3280,7122
3288,7127
3295,7134
3301,7141
3307,7148
3312,7156
3316,7165
3319,7174
3321,7183
3322,7192
3323,7202
3323,7393
3322,7403
3321,7412
3319,7421
3316,7430
3312,7439
3307,7447
3301,7454
3295,7461
3288,7468
3280,7473
3272,7478
3264,7482
3255,7485
3246,7488
3236,7489
3227,7489
2868,7489
2858,7489
2849,7488
2840,7485
2831,7482
2822,7478
2814,7473
2807,7468
2800,7461
2794,7454
2788,7447
2783,7439
2779,7430
2776,7421
2774,7412
2772,7403
2772,7393
2772,7202
2772,7192
2774,7183
2776,7174
2779,7165
2783,7156
2788,7148
2794,7141
2800,7134
2807,7127
2814,7122
2822,7117
2831,7113
2840,7110
2849,7107
2858,7106
2868,7106
3227,7106
3236,7106
Z" /> 
<path style="fill:#000000; fill-opacity:1.0; 
stroke:#000000; stroke-width:0; stroke-opacity:1; 
stroke-linecap:round; stroke-linejoin:round;fill-rule:evenodd;"
d="M 3236,6368
3246,6369
3255,6372
3264,6375
3272,6379
3280,6384
3288,6389
3295,6396
3301,6402
3307,6410
3312,6418
3316,6427
3319,6436
3321,6445
3322,6454
3323,6463
3323,6655
3322,6665
3321,6674
3319,6683
3316,6692
3312,6701
3307,6709
3301,6716
3295,6723
3288,6729
3280,6735
3272,6740
3264,6744
3255,6747
3246,6749
3236,6751
3227,6751
2868,6751
2858,6751
2849,6749
2840,6747
2831,6744
2822,6740
2814,6735
2807,6729
2800,6723
2794,6716
2788,6709
2783,6701
2779,6692
2776,6683
2774,6674
2772,6665
2772,6655
2772,6463
2772,6454
2774,6445
2776,6436
2779,6427
2783,6418
2788,6410
2794,6402
2800,6396
2807,6389
2814,6384
2822,6379
2831,6375
2840,6372
2849,6369
2858,6368
2868,6367
3227,6367
3236,6368
Z" /> 
</g>
<g >
<path style="fill:#000000; fill-opacity:1.0; 
stroke:#000000; stroke-width:0; stroke-opacity:1; 
stroke-linecap:round; stroke-linejoin:round;fill-rule:evenodd;"
d="M 5334,9134
5343,9136
5352,9138
5361,9141
5369,9145
5378,9150
5385,9156
5392,9162
5398,9169
5404,9176
5409,9184
5413,9193
5416,9202
5418,9211
5420,9220
5420,9230
5420,9589
5420,9598
5418,9608
5416,9617
5413,9626
5409,9634
5404,9642
5398,9650
5392,9657
5385,9663
5378,9669
5369,9674
5361,9678
5352,9681
5343,9683
5334,9684
5324,9685
5132,9685
5123,9684
5114,9683
5104,9681
5096,9678
5087,9674
5079,9669
5071,9663
5064,9657
5058,9650
5052,9642
5048,9634
5044,9626
5040,9617
5038,9608
5037,9598
5036,9589
5036,9230
5037,9220
5038,9211
5040,9202
5044,9193
5048,9184
5052,9176
5058,9169
5064,9162
5071,9156
5079,9150
5087,9145
5096,9141
5104,9138
5114,9136
5123,9134
5132,9134
5324,9134
5334,9134
Z" /> 
<path style="fill:#000000; fill-opacity:1.0; 
stroke:#000000; stroke-width:0; stroke-opacity:1; 
stroke-linecap:round; stroke-linejoin:round;fill-rule:evenodd;"
d="M 6072,9134
6081,9136
6090,9138
6099,9141
6108,9145
6116,9150
6123,9156
6130,9162
6137,9169
6142,9176
6147,9184
6151,9193
6154,9202
6157,9211
6158,9220
6158,9230
6158,9589
6158,9598
6157,9608
6154,9617
6151,9626
6147,9634
6142,9642
6137,9650
6130,9657
6123,9663
6116,9669
6108,9674
6099,9678
6090,9681
6081,9683
6072,9684
6062,9685
5870,9685
5861,9684
5852,9683
5843,9681
5834,9678
5825,9674
5817,9669
5810,9663
5803,9657
5796,9650
5791,9642
5786,9634
5782,9626
5779,9617
5776,9608
5775,9598
5775,9589
5775,9230
5775,9220
5776,9211
5779,9202
5782,9193
5786,9184
5791,9176
5796,9169
5803,9162
5810,9156
5817,9150
5825,9145
5834,9141
5843,9138
5852,9136
5861,9134
5870,9134
6062,9134
6072,9134
Z" /> 
</g>
<g >
<path style="fill:#000000; fill-opacity:1.0; 
stroke:#000000; stroke-width:0; stroke-opacity:1; 
stroke-linecap:round; stroke-linejoin:round;fill-rule:evenodd;"
d="M 1136,1787
1146,1788
1155,1791
1164,1794
1172,1798
1180,1803
1188,1808
1195,1815
1201,1822
1207,1829
1212,1837
1216,1846
1219,1855
1221,1864
1222,1873
1223,1882
1223,2074
1222,2084
1221,2093
1219,2102
1216,2111
1212,2120
1207,2128
1201,2135
1195,2142
1188,2149
1180,2154
1172,2159
1164,2163
1155,2166
1146,2169
1136,2170
1127,2170
768,2170
758,2170
749,2169
740,2166
731,2163
722,2159
714,2154
707,2149
700,2142
694,2135
688,2128
683,2120
679,2111
676,2102
674,2093
672,2084
672,2074
672,1882
672,1873
674,1864
676,1855
679,1846
683,1837
688,1829
694,1822
700,1815
707,1808
714,1803
722,1798
731,1794
740,1791
749,1788
758,1787
768,1787
1127,1787
1136,1787
Z" /> 
<path style="fill:#000000; fill-opacity:1.0; 
stroke:#000000; stroke-width:0; stroke-opacity:1; 
stroke-linecap:round; stroke-linejoin:round;fill-rule:evenodd;"
d="M 1136,1049
1146,1050
1155,1052
1164,1056
1172,1060
1180,1064
1188,1070
1195,1076
1201,1083
1207,1091
1212,1099
1216,1108
1219,1116
1221,1126
1222,1135
1223,1144
1223,1336
1222,1346
1221,1355
1219,1364
1216,1373
1212,1381
1207,1390
1201,1397
1195,1404
1188,1410
1180,1416
1172,1421
1164,1425
1155,1428
1146,1430
1136,1432
1127,1432
768,1432
758,1432
749,1430
740,1428
731,1425
722,1421
714,1416
707,1410
700,1404
694,1397
688,1390
683,1381
679,1373
676,1364
674,1355
672,1346
672,1336
672,1144
672,1135
674,1126
676,1116
679,1108
683,1099
688,1091
694,1083
700,1076
707,1070
714,1064
722,1060
731,1056
740,1052
749,1050
758,1049
768,1048
1127,1048
1136,1049
Z" /> 
</g>
<g >
<circle cx="3047.83" cy="3709.84" r="157.48" /> 
</g>
<g style="fill:#000000; fill-opacity:1.0; 
stroke:#000000; stroke-width:39.3701; stroke-opacity:1; 
stroke-linecap:round; stroke-linejoin:round;">
</g>
<g >
</g>
<g style="fill:#000000; fill-opacity:1.0; 
stroke:#000000; stroke-width:196.85; stroke-opacity:1; 
stroke-linecap:round; stroke-linejoin:round;">
</g>
<g style="fill:#000000; fill-opacity:0.0; 
stroke:#000000; stroke-width:196.85; stroke-opacity:1; 
stroke-linecap:round; stroke-linejoin:round;">
<path d="M1721 5738
L1643 5659
" />
<path d="M1721 6143
L1721 5738
" />
<path d="M1643 5659
L1347 5659
" />
</g>
<g style="fill:#000000; fill-opacity:0.0; 
stroke:#000000; stroke-width:393.701; stroke-opacity:1; 
stroke-linecap:round; stroke-linejoin:round;">
<path d="M5147 2209
L5097 2159
" />
</g>
<g style="fill:#000000; fill-opacity:0.0; 
stroke:#000000; stroke-width:98.4252; stroke-opacity:1; 
stroke-linecap:round; stroke-linejoin:round;">
<path d="M5038 2799
L5097 2858
" />
</g>
<g style="fill:#000000; fill-opacity:0.0; 
stroke:#000000; stroke-width:393.701; stroke-opacity:1; 
stroke-linecap:round; stroke-linejoin:round;">
<path d="M5097 2990
L5647 3540
" />
</g>
<g style="fill:#000000; fill-opacity:0.0; 
stroke:#000000; stroke-width:196.85; stroke-opacity:1; 
stroke-linecap:round; stroke-linejoin:round;">
<path d="M1883 2909
L5097 2909
" />
<path d="M1697 3095
L1883 2909
" />
<path d="M1697 3376
L1697 3095
" />
</g>
<g style="fill:#000000; fill-opacity:0.0; 
stroke:#000000; stroke-width:393.701; stroke-opacity:1; 
stroke-linecap:round; stroke-linejoin:round;">
<path d="M5097 2909
L5097 2990
" />
<path d="M5097 2159
L5097 2909
" />
</g>
<g style="fill:#000000; fill-opacity:0.0; 
stroke:#000000; stroke-width:196.85; stroke-opacity:1; 
stroke-linecap:round; stroke-linejoin:round;">
<path d="M5097 8150
L5097 5669
" />
</g>
<g style="fill:#000000; fill-opacity:0.0; 
stroke:#000000; stroke-width:98.4252; stroke-opacity:1; 
stroke-linecap:round; stroke-linejoin:round;">
<path d="M5097 4909
L5097 5669
" />
</g>
<g style="fill:#000000; fill-opacity:0.0; 
stroke:#000000; stroke-width:196.85; stroke-opacity:1; 
stroke-linecap:round; stroke-linejoin:round;">
<path d="M1347 6143
L1347 6559
" />
<path d="M1721 7009
L1721 6583
" />
<path d="M1547 6559
L3047 6559
" />
<path d="M1347 6559
L1547 6559
" />
<path d="M4097 4259
L4647 4259
" />
<path d="M3697 3859
L4097 4259
" />
<path d="M3697 3209
L3697 3859
" />
<path d="M2071 3335
L2197 3209
" />
<path d="M2197 3209
L3697 3209
" />
<path d="M2071 3376
L2071 3335
" />
<path d="M1359 7021
L1347 7009
" />
<path d="M1359 8009
L1359 7021
" />
<path d="M2097 7011
L2095 7009
" />
<path d="M2097 8009
L2097 7011
" />
<path d="M2095 5111
L2097 5109
" />
<path d="M2095 6143
L2095 5111
" />
<path d="M2097 4268
L2071 4242
" />
<path d="M2097 5109
L2097 4268
" />
</g>
<g style="fill:#000000; fill-opacity:0.0; 
stroke:#000000; stroke-width:98.4252; stroke-opacity:1; 
stroke-linecap:round; stroke-linejoin:round;">
<path d="M1323 4242
L1323 3935
" />
<path d="M1323 3935
L1546 3713
" />
<path d="M1546 3713
L2494 3713
" />
<path d="M2497 3709
L3047 3709
" />
<path d="M2494 3713
L2497 3709
" />
<path d="M1323 3069
L1323 3376
" />
<path d="M3635 2622
L1771 2622
" />
<path d="M4097 2159
L3635 2622
" />
<path d="M1771 2622
L1323 3069
" />
<path d="M1697 3935
L1697 4242
" />
<path d="M1727 3906
L1697 3935
" />
<path d="M2302 3906
L1727 3906
" />
<path d="M2305 3909
L2302 3906
" />
<path d="M2748 3909
L2305 3909
" />
<path d="M3047 4290
L2748 3909
" />
<path d="M2897 4290
L3047 4290
" />
<path d="M5396 4259
L5397 4261
" />
</g>
<g style="fill:#000000; fill-opacity:0.0; 
stroke:#000000; stroke-width:196.85; stroke-opacity:1; 
stroke-linecap:round; stroke-linejoin:round;">
<path d="M5405 4278
L5647 4278
" />
</g>
<g style="fill:#000000; fill-opacity:0.0; 
stroke:#000000; stroke-width:295.276; stroke-opacity:1; 
stroke-linecap:round; stroke-linejoin:round;">
<path d="M4647 3521
L5405 4278
" />
</g>
<g >
</g>
<g style="fill:#000000; fill-opacity:1.0; 
stroke:#000000; stroke-width:100; stroke-opacity:1; 
stroke-linecap:round; stroke-linejoin:round;">
<path style="fill:#000000; fill-opacity:1.0; 
stroke:#000000; stroke-width:100; stroke-opacity:1; 
stroke-linecap:round; stroke-linejoin:round;fill-rule:evenodd;"
d="M 1609,1833
1555,1935
1521,2045
1510,2159
1521,2274
1555,2384
1565,2404
1558,2409
1549,2421
1122,2847
1111,2857
1098,2872
1073,2902
1055,2936
1046,2954
1040,2971
1018,2990
986,3028
963,3071
949,3119
944,3168
944,3585
949,3634
963,3681
986,3724
1018,3763
1056,3794
1059,3795
1046,3820
1042,3831
1040,3838
1018,3856
986,3894
963,3938
949,3985
944,4034
944,4451
949,4500
963,4547
986,4591
1018,4629
1020,4631
990,4656
958,4694
935,4738
921,4785
916,4834
917,4997
980,5059
1309,5059
1309,5051
1409,5051
1409,5059
1417,5059
1417,5159
1409,5159
1409,5572
1472,5635
1551,5636
1600,5631
1647,5617
1691,5594
1729,5563
1747,5540
1747,5817
1735,5838
1721,5884
1707,5838
1684,5795
1671,5779
1671,5747
1609,5685
1593,5683
1544,5688
1534,5691
1524,5688
1475,5683
1219,5683
1170,5688
1123,5702
1080,5726
1042,5757
1011,5795
987,5838
973,5886
968,5935
968,6352
973,6401
987,6448
999,6470
999,6542
997,6559
1004,6628
1013,6658
1011,6661
987,6705
973,6752
968,6801
968,7218
973,7267
987,7314
1011,7358
1011,7358
1011,7593
975,7637
942,7697
923,7762
916,7830
916,8189
923,8257
942,8322
975,8382
1018,8434
1070,8478
1130,8510
1195,8529
1263,8536
1455,8536
1523,8529
1588,8510
1648,8478
1701,8434
1728,8401
1756,8434
1808,8478
1869,8510
1934,8529
2001,8536
2193,8536
2261,8529
2326,8510
2386,8478
2439,8434
2482,8382
2514,8322
2534,8257
2540,8189
2540,7830
2534,7762
2532,7756
3645,7756
3647,8037
3709,8100
4142,8100
4142,7568
4079,7506
3897,7505
3848,7509
3800,7524
3757,7547
3719,7578
3688,7616
3664,7660
3650,7707
3645,7756
2532,7756
2514,7697
2482,7637
2446,7593
2446,7489
2521,7489
2525,7538
2540,7586
2563,7629
2594,7667
2632,7698
2676,7722
2723,7736
2772,7741
2935,7739
2997,7677
2997,7348
3097,7348
3097,7677
3160,7739
3323,7741
3372,7736
3419,7722
3462,7698
3501,7667
3532,7629
3555,7586
3569,7538
3574,7489
3573,7410
3510,7348
3097,7348
2997,7348
2584,7348
2522,7410
2521,7489
2446,7489
2446,7332
2455,7314
2470,7267
2475,7218
2475,7059
2525,7059
2521,7106
2522,7185
2584,7248
2997,7248
2997,7240
3097,7240
3097,7248
3510,7248
3573,7185
3574,7106
3570,7059
4447,7059
4447,7505
4304,7506
4242,7568
4242,8100
4250,8100
4250,8200
4242,8200
4242,8731
4304,8793
4447,8794
4447,8809
4448,8819
4451,8828
4456,8837
4462,8845
4470,8851
4478,8856
4488,8858
4497,8859
5447,8859
5447,8885
5420,8883
5341,8884
5278,8946
5278,9359
5286,9359
5286,9459
5278,9459
5278,9467
5178,9467
5178,9459
4849,9459
4786,9522
4786,9559
2797,9559
2788,9560
2778,9563
2770,9568
2762,9574
2756,9582
2751,9590
2748,9600
2747,9609
2747,11809
2748,11819
2751,11828
2756,11837
2762,11845
2770,11851
2778,11856
2788,11858
2797,11859
4647,11859
4647,12601
4514,12546
4370,12517
4224,12517
4081,12546
3946,12602
3824,12683
3721,12786
3640,12908
3584,13043
3555,13186
3555,13332
3584,13476
3640,13611
3721,13732
3824,13836
3946,13917
4081,13973
4224,14001
4370,14001
4514,13973
4647,13918
4647,14350
860,14350
801,14344
756,14330
715,14308
679,14279
649,14243
627,14202
613,14157
607,14099
607,13776
851,13776
901,13891
1031,13956
1172,13994
1318,14005
1463,13986
1602,13940
1694,13891
1744,13776
1297,13330
851,13776
607,13776
607,13535
617,13564
666,13656
780,13706
1227,13259
1368,13259
1814,13706
1929,13656
1994,13525
2032,13384
2043,13239
2036,13186
2055,13186
2055,13332
2084,13476
2140,13611
2221,13732
2324,13836
2446,13917
2581,13973
2724,14001
2870,14001
3014,13973
3149,13917
3270,13836
3374,13732
3455,13611
3511,13476
3539,13332
3539,13186
3511,13043
3455,12908
3374,12786
3270,12683
3149,12602
3014,12546
2870,12517
2724,12517
2581,12546
2446,12602
2324,12683
2221,12786
2140,12908
2084,13043
2055,13186
2036,13186
2024,13094
1978,12955
1929,12863
1814,12813
1368,13259
1227,13259
780,12813
666,12863
607,12981
607,12742
851,12742
1297,13189
1744,12742
1694,12628
1563,12563
1422,12524
1277,12514
1132,12532
993,12579
901,12628
851,12742
607,12742
607,11151
657,11151
662,11200
676,11248
699,11291
731,11329
769,11360
812,11384
859,11398
908,11403
1583,11401
1646,11339
1646,10709
1746,10709
1746,11339
1808,11401
2483,11403
2532,11398
2579,11384
2623,11360
2661,11329
2692,11291
2715,11248
2730,11200
2734,11151
2733,10772
2671,10709
1746,10709
1646,10709
721,10709
658,10772
657,11151
607,11151
607,10167
657,10167
658,10547
721,10609
1646,10609
1646,9980
1746,9980
1746,10609
2671,10609
2733,10547
2734,10167
2730,10118
2715,10071
2692,10028
2661,9990
2623,9958
2579,9935
2532,9921
2483,9916
1808,9917
1746,9980
1646,9980
1583,9917
908,9916
859,9921
812,9935
769,9958
731,9990
699,10028
676,10071
662,10118
657,10167
607,10167
607,9134
4785,9134
4786,9297
4849,9359
5178,9359
5178,8946
5116,8884
5036,8883
4987,8887
4940,8902
4897,8925
4859,8956
4827,8994
4804,9038
4790,9085
4785,9134
607,9134
607,8543
3645,8543
3650,8592
3664,8639
3688,8683
3719,8721
3757,8752
3800,8775
3848,8790
3897,8794
4079,8793
4142,8731
4142,8200
3709,8200
3647,8262
3645,8543
607,8543
607,5385
916,5385
921,5434
935,5481
958,5524
990,5563
1028,5594
1071,5617
1118,5631
1167,5636
1247,5635
1309,5572
1309,5159
980,5159
917,5222
916,5385
607,5385
607,2412
623,2417
672,2422
835,2420
897,2358
897,2028
997,2028
997,2358
1060,2420
1223,2422
1272,2417
1319,2402
1362,2379
1401,2348
1432,2310
1455,2267
1469,2219
1474,2170
1473,2091
1410,2028
997,2028
897,2028
889,2028
889,1928
897,1928
897,1921
997,1921
997,1928
1410,1928
1473,1866
1474,1787
1471,1759
1669,1759
1609,1833
Z" /> 
<path style="fill:#000000; fill-opacity:1.0; 
stroke:#000000; stroke-width:100; stroke-opacity:1; 
stroke-linecap:round; stroke-linejoin:round;fill-rule:evenodd;"
d="M 1894,2921
1895,2921
1895,2921
1894,2921
Z" /> 
<path style="fill:#000000; fill-opacity:1.0; 
stroke:#000000; stroke-width:100; stroke-opacity:1; 
stroke-linecap:round; stroke-linejoin:round;fill-rule:evenodd;"
d="M 6587,11559
6333,11559
6288,11522
6227,11490
6162,11470
6093,11463
5601,11463
5533,11470
5467,11490
5407,11522
5362,11559
3047,11559
3047,11151
3059,11151
3064,11200
3078,11248
3101,11291
3132,11329
3170,11360
3214,11384
3261,11398
3310,11403
3985,11401
4047,11339
4047,10709
4147,10709
4147,11339
4210,11401
4885,11403
4934,11398
4981,11384
5024,11360
5062,11329
5094,11291
5117,11248
5131,11200
5136,11151
5136,11104
5252,11104
5256,11153
5271,11200
5294,11244
5325,11282
5363,11313
5407,11336
5454,11351
5503,11355
5735,11354
5797,11292
5797,10908
5897,10908
5897,11292
5960,11354
6192,11355
6241,11351
6288,11336
6331,11313
6369,11282
6401,11244
6424,11200
6438,11153
6443,11104
6442,10971
6379,10908
5897,10908
5797,10908
5315,10908
5253,10971
5252,11104
5136,11104
5135,10772
5072,10709
4147,10709
4047,10709
3122,10709
3060,10772
3059,11151
3047,11151
3047,10612
5252,10612
5253,10746
5315,10808
5797,10808
5797,10425
5897,10425
5897,10808
6379,10808
6442,10746
6443,10612
6438,10563
6424,10516
6401,10473
6369,10434
6331,10403
6288,10380
6241,10366
6192,10361
5960,10362
5897,10425
5797,10425
5735,10362
5503,10361
5454,10366
5407,10380
5363,10403
5325,10434
5294,10473
5271,10516
5256,10563
5252,10612
3047,10612
3047,10167
3059,10167
3060,10547
3122,10609
4047,10609
4047,9980
4147,9980
4147,10609
5072,10609
5135,10547
5136,10167
5131,10118
5117,10071
5094,10028
5062,9990
5024,9958
4981,9935
4934,9921
4885,9916
4210,9917
4147,9980
4047,9980
3985,9917
3310,9916
3261,9921
3214,9935
3170,9958
3132,9990
3101,10028
3078,10071
3064,10118
3059,10167
3047,10167
3047,9859
4917,9859
4939,9878
4999,9910
5065,9929
5132,9936
5324,9936
5392,9929
5457,9910
5517,9878
5539,9859
5594,9859
5597,9863
5635,9894
5678,9917
5725,9931
5775,9936
5854,9935
5916,9872
5916,9459
6016,9459
6016,9872
6079,9935
6158,9936
6207,9931
6254,9917
6298,9894
6336,9863
6367,9824
6390,9781
6405,9734
6410,9685
6408,9522
6346,9459
6016,9459
5916,9459
5909,9459
5909,9359
5916,9359
5916,8946
6016,8946
6016,9359
6346,9359
6408,9297
6410,9134
6405,9085
6390,9038
6367,8994
6336,8956
6298,8925
6254,8902
6207,8887
6158,8883
6079,8884
6016,8946
5916,8946
5854,8884
5775,8883
5747,8885
5747,8794
5890,8793
5953,8731
5953,8200
6053,8200
6053,8731
6115,8793
6298,8794
6347,8790
6394,8775
6438,8752
6476,8721
6507,8683
6530,8639
6545,8592
6549,8543
6548,8262
6486,8200
6053,8200
5953,8200
5945,8200
5945,8100
5953,8100
5953,7568
6053,7568
6053,8100
6486,8100
6548,8037
6549,7756
6545,7707
6530,7660
6507,7616
6476,7578
6438,7547
6394,7524
6347,7509
6298,7505
6115,7506
6053,7568
5953,7568
5890,7506
5747,7505
5747,7059
6587,7059
6587,11559
Z" /> 
<path style="fill:#000000; fill-opacity:1.0; 
stroke:#000000; stroke-width:100; stroke-opacity:1; 
stroke-linecap:round; stroke-linejoin:round;fill-rule:evenodd;"
d="M 5315,11911
5797,11911
5797,11903
5897,11903
5897,11911
6379,11911
6431,11859
6587,11859
6587,14097
6582,14156
6568,14200
6546,14242
6517,14278
6481,14307
6440,14330
6395,14343
6337,14350
4947,14350
4947,13751
5054,13751
5059,13800
5073,13847
5096,13891
5128,13929
5166,13960
5209,13983
5256,13998
5305,14003
5685,14001
5747,13939
5747,13309
5847,13309
5847,13939
5910,14001
6289,14003
6338,13998
6385,13983
6429,13960
6467,13929
6498,13891
6521,13847
6536,13800
6541,13751
6539,13372
6477,13309
5847,13309
5747,13309
5118,13309
5055,13372
5054,13751
4947,13751
4947,13622
4955,13611
5011,13476
5039,13332
5039,13186
5011,13043
4955,12908
4947,12897
4947,12767
5054,12767
5055,13147
5118,13209
5747,13209
5747,12580
5847,12580
5847,13209
6477,13209
6539,13147
6541,12767
6536,12718
6521,12671
6498,12628
6467,12590
6429,12558
6385,12535
6338,12521
6289,12516
5910,12517
5847,12580
5747,12580
5685,12517
5305,12516
5256,12521
5209,12535
5166,12558
5128,12590
5096,12628
5073,12671
5059,12718
5054,12767
4947,12767
4947,12207
5252,12207
5256,12256
5271,12303
5294,12346
5325,12384
5363,12415
5407,12439
5454,12453
5503,12458
5735,12457
5797,12394
5797,12011
5897,12011
5897,12394
5960,12457
6192,12458
6241,12453
6288,12439
6331,12415
6369,12384
6401,12346
6424,12303
6438,12256
6443,12207
6442,12073
6379,12011
5897,12011
5797,12011
5315,12011
5253,12073
5252,12207
4947,12207
4947,11859
5264,11859
5315,11911
Z" /> 
<path style="fill:#000000; fill-opacity:1.0; 
stroke:#000000; stroke-width:100; stroke-opacity:1; 
stroke-linecap:round; stroke-linejoin:round;fill-rule:evenodd;"
d="M 6394,275
6438,288
6480,310
6516,340
6545,376
6568,417
6581,461
6587,520
6587,6709
5497,6709
5488,6710
5478,6713
5470,6718
5462,6724
5456,6732
5451,6740
5448,6750
5447,6759
5447,7511
5442,7509
5393,7505
5210,7506
5147,7568
5147,7609
5047,7609
5047,7568
4985,7506
4802,7505
4753,7509
4747,7511
4747,6759
4746,6750
4744,6740
4739,6732
4733,6724
4725,6718
4716,6713
4707,6710
4697,6709
3573,6709
3573,6672
3510,6609
3097,6609
3097,6617
2997,6617
2997,6609
2584,6609
2522,6672
2521,6709
2498,6709
2502,6367
2521,6367
2522,6447
2584,6509
2997,6509
2997,6180
3097,6180
3097,6509
3510,6509
3573,6447
3574,6367
3569,6318
3555,6271
3532,6228
3501,6190
3462,6159
3419,6135
3372,6121
3323,6116
3160,6117
3097,6180
2997,6180
2935,6117
2772,6116
2723,6121
2676,6135
2632,6159
2594,6190
2563,6228
2540,6271
2525,6318
2521,6367
2502,6367
2506,6063
4098,6063
4103,6112
4117,6159
4140,6202
4172,6241
4210,6272
4253,6295
4300,6309
4349,6314
4985,6313
5047,6250
5047,5719
5147,5719
5147,6250
5210,6313
5845,6314
5894,6309
5942,6295
5985,6272
6023,6241
6054,6202
6077,6159
6092,6112
6097,6063
6095,5782
6033,5719
5147,5719
5047,5719
4162,5719
4099,5782
4098,6063
2506,6063
2514,5421
2534,5357
2538,5312
2540,5317
2563,5360
2594,5398
2632,5429
2676,5452
2723,5467
2772,5472
2935,5470
2997,5408
2997,5078
3097,5078
3097,5408
3160,5470
3323,5472
3372,5467
3419,5452
3462,5429
3501,5398
3532,5360
3555,5317
3567,5275
4098,5275
4099,5557
4162,5619
5047,5619
5047,5088
5147,5088
5147,5619
6033,5619
6095,5557
6097,5275
6092,5226
6077,5179
6054,5136
6023,5098
5985,5067
5942,5043
5894,5029
5845,5024
5210,5025
5147,5088
5047,5088
4985,5025
4349,5024
4300,5029
4253,5043
4210,5067
4172,5098
4140,5136
4117,5179
4103,5226
4098,5275
3567,5275
3569,5269
3574,5220
3573,5141
3510,5078
3097,5078
2997,5078
2989,5078
2989,4978
2997,4978
2997,4971
3097,4971
3097,4978
3510,4978
3573,4916
3574,4837
3569,4787
3555,4740
3532,4697
3501,4659
3470,4634
3472,4632
3516,4579
3548,4519
3567,4454
3568,4451
4121,4451
4125,4500
4140,4547
4163,4591
4194,4629
4232,4660
4276,4683
4323,4698
4372,4702
4535,4701
4597,4639
4597,4309
4184,4309
4122,4372
4121,4451
3568,4451
3574,4386
3574,4194
3567,4127
3548,4061
3516,4001
3472,3949
3420,3906
3409,3900
3439,3828
3455,3749
3455,3669
3439,3590
3426,3559
4121,3559
4121,3617
4127,3685
4147,3750
4179,3810
4222,3863
4225,3865
4194,3890
4163,3928
4140,3971
4125,4018
4121,4067
4122,4147
4184,4209
4597,4209
4597,4201
4697,4201
4697,4209
4705,4209
4705,4309
4697,4309
4697,4639
4760,4701
4923,4702
4972,4698
5019,4683
5062,4660
5101,4629
5132,4591
5140,4576
5183,4611
5252,4648
5258,4650
5275,4663
5335,4695
5400,4715
5468,4722
5827,4722
5895,4715
5960,4695
6020,4663
6072,4620
6116,4567
6148,4507
6167,4442
6174,4374
6174,4182
6167,4115
6148,4050
6116,3990
6072,3937
6039,3909
6072,3882
6116,3829
6148,3769
6167,3704
6174,3636
6174,3444
6167,3377
6148,3311
6116,3251
6072,3199
6020,3156
5960,3124
5895,3104
5837,3098
5544,2805
5544,2536
5586,2486
5640,2384
5674,2274
5685,2159
5674,2045
5640,1935
5586,1833
5513,1744
5501,1734
5528,1726
5572,1703
5610,1672
5641,1634
5664,1590
5678,1543
5683,1494
5683,825
5678,776
5664,729
5641,685
5610,647
5572,616
5528,593
5481,578
5432,573
4763,573
4714,578
4667,593
4623,616
4585,647
4554,685
4531,729
4521,760
4491,727
4399,659
4296,609
4238,592
4147,640
4147,1109
4155,1109
4155,1209
4147,1209
4147,1217
4047,1217
4047,1209
3147,1209
3147,1217
3047,1217
3047,1209
2147,1209
2147,1217
2047,1217
2047,1209
1577,1209
1530,1300
1568,1408
1599,1459
1471,1459
1474,1432
1473,1353
1410,1290
997,1290
997,1298
897,1298
897,1290
889,1290
889,1190
897,1190
897,861
997,861
997,1190
1410,1190
1473,1128
1474,1048
1471,1019
1530,1019
1577,1109
2047,1109
2047,640
2147,640
2147,1109
3047,1109
3047,640
3147,640
3147,1109
4047,1109
4047,640
3957,592
3899,609
3795,659
3704,727
3627,812
3597,862
3568,812
3491,727
3399,659
3296,609
3238,592
3147,640
3047,640
2957,592
2899,609
2795,659
2704,727
2627,812
2597,862
2568,812
2491,727
2399,659
2296,609
2238,592
2147,640
2047,640
1957,592
1899,609
1795,659
1704,727
1627,812
1568,911
1530,1019
1471,1019
1469,999
1455,952
1432,909
1401,871
1362,839
1319,816
1272,802
1223,797
1060,798
997,861
897,861
835,798
672,797
623,802
607,807
607,522
613,463
626,418
648,377
678,341
714,311
755,289
799,275
858,269
6335,269
6394,275
Z" /> 
</g>
</g>
<g style="fill:#FFFFFF; fill-opacity:1.0; 
stroke:#FFFFFF; stroke-width:100; stroke-opacity:1; 
stroke-linecap:round; stroke-linejoin:round;">
</g>
<g style="fill:#FFFFFF; fill-opacity:1.0; 
stroke:#FFFFFF; stroke-width:0; stroke-opacity:1; 
stroke-linecap:round; stroke-linejoin:round;">
<circle cx="3047.83" cy="3709.84" r="78.7402" /> 
</g>
<g style="fill:#FFFFFF; fill-opacity:1.0; 
stroke:#FFFFFF; stroke-width:39.3701; stroke-opacity:1; 
stroke-linecap:round; stroke-linejoin:round;">
</g>
<g style="fill:#FFFFFF; fill-opacity:1.0; 
stroke:#FFFFFF; stroke-width:0; stroke-opacity:1; 
stroke-linecap:round; stroke-linejoin:round;">
<circle cx="1297.83" cy="13259.8" r="197" /> 
</g>
<g style="fill:#FFFFFF; fill-opacity:1.0; 
stroke:#FFFFFF; stroke-width:39.3701; stroke-opacity:1; 
stroke-linecap:round; stroke-linejoin:round;">
</g>
<g style="fill:#FFFFFF; fill-opacity:1.0; 
stroke:#FFFFFF; stroke-width:0; stroke-opacity:1; 
stroke-linecap:round; stroke-linejoin:round;">
<circle cx="2797.83" cy="13259.8" r="197" /> 
</g>
<g style="fill:#FFFFFF; fill-opacity:1.0; 
stroke:#FFFFFF; stroke-width:39.3701; stroke-opacity:1; 
stroke-linecap:round; stroke-linejoin:round;">
</g>
<g style="fill:#FFFFFF; fill-opacity:1.0; 
stroke:#FFFFFF; stroke-width:0; stroke-opacity:1; 
stroke-linecap:round; stroke-linejoin:round;">
<circle cx="4297.83" cy="13259.8" r="197" /> 
</g>
<g style="fill:#FFFFFF; fill-opacity:1.0; 
stroke:#FFFFFF; stroke-width:39.3701; stroke-opacity:1; 
stroke-linecap:round; stroke-linejoin:round;">
</g>
<g style="fill:#FFFFFF; fill-opacity:1.0; 
stroke:#FFFFFF; stroke-width:0; stroke-opacity:1; 
stroke-linecap:round; stroke-linejoin:round;">
<circle cx="5797.83" cy="13259.8" r="197" /> 
</g>
<g style="fill:#FFFFFF; fill-opacity:1.0; 
stroke:#FFFFFF; stroke-width:39.3701; stroke-opacity:1; 
stroke-linecap:round; stroke-linejoin:round;">
</g>
<g style="fill:#FFFFFF; fill-opacity:1.0; 
stroke:#FFFFFF; stroke-width:0; stroke-opacity:1; 
stroke-linecap:round; stroke-linejoin:round;">
<circle cx="2097.83" cy="2159.84" r="196.85" /> 
</g>
<g style="fill:#FFFFFF; fill-opacity:1.0; 
stroke:#FFFFFF; stroke-width:39.3701; stroke-opacity:1; 
stroke-linecap:round; stroke-linejoin:round;">
</g>
<g style="fill:#FFFFFF; fill-opacity:1.0; 
stroke:#FFFFFF; stroke-width:0; stroke-opacity:1; 
stroke-linecap:round; stroke-linejoin:round;">
<circle cx="2097.83" cy="1159.84" r="196.85" /> 
</g>
<g style="fill:#FFFFFF; fill-opacity:1.0; 
stroke:#FFFFFF; stroke-width:39.3701; stroke-opacity:1; 
stroke-linecap:round; stroke-linejoin:round;">
</g>
<g style="fill:#FFFFFF; fill-opacity:1.0; 
stroke:#FFFFFF; stroke-width:0; stroke-opacity:1; 
stroke-linecap:round; stroke-linejoin:round;">
<circle cx="3097.83" cy="2159.84" r="196.85" /> 
</g>
<g style="fill:#FFFFFF; fill-opacity:1.0; 
stroke:#FFFFFF; stroke-width:39.3701; stroke-opacity:1; 
stroke-linecap:round; stroke-linejoin:round;">
</g>
<g style="fill:#FFFFFF; fill-opacity:1.0; 
stroke:#FFFFFF; stroke-width:0; stroke-opacity:1; 
stroke-linecap:round; stroke-linejoin:round;">
<circle cx="3097.83" cy="1159.84" r="196.85" /> 
</g>
<g style="fill:#FFFFFF; fill-opacity:1.0; 
stroke:#FFFFFF; stroke-width:39.3701; stroke-opacity:1; 
stroke-linecap:round; stroke-linejoin:round;">
</g>
<g style="fill:#FFFFFF; fill-opacity:1.0; 
stroke:#FFFFFF; stroke-width:0; stroke-opacity:1; 
stroke-linecap:round; stroke-linejoin:round;">
<circle cx="4097.83" cy="2159.84" r="196.85" /> 
</g>
<g style="fill:#FFFFFF; fill-opacity:1.0; 
stroke:#FFFFFF; stroke-width:39.3701; stroke-opacity:1; 
stroke-linecap:round; stroke-linejoin:round;">
</g>
<g style="fill:#FFFFFF; fill-opacity:1.0; 
stroke:#FFFFFF; stroke-width:0; stroke-opacity:1; 
stroke-linecap:round; stroke-linejoin:round;">
<circle cx="4097.83" cy="1159.84" r="196.85" /> 
</g>
<g style="fill:#FFFFFF; fill-opacity:1.0; 
stroke:#FFFFFF; stroke-width:39.3701; stroke-opacity:1; 
stroke-linecap:round; stroke-linejoin:round;">
</g>
<g style="fill:#FFFFFF; fill-opacity:1.0; 
stroke:#FFFFFF; stroke-width:0; stroke-opacity:1; 
stroke-linecap:round; stroke-linejoin:round;">
<circle cx="5097.83" cy="2159.84" r="196.85" /> 
</g>
<g style="fill:#FFFFFF; fill-opacity:1.0; 
stroke:#FFFFFF; stroke-width:39.3701; stroke-opacity:1; 
stroke-linecap:round; stroke-linejoin:round;">
</g>
<g style="fill:#FFFFFF; fill-opacity:1.0; 
stroke:#FFFFFF; stroke-width:0; stroke-opacity:1; 
stroke-linecap:round; stroke-linejoin:round;">
<circle cx="5097.83" cy="1159.84" r="196.85" /> 
</g>
<g style="fill:#FFFFFF; fill-opacity:1.0; 
stroke:#FFFFFF; stroke-width:39.3701; stroke-opacity:1; 
stroke-linecap:round; stroke-linejoin:round;">
</g>
<g style="fill:#000000; fill-opacity:1.0; 
stroke:#000000; stroke-width:39.3701; stroke-opacity:1; 
stroke-linecap:round; stroke-linejoin:round;">
</g>
<g style="fill:#000000; fill-opacity:0.0; 
stroke:#000000; stroke-width:19.685; stroke-opacity:1; 
stroke-linecap:round; stroke-linejoin:round;">
<path d="M6347.83 14609.8 A500 500 0.0 0 0 6847.83 14109.8 " />
<path d="M347.835 14109.8 A500 500 0.0 0 0 847.835 14609.8 " />
<path d="M847.835 9.84291 A500 500 0.0 0 0 347.835 509.843 " />
<path d="M6847.83 509.843 A500 500 0.0 0 0 6347.83 9.84291 " />
<path d="M6347 9
L847 9
" />
<path d="M6847 14109
L6847 509
" />
<path d="M847 14609
L6347 14609
" />
<path d="M347 509
L347 14109
" />
<g >
</g>
<g >
</g>
<g >
</g>
<g >
</g>
<g >
</g>
<g >
</g>
<g >
</g>
<g >
</g>
<g >
</g>
<g >
</g>
<g >
</g>
<g >
</g>
<g >
</g>
<g >
</g>
<g >
</g>
<g >
</g>
<g >
</g>
</g> 
</svg>
