<?xml version="1.0" standalone="no"?>
 <!DOCTYPE svg PUBLIC "-//W3C//DTD SVG 1.1//EN" 
 "http://www.w3.org/Graphics/SVG/1.1/DTD/svg11.dtd"> 
<svg xmlns="http://www.w3.org/2000/svg" version="1.1" 
    width="1.83388cm" height="3.53314cm" viewBox="0 0 7220 13910 ">
<title>SVG Picture created as pixel-stick-B_Cu.svg date 2019/12/08 00:36:50 </title>
  <desc>Picture generated by PCBNEW </desc>
<g style="fill:#000000; fill-opacity:1;stroke:#000000; stroke-opacity:1;
stroke-linecap:round; stroke-linejoin:round; "
 transform="translate(0 0) scale(1 1)">
</g>
<g style="fill:#000000; fill-opacity:0.0; 
stroke:#000000; stroke-width:-0.000393701; stroke-opacity:1; 
stroke-linecap:round; stroke-linejoin:round;">
<g >
</g>
<g style="fill:#000000; fill-opacity:0.0; 
stroke:#000000; stroke-width:680; stroke-opacity:1; 
stroke-linecap:round; stroke-linejoin:round;">
<path d="M2097 1959
L2097 1959
" />
<path d="M2097 959
L2097 959
" />
<path d="M3097 1959
L3097 1959
" />
<path d="M3097 959
L3097 959
" />
<path d="M4097 1959
L4097 1959
" />
<path d="M4097 959
L4097 959
" />
<path d="M5097 1959
L5097 1959
" />
</g>
<g style="fill:#000000; fill-opacity:0.0; 
stroke:#000000; stroke-width:0; stroke-opacity:1; 
stroke-linecap:round; stroke-linejoin:round;">
</g>
<g style="fill:#000000; fill-opacity:1.0; 
stroke:#000000; stroke-width:0; stroke-opacity:1; 
stroke-linecap:round; stroke-linejoin:round;">
<path style="fill:#000000; fill-opacity:1.0; 
stroke:#000000; stroke-width:0; stroke-opacity:1; 
stroke-linecap:round; stroke-linejoin:round;fill-rule:evenodd;"
d="M 4757,619
5437,619
5437,1299
4757,1299
4757,619
Z" /> 
</g>
<g >
</g>
<g >
<circle cx="2097.83" cy="12509.8" r="590.5" /> 
</g>
<g style="fill:#000000; fill-opacity:1.0; 
stroke:#000000; stroke-width:39.3701; stroke-opacity:1; 
stroke-linecap:round; stroke-linejoin:round;">
</g>
<g style="fill:#000000; fill-opacity:1.0; 
stroke:#000000; stroke-width:0; stroke-opacity:1; 
stroke-linecap:round; stroke-linejoin:round;">
<circle cx="3597.83" cy="12509.8" r="590.5" /> 
</g>
<g style="fill:#000000; fill-opacity:1.0; 
stroke:#000000; stroke-width:39.3701; stroke-opacity:1; 
stroke-linecap:round; stroke-linejoin:round;">
</g>
<g style="fill:#000000; fill-opacity:1.0; 
stroke:#000000; stroke-width:0; stroke-opacity:1; 
stroke-linecap:round; stroke-linejoin:round;">
<path style="fill:#000000; fill-opacity:1.0; 
stroke:#000000; stroke-width:0; stroke-opacity:1; 
stroke-linecap:round; stroke-linejoin:round;fill-rule:evenodd;"
d="M 5688,11919
5688,13100
4507,13100
4507,11919
5688,11919
Z" /> 
</g>
<g >
</g>
<g >
</g>
<g >
</g>
<g >
</g>
<g >
</g>
<g >
</g>
<g >
</g>
<g >
</g>
<g >
</g>
<g >
<circle cx="1697.83" cy="4109.84" r="157.48" /> 
</g>
<g style="fill:#000000; fill-opacity:1.0; 
stroke:#000000; stroke-width:39.3701; stroke-opacity:1; 
stroke-linecap:round; stroke-linejoin:round;">
</g>
<g >
</g>
<g style="fill:#000000; fill-opacity:1.0; 
stroke:#000000; stroke-width:98.4252; stroke-opacity:1; 
stroke-linecap:round; stroke-linejoin:round;">
</g>
<g style="fill:#000000; fill-opacity:0.0; 
stroke:#000000; stroke-width:98.4252; stroke-opacity:1; 
stroke-linecap:round; stroke-linejoin:round;">
<path d="M4086 948
L4097 959
" />
<path d="M3597 6009
L1697 4109
" />
<path d="M3597 13109
L3597 6009
" />
</g>
<g >
</g>
<g style="fill:#000000; fill-opacity:1.0; 
stroke:#000000; stroke-width:100; stroke-opacity:1; 
stroke-linecap:round; stroke-linejoin:round;">
<path style="fill:#000000; fill-opacity:1.0; 
stroke:#000000; stroke-width:100; stroke-opacity:1; 
stroke-linecap:round; stroke-linejoin:round;fill-rule:evenodd;"
d="M 6363,277
6426,296
6485,327
6536,369
6578,420
6610,478
6629,541
6637,619
6637,13297
6630,13375
6611,13438
6580,13497
6538,13548
6487,13590
6429,13622
6365,13641
6288,13650
910,13650
832,13642
768,13623
710,13592
659,13550
616,13499
585,13441
565,13377
557,13300
557,13097
1581,13097
1642,13221
1790,13296
1949,13341
2114,13354
2279,13334
2436,13283
2552,13221
2614,13097
2097,12580
1581,13097
557,13097
557,12526
1253,12526
1272,12691
1324,12848
1386,12964
1510,13026
2027,12509
1510,11993
1386,12054
1311,12202
1266,12361
1253,12526
557,12526
557,11922
1581,11922
2097,12439
2614,11922
2552,11798
2405,11723
2246,11678
2080,11665
1916,11684
1759,11736
1642,11798
1581,11922
557,11922
557,4069
1290,4069
1290,4149
1306,4228
1336,4302
1381,4369
1438,4426
1504,4470
1578,4501
1657,4517
1682,4517
3298,6133
3298,11724
3199,11765
3062,11856
2944,11974
2852,12111
2847,12125
2809,12054
2685,11993
2168,12509
2685,13026
2809,12964
2846,12892
2852,12907
2944,13045
3062,13162
3199,13254
3352,13318
3388,13325
3430,13359
3482,13387
3539,13404
3597,13410
3656,13404
3712,13387
3764,13359
3807,13325
3842,13318
3995,13254
4133,13162
4250,13045
4256,13037
4256,13100
4260,13149
4275,13196
4298,13239
4329,13277
4367,13309
4411,13332
4458,13346
4507,13351
5688,13351
5737,13346
5784,13332
5827,13309
5865,13277
5897,13239
5920,13196
5934,13149
5939,13100
5939,11919
5934,11870
5920,11823
5897,11779
5865,11741
5827,11710
5784,11687
5737,11672
5688,11668
4507,11668
4458,11672
4411,11687
4367,11710
4329,11741
4298,11779
4275,11823
4260,11870
4256,11919
4256,11982
4250,11974
4133,11856
3995,11765
3897,11724
3897,6024
3898,6009
3897,5995
3897,5995
3892,5951
3875,5894
3847,5842
3810,5797
3799,5787
2105,4094
2105,4069
2089,3990
2058,3916
2014,3850
1957,3793
1890,3748
1816,3718
1737,3702
1657,3702
1578,3718
1504,3748
1438,3793
1381,3850
1336,3916
1306,3990
1290,4069
557,4069
557,959
1504,959
1516,1075
1550,1186
1604,1289
1678,1379
1768,1452
1781,1459
1768,1466
1678,1540
1604,1630
1550,1732
1516,1844
1504,1959
1516,2075
1550,2186
1604,2289
1678,2379
1768,2452
1870,2507
1982,2541
2068,2549
2126,2549
2213,2541
2324,2507
2427,2452
2517,2379
2590,2289
2597,2276
2604,2289
2678,2379
2768,2452
2870,2507
2982,2541
3068,2549
3126,2549
3213,2541
3324,2507
3427,2452
3517,2379
3590,2289
3597,2276
3604,2289
3678,2379
3768,2452
3870,2507
3982,2541
4068,2549
4126,2549
4213,2541
4324,2507
4427,2452
4517,2379
4590,2289
4600,2271
4622,2309
4700,2395
4792,2464
4897,2514
4956,2532
5047,2484
5047,2009
5147,2009
5147,2484
5239,2532
5298,2514
5402,2464
5495,2395
5572,2309
5632,2210
5670,2101
5623,2009
5147,2009
5047,2009
5039,2009
5039,1909
5047,1909
5047,1901
5147,1901
5147,1909
5623,1909
5670,1818
5632,1709
5572,1610
5509,1539
5533,1531
5577,1508
5615,1477
5646,1439
5669,1395
5684,1348
5689,1299
5689,619
5684,570
5669,523
5646,480
5615,442
5577,410
5533,387
5486,373
5437,368
4757,368
4708,373
4661,387
4618,410
4580,442
4548,480
4525,523
4519,543
4517,540
4427,466
4324,412
4213,378
4126,369
4068,369
3982,378
3870,412
3768,466
3678,540
3604,630
3597,643
3590,630
3517,540
3427,466
3324,412
3213,378
3126,369
3068,369
2982,378
2870,412
2768,466
2678,540
2604,630
2597,643
2590,630
2517,540
2427,466
2324,412
2213,378
2126,369
2068,369
1982,378
1870,412
1768,466
1678,540
1604,630
1550,732
1516,844
1504,959
557,959
557,622
565,544
584,480
615,422
657,371
708,328
766,297
829,277
907,269
6285,269
6363,277
Z" /> 
</g>
</g>
<g style="fill:#FFFFFF; fill-opacity:1.0; 
stroke:#FFFFFF; stroke-width:100; stroke-opacity:1; 
stroke-linecap:round; stroke-linejoin:round;">
</g>
<g style="fill:#FFFFFF; fill-opacity:1.0; 
stroke:#FFFFFF; stroke-width:0; stroke-opacity:1; 
stroke-linecap:round; stroke-linejoin:round;">
<circle cx="1697.83" cy="4109.84" r="78.7402" /> 
</g>
<g style="fill:#FFFFFF; fill-opacity:1.0; 
stroke:#FFFFFF; stroke-width:39.3701; stroke-opacity:1; 
stroke-linecap:round; stroke-linejoin:round;">
</g>
<g style="fill:#FFFFFF; fill-opacity:1.0; 
stroke:#FFFFFF; stroke-width:0; stroke-opacity:1; 
stroke-linecap:round; stroke-linejoin:round;">
<circle cx="2097.83" cy="1959.84" r="200" /> 
</g>
<g style="fill:#FFFFFF; fill-opacity:1.0; 
stroke:#FFFFFF; stroke-width:39.3701; stroke-opacity:1; 
stroke-linecap:round; stroke-linejoin:round;">
</g>
<g style="fill:#FFFFFF; fill-opacity:1.0; 
stroke:#FFFFFF; stroke-width:0; stroke-opacity:1; 
stroke-linecap:round; stroke-linejoin:round;">
<circle cx="2097.83" cy="959.843" r="200" /> 
</g>
<g style="fill:#FFFFFF; fill-opacity:1.0; 
stroke:#FFFFFF; stroke-width:39.3701; stroke-opacity:1; 
stroke-linecap:round; stroke-linejoin:round;">
</g>
<g style="fill:#FFFFFF; fill-opacity:1.0; 
stroke:#FFFFFF; stroke-width:0; stroke-opacity:1; 
stroke-linecap:round; stroke-linejoin:round;">
<circle cx="3097.83" cy="1959.84" r="200" /> 
</g>
<g style="fill:#FFFFFF; fill-opacity:1.0; 
stroke:#FFFFFF; stroke-width:39.3701; stroke-opacity:1; 
stroke-linecap:round; stroke-linejoin:round;">
</g>
<g style="fill:#FFFFFF; fill-opacity:1.0; 
stroke:#FFFFFF; stroke-width:0; stroke-opacity:1; 
stroke-linecap:round; stroke-linejoin:round;">
<circle cx="3097.83" cy="959.843" r="200" /> 
</g>
<g style="fill:#FFFFFF; fill-opacity:1.0; 
stroke:#FFFFFF; stroke-width:39.3701; stroke-opacity:1; 
stroke-linecap:round; stroke-linejoin:round;">
</g>
<g style="fill:#FFFFFF; fill-opacity:1.0; 
stroke:#FFFFFF; stroke-width:0; stroke-opacity:1; 
stroke-linecap:round; stroke-linejoin:round;">
<circle cx="4097.83" cy="1959.84" r="200" /> 
</g>
<g style="fill:#FFFFFF; fill-opacity:1.0; 
stroke:#FFFFFF; stroke-width:39.3701; stroke-opacity:1; 
stroke-linecap:round; stroke-linejoin:round;">
</g>
<g style="fill:#FFFFFF; fill-opacity:1.0; 
stroke:#FFFFFF; stroke-width:0; stroke-opacity:1; 
stroke-linecap:round; stroke-linejoin:round;">
<circle cx="4097.83" cy="959.843" r="200" /> 
</g>
<g style="fill:#FFFFFF; fill-opacity:1.0; 
stroke:#FFFFFF; stroke-width:39.3701; stroke-opacity:1; 
stroke-linecap:round; stroke-linejoin:round;">
</g>
<g style="fill:#FFFFFF; fill-opacity:1.0; 
stroke:#FFFFFF; stroke-width:0; stroke-opacity:1; 
stroke-linecap:round; stroke-linejoin:round;">
<circle cx="5097.83" cy="1959.84" r="200" /> 
</g>
<g style="fill:#FFFFFF; fill-opacity:1.0; 
stroke:#FFFFFF; stroke-width:39.3701; stroke-opacity:1; 
stroke-linecap:round; stroke-linejoin:round;">
</g>
<g style="fill:#FFFFFF; fill-opacity:1.0; 
stroke:#FFFFFF; stroke-width:0; stroke-opacity:1; 
stroke-linecap:round; stroke-linejoin:round;">
<circle cx="5097.83" cy="959.843" r="200" /> 
</g>
<g style="fill:#FFFFFF; fill-opacity:1.0; 
stroke:#FFFFFF; stroke-width:39.3701; stroke-opacity:1; 
stroke-linecap:round; stroke-linejoin:round;">
</g>
<g style="fill:#FFFFFF; fill-opacity:1.0; 
stroke:#FFFFFF; stroke-width:0; stroke-opacity:1; 
stroke-linecap:round; stroke-linejoin:round;">
<circle cx="2097.83" cy="12509.8" r="236" /> 
</g>
<g style="fill:#FFFFFF; fill-opacity:1.0; 
stroke:#FFFFFF; stroke-width:39.3701; stroke-opacity:1; 
stroke-linecap:round; stroke-linejoin:round;">
</g>
<g style="fill:#FFFFFF; fill-opacity:1.0; 
stroke:#FFFFFF; stroke-width:0; stroke-opacity:1; 
stroke-linecap:round; stroke-linejoin:round;">
<circle cx="3597.83" cy="12509.8" r="236" /> 
</g>
<g style="fill:#FFFFFF; fill-opacity:1.0; 
stroke:#FFFFFF; stroke-width:39.3701; stroke-opacity:1; 
stroke-linecap:round; stroke-linejoin:round;">
</g>
<g style="fill:#FFFFFF; fill-opacity:1.0; 
stroke:#FFFFFF; stroke-width:0; stroke-opacity:1; 
stroke-linecap:round; stroke-linejoin:round;">
<circle cx="5097.83" cy="12509.8" r="236" /> 
</g>
<g style="fill:#FFFFFF; fill-opacity:1.0; 
stroke:#FFFFFF; stroke-width:39.3701; stroke-opacity:1; 
stroke-linecap:round; stroke-linejoin:round;">
</g>
<g style="fill:#000000; fill-opacity:1.0; 
stroke:#000000; stroke-width:39.3701; stroke-opacity:1; 
stroke-linecap:round; stroke-linejoin:round;">
</g>
<g style="fill:#000000; fill-opacity:0.0; 
stroke:#000000; stroke-width:19.685; stroke-opacity:1; 
stroke-linecap:round; stroke-linejoin:round;">
<path d="M6897.83 609.843 A600 600 0.0 0 0 6297.83 9.84291 " />
<path d="M897.835 9.84291 A600 600 0.0 0 0 297.835 609.843 " />
<path d="M297.835 13309.8 A600 600 0.0 0 0 897.835 13909.8 " />
<path d="M6297.83 13909.8 A600 600 0.0 0 0 6897.83 13309.8 " />
<path d="M6897 609
L6897 13309
" />
<path d="M297 13309
L297 609
" />
<path d="M6297 9
L897 9
" />
<path d="M897 13909
L6297 13909
" />
<g >
</g>
<g >
</g>
<g >
</g>
<g >
</g>
<g >
</g>
<g >
</g>
<g >
</g>
<g >
</g>
<g >
</g>
<g >
</g>
<g >
</g>
<g >
</g>
<g >
</g>
</g> 
</svg>
