<?xml version="1.0" standalone="no"?>
 <!DOCTYPE svg PUBLIC "-//W3C//DTD SVG 1.1//EN" 
 "http://www.w3.org/Graphics/SVG/1.1/DTD/svg11.dtd"> 
<svg xmlns="http://www.w3.org/2000/svg" version="1.1" 
    width="1.83896cm" height="3.57378cm" viewBox="0 0 7240 14070 ">
<title>SVG Picture created as pixel-stick-B_Cu.svg date 2019/12/07 23:50:34 </title>
  <desc>Picture generated by PCBNEW </desc>
<g style="fill:#000000; fill-opacity:1;stroke:#000000; stroke-opacity:1;
stroke-linecap:round; stroke-linejoin:round; "
 transform="translate(0 0) scale(1 1)">
</g>
<g style="fill:#000000; fill-opacity:0.0; 
stroke:#000000; stroke-width:-0.000393701; stroke-opacity:1; 
stroke-linecap:round; stroke-linejoin:round;">
<g >
</g>
<g style="fill:#000000; fill-opacity:0.0; 
stroke:#000000; stroke-width:680; stroke-opacity:1; 
stroke-linecap:round; stroke-linejoin:round;">
<path d="M2097 2110
L2097 2110
" />
<path d="M2097 1110
L2097 1110
" />
<path d="M3097 2110
L3097 2110
" />
<path d="M3097 1110
L3097 1110
" />
<path d="M4097 2110
L4097 2110
" />
<path d="M4097 1110
L4097 1110
" />
<path d="M5097 2110
L5097 2110
" />
</g>
<g style="fill:#000000; fill-opacity:0.0; 
stroke:#000000; stroke-width:0; stroke-opacity:1; 
stroke-linecap:round; stroke-linejoin:round;">
</g>
<g style="fill:#000000; fill-opacity:1.0; 
stroke:#000000; stroke-width:0; stroke-opacity:1; 
stroke-linecap:round; stroke-linejoin:round;">
<path style="fill:#000000; fill-opacity:1.0; 
stroke:#000000; stroke-width:0; stroke-opacity:1; 
stroke-linecap:round; stroke-linejoin:round;fill-rule:evenodd;"
d="M 4757,770
5437,770
5437,1450
4757,1450
4757,770
Z" /> 
</g>
<g >
</g>
<g >
<circle cx="2097.83" cy="12660.6" r="590.5" /> 
</g>
<g style="fill:#000000; fill-opacity:1.0; 
stroke:#000000; stroke-width:39.3701; stroke-opacity:1; 
stroke-linecap:round; stroke-linejoin:round;">
</g>
<g style="fill:#000000; fill-opacity:1.0; 
stroke:#000000; stroke-width:0; stroke-opacity:1; 
stroke-linecap:round; stroke-linejoin:round;">
<circle cx="3597.83" cy="12660.6" r="590.5" /> 
</g>
<g style="fill:#000000; fill-opacity:1.0; 
stroke:#000000; stroke-width:39.3701; stroke-opacity:1; 
stroke-linecap:round; stroke-linejoin:round;">
</g>
<g style="fill:#000000; fill-opacity:1.0; 
stroke:#000000; stroke-width:0; stroke-opacity:1; 
stroke-linecap:round; stroke-linejoin:round;">
<path style="fill:#000000; fill-opacity:1.0; 
stroke:#000000; stroke-width:0; stroke-opacity:1; 
stroke-linecap:round; stroke-linejoin:round;fill-rule:evenodd;"
d="M 5688,12070
5688,13251
4507,13251
4507,12070
5688,12070
Z" /> 
</g>
<g >
</g>
<g >
</g>
<g >
</g>
<g >
</g>
<g >
</g>
<g >
</g>
<g >
</g>
<g >
</g>
<g >
</g>
<g >
<circle cx="1697.83" cy="4260.63" r="157.48" /> 
</g>
<g style="fill:#000000; fill-opacity:1.0; 
stroke:#000000; stroke-width:39.3701; stroke-opacity:1; 
stroke-linecap:round; stroke-linejoin:round;">
</g>
<g >
</g>
<g style="fill:#000000; fill-opacity:1.0; 
stroke:#000000; stroke-width:98.4252; stroke-opacity:1; 
stroke-linecap:round; stroke-linejoin:round;">
</g>
<g style="fill:#000000; fill-opacity:0.0; 
stroke:#000000; stroke-width:98.4252; stroke-opacity:1; 
stroke-linecap:round; stroke-linejoin:round;">
<path d="M4086 1098
L4097 1110
" />
<path d="M3597 6160
L1697 4260
" />
<path d="M3597 13260
L3597 6160
" />
</g>
<g >
</g>
<g style="fill:#000000; fill-opacity:1.0; 
stroke:#000000; stroke-width:100; stroke-opacity:1; 
stroke-linecap:round; stroke-linejoin:round;">
<path style="fill:#000000; fill-opacity:1.0; 
stroke:#000000; stroke-width:100; stroke-opacity:1; 
stroke-linecap:round; stroke-linejoin:round;fill-rule:evenodd;"
d="M 6363,428
6426,447
6485,478
6536,520
6578,571
6610,629
6629,692
6637,770
6637,13447
6630,13526
6611,13589
6580,13648
6538,13699
6487,13741
6429,13773
6365,13792
6288,13800
910,13800
832,13793
768,13773
710,13742
659,13701
616,13650
585,13591
565,13528
557,13451
557,13247
1581,13247
1642,13372
1790,13447
1949,13492
2114,13505
2279,13485
2436,13434
2552,13372
2614,13247
2097,12731
1581,13247
557,13247
557,12677
1253,12677
1272,12841
1324,12999
1386,13115
1510,13177
2027,12660
1510,12144
1386,12205
1311,12353
1266,12512
1253,12677
557,12677
557,12073
1581,12073
2097,12589
2614,12073
2552,11949
2405,11874
2246,11829
2080,11816
1916,11835
1759,11886
1642,11949
1581,12073
557,12073
557,4220
1290,4220
1290,4300
1306,4379
1336,4453
1381,4520
1438,4577
1504,4621
1578,4652
1657,4668
1682,4668
3298,6284
3298,11874
3199,11915
3062,12007
2944,12124
2852,12262
2847,12276
2809,12205
2685,12144
2168,12660
2685,13177
2809,13115
2846,13042
2852,13058
2944,13196
3062,13313
3199,13405
3352,13468
3388,13475
3430,13510
3482,13538
3539,13555
3597,13561
3656,13555
3712,13538
3764,13510
3807,13475
3842,13468
3995,13405
4133,13313
4250,13196
4256,13188
4256,13251
4260,13300
4275,13347
4298,13390
4329,13428
4367,13460
4411,13483
4458,13497
4507,13502
5688,13502
5737,13497
5784,13483
5827,13460
5865,13428
5897,13390
5920,13347
5934,13300
5939,13251
5939,12070
5934,12021
5920,11973
5897,11930
5865,11892
5827,11861
5784,11838
5737,11823
5688,11818
4507,11818
4458,11823
4411,11838
4367,11861
4329,11892
4298,11930
4275,11973
4260,12021
4256,12070
4256,12132
4250,12124
4133,12007
3995,11915
3897,11874
3897,6175
3898,6160
3897,6145
3897,6145
3892,6101
3875,6045
3847,5993
3810,5948
3799,5938
2105,4244
2105,4220
2089,4141
2058,4067
2014,4000
1957,3944
1890,3899
1816,3868
1737,3853
1657,3853
1578,3868
1504,3899
1438,3944
1381,4000
1336,4067
1306,4141
1290,4220
557,4220
557,1110
1504,1110
1516,1226
1550,1337
1604,1440
1678,1529
1768,1603
1781,1610
1768,1617
1678,1691
1604,1781
1550,1883
1516,1994
1504,2110
1516,2226
1550,2337
1604,2440
1678,2529
1768,2603
1870,2658
1982,2692
2068,2700
2126,2700
2213,2692
2324,2658
2427,2603
2517,2529
2590,2440
2597,2426
2604,2440
2678,2529
2768,2603
2870,2658
2982,2692
3068,2700
3126,2700
3213,2692
3324,2658
3427,2603
3517,2529
3590,2440
3597,2426
3604,2440
3678,2529
3768,2603
3870,2658
3982,2692
4068,2700
4126,2700
4213,2692
4324,2658
4427,2603
4517,2529
4590,2440
4600,2422
4622,2460
4700,2546
4792,2615
4897,2665
4956,2683
5047,2635
5047,2160
5147,2160
5147,2635
5239,2683
5298,2665
5402,2615
5495,2546
5572,2460
5632,2361
5670,2251
5623,2160
5147,2160
5047,2160
5039,2160
5039,2060
5047,2060
5047,2052
5147,2052
5147,2060
5623,2060
5670,1969
5632,1860
5572,1760
5509,1690
5533,1682
5577,1659
5615,1628
5646,1590
5669,1546
5684,1499
5689,1450
5689,770
5684,721
5669,674
5646,631
5615,592
5577,561
5533,538
5486,524
5437,519
4757,519
4708,524
4661,538
4618,561
4580,592
4548,631
4525,674
4519,694
4517,691
4427,617
4324,562
4213,529
4126,520
4068,520
3982,529
3870,562
3768,617
3678,691
3604,781
3597,794
3590,781
3517,691
3427,617
3324,562
3213,529
3126,520
3068,520
2982,529
2870,562
2768,617
2678,691
2604,781
2597,794
2590,781
2517,691
2427,617
2324,562
2213,529
2126,520
2068,520
1982,529
1870,562
1768,617
1678,691
1604,781
1550,883
1516,994
1504,1110
557,1110
557,773
565,694
584,631
615,573
657,521
708,479
766,448
829,428
907,420
6285,420
6363,428
Z" /> 
</g>
</g>
<g style="fill:#FFFFFF; fill-opacity:1.0; 
stroke:#FFFFFF; stroke-width:100; stroke-opacity:1; 
stroke-linecap:round; stroke-linejoin:round;">
</g>
<g style="fill:#FFFFFF; fill-opacity:1.0; 
stroke:#FFFFFF; stroke-width:0; stroke-opacity:1; 
stroke-linecap:round; stroke-linejoin:round;">
<circle cx="1697.83" cy="4260.63" r="78.7402" /> 
</g>
<g style="fill:#FFFFFF; fill-opacity:1.0; 
stroke:#FFFFFF; stroke-width:39.3701; stroke-opacity:1; 
stroke-linecap:round; stroke-linejoin:round;">
</g>
<g style="fill:#FFFFFF; fill-opacity:1.0; 
stroke:#FFFFFF; stroke-width:0; stroke-opacity:1; 
stroke-linecap:round; stroke-linejoin:round;">
<circle cx="2097.83" cy="2110.63" r="200" /> 
</g>
<g style="fill:#FFFFFF; fill-opacity:1.0; 
stroke:#FFFFFF; stroke-width:39.3701; stroke-opacity:1; 
stroke-linecap:round; stroke-linejoin:round;">
</g>
<g style="fill:#FFFFFF; fill-opacity:1.0; 
stroke:#FFFFFF; stroke-width:0; stroke-opacity:1; 
stroke-linecap:round; stroke-linejoin:round;">
<circle cx="2097.83" cy="1110.63" r="200" /> 
</g>
<g style="fill:#FFFFFF; fill-opacity:1.0; 
stroke:#FFFFFF; stroke-width:39.3701; stroke-opacity:1; 
stroke-linecap:round; stroke-linejoin:round;">
</g>
<g style="fill:#FFFFFF; fill-opacity:1.0; 
stroke:#FFFFFF; stroke-width:0; stroke-opacity:1; 
stroke-linecap:round; stroke-linejoin:round;">
<circle cx="3097.83" cy="2110.63" r="200" /> 
</g>
<g style="fill:#FFFFFF; fill-opacity:1.0; 
stroke:#FFFFFF; stroke-width:39.3701; stroke-opacity:1; 
stroke-linecap:round; stroke-linejoin:round;">
</g>
<g style="fill:#FFFFFF; fill-opacity:1.0; 
stroke:#FFFFFF; stroke-width:0; stroke-opacity:1; 
stroke-linecap:round; stroke-linejoin:round;">
<circle cx="3097.83" cy="1110.63" r="200" /> 
</g>
<g style="fill:#FFFFFF; fill-opacity:1.0; 
stroke:#FFFFFF; stroke-width:39.3701; stroke-opacity:1; 
stroke-linecap:round; stroke-linejoin:round;">
</g>
<g style="fill:#FFFFFF; fill-opacity:1.0; 
stroke:#FFFFFF; stroke-width:0; stroke-opacity:1; 
stroke-linecap:round; stroke-linejoin:round;">
<circle cx="4097.83" cy="2110.63" r="200" /> 
</g>
<g style="fill:#FFFFFF; fill-opacity:1.0; 
stroke:#FFFFFF; stroke-width:39.3701; stroke-opacity:1; 
stroke-linecap:round; stroke-linejoin:round;">
</g>
<g style="fill:#FFFFFF; fill-opacity:1.0; 
stroke:#FFFFFF; stroke-width:0; stroke-opacity:1; 
stroke-linecap:round; stroke-linejoin:round;">
<circle cx="4097.83" cy="1110.63" r="200" /> 
</g>
<g style="fill:#FFFFFF; fill-opacity:1.0; 
stroke:#FFFFFF; stroke-width:39.3701; stroke-opacity:1; 
stroke-linecap:round; stroke-linejoin:round;">
</g>
<g style="fill:#FFFFFF; fill-opacity:1.0; 
stroke:#FFFFFF; stroke-width:0; stroke-opacity:1; 
stroke-linecap:round; stroke-linejoin:round;">
<circle cx="5097.83" cy="2110.63" r="200" /> 
</g>
<g style="fill:#FFFFFF; fill-opacity:1.0; 
stroke:#FFFFFF; stroke-width:39.3701; stroke-opacity:1; 
stroke-linecap:round; stroke-linejoin:round;">
</g>
<g style="fill:#FFFFFF; fill-opacity:1.0; 
stroke:#FFFFFF; stroke-width:0; stroke-opacity:1; 
stroke-linecap:round; stroke-linejoin:round;">
<circle cx="5097.83" cy="1110.63" r="200" /> 
</g>
<g style="fill:#FFFFFF; fill-opacity:1.0; 
stroke:#FFFFFF; stroke-width:39.3701; stroke-opacity:1; 
stroke-linecap:round; stroke-linejoin:round;">
</g>
<g style="fill:#FFFFFF; fill-opacity:1.0; 
stroke:#FFFFFF; stroke-width:0; stroke-opacity:1; 
stroke-linecap:round; stroke-linejoin:round;">
<circle cx="2097.83" cy="12660.6" r="236" /> 
</g>
<g style="fill:#FFFFFF; fill-opacity:1.0; 
stroke:#FFFFFF; stroke-width:39.3701; stroke-opacity:1; 
stroke-linecap:round; stroke-linejoin:round;">
</g>
<g style="fill:#FFFFFF; fill-opacity:1.0; 
stroke:#FFFFFF; stroke-width:0; stroke-opacity:1; 
stroke-linecap:round; stroke-linejoin:round;">
<circle cx="3597.83" cy="12660.6" r="236" /> 
</g>
<g style="fill:#FFFFFF; fill-opacity:1.0; 
stroke:#FFFFFF; stroke-width:39.3701; stroke-opacity:1; 
stroke-linecap:round; stroke-linejoin:round;">
</g>
<g style="fill:#FFFFFF; fill-opacity:1.0; 
stroke:#FFFFFF; stroke-width:0; stroke-opacity:1; 
stroke-linecap:round; stroke-linejoin:round;">
<circle cx="5097.83" cy="12660.6" r="236" /> 
</g>
<g style="fill:#FFFFFF; fill-opacity:1.0; 
stroke:#FFFFFF; stroke-width:39.3701; stroke-opacity:1; 
stroke-linecap:round; stroke-linejoin:round;">
</g>
<g style="fill:#000000; fill-opacity:1.0; 
stroke:#000000; stroke-width:39.3701; stroke-opacity:1; 
stroke-linecap:round; stroke-linejoin:round;">
</g>
<g style="fill:#000000; fill-opacity:0.0; 
stroke:#000000; stroke-width:19.685; stroke-opacity:1; 
stroke-linecap:round; stroke-linejoin:round;">
<path d="M6897.83 760.63 A600 600 0.0 0 0 6297.83 160.63 " />
<path d="M897.835 160.63 A600 600 0.0 0 0 297.835 760.63 " />
<path d="M297.835 13460.6 A600 600 0.0 0 0 897.835 14060.6 " />
<path d="M6297.83 14060.6 A600 600 0.0 0 0 6897.83 13460.6 " />
<path d="M6897 760
L6897 13460
" />
<path d="M297 13460
L297 760
" />
<path d="M6297 160
L897 160
" />
<path d="M897 14060
L6297 14060
" />
<g >
</g>
<g >
</g>
<g >
</g>
<g >
</g>
<g >
</g>
<g >
</g>
<g >
</g>
<g >
</g>
<g >
</g>
<g >
</g>
<g >
</g>
<g >
</g>
<g >
</g>
</g> 
</svg>
