<?xml version="1.0" standalone="no"?>
 <!DOCTYPE svg PUBLIC "-//W3C//DTD SVG 1.1//EN" 
 "http://www.w3.org/Graphics/SVG/1.1/DTD/svg11.dtd"> 
<svg xmlns="http://www.w3.org/2000/svg" version="1.1" 
    width="1.83896cm" height="3.57378cm" viewBox="0 0 7240 14070 ">
<title>SVG Picture created as pixel-stick-F_Cu.svg date 2019/12/07 23:50:34 </title>
  <desc>Picture generated by PCBNEW </desc>
<g style="fill:#000000; fill-opacity:1;stroke:#000000; stroke-opacity:1;
stroke-linecap:round; stroke-linejoin:round; "
 transform="translate(0 0) scale(1 1)">
</g>
<g style="fill:#000000; fill-opacity:0.0; 
stroke:#000000; stroke-width:-0.000393701; stroke-opacity:1; 
stroke-linecap:round; stroke-linejoin:round;">
<g >
</g>
<g style="fill:#000000; fill-opacity:0.0; 
stroke:#000000; stroke-width:680; stroke-opacity:1; 
stroke-linecap:round; stroke-linejoin:round;">
<path d="M2097 2110
L2097 2110
" />
<path d="M2097 1110
L2097 1110
" />
<path d="M3097 2110
L3097 2110
" />
<path d="M3097 1110
L3097 1110
" />
<path d="M4097 2110
L4097 2110
" />
<path d="M4097 1110
L4097 1110
" />
<path d="M5097 2110
L5097 2110
" />
</g>
<g style="fill:#000000; fill-opacity:0.0; 
stroke:#000000; stroke-width:0; stroke-opacity:1; 
stroke-linecap:round; stroke-linejoin:round;">
</g>
<g style="fill:#000000; fill-opacity:1.0; 
stroke:#000000; stroke-width:0; stroke-opacity:1; 
stroke-linecap:round; stroke-linejoin:round;">
<path style="fill:#000000; fill-opacity:1.0; 
stroke:#000000; stroke-width:0; stroke-opacity:1; 
stroke-linecap:round; stroke-linejoin:round;fill-rule:evenodd;"
d="M 4757,770
5437,770
5437,1450
4757,1450
4757,770
Z" /> 
</g>
<g >
<path style="fill:#000000; fill-opacity:1.0; 
stroke:#000000; stroke-width:0; stroke-opacity:1; 
stroke-linecap:round; stroke-linejoin:round;fill-rule:evenodd;"
d="M 2098,9946
2107,9947
2116,9949
2126,9953
2134,9957
2143,9962
2150,9968
2157,9974
2164,9981
2170,9989
2175,9997
2179,10006
2182,10015
2184,10024
2186,10034
2186,10044
2186,10477
2186,10486
2184,10496
2182,10505
2179,10514
2175,10523
2170,10531
2164,10539
2157,10546
2150,10553
2143,10559
2134,10563
2126,10568
2116,10571
2107,10573
2098,10575
2088,10575
907,10575
897,10575
888,10573
878,10571
869,10568
860,10563
852,10559
844,10553
837,10546
831,10539
825,10531
820,10523
816,10514
813,10505
810,10496
809,10486
808,10477
808,10044
809,10034
810,10024
813,10015
816,10006
820,9997
825,9989
831,9981
837,9974
844,9968
852,9962
860,9957
869,9953
878,9949
888,9947
897,9946
907,9945
2088,9945
2098,9946
Z" /> 
<path style="fill:#000000; fill-opacity:1.0; 
stroke:#000000; stroke-width:0; stroke-opacity:1; 
stroke-linecap:round; stroke-linejoin:round;fill-rule:evenodd;"
d="M 4224,9946
4233,9947
4242,9949
4252,9953
4260,9957
4269,9962
4276,9968
4283,9974
4290,9981
4296,9989
4301,9997
4305,10006
4308,10015
4310,10024
4312,10034
4312,10044
4312,10477
4312,10486
4310,10496
4308,10505
4305,10514
4301,10523
4296,10531
4290,10539
4283,10546
4276,10553
4269,10559
4260,10563
4252,10568
4242,10571
4233,10573
4224,10575
4214,10575
3033,10575
3023,10575
3014,10573
3004,10571
2995,10568
2986,10563
2978,10559
2970,10553
2963,10546
2957,10539
2951,10531
2946,10523
2942,10514
2939,10505
2936,10496
2935,10486
2934,10477
2934,10044
2935,10034
2936,10024
2939,10015
2942,10006
2946,9997
2951,9989
2957,9981
2963,9974
2970,9968
2978,9962
2986,9957
2995,9953
3004,9949
3014,9947
3023,9946
3033,9945
4214,9945
4224,9946
Z" /> 
</g>
<g >
<circle cx="2097.83" cy="12660.6" r="590.5" /> 
</g>
<g style="fill:#000000; fill-opacity:1.0; 
stroke:#000000; stroke-width:39.3701; stroke-opacity:1; 
stroke-linecap:round; stroke-linejoin:round;">
</g>
<g style="fill:#000000; fill-opacity:1.0; 
stroke:#000000; stroke-width:0; stroke-opacity:1; 
stroke-linecap:round; stroke-linejoin:round;">
<circle cx="3597.83" cy="12660.6" r="590.5" /> 
</g>
<g style="fill:#000000; fill-opacity:1.0; 
stroke:#000000; stroke-width:39.3701; stroke-opacity:1; 
stroke-linecap:round; stroke-linejoin:round;">
</g>
<g style="fill:#000000; fill-opacity:1.0; 
stroke:#000000; stroke-width:0; stroke-opacity:1; 
stroke-linecap:round; stroke-linejoin:round;">
<path style="fill:#000000; fill-opacity:1.0; 
stroke:#000000; stroke-width:0; stroke-opacity:1; 
stroke-linecap:round; stroke-linejoin:round;fill-rule:evenodd;"
d="M 5688,12070
5688,13251
4507,13251
4507,12070
5688,12070
Z" /> 
</g>
<g >
<path style="fill:#000000; fill-opacity:1.0; 
stroke:#000000; stroke-width:0; stroke-opacity:1; 
stroke-linecap:round; stroke-linejoin:round;fill-rule:evenodd;"
d="M 1643,7004
1899,7004
1899,7618
1643,7618
1643,7004
Z" /> 
<path style="fill:#000000; fill-opacity:1.0; 
stroke:#000000; stroke-width:0; stroke-opacity:1; 
stroke-linecap:round; stroke-linejoin:round;fill-rule:evenodd;"
d="M 2017,7004
2273,7004
2273,7618
2017,7618
2017,7004
Z" /> 
<path style="fill:#000000; fill-opacity:1.0; 
stroke:#000000; stroke-width:0; stroke-opacity:1; 
stroke-linecap:round; stroke-linejoin:round;fill-rule:evenodd;"
d="M 1269,7004
1525,7004
1525,7618
1269,7618
1269,7004
Z" /> 
<path style="fill:#000000; fill-opacity:1.0; 
stroke:#000000; stroke-width:0; stroke-opacity:1; 
stroke-linecap:round; stroke-linejoin:round;fill-rule:evenodd;"
d="M 1269,5941
1525,5941
1525,6555
1269,6555
1269,5941
Z" /> 
<path style="fill:#000000; fill-opacity:1.0; 
stroke:#000000; stroke-width:0; stroke-opacity:1; 
stroke-linecap:round; stroke-linejoin:round;fill-rule:evenodd;"
d="M 1643,5941
1899,5941
1899,6555
1643,6555
1643,5941
Z" /> 
<path style="fill:#000000; fill-opacity:1.0; 
stroke:#000000; stroke-width:0; stroke-opacity:1; 
stroke-linecap:round; stroke-linejoin:round;fill-rule:evenodd;"
d="M 2017,5941
2273,5941
2273,6555
2017,6555
2017,5941
Z" /> 
</g>
<g >
<path style="fill:#000000; fill-opacity:1.0; 
stroke:#000000; stroke-width:0; stroke-opacity:1; 
stroke-linecap:round; stroke-linejoin:round;fill-rule:evenodd;"
d="M 2017,4051
2273,4051
2273,4666
2017,4666
2017,4051
Z" /> 
<path style="fill:#000000; fill-opacity:1.0; 
stroke:#000000; stroke-width:0; stroke-opacity:1; 
stroke-linecap:round; stroke-linejoin:round;fill-rule:evenodd;"
d="M 1269,4051
1525,4051
1525,4666
1269,4666
1269,4051
Z" /> 
<path style="fill:#000000; fill-opacity:1.0; 
stroke:#000000; stroke-width:0; stroke-opacity:1; 
stroke-linecap:round; stroke-linejoin:round;fill-rule:evenodd;"
d="M 1269,2988
1525,2988
1525,3603
1269,3603
1269,2988
Z" /> 
<path style="fill:#000000; fill-opacity:1.0; 
stroke:#000000; stroke-width:0; stroke-opacity:1; 
stroke-linecap:round; stroke-linejoin:round;fill-rule:evenodd;"
d="M 1643,2988
1899,2988
1899,3603
1643,3603
1643,2988
Z" /> 
<path style="fill:#000000; fill-opacity:1.0; 
stroke:#000000; stroke-width:0; stroke-opacity:1; 
stroke-linecap:round; stroke-linejoin:round;fill-rule:evenodd;"
d="M 2017,2988
2273,2988
2273,3603
2017,3603
2017,2988
Z" /> 
</g>
<g >
<path style="fill:#000000; fill-opacity:1.0; 
stroke:#000000; stroke-width:0; stroke-opacity:1; 
stroke-linecap:round; stroke-linejoin:round;fill-rule:evenodd;"
d="M 5103,8466
5113,8468
5122,8470
5131,8473
5140,8477
5148,8482
5156,8488
5163,8494
5170,8502
5176,8509
5181,8518
5185,8526
5188,8535
5190,8545
5192,8554
5192,8564
5192,9056
5192,9066
5190,9075
5188,9085
5185,9094
5181,9103
5176,9111
5170,9119
5163,9126
5156,9132
5148,9138
5140,9143
5131,9147
5122,9150
5113,9153
5103,9154
5094,9155
4730,9155
4720,9154
4710,9153
4701,9150
4692,9147
4683,9143
4675,9138
4667,9132
4660,9126
4654,9119
4648,9111
4643,9103
4639,9094
4635,9085
4633,9075
4632,9066
4631,9056
4631,8564
4632,8554
4633,8545
4635,8535
4639,8526
4643,8518
4648,8509
4654,8502
4660,8494
4667,8488
4675,8482
4683,8477
4692,8473
4701,8470
4710,8468
4720,8466
4730,8466
5094,8466
5103,8466
Z" /> 
<path style="fill:#000000; fill-opacity:1.0; 
stroke:#000000; stroke-width:0; stroke-opacity:1; 
stroke-linecap:round; stroke-linejoin:round;fill-rule:evenodd;"
d="M 6275,8466
6284,8468
6294,8470
6303,8473
6311,8477
6320,8482
6327,8488
6335,8494
6341,8502
6347,8509
6352,8518
6356,8526
6359,8535
6362,8545
6363,8554
6363,8564
6363,9056
6363,9066
6362,9075
6359,9085
6356,9094
6352,9103
6347,9111
6341,9119
6335,9126
6327,9132
6320,9138
6311,9143
6303,9147
6294,9150
6284,9153
6275,9154
6265,9155
5901,9155
5891,9154
5882,9153
5872,9150
5863,9147
5854,9143
5846,9138
5838,9132
5831,9126
5825,9119
5819,9111
5814,9103
5810,9094
5807,9085
5804,9075
5803,9066
5802,9056
5802,8564
5803,8554
5804,8545
5807,8535
5810,8526
5814,8518
5819,8509
5825,8502
5831,8494
5838,8488
5846,8482
5854,8477
5863,8473
5872,8470
5882,8468
5891,8466
5901,8466
6265,8466
6275,8466
Z" /> 
</g>
<g >
<path style="fill:#000000; fill-opacity:1.0; 
stroke:#000000; stroke-width:0; stroke-opacity:1; 
stroke-linecap:round; stroke-linejoin:round;fill-rule:evenodd;"
d="M 3353,7066
3363,7067
3372,7069
3381,7073
3390,7077
3398,7082
3406,7088
3413,7094
3419,7101
3425,7109
3430,7117
3434,7126
3438,7135
3440,7144
3441,7154
3442,7164
3442,7528
3441,7537
3440,7547
3438,7556
3434,7566
3430,7574
3425,7583
3419,7590
3413,7597
3406,7604
3398,7610
3390,7615
3381,7619
3372,7622
3363,7624
3353,7626
3343,7626
2851,7626
2842,7626
2832,7624
2823,7622
2814,7619
2805,7615
2797,7610
2789,7604
2782,7597
2775,7590
2769,7583
2764,7574
2760,7566
2757,7556
2755,7547
2753,7537
2753,7528
2753,7164
2753,7154
2755,7144
2757,7135
2760,7126
2764,7117
2769,7109
2775,7101
2782,7094
2789,7088
2797,7082
2805,7077
2814,7073
2823,7069
2832,7067
2842,7066
2851,7065
3343,7065
3353,7066
Z" /> 
<path style="fill:#000000; fill-opacity:1.0; 
stroke:#000000; stroke-width:0; stroke-opacity:1; 
stroke-linecap:round; stroke-linejoin:round;fill-rule:evenodd;"
d="M 3353,5894
3363,5896
3372,5898
3381,5901
3390,5906
3398,5911
3406,5916
3413,5923
3419,5930
3425,5938
3430,5946
3434,5955
3438,5964
3440,5973
3441,5983
3442,5992
3442,6357
3441,6366
3440,6376
3438,6385
3434,6394
3430,6403
3425,6411
3419,6419
3413,6426
3406,6433
3398,6438
3390,6443
3381,6448
3372,6451
3363,6453
3353,6455
3343,6455
2851,6455
2842,6455
2832,6453
2823,6451
2814,6448
2805,6443
2797,6438
2789,6433
2782,6426
2775,6419
2769,6411
2764,6403
2760,6394
2757,6385
2755,6376
2753,6366
2753,6357
2753,5992
2753,5983
2755,5973
2757,5964
2760,5955
2764,5946
2769,5938
2775,5930
2782,5923
2789,5916
2797,5911
2805,5906
2814,5901
2823,5898
2832,5896
2842,5894
2851,5894
3343,5894
3353,5894
Z" /> 
</g>
<g >
<path style="fill:#000000; fill-opacity:1.0; 
stroke:#000000; stroke-width:0; stroke-opacity:1; 
stroke-linecap:round; stroke-linejoin:round;fill-rule:evenodd;"
d="M 1633,7916
1643,7918
1652,7920
1661,7923
1670,7927
1678,7932
1686,7938
1693,7944
1700,7952
1706,7959
1711,7968
1715,7976
1718,7985
1720,7995
1722,8004
1722,8014
1722,8506
1722,8516
1720,8525
1718,8535
1715,8544
1711,8553
1706,8561
1700,8569
1693,8576
1686,8582
1678,8588
1670,8593
1661,8597
1652,8600
1643,8603
1633,8604
1624,8605
1260,8605
1250,8604
1240,8603
1231,8600
1222,8597
1213,8593
1205,8588
1197,8582
1190,8576
1183,8569
1178,8561
1173,8553
1169,8544
1165,8535
1163,8525
1162,8516
1161,8506
1161,8014
1162,8004
1163,7995
1165,7985
1169,7976
1173,7968
1178,7959
1183,7952
1190,7944
1197,7938
1205,7932
1213,7927
1222,7923
1231,7920
1240,7918
1250,7916
1260,7916
1624,7916
1633,7916
Z" /> 
<path style="fill:#000000; fill-opacity:1.0; 
stroke:#000000; stroke-width:0; stroke-opacity:1; 
stroke-linecap:round; stroke-linejoin:round;fill-rule:evenodd;"
d="M 2805,7916
2814,7918
2824,7920
2833,7923
2841,7927
2850,7932
2857,7938
2865,7944
2871,7952
2877,7959
2882,7968
2886,7976
2889,7985
2892,7995
2893,8004
2893,8014
2893,8506
2893,8516
2892,8525
2889,8535
2886,8544
2882,8553
2877,8561
2871,8569
2865,8576
2857,8582
2850,8588
2841,8593
2833,8597
2824,8600
2814,8603
2805,8604
2795,8605
2431,8605
2421,8604
2412,8603
2402,8600
2393,8597
2384,8593
2376,8588
2368,8582
2361,8576
2355,8569
2349,8561
2344,8553
2340,8544
2337,8535
2334,8525
2333,8516
2332,8506
2332,8014
2333,8004
2334,7995
2337,7985
2340,7976
2344,7968
2349,7959
2355,7952
2361,7944
2368,7938
2376,7932
2384,7927
2393,7923
2402,7920
2412,7918
2421,7916
2431,7916
2795,7916
2805,7916
Z" /> 
</g>
<g >
<path style="fill:#000000; fill-opacity:1.0; 
stroke:#000000; stroke-width:0; stroke-opacity:1; 
stroke-linecap:round; stroke-linejoin:round;fill-rule:evenodd;"
d="M 1633,4955
1643,4957
1652,4959
1661,4963
1670,4967
1678,4972
1686,4977
1693,4984
1700,4991
1706,4999
1711,5007
1715,5016
1718,5025
1720,5034
1722,5044
1722,5053
1722,5546
1722,5555
1720,5565
1718,5574
1715,5583
1711,5592
1706,5600
1700,5608
1693,5615
1686,5622
1678,5627
1670,5632
1661,5636
1652,5640
1643,5642
1633,5644
1624,5644
1260,5644
1250,5644
1240,5642
1231,5640
1222,5636
1213,5632
1205,5627
1197,5622
1190,5615
1183,5608
1178,5600
1173,5592
1169,5583
1165,5574
1163,5565
1162,5555
1161,5546
1161,5053
1162,5044
1163,5034
1165,5025
1169,5016
1173,5007
1178,4999
1183,4991
1190,4984
1197,4977
1205,4972
1213,4967
1222,4963
1231,4959
1240,4957
1250,4955
1260,4955
1624,4955
1633,4955
Z" /> 
<path style="fill:#000000; fill-opacity:1.0; 
stroke:#000000; stroke-width:0; stroke-opacity:1; 
stroke-linecap:round; stroke-linejoin:round;fill-rule:evenodd;"
d="M 2805,4955
2814,4957
2824,4959
2833,4963
2841,4967
2850,4972
2857,4977
2865,4984
2871,4991
2877,4999
2882,5007
2886,5016
2889,5025
2892,5034
2893,5044
2893,5053
2893,5546
2893,5555
2892,5565
2889,5574
2886,5583
2882,5592
2877,5600
2871,5608
2865,5615
2857,5622
2850,5627
2841,5632
2833,5636
2824,5640
2814,5642
2805,5644
2795,5644
2431,5644
2421,5644
2412,5642
2402,5640
2393,5636
2384,5632
2376,5627
2368,5622
2361,5615
2355,5608
2349,5600
2344,5592
2340,5583
2337,5574
2334,5565
2333,5555
2332,5546
2332,5053
2333,5044
2334,5034
2337,5025
2340,5016
2344,5007
2349,4999
2355,4991
2361,4984
2368,4977
2376,4972
2384,4967
2393,4963
2402,4959
2412,4957
2421,4955
2431,4955
2795,4955
2805,4955
Z" /> 
</g>
<g >
<path style="fill:#000000; fill-opacity:1.0; 
stroke:#000000; stroke-width:0; stroke-opacity:1; 
stroke-linecap:round; stroke-linejoin:round;fill-rule:evenodd;"
d="M 1203,1851
1213,1853
1222,1855
1231,1858
1240,1863
1248,1867
1256,1873
1263,1880
1269,1887
1275,1895
1280,1903
1284,1912
1288,1921
1290,1930
1291,1940
1292,1949
1292,2313
1291,2323
1290,2333
1288,2342
1284,2351
1280,2360
1275,2368
1269,2376
1263,2383
1256,2390
1248,2395
1240,2400
1231,2404
1222,2408
1213,2410
1203,2411
1193,2412
701,2412
692,2411
682,2410
673,2408
664,2404
655,2400
647,2395
639,2390
632,2383
625,2376
619,2368
614,2360
610,2351
607,2342
605,2333
603,2323
603,2313
603,1949
603,1940
605,1930
607,1921
610,1912
614,1903
619,1895
625,1887
632,1880
639,1873
647,1867
655,1863
664,1858
673,1855
682,1853
692,1851
701,1851
1193,1851
1203,1851
Z" /> 
<path style="fill:#000000; fill-opacity:1.0; 
stroke:#000000; stroke-width:0; stroke-opacity:1; 
stroke-linecap:round; stroke-linejoin:round;fill-rule:evenodd;"
d="M 1203,680
1213,682
1222,684
1231,687
1240,691
1248,696
1256,702
1263,708
1269,716
1275,723
1280,732
1284,740
1288,749
1290,759
1291,768
1292,778
1292,1142
1291,1152
1290,1161
1288,1171
1284,1180
1280,1189
1275,1197
1269,1205
1263,1212
1256,1218
1248,1224
1240,1229
1231,1233
1222,1236
1213,1239
1203,1240
1193,1241
701,1241
692,1240
682,1239
673,1236
664,1233
655,1229
647,1224
639,1218
632,1212
625,1205
619,1197
614,1189
610,1180
607,1171
605,1161
603,1152
603,1142
603,778
603,768
605,759
607,749
610,740
614,732
619,723
625,716
632,708
639,702
647,696
655,691
664,687
673,684
682,682
692,680
701,680
1193,680
1203,680
Z" /> 
</g>
<g >
<path style="fill:#000000; fill-opacity:1.0; 
stroke:#000000; stroke-width:0; stroke-opacity:1; 
stroke-linecap:round; stroke-linejoin:round;fill-rule:evenodd;"
d="M 6103,9880
6113,9882
6122,9884
6131,9887
6140,9891
6148,9896
6156,9902
6163,9908
6169,9916
6175,9923
6180,9932
6184,9940
6188,9949
6190,9959
6191,9968
6192,9978
6192,10342
6191,10352
6190,10361
6188,10371
6184,10380
6180,10389
6175,10397
6169,10405
6163,10412
6156,10418
6148,10424
6140,10429
6131,10433
6122,10436
6113,10439
6103,10440
6093,10441
5601,10441
5592,10440
5582,10439
5573,10436
5564,10433
5555,10429
5547,10424
5539,10418
5532,10412
5525,10405
5519,10397
5514,10389
5510,10380
5507,10371
5505,10361
5503,10352
5503,10342
5503,9978
5503,9968
5505,9959
5507,9949
5510,9940
5514,9932
5519,9923
5525,9916
5532,9908
5539,9902
5547,9896
5555,9891
5564,9887
5573,9884
5582,9882
5592,9880
5601,9880
6093,9880
6103,9880
Z" /> 
<path style="fill:#000000; fill-opacity:1.0; 
stroke:#000000; stroke-width:0; stroke-opacity:1; 
stroke-linecap:round; stroke-linejoin:round;fill-rule:evenodd;"
d="M 6103,11051
6113,11053
6122,11055
6131,11058
6140,11063
6148,11067
6156,11073
6163,11080
6169,11087
6175,11095
6180,11103
6184,11112
6188,11121
6190,11130
6191,11140
6192,11149
6192,11513
6191,11523
6190,11533
6188,11542
6184,11551
6180,11560
6175,11568
6169,11576
6163,11583
6156,11590
6148,11595
6140,11600
6131,11604
6122,11608
6113,11610
6103,11611
6093,11612
5601,11612
5592,11611
5582,11610
5573,11608
5564,11604
5555,11600
5547,11595
5539,11590
5532,11583
5525,11576
5519,11568
5514,11560
5510,11551
5507,11542
5505,11533
5503,11523
5503,11513
5503,11149
5503,11140
5505,11130
5507,11121
5510,11112
5514,11103
5519,11095
5525,11087
5532,11080
5539,11073
5547,11067
5555,11063
5564,11058
5573,11055
5582,11053
5592,11051
5601,11051
6093,11051
6103,11051
Z" /> 
</g>
<g >
<path style="fill:#000000; fill-opacity:1.0; 
stroke:#000000; stroke-width:0; stroke-opacity:1; 
stroke-linecap:round; stroke-linejoin:round;fill-rule:evenodd;"
d="M 4487,7794
3897,7794
3897,7007
4487,7007
4487,7794
Z" /> 
<path style="fill:#000000; fill-opacity:1.0; 
stroke:#000000; stroke-width:0; stroke-opacity:1; 
stroke-linecap:round; stroke-linejoin:round;fill-rule:evenodd;"
d="M 6298,7794
5708,7794
5708,7007
6298,7007
6298,7794
Z" /> 
<path style="fill:#000000; fill-opacity:1.0; 
stroke:#000000; stroke-width:0; stroke-opacity:1; 
stroke-linecap:round; stroke-linejoin:round;fill-rule:evenodd;"
d="M 5393,7794
4802,7794
4802,7007
5393,7007
5393,7794
Z" /> 
<path style="fill:#000000; fill-opacity:1.0; 
stroke:#000000; stroke-width:0; stroke-opacity:1; 
stroke-linecap:round; stroke-linejoin:round;fill-rule:evenodd;"
d="M 5845,5314
4349,5314
4349,4526
5845,4526
5845,5314
Z" /> 
</g>
<g >
<circle cx="1697.83" cy="4260.63" r="157.48" /> 
</g>
<g style="fill:#000000; fill-opacity:1.0; 
stroke:#000000; stroke-width:39.3701; stroke-opacity:1; 
stroke-linecap:round; stroke-linejoin:round;">
</g>
<g >
</g>
<g style="fill:#000000; fill-opacity:1.0; 
stroke:#000000; stroke-width:393.701; stroke-opacity:1; 
stroke-linecap:round; stroke-linejoin:round;">
</g>
<g style="fill:#000000; fill-opacity:0.0; 
stroke:#000000; stroke-width:393.701; stroke-opacity:1; 
stroke-linecap:round; stroke-linejoin:round;">
<path d="M5147 2160
L5097 2110
" />
</g>
<g style="fill:#000000; fill-opacity:0.0; 
stroke:#000000; stroke-width:196.85; stroke-opacity:1; 
stroke-linecap:round; stroke-linejoin:round;">
<path d="M1771 5629
L1771 6248
" />
<path d="M1442 5300
L1771 5629
" />
<path d="M3097 6760
L3097 6175
" />
<path d="M1397 6628
L1529 6760
" />
<path d="M1397 6248
L1397 6628
" />
<path d="M1724 6760
L1697 6760
" />
<path d="M1771 6807
L1724 6760
" />
<path d="M1771 7311
L1771 6807
" />
<path d="M1697 6760
L3097 6760
" />
<path d="M1529 6760
L1697 6760
" />
</g>
<g style="fill:#000000; fill-opacity:0.0; 
stroke:#000000; stroke-width:98.4252; stroke-opacity:1; 
stroke-linecap:round; stroke-linejoin:round;">
<path d="M5097 4860
L5097 5620
" />
</g>
<g style="fill:#000000; fill-opacity:0.0; 
stroke:#000000; stroke-width:196.85; stroke-opacity:1; 
stroke-linecap:round; stroke-linejoin:round;">
<path d="M2613 5300
L2237 5300
" />
<path d="M2145 5208
L2145 4359
" />
<path d="M2237 5300
L2145 5208
" />
<path d="M2145 6248
L2145 5208
" />
<path d="M1397 4260
L1697 4260
" />
<path d="M1697 4260
L1697 4260
" />
<path d="M1917 3780
L1771 3634
" />
<path d="M1771 3634
L1771 3394
" />
<path d="M4097 2110
L2428 3780
" />
<path d="M2428 3780
L1917 3780
" />
<path d="M1397 8216
L1442 8260
" />
<path d="M1397 7311
L1397 8216
" />
<path d="M2145 7793
L2613 8260
" />
<path d="M2145 7311
L2145 7793
" />
</g>
<g >
</g>
<g style="fill:#000000; fill-opacity:1.0; 
stroke:#000000; stroke-width:100; stroke-opacity:1; 
stroke-linecap:round; stroke-linejoin:round;">
<path style="fill:#000000; fill-opacity:1.0; 
stroke:#000000; stroke-width:100; stroke-opacity:1; 
stroke-linecap:round; stroke-linejoin:round;fill-rule:evenodd;"
d="M 6637,10910
6347,10910
6341,10902
6288,10859
6227,10826
6162,10806
6093,10800
5601,10800
5533,10806
5467,10826
5407,10859
5354,10902
5347,10910
2897,10910
2856,10905
2821,10890
2791,10867
2767,10836
2753,10801
2747,10760
2747,10741
2757,10753
2795,10784
2838,10807
2885,10821
2934,10826
3511,10825
3573,10763
3573,10310
3673,10310
3673,10763
3736,10825
4312,10826
4361,10821
4408,10807
4452,10784
4490,10753
4521,10715
4544,10671
4559,10624
4564,10575
4563,10441
5252,10441
5256,10490
5271,10537
5294,10580
5325,10618
5363,10650
5407,10673
5454,10687
5503,10692
5735,10691
5797,10628
5797,10210
5897,10210
5897,10628
5960,10691
6192,10692
6241,10687
6288,10673
6331,10650
6369,10618
6401,10580
6424,10537
6438,10490
6443,10441
6442,10273
6379,10210
5897,10210
5797,10210
5315,10210
5253,10273
5252,10441
4563,10441
4562,10373
4500,10310
3673,10310
3573,10310
3565,10310
3565,10210
3573,10210
3573,9758
3673,9758
3673,10210
4500,10210
4562,10148
4564,9945
4559,9896
4554,9880
5252,9880
5253,10048
5315,10110
5797,10110
5797,9692
5897,9692
5897,10110
6379,10110
6442,10048
6443,9880
6438,9831
6424,9783
6401,9740
6369,9702
6331,9671
6288,9648
6241,9633
6192,9628
5960,9630
5897,9692
5797,9692
5735,9630
5503,9628
5454,9633
5407,9648
5363,9671
5325,9702
5294,9740
5271,9783
5256,9831
5252,9880
4554,9880
4544,9849
4521,9806
4490,9768
4452,9736
4408,9713
4361,9699
4312,9694
3736,9695
3673,9758
3573,9758
3511,9695
2934,9694
2885,9699
2838,9713
2795,9736
2757,9768
2747,9779
2747,9760
2753,9719
2767,9684
2791,9653
2821,9630
2856,9616
2897,9610
5500,9610
5507,9610
5558,9603
5571,9600
5618,9580
5629,9573
5670,9542
5679,9533
5711,9492
5717,9481
5737,9433
5740,9421
5743,9398
5753,9401
5802,9406
5970,9405
6033,9342
6033,8860
6133,8860
6133,9342
6195,9405
6363,9406
6412,9401
6460,9387
6503,9363
6541,9332
6572,9294
6596,9251
6610,9204
6615,9155
6613,8923
6551,8860
6133,8860
6033,8860
6025,8860
6025,8760
6033,8760
6033,8278
6133,8278
6133,8760
6551,8760
6613,8698
6615,8466
6610,8417
6596,8370
6572,8326
6541,8288
6503,8257
6460,8234
6412,8219
6363,8214
6195,8216
6133,8278
6033,8278
5970,8216
5802,8214
5753,8219
5747,8221
5747,8045
5890,8044
5953,7981
5953,7450
6053,7450
6053,7981
6115,8044
6298,8045
6347,8040
6394,8026
6438,8003
6476,7972
6507,7934
6530,7890
6545,7843
6549,7794
6548,7513
6486,7450
6053,7450
5953,7450
5945,7450
5945,7350
5953,7350
5953,7342
6053,7342
6053,7350
6486,7350
6548,7288
6549,7010
6637,7010
6637,10910
Z" /> 
<path style="fill:#000000; fill-opacity:1.0; 
stroke:#000000; stroke-width:100; stroke-opacity:1; 
stroke-linecap:round; stroke-linejoin:round;fill-rule:evenodd;"
d="M 6637,13447
6630,13526
6611,13589
6580,13648
6538,13699
6487,13741
6429,13773
6365,13792
6288,13800
4547,13800
4547,13502
4985,13501
5047,13438
5047,12710
5147,12710
5147,13438
5210,13501
5688,13502
5737,13497
5784,13483
5827,13460
5865,13428
5897,13390
5920,13347
5934,13300
5939,13251
5938,12773
5875,12710
5147,12710
5047,12710
5039,12710
5039,12610
5047,12610
5047,11882
5147,11882
5147,12610
5875,12610
5938,12548
5939,12070
5934,12021
5920,11973
5897,11930
5865,11892
5827,11861
5784,11838
5765,11832
5797,11799
5797,11381
5897,11381
5897,11799
5960,11862
6192,11863
6241,11858
6288,11844
6331,11821
6369,11790
6401,11751
6424,11708
6438,11661
6443,11612
6442,11444
6379,11381
5897,11381
5797,11381
5315,11381
5253,11444
5252,11612
5256,11661
5271,11708
5294,11751
5325,11790
5361,11819
5210,11820
5147,11882
5047,11882
4985,11820
4547,11819
4547,11460
4553,11419
4567,11384
4591,11353
4621,11330
4656,11316
4697,11310
6637,11310
6637,13447
Z" /> 
<path style="fill:#000000; fill-opacity:1.0; 
stroke:#000000; stroke-width:100; stroke-opacity:1; 
stroke-linecap:round; stroke-linejoin:round;fill-rule:evenodd;"
d="M 6363,428
6426,447
6485,478
6536,520
6578,571
6610,629
6629,692
6637,770
6637,6710
5694,6710
5688,6711
5637,6717
5624,6721
5577,6740
5565,6747
5525,6778
5515,6787
5515,6788
5489,6774
5442,6760
5393,6755
5210,6757
5147,6819
5147,7350
5155,7350
5155,7450
5147,7450
5147,7458
5047,7458
5047,7450
5039,7450
5039,7350
5047,7350
5047,6819
4985,6757
4802,6755
4753,6760
4706,6774
4662,6798
4645,6812
4627,6798
4583,6774
4536,6760
4487,6755
3897,6755
3848,6760
3800,6774
3757,6798
3742,6810
2697,6810
2656,6805
2621,6790
2591,6767
2567,6736
2553,6701
2547,6660
2547,6599
2575,6633
2613,6664
2657,6687
2704,6701
2753,6706
2985,6705
3047,6643
3047,6225
3147,6225
3147,6643
3210,6705
3442,6706
3491,6701
3538,6687
3581,6664
3619,6633
3651,6595
3674,6551
3688,6504
3693,6455
3692,6287
3629,6225
3147,6225
3047,6225
3039,6225
3039,6125
3047,6125
3047,6117
3147,6117
3147,6125
3629,6125
3692,6062
3693,5894
3688,5845
3674,5798
3651,5754
3619,5716
3581,5685
3538,5662
3491,5648
3442,5643
3210,5644
3147,5706
3147,5644
3129,5644
3138,5614
3145,5546
3145,5314
4098,5314
4103,5363
4117,5410
4140,5453
4172,5491
4210,5523
4253,5546
4300,5560
4349,5565
4985,5564
5047,5501
5047,4970
5147,4970
5147,5501
5210,5564
5845,5565
5894,5560
5942,5546
5985,5523
6023,5491
6054,5453
6077,5410
6092,5363
6097,5314
6095,5032
6033,4970
5147,4970
5047,4970
4162,4970
4099,5032
4098,5314
3145,5314
3145,5053
3138,4985
3118,4920
3086,4859
3042,4806
2989,4763
2929,4730
2863,4711
2795,4704
2547,4704
2547,4526
4098,4526
4099,4807
4162,4870
5047,4870
5047,4339
5147,4339
5147,4870
6033,4870
6095,4807
6097,4526
6092,4477
6077,4430
6054,4387
6023,4349
5985,4317
5942,4294
5894,4280
5845,4275
5210,4276
5147,4339
5047,4339
4985,4276
4349,4275
4300,4280
4253,4294
4210,4317
4172,4349
4140,4387
4117,4430
4103,4477
4098,4526
2547,4526
2547,4108
2562,4103
2622,4071
2675,4027
2686,4014
4006,2694
4068,2700
4126,2700
4213,2692
4324,2658
4427,2603
4517,2529
4590,2440
4597,2426
4604,2440
4678,2529
4768,2603
4870,2658
4982,2692
5068,2700
5126,2700
5213,2692
5324,2658
5427,2603
5517,2529
5590,2440
5645,2337
5679,2226
5690,2110
5679,1994
5645,1883
5590,1781
5517,1691
5513,1688
5533,1682
5577,1659
5615,1628
5646,1590
5669,1546
5684,1499
5689,1450
5689,770
5684,721
5669,674
5646,631
5615,592
5577,561
5533,538
5486,524
5437,519
4757,519
4708,524
4661,538
4618,561
4580,592
4548,631
4525,674
4518,699
4495,674
4402,605
4298,555
4239,537
4147,585
4147,1060
4155,1060
4155,1160
4147,1160
4147,1168
4047,1168
4047,1160
3147,1160
3147,1168
3047,1168
3047,1160
2147,1160
2147,1168
2047,1168
2047,1160
2039,1160
2039,1060
2047,1060
2047,585
2147,585
2147,1060
3047,1060
3047,585
3147,585
3147,1060
4047,1060
4047,585
3956,537
3897,555
3792,605
3700,674
3622,760
3597,802
3572,760
3495,674
3402,605
3298,555
3239,537
3147,585
3047,585
2956,537
2897,555
2792,605
2700,674
2622,760
2597,802
2572,760
2495,674
2402,605
2298,555
2239,537
2147,585
2047,585
1956,537
1897,555
1792,605
1700,674
1622,760
1563,860
1542,920
1542,910
1479,910
1542,848
1543,680
1538,631
1524,583
1501,540
1469,502
1431,471
1388,448
1341,433
1292,428
1060,430
997,492
997,910
1005,910
1005,1010
997,1010
997,1018
897,1018
897,1010
889,1010
889,910
897,910
897,492
835,430
825,430
829,428
907,420
6285,420
6363,428
Z" /> 
<path style="fill:#000000; fill-opacity:1.0; 
stroke:#000000; stroke-width:100; stroke-opacity:1; 
stroke-linecap:round; stroke-linejoin:round;fill-rule:evenodd;"
d="M 997,2081
1005,2081
1005,2181
997,2181
997,2599
1060,2662
1292,2663
1341,2658
1388,2644
1431,2621
1469,2590
1501,2551
1524,2508
1538,2461
1543,2412
1542,2313
1550,2337
1604,2440
1678,2529
1768,2603
1870,2658
1982,2692
2068,2700
2126,2700
2213,2692
2324,2658
2427,2603
2517,2529
2590,2440
2597,2426
2604,2440
2678,2529
2768,2603
2870,2658
2982,2692
3019,2695
2469,3246
2461,3246
2523,3183
2525,2988
2520,2939
2505,2892
2482,2849
2451,2811
2413,2780
2369,2756
2322,2742
2273,2737
2258,2738
2195,2801
2195,3246
2203,3246
2203,3346
2195,3346
2195,3353
2151,3353
2151,2988
2146,2939
2131,2892
2108,2849
2095,2833
2095,2801
2033,2738
2017,2737
1968,2742
1958,2745
1948,2742
1899,2737
1643,2737
1594,2742
1584,2745
1574,2742
1525,2737
1510,2738
1447,2801
1447,2833
1435,2849
1411,2892
1397,2939
1392,2988
1392,3353
1347,3353
1347,3346
1082,3346
1019,3408
1018,3603
1023,3652
1037,3699
1061,3742
1092,3780
1130,3812
1159,3827
1130,3843
1092,3874
1061,3912
1037,3955
1023,4002
1018,4051
1018,4666
1023,4715
1031,4741
1022,4746
983,4777
952,4815
929,4859
915,4906
910,4955
911,5187
974,5250
1392,5250
1392,5242
1492,5242
1492,5250
1500,5250
1500,5350
1492,5350
1492,5357
1392,5357
1392,5350
974,5350
911,5412
910,5644
915,5693
929,5740
952,5784
983,5822
1022,5853
1033,5859
1023,5892
1018,5941
1018,6555
1023,6604
1037,6652
1052,6680
1054,6697
1074,6762
1103,6817
1092,6827
1061,6865
1037,6908
1023,6955
1018,7004
1018,7618
1023,7667
1037,7715
1049,7736
1049,7737
1012,7767
969,7820
937,7880
917,7946
910,8014
910,8506
917,8574
937,8640
969,8700
1012,8753
1065,8797
1126,8829
1191,8849
1260,8856
1624,8856
1692,8849
1758,8829
1818,8797
1871,8753
1914,8700
1947,8640
1967,8574
1973,8506
1973,8113
2081,8221
2081,8506
2088,8574
2108,8640
2140,8700
2184,8753
2237,8797
2297,8829
2363,8849
2431,8856
2795,8856
2863,8849
2929,8829
2989,8797
3042,8753
3086,8700
3118,8640
3138,8574
3145,8506
3145,8466
4380,8466
4381,8698
4444,8760
4862,8760
4862,8278
4962,8278
4962,8760
5380,8760
5442,8698
5443,8466
5439,8417
5424,8370
5401,8326
5370,8288
5332,8257
5288,8234
5241,8219
5192,8214
5024,8216
4962,8278
4862,8278
4799,8216
4631,8214
4582,8219
4535,8234
4492,8257
4454,8288
4422,8326
4399,8370
4385,8417
4380,8466
3145,8466
3145,8014
3138,7946
3118,7880
3116,7876
3147,7876
3147,7814
3210,7876
3442,7877
3491,7873
3538,7858
3581,7835
3619,7804
3645,7772
3645,7794
3650,7843
3664,7890
3688,7934
3719,7972
3757,8003
3800,8026
3848,8040
3897,8045
4079,8044
4142,7981
4142,7450
3709,7450
3692,7467
3692,7458
3629,7396
3147,7396
3147,7404
3047,7404
3047,7396
3039,7396
3039,7296
3047,7296
3047,7288
3147,7288
3147,7296
3629,7296
3647,7279
3647,7288
3709,7350
4142,7350
4142,7342
4242,7342
4242,7350
4250,7350
4250,7450
4242,7450
4242,7981
4304,8044
4463,8045
4478,8081
4484,8092
4515,8133
4525,8142
4565,8173
4577,8180
4624,8200
4637,8203
4688,8210
4694,8210
5297,8210
5338,8216
5374,8230
5404,8253
5427,8284
5442,8319
5447,8360
5447,9160
5442,9201
5432,9224
5439,9204
5443,9155
5442,8923
5380,8860
4962,8860
4962,8868
4862,8868
4862,8860
4444,8860
4381,8923
4380,9155
4385,9204
4399,9251
4422,9294
4435,9310
2594,9310
2588,9311
2537,9317
2524,9321
2477,9340
2465,9347
2425,9378
2415,9387
2384,9428
2378,9439
2358,9487
2354,9500
2348,9550
2347,9557
2347,9754
2326,9736
2282,9713
2235,9699
2186,9694
1610,9695
1547,9758
1547,10210
1555,10210
1555,10310
1547,10310
1547,10763
1610,10825
2186,10826
2235,10821
2282,10807
2326,10784
2347,10766
2347,11063
2348,11070
2354,11121
2358,11133
2378,11181
2384,11192
2415,11233
2425,11242
2465,11273
2477,11280
2524,11300
2537,11303
2588,11310
2594,11310
3997,11310
4038,11316
4074,11330
4104,11353
4127,11384
4142,11419
4147,11460
4147,12021
4133,12007
3995,11915
3842,11852
3680,11820
3515,11820
3352,11852
3199,11915
3062,12007
2944,12124
2852,12262
2847,12276
2809,12205
2685,12144
2168,12660
2685,13177
2809,13115
2846,13042
2852,13058
2944,13196
3062,13313
3199,13405
3352,13468
3515,13501
3680,13501
3842,13468
3995,13405
4133,13313
4147,13299
4147,13800
910,13800
832,13793
768,13773
710,13742
659,13701
616,13650
585,13591
565,13528
557,13451
557,13247
1581,13247
1642,13372
1790,13447
1949,13492
2114,13505
2279,13485
2436,13434
2552,13372
2614,13247
2097,12731
1581,13247
557,13247
557,12677
1253,12677
1272,12841
1324,12999
1386,13115
1510,13177
2027,12660
1510,12144
1386,12205
1311,12353
1266,12512
1253,12677
557,12677
557,12073
1581,12073
2097,12589
2614,12073
2552,11949
2405,11874
2246,11829
2080,11816
1916,11835
1759,11886
1642,11949
1581,12073
557,12073
557,10575
562,10624
576,10671
599,10715
631,10753
669,10784
712,10807
759,10821
808,10826
1385,10825
1447,10763
1447,10310
621,10310
558,10373
557,10570
557,9950
558,10148
621,10210
1447,10210
1447,9758
1385,9695
808,9694
759,9699
712,9713
669,9736
631,9768
599,9806
576,9849
562,9896
557,9945
557,2988
1018,2988
1019,3183
1082,3246
1347,3246
1347,2801
1285,2738
1269,2737
1220,2742
1173,2756
1130,2780
1092,2811
1061,2849
1037,2892
1023,2939
1018,2988
557,2988
557,2659
603,2663
835,2662
897,2599
897,2181
889,2181
889,2081
897,2081
897,2074
997,2074
997,2081
Z" /> 
</g>
</g>
<g style="fill:#FFFFFF; fill-opacity:1.0; 
stroke:#FFFFFF; stroke-width:100; stroke-opacity:1; 
stroke-linecap:round; stroke-linejoin:round;">
</g>
<g style="fill:#FFFFFF; fill-opacity:1.0; 
stroke:#FFFFFF; stroke-width:0; stroke-opacity:1; 
stroke-linecap:round; stroke-linejoin:round;">
<circle cx="1697.83" cy="4260.63" r="78.7402" /> 
</g>
<g style="fill:#FFFFFF; fill-opacity:1.0; 
stroke:#FFFFFF; stroke-width:39.3701; stroke-opacity:1; 
stroke-linecap:round; stroke-linejoin:round;">
</g>
<g style="fill:#FFFFFF; fill-opacity:1.0; 
stroke:#FFFFFF; stroke-width:0; stroke-opacity:1; 
stroke-linecap:round; stroke-linejoin:round;">
<circle cx="2097.83" cy="2110.63" r="200" /> 
</g>
<g style="fill:#FFFFFF; fill-opacity:1.0; 
stroke:#FFFFFF; stroke-width:39.3701; stroke-opacity:1; 
stroke-linecap:round; stroke-linejoin:round;">
</g>
<g style="fill:#FFFFFF; fill-opacity:1.0; 
stroke:#FFFFFF; stroke-width:0; stroke-opacity:1; 
stroke-linecap:round; stroke-linejoin:round;">
<circle cx="2097.83" cy="1110.63" r="200" /> 
</g>
<g style="fill:#FFFFFF; fill-opacity:1.0; 
stroke:#FFFFFF; stroke-width:39.3701; stroke-opacity:1; 
stroke-linecap:round; stroke-linejoin:round;">
</g>
<g style="fill:#FFFFFF; fill-opacity:1.0; 
stroke:#FFFFFF; stroke-width:0; stroke-opacity:1; 
stroke-linecap:round; stroke-linejoin:round;">
<circle cx="3097.83" cy="2110.63" r="200" /> 
</g>
<g style="fill:#FFFFFF; fill-opacity:1.0; 
stroke:#FFFFFF; stroke-width:39.3701; stroke-opacity:1; 
stroke-linecap:round; stroke-linejoin:round;">
</g>
<g style="fill:#FFFFFF; fill-opacity:1.0; 
stroke:#FFFFFF; stroke-width:0; stroke-opacity:1; 
stroke-linecap:round; stroke-linejoin:round;">
<circle cx="3097.83" cy="1110.63" r="200" /> 
</g>
<g style="fill:#FFFFFF; fill-opacity:1.0; 
stroke:#FFFFFF; stroke-width:39.3701; stroke-opacity:1; 
stroke-linecap:round; stroke-linejoin:round;">
</g>
<g style="fill:#FFFFFF; fill-opacity:1.0; 
stroke:#FFFFFF; stroke-width:0; stroke-opacity:1; 
stroke-linecap:round; stroke-linejoin:round;">
<circle cx="4097.83" cy="2110.63" r="200" /> 
</g>
<g style="fill:#FFFFFF; fill-opacity:1.0; 
stroke:#FFFFFF; stroke-width:39.3701; stroke-opacity:1; 
stroke-linecap:round; stroke-linejoin:round;">
</g>
<g style="fill:#FFFFFF; fill-opacity:1.0; 
stroke:#FFFFFF; stroke-width:0; stroke-opacity:1; 
stroke-linecap:round; stroke-linejoin:round;">
<circle cx="4097.83" cy="1110.63" r="200" /> 
</g>
<g style="fill:#FFFFFF; fill-opacity:1.0; 
stroke:#FFFFFF; stroke-width:39.3701; stroke-opacity:1; 
stroke-linecap:round; stroke-linejoin:round;">
</g>
<g style="fill:#FFFFFF; fill-opacity:1.0; 
stroke:#FFFFFF; stroke-width:0; stroke-opacity:1; 
stroke-linecap:round; stroke-linejoin:round;">
<circle cx="5097.83" cy="2110.63" r="200" /> 
</g>
<g style="fill:#FFFFFF; fill-opacity:1.0; 
stroke:#FFFFFF; stroke-width:39.3701; stroke-opacity:1; 
stroke-linecap:round; stroke-linejoin:round;">
</g>
<g style="fill:#FFFFFF; fill-opacity:1.0; 
stroke:#FFFFFF; stroke-width:0; stroke-opacity:1; 
stroke-linecap:round; stroke-linejoin:round;">
<circle cx="5097.83" cy="1110.63" r="200" /> 
</g>
<g style="fill:#FFFFFF; fill-opacity:1.0; 
stroke:#FFFFFF; stroke-width:39.3701; stroke-opacity:1; 
stroke-linecap:round; stroke-linejoin:round;">
</g>
<g style="fill:#FFFFFF; fill-opacity:1.0; 
stroke:#FFFFFF; stroke-width:0; stroke-opacity:1; 
stroke-linecap:round; stroke-linejoin:round;">
<circle cx="2097.83" cy="12660.6" r="236" /> 
</g>
<g style="fill:#FFFFFF; fill-opacity:1.0; 
stroke:#FFFFFF; stroke-width:39.3701; stroke-opacity:1; 
stroke-linecap:round; stroke-linejoin:round;">
</g>
<g style="fill:#FFFFFF; fill-opacity:1.0; 
stroke:#FFFFFF; stroke-width:0; stroke-opacity:1; 
stroke-linecap:round; stroke-linejoin:round;">
<circle cx="3597.83" cy="12660.6" r="236" /> 
</g>
<g style="fill:#FFFFFF; fill-opacity:1.0; 
stroke:#FFFFFF; stroke-width:39.3701; stroke-opacity:1; 
stroke-linecap:round; stroke-linejoin:round;">
</g>
<g style="fill:#FFFFFF; fill-opacity:1.0; 
stroke:#FFFFFF; stroke-width:0; stroke-opacity:1; 
stroke-linecap:round; stroke-linejoin:round;">
<circle cx="5097.83" cy="12660.6" r="236" /> 
</g>
<g style="fill:#FFFFFF; fill-opacity:1.0; 
stroke:#FFFFFF; stroke-width:39.3701; stroke-opacity:1; 
stroke-linecap:round; stroke-linejoin:round;">
</g>
<g style="fill:#000000; fill-opacity:1.0; 
stroke:#000000; stroke-width:39.3701; stroke-opacity:1; 
stroke-linecap:round; stroke-linejoin:round;">
</g>
<g style="fill:#000000; fill-opacity:0.0; 
stroke:#000000; stroke-width:19.685; stroke-opacity:1; 
stroke-linecap:round; stroke-linejoin:round;">
<path d="M6897.83 760.63 A600 600 0.0 0 0 6297.83 160.63 " />
<path d="M897.835 160.63 A600 600 0.0 0 0 297.835 760.63 " />
<path d="M297.835 13460.6 A600 600 0.0 0 0 897.835 14060.6 " />
<path d="M6297.83 14060.6 A600 600 0.0 0 0 6897.83 13460.6 " />
<path d="M6897 760
L6897 13460
" />
<path d="M297 13460
L297 760
" />
<path d="M6297 160
L897 160
" />
<path d="M897 14060
L6297 14060
" />
<g >
</g>
<g >
</g>
<g >
</g>
<g >
</g>
<g >
</g>
<g >
</g>
<g >
</g>
<g >
</g>
<g >
</g>
<g >
</g>
<g >
</g>
<g >
</g>
<g >
</g>
</g> 
</svg>
