<?xml version="1.0" standalone="no"?>
 <!DOCTYPE svg PUBLIC "-//W3C//DTD SVG 1.1//EN" 
 "http://www.w3.org/Graphics/SVG/1.1/DTD/svg11.dtd"> 
<svg xmlns="http://www.w3.org/2000/svg" version="1.1" 
    width="1.83388cm" height="4.33832cm" viewBox="0 0 7220 17080 ">
<title>SVG Picture created as pixel-stick-F_Cu.svg date 2019/12/07 15:42:51 </title>
  <desc>Picture generated by PCBNEW </desc>
<g style="fill:#000000; fill-opacity:1;stroke:#000000; stroke-opacity:1;
stroke-linecap:round; stroke-linejoin:round; "
 transform="translate(0 0) scale(1 1)">
</g>
<g style="fill:#000000; fill-opacity:0.0; 
stroke:#000000; stroke-width:-0.000393701; stroke-opacity:1; 
stroke-linecap:round; stroke-linejoin:round;">
<g >
</g>
<g style="fill:#000000; fill-opacity:0.0; 
stroke:#000000; stroke-width:0; stroke-opacity:1; 
stroke-linecap:round; stroke-linejoin:round;">
</g>
<g style="fill:#000000; fill-opacity:1.0; 
stroke:#000000; stroke-width:0; stroke-opacity:1; 
stroke-linecap:round; stroke-linejoin:round;">
<path style="fill:#000000; fill-opacity:1.0; 
stroke:#000000; stroke-width:0; stroke-opacity:1; 
stroke-linecap:round; stroke-linejoin:round;fill-rule:evenodd;"
d="M 1643,8258
1899,8258
1899,8873
1643,8873
1643,8258
Z" /> 
<path style="fill:#000000; fill-opacity:1.0; 
stroke:#000000; stroke-width:0; stroke-opacity:1; 
stroke-linecap:round; stroke-linejoin:round;fill-rule:evenodd;"
d="M 2017,8258
2273,8258
2273,8873
2017,8873
2017,8258
Z" /> 
<path style="fill:#000000; fill-opacity:1.0; 
stroke:#000000; stroke-width:0; stroke-opacity:1; 
stroke-linecap:round; stroke-linejoin:round;fill-rule:evenodd;"
d="M 1269,8258
1525,8258
1525,8873
1269,8873
1269,8258
Z" /> 
<path style="fill:#000000; fill-opacity:1.0; 
stroke:#000000; stroke-width:0; stroke-opacity:1; 
stroke-linecap:round; stroke-linejoin:round;fill-rule:evenodd;"
d="M 1269,7195
1525,7195
1525,7810
1269,7810
1269,7195
Z" /> 
<path style="fill:#000000; fill-opacity:1.0; 
stroke:#000000; stroke-width:0; stroke-opacity:1; 
stroke-linecap:round; stroke-linejoin:round;fill-rule:evenodd;"
d="M 1643,7195
1899,7195
1899,7810
1643,7810
1643,7195
Z" /> 
<path style="fill:#000000; fill-opacity:1.0; 
stroke:#000000; stroke-width:0; stroke-opacity:1; 
stroke-linecap:round; stroke-linejoin:round;fill-rule:evenodd;"
d="M 2017,7195
2273,7195
2273,7810
2017,7810
2017,7195
Z" /> 
</g>
<g >
<path style="fill:#000000; fill-opacity:1.0; 
stroke:#000000; stroke-width:0; stroke-opacity:1; 
stroke-linecap:round; stroke-linejoin:round;fill-rule:evenodd;"
d="M 2017,5306
2273,5306
2273,5920
2017,5920
2017,5306
Z" /> 
<path style="fill:#000000; fill-opacity:1.0; 
stroke:#000000; stroke-width:0; stroke-opacity:1; 
stroke-linecap:round; stroke-linejoin:round;fill-rule:evenodd;"
d="M 1269,5306
1525,5306
1525,5920
1269,5920
1269,5306
Z" /> 
<path style="fill:#000000; fill-opacity:1.0; 
stroke:#000000; stroke-width:0; stroke-opacity:1; 
stroke-linecap:round; stroke-linejoin:round;fill-rule:evenodd;"
d="M 1269,4243
1525,4243
1525,4857
1269,4857
1269,4243
Z" /> 
<path style="fill:#000000; fill-opacity:1.0; 
stroke:#000000; stroke-width:0; stroke-opacity:1; 
stroke-linecap:round; stroke-linejoin:round;fill-rule:evenodd;"
d="M 1643,4243
1899,4243
1899,4857
1643,4857
1643,4243
Z" /> 
<path style="fill:#000000; fill-opacity:1.0; 
stroke:#000000; stroke-width:0; stroke-opacity:1; 
stroke-linecap:round; stroke-linejoin:round;fill-rule:evenodd;"
d="M 2017,4243
2273,4243
2273,4857
2017,4857
2017,4243
Z" /> 
</g>
<g >
<path style="fill:#000000; fill-opacity:1.0; 
stroke:#000000; stroke-width:0; stroke-opacity:1; 
stroke-linecap:round; stroke-linejoin:round;fill-rule:evenodd;"
d="M 1203,3105
1213,3107
1222,3109
1231,3113
1240,3117
1248,3122
1256,3127
1263,3134
1269,3141
1275,3149
1280,3157
1284,3166
1288,3175
1290,3184
1291,3194
1292,3203
1292,3568
1291,3577
1290,3587
1288,3596
1284,3605
1280,3614
1275,3622
1269,3630
1263,3637
1256,3644
1248,3649
1240,3654
1231,3659
1222,3662
1213,3664
1203,3666
1193,3666
701,3666
692,3666
682,3664
673,3662
664,3659
655,3654
647,3649
639,3644
632,3637
625,3630
619,3622
614,3614
610,3605
607,3596
605,3587
603,3577
603,3568
603,3203
603,3194
605,3184
607,3175
610,3166
614,3157
619,3149
625,3141
632,3134
639,3127
647,3122
655,3117
664,3113
673,3109
682,3107
692,3105
701,3105
1193,3105
1203,3105
Z" /> 
<path style="fill:#000000; fill-opacity:1.0; 
stroke:#000000; stroke-width:0; stroke-opacity:1; 
stroke-linecap:round; stroke-linejoin:round;fill-rule:evenodd;"
d="M 1203,1934
1213,1936
1222,1938
1231,1941
1240,1945
1248,1950
1256,1956
1263,1963
1269,1970
1275,1977
1280,1986
1284,1995
1288,2004
1290,2013
1291,2023
1292,2032
1292,2396
1291,2406
1290,2416
1288,2425
1284,2434
1280,2443
1275,2451
1269,2459
1263,2466
1256,2472
1248,2478
1240,2483
1231,2487
1222,2491
1213,2493
1203,2494
1193,2495
701,2495
692,2494
682,2493
673,2491
664,2487
655,2483
647,2478
639,2472
632,2466
625,2459
619,2451
614,2443
610,2434
607,2425
605,2416
603,2406
603,2396
603,2032
603,2023
605,2013
607,2004
610,1995
614,1986
619,1977
625,1970
632,1963
639,1956
647,1950
655,1945
664,1941
673,1938
682,1936
692,1934
701,1934
1193,1934
1203,1934
Z" /> 
</g>
<g >
<path style="fill:#000000; fill-opacity:1.0; 
stroke:#000000; stroke-width:0; stroke-opacity:1; 
stroke-linecap:round; stroke-linejoin:round;fill-rule:evenodd;"
d="M 5103,9720
5113,9722
5122,9724
5131,9727
5140,9731
5148,9736
5156,9742
5163,9749
5170,9756
5176,9764
5181,9772
5185,9781
5188,9790
5190,9799
5192,9809
5192,9818
5192,10310
5192,10320
5190,10330
5188,10339
5185,10348
5181,10357
5176,10365
5170,10373
5163,10380
5156,10386
5148,10392
5140,10397
5131,10401
5122,10405
5113,10407
5103,10408
5094,10409
4730,10409
4720,10408
4710,10407
4701,10405
4692,10401
4683,10397
4675,10392
4667,10386
4660,10380
4654,10373
4648,10365
4643,10357
4639,10348
4635,10339
4633,10330
4632,10320
4631,10310
4631,9818
4632,9809
4633,9799
4635,9790
4639,9781
4643,9772
4648,9764
4654,9756
4660,9749
4667,9742
4675,9736
4683,9731
4692,9727
4701,9724
4710,9722
4720,9720
4730,9720
5094,9720
5103,9720
Z" /> 
<path style="fill:#000000; fill-opacity:1.0; 
stroke:#000000; stroke-width:0; stroke-opacity:1; 
stroke-linecap:round; stroke-linejoin:round;fill-rule:evenodd;"
d="M 6275,9720
6284,9722
6294,9724
6303,9727
6311,9731
6320,9736
6327,9742
6335,9749
6341,9756
6347,9764
6352,9772
6356,9781
6359,9790
6362,9799
6363,9809
6363,9818
6363,10310
6363,10320
6362,10330
6359,10339
6356,10348
6352,10357
6347,10365
6341,10373
6335,10380
6327,10386
6320,10392
6311,10397
6303,10401
6294,10405
6284,10407
6275,10408
6265,10409
5901,10409
5891,10408
5882,10407
5872,10405
5863,10401
5854,10397
5846,10392
5838,10386
5831,10380
5825,10373
5819,10365
5814,10357
5810,10348
5807,10339
5804,10330
5803,10320
5802,10310
5802,9818
5803,9809
5804,9799
5807,9790
5810,9781
5814,9772
5819,9764
5825,9756
5831,9749
5838,9742
5846,9736
5854,9731
5863,9727
5872,9724
5882,9722
5891,9720
5901,9720
6265,9720
6275,9720
Z" /> 
</g>
<g >
<path style="fill:#000000; fill-opacity:1.0; 
stroke:#000000; stroke-width:0; stroke-opacity:1; 
stroke-linecap:round; stroke-linejoin:round;fill-rule:evenodd;"
d="M 3353,8320
3363,8321
3372,8324
3381,8327
3390,8331
3398,8336
3406,8342
3413,8348
3419,8355
3425,8363
3430,8371
3434,8380
3438,8389
3440,8399
3441,8408
3442,8418
3442,8782
3441,8792
3440,8801
3438,8811
3434,8820
3430,8828
3425,8837
3419,8844
3413,8852
3406,8858
3398,8864
3390,8869
3381,8873
3372,8876
3363,8879
3353,8880
3343,8880
2851,8880
2842,8880
2832,8879
2823,8876
2814,8873
2805,8869
2797,8864
2789,8858
2782,8852
2775,8844
2769,8837
2764,8828
2760,8820
2757,8811
2755,8801
2753,8792
2753,8782
2753,8418
2753,8408
2755,8399
2757,8389
2760,8380
2764,8371
2769,8363
2775,8355
2782,8348
2789,8342
2797,8336
2805,8331
2814,8327
2823,8324
2832,8321
2842,8320
2851,8319
3343,8319
3353,8320
Z" /> 
<path style="fill:#000000; fill-opacity:1.0; 
stroke:#000000; stroke-width:0; stroke-opacity:1; 
stroke-linecap:round; stroke-linejoin:round;fill-rule:evenodd;"
d="M 3353,7149
3363,7150
3372,7152
3381,7156
3390,7160
3398,7165
3406,7170
3413,7177
3419,7184
3425,7192
3430,7200
3434,7209
3438,7218
3440,7227
3441,7237
3442,7247
3442,7611
3441,7620
3440,7630
3438,7639
3434,7648
3430,7657
3425,7665
3419,7673
3413,7680
3406,7687
3398,7693
3390,7698
3381,7702
3372,7705
3363,7707
3353,7709
3343,7709
2851,7709
2842,7709
2832,7707
2823,7705
2814,7702
2805,7698
2797,7693
2789,7687
2782,7680
2775,7673
2769,7665
2764,7657
2760,7648
2757,7639
2755,7630
2753,7620
2753,7611
2753,7247
2753,7237
2755,7227
2757,7218
2760,7209
2764,7200
2769,7192
2775,7184
2782,7177
2789,7170
2797,7165
2805,7160
2814,7156
2823,7152
2832,7150
2842,7149
2851,7148
3343,7148
3353,7149
Z" /> 
</g>
<g >
<path style="fill:#000000; fill-opacity:1.0; 
stroke:#000000; stroke-width:0; stroke-opacity:1; 
stroke-linecap:round; stroke-linejoin:round;fill-rule:evenodd;"
d="M 1633,9170
1643,9172
1652,9174
1661,9177
1670,9181
1678,9186
1686,9192
1693,9199
1700,9206
1706,9214
1711,9222
1715,9231
1718,9240
1720,9249
1722,9259
1722,9268
1722,9760
1722,9770
1720,9780
1718,9789
1715,9798
1711,9807
1706,9815
1700,9823
1693,9830
1686,9836
1678,9842
1670,9847
1661,9851
1652,9855
1643,9857
1633,9858
1624,9859
1260,9859
1250,9858
1240,9857
1231,9855
1222,9851
1213,9847
1205,9842
1197,9836
1190,9830
1183,9823
1178,9815
1173,9807
1169,9798
1165,9789
1163,9780
1162,9770
1161,9760
1161,9268
1162,9259
1163,9249
1165,9240
1169,9231
1173,9222
1178,9214
1183,9206
1190,9199
1197,9192
1205,9186
1213,9181
1222,9177
1231,9174
1240,9172
1250,9170
1260,9170
1624,9170
1633,9170
Z" /> 
<path style="fill:#000000; fill-opacity:1.0; 
stroke:#000000; stroke-width:0; stroke-opacity:1; 
stroke-linecap:round; stroke-linejoin:round;fill-rule:evenodd;"
d="M 2805,9170
2814,9172
2824,9174
2833,9177
2841,9181
2850,9186
2857,9192
2865,9199
2871,9206
2877,9214
2882,9222
2886,9231
2889,9240
2892,9249
2893,9259
2893,9268
2893,9760
2893,9770
2892,9780
2889,9789
2886,9798
2882,9807
2877,9815
2871,9823
2865,9830
2857,9836
2850,9842
2841,9847
2833,9851
2824,9855
2814,9857
2805,9858
2795,9859
2431,9859
2421,9858
2412,9857
2402,9855
2393,9851
2384,9847
2376,9842
2368,9836
2361,9830
2355,9823
2349,9815
2344,9807
2340,9798
2337,9789
2334,9780
2333,9770
2332,9760
2332,9268
2333,9259
2334,9249
2337,9240
2340,9231
2344,9222
2349,9214
2355,9206
2361,9199
2368,9192
2376,9186
2384,9181
2393,9177
2402,9174
2412,9172
2421,9170
2431,9170
2795,9170
2805,9170
Z" /> 
</g>
<g >
<path style="fill:#000000; fill-opacity:1.0; 
stroke:#000000; stroke-width:0; stroke-opacity:1; 
stroke-linecap:round; stroke-linejoin:round;fill-rule:evenodd;"
d="M 1633,6210
1643,6211
1652,6213
1661,6217
1670,6221
1678,6226
1686,6231
1693,6238
1700,6245
1706,6253
1711,6261
1715,6270
1718,6279
1720,6288
1722,6298
1722,6308
1722,6800
1722,6809
1720,6819
1718,6828
1715,6837
1711,6846
1706,6854
1700,6862
1693,6869
1686,6876
1678,6882
1670,6887
1661,6891
1652,6894
1643,6896
1633,6898
1624,6898
1260,6898
1250,6898
1240,6896
1231,6894
1222,6891
1213,6887
1205,6882
1197,6876
1190,6869
1183,6862
1178,6854
1173,6846
1169,6837
1165,6828
1163,6819
1162,6809
1161,6800
1161,6308
1162,6298
1163,6288
1165,6279
1169,6270
1173,6261
1178,6253
1183,6245
1190,6238
1197,6231
1205,6226
1213,6221
1222,6217
1231,6213
1240,6211
1250,6210
1260,6209
1624,6209
1633,6210
Z" /> 
<path style="fill:#000000; fill-opacity:1.0; 
stroke:#000000; stroke-width:0; stroke-opacity:1; 
stroke-linecap:round; stroke-linejoin:round;fill-rule:evenodd;"
d="M 2805,6210
2814,6211
2824,6213
2833,6217
2841,6221
2850,6226
2857,6231
2865,6238
2871,6245
2877,6253
2882,6261
2886,6270
2889,6279
2892,6288
2893,6298
2893,6308
2893,6800
2893,6809
2892,6819
2889,6828
2886,6837
2882,6846
2877,6854
2871,6862
2865,6869
2857,6876
2850,6882
2841,6887
2833,6891
2824,6894
2814,6896
2805,6898
2795,6898
2431,6898
2421,6898
2412,6896
2402,6894
2393,6891
2384,6887
2376,6882
2368,6876
2361,6869
2355,6862
2349,6854
2344,6846
2340,6837
2337,6828
2334,6819
2333,6809
2332,6800
2332,6308
2333,6298
2334,6288
2337,6279
2340,6270
2344,6261
2349,6253
2355,6245
2361,6238
2368,6231
2376,6226
2384,6221
2393,6217
2402,6213
2412,6211
2421,6210
2431,6209
2795,6209
2805,6210
Z" /> 
</g>
<g >
<path style="fill:#000000; fill-opacity:1.0; 
stroke:#000000; stroke-width:0; stroke-opacity:1; 
stroke-linecap:round; stroke-linejoin:round;fill-rule:evenodd;"
d="M 6103,11663
6113,11664
6122,11667
6131,11670
6140,11674
6148,11679
6156,11685
6163,11691
6169,11698
6175,11706
6180,11715
6184,11723
6188,11732
6190,11742
6191,11751
6192,11761
6192,12125
6191,12135
6190,12144
6188,12154
6184,12163
6180,12171
6175,12180
6169,12188
6163,12195
6156,12201
6148,12207
6140,12212
6131,12216
6122,12219
6113,12222
6103,12223
6093,12224
5601,12224
5592,12223
5582,12222
5573,12219
5564,12216
5555,12212
5547,12207
5539,12201
5532,12195
5525,12188
5519,12180
5514,12171
5510,12163
5507,12154
5505,12144
5503,12135
5503,12125
5503,11761
5503,11751
5505,11742
5507,11732
5510,11723
5514,11715
5519,11706
5525,11698
5532,11691
5539,11685
5547,11679
5555,11674
5564,11670
5573,11667
5582,11664
5592,11663
5601,11662
6093,11662
6103,11663
Z" /> 
<path style="fill:#000000; fill-opacity:1.0; 
stroke:#000000; stroke-width:0; stroke-opacity:1; 
stroke-linecap:round; stroke-linejoin:round;fill-rule:evenodd;"
d="M 6103,12834
6113,12836
6122,12838
6131,12841
6140,12845
6148,12850
6156,12856
6163,12863
6169,12870
6175,12877
6180,12886
6184,12895
6188,12904
6190,12913
6191,12923
6192,12932
6192,13296
6191,13306
6190,13316
6188,13325
6184,13334
6180,13343
6175,13351
6169,13359
6163,13366
6156,13372
6148,13378
6140,13383
6131,13387
6122,13391
6113,13393
6103,13394
6093,13395
5601,13395
5592,13394
5582,13393
5573,13391
5564,13387
5555,13383
5547,13378
5539,13372
5532,13366
5525,13359
5519,13351
5514,13343
5510,13334
5507,13325
5505,13316
5503,13306
5503,13296
5503,12932
5503,12923
5505,12913
5507,12904
5510,12895
5514,12886
5519,12877
5525,12870
5532,12863
5539,12856
5547,12850
5555,12845
5564,12841
5573,12838
5582,12836
5592,12834
5601,12834
6093,12834
6103,12834
Z" /> 
</g>
<g >
<path style="fill:#000000; fill-opacity:1.0; 
stroke:#000000; stroke-width:0; stroke-opacity:1; 
stroke-linecap:round; stroke-linejoin:round;fill-rule:evenodd;"
d="M 2118,670
2127,672
2137,674
2146,677
2155,681
2163,686
2171,692
2178,699
2184,706
2190,714
2195,722
2199,731
2202,740
2205,749
2206,759
2207,768
2207,1260
2206,1270
2205,1280
2202,1289
2199,1298
2195,1307
2190,1315
2184,1323
2178,1330
2171,1336
2163,1342
2155,1347
2146,1351
2137,1355
2127,1357
2118,1358
2108,1359
1744,1359
1734,1358
1725,1357
1715,1355
1706,1351
1698,1347
1689,1342
1682,1336
1674,1330
1668,1323
1662,1315
1657,1307
1653,1298
1650,1289
1647,1280
1646,1270
1646,1260
1646,768
1646,759
1647,749
1650,740
1653,731
1657,722
1662,714
1668,706
1674,699
1682,692
1689,686
1698,681
1706,677
1715,674
1725,672
1734,670
1744,670
2108,670
2118,670
Z" /> 
<path style="fill:#000000; fill-opacity:1.0; 
stroke:#000000; stroke-width:0; stroke-opacity:1; 
stroke-linecap:round; stroke-linejoin:round;fill-rule:evenodd;"
d="M 3289,670
3299,672
3308,674
3317,677
3326,681
3334,686
3342,692
3349,699
3356,706
3361,714
3366,722
3370,731
3374,740
3376,749
3377,759
3378,768
3378,1260
3377,1270
3376,1280
3374,1289
3370,1298
3366,1307
3361,1315
3356,1323
3349,1330
3342,1336
3334,1342
3326,1347
3317,1351
3308,1355
3299,1357
3289,1358
3279,1359
2915,1359
2906,1358
2896,1357
2887,1355
2878,1351
2869,1347
2861,1342
2853,1336
2846,1330
2839,1323
2833,1315
2828,1307
2824,1298
2821,1289
2819,1280
2817,1270
2817,1260
2817,768
2817,759
2819,749
2821,740
2824,731
2828,722
2833,714
2839,706
2846,699
2853,692
2861,686
2869,681
2878,677
2887,674
2896,672
2906,670
2915,670
3279,670
3289,670
Z" /> 
</g>
<g >
<path style="fill:#000000; fill-opacity:1.0; 
stroke:#000000; stroke-width:0; stroke-opacity:1; 
stroke-linecap:round; stroke-linejoin:round;fill-rule:evenodd;"
d="M 4289,670
4299,672
4308,674
4317,677
4326,681
4334,686
4342,692
4349,699
4356,706
4361,714
4366,722
4370,731
4374,740
4376,749
4377,759
4378,768
4378,1260
4377,1270
4376,1280
4374,1289
4370,1298
4366,1307
4361,1315
4356,1323
4349,1330
4342,1336
4334,1342
4326,1347
4317,1351
4308,1355
4299,1357
4289,1358
4279,1359
3915,1359
3906,1358
3896,1357
3887,1355
3878,1351
3869,1347
3861,1342
3853,1336
3846,1330
3839,1323
3833,1315
3828,1307
3824,1298
3821,1289
3819,1280
3817,1270
3817,1260
3817,768
3817,759
3819,749
3821,740
3824,731
3828,722
3833,714
3839,706
3846,699
3853,692
3861,686
3869,681
3878,677
3887,674
3896,672
3906,670
3915,670
4279,670
4289,670
Z" /> 
<path style="fill:#000000; fill-opacity:1.0; 
stroke:#000000; stroke-width:0; stroke-opacity:1; 
stroke-linecap:round; stroke-linejoin:round;fill-rule:evenodd;"
d="M 5460,670
5470,672
5479,674
5488,677
5497,681
5505,686
5513,692
5520,699
5527,706
5533,714
5537,722
5542,731
5545,740
5547,749
5549,759
5549,768
5549,1260
5549,1270
5547,1280
5545,1289
5542,1298
5537,1307
5533,1315
5527,1323
5520,1330
5513,1336
5505,1342
5497,1347
5488,1351
5479,1355
5470,1357
5460,1358
5451,1359
5087,1359
5077,1358
5067,1357
5058,1355
5049,1351
5040,1347
5032,1342
5024,1336
5017,1330
5010,1323
5005,1315
5000,1307
4996,1298
4992,1289
4990,1280
4989,1270
4988,1260
4988,768
4989,759
4990,749
4992,740
4996,731
5000,722
5005,714
5010,706
5017,699
5024,692
5032,686
5040,681
5049,677
5058,674
5067,672
5077,670
5087,670
5451,670
5460,670
Z" /> 
</g>
<g >
<circle cx="1297.83" cy="14464.8" r="492" /> 
</g>
<g style="fill:#000000; fill-opacity:1.0; 
stroke:#000000; stroke-width:39.3701; stroke-opacity:1; 
stroke-linecap:round; stroke-linejoin:round;">
</g>
<g style="fill:#000000; fill-opacity:1.0; 
stroke:#000000; stroke-width:0; stroke-opacity:1; 
stroke-linecap:round; stroke-linejoin:round;">
<circle cx="2797.83" cy="14464.8" r="492" /> 
</g>
<g style="fill:#000000; fill-opacity:1.0; 
stroke:#000000; stroke-width:39.3701; stroke-opacity:1; 
stroke-linecap:round; stroke-linejoin:round;">
</g>
<g style="fill:#000000; fill-opacity:1.0; 
stroke:#000000; stroke-width:0; stroke-opacity:1; 
stroke-linecap:round; stroke-linejoin:round;">
<circle cx="4297.83" cy="14464.8" r="492" /> 
</g>
<g style="fill:#000000; fill-opacity:1.0; 
stroke:#000000; stroke-width:39.3701; stroke-opacity:1; 
stroke-linecap:round; stroke-linejoin:round;">
</g>
<g style="fill:#000000; fill-opacity:1.0; 
stroke:#000000; stroke-width:0; stroke-opacity:1; 
stroke-linecap:round; stroke-linejoin:round;">
<path style="fill:#000000; fill-opacity:1.0; 
stroke:#000000; stroke-width:0; stroke-opacity:1; 
stroke-linecap:round; stroke-linejoin:round;fill-rule:evenodd;"
d="M 6289,13972
6289,14956
5305,14956
5305,13972
6289,13972
Z" /> 
</g>
<g >
</g>
<g style="fill:#000000; fill-opacity:1.0; 
stroke:#000000; stroke-width:669.291; stroke-opacity:1; 
stroke-linecap:round; stroke-linejoin:round;">
</g>
<g style="fill:#000000; fill-opacity:0.0; 
stroke:#000000; stroke-width:669.291; stroke-opacity:1; 
stroke-linecap:round; stroke-linejoin:round;">
<path d="M2097 3364
L2097 3364
" />
<path d="M2097 2364
L2097 2364
" />
<path d="M3097 3364
L3097 3364
" />
<path d="M3097 2364
L3097 2364
" />
<path d="M4097 3364
L4097 3364
" />
<path d="M4097 2364
L4097 2364
" />
<path d="M5097 3364
L5097 3364
" />
</g>
<g style="fill:#000000; fill-opacity:0.0; 
stroke:#000000; stroke-width:0; stroke-opacity:1; 
stroke-linecap:round; stroke-linejoin:round;">
</g>
<g style="fill:#000000; fill-opacity:1.0; 
stroke:#000000; stroke-width:0; stroke-opacity:1; 
stroke-linecap:round; stroke-linejoin:round;">
<path style="fill:#000000; fill-opacity:1.0; 
stroke:#000000; stroke-width:0; stroke-opacity:1; 
stroke-linecap:round; stroke-linejoin:round;fill-rule:evenodd;"
d="M 4763,2030
5432,2030
5432,2699
4763,2699
4763,2030
Z" /> 
</g>
<g >
</g>
<g >
<path style="fill:#000000; fill-opacity:1.0; 
stroke:#000000; stroke-width:0; stroke-opacity:1; 
stroke-linecap:round; stroke-linejoin:round;fill-rule:evenodd;"
d="M 4487,9048
3897,9048
3897,8261
4487,8261
4487,9048
Z" /> 
<path style="fill:#000000; fill-opacity:1.0; 
stroke:#000000; stroke-width:0; stroke-opacity:1; 
stroke-linecap:round; stroke-linejoin:round;fill-rule:evenodd;"
d="M 6298,9048
5708,9048
5708,8261
6298,8261
6298,9048
Z" /> 
<path style="fill:#000000; fill-opacity:1.0; 
stroke:#000000; stroke-width:0; stroke-opacity:1; 
stroke-linecap:round; stroke-linejoin:round;fill-rule:evenodd;"
d="M 5393,9048
4802,9048
4802,8261
5393,8261
5393,9048
Z" /> 
<path style="fill:#000000; fill-opacity:1.0; 
stroke:#000000; stroke-width:0; stroke-opacity:1; 
stroke-linecap:round; stroke-linejoin:round;fill-rule:evenodd;"
d="M 5845,6568
4349,6568
4349,5780
5845,5780
5845,6568
Z" /> 
</g>
<g >
<path style="fill:#000000; fill-opacity:1.0; 
stroke:#000000; stroke-width:0; stroke-opacity:1; 
stroke-linecap:round; stroke-linejoin:round;fill-rule:evenodd;"
d="M 2296,11373
2306,11374
2315,11376
2324,11380
2333,11384
2341,11389
2349,11394
2356,11401
2362,11408
2368,11416
2373,11424
2377,11433
2380,11442
2383,11451
2384,11461
2385,11471
2385,12258
2384,12268
2383,12277
2380,12287
2377,12296
2373,12304
2368,12313
2362,12320
2356,12328
2349,12334
2341,12340
2333,12345
2324,12349
2315,12352
2306,12354
2296,12356
2286,12356
908,12356
899,12356
889,12354
880,12352
871,12349
862,12345
854,12340
846,12334
839,12328
832,12320
827,12313
822,12304
817,12296
814,12287
812,12277
810,12268
810,12258
810,11471
810,11461
812,11451
814,11442
817,11433
822,11424
827,11416
832,11408
839,11401
846,11394
854,11389
862,11384
871,11380
880,11376
889,11374
899,11373
908,11372
2286,11372
2296,11373
Z" /> 
<path style="fill:#000000; fill-opacity:1.0; 
stroke:#000000; stroke-width:0; stroke-opacity:1; 
stroke-linecap:round; stroke-linejoin:round;fill-rule:evenodd;"
d="M 4698,11373
4707,11374
4716,11376
4726,11380
4734,11384
4743,11389
4750,11394
4757,11401
4764,11408
4770,11416
4775,11424
4779,11433
4782,11442
4784,11451
4786,11461
4786,11471
4786,12258
4786,12268
4784,12277
4782,12287
4779,12296
4775,12304
4770,12313
4764,12320
4757,12328
4750,12334
4743,12340
4734,12345
4726,12349
4716,12352
4707,12354
4698,12356
4688,12356
3310,12356
3300,12356
3291,12354
3281,12352
3272,12349
3264,12345
3255,12340
3247,12334
3240,12328
3234,12320
3228,12313
3223,12304
3219,12296
3216,12287
3213,12277
3212,12268
3212,12258
3212,11471
3212,11461
3213,11451
3216,11442
3219,11433
3223,11424
3228,11416
3234,11408
3240,11401
3247,11394
3255,11389
3264,11384
3272,11380
3281,11376
3291,11374
3300,11373
3310,11372
4688,11372
4698,11373
Z" /> 
</g>
<g >
<circle cx="4697.83" cy="1014.76" r="157.48" /> 
</g>
<g style="fill:#000000; fill-opacity:1.0; 
stroke:#000000; stroke-width:39.3701; stroke-opacity:1; 
stroke-linecap:round; stroke-linejoin:round;">
</g>
<g style="fill:#000000; fill-opacity:1.0; 
stroke:#000000; stroke-width:0; stroke-opacity:1; 
stroke-linecap:round; stroke-linejoin:round;">
<circle cx="1697.83" cy="5514.76" r="157.48" /> 
</g>
<g style="fill:#000000; fill-opacity:1.0; 
stroke:#000000; stroke-width:39.3701; stroke-opacity:1; 
stroke-linecap:round; stroke-linejoin:round;">
</g>
<g >
</g>
<g style="fill:#000000; fill-opacity:1.0; 
stroke:#000000; stroke-width:393.701; stroke-opacity:1; 
stroke-linecap:round; stroke-linejoin:round;">
</g>
<g style="fill:#000000; fill-opacity:0.0; 
stroke:#000000; stroke-width:393.701; stroke-opacity:1; 
stroke-linecap:round; stroke-linejoin:round;">
<path d="M5147 3414
L5097 3364
" />
<path d="M4697 1014
L5269 1014
" />
</g>
<g style="fill:#000000; fill-opacity:0.0; 
stroke:#000000; stroke-width:196.85; stroke-opacity:1; 
stroke-linecap:round; stroke-linejoin:round;">
<path d="M1771 6883
L1771 7502
" />
<path d="M1442 6554
L1771 6883
" />
<path d="M3097 8014
L3097 7429
" />
<path d="M1397 7882
L1529 8014
" />
<path d="M1397 7502
L1397 7882
" />
<path d="M1724 8014
L1697 8014
" />
<path d="M1771 8062
L1724 8014
" />
<path d="M1771 8565
L1771 8062
" />
<path d="M1697 8014
L3097 8014
" />
<path d="M1529 8014
L1697 8014
" />
</g>
<g style="fill:#000000; fill-opacity:0.0; 
stroke:#000000; stroke-width:98.4252; stroke-opacity:1; 
stroke-linecap:round; stroke-linejoin:round;">
<path d="M5097 6114
L5097 6874
" />
</g>
<g style="fill:#000000; fill-opacity:0.0; 
stroke:#000000; stroke-width:196.85; stroke-opacity:1; 
stroke-linecap:round; stroke-linejoin:round;">
<path d="M2613 6554
L2237 6554
" />
<path d="M2145 6462
L2145 5613
" />
<path d="M2237 6554
L2145 6462
" />
<path d="M2145 7502
L2145 6462
" />
<path d="M1397 5514
L1697 5514
" />
<path d="M1697 5514
L1697 5514
" />
<path d="M1771 4888
L1771 4648
" />
<path d="M1917 5034
L1771 4888
" />
<path d="M2428 5034
L1917 5034
" />
<path d="M4097 3364
L2428 5034
" />
<path d="M1397 9470
L1442 9514
" />
<path d="M1397 8565
L1397 9470
" />
<path d="M2145 9047
L2613 9514
" />
<path d="M2145 8565
L2145 9047
" />
</g>
<g style="fill:#000000; fill-opacity:0.0; 
stroke:#000000; stroke-width:393.701; stroke-opacity:1; 
stroke-linecap:round; stroke-linejoin:round;">
<path d="M3097 1014
L4097 1014
" />
</g>
<g >
</g>
<g style="fill:#000000; fill-opacity:1.0; 
stroke:#000000; stroke-width:100; stroke-opacity:1; 
stroke-linecap:round; stroke-linejoin:round;">
<path style="fill:#000000; fill-opacity:1.0; 
stroke:#000000; stroke-width:100; stroke-opacity:1; 
stroke-linecap:round; stroke-linejoin:round;fill-rule:evenodd;"
d="M 6637,12764
6398,12764
6384,12738
6341,12685
6288,12641
6227,12609
6162,12589
6093,12583
5601,12583
5533,12589
5467,12609
5407,12641
5354,12685
5311,12738
5296,12764
2947,12764
2947,12356
2960,12356
2965,12405
2979,12453
3003,12496
3034,12534
3072,12565
3115,12588
3162,12603
3212,12608
3886,12606
3949,12544
3949,11914
4049,11914
4049,12544
4111,12606
4786,12608
4835,12603
4882,12588
4926,12565
4964,12534
4995,12496
5018,12453
5033,12405
5038,12356
5037,12224
5252,12224
5256,12273
5271,12320
5294,12363
5325,12401
5363,12432
5407,12456
5454,12470
5503,12475
5735,12474
5797,12411
5797,11993
5897,11993
5897,12411
5960,12474
6192,12475
6241,12470
6288,12456
6331,12432
6369,12401
6401,12363
6424,12320
6438,12273
6443,12224
6442,12056
6379,11993
5897,11993
5797,11993
5315,11993
5253,12056
5252,12224
5037,12224
5036,11977
4974,11914
4049,11914
3949,11914
3024,11914
2962,11977
2960,12356
2947,12356
2947,11372
2960,11372
2962,11752
3024,11814
3949,11814
3949,11185
4049,11185
4049,11814
4974,11814
5036,11752
5037,11662
5252,11662
5253,11831
5315,11893
5797,11893
5797,11475
5897,11475
5897,11893
6379,11893
6442,11831
6443,11662
6438,11613
6424,11566
6401,11523
6369,11485
6331,11454
6288,11430
6241,11416
6192,11411
5960,11412
5897,11475
5797,11475
5735,11412
5503,11411
5454,11416
5407,11430
5363,11454
5325,11485
5294,11523
5271,11566
5256,11613
5252,11662
5037,11662
5038,11372
5033,11323
5018,11276
4995,11233
4964,11195
4926,11163
4882,11140
4835,11126
4786,11121
4111,11122
4049,11185
3949,11185
3886,11122
3212,11121
3162,11126
3115,11140
3072,11163
3034,11195
3003,11233
2979,11276
2965,11323
2960,11372
2947,11372
2947,11064
5697,11064
5707,11063
5716,11060
5725,11056
5733,11050
5739,11042
5744,11033
5746,11024
5747,11014
5747,10653
5753,10655
5802,10660
5970,10659
6033,10596
6033,10114
6133,10114
6133,10596
6195,10659
6363,10660
6412,10655
6460,10641
6503,10618
6541,10586
6572,10548
6596,10505
6610,10458
6615,10409
6613,10177
6551,10114
6133,10114
6033,10114
6025,10114
6025,10014
6033,10014
6033,9532
6133,9532
6133,10014
6551,10014
6613,9952
6615,9720
6610,9671
6596,9624
6572,9580
6541,9542
6503,9511
6460,9488
6412,9473
6363,9469
6195,9470
6133,9532
6033,9532
5970,9470
5802,9469
5753,9473
5747,9475
5747,9299
5890,9298
5953,9236
5953,8704
6053,8704
6053,9236
6115,9298
6298,9299
6347,9295
6394,9280
6438,9257
6476,9226
6507,9188
6530,9144
6545,9097
6549,9048
6548,8767
6486,8704
6053,8704
5953,8704
5945,8704
5945,8604
5953,8604
5953,8597
6053,8597
6053,8604
6486,8604
6548,8542
6549,8264
6637,8264
6637,12764
Z" /> 
<path style="fill:#000000; fill-opacity:1.0; 
stroke:#000000; stroke-width:100; stroke-opacity:1; 
stroke-linecap:round; stroke-linejoin:round;fill-rule:evenodd;"
d="M 6637,15202
6630,15280
6611,15343
6580,15402
6538,15453
6487,15495
6429,15527
6365,15546
6288,15554
4947,15554
4947,14956
5054,14956
5059,15005
5073,15052
5096,15096
5128,15134
5166,15165
5209,15188
5256,15203
5305,15207
5685,15206
5747,15144
5747,14514
5847,14514
5847,15144
5910,15206
6289,15207
6338,15203
6385,15188
6429,15165
6467,15134
6498,15096
6521,15052
6536,15005
6541,14956
6539,14577
6477,14514
5847,14514
5747,14514
5118,14514
5055,14577
5054,14956
4947,14956
4947,14827
4955,14816
5011,14681
5039,14537
5039,14391
5011,14248
4955,14113
4947,14101
4947,13972
5054,13972
5055,14352
5118,14414
5747,14414
5747,13785
5847,13785
5847,14414
6477,14414
6539,14352
6541,13972
6536,13923
6521,13876
6498,13833
6467,13795
6429,13763
6385,13740
6338,13726
6289,13721
5910,13722
5847,13785
5747,13785
5685,13722
5305,13721
5256,13726
5209,13740
5166,13763
5128,13795
5096,13833
5073,13876
5059,13923
5054,13972
4947,13972
4947,13395
5252,13395
5256,13444
5271,13491
5294,13534
5325,13572
5363,13604
5407,13627
5454,13641
5503,13646
5735,13645
5797,13582
5797,13164
5897,13164
5897,13582
5960,13645
6192,13646
6241,13641
6288,13627
6331,13604
6369,13572
6401,13534
6424,13491
6438,13444
6443,13395
6442,13227
6379,13164
5897,13164
5797,13164
5315,13164
5253,13227
5252,13395
4947,13395
4947,13064
6637,13064
6637,15202
Z" /> 
<path style="fill:#000000; fill-opacity:1.0; 
stroke:#000000; stroke-width:100; stroke-opacity:1; 
stroke-linecap:round; stroke-linejoin:round;fill-rule:evenodd;"
d="M 1396,902
1458,964
1876,964
1876,956
1976,956
1976,964
2394,964
2457,902
2458,674
2580,674
2572,700
2566,768
2566,1260
2572,1329
2592,1394
2625,1455
2668,1508
2721,1551
2781,1583
2847,1603
2915,1610
3279,1610
3348,1603
3413,1583
3474,1551
3527,1508
3565,1461
3630,1461
3668,1508
3721,1551
3781,1583
3847,1603
3915,1610
4279,1610
4348,1603
4413,1583
4474,1551
4527,1508
4570,1455
4576,1444
4610,1455
4675,1461
4801,1461
4839,1508
4892,1551
4953,1583
5018,1603
5087,1610
5451,1610
5519,1603
5584,1583
5645,1551
5698,1508
5741,1455
5774,1394
5794,1329
5800,1260
5800,768
5794,700
5786,674
6285,674
6363,682
6426,701
6485,732
6536,774
6578,825
6610,883
6629,946
6637,1024
6637,7964
5497,7964
5488,7965
5478,7968
5470,7973
5462,7979
5456,7986
5451,7995
5448,8005
5447,8014
5447,8016
5442,8014
5393,8010
5210,8011
5147,8073
5147,8604
5155,8604
5155,8704
5147,8704
5147,8712
5047,8712
5047,8704
5039,8704
5039,8604
5047,8604
5047,8073
4985,8011
4802,8010
4753,8014
4706,8029
4662,8052
4647,8064
4642,8064
4627,8052
4583,8029
4536,8014
4487,8010
3897,8010
3848,8014
3800,8029
3757,8052
3742,8064
2547,8064
2547,7853
2575,7887
2613,7918
2657,7941
2704,7956
2753,7960
2985,7959
3047,7897
3047,7479
3147,7479
3147,7897
3210,7959
3442,7960
3491,7956
3538,7941
3581,7918
3619,7887
3651,7849
3674,7805
3688,7758
3693,7709
3692,7541
3629,7479
3147,7479
3047,7479
3039,7479
3039,7379
3047,7379
3047,7371
3147,7371
3147,7379
3629,7379
3692,7316
3693,7148
3688,7099
3674,7052
3651,7009
3619,6970
3581,6939
3538,6916
3491,6902
3442,6897
3210,6898
3147,6961
3147,6898
3129,6898
3138,6868
3145,6800
3145,6568
4098,6568
4103,6617
4117,6664
4140,6707
4172,6745
4210,6777
4253,6800
4300,6814
4349,6819
4985,6818
5047,6755
5047,6224
5147,6224
5147,6755
5210,6818
5845,6819
5894,6814
5942,6800
5985,6777
6023,6745
6054,6707
6077,6664
6092,6617
6097,6568
6095,6287
6033,6224
5147,6224
5047,6224
4162,6224
4099,6287
4098,6568
3145,6568
3145,6308
3138,6239
3118,6174
3086,6113
3042,6060
2989,6017
2929,5985
2863,5965
2795,5958
2547,5958
2547,5780
4098,5780
4099,6062
4162,6124
5047,6124
5047,5593
5147,5593
5147,6124
6033,6124
6095,6062
6097,5780
6092,5731
6077,5684
6054,5641
6023,5603
5985,5572
5942,5548
5894,5534
5845,5529
5210,5530
5147,5593
5047,5593
4985,5530
4349,5529
4300,5534
4253,5548
4210,5572
4172,5603
4140,5641
4117,5684
4103,5731
4098,5780
2547,5780
2547,5362
2562,5357
2622,5325
2675,5282
2686,5268
4011,3943
4069,3949
4126,3949
4212,3940
4322,3907
4424,3853
4513,3780
4586,3691
4597,3669
4609,3691
4682,3780
4771,3853
4873,3907
4983,3940
5069,3949
5126,3949
5212,3940
5322,3907
5424,3853
5513,3780
5586,3691
5640,3589
5674,3479
5685,3364
5674,3250
5640,3139
5586,3038
5513,2949
5501,2939
5528,2931
5572,2908
5610,2877
5641,2838
5664,2795
5678,2748
5683,2699
5683,2030
5678,1981
5664,1933
5641,1890
5610,1852
5572,1821
5528,1798
5481,1783
5432,1778
4763,1778
4714,1783
4667,1798
4623,1821
4585,1852
4554,1890
4531,1933
4521,1965
4491,1932
4399,1864
4296,1814
4238,1797
4147,1845
4147,2314
4155,2314
4155,2414
4147,2414
4147,2422
4047,2422
4047,2414
3147,2414
3147,2422
3047,2422
3047,2414
2147,2414
2147,2422
2047,2422
2047,2414
2039,2414
2039,2314
2047,2314
2047,1845
2147,1845
2147,2314
3047,2314
3047,1845
3147,1845
3147,2314
4047,2314
4047,1845
3957,1797
3899,1814
3795,1864
3704,1932
3627,2017
3597,2067
3568,2017
3491,1932
3399,1864
3296,1814
3238,1797
3147,1845
3047,1845
2957,1797
2899,1814
2795,1864
2704,1932
2627,2017
2597,2067
2568,2017
2491,1932
2399,1864
2296,1814
2238,1797
2147,1845
2047,1845
1957,1797
1899,1814
1795,1864
1704,1932
1627,2017
1568,2116
1542,2190
1542,2164
1479,2164
1542,2102
1543,1934
1538,1885
1524,1838
1501,1794
1469,1756
1431,1725
1388,1702
1341,1687
1292,1683
1060,1684
997,1746
997,2164
1005,2164
1005,2264
997,2264
997,2272
897,2272
897,2264
889,2264
889,2164
897,2164
897,1746
835,1684
603,1683
557,1687
557,1359
1394,1359
1399,1408
1413,1455
1437,1498
1468,1536
1506,1568
1549,1591
1597,1605
1646,1610
1814,1609
1876,1546
1876,1064
1976,1064
1976,1546
2039,1609
2207,1610
2256,1605
2303,1591
2346,1568
2384,1536
2415,1498
2439,1455
2453,1408
2458,1359
2457,1127
2394,1064
1976,1064
1876,1064
1458,1064
1396,1127
1394,1359
557,1359
557,1027
565,948
584,885
615,827
657,775
708,733
766,702
829,682
907,674
1394,674
1396,902
Z" /> 
<path style="fill:#000000; fill-opacity:1.0; 
stroke:#000000; stroke-width:100; stroke-opacity:1; 
stroke-linecap:round; stroke-linejoin:round;fill-rule:evenodd;"
d="M 997,3336
1005,3336
1005,3436
997,3436
997,3854
1060,3916
1292,3917
1341,3912
1388,3898
1431,3875
1469,3844
1501,3806
1524,3762
1538,3715
1543,3666
1542,3548
1555,3589
1609,3691
1682,3780
1771,3853
1873,3907
1983,3940
2069,3949
2126,3949
2212,3940
2322,3907
2424,3853
2513,3780
2586,3691
2597,3669
2609,3691
2682,3780
2771,3853
2873,3907
2983,3940
3024,3945
2469,4500
2461,4500
2523,4437
2525,4243
2520,4194
2505,4146
2482,4103
2451,4065
2413,4034
2369,4011
2322,3996
2273,3991
2258,3993
2195,4055
2195,4500
2203,4500
2203,4600
2195,4600
2195,4608
2151,4608
2151,4243
2146,4194
2131,4146
2108,4103
2095,4087
2095,4055
2033,3993
2017,3991
1968,3996
1958,3999
1948,3996
1899,3991
1643,3991
1594,3996
1584,3999
1574,3996
1525,3991
1510,3993
1447,4055
1447,4087
1435,4103
1411,4146
1397,4194
1392,4243
1392,4608
1347,4608
1347,4600
1082,4600
1019,4662
1018,4857
1023,4906
1037,4953
1061,4996
1092,5034
1130,5066
1159,5081
1130,5097
1092,5128
1061,5166
1037,5209
1023,5257
1018,5306
1018,5920
1023,5969
1031,5995
1022,6000
983,6032
952,6070
929,6113
915,6160
910,6209
911,6441
974,6504
1392,6504
1392,6496
1492,6496
1492,6504
1500,6504
1500,6604
1492,6604
1492,6612
1392,6612
1392,6604
974,6604
911,6666
910,6898
915,6947
929,6994
952,7038
983,7076
1022,7107
1033,7113
1023,7146
1018,7195
1018,7810
1023,7859
1037,7906
1052,7934
1054,7951
1074,8016
1103,8071
1092,8081
1061,8119
1037,8162
1023,8209
1018,8258
1018,8873
1023,8922
1037,8969
1049,8990
1049,8991
1012,9021
969,9074
937,9134
917,9200
910,9268
910,9760
917,9829
937,9894
969,9955
1012,10008
1065,10051
1126,10083
1191,10103
1260,10110
1624,10110
1692,10103
1758,10083
1818,10051
1871,10008
1914,9955
1947,9894
1967,9829
1973,9760
1973,9367
2081,9475
2081,9760
2088,9829
2108,9894
2140,9955
2184,10008
2237,10051
2297,10083
2363,10103
2431,10110
2795,10110
2863,10103
2929,10083
2989,10051
3042,10008
3086,9955
3118,9894
3138,9829
3145,9760
3145,9720
4380,9720
4381,9952
4444,10014
4862,10014
4862,9532
4962,9532
4962,10014
5380,10014
5442,9952
5443,9720
5439,9671
5424,9624
5401,9580
5370,9542
5332,9511
5288,9488
5241,9473
5192,9469
5024,9470
4962,9532
4862,9532
4799,9470
4631,9469
4582,9473
4535,9488
4492,9511
4454,9542
4422,9580
4399,9624
4385,9671
4380,9720
3145,9720
3145,9268
3138,9200
3118,9134
3116,9130
3147,9130
3147,9068
3210,9130
3442,9132
3491,9127
3538,9112
3581,9089
3619,9058
3645,9026
3645,9048
3650,9097
3664,9144
3688,9188
3719,9226
3757,9257
3800,9280
3848,9295
3897,9299
4079,9298
4142,9236
4142,8704
3709,8704
3692,8722
3692,8712
3629,8650
3147,8650
3147,8658
3047,8658
3047,8650
3039,8650
3039,8550
3047,8550
3047,8542
3147,8542
3147,8550
3629,8550
3647,8533
3647,8542
3709,8604
4142,8604
4142,8597
4242,8597
4242,8604
4250,8604
4250,8704
4242,8704
4242,9236
4304,9298
4447,9299
4447,9414
4448,9424
4451,9433
4456,9442
4462,9450
4470,9456
4478,9460
4488,9463
4497,9464
5447,9464
5447,10764
2697,10764
2688,10765
2678,10768
2670,10773
2662,10779
2656,10786
2651,10795
2648,10805
2647,10814
2647,13014
2648,13024
2651,13033
2656,13042
2662,13050
2670,13056
2678,13060
2688,13063
2697,13064
4647,13064
4647,13806
4514,13751
4370,13722
4224,13722
4081,13751
3946,13807
3824,13888
3721,13991
3640,14113
3584,14248
3555,14391
3555,14537
3584,14681
3640,14816
3721,14937
3824,15041
3946,15122
4081,15178
4224,15206
4370,15206
4514,15178
4647,15122
4647,15554
910,15554
832,15547
768,15528
710,15497
659,15455
616,15404
585,15346
565,15282
557,15205
557,14981
851,14981
901,15095
1031,15161
1172,15199
1318,15210
1463,15191
1602,15145
1694,15095
1744,14981
1297,14535
851,14981
557,14981
557,14526
570,14630
617,14769
666,14861
780,14911
1227,14464
1368,14464
1814,14911
1929,14861
1994,14730
2032,14589
2043,14444
2036,14391
2055,14391
2055,14537
2084,14681
2140,14816
2221,14937
2324,15041
2446,15122
2581,15178
2724,15206
2870,15206
3014,15178
3149,15122
3270,15041
3374,14937
3455,14816
3511,14681
3539,14537
3539,14391
3511,14248
3455,14113
3374,13991
3270,13888
3149,13807
3014,13751
2870,13722
2724,13722
2581,13751
2446,13807
2324,13888
2221,13991
2140,14113
2084,14248
2055,14391
2036,14391
2024,14299
1978,14160
1929,14067
1814,14018
1368,14464
1227,14464
780,14018
666,14067
601,14198
562,14339
557,14412
557,13947
851,13947
1297,14394
1744,13947
1694,13833
1563,13768
1422,13729
1277,13719
1132,13737
993,13784
901,13833
851,13947
557,13947
557,12356
559,12356
564,12405
578,12453
601,12496
632,12534
670,12565
714,12588
761,12603
810,12608
1485,12606
1547,12544
1547,11914
1647,11914
1647,12544
1710,12606
2385,12608
2434,12603
2481,12588
2524,12565
2562,12534
2594,12496
2617,12453
2631,12405
2636,12356
2635,11977
2572,11914
1647,11914
1547,11914
622,11914
560,11977
559,12356
557,12356
557,11372
559,11372
560,11752
622,11814
1547,11814
1547,11185
1647,11185
1647,11814
2572,11814
2635,11752
2636,11372
2631,11323
2617,11276
2594,11233
2562,11195
2524,11163
2481,11140
2434,11126
2385,11121
1710,11122
1647,11185
1547,11185
1485,11122
810,11121
761,11126
714,11140
670,11163
632,11195
601,11233
578,11276
564,11323
559,11372
557,11372
557,10409
4380,10409
4385,10458
4399,10505
4422,10548
4454,10586
4492,10618
4535,10641
4582,10655
4631,10660
4799,10659
4862,10596
4862,10114
4962,10114
4962,10596
5024,10659
5192,10660
5241,10655
5288,10641
5332,10618
5370,10586
5401,10548
5424,10505
5439,10458
5443,10409
5442,10177
5380,10114
4962,10114
4862,10114
4444,10114
4381,10177
4380,10409
557,10409
557,4243
1018,4243
1019,4437
1082,4500
1347,4500
1347,4055
1285,3993
1269,3991
1220,3996
1173,4011
1130,4034
1092,4065
1061,4103
1037,4146
1023,4194
1018,4243
557,4243
557,3913
603,3917
835,3916
897,3854
897,3436
889,3436
889,3336
897,3336
897,3328
997,3328
997,3336
Z" /> 
</g>
</g>
<g style="fill:#FFFFFF; fill-opacity:1.0; 
stroke:#FFFFFF; stroke-width:100; stroke-opacity:1; 
stroke-linecap:round; stroke-linejoin:round;">
</g>
<g style="fill:#FFFFFF; fill-opacity:1.0; 
stroke:#FFFFFF; stroke-width:0; stroke-opacity:1; 
stroke-linecap:round; stroke-linejoin:round;">
<circle cx="4697.83" cy="1014.76" r="78.7402" /> 
</g>
<g style="fill:#FFFFFF; fill-opacity:1.0; 
stroke:#FFFFFF; stroke-width:39.3701; stroke-opacity:1; 
stroke-linecap:round; stroke-linejoin:round;">
</g>
<g style="fill:#FFFFFF; fill-opacity:1.0; 
stroke:#FFFFFF; stroke-width:0; stroke-opacity:1; 
stroke-linecap:round; stroke-linejoin:round;">
<circle cx="1697.83" cy="5514.76" r="78.7402" /> 
</g>
<g style="fill:#FFFFFF; fill-opacity:1.0; 
stroke:#FFFFFF; stroke-width:39.3701; stroke-opacity:1; 
stroke-linecap:round; stroke-linejoin:round;">
</g>
<g style="fill:#FFFFFF; fill-opacity:1.0; 
stroke:#FFFFFF; stroke-width:0; stroke-opacity:1; 
stroke-linecap:round; stroke-linejoin:round;">
<circle cx="1297.83" cy="14464.8" r="197" /> 
</g>
<g style="fill:#FFFFFF; fill-opacity:1.0; 
stroke:#FFFFFF; stroke-width:39.3701; stroke-opacity:1; 
stroke-linecap:round; stroke-linejoin:round;">
</g>
<g style="fill:#FFFFFF; fill-opacity:1.0; 
stroke:#FFFFFF; stroke-width:0; stroke-opacity:1; 
stroke-linecap:round; stroke-linejoin:round;">
<circle cx="2797.83" cy="14464.8" r="197" /> 
</g>
<g style="fill:#FFFFFF; fill-opacity:1.0; 
stroke:#FFFFFF; stroke-width:39.3701; stroke-opacity:1; 
stroke-linecap:round; stroke-linejoin:round;">
</g>
<g style="fill:#FFFFFF; fill-opacity:1.0; 
stroke:#FFFFFF; stroke-width:0; stroke-opacity:1; 
stroke-linecap:round; stroke-linejoin:round;">
<circle cx="4297.83" cy="14464.8" r="197" /> 
</g>
<g style="fill:#FFFFFF; fill-opacity:1.0; 
stroke:#FFFFFF; stroke-width:39.3701; stroke-opacity:1; 
stroke-linecap:round; stroke-linejoin:round;">
</g>
<g style="fill:#FFFFFF; fill-opacity:1.0; 
stroke:#FFFFFF; stroke-width:0; stroke-opacity:1; 
stroke-linecap:round; stroke-linejoin:round;">
<circle cx="5797.83" cy="14464.8" r="197" /> 
</g>
<g style="fill:#FFFFFF; fill-opacity:1.0; 
stroke:#FFFFFF; stroke-width:39.3701; stroke-opacity:1; 
stroke-linecap:round; stroke-linejoin:round;">
</g>
<g style="fill:#FFFFFF; fill-opacity:1.0; 
stroke:#FFFFFF; stroke-width:0; stroke-opacity:1; 
stroke-linecap:round; stroke-linejoin:round;">
<circle cx="2097.83" cy="3364.76" r="196.85" /> 
</g>
<g style="fill:#FFFFFF; fill-opacity:1.0; 
stroke:#FFFFFF; stroke-width:39.3701; stroke-opacity:1; 
stroke-linecap:round; stroke-linejoin:round;">
</g>
<g style="fill:#FFFFFF; fill-opacity:1.0; 
stroke:#FFFFFF; stroke-width:0; stroke-opacity:1; 
stroke-linecap:round; stroke-linejoin:round;">
<circle cx="2097.83" cy="2364.76" r="196.85" /> 
</g>
<g style="fill:#FFFFFF; fill-opacity:1.0; 
stroke:#FFFFFF; stroke-width:39.3701; stroke-opacity:1; 
stroke-linecap:round; stroke-linejoin:round;">
</g>
<g style="fill:#FFFFFF; fill-opacity:1.0; 
stroke:#FFFFFF; stroke-width:0; stroke-opacity:1; 
stroke-linecap:round; stroke-linejoin:round;">
<circle cx="3097.83" cy="3364.76" r="196.85" /> 
</g>
<g style="fill:#FFFFFF; fill-opacity:1.0; 
stroke:#FFFFFF; stroke-width:39.3701; stroke-opacity:1; 
stroke-linecap:round; stroke-linejoin:round;">
</g>
<g style="fill:#FFFFFF; fill-opacity:1.0; 
stroke:#FFFFFF; stroke-width:0; stroke-opacity:1; 
stroke-linecap:round; stroke-linejoin:round;">
<circle cx="3097.83" cy="2364.76" r="196.85" /> 
</g>
<g style="fill:#FFFFFF; fill-opacity:1.0; 
stroke:#FFFFFF; stroke-width:39.3701; stroke-opacity:1; 
stroke-linecap:round; stroke-linejoin:round;">
</g>
<g style="fill:#FFFFFF; fill-opacity:1.0; 
stroke:#FFFFFF; stroke-width:0; stroke-opacity:1; 
stroke-linecap:round; stroke-linejoin:round;">
<circle cx="4097.83" cy="3364.76" r="196.85" /> 
</g>
<g style="fill:#FFFFFF; fill-opacity:1.0; 
stroke:#FFFFFF; stroke-width:39.3701; stroke-opacity:1; 
stroke-linecap:round; stroke-linejoin:round;">
</g>
<g style="fill:#FFFFFF; fill-opacity:1.0; 
stroke:#FFFFFF; stroke-width:0; stroke-opacity:1; 
stroke-linecap:round; stroke-linejoin:round;">
<circle cx="4097.83" cy="2364.76" r="196.85" /> 
</g>
<g style="fill:#FFFFFF; fill-opacity:1.0; 
stroke:#FFFFFF; stroke-width:39.3701; stroke-opacity:1; 
stroke-linecap:round; stroke-linejoin:round;">
</g>
<g style="fill:#FFFFFF; fill-opacity:1.0; 
stroke:#FFFFFF; stroke-width:0; stroke-opacity:1; 
stroke-linecap:round; stroke-linejoin:round;">
<circle cx="5097.83" cy="3364.76" r="196.85" /> 
</g>
<g style="fill:#FFFFFF; fill-opacity:1.0; 
stroke:#FFFFFF; stroke-width:39.3701; stroke-opacity:1; 
stroke-linecap:round; stroke-linejoin:round;">
</g>
<g style="fill:#FFFFFF; fill-opacity:1.0; 
stroke:#FFFFFF; stroke-width:0; stroke-opacity:1; 
stroke-linecap:round; stroke-linejoin:round;">
<circle cx="5097.83" cy="2364.76" r="196.85" /> 
</g>
<g style="fill:#FFFFFF; fill-opacity:1.0; 
stroke:#FFFFFF; stroke-width:39.3701; stroke-opacity:1; 
stroke-linecap:round; stroke-linejoin:round;">
</g>
<g style="fill:#000000; fill-opacity:1.0; 
stroke:#000000; stroke-width:39.3701; stroke-opacity:1; 
stroke-linecap:round; stroke-linejoin:round;">
</g>
<g style="fill:#000000; fill-opacity:0.0; 
stroke:#000000; stroke-width:19.685; stroke-opacity:1; 
stroke-linecap:round; stroke-linejoin:round;">
<path d="M6897.83 1014.76 A600 600 0.0 0 0 6297.83 414.764 " />
<path d="M897.835 414.764 A600 600 0.0 0 0 297.835 1014.76 " />
<path d="M297.835 15214.8 A600 600 0.0 0 0 897.835 15814.8 " />
<path d="M6297.83 15814.8 A600 600 0.0 0 0 6897.83 15214.8 " />
<path d="M6897 1014
L6897 15214
" />
<path d="M297 15214
L297 1014
" />
<path d="M6297 414
L897 414
" />
<path d="M897 15814
L6297 15814
" />
<g >
</g>
<g >
</g>
<g >
</g>
<g >
</g>
<g >
</g>
<g >
</g>
<g >
</g>
<g >
</g>
<g >
</g>
<g >
</g>
<g >
</g>
<g >
</g>
<g >
</g>
<g >
</g>
<g >
</g>
<g >
</g>
</g> 
</svg>
