<?xml version="1.0" standalone="no"?>
 <!DOCTYPE svg PUBLIC "-//W3C//DTD SVG 1.1//EN" 
 "http://www.w3.org/Graphics/SVG/1.1/DTD/svg11.dtd"> 
<svg xmlns="http://www.w3.org/2000/svg" version="1.1" 
    width="5.15874cm" height="2.4638cm" viewBox="0 0 20310 9700 ">
<title>SVG Picture created as pixel-stick-F_Cu.svg date 2019/12/17 12:56:12 </title>
  <desc>Picture generated by PCBNEW </desc>
<g style="fill:#000000; fill-opacity:1;stroke:#000000; stroke-opacity:1;
stroke-linecap:round; stroke-linejoin:round; "
 transform="translate(0 0) scale(1 1)">
</g>
<g style="fill:#000000; fill-opacity:0.0; 
stroke:#000000; stroke-width:-0.000393701; stroke-opacity:1; 
stroke-linecap:round; stroke-linejoin:round;">
<g >
</g>
<g style="fill:#000000; fill-opacity:0.0; 
stroke:#000000; stroke-width:472.441; stroke-opacity:1; 
stroke-linecap:round; stroke-linejoin:round;">
<path d="M16920 4038
L17137 4038
" />
<path d="M16920 4825
L17137 4825
" />
</g>
<g style="fill:#000000; fill-opacity:0.0; 
stroke:#000000; stroke-width:0; stroke-opacity:1; 
stroke-linecap:round; stroke-linejoin:round;">
</g>
<g style="fill:#000000; fill-opacity:1.0; 
stroke:#000000; stroke-width:0; stroke-opacity:1; 
stroke-linecap:round; stroke-linejoin:round;">
<path style="fill:#000000; fill-opacity:1.0; 
stroke:#000000; stroke-width:0; stroke-opacity:1; 
stroke-linecap:round; stroke-linejoin:round;fill-rule:evenodd;"
d="M 17284,5377
17294,5378
17303,5381
17312,5384
17321,5388
17329,5393
17337,5399
17344,5405
17351,5412
17356,5420
17361,5428
17365,5437
17369,5446
17371,5456
17372,5465
17373,5475
17373,5750
17372,5760
17371,5770
17369,5779
17365,5788
17361,5797
17356,5805
17351,5813
17344,5820
17337,5827
17329,5832
17321,5837
17312,5841
17303,5845
17294,5847
17284,5848
17275,5849
16782,5849
16773,5848
16763,5847
16754,5845
16745,5841
16736,5837
16728,5832
16720,5827
16713,5820
16706,5813
16701,5805
16696,5797
16691,5788
16688,5779
16686,5770
16684,5760
16684,5750
16684,5475
16684,5465
16686,5456
16688,5446
16691,5437
16696,5428
16701,5420
16706,5412
16713,5405
16720,5399
16728,5393
16736,5388
16745,5384
16754,5381
16763,5378
16773,5377
16782,5376
17275,5376
17284,5377
Z" /> 
</g>
<g >
</g>
<g style="fill:#000000; fill-opacity:1.0; 
stroke:#000000; stroke-width:0; stroke-opacity:1; 
stroke-linecap:round; stroke-linejoin:round;">
<path style="fill:#000000; fill-opacity:1.0; 
stroke:#000000; stroke-width:0; stroke-opacity:1; 
stroke-linecap:round; stroke-linejoin:round;fill-rule:evenodd;"
d="M 14042,6632
14298,6632
14298,7050
14042,7050
14042,6632
Z" /> 
<path style="fill:#000000; fill-opacity:1.0; 
stroke:#000000; stroke-width:0; stroke-opacity:1; 
stroke-linecap:round; stroke-linejoin:round;fill-rule:evenodd;"
d="M 13294,6632
13550,6632
13550,7050
13294,7050
13294,6632
Z" /> 
<path style="fill:#000000; fill-opacity:1.0; 
stroke:#000000; stroke-width:0; stroke-opacity:1; 
stroke-linecap:round; stroke-linejoin:round;fill-rule:evenodd;"
d="M 13294,5766
13550,5766
13550,6184
13294,6184
13294,5766
Z" /> 
<path style="fill:#000000; fill-opacity:1.0; 
stroke:#000000; stroke-width:0; stroke-opacity:1; 
stroke-linecap:round; stroke-linejoin:round;fill-rule:evenodd;"
d="M 13668,5766
13924,5766
13924,6184
13668,6184
13668,5766
Z" /> 
<path style="fill:#000000; fill-opacity:1.0; 
stroke:#000000; stroke-width:0; stroke-opacity:1; 
stroke-linecap:round; stroke-linejoin:round;fill-rule:evenodd;"
d="M 14042,5766
14298,5766
14298,6184
14042,6184
14042,5766
Z" /> 
</g>
<g >
</g>
<g style="fill:#000000; fill-opacity:1.0; 
stroke:#000000; stroke-width:0; stroke-opacity:1; 
stroke-linecap:round; stroke-linejoin:round;">
</g>
<g style="fill:#000000; fill-opacity:1.0; 
stroke:#000000; stroke-width:669.291; stroke-opacity:1; 
stroke-linecap:round; stroke-linejoin:round;">
</g>
<g style="fill:#000000; fill-opacity:0.0; 
stroke:#000000; stroke-width:669.291; stroke-opacity:1; 
stroke-linecap:round; stroke-linejoin:round;">
<path d="M8449 1873
L8449 1873
" />
</g>
<g style="fill:#000000; fill-opacity:0.0; 
stroke:#000000; stroke-width:0; stroke-opacity:1; 
stroke-linecap:round; stroke-linejoin:round;">
</g>
<g style="fill:#000000; fill-opacity:1.0; 
stroke:#000000; stroke-width:0; stroke-opacity:1; 
stroke-linecap:round; stroke-linejoin:round;">
<path style="fill:#000000; fill-opacity:1.0; 
stroke:#000000; stroke-width:0; stroke-opacity:1; 
stroke-linecap:round; stroke-linejoin:round;fill-rule:evenodd;"
d="M 7783,2207
7114,2207
7114,1538
7783,1538
7783,2207
Z" /> 
</g>
<g >
</g>
<g style="fill:#000000; fill-opacity:1.0; 
stroke:#000000; stroke-width:0; stroke-opacity:1; 
stroke-linecap:round; stroke-linejoin:round;">
<path style="fill:#000000; fill-opacity:1.0; 
stroke:#000000; stroke-width:0; stroke-opacity:1; 
stroke-linecap:round; stroke-linejoin:round;fill-rule:evenodd;"
d="M 9602,1479
9610,1480
9617,1482
9625,1485
9632,1488
9638,1492
9644,1497
9650,1502
9655,1508
9660,1514
9664,1520
9667,1527
9670,1535
9672,1542
9673,1550
9673,1558
9673,2187
9673,2195
9672,2203
9670,2210
9667,2218
9664,2225
9660,2231
9655,2237
9650,2243
9644,2248
9638,2253
9632,2257
9625,2260
9617,2263
9610,2265
9602,2266
9594,2266
9437,2266
9429,2266
9422,2265
9414,2263
9407,2260
9400,2257
9393,2253
9387,2248
9381,2243
9376,2237
9371,2231
9367,2225
9364,2218
9362,2210
9360,2203
9359,2195
9358,2187
9358,1558
9359,1550
9360,1542
9362,1535
9364,1527
9367,1520
9371,1514
9376,1508
9381,1502
9387,1497
9393,1492
9400,1488
9407,1485
9414,1482
9422,1480
9429,1479
9437,1479
9594,1479
9602,1479
Z" /> 
<path style="fill:#000000; fill-opacity:1.0; 
stroke:#000000; stroke-width:0; stroke-opacity:1; 
stroke-linecap:round; stroke-linejoin:round;fill-rule:evenodd;"
d="M 11256,1479
11263,1480
11271,1482
11278,1485
11285,1488
11292,1492
11298,1497
11304,1502
11309,1508
11313,1514
11317,1520
11321,1527
11323,1535
11325,1542
11326,1550
11327,1558
11327,2187
11326,2195
11325,2203
11323,2210
11321,2218
11317,2225
11313,2231
11309,2237
11304,2243
11298,2248
11292,2253
11285,2257
11278,2260
11271,2263
11263,2265
11256,2266
11248,2266
11090,2266
11083,2266
11075,2265
11068,2263
11060,2260
11053,2257
11047,2253
11041,2248
11035,2243
11030,2237
11025,2231
11021,2225
11018,2218
11015,2210
11013,2203
11012,2195
11012,2187
11012,1558
11012,1550
11013,1542
11015,1535
11018,1527
11021,1520
11025,1514
11030,1508
11035,1502
11041,1497
11047,1492
11053,1488
11060,1485
11068,1482
11075,1480
11083,1479
11090,1479
11248,1479
11256,1479
Z" /> 
</g>
<g >
</g>
<g style="fill:#000000; fill-opacity:1.0; 
stroke:#000000; stroke-width:0; stroke-opacity:1; 
stroke-linecap:round; stroke-linejoin:round;">
<path style="fill:#000000; fill-opacity:1.0; 
stroke:#000000; stroke-width:0; stroke-opacity:1; 
stroke-linecap:round; stroke-linejoin:round;fill-rule:evenodd;"
d="M 6472,1479
6480,1480
6487,1482
6495,1485
6502,1488
6508,1492
6514,1497
6520,1502
6525,1508
6530,1514
6534,1520
6537,1527
6540,1535
6542,1542
6543,1550
6543,1558
6543,2187
6543,2195
6542,2203
6540,2210
6537,2218
6534,2225
6530,2231
6525,2237
6520,2243
6514,2248
6508,2253
6502,2257
6495,2260
6487,2263
6480,2265
6472,2266
6464,2266
6307,2266
6299,2266
6292,2265
6284,2263
6277,2260
6270,2257
6263,2253
6257,2248
6251,2243
6246,2237
6242,2231
6238,2225
6234,2218
6232,2210
6230,2203
6229,2195
6228,2187
6228,1558
6229,1550
6230,1542
6232,1535
6234,1527
6238,1520
6242,1514
6246,1508
6251,1502
6257,1497
6263,1492
6270,1488
6277,1485
6284,1482
6292,1480
6299,1479
6307,1479
6464,1479
6472,1479
Z" /> 
<path style="fill:#000000; fill-opacity:1.0; 
stroke:#000000; stroke-width:0; stroke-opacity:1; 
stroke-linecap:round; stroke-linejoin:round;fill-rule:evenodd;"
d="M 4819,1479
4826,1480
4834,1482
4841,1485
4848,1488
4855,1492
4861,1497
4867,1502
4872,1508
4876,1514
4880,1520
4884,1527
4886,1535
4888,1542
4889,1550
4890,1558
4890,2187
4889,2195
4888,2203
4886,2210
4884,2218
4880,2225
4876,2231
4872,2237
4867,2243
4861,2248
4855,2253
4848,2257
4841,2260
4834,2263
4826,2265
4819,2266
4811,2266
4653,2266
4646,2266
4638,2265
4631,2263
4623,2260
4616,2257
4610,2253
4604,2248
4598,2243
4593,2237
4588,2231
4584,2225
4581,2218
4578,2210
4576,2203
4575,2195
4575,2187
4575,1558
4575,1550
4576,1542
4578,1535
4581,1527
4584,1520
4588,1514
4593,1508
4598,1502
4604,1497
4610,1492
4616,1488
4623,1485
4631,1482
4638,1480
4646,1479
4653,1479
4811,1479
4819,1479
Z" /> 
</g>
<g >
</g>
<g style="fill:#000000; fill-opacity:1.0; 
stroke:#000000; stroke-width:0; stroke-opacity:1; 
stroke-linecap:round; stroke-linejoin:round;">
<path style="fill:#000000; fill-opacity:1.0; 
stroke:#000000; stroke-width:0; stroke-opacity:1; 
stroke-linecap:round; stroke-linejoin:round;fill-rule:evenodd;"
d="M 10918,3040
10928,3042
10937,3044
10946,3047
10954,3051
10962,3056
10970,3062
10977,3068
10983,3075
10989,3083
10994,3091
10998,3099
11001,3108
11003,3117
11004,3126
11005,3136
11005,3328
11004,3337
11003,3346
11001,3356
10998,3364
10994,3373
10989,3381
10983,3389
10977,3396
10970,3402
10962,3408
10954,3412
10946,3416
10937,3420
10928,3422
10918,3423
10909,3424
10550,3424
10540,3423
10531,3422
10522,3420
10513,3416
10504,3412
10496,3408
10489,3402
10482,3396
10475,3389
10470,3381
10465,3373
10461,3364
10458,3356
10456,3346
10454,3337
10454,3328
10454,3136
10454,3126
10456,3117
10458,3108
10461,3099
10465,3091
10470,3083
10475,3075
10482,3068
10489,3062
10496,3056
10504,3051
10513,3047
10522,3044
10531,3042
10540,3040
10550,3040
10909,3040
10918,3040
Z" /> 
<path style="fill:#000000; fill-opacity:1.0; 
stroke:#000000; stroke-width:0; stroke-opacity:1; 
stroke-linecap:round; stroke-linejoin:round;fill-rule:evenodd;"
d="M 10918,3779
10928,3780
10937,3782
10946,3785
10954,3789
10962,3794
10970,3800
10977,3806
10983,3813
10989,3821
10994,3829
10998,3837
11001,3846
11003,3855
11004,3865
11005,3874
11005,4066
11004,4075
11003,4085
11001,4094
10998,4103
10994,4111
10989,4119
10983,4127
10977,4134
10970,4140
10962,4146
10954,4151
10946,4155
10937,4158
10928,4160
10918,4161
10909,4162
10550,4162
10540,4161
10531,4160
10522,4158
10513,4155
10504,4151
10496,4146
10489,4140
10482,4134
10475,4127
10470,4119
10465,4111
10461,4103
10458,4094
10456,4085
10454,4075
10454,4066
10454,3874
10454,3865
10456,3855
10458,3846
10461,3837
10465,3829
10470,3821
10475,3813
10482,3806
10489,3800
10496,3794
10504,3789
10513,3785
10522,3782
10531,3780
10540,3779
10550,3778
10909,3778
10918,3779
Z" /> 
</g>
<g >
</g>
<g style="fill:#000000; fill-opacity:1.0; 
stroke:#000000; stroke-width:0; stroke-opacity:1; 
stroke-linecap:round; stroke-linejoin:round;">
<path style="fill:#000000; fill-opacity:1.0; 
stroke:#000000; stroke-width:0; stroke-opacity:1; 
stroke-linecap:round; stroke-linejoin:round;fill-rule:evenodd;"
d="M 10918,7882
10928,7883
10937,7886
10946,7889
10954,7893
10962,7898
10970,7903
10977,7909
10983,7916
10989,7924
10994,7932
10998,7941
11001,7949
11003,7959
11004,7968
11005,7977
11005,8169
11004,8179
11003,8188
11001,8197
10998,8206
10994,8215
10989,8223
10983,8230
10977,8237
10970,8243
10962,8249
10954,8254
10946,8258
10937,8261
10928,8263
10918,8265
10909,8265
10550,8265
10540,8265
10531,8263
10522,8261
10513,8258
10504,8254
10496,8249
10489,8243
10482,8237
10475,8230
10470,8223
10465,8215
10461,8206
10458,8197
10456,8188
10454,8179
10454,8169
10454,7977
10454,7968
10456,7959
10458,7949
10461,7941
10465,7932
10470,7924
10475,7916
10482,7909
10489,7903
10496,7898
10504,7893
10513,7889
10522,7886
10531,7883
10540,7882
10550,7881
10909,7881
10918,7882
Z" /> 
<path style="fill:#000000; fill-opacity:1.0; 
stroke:#000000; stroke-width:0; stroke-opacity:1; 
stroke-linecap:round; stroke-linejoin:round;fill-rule:evenodd;"
d="M 10918,7144
10928,7145
10937,7147
10946,7151
10954,7155
10962,7159
10970,7165
10977,7171
10983,7178
10989,7186
10994,7194
10998,7202
11001,7211
11003,7220
11004,7230
11005,7239
11005,7431
11004,7441
11003,7450
11001,7459
10998,7468
10994,7476
10989,7484
10983,7492
10977,7499
10970,7505
10962,7511
10954,7516
10946,7520
10937,7523
10928,7525
10918,7527
10909,7527
10550,7527
10540,7527
10531,7525
10522,7523
10513,7520
10504,7516
10496,7511
10489,7505
10482,7499
10475,7492
10470,7484
10465,7476
10461,7468
10458,7459
10456,7450
10454,7441
10454,7431
10454,7239
10454,7230
10456,7220
10458,7211
10461,7202
10465,7194
10470,7186
10475,7178
10482,7171
10489,7165
10496,7159
10504,7155
10513,7151
10522,7147
10531,7145
10540,7144
10550,7143
10909,7143
10918,7144
Z" /> 
</g>
<g >
</g>
<g style="fill:#000000; fill-opacity:1.0; 
stroke:#000000; stroke-width:0; stroke-opacity:1; 
stroke-linecap:round; stroke-linejoin:round;">
<path style="fill:#000000; fill-opacity:1.0; 
stroke:#000000; stroke-width:0; stroke-opacity:1; 
stroke-linecap:round; stroke-linejoin:round;fill-rule:evenodd;"
d="M 8544,5672
8544,6656
7560,6656
7560,5672
8544,5672
Z" /> 
<path style="fill:#000000; fill-opacity:1.0; 
stroke:#000000; stroke-width:0; stroke-opacity:1; 
stroke-linecap:round; stroke-linejoin:round;fill-rule:evenodd;"
d="M 5591,2837
5591,3625
5237,3625
5237,2837
5591,2837
Z" /> 
<path style="fill:#000000; fill-opacity:1.0; 
stroke:#000000; stroke-width:0; stroke-opacity:1; 
stroke-linecap:round; stroke-linejoin:round;fill-rule:evenodd;"
d="M 6182,2837
6182,3625
5828,3625
5828,2837
6182,2837
Z" /> 
<path style="fill:#000000; fill-opacity:1.0; 
stroke:#000000; stroke-width:0; stroke-opacity:1; 
stroke-linecap:round; stroke-linejoin:round;fill-rule:evenodd;"
d="M 6773,2837
6773,3625
6418,3625
6418,2837
6773,2837
Z" /> 
<path style="fill:#000000; fill-opacity:1.0; 
stroke:#000000; stroke-width:0; stroke-opacity:1; 
stroke-linecap:round; stroke-linejoin:round;fill-rule:evenodd;"
d="M 7363,2837
7363,3625
7009,3625
7009,2837
7363,2837
Z" /> 
<path style="fill:#000000; fill-opacity:1.0; 
stroke:#000000; stroke-width:0; stroke-opacity:1; 
stroke-linecap:round; stroke-linejoin:round;fill-rule:evenodd;"
d="M 7954,2837
7954,3625
7599,3625
7599,2837
7954,2837
Z" /> 
<path style="fill:#000000; fill-opacity:1.0; 
stroke:#000000; stroke-width:0; stroke-opacity:1; 
stroke-linecap:round; stroke-linejoin:round;fill-rule:evenodd;"
d="M 8544,2837
8544,3625
8190,3625
8190,2837
8544,2837
Z" /> 
<path style="fill:#000000; fill-opacity:1.0; 
stroke:#000000; stroke-width:0; stroke-opacity:1; 
stroke-linecap:round; stroke-linejoin:round;fill-rule:evenodd;"
d="M 9135,2837
9135,3625
8780,3625
8780,2837
9135,2837
Z" /> 
<path style="fill:#000000; fill-opacity:1.0; 
stroke:#000000; stroke-width:0; stroke-opacity:1; 
stroke-linecap:round; stroke-linejoin:round;fill-rule:evenodd;"
d="M 9725,2837
9725,3625
9371,3625
9371,2837
9725,2837
Z" /> 
<path style="fill:#000000; fill-opacity:1.0; 
stroke:#000000; stroke-width:0; stroke-opacity:1; 
stroke-linecap:round; stroke-linejoin:round;fill-rule:evenodd;"
d="M 9725,7680
9725,8467
9371,8467
9371,7680
9725,7680
Z" /> 
<path style="fill:#000000; fill-opacity:1.0; 
stroke:#000000; stroke-width:0; stroke-opacity:1; 
stroke-linecap:round; stroke-linejoin:round;fill-rule:evenodd;"
d="M 9135,7680
9135,8467
8780,8467
8780,7680
9135,7680
Z" /> 
<path style="fill:#000000; fill-opacity:1.0; 
stroke:#000000; stroke-width:0; stroke-opacity:1; 
stroke-linecap:round; stroke-linejoin:round;fill-rule:evenodd;"
d="M 8544,7680
8544,8467
8190,8467
8190,7680
8544,7680
Z" /> 
<path style="fill:#000000; fill-opacity:1.0; 
stroke:#000000; stroke-width:0; stroke-opacity:1; 
stroke-linecap:round; stroke-linejoin:round;fill-rule:evenodd;"
d="M 7954,7680
7954,8467
7599,8467
7599,7680
7954,7680
Z" /> 
<path style="fill:#000000; fill-opacity:1.0; 
stroke:#000000; stroke-width:0; stroke-opacity:1; 
stroke-linecap:round; stroke-linejoin:round;fill-rule:evenodd;"
d="M 7363,7680
7363,8467
7009,8467
7009,7680
7363,7680
Z" /> 
<path style="fill:#000000; fill-opacity:1.0; 
stroke:#000000; stroke-width:0; stroke-opacity:1; 
stroke-linecap:round; stroke-linejoin:round;fill-rule:evenodd;"
d="M 6773,7680
6773,8467
6418,8467
6418,7680
6773,7680
Z" /> 
<path style="fill:#000000; fill-opacity:1.0; 
stroke:#000000; stroke-width:0; stroke-opacity:1; 
stroke-linecap:round; stroke-linejoin:round;fill-rule:evenodd;"
d="M 6182,7680
6182,8467
5828,8467
5828,7680
6182,7680
Z" /> 
</g>
<g >
</g>
<g >
</g>
<g >
</g>
<g style="fill:#000000; fill-opacity:1.0; 
stroke:#000000; stroke-width:0; stroke-opacity:1; 
stroke-linecap:round; stroke-linejoin:round;">
<path style="fill:#000000; fill-opacity:1.0; 
stroke:#000000; stroke-width:0; stroke-opacity:1; 
stroke-linecap:round; stroke-linejoin:round;fill-rule:evenodd;"
d="M 12717,1273
12727,1274
12736,1276
12745,1279
12753,1283
12761,1288
12769,1294
12776,1300
12782,1307
12788,1315
12793,1323
12797,1331
12800,1340
12802,1349
12804,1359
12804,1368
12804,1560
12804,1569
12802,1579
12800,1588
12797,1597
12793,1605
12788,1613
12782,1621
12776,1628
12769,1634
12761,1640
12753,1645
12745,1649
12736,1652
12727,1654
12717,1656
12708,1656
12349,1656
12339,1656
12330,1654
12321,1652
12312,1649
12304,1645
12296,1640
12288,1634
12281,1628
12275,1621
12269,1613
12264,1605
12260,1597
12257,1588
12255,1579
12253,1569
12253,1560
12253,1368
12253,1359
12255,1349
12257,1340
12260,1331
12264,1323
12269,1315
12275,1307
12281,1300
12288,1294
12296,1288
12304,1283
12312,1279
12321,1276
12330,1274
12339,1273
12349,1272
12708,1272
12717,1273
Z" /> 
<path style="fill:#000000; fill-opacity:1.0; 
stroke:#000000; stroke-width:0; stroke-opacity:1; 
stroke-linecap:round; stroke-linejoin:round;fill-rule:evenodd;"
d="M 12717,2011
12727,2012
12736,2014
12745,2018
12753,2022
12761,2026
12769,2032
12776,2038
12782,2045
12788,2053
12793,2061
12797,2070
12800,2078
12802,2088
12804,2097
12804,2106
12804,2298
12804,2308
12802,2317
12800,2326
12797,2335
12793,2343
12788,2352
12782,2359
12776,2366
12769,2372
12761,2378
12753,2383
12745,2387
12736,2390
12727,2392
12717,2394
12708,2394
12349,2394
12339,2394
12330,2392
12321,2390
12312,2387
12304,2383
12296,2378
12288,2372
12281,2366
12275,2359
12269,2352
12264,2343
12260,2335
12257,2326
12255,2317
12253,2308
12253,2298
12253,2106
12253,2097
12255,2088
12257,2078
12260,2070
12264,2061
12269,2053
12275,2045
12281,2038
12288,2032
12296,2026
12304,2022
12312,2018
12321,2014
12330,2012
12339,2011
12349,2010
12708,2010
12717,2011
Z" /> 
</g>
<g >
</g>
<g style="fill:#000000; fill-opacity:1.0; 
stroke:#000000; stroke-width:0; stroke-opacity:1; 
stroke-linecap:round; stroke-linejoin:round;">
<path style="fill:#000000; fill-opacity:1.0; 
stroke:#000000; stroke-width:0; stroke-opacity:1; 
stroke-linecap:round; stroke-linejoin:round;fill-rule:evenodd;"
d="M 15155,2011
15164,2012
15173,2014
15182,2018
15190,2022
15198,2026
15206,2032
15213,2038
15219,2045
15225,2053
15230,2061
15234,2070
15237,2078
15239,2088
15241,2097
15241,2106
15241,2298
15241,2308
15239,2317
15237,2326
15234,2335
15230,2343
15225,2352
15219,2359
15213,2366
15206,2372
15198,2378
15190,2383
15182,2387
15173,2390
15164,2392
15155,2394
15145,2394
14786,2394
14776,2394
14767,2392
14758,2390
14749,2387
14741,2383
14733,2378
14725,2372
14718,2366
14712,2359
14706,2352
14701,2343
14697,2335
14694,2326
14692,2317
14690,2308
14690,2298
14690,2106
14690,2097
14692,2088
14694,2078
14697,2070
14701,2061
14706,2053
14712,2045
14718,2038
14725,2032
14733,2026
14741,2022
14749,2018
14758,2014
14767,2012
14776,2011
14786,2010
15145,2010
15155,2011
Z" /> 
<path style="fill:#000000; fill-opacity:1.0; 
stroke:#000000; stroke-width:0; stroke-opacity:1; 
stroke-linecap:round; stroke-linejoin:round;fill-rule:evenodd;"
d="M 15155,1273
15164,1274
15173,1276
15182,1279
15190,1283
15198,1288
15206,1294
15213,1300
15219,1307
15225,1315
15230,1323
15234,1331
15237,1340
15239,1349
15241,1359
15241,1368
15241,1560
15241,1569
15239,1579
15237,1588
15234,1597
15230,1605
15225,1613
15219,1621
15213,1628
15206,1634
15198,1640
15190,1645
15182,1649
15173,1652
15164,1654
15155,1656
15145,1656
14786,1656
14776,1656
14767,1654
14758,1652
14749,1649
14741,1645
14733,1640
14725,1634
14718,1628
14712,1621
14706,1613
14701,1605
14697,1597
14694,1588
14692,1579
14690,1569
14690,1560
14690,1368
14690,1359
14692,1349
14694,1340
14697,1331
14701,1323
14706,1315
14712,1307
14718,1300
14725,1294
14733,1288
14741,1283
14749,1279
14758,1276
14767,1274
14776,1273
14786,1272
15145,1272
15155,1273
Z" /> 
</g>
<g >
</g>
<g style="fill:#000000; fill-opacity:1.0; 
stroke:#000000; stroke-width:0; stroke-opacity:1; 
stroke-linecap:round; stroke-linejoin:round;">
<path style="fill:#000000; fill-opacity:1.0; 
stroke:#000000; stroke-width:0; stroke-opacity:1; 
stroke-linecap:round; stroke-linejoin:round;fill-rule:evenodd;"
d="M 13962,4280
13962,4024
14379,4024
14379,4280
13962,4280
Z" /> 
<path style="fill:#000000; fill-opacity:1.0; 
stroke:#000000; stroke-width:0; stroke-opacity:1; 
stroke-linecap:round; stroke-linejoin:round;fill-rule:evenodd;"
d="M 13962,3906
13962,3650
14379,3650
14379,3906
13962,3906
Z" /> 
<path style="fill:#000000; fill-opacity:1.0; 
stroke:#000000; stroke-width:0; stroke-opacity:1; 
stroke-linecap:round; stroke-linejoin:round;fill-rule:evenodd;"
d="M 13962,4654
13962,4398
14379,4398
14379,4654
13962,4654
Z" /> 
<path style="fill:#000000; fill-opacity:1.0; 
stroke:#000000; stroke-width:0; stroke-opacity:1; 
stroke-linecap:round; stroke-linejoin:round;fill-rule:evenodd;"
d="M 13095,4654
13095,4398
13513,4398
13513,4654
13095,4654
Z" /> 
<path style="fill:#000000; fill-opacity:1.0; 
stroke:#000000; stroke-width:0; stroke-opacity:1; 
stroke-linecap:round; stroke-linejoin:round;fill-rule:evenodd;"
d="M 13095,4280
13095,4024
13513,4024
13513,4280
13095,4280
Z" /> 
<path style="fill:#000000; fill-opacity:1.0; 
stroke:#000000; stroke-width:0; stroke-opacity:1; 
stroke-linecap:round; stroke-linejoin:round;fill-rule:evenodd;"
d="M 13095,3906
13095,3650
13513,3650
13513,3906
13095,3906
Z" /> 
</g>
<g >
</g>
<g style="fill:#000000; fill-opacity:1.0; 
stroke:#000000; stroke-width:0; stroke-opacity:1; 
stroke-linecap:round; stroke-linejoin:round;">
<path style="fill:#000000; fill-opacity:1.0; 
stroke:#000000; stroke-width:0; stroke-opacity:1; 
stroke-linecap:round; stroke-linejoin:round;fill-rule:evenodd;"
d="M 13964,1991
13964,1676
14318,1676
14318,1991
13964,1991
Z" /> 
<path style="fill:#000000; fill-opacity:1.0; 
stroke:#000000; stroke-width:0; stroke-opacity:1; 
stroke-linecap:round; stroke-linejoin:round;fill-rule:evenodd;"
d="M 13176,2365
13176,2050
13530,2050
13530,2365
13176,2365
Z" /> 
<path style="fill:#000000; fill-opacity:1.0; 
stroke:#000000; stroke-width:0; stroke-opacity:1; 
stroke-linecap:round; stroke-linejoin:round;fill-rule:evenodd;"
d="M 13176,1617
13176,1302
13530,1302
13530,1617
13176,1617
Z" /> 
</g>
<g >
</g>
<g style="fill:#000000; fill-opacity:1.0; 
stroke:#000000; stroke-width:0; stroke-opacity:1; 
stroke-linecap:round; stroke-linejoin:round;">
<path style="fill:#000000; fill-opacity:1.0; 
stroke:#000000; stroke-width:0; stroke-opacity:1; 
stroke-linecap:round; stroke-linejoin:round;fill-rule:evenodd;"
d="M 12714,3586
12723,3587
12732,3589
12741,3592
12749,3596
12757,3601
12765,3607
12772,3613
12778,3620
12784,3628
12789,3636
12793,3644
12796,3653
12798,3662
12800,3672
12800,3681
12800,3873
12800,3882
12798,3892
12796,3901
12793,3910
12789,3918
12784,3926
12778,3934
12772,3941
12765,3947
12757,3953
12749,3958
12741,3962
12732,3965
12723,3967
12714,3969
12704,3969
12345,3969
12335,3969
12326,3967
12317,3965
12308,3962
12300,3958
12292,3953
12284,3947
12277,3941
12271,3934
12265,3926
12260,3918
12256,3910
12253,3901
12251,3892
12249,3882
12249,3873
12249,3681
12249,3672
12251,3662
12253,3653
12256,3644
12260,3636
12265,3628
12271,3620
12277,3613
12284,3607
12292,3601
12300,3596
12308,3592
12317,3589
12326,3587
12335,3586
12345,3585
12704,3585
12714,3586
Z" /> 
<path style="fill:#000000; fill-opacity:1.0; 
stroke:#000000; stroke-width:0; stroke-opacity:1; 
stroke-linecap:round; stroke-linejoin:round;fill-rule:evenodd;"
d="M 12714,2847
12723,2849
12732,2851
12741,2854
12749,2858
12757,2863
12765,2869
12772,2875
12778,2882
12784,2890
12789,2898
12793,2906
12796,2915
12798,2924
12800,2933
12800,2943
12800,3135
12800,3144
12798,3154
12796,3163
12793,3172
12789,3180
12784,3188
12778,3196
12772,3203
12765,3209
12757,3215
12749,3219
12741,3223
12732,3227
12723,3229
12714,3230
12704,3231
12345,3231
12335,3230
12326,3229
12317,3227
12308,3223
12300,3219
12292,3215
12284,3209
12277,3203
12271,3196
12265,3188
12260,3180
12256,3172
12253,3163
12251,3154
12249,3144
12249,3135
12249,2943
12249,2933
12251,2924
12253,2915
12256,2906
12260,2898
12265,2890
12271,2882
12277,2875
12284,2869
12292,2863
12300,2858
12308,2854
12317,2851
12326,2849
12335,2847
12345,2847
12704,2847
12714,2847
Z" /> 
</g>
<g >
</g>
<g style="fill:#000000; fill-opacity:1.0; 
stroke:#000000; stroke-width:0; stroke-opacity:1; 
stroke-linecap:round; stroke-linejoin:round;">
<path style="fill:#000000; fill-opacity:1.0; 
stroke:#000000; stroke-width:0; stroke-opacity:1; 
stroke-linecap:round; stroke-linejoin:round;fill-rule:evenodd;"
d="M 15355,3591
15365,3593
15374,3595
15383,3598
15391,3602
15399,3607
15407,3613
15414,3619
15420,3626
15426,3634
15431,3642
15435,3650
15438,3659
15440,3668
15441,3678
15442,3687
15442,3879
15441,3888
15440,3898
15438,3907
15435,3916
15431,3924
15426,3932
15420,3940
15414,3947
15407,3953
15399,3959
15391,3964
15383,3968
15374,3971
15365,3973
15355,3974
15346,3975
14987,3975
14977,3974
14968,3973
14959,3971
14950,3968
14941,3964
14933,3959
14926,3953
14919,3947
14912,3940
14907,3932
14902,3924
14898,3916
14895,3907
14893,3898
14891,3888
14891,3879
14891,3687
14891,3678
14893,3668
14895,3659
14898,3650
14902,3642
14907,3634
14912,3626
14919,3619
14926,3613
14933,3607
14941,3602
14950,3598
14959,3595
14968,3593
14977,3591
14987,3591
15346,3591
15355,3591
Z" /> 
<path style="fill:#000000; fill-opacity:1.0; 
stroke:#000000; stroke-width:0; stroke-opacity:1; 
stroke-linecap:round; stroke-linejoin:round;fill-rule:evenodd;"
d="M 15355,4330
15365,4331
15374,4333
15383,4337
15391,4341
15399,4345
15407,4351
15414,4357
15420,4364
15426,4372
15431,4380
15435,4388
15438,4397
15440,4406
15441,4416
15442,4425
15442,4617
15441,4627
15440,4636
15438,4645
15435,4654
15431,4662
15426,4670
15420,4678
15414,4685
15407,4691
15399,4697
15391,4702
15383,4706
15374,4709
15365,4711
15355,4713
15346,4713
14987,4713
14977,4713
14968,4711
14959,4709
14950,4706
14941,4702
14933,4697
14926,4691
14919,4685
14912,4678
14907,4670
14902,4662
14898,4654
14895,4645
14893,4636
14891,4627
14891,4617
14891,4425
14891,4416
14893,4406
14895,4397
14898,4388
14902,4380
14907,4372
14912,4364
14919,4357
14926,4351
14933,4345
14941,4341
14950,4337
14959,4333
14968,4331
14977,4330
14987,4329
15346,4329
15355,4330
Z" /> 
</g>
<g >
</g>
<g style="fill:#000000; fill-opacity:1.0; 
stroke:#000000; stroke-width:0; stroke-opacity:1; 
stroke-linecap:round; stroke-linejoin:round;">
<path style="fill:#000000; fill-opacity:1.0; 
stroke:#000000; stroke-width:0; stroke-opacity:1; 
stroke-linecap:round; stroke-linejoin:round;fill-rule:evenodd;"
d="M 12729,6649
12739,6650
12748,6652
12757,6655
12765,6659
12773,6664
12781,6670
12788,6676
12794,6683
12800,6691
12805,6699
12809,6707
12812,6716
12814,6725
12815,6735
12816,6744
12816,6936
12815,6945
12814,6955
12812,6964
12809,6973
12805,6981
12800,6989
12794,6997
12788,7004
12781,7010
12773,7016
12765,7021
12757,7025
12748,7028
12739,7030
12729,7032
12720,7032
12361,7032
12351,7032
12342,7030
12333,7028
12324,7025
12315,7021
12307,7016
12300,7010
12293,7004
12286,6997
12281,6989
12276,6981
12272,6973
12269,6964
12267,6955
12265,6945
12265,6936
12265,6744
12265,6735
12267,6725
12269,6716
12272,6707
12276,6699
12281,6691
12286,6683
12293,6676
12300,6670
12307,6664
12315,6659
12324,6655
12333,6652
12342,6650
12351,6649
12361,6648
12720,6648
12729,6649
Z" /> 
<path style="fill:#000000; fill-opacity:1.0; 
stroke:#000000; stroke-width:0; stroke-opacity:1; 
stroke-linecap:round; stroke-linejoin:round;fill-rule:evenodd;"
d="M 12729,5910
12739,5912
12748,5914
12757,5917
12765,5921
12773,5926
12781,5932
12788,5938
12794,5945
12800,5953
12805,5961
12809,5969
12812,5978
12814,5987
12815,5996
12816,6006
12816,6198
12815,6207
12814,6217
12812,6226
12809,6235
12805,6243
12800,6251
12794,6259
12788,6266
12781,6272
12773,6278
12765,6282
12757,6286
12748,6290
12739,6292
12729,6293
12720,6294
12361,6294
12351,6293
12342,6292
12333,6290
12324,6286
12315,6282
12307,6278
12300,6272
12293,6266
12286,6259
12281,6251
12276,6243
12272,6235
12269,6226
12267,6217
12265,6207
12265,6198
12265,6006
12265,5996
12267,5987
12269,5978
12272,5969
12276,5961
12281,5953
12286,5945
12293,5938
12300,5932
12307,5926
12315,5921
12324,5917
12333,5914
12342,5912
12351,5910
12361,5910
12720,5910
12729,5910
Z" /> 
</g>
<g >
</g>
<g style="fill:#000000; fill-opacity:1.0; 
stroke:#000000; stroke-width:0; stroke-opacity:1; 
stroke-linecap:round; stroke-linejoin:round;">
<path style="fill:#000000; fill-opacity:1.0; 
stroke:#000000; stroke-width:0; stroke-opacity:1; 
stroke-linecap:round; stroke-linejoin:round;fill-rule:evenodd;"
d="M 15241,5761
15250,5762
15260,5764
15268,5768
15277,5772
15285,5776
15293,5782
15300,5788
15306,5795
15312,5803
15316,5811
15320,5820
15324,5828
15326,5838
15327,5847
15328,5856
15328,6048
15327,6058
15326,6067
15324,6076
15320,6085
15316,6093
15312,6102
15306,6109
15300,6116
15293,6122
15285,6128
15277,6133
15268,6137
15260,6140
15250,6142
15241,6144
15232,6144
14872,6144
14863,6144
14854,6142
14845,6140
14836,6137
14827,6133
14819,6128
14812,6122
14805,6116
14798,6109
14793,6102
14788,6093
14784,6085
14781,6076
14778,6067
14777,6058
14776,6048
14776,5856
14777,5847
14778,5838
14781,5828
14784,5820
14788,5811
14793,5803
14798,5795
14805,5788
14812,5782
14819,5776
14827,5772
14836,5768
14845,5764
14854,5762
14863,5761
14872,5760
15232,5760
15241,5761
Z" /> 
<path style="fill:#000000; fill-opacity:1.0; 
stroke:#000000; stroke-width:0; stroke-opacity:1; 
stroke-linecap:round; stroke-linejoin:round;fill-rule:evenodd;"
d="M 15241,6499
15250,6500
15260,6503
15268,6506
15277,6510
15285,6515
15293,6520
15300,6527
15306,6534
15312,6541
15316,6549
15320,6558
15324,6567
15326,6576
15327,6585
15328,6594
15328,6786
15327,6796
15326,6805
15324,6814
15320,6823
15316,6832
15312,6840
15306,6847
15300,6854
15293,6861
15285,6866
15277,6871
15268,6875
15260,6878
15250,6881
15241,6882
15232,6882
14872,6882
14863,6882
14854,6881
14845,6878
14836,6875
14827,6871
14819,6866
14812,6861
14805,6854
14798,6847
14793,6840
14788,6832
14784,6823
14781,6814
14778,6805
14777,6796
14776,6786
14776,6594
14777,6585
14778,6576
14781,6567
14784,6558
14788,6549
14793,6541
14798,6534
14805,6527
14812,6520
14819,6515
14827,6510
14836,6506
14845,6503
14854,6500
14863,6499
14872,6499
15232,6499
15241,6499
Z" /> 
</g>
<g >
</g>
<g style="fill:#000000; fill-opacity:1.0; 
stroke:#000000; stroke-width:0; stroke-opacity:1; 
stroke-linecap:round; stroke-linejoin:round;">
<path style="fill:#000000; fill-opacity:1.0; 
stroke:#000000; stroke-width:0; stroke-opacity:1; 
stroke-linecap:round; stroke-linejoin:round;fill-rule:evenodd;"
d="M 12714,5074
12723,5075
12732,5077
12741,5081
12749,5085
12757,5089
12765,5095
12772,5101
12778,5108
12784,5116
12789,5124
12793,5133
12796,5141
12798,5151
12800,5160
12800,5169
12800,5361
12800,5371
12798,5380
12796,5389
12793,5398
12789,5406
12784,5415
12778,5422
12772,5429
12765,5435
12757,5441
12749,5446
12741,5450
12732,5453
12723,5455
12714,5457
12704,5457
12345,5457
12335,5457
12326,5455
12317,5453
12308,5450
12300,5446
12292,5441
12284,5435
12277,5429
12271,5422
12265,5415
12260,5406
12256,5398
12253,5389
12251,5380
12249,5371
12249,5361
12249,5169
12249,5160
12251,5151
12253,5141
12256,5133
12260,5124
12265,5116
12271,5108
12277,5101
12284,5095
12292,5089
12300,5085
12308,5081
12317,5077
12326,5075
12335,5074
12345,5073
12704,5073
12714,5074
Z" /> 
<path style="fill:#000000; fill-opacity:1.0; 
stroke:#000000; stroke-width:0; stroke-opacity:1; 
stroke-linecap:round; stroke-linejoin:round;fill-rule:evenodd;"
d="M 12714,4336
12723,4337
12732,4339
12741,4342
12749,4346
12757,4351
12765,4357
12772,4363
12778,4370
12784,4378
12789,4386
12793,4394
12796,4403
12798,4412
12800,4422
12800,4431
12800,4623
12800,4632
12798,4642
12796,4651
12793,4660
12789,4668
12784,4676
12778,4684
12772,4691
12765,4697
12757,4703
12749,4708
12741,4712
12732,4715
12723,4717
12714,4719
12704,4719
12345,4719
12335,4719
12326,4717
12317,4715
12308,4712
12300,4708
12292,4703
12284,4697
12277,4691
12271,4684
12265,4676
12260,4668
12256,4660
12253,4651
12251,4642
12249,4632
12249,4623
12249,4431
12249,4422
12251,4412
12253,4403
12256,4394
12260,4386
12265,4378
12271,4370
12277,4363
12284,4357
12292,4351
12300,4346
12308,4342
12317,4339
12326,4337
12335,4336
12345,4335
12704,4335
12714,4336
Z" /> 
</g>
<g >
</g>
<g style="fill:#000000; fill-opacity:1.0; 
stroke:#000000; stroke-width:0; stroke-opacity:1; 
stroke-linecap:round; stroke-linejoin:round;">
<path style="fill:#000000; fill-opacity:1.0; 
stroke:#000000; stroke-width:0; stroke-opacity:1; 
stroke-linecap:round; stroke-linejoin:round;fill-rule:evenodd;"
d="M 14190,7491
14190,8278
13934,8278
13934,7491
14190,7491
Z" /> 
<path style="fill:#000000; fill-opacity:1.0; 
stroke:#000000; stroke-width:0; stroke-opacity:1; 
stroke-linecap:round; stroke-linejoin:round;fill-rule:evenodd;"
d="M 13658,7491
13658,8278
13402,8278
13402,7491
13658,7491
Z" /> 
</g>
<g >
</g>
<g style="fill:#000000; fill-opacity:1.0; 
stroke:#000000; stroke-width:0; stroke-opacity:1; 
stroke-linecap:round; stroke-linejoin:round;">
<circle cx="13190.4" cy="2857.28" r="157.48" /> 
</g>
<g style="fill:#000000; fill-opacity:1.0; 
stroke:#000000; stroke-width:39.3701; stroke-opacity:1; 
stroke-linecap:round; stroke-linejoin:round;">
</g>
<g style="fill:#000000; fill-opacity:1.0; 
stroke:#000000; stroke-width:0; stroke-opacity:1; 
stroke-linecap:round; stroke-linejoin:round;">
<circle cx="10434.5" cy="1873.03" r="157.48" /> 
</g>
<g style="fill:#000000; fill-opacity:1.0; 
stroke:#000000; stroke-width:39.3701; stroke-opacity:1; 
stroke-linecap:round; stroke-linejoin:round;">
</g>
<g style="fill:#000000; fill-opacity:1.0; 
stroke:#000000; stroke-width:0; stroke-opacity:1; 
stroke-linecap:round; stroke-linejoin:round;">
<circle cx="5611.64" cy="1873.03" r="157.48" /> 
</g>
<g style="fill:#000000; fill-opacity:1.0; 
stroke:#000000; stroke-width:39.3701; stroke-opacity:1; 
stroke-linecap:round; stroke-linejoin:round;">
</g>
<g style="fill:#000000; fill-opacity:1.0; 
stroke:#000000; stroke-width:0; stroke-opacity:1; 
stroke-linecap:round; stroke-linejoin:round;">
<circle cx="15847.9" cy="6597.44" r="157.48" /> 
</g>
<g style="fill:#000000; fill-opacity:1.0; 
stroke:#000000; stroke-width:39.3701; stroke-opacity:1; 
stroke-linecap:round; stroke-linejoin:round;">
</g>
<g style="fill:#000000; fill-opacity:1.0; 
stroke:#000000; stroke-width:0; stroke-opacity:1; 
stroke-linecap:round; stroke-linejoin:round;">
<circle cx="11796.7" cy="1380.91" r="157.48" /> 
</g>
<g style="fill:#000000; fill-opacity:1.0; 
stroke:#000000; stroke-width:39.3701; stroke-opacity:1; 
stroke-linecap:round; stroke-linejoin:round;">
</g>
<g style="fill:#000000; fill-opacity:1.0; 
stroke:#000000; stroke-width:0; stroke-opacity:1; 
stroke-linecap:round; stroke-linejoin:round;">
<circle cx="11796.7" cy="2282.49" r="157.48" /> 
</g>
<g style="fill:#000000; fill-opacity:1.0; 
stroke:#000000; stroke-width:39.3701; stroke-opacity:1; 
stroke-linecap:round; stroke-linejoin:round;">
</g>
<g >
</g>
<g style="fill:#000000; fill-opacity:1.0; 
stroke:#000000; stroke-width:39.3701; stroke-opacity:1; 
stroke-linecap:round; stroke-linejoin:round;">
</g>
<g style="fill:#000000; fill-opacity:1.0; 
stroke:#000000; stroke-width:196.85; stroke-opacity:1; 
stroke-linecap:round; stroke-linejoin:round;">
</g>
<g style="fill:#000000; fill-opacity:0.0; 
stroke:#000000; stroke-width:196.85; stroke-opacity:1; 
stroke-linecap:round; stroke-linejoin:round;">
<path d="M12210 3039
L12525 3039
" />
<path d="M12072 3177
L12210 3039
" />
<path d="M12072 3986
L12072 3177
" />
<path d="M12238 4152
L12072 3986
" />
<path d="M13304 4152
L12238 4152
" />
<path d="M12525 6086
L12540 6102
" />
<path d="M12525 5265
L12525 6086
" />
<path d="M13796 5569
L13796 5975
" />
<path d="M13492 5265
L13796 5569
" />
<path d="M12525 5265
L13492 5265
" />
</g>
<g style="fill:#000000; fill-opacity:0.0; 
stroke:#000000; stroke-width:393.701; stroke-opacity:1; 
stroke-linecap:round; stroke-linejoin:round;">
<path d="M9548 8073
L10729 8073
" />
</g>
<g style="fill:#000000; fill-opacity:0.0; 
stroke:#000000; stroke-width:196.85; stroke-opacity:1; 
stroke-linecap:round; stroke-linejoin:round;">
<path d="M13530 6949
L13422 6841
" />
<path d="M13530 7884
L13530 6949
" />
<path d="M12541 6841
L12540 6840
" />
<path d="M13422 6841
L12541 6841
" />
<path d="M13302 4528
L13304 4526
" />
</g>
<g style="fill:#000000; fill-opacity:0.0; 
stroke:#000000; stroke-width:98.4252; stroke-opacity:1; 
stroke-linecap:round; stroke-linejoin:round;">
<path d="M13863 4152
L13745 4270
" />
<path d="M14170 4152
L13863 4152
" />
<path d="M13611 4526
L13304 4526
" />
<path d="M13745 4392
L13611 4526
" />
<path d="M13745 4270
L13745 4392
" />
<path d="M13348 1464
L13353 1459
" />
<path d="M12528 1464
L13348 1464
" />
</g>
<g style="fill:#000000; fill-opacity:0.0; 
stroke:#000000; stroke-width:196.85; stroke-opacity:1; 
stroke-linecap:round; stroke-linejoin:round;">
<path d="M13303 4527
L13304 4526
" />
<path d="M12525 4527
L13303 4527
" />
<path d="M11796 2282
L11796 2282
" />
<path d="M11880 1464
L11796 1380
" />
<path d="M12528 1464
L11880 1464
" />
</g>
<g style="fill:#000000; fill-opacity:0.0; 
stroke:#000000; stroke-width:393.701; stroke-opacity:1; 
stroke-linecap:round; stroke-linejoin:round;">
<path d="M12540 6840
L12540 7837
" />
<path d="M12304 8073
L12540 7837
" />
<path d="M10729 8073
L12304 8073
" />
</g>
<g style="fill:#000000; fill-opacity:0.0; 
stroke:#000000; stroke-width:196.85; stroke-opacity:1; 
stroke-linecap:round; stroke-linejoin:round;">
<path d="M11744 3970
L11796 4022
" />
<path d="M10729 3970
L11744 3970
" />
<path d="M11796 4022
L11796 2282
" />
<path d="M11796 4114
L11796 4022
" />
<path d="M12055 6840
L11796 6581
" />
<path d="M12540 6840
L12055 6840
" />
<path d="M11815 4527
L11796 4546
" />
<path d="M12525 4527
L11815 4527
" />
<path d="M11796 4546
L11796 6581
" />
<path d="M11796 4022
L11796 4546
" />
<path d="M13302 3776
L13304 3778
" />
<path d="M13303 3777
L13304 3778
" />
<path d="M12525 3777
L13303 3777
" />
<path d="M14651 1464
L14965 1464
" />
<path d="M13856 1464
L14651 1464
" />
<path d="M13786 1534
L13856 1464
" />
<path d="M13786 2971
L13786 1534
" />
<path d="M13304 3453
L13786 2971
" />
<path d="M13304 3778
L13304 3453
" />
</g>
<g style="fill:#000000; fill-opacity:0.0; 
stroke:#000000; stroke-width:98.4252; stroke-opacity:1; 
stroke-linecap:round; stroke-linejoin:round;">
<path d="M14141 2089
L14141 1833
" />
<path d="M14254 2202
L14141 2089
" />
<path d="M14965 2202
L14254 2202
" />
<path d="M16925 2202
L17501 2778
" />
<path d="M14965 2202
L16925 2202
" />
<path d="M17137 4825
L17028 4825
" />
<path d="M17501 2778
L17501 4461
" />
<path d="M17501 4461
L17137 4825
" />
<path d="M8367 3014
L9509 1873
" />
<path d="M9509 1873
L9516 1873
" />
<path d="M8367 3231
L8367 3014
" />
<path d="M13348 2202
L13353 2207
" />
<path d="M12528 2202
L13348 2202
" />
<path d="M10106 1282
L9516 1873
" />
<path d="M11265 1282
L10106 1282
" />
<path d="M12185 2202
L11265 1282
" />
<path d="M12528 2202
L12185 2202
" />
</g>
<g style="fill:#000000; fill-opacity:0.0; 
stroke:#000000; stroke-width:196.85; stroke-opacity:1; 
stroke-linecap:round; stroke-linejoin:round;">
<path d="M14175 4521
L14170 4526
" />
<path d="M15166 4521
L14175 4521
" />
<path d="M14175 3783
L14170 3778
" />
<path d="M15166 3783
L14175 3783
" />
</g>
<g style="fill:#000000; fill-opacity:0.0; 
stroke:#000000; stroke-width:98.4252; stroke-opacity:1; 
stroke-linecap:round; stroke-linejoin:round;">
<path d="M13418 6282
L13544 6408
" />
<path d="M13418 5975
L13418 6282
" />
<path d="M14166 6282
L14166 5975
" />
<path d="M14040 6408
L14166 6282
" />
<path d="M13544 6408
L14040 6408
" />
</g>
<g style="fill:#000000; fill-opacity:0.0; 
stroke:#000000; stroke-width:196.85; stroke-opacity:1; 
stroke-linecap:round; stroke-linejoin:round;">
<path d="M15051 5975
L15052 5974
" />
<path d="M14170 5975
L15051 5975
" />
</g>
<g style="fill:#000000; fill-opacity:0.0; 
stroke:#000000; stroke-width:393.701; stroke-opacity:1; 
stroke-linecap:round; stroke-linejoin:round;">
<path d="M15392 5613
L15052 5952
" />
<path d="M17028 5613
L15392 5613
" />
</g>
<g style="fill:#000000; fill-opacity:0.0; 
stroke:#000000; stroke-width:98.4252; stroke-opacity:1; 
stroke-linecap:round; stroke-linejoin:round;">
<path d="M6595 3014
L7147 2463
" />
<path d="M6595 3231
L6595 3014
" />
<path d="M7858 2463
L8449 1873
" />
<path d="M7147 2463
L7858 2463
" />
<path d="M6005 3014
L6005 3231
" />
<path d="M7147 1873
L6005 3014
" />
<path d="M7449 1873
L7147 1873
" />
</g>
<g style="fill:#000000; fill-opacity:0.0; 
stroke:#000000; stroke-width:196.85; stroke-opacity:1; 
stroke-linecap:round; stroke-linejoin:round;">
<path d="M14062 6949
L14170 6841
" />
<path d="M14062 7884
L14062 6949
" />
</g>
<g style="fill:#000000; fill-opacity:0.0; 
stroke:#000000; stroke-width:98.4252; stroke-opacity:1; 
stroke-linecap:round; stroke-linejoin:round;">
<path d="M6200 2058
L6386 1873
" />
<path d="M5414 2844
L6200 2058
" />
<path d="M5414 3231
L5414 2844
" />
<path d="M8958 3014
L9332 2640
" />
<path d="M8958 3231
L8958 3014
" />
<path d="M9332 2640
L10138 2640
" />
<path d="M10138 2640
L10729 3232
" />
</g>
<g >
</g>
<g style="fill:#000000; fill-opacity:0.0; 
stroke:#000000; stroke-width:98.4252; stroke-opacity:1; 
stroke-linecap:round; stroke-linejoin:round;">
</g>
<g style="fill:#000000; fill-opacity:1.0; 
stroke:#000000; stroke-width:100; stroke-opacity:1; 
stroke-linecap:round; stroke-linejoin:round;">
<path style="fill:#000000; fill-opacity:1.0; 
stroke:#000000; stroke-width:100; stroke-opacity:1; 
stroke-linecap:round; stroke-linejoin:round;fill-rule:evenodd;"
d="M 16870,1447
16869,1459
16874,1509
16889,1558
16912,1602
16945,1642
16984,1674
17028,1697
17077,1712
17114,1716
17127,1717
17139,1716
18248,1716
18248,7935
17139,7935
17127,7933
17114,7935
17077,7938
17028,7953
16984,7977
16945,8009
16912,8048
16889,8093
16874,8141
16869,8191
16870,8204
16870,8604
16531,8604
16614,8549
16717,8446
16798,8325
16853,8190
16882,8048
16882,7902
16853,7759
16798,7625
16717,7504
16614,7401
16493,7320
16358,7264
16215,7236
16070,7236
15927,7264
15793,7320
15672,7401
15569,7504
15488,7625
15432,7759
15404,7902
15404,8048
15432,8190
15488,8325
15569,8446
15672,8549
15754,8604
14618,8604
14618,7076
14637,7091
14680,7114
14727,7129
14776,7134
14940,7132
15002,7070
15002,6740
15102,6740
15102,7070
15165,7132
15328,7134
15377,7129
15424,7114
15467,7091
15505,7060
15537,7022
15560,6979
15574,6931
15579,6882
15578,6803
15515,6740
15102,6740
15002,6740
14994,6740
14994,6640
15002,6640
15002,6633
15102,6633
15102,6640
15515,6640
15578,6578
15579,6499
15574,6450
15560,6402
15537,6359
15505,6321
15472,6294
15475,6291
15518,6239
15550,6180
15569,6115
15575,6057
15575,6056
16623,6056
16650,6071
16715,6090
16782,6097
17275,6097
17342,6090
17407,6071
17467,6039
17520,5995
17563,5943
17595,5883
17614,5818
17621,5750
17621,5475
17614,5407
17595,5342
17563,5282
17520,5230
17467,5187
17461,5184
17480,5169
17540,5095
17585,5011
17613,4920
17622,4825
17616,4765
17700,4681
17711,4671
17748,4626
17776,4575
17793,4519
17797,4476
17797,4476
17798,4461
17797,4447
17797,2793
17798,2778
17797,2761
17793,2720
17776,2664
17757,2628
17748,2613
17721,2579
17711,2568
17700,2558
17145,2003
17135,1992
17090,1955
17039,1927
16983,1910
16940,1906
16940,1906
16925,1905
16911,1906
15424,1906
15388,1863
15352,1833
15388,1803
15431,1751
15463,1692
15482,1627
15489,1560
15489,1368
15482,1301
15463,1236
15431,1177
15388,1125
15336,1082
15277,1050
15264,1047
16870,1047
16870,1447
Z" /> 
<path style="fill:#000000; fill-opacity:1.0; 
stroke:#000000; stroke-width:100; stroke-opacity:1; 
stroke-linecap:round; stroke-linejoin:round;fill-rule:evenodd;"
d="M 9918,1054
9896,1072
9887,1083
9715,1254
9658,1237
9594,1231
9437,1231
9373,1237
9312,1256
9255,1286
9206,1326
9165,1376
9135,1433
9116,1494
9110,1558
9110,1852
9027,1936
9033,1873
9022,1759
8989,1649
8935,1548
8862,1459
8773,1387
8672,1333
8563,1299
8477,1291
8420,1291
8335,1299
8225,1333
8124,1387
8036,1459
8022,1475
8013,1443
7990,1400
7959,1362
7921,1332
7878,1309
7832,1295
7783,1290
7114,1290
7066,1295
7019,1309
6976,1332
6939,1362
6908,1400
6885,1443
6871,1489
6866,1538
6866,1734
6791,1809
6791,1558
6785,1494
6766,1433
6736,1376
6696,1326
6646,1286
6590,1256
6528,1237
6464,1231
6307,1231
6243,1237
6182,1256
6125,1286
6076,1326
6035,1376
6005,1433
5987,1494
5980,1558
5980,1859
5251,2589
5237,2589
5189,2594
5142,2608
5099,2631
5062,2662
5031,2699
5008,2742
4994,2789
4989,2837
4989,3625
4994,3673
5008,3719
5031,3762
5062,3800
5099,3831
5142,3854
5189,3868
5237,3873
5591,3873
5640,3868
5686,3854
5710,3841
5733,3854
5779,3868
5828,3873
6182,3873
6230,3868
6277,3854
6300,3841
6323,3854
6370,3868
6418,3873
6773,3873
6821,3868
6867,3854
6891,3841
6914,3854
6960,3868
7009,3873
7363,3873
7412,3868
7458,3854
7481,3841
7504,3854
7551,3868
7599,3873
7954,3873
8002,3868
8049,3854
8072,3841
8095,3854
8141,3868
8190,3873
8544,3873
8593,3868
8639,3854
8662,3841
8686,3854
8732,3868
8780,3873
9135,3873
9183,3868
9230,3854
9250,3843
9275,3857
9322,3871
9371,3876
9436,3875
9498,3812
9498,3281
9598,3281
9598,3812
9661,3875
9725,3876
9774,3871
9821,3857
9865,3833
9903,3802
9934,3764
9957,3721
9972,3674
9977,3625
9975,3343
9913,3281
9598,3281
9498,3281
9490,3281
9490,3181
9498,3181
9498,3173
9598,3173
9598,3181
9913,3181
9975,3118
9976,2936
10015,2936
10206,3128
10206,3136
10206,3328
10212,3395
10232,3459
10264,3519
10306,3571
10343,3601
10306,3631
10264,3683
10232,3742
10212,3807
10206,3874
10206,4066
10212,4133
10232,4198
10264,4257
10306,4309
10359,4352
10418,4384
10483,4403
10550,4410
10909,4410
10976,4403
11041,4384
11100,4352
11145,4315
11451,4315
11451,4529
11449,4546
11451,4563
11451,6564
11449,6581
11456,6649
11476,6714
11508,6774
11540,6813
11540,6813
11551,6827
11564,6837
11799,7072
11810,7085
11862,7129
11892,7145
11922,7161
11987,7180
12055,7187
12072,7185
12097,7185
12097,7630
11233,7630
11237,7623
11251,7576
11256,7527
11255,7448
11192,7385
10779,7385
10779,7393
10679,7393
10679,7385
10266,7385
10204,7448
10202,7527
10207,7576
10222,7623
10225,7630
9968,7630
9954,7585
9932,7542
9901,7504
9863,7473
9820,7450
9774,7436
9725,7432
9371,7432
9323,7436
9276,7450
9253,7463
9230,7450
9183,7436
9135,7432
8780,7432
8732,7436
8686,7450
8662,7463
8639,7450
8593,7436
8544,7432
8190,7432
8141,7436
8095,7450
8072,7463
8049,7450
8002,7436
7954,7432
7599,7432
7551,7436
7504,7450
7481,7463
7458,7450
7412,7436
7363,7432
7009,7432
6960,7436
6914,7450
6891,7463
6867,7450
6821,7436
6773,7432
6418,7432
6370,7436
6323,7450
6300,7463
6277,7450
6230,7436
6182,7432
5828,7432
5779,7436
5733,7450
5690,7473
5652,7504
5621,7542
5599,7585
5584,7631
5580,7680
5580,8467
5584,8515
5599,8562
5621,8604
3988,8604
3988,7143
10202,7143
10204,7223
10266,7285
10679,7285
10679,6956
10779,6956
10779,7285
11192,7285
11255,7223
11256,7143
11251,7094
11237,7047
11214,7004
11182,6966
11144,6934
11101,6911
11054,6897
11005,6892
10842,6893
10779,6956
10679,6956
10617,6893
10454,6892
10405,6897
10358,6911
10314,6934
10276,6966
10245,7004
10222,7047
10207,7094
10202,7143
3988,7143
3988,6656
7309,6656
7314,6705
7328,6752
7351,6796
7382,6834
7420,6865
7464,6888
7511,6902
7560,6907
7940,6906
8002,6843
8002,6214
8102,6214
8102,6843
8165,6906
8544,6907
8593,6902
8640,6888
8684,6865
8722,6834
8753,6796
8776,6752
8791,6705
8795,6656
8794,6276
8732,6214
8102,6214
8002,6214
7372,6214
7310,6276
7309,6656
3988,6656
3988,5672
7309,5672
7310,6051
7372,6114
8002,6114
8002,5484
8102,5484
8102,6114
8732,6114
8794,6051
8795,5672
8791,5623
8776,5576
8753,5532
8722,5494
8684,5463
8640,5440
8593,5425
8544,5421
8165,5422
8102,5484
8002,5484
7940,5422
7560,5421
7511,5425
7464,5440
7420,5463
7382,5494
7351,5532
7328,5576
7314,5623
7309,5672
3988,5672
3988,2266
4324,2266
4328,2315
4343,2362
4366,2406
4397,2444
4435,2475
4479,2498
4526,2513
4575,2517
4620,2516
4682,2454
4682,1923
4782,1923
4782,2454
4845,2516
4890,2517
4939,2513
4986,2498
5029,2475
5067,2444
5099,2406
5122,2362
5136,2315
5141,2266
5140,1985
5077,1923
4782,1923
4682,1923
4387,1923
4325,1985
4324,2266
3988,2266
3988,1479
4324,1479
4325,1760
4387,1823
4682,1823
4682,1291
4782,1291
4782,1823
5077,1823
5140,1760
5141,1479
5136,1430
5122,1383
5099,1339
5067,1301
5029,1270
4986,1247
4939,1232
4890,1228
4845,1229
4782,1291
4682,1291
4620,1229
4575,1228
4526,1232
4479,1247
4435,1270
4397,1301
4366,1339
4343,1383
4328,1430
4324,1479
3988,1479
3988,1047
9926,1047
9918,1054
Z" /> 
<path style="fill:#000000; fill-opacity:1.0; 
stroke:#000000; stroke-width:100; stroke-opacity:1; 
stroke-linecap:round; stroke-linejoin:round;fill-rule:evenodd;"
d="M 14140,2477
14196,2494
14239,2498
14239,2498
14254,2500
14268,2498
14507,2498
14543,2541
14595,2584
14654,2616
14719,2636
14786,2642
15145,2642
15212,2636
15277,2616
15336,2584
15388,2541
15424,2498
16802,2498
17205,2901
17205,3555
17187,3552
17078,3552
17078,3988
17086,3988
17086,4088
17078,4088
17078,4096
16978,4096
16978,4088
16499,4088
16450,4163
16452,4178
16488,4266
16541,4346
16608,4414
16636,4433
16577,4482
16517,4556
16472,4640
16444,4731
16435,4825
16444,4920
16472,5011
16517,5095
16577,5169
16578,5169
15413,5169
15392,5167
15370,5169
15370,5169
15305,5175
15221,5201
15144,5242
15093,5284
15093,5284
15076,5297
15062,5314
14864,5513
14805,5519
14741,5538
14681,5570
14629,5613
14616,5630
14505,5630
14504,5628
14474,5591
14436,5560
14393,5537
14347,5523
14298,5518
14042,5518
13994,5523
13989,5525
13973,5520
13924,5515
13909,5516
13846,5579
13846,5616
13836,5628
13813,5671
13799,5718
13796,5746
13793,5718
13779,5671
13756,5628
13746,5616
13746,5579
13684,5516
13668,5515
13619,5520
13604,5525
13599,5523
13550,5518
13294,5518
13246,5523
13199,5537
13156,5560
13119,5591
13088,5628
13065,5671
13051,5718
13046,5766
13046,5810
13025,5770
12993,5732
12955,5701
12915,5679
12940,5666
12978,5635
13009,5597
13032,5553
13047,5506
13051,5457
13050,5378
12988,5315
12575,5315
12575,5645
12621,5691
12590,5722
12590,6052
12598,6052
12598,6152
12590,6152
12590,6160
12490,6160
12490,6152
12482,6152
12482,6052
12490,6052
12490,5722
12444,5676
12475,5645
12475,5315
12467,5315
12467,5215
12475,5215
12475,5207
12575,5207
12575,5215
12988,5215
13050,5153
13051,5073
13047,5024
13032,4977
13009,4934
12978,4896
12949,4872
12980,4872
13000,4883
13047,4897
13095,4902
13513,4902
13561,4897
13608,4883
13651,4860
13688,4829
13707,4806
13725,4801
13752,4786
13755,4792
13786,4829
13824,4860
13867,4883
13913,4897
13962,4902
14379,4902
14427,4897
14474,4883
14505,4866
14751,4866
14796,4903
14855,4935
14920,4955
14987,4961
15346,4961
15413,4955
15478,4935
15537,4903
15589,4860
15632,4808
15664,4749
15683,4684
15690,4617
15690,4425
15683,4358
15664,4294
15632,4234
15589,4182
15553,4152
15589,4122
15632,4070
15664,4011
15683,3946
15687,3913
16450,3913
16499,3988
16978,3988
16978,3552
16870,3552
16776,3571
16688,3608
16608,3661
16541,3729
16488,3809
16452,3898
16450,3913
15687,3913
15690,3879
15690,3687
15683,3620
15664,3555
15632,3496
15589,3444
15537,3401
15478,3369
15413,3350
15346,3343
14987,3343
14920,3350
14855,3369
14796,3401
14751,3438
14505,3438
14474,3421
14427,3407
14379,3402
13962,3402
13913,3407
13867,3421
13824,3444
13786,3475
13755,3512
13737,3546
13724,3522
14018,3227
14032,3216
14075,3164
14107,3104
14127,3039
14132,2988
14132,2988
14133,2971
14132,2954
14132,2473
14140,2477
Z" /> 
<path style="fill:#000000; fill-opacity:1.0; 
stroke:#000000; stroke-width:100; stroke-opacity:1; 
stroke-linecap:round; stroke-linejoin:round;fill-rule:evenodd;"
d="M 12145,4152
12141,4155
12141,4149
12145,4152
Z" /> 
<path style="fill:#000000; fill-opacity:1.0; 
stroke:#000000; stroke-width:100; stroke-opacity:1; 
stroke-linecap:round; stroke-linejoin:round;fill-rule:evenodd;"
d="M 10762,1760
10824,1823
11119,1823
11119,1815
11219,1815
11219,1823
11227,1823
11227,1923
11219,1923
11219,2454
11282,2516
11327,2517
11376,2513
11423,2498
11446,2486
11451,2493
11451,3625
11145,3625
11116,3601
11152,3571
11195,3519
11227,3459
11246,3395
11253,3328
11253,3136
11246,3069
11227,3004
11195,2945
11152,2893
11100,2850
11041,2818
10976,2798
10909,2792
10708,2792
10357,2441
10348,2430
10303,2393
10252,2365
10196,2348
10152,2344
10152,2344
10138,2343
10123,2344
9879,2344
9896,2313
9910,2266
10761,2266
10765,2315
10780,2362
10803,2406
10834,2444
10872,2475
10916,2498
10963,2513
11012,2517
11057,2516
11119,2454
11119,1923
10824,1923
10762,1985
10761,2266
9910,2266
9915,2251
9921,2187
9921,1886
10229,1578
10761,1578
10762,1760
Z" /> 
<path style="fill:#000000; fill-opacity:1.0; 
stroke:#000000; stroke-width:100; stroke-opacity:1; 
stroke-linecap:round; stroke-linejoin:round;fill-rule:evenodd;"
d="M 13001,2540
13038,2571
13081,2594
13128,2608
13176,2613
13441,2613
13441,2828
13072,3197
13059,3208
13051,3217
13050,3151
12988,3089
12575,3089
12575,3097
12475,3097
12475,3089
12467,3089
12467,2989
12475,2989
12475,2981
12575,2981
12575,2989
12988,2989
13050,2926
13051,2847
13047,2798
13032,2751
13009,2707
12978,2669
12940,2638
12896,2615
12862,2604
12899,2584
12951,2541
12977,2511
13001,2540
Z" /> 
</g>
</g>
<g style="fill:#FFFFFF; fill-opacity:1.0; 
stroke:#FFFFFF; stroke-width:100; stroke-opacity:1; 
stroke-linecap:round; stroke-linejoin:round;">
</g>
<g style="fill:#FFFFFF; fill-opacity:1.0; 
stroke:#FFFFFF; stroke-width:0; stroke-opacity:1; 
stroke-linecap:round; stroke-linejoin:round;">
<circle cx="13190.4" cy="2857.28" r="78.7402" /> 
</g>
<g style="fill:#FFFFFF; fill-opacity:1.0; 
stroke:#FFFFFF; stroke-width:39.3701; stroke-opacity:1; 
stroke-linecap:round; stroke-linejoin:round;">
</g>
<g style="fill:#FFFFFF; fill-opacity:1.0; 
stroke:#FFFFFF; stroke-width:0; stroke-opacity:1; 
stroke-linecap:round; stroke-linejoin:round;">
<circle cx="10434.5" cy="1873.03" r="78.7402" /> 
</g>
<g style="fill:#FFFFFF; fill-opacity:1.0; 
stroke:#FFFFFF; stroke-width:39.3701; stroke-opacity:1; 
stroke-linecap:round; stroke-linejoin:round;">
</g>
<g style="fill:#FFFFFF; fill-opacity:1.0; 
stroke:#FFFFFF; stroke-width:0; stroke-opacity:1; 
stroke-linecap:round; stroke-linejoin:round;">
<circle cx="5611.64" cy="1873.03" r="78.7402" /> 
</g>
<g style="fill:#FFFFFF; fill-opacity:1.0; 
stroke:#FFFFFF; stroke-width:39.3701; stroke-opacity:1; 
stroke-linecap:round; stroke-linejoin:round;">
</g>
<g style="fill:#FFFFFF; fill-opacity:1.0; 
stroke:#FFFFFF; stroke-width:0; stroke-opacity:1; 
stroke-linecap:round; stroke-linejoin:round;">
<circle cx="15847.9" cy="6597.44" r="78.7402" /> 
</g>
<g style="fill:#FFFFFF; fill-opacity:1.0; 
stroke:#FFFFFF; stroke-width:39.3701; stroke-opacity:1; 
stroke-linecap:round; stroke-linejoin:round;">
</g>
<g style="fill:#FFFFFF; fill-opacity:1.0; 
stroke:#FFFFFF; stroke-width:0; stroke-opacity:1; 
stroke-linecap:round; stroke-linejoin:round;">
<circle cx="11796.7" cy="1380.91" r="78.7402" /> 
</g>
<g style="fill:#FFFFFF; fill-opacity:1.0; 
stroke:#FFFFFF; stroke-width:39.3701; stroke-opacity:1; 
stroke-linecap:round; stroke-linejoin:round;">
</g>
<g style="fill:#FFFFFF; fill-opacity:1.0; 
stroke:#FFFFFF; stroke-width:0; stroke-opacity:1; 
stroke-linecap:round; stroke-linejoin:round;">
<circle cx="11796.7" cy="2282.49" r="78.7402" /> 
</g>
<g style="fill:#FFFFFF; fill-opacity:1.0; 
stroke:#FFFFFF; stroke-width:39.3701; stroke-opacity:1; 
stroke-linecap:round; stroke-linejoin:round;">
</g>
<g style="fill:#FFFFFF; fill-opacity:1.0; 
stroke:#FFFFFF; stroke-width:0; stroke-opacity:1; 
stroke-linecap:round; stroke-linejoin:round;">
<circle cx="17029" cy="4038.39" r="147.638" /> 
</g>
<g style="fill:#FFFFFF; fill-opacity:1.0; 
stroke:#FFFFFF; stroke-width:39.3701; stroke-opacity:1; 
stroke-linecap:round; stroke-linejoin:round;">
</g>
<g style="fill:#FFFFFF; fill-opacity:1.0; 
stroke:#FFFFFF; stroke-width:0; stroke-opacity:1; 
stroke-linecap:round; stroke-linejoin:round;">
<circle cx="17029" cy="4825.79" r="147.638" /> 
</g>
<g style="fill:#FFFFFF; fill-opacity:1.0; 
stroke:#FFFFFF; stroke-width:39.3701; stroke-opacity:1; 
stroke-linecap:round; stroke-linejoin:round;">
</g>
<g style="fill:#FFFFFF; fill-opacity:1.0; 
stroke:#FFFFFF; stroke-width:0; stroke-opacity:1; 
stroke-linecap:round; stroke-linejoin:round;">
<circle cx="17029" cy="5613.19" r="147.638" /> 
</g>
<g style="fill:#FFFFFF; fill-opacity:1.0; 
stroke:#FFFFFF; stroke-width:39.3701; stroke-opacity:1; 
stroke-linecap:round; stroke-linejoin:round;">
</g>
<g style="fill:#FFFFFF; fill-opacity:1.0; 
stroke:#FFFFFF; stroke-width:0; stroke-opacity:1; 
stroke-linecap:round; stroke-linejoin:round;">
<circle cx="8449.24" cy="1873.03" r="196.85" /> 
</g>
<g style="fill:#FFFFFF; fill-opacity:1.0; 
stroke:#FFFFFF; stroke-width:39.3701; stroke-opacity:1; 
stroke-linecap:round; stroke-linejoin:round;">
</g>
<g style="fill:#FFFFFF; fill-opacity:1.0; 
stroke:#FFFFFF; stroke-width:0; stroke-opacity:1; 
stroke-linecap:round; stroke-linejoin:round;">
<circle cx="7449.24" cy="1873.03" r="196.85" /> 
</g>
<g style="fill:#FFFFFF; fill-opacity:1.0; 
stroke:#FFFFFF; stroke-width:39.3701; stroke-opacity:1; 
stroke-linecap:round; stroke-linejoin:round;">
</g>
<g style="fill:#FFFFFF; fill-opacity:1.0; 
stroke:#FFFFFF; stroke-width:0; stroke-opacity:1; 
stroke-linecap:round; stroke-linejoin:round;">
<circle cx="3151.01" cy="1676.18" r="492.126" /> 
</g>
<g style="fill:#FFFFFF; fill-opacity:1.0; 
stroke:#FFFFFF; stroke-width:39.3701; stroke-opacity:1; 
stroke-linecap:round; stroke-linejoin:round;">
</g>
<g style="fill:#FFFFFF; fill-opacity:1.0; 
stroke:#FFFFFF; stroke-width:0; stroke-opacity:1; 
stroke-linecap:round; stroke-linejoin:round;">
<circle cx="16143.1" cy="7975.39" r="492.126" /> 
</g>
<g style="fill:#FFFFFF; fill-opacity:1.0; 
stroke:#FFFFFF; stroke-width:39.3701; stroke-opacity:1; 
stroke-linecap:round; stroke-linejoin:round;">
</g>
<g style="fill:#000000; fill-opacity:1.0; 
stroke:#000000; stroke-width:39.3701; stroke-opacity:1; 
stroke-linecap:round; stroke-linejoin:round;">
</g>
<g style="fill:#000000; fill-opacity:1.0; 
stroke:#000000; stroke-width:19.685; stroke-opacity:1; 
stroke-linecap:round; stroke-linejoin:round;">
</g>
<g style="fill:#000000; fill-opacity:0.0; 
stroke:#000000; stroke-width:19.685; stroke-opacity:1; 
stroke-linecap:round; stroke-linejoin:round;">
<path d="M17127 8191
L18505 8191
" />
<path d="M17127 8861
L17127 8191
" />
<path d="M17127 1459
L18505 1459
" />
<path d="M17127 790
L17127 1459
" />
<path d="M1969 7483
L1182 7483
" />
<path d="M1969 8861
L1969 7483
" />
<path d="M1969 2168
L1182 2168
" />
<path d="M1969 790
L1969 2168
" />
<path d="M1182 2168
L1182 7483
" />
<path d="M17127 790
L1969 790
" />
<path d="M18505 8191
L18505 1459
" />
<path d="M1969 8861
L17127 8861
" />
<g >
</g>
<g >
</g>
<g >
</g>
<g >
</g>
<g >
</g>
<g >
</g>
<g >
</g>
<g >
</g>
<g >
</g>
<g >
</g>
<g >
</g>
<g >
</g>
<g >
</g>
<g >
</g>
<g >
</g>
<g >
</g>
<g >
</g>
<g >
</g>
<g >
</g>
<g >
</g>
<g >
</g>
</g> 
</svg>
