<?xml version="1.0" standalone="no"?>
 <!DOCTYPE svg PUBLIC "-//W3C//DTD SVG 1.1//EN" 
 "http://www.w3.org/Graphics/SVG/1.1/DTD/svg11.dtd"> 
<svg xmlns="http://www.w3.org/2000/svg" version="1.1" 
    width="1.82118cm" height="4.03098cm" viewBox="0 0 7170 15870 ">
<title>SVG Picture created as pixel-stick-B_Cu.svg date 2019/12/06 13:33:01 </title>
  <desc>Picture generated by PCBNEW </desc>
<g style="fill:#000000; fill-opacity:1;stroke:#000000; stroke-opacity:1;
stroke-linecap:round; stroke-linejoin:round; "
 transform="translate(0 0) scale(1 1)">
</g>
<g style="fill:#000000; fill-opacity:0.0; 
stroke:#000000; stroke-width:-0.000393701; stroke-opacity:1; 
stroke-linecap:round; stroke-linejoin:round;">
</g>
<g style="fill:#000000; fill-opacity:1.0; 
stroke:#000000; stroke-width:0; stroke-opacity:1; 
stroke-linecap:round; stroke-linejoin:round;">
<path style="fill:#000000; fill-opacity:1.0; 
stroke:#000000; stroke-width:0; stroke-opacity:1; 
stroke-linecap:round; stroke-linejoin:round;fill-rule:evenodd;"
d="M 4249,11609
4249,12003
4446,12003
4446,11609
Z" /> 
<g >
</g>
<g >
</g>
<g >
<circle cx="1247.83" cy="13259.8" r="492" /> 
</g>
<g style="fill:#000000; fill-opacity:1.0; 
stroke:#000000; stroke-width:39.3701; stroke-opacity:1; 
stroke-linecap:round; stroke-linejoin:round;">
</g>
<g style="fill:#000000; fill-opacity:1.0; 
stroke:#000000; stroke-width:0; stroke-opacity:1; 
stroke-linecap:round; stroke-linejoin:round;">
<circle cx="2747.83" cy="13259.8" r="492" /> 
</g>
<g style="fill:#000000; fill-opacity:1.0; 
stroke:#000000; stroke-width:39.3701; stroke-opacity:1; 
stroke-linecap:round; stroke-linejoin:round;">
</g>
<g style="fill:#000000; fill-opacity:1.0; 
stroke:#000000; stroke-width:0; stroke-opacity:1; 
stroke-linecap:round; stroke-linejoin:round;">
<circle cx="4247.83" cy="13259.8" r="492" /> 
</g>
<g style="fill:#000000; fill-opacity:1.0; 
stroke:#000000; stroke-width:39.3701; stroke-opacity:1; 
stroke-linecap:round; stroke-linejoin:round;">
</g>
<g style="fill:#000000; fill-opacity:1.0; 
stroke:#000000; stroke-width:0; stroke-opacity:1; 
stroke-linecap:round; stroke-linejoin:round;">
<path style="fill:#000000; fill-opacity:1.0; 
stroke:#000000; stroke-width:0; stroke-opacity:1; 
stroke-linecap:round; stroke-linejoin:round;fill-rule:evenodd;"
d="M 6239,12767
6239,13751
5255,13751
5255,12767
6239,12767
Z" /> 
</g>
<g >
</g>
<g style="fill:#000000; fill-opacity:1.0; 
stroke:#000000; stroke-width:669.291; stroke-opacity:1; 
stroke-linecap:round; stroke-linejoin:round;">
</g>
<g style="fill:#000000; fill-opacity:0.0; 
stroke:#000000; stroke-width:669.291; stroke-opacity:1; 
stroke-linecap:round; stroke-linejoin:round;">
<path d="M2047 2159
L2047 2159
" />
<path d="M2047 1159
L2047 1159
" />
<path d="M3047 2159
L3047 2159
" />
<path d="M3047 1159
L3047 1159
" />
<path d="M4047 2159
L4047 2159
" />
<path d="M4047 1159
L4047 1159
" />
<path d="M5047 2159
L5047 2159
" />
</g>
<g style="fill:#000000; fill-opacity:0.0; 
stroke:#000000; stroke-width:0; stroke-opacity:1; 
stroke-linecap:round; stroke-linejoin:round;">
</g>
<g style="fill:#000000; fill-opacity:1.0; 
stroke:#000000; stroke-width:0; stroke-opacity:1; 
stroke-linecap:round; stroke-linejoin:round;">
<path style="fill:#000000; fill-opacity:1.0; 
stroke:#000000; stroke-width:0; stroke-opacity:1; 
stroke-linecap:round; stroke-linejoin:round;fill-rule:evenodd;"
d="M 4713,825
5382,825
5382,1494
4713,1494
4713,825
Z" /> 
</g>
<g >
<circle cx="4347.83" cy="12003.5" r="98.4252" /> 
</g>
<g style="fill:#000000; fill-opacity:1.0; 
stroke:#000000; stroke-width:39.3701; stroke-opacity:1; 
stroke-linecap:round; stroke-linejoin:round;">
</g>
<g style="fill:#000000; fill-opacity:1.0; 
stroke:#000000; stroke-width:0; stroke-opacity:1; 
stroke-linecap:round; stroke-linejoin:round;">
<circle cx="4347.83" cy="11609.8" r="98.4252" /> 
</g>
<g style="fill:#000000; fill-opacity:1.0; 
stroke:#000000; stroke-width:39.3701; stroke-opacity:1; 
stroke-linecap:round; stroke-linejoin:round;">
</g>
<g >
</g>
<g >
</g>
<g >
</g>
<g >
</g>
<g >
</g>
<g >
</g>
<g >
</g>
<g >
</g>
<g >
</g>
<g >
</g>
<g >
</g>
<g >
</g>
<g style="fill:#000000; fill-opacity:1.0; 
stroke:#000000; stroke-width:0; stroke-opacity:1; 
stroke-linecap:round; stroke-linejoin:round;">
<circle cx="2647.83" cy="3509.84" r="157.48" /> 
</g>
<g style="fill:#000000; fill-opacity:1.0; 
stroke:#000000; stroke-width:39.3701; stroke-opacity:1; 
stroke-linecap:round; stroke-linejoin:round;">
</g>
<g >
</g>
<g style="fill:#000000; fill-opacity:1.0; 
stroke:#000000; stroke-width:98.4252; stroke-opacity:1; 
stroke-linecap:round; stroke-linejoin:round;">
</g>
<g style="fill:#000000; fill-opacity:0.0; 
stroke:#000000; stroke-width:98.4252; stroke-opacity:1; 
stroke-linecap:round; stroke-linejoin:round;">
<path d="M4036 1148
L4047 1159
" />
</g>
<g style="fill:#000000; fill-opacity:0.0; 
stroke:#000000; stroke-width:196.85; stroke-opacity:1; 
stroke-linecap:round; stroke-linejoin:round;">
<path d="M4347 13259
L4347 12009
" />
<path d="M2847 3709
L2647 3509
" />
<path d="M2847 13259
L2847 3709
" />
<path d="M4347 3940
L4347 11609
" />
<path d="M3047 2640
L4347 3940
" />
<path d="M3047 2159
L3047 2640
" />
</g>
<g >
</g>
<g style="fill:#000000; fill-opacity:1.0; 
stroke:#000000; stroke-width:100; stroke-opacity:1; 
stroke-linecap:round; stroke-linejoin:round;">
<path style="fill:#000000; fill-opacity:1.0; 
stroke:#000000; stroke-width:100; stroke-opacity:1; 
stroke-linecap:round; stroke-linejoin:round;fill-rule:evenodd;"
d="M 6344,275
6388,288
6430,310
6466,340
6495,376
6518,417
6531,461
6537,520
6537,14097
6532,14156
6518,14200
6496,14242
6467,14278
6431,14307
6390,14330
6345,14343
6287,14350
810,14350
751,14344
706,14330
665,14308
629,14279
599,14243
577,14202
563,14157
557,14099
557,13776
801,13776
851,13891
981,13956
1122,13994
1268,14005
1413,13986
1552,13940
1644,13891
1694,13776
1247,13330
801,13776
557,13776
557,13535
567,13564
616,13656
730,13706
1177,13259
1318,13259
1764,13706
1879,13656
1944,13525
1982,13384
1993,13239
1986,13186
2005,13186
2005,13332
2034,13476
2090,13611
2171,13732
2274,13836
2396,13917
2531,13973
2674,14001
2820,14001
2964,13973
3099,13917
3220,13836
3324,13732
3405,13611
3461,13476
3489,13332
3489,13186
3461,13043
3405,12908
3324,12786
3220,12683
3196,12667
3196,3726
3197,3709
3196,3692
3196,3692
3191,3641
3171,3575
3138,3515
3095,3462
3082,3451
3044,3413
3039,3390
3008,3316
2964,3250
2907,3193
2840,3148
2766,3118
2687,3102
2607,3102
2528,3118
2454,3148
2388,3193
2331,3250
2286,3316
2256,3390
2240,3469
2240,3549
2256,3628
2286,3702
2331,3769
2388,3826
2454,3870
2499,3889
2499,12559
2396,12602
2274,12683
2171,12786
2090,12908
2034,13043
2005,13186
1986,13186
1974,13094
1928,12955
1879,12863
1764,12813
1318,13259
1177,13259
730,12813
616,12863
557,12981
557,12742
801,12742
1247,13189
1694,12742
1644,12628
1513,12563
1372,12524
1227,12514
1082,12532
943,12579
851,12628
801,12742
557,12742
557,1159
1460,1159
1471,1274
1505,1384
1559,1486
1632,1575
1721,1648
1743,1659
1721,1671
1632,1744
1559,1833
1505,1935
1471,2045
1460,2159
1471,2274
1505,2384
1559,2486
1632,2575
1721,2648
1823,2702
1933,2736
2019,2744
2076,2744
2162,2736
2272,2702
2374,2648
2463,2575
2536,2486
2547,2464
2559,2486
2632,2575
2698,2629
2697,2640
2704,2708
2724,2774
2756,2835
2789,2874
2789,2874
2800,2888
2813,2899
3999,4084
3999,11575
3999,11575
3999,12037
3999,12037
3999,12559
3896,12602
3774,12683
3671,12786
3590,12908
3534,13043
3505,13186
3505,13332
3534,13476
3590,13611
3671,13732
3774,13836
3896,13917
4031,13973
4174,14001
4320,14001
4464,13973
4599,13917
4720,13836
4824,13732
4905,13611
4961,13476
4989,13332
4989,13186
4961,13043
4905,12908
4824,12786
4805,12767
5004,12767
5004,13751
5009,13800
5023,13847
5046,13891
5078,13929
5116,13960
5159,13983
5206,13998
5255,14003
6239,14003
6288,13998
6335,13983
6379,13960
6417,13929
6448,13891
6471,13847
6486,13800
6491,13751
6491,12767
6486,12718
6471,12671
6448,12628
6417,12590
6379,12558
6335,12535
6288,12521
6239,12516
5255,12516
5206,12521
5159,12535
5116,12558
5078,12590
5046,12628
5023,12671
5009,12718
5004,12767
4805,12767
4720,12683
4696,12667
4696,3957
4697,3940
4696,3923
4696,3923
4691,3872
4671,3806
4638,3746
4595,3693
4582,3682
3468,2568
3536,2486
3547,2464
3559,2486
3632,2575
3721,2648
3823,2702
3933,2736
4019,2744
4076,2744
4162,2736
4272,2702
4374,2648
4463,2575
4536,2486
4549,2460
4577,2506
4654,2591
4745,2660
4849,2709
4907,2727
4997,2679
4997,2209
5097,2209
5097,2679
5188,2727
5246,2709
5349,2660
5441,2591
5518,2506
5577,2408
5615,2300
5567,2209
5097,2209
4997,2209
4989,2209
4989,2109
4997,2109
4997,2101
5097,2101
5097,2109
5567,2109
5615,2019
5577,1911
5518,1812
5448,1735
5478,1726
5522,1703
5560,1672
5591,1634
5614,1590
5628,1543
5633,1494
5633,825
5628,776
5614,729
5591,685
5560,647
5522,616
5478,593
5431,578
5382,573
4713,573
4664,578
4617,593
4573,616
4535,647
4504,685
4481,729
4472,756
4463,744
4374,671
4272,617
4162,583
4076,575
4019,575
3933,583
3823,617
3721,671
3632,744
3559,833
3547,855
3536,833
3463,744
3374,671
3272,617
3162,583
3076,575
3019,575
2933,583
2823,617
2721,671
2632,744
2559,833
2547,855
2536,833
2463,744
2374,671
2272,617
2162,583
2076,575
2019,575
1933,583
1823,617
1721,671
1632,744
1559,833
1505,935
1471,1045
1460,1159
557,1159
557,522
563,463
576,418
598,377
628,341
664,311
705,289
749,275
808,269
6285,269
6344,275
Z" /> 
</g>
</g>
<g style="fill:#FFFFFF; fill-opacity:1.0; 
stroke:#FFFFFF; stroke-width:100; stroke-opacity:1; 
stroke-linecap:round; stroke-linejoin:round;">
</g>
<g style="fill:#FFFFFF; fill-opacity:1.0; 
stroke:#FFFFFF; stroke-width:0; stroke-opacity:1; 
stroke-linecap:round; stroke-linejoin:round;">
<circle cx="2647.83" cy="3509.84" r="78.7402" /> 
</g>
<g style="fill:#FFFFFF; fill-opacity:1.0; 
stroke:#FFFFFF; stroke-width:39.3701; stroke-opacity:1; 
stroke-linecap:round; stroke-linejoin:round;">
</g>
<g style="fill:#FFFFFF; fill-opacity:1.0; 
stroke:#FFFFFF; stroke-width:0; stroke-opacity:1; 
stroke-linecap:round; stroke-linejoin:round;">
<circle cx="1247.83" cy="13259.8" r="197" /> 
</g>
<g style="fill:#FFFFFF; fill-opacity:1.0; 
stroke:#FFFFFF; stroke-width:39.3701; stroke-opacity:1; 
stroke-linecap:round; stroke-linejoin:round;">
</g>
<g style="fill:#FFFFFF; fill-opacity:1.0; 
stroke:#FFFFFF; stroke-width:0; stroke-opacity:1; 
stroke-linecap:round; stroke-linejoin:round;">
<circle cx="2747.83" cy="13259.8" r="197" /> 
</g>
<g style="fill:#FFFFFF; fill-opacity:1.0; 
stroke:#FFFFFF; stroke-width:39.3701; stroke-opacity:1; 
stroke-linecap:round; stroke-linejoin:round;">
</g>
<g style="fill:#FFFFFF; fill-opacity:1.0; 
stroke:#FFFFFF; stroke-width:0; stroke-opacity:1; 
stroke-linecap:round; stroke-linejoin:round;">
<circle cx="4247.83" cy="13259.8" r="197" /> 
</g>
<g style="fill:#FFFFFF; fill-opacity:1.0; 
stroke:#FFFFFF; stroke-width:39.3701; stroke-opacity:1; 
stroke-linecap:round; stroke-linejoin:round;">
</g>
<g style="fill:#FFFFFF; fill-opacity:1.0; 
stroke:#FFFFFF; stroke-width:0; stroke-opacity:1; 
stroke-linecap:round; stroke-linejoin:round;">
<circle cx="5747.83" cy="13259.8" r="197" /> 
</g>
<g style="fill:#FFFFFF; fill-opacity:1.0; 
stroke:#FFFFFF; stroke-width:39.3701; stroke-opacity:1; 
stroke-linecap:round; stroke-linejoin:round;">
</g>
<g style="fill:#FFFFFF; fill-opacity:1.0; 
stroke:#FFFFFF; stroke-width:0; stroke-opacity:1; 
stroke-linecap:round; stroke-linejoin:round;">
<circle cx="2047.83" cy="2159.84" r="196.85" /> 
</g>
<g style="fill:#FFFFFF; fill-opacity:1.0; 
stroke:#FFFFFF; stroke-width:39.3701; stroke-opacity:1; 
stroke-linecap:round; stroke-linejoin:round;">
</g>
<g style="fill:#FFFFFF; fill-opacity:1.0; 
stroke:#FFFFFF; stroke-width:0; stroke-opacity:1; 
stroke-linecap:round; stroke-linejoin:round;">
<circle cx="2047.83" cy="1159.84" r="196.85" /> 
</g>
<g style="fill:#FFFFFF; fill-opacity:1.0; 
stroke:#FFFFFF; stroke-width:39.3701; stroke-opacity:1; 
stroke-linecap:round; stroke-linejoin:round;">
</g>
<g style="fill:#FFFFFF; fill-opacity:1.0; 
stroke:#FFFFFF; stroke-width:0; stroke-opacity:1; 
stroke-linecap:round; stroke-linejoin:round;">
<circle cx="3047.83" cy="2159.84" r="196.85" /> 
</g>
<g style="fill:#FFFFFF; fill-opacity:1.0; 
stroke:#FFFFFF; stroke-width:39.3701; stroke-opacity:1; 
stroke-linecap:round; stroke-linejoin:round;">
</g>
<g style="fill:#FFFFFF; fill-opacity:1.0; 
stroke:#FFFFFF; stroke-width:0; stroke-opacity:1; 
stroke-linecap:round; stroke-linejoin:round;">
<circle cx="3047.83" cy="1159.84" r="196.85" /> 
</g>
<g style="fill:#FFFFFF; fill-opacity:1.0; 
stroke:#FFFFFF; stroke-width:39.3701; stroke-opacity:1; 
stroke-linecap:round; stroke-linejoin:round;">
</g>
<g style="fill:#FFFFFF; fill-opacity:1.0; 
stroke:#FFFFFF; stroke-width:0; stroke-opacity:1; 
stroke-linecap:round; stroke-linejoin:round;">
<circle cx="4047.83" cy="2159.84" r="196.85" /> 
</g>
<g style="fill:#FFFFFF; fill-opacity:1.0; 
stroke:#FFFFFF; stroke-width:39.3701; stroke-opacity:1; 
stroke-linecap:round; stroke-linejoin:round;">
</g>
<g style="fill:#FFFFFF; fill-opacity:1.0; 
stroke:#FFFFFF; stroke-width:0; stroke-opacity:1; 
stroke-linecap:round; stroke-linejoin:round;">
<circle cx="4047.83" cy="1159.84" r="196.85" /> 
</g>
<g style="fill:#FFFFFF; fill-opacity:1.0; 
stroke:#FFFFFF; stroke-width:39.3701; stroke-opacity:1; 
stroke-linecap:round; stroke-linejoin:round;">
</g>
<g style="fill:#FFFFFF; fill-opacity:1.0; 
stroke:#FFFFFF; stroke-width:0; stroke-opacity:1; 
stroke-linecap:round; stroke-linejoin:round;">
<circle cx="5047.83" cy="2159.84" r="196.85" /> 
</g>
<g style="fill:#FFFFFF; fill-opacity:1.0; 
stroke:#FFFFFF; stroke-width:39.3701; stroke-opacity:1; 
stroke-linecap:round; stroke-linejoin:round;">
</g>
<g style="fill:#FFFFFF; fill-opacity:1.0; 
stroke:#FFFFFF; stroke-width:0; stroke-opacity:1; 
stroke-linecap:round; stroke-linejoin:round;">
<circle cx="5047.83" cy="1159.84" r="196.85" /> 
</g>
<g style="fill:#FFFFFF; fill-opacity:1.0; 
stroke:#FFFFFF; stroke-width:39.3701; stroke-opacity:1; 
stroke-linecap:round; stroke-linejoin:round;">
</g>
<g style="fill:#000000; fill-opacity:1.0; 
stroke:#000000; stroke-width:39.3701; stroke-opacity:1; 
stroke-linecap:round; stroke-linejoin:round;">
</g>
<g style="fill:#000000; fill-opacity:0.0; 
stroke:#000000; stroke-width:19.685; stroke-opacity:1; 
stroke-linecap:round; stroke-linejoin:round;">
<path d="M6297.83 14609.8 A500 500 0.0 0 0 6797.83 14109.8 " />
<path d="M297.835 14109.8 A500 500 0.0 0 0 797.835 14609.8 " />
<path d="M797.835 9.84291 A500 500 0.0 0 0 297.835 509.843 " />
<path d="M6797.83 509.843 A500 500 0.0 0 0 6297.83 9.84291 " />
<path d="M6297 9
L797 9
" />
<path d="M6797 14109
L6797 509
" />
<path d="M797 14609
L6297 14609
" />
<path d="M297 509
L297 14109
" />
<g >
</g>
<g >
</g>
<g >
</g>
<g >
</g>
<g >
</g>
<g >
</g>
<g >
</g>
<g >
</g>
<g >
</g>
<g >
</g>
<g >
</g>
<g >
</g>
<g >
</g>
<g >
</g>
<g >
</g>
<g >
</g>
<g >
</g>
</g> 
</svg>
