<?xml version="1.0" standalone="no"?>
 <!DOCTYPE svg PUBLIC "-//W3C//DTD SVG 1.1//EN" 
 "http://www.w3.org/Graphics/SVG/1.1/DTD/svg11.dtd"> 
<svg xmlns="http://www.w3.org/2000/svg" version="1.1" 
    width="1.83388cm" height="4.03098cm" viewBox="0 0 7220 15870 ">
<title>SVG Picture created as pixel-stick-B_Cu.svg date 2019/12/06 14:14:29 </title>
  <desc>Picture generated by PCBNEW </desc>
<g style="fill:#000000; fill-opacity:1;stroke:#000000; stroke-opacity:1;
stroke-linecap:round; stroke-linejoin:round; "
 transform="translate(0 0) scale(1 1)">
</g>
<g style="fill:#000000; fill-opacity:0.0; 
stroke:#000000; stroke-width:-0.000393701; stroke-opacity:1; 
stroke-linecap:round; stroke-linejoin:round;">
</g>
<g style="fill:#000000; fill-opacity:1.0; 
stroke:#000000; stroke-width:0; stroke-opacity:1; 
stroke-linecap:round; stroke-linejoin:round;">
<path style="fill:#000000; fill-opacity:1.0; 
stroke:#000000; stroke-width:0; stroke-opacity:1; 
stroke-linecap:round; stroke-linejoin:round;fill-rule:evenodd;"
d="M 4299,11609
4299,12003
4496,12003
4496,11609
Z" /> 
<g >
</g>
<g >
</g>
<g >
<circle cx="1297.83" cy="13259.8" r="492" /> 
</g>
<g style="fill:#000000; fill-opacity:1.0; 
stroke:#000000; stroke-width:39.3701; stroke-opacity:1; 
stroke-linecap:round; stroke-linejoin:round;">
</g>
<g style="fill:#000000; fill-opacity:1.0; 
stroke:#000000; stroke-width:0; stroke-opacity:1; 
stroke-linecap:round; stroke-linejoin:round;">
<circle cx="2797.83" cy="13259.8" r="492" /> 
</g>
<g style="fill:#000000; fill-opacity:1.0; 
stroke:#000000; stroke-width:39.3701; stroke-opacity:1; 
stroke-linecap:round; stroke-linejoin:round;">
</g>
<g style="fill:#000000; fill-opacity:1.0; 
stroke:#000000; stroke-width:0; stroke-opacity:1; 
stroke-linecap:round; stroke-linejoin:round;">
<circle cx="4297.83" cy="13259.8" r="492" /> 
</g>
<g style="fill:#000000; fill-opacity:1.0; 
stroke:#000000; stroke-width:39.3701; stroke-opacity:1; 
stroke-linecap:round; stroke-linejoin:round;">
</g>
<g style="fill:#000000; fill-opacity:1.0; 
stroke:#000000; stroke-width:0; stroke-opacity:1; 
stroke-linecap:round; stroke-linejoin:round;">
<path style="fill:#000000; fill-opacity:1.0; 
stroke:#000000; stroke-width:0; stroke-opacity:1; 
stroke-linecap:round; stroke-linejoin:round;fill-rule:evenodd;"
d="M 6289,12767
6289,13751
5305,13751
5305,12767
6289,12767
Z" /> 
</g>
<g >
</g>
<g style="fill:#000000; fill-opacity:1.0; 
stroke:#000000; stroke-width:669.291; stroke-opacity:1; 
stroke-linecap:round; stroke-linejoin:round;">
</g>
<g style="fill:#000000; fill-opacity:0.0; 
stroke:#000000; stroke-width:669.291; stroke-opacity:1; 
stroke-linecap:round; stroke-linejoin:round;">
<path d="M2097 2159
L2097 2159
" />
<path d="M2097 1159
L2097 1159
" />
<path d="M3097 2159
L3097 2159
" />
<path d="M3097 1159
L3097 1159
" />
<path d="M4097 2159
L4097 2159
" />
<path d="M4097 1159
L4097 1159
" />
<path d="M5097 2159
L5097 2159
" />
</g>
<g style="fill:#000000; fill-opacity:0.0; 
stroke:#000000; stroke-width:0; stroke-opacity:1; 
stroke-linecap:round; stroke-linejoin:round;">
</g>
<g style="fill:#000000; fill-opacity:1.0; 
stroke:#000000; stroke-width:0; stroke-opacity:1; 
stroke-linecap:round; stroke-linejoin:round;">
<path style="fill:#000000; fill-opacity:1.0; 
stroke:#000000; stroke-width:0; stroke-opacity:1; 
stroke-linecap:round; stroke-linejoin:round;fill-rule:evenodd;"
d="M 4763,825
5432,825
5432,1494
4763,1494
4763,825
Z" /> 
</g>
<g >
<circle cx="4397.83" cy="12003.5" r="98.4252" /> 
</g>
<g style="fill:#000000; fill-opacity:1.0; 
stroke:#000000; stroke-width:39.3701; stroke-opacity:1; 
stroke-linecap:round; stroke-linejoin:round;">
</g>
<g style="fill:#000000; fill-opacity:1.0; 
stroke:#000000; stroke-width:0; stroke-opacity:1; 
stroke-linecap:round; stroke-linejoin:round;">
<circle cx="4397.83" cy="11609.8" r="98.4252" /> 
</g>
<g style="fill:#000000; fill-opacity:1.0; 
stroke:#000000; stroke-width:39.3701; stroke-opacity:1; 
stroke-linecap:round; stroke-linejoin:round;">
</g>
<g >
</g>
<g >
</g>
<g >
</g>
<g >
</g>
<g >
</g>
<g >
</g>
<g >
</g>
<g >
</g>
<g >
</g>
<g >
</g>
<g >
</g>
<g >
</g>
<g style="fill:#000000; fill-opacity:1.0; 
stroke:#000000; stroke-width:0; stroke-opacity:1; 
stroke-linecap:round; stroke-linejoin:round;">
<circle cx="2697.83" cy="3509.84" r="157.48" /> 
</g>
<g style="fill:#000000; fill-opacity:1.0; 
stroke:#000000; stroke-width:39.3701; stroke-opacity:1; 
stroke-linecap:round; stroke-linejoin:round;">
</g>
<g >
</g>
<g style="fill:#000000; fill-opacity:1.0; 
stroke:#000000; stroke-width:98.4252; stroke-opacity:1; 
stroke-linecap:round; stroke-linejoin:round;">
</g>
<g style="fill:#000000; fill-opacity:0.0; 
stroke:#000000; stroke-width:98.4252; stroke-opacity:1; 
stroke-linecap:round; stroke-linejoin:round;">
<path d="M4086 1148
L4097 1159
" />
</g>
<g style="fill:#000000; fill-opacity:0.0; 
stroke:#000000; stroke-width:196.85; stroke-opacity:1; 
stroke-linecap:round; stroke-linejoin:round;">
<path d="M4397 13259
L4397 12009
" />
<path d="M2897 3709
L2697 3509
" />
<path d="M2897 13259
L2897 3709
" />
<path d="M4397 3940
L4397 11609
" />
<path d="M3097 2640
L4397 3940
" />
<path d="M3097 2159
L3097 2640
" />
</g>
<g >
</g>
<g style="fill:#000000; fill-opacity:1.0; 
stroke:#000000; stroke-width:100; stroke-opacity:1; 
stroke-linecap:round; stroke-linejoin:round;">
<path style="fill:#000000; fill-opacity:1.0; 
stroke:#000000; stroke-width:100; stroke-opacity:1; 
stroke-linecap:round; stroke-linejoin:round;fill-rule:evenodd;"
d="M 6394,275
6438,288
6480,310
6516,340
6545,376
6568,417
6581,461
6587,520
6587,14097
6582,14156
6568,14200
6546,14242
6517,14278
6481,14307
6440,14330
6395,14343
6337,14350
860,14350
801,14344
756,14330
715,14308
679,14279
649,14243
627,14202
613,14157
607,14099
607,13776
851,13776
901,13891
1031,13956
1172,13994
1318,14005
1463,13986
1602,13940
1694,13891
1744,13776
1297,13330
851,13776
607,13776
607,13535
617,13564
666,13656
780,13706
1227,13259
1368,13259
1814,13706
1929,13656
1994,13525
2032,13384
2043,13239
2036,13186
2055,13186
2055,13332
2084,13476
2140,13611
2221,13732
2324,13836
2446,13917
2581,13973
2724,14001
2870,14001
3014,13973
3149,13917
3270,13836
3374,13732
3455,13611
3511,13476
3539,13332
3539,13186
3511,13043
3455,12908
3374,12786
3270,12683
3246,12667
3246,3726
3247,3709
3246,3692
3246,3692
3241,3641
3221,3575
3188,3515
3145,3462
3132,3451
3094,3413
3089,3390
3058,3316
3014,3250
2957,3193
2890,3148
2816,3118
2737,3102
2657,3102
2578,3118
2504,3148
2438,3193
2381,3250
2336,3316
2306,3390
2290,3469
2290,3549
2306,3628
2336,3702
2381,3769
2438,3826
2504,3870
2549,3889
2549,12559
2446,12602
2324,12683
2221,12786
2140,12908
2084,13043
2055,13186
2036,13186
2024,13094
1978,12955
1929,12863
1814,12813
1368,13259
1227,13259
780,12813
666,12863
607,12981
607,12742
851,12742
1297,13189
1744,12742
1694,12628
1563,12563
1422,12524
1277,12514
1132,12532
993,12579
901,12628
851,12742
607,12742
607,1159
1510,1159
1521,1274
1555,1384
1609,1486
1682,1575
1771,1648
1793,1659
1771,1671
1682,1744
1609,1833
1555,1935
1521,2045
1510,2159
1521,2274
1555,2384
1609,2486
1682,2575
1771,2648
1873,2702
1983,2736
2069,2744
2126,2744
2212,2736
2322,2702
2424,2648
2513,2575
2586,2486
2597,2464
2609,2486
2682,2575
2748,2629
2747,2640
2754,2708
2774,2774
2806,2835
2839,2874
2839,2874
2850,2888
2863,2899
4049,4084
4049,11575
4049,11575
4049,12037
4049,12037
4049,12559
3946,12602
3824,12683
3721,12786
3640,12908
3584,13043
3555,13186
3555,13332
3584,13476
3640,13611
3721,13732
3824,13836
3946,13917
4081,13973
4224,14001
4370,14001
4514,13973
4649,13917
4770,13836
4874,13732
4955,13611
5011,13476
5039,13332
5039,13186
5011,13043
4955,12908
4874,12786
4855,12767
5054,12767
5054,13751
5059,13800
5073,13847
5096,13891
5128,13929
5166,13960
5209,13983
5256,13998
5305,14003
6289,14003
6338,13998
6385,13983
6429,13960
6467,13929
6498,13891
6521,13847
6536,13800
6541,13751
6541,12767
6536,12718
6521,12671
6498,12628
6467,12590
6429,12558
6385,12535
6338,12521
6289,12516
5305,12516
5256,12521
5209,12535
5166,12558
5128,12590
5096,12628
5073,12671
5059,12718
5054,12767
4855,12767
4770,12683
4746,12667
4746,3957
4747,3940
4746,3923
4746,3923
4741,3872
4721,3806
4688,3746
4645,3693
4632,3682
3518,2568
3586,2486
3597,2464
3609,2486
3682,2575
3771,2648
3873,2702
3983,2736
4069,2744
4126,2744
4212,2736
4322,2702
4424,2648
4513,2575
4586,2486
4599,2460
4627,2506
4704,2591
4795,2660
4899,2709
4957,2727
5047,2679
5047,2209
5147,2209
5147,2679
5238,2727
5296,2709
5399,2660
5491,2591
5568,2506
5627,2408
5665,2300
5617,2209
5147,2209
5047,2209
5039,2209
5039,2109
5047,2109
5047,2101
5147,2101
5147,2109
5617,2109
5665,2019
5627,1911
5568,1812
5498,1735
5528,1726
5572,1703
5610,1672
5641,1634
5664,1590
5678,1543
5683,1494
5683,825
5678,776
5664,729
5641,685
5610,647
5572,616
5528,593
5481,578
5432,573
4763,573
4714,578
4667,593
4623,616
4585,647
4554,685
4531,729
4522,756
4513,744
4424,671
4322,617
4212,583
4126,575
4069,575
3983,583
3873,617
3771,671
3682,744
3609,833
3597,855
3586,833
3513,744
3424,671
3322,617
3212,583
3126,575
3069,575
2983,583
2873,617
2771,671
2682,744
2609,833
2597,855
2586,833
2513,744
2424,671
2322,617
2212,583
2126,575
2069,575
1983,583
1873,617
1771,671
1682,744
1609,833
1555,935
1521,1045
1510,1159
607,1159
607,522
613,463
626,418
648,377
678,341
714,311
755,289
799,275
858,269
6335,269
6394,275
Z" /> 
</g>
</g>
<g style="fill:#FFFFFF; fill-opacity:1.0; 
stroke:#FFFFFF; stroke-width:100; stroke-opacity:1; 
stroke-linecap:round; stroke-linejoin:round;">
</g>
<g style="fill:#FFFFFF; fill-opacity:1.0; 
stroke:#FFFFFF; stroke-width:0; stroke-opacity:1; 
stroke-linecap:round; stroke-linejoin:round;">
<circle cx="2697.83" cy="3509.84" r="78.7402" /> 
</g>
<g style="fill:#FFFFFF; fill-opacity:1.0; 
stroke:#FFFFFF; stroke-width:39.3701; stroke-opacity:1; 
stroke-linecap:round; stroke-linejoin:round;">
</g>
<g style="fill:#FFFFFF; fill-opacity:1.0; 
stroke:#FFFFFF; stroke-width:0; stroke-opacity:1; 
stroke-linecap:round; stroke-linejoin:round;">
<circle cx="1297.83" cy="13259.8" r="197" /> 
</g>
<g style="fill:#FFFFFF; fill-opacity:1.0; 
stroke:#FFFFFF; stroke-width:39.3701; stroke-opacity:1; 
stroke-linecap:round; stroke-linejoin:round;">
</g>
<g style="fill:#FFFFFF; fill-opacity:1.0; 
stroke:#FFFFFF; stroke-width:0; stroke-opacity:1; 
stroke-linecap:round; stroke-linejoin:round;">
<circle cx="2797.83" cy="13259.8" r="197" /> 
</g>
<g style="fill:#FFFFFF; fill-opacity:1.0; 
stroke:#FFFFFF; stroke-width:39.3701; stroke-opacity:1; 
stroke-linecap:round; stroke-linejoin:round;">
</g>
<g style="fill:#FFFFFF; fill-opacity:1.0; 
stroke:#FFFFFF; stroke-width:0; stroke-opacity:1; 
stroke-linecap:round; stroke-linejoin:round;">
<circle cx="4297.83" cy="13259.8" r="197" /> 
</g>
<g style="fill:#FFFFFF; fill-opacity:1.0; 
stroke:#FFFFFF; stroke-width:39.3701; stroke-opacity:1; 
stroke-linecap:round; stroke-linejoin:round;">
</g>
<g style="fill:#FFFFFF; fill-opacity:1.0; 
stroke:#FFFFFF; stroke-width:0; stroke-opacity:1; 
stroke-linecap:round; stroke-linejoin:round;">
<circle cx="5797.83" cy="13259.8" r="197" /> 
</g>
<g style="fill:#FFFFFF; fill-opacity:1.0; 
stroke:#FFFFFF; stroke-width:39.3701; stroke-opacity:1; 
stroke-linecap:round; stroke-linejoin:round;">
</g>
<g style="fill:#FFFFFF; fill-opacity:1.0; 
stroke:#FFFFFF; stroke-width:0; stroke-opacity:1; 
stroke-linecap:round; stroke-linejoin:round;">
<circle cx="2097.83" cy="2159.84" r="196.85" /> 
</g>
<g style="fill:#FFFFFF; fill-opacity:1.0; 
stroke:#FFFFFF; stroke-width:39.3701; stroke-opacity:1; 
stroke-linecap:round; stroke-linejoin:round;">
</g>
<g style="fill:#FFFFFF; fill-opacity:1.0; 
stroke:#FFFFFF; stroke-width:0; stroke-opacity:1; 
stroke-linecap:round; stroke-linejoin:round;">
<circle cx="2097.83" cy="1159.84" r="196.85" /> 
</g>
<g style="fill:#FFFFFF; fill-opacity:1.0; 
stroke:#FFFFFF; stroke-width:39.3701; stroke-opacity:1; 
stroke-linecap:round; stroke-linejoin:round;">
</g>
<g style="fill:#FFFFFF; fill-opacity:1.0; 
stroke:#FFFFFF; stroke-width:0; stroke-opacity:1; 
stroke-linecap:round; stroke-linejoin:round;">
<circle cx="3097.83" cy="2159.84" r="196.85" /> 
</g>
<g style="fill:#FFFFFF; fill-opacity:1.0; 
stroke:#FFFFFF; stroke-width:39.3701; stroke-opacity:1; 
stroke-linecap:round; stroke-linejoin:round;">
</g>
<g style="fill:#FFFFFF; fill-opacity:1.0; 
stroke:#FFFFFF; stroke-width:0; stroke-opacity:1; 
stroke-linecap:round; stroke-linejoin:round;">
<circle cx="3097.83" cy="1159.84" r="196.85" /> 
</g>
<g style="fill:#FFFFFF; fill-opacity:1.0; 
stroke:#FFFFFF; stroke-width:39.3701; stroke-opacity:1; 
stroke-linecap:round; stroke-linejoin:round;">
</g>
<g style="fill:#FFFFFF; fill-opacity:1.0; 
stroke:#FFFFFF; stroke-width:0; stroke-opacity:1; 
stroke-linecap:round; stroke-linejoin:round;">
<circle cx="4097.83" cy="2159.84" r="196.85" /> 
</g>
<g style="fill:#FFFFFF; fill-opacity:1.0; 
stroke:#FFFFFF; stroke-width:39.3701; stroke-opacity:1; 
stroke-linecap:round; stroke-linejoin:round;">
</g>
<g style="fill:#FFFFFF; fill-opacity:1.0; 
stroke:#FFFFFF; stroke-width:0; stroke-opacity:1; 
stroke-linecap:round; stroke-linejoin:round;">
<circle cx="4097.83" cy="1159.84" r="196.85" /> 
</g>
<g style="fill:#FFFFFF; fill-opacity:1.0; 
stroke:#FFFFFF; stroke-width:39.3701; stroke-opacity:1; 
stroke-linecap:round; stroke-linejoin:round;">
</g>
<g style="fill:#FFFFFF; fill-opacity:1.0; 
stroke:#FFFFFF; stroke-width:0; stroke-opacity:1; 
stroke-linecap:round; stroke-linejoin:round;">
<circle cx="5097.83" cy="2159.84" r="196.85" /> 
</g>
<g style="fill:#FFFFFF; fill-opacity:1.0; 
stroke:#FFFFFF; stroke-width:39.3701; stroke-opacity:1; 
stroke-linecap:round; stroke-linejoin:round;">
</g>
<g style="fill:#FFFFFF; fill-opacity:1.0; 
stroke:#FFFFFF; stroke-width:0; stroke-opacity:1; 
stroke-linecap:round; stroke-linejoin:round;">
<circle cx="5097.83" cy="1159.84" r="196.85" /> 
</g>
<g style="fill:#FFFFFF; fill-opacity:1.0; 
stroke:#FFFFFF; stroke-width:39.3701; stroke-opacity:1; 
stroke-linecap:round; stroke-linejoin:round;">
</g>
<g style="fill:#000000; fill-opacity:1.0; 
stroke:#000000; stroke-width:39.3701; stroke-opacity:1; 
stroke-linecap:round; stroke-linejoin:round;">
</g>
<g style="fill:#000000; fill-opacity:0.0; 
stroke:#000000; stroke-width:19.685; stroke-opacity:1; 
stroke-linecap:round; stroke-linejoin:round;">
<path d="M6347.83 14609.8 A500 500 0.0 0 0 6847.83 14109.8 " />
<path d="M347.835 14109.8 A500 500 0.0 0 0 847.835 14609.8 " />
<path d="M847.835 9.84291 A500 500 0.0 0 0 347.835 509.843 " />
<path d="M6847.83 509.843 A500 500 0.0 0 0 6347.83 9.84291 " />
<path d="M6347 9
L847 9
" />
<path d="M6847 14109
L6847 509
" />
<path d="M847 14609
L6347 14609
" />
<path d="M347 509
L347 14109
" />
<g >
</g>
<g >
</g>
<g >
</g>
<g >
</g>
<g >
</g>
<g >
</g>
<g >
</g>
<g >
</g>
<g >
</g>
<g >
</g>
<g >
</g>
<g >
</g>
<g >
</g>
<g >
</g>
<g >
</g>
<g >
</g>
<g >
</g>
</g> 
</svg>
