<?xml version="1.0" standalone="no"?>
 <!DOCTYPE svg PUBLIC "-//W3C//DTD SVG 1.1//EN" 
 "http://www.w3.org/Graphics/SVG/1.1/DTD/svg11.dtd"> 
<svg xmlns="http://www.w3.org/2000/svg" version="1.1" 
    width="1.83388cm" height="3.53314cm" viewBox="0 0 7220 13910 ">
<title>SVG Picture created as pixel-stick-F_Cu.svg date 2019/12/08 00:36:50 </title>
  <desc>Picture generated by PCBNEW </desc>
<g style="fill:#000000; fill-opacity:1;stroke:#000000; stroke-opacity:1;
stroke-linecap:round; stroke-linejoin:round; "
 transform="translate(0 0) scale(1 1)">
</g>
<g style="fill:#000000; fill-opacity:0.0; 
stroke:#000000; stroke-width:-0.000393701; stroke-opacity:1; 
stroke-linecap:round; stroke-linejoin:round;">
<g >
</g>
<g style="fill:#000000; fill-opacity:0.0; 
stroke:#000000; stroke-width:680; stroke-opacity:1; 
stroke-linecap:round; stroke-linejoin:round;">
<path d="M2097 1959
L2097 1959
" />
<path d="M2097 959
L2097 959
" />
<path d="M3097 1959
L3097 1959
" />
<path d="M3097 959
L3097 959
" />
<path d="M4097 1959
L4097 1959
" />
<path d="M4097 959
L4097 959
" />
<path d="M5097 1959
L5097 1959
" />
</g>
<g style="fill:#000000; fill-opacity:0.0; 
stroke:#000000; stroke-width:0; stroke-opacity:1; 
stroke-linecap:round; stroke-linejoin:round;">
</g>
<g style="fill:#000000; fill-opacity:1.0; 
stroke:#000000; stroke-width:0; stroke-opacity:1; 
stroke-linecap:round; stroke-linejoin:round;">
<path style="fill:#000000; fill-opacity:1.0; 
stroke:#000000; stroke-width:0; stroke-opacity:1; 
stroke-linecap:round; stroke-linejoin:round;fill-rule:evenodd;"
d="M 4757,619
5437,619
5437,1299
4757,1299
4757,619
Z" /> 
</g>
<g >
<path style="fill:#000000; fill-opacity:1.0; 
stroke:#000000; stroke-width:0; stroke-opacity:1; 
stroke-linecap:round; stroke-linejoin:round;fill-rule:evenodd;"
d="M 2098,9795
2107,9796
2116,9799
2126,9802
2134,9806
2143,9811
2150,9817
2157,9823
2164,9830
2170,9838
2175,9846
2179,9855
2182,9864
2184,9874
2186,9883
2186,9893
2186,10326
2186,10336
2184,10345
2182,10354
2179,10364
2175,10372
2170,10381
2164,10388
2157,10395
2150,10402
2143,10408
2134,10413
2126,10417
2116,10420
2107,10422
2098,10424
2088,10424
907,10424
897,10424
888,10422
878,10420
869,10417
860,10413
852,10408
844,10402
837,10395
831,10388
825,10381
820,10372
816,10364
813,10354
810,10345
809,10336
808,10326
808,9893
809,9883
810,9874
813,9864
816,9855
820,9846
825,9838
831,9830
837,9823
844,9817
852,9811
860,9806
869,9802
878,9799
888,9796
897,9795
907,9794
2088,9794
2098,9795
Z" /> 
<path style="fill:#000000; fill-opacity:1.0; 
stroke:#000000; stroke-width:0; stroke-opacity:1; 
stroke-linecap:round; stroke-linejoin:round;fill-rule:evenodd;"
d="M 4224,9795
4233,9796
4242,9799
4252,9802
4260,9806
4269,9811
4276,9817
4283,9823
4290,9830
4296,9838
4301,9846
4305,9855
4308,9864
4310,9874
4312,9883
4312,9893
4312,10326
4312,10336
4310,10345
4308,10354
4305,10364
4301,10372
4296,10381
4290,10388
4283,10395
4276,10402
4269,10408
4260,10413
4252,10417
4242,10420
4233,10422
4224,10424
4214,10424
3033,10424
3023,10424
3014,10422
3004,10420
2995,10417
2986,10413
2978,10408
2970,10402
2963,10395
2957,10388
2951,10381
2946,10372
2942,10364
2939,10354
2936,10345
2935,10336
2934,10326
2934,9893
2935,9883
2936,9874
2939,9864
2942,9855
2946,9846
2951,9838
2957,9830
2963,9823
2970,9817
2978,9811
2986,9806
2995,9802
3004,9799
3014,9796
3023,9795
3033,9794
4214,9794
4224,9795
Z" /> 
</g>
<g >
<circle cx="2097.83" cy="12509.8" r="590.5" /> 
</g>
<g style="fill:#000000; fill-opacity:1.0; 
stroke:#000000; stroke-width:39.3701; stroke-opacity:1; 
stroke-linecap:round; stroke-linejoin:round;">
</g>
<g style="fill:#000000; fill-opacity:1.0; 
stroke:#000000; stroke-width:0; stroke-opacity:1; 
stroke-linecap:round; stroke-linejoin:round;">
<circle cx="3597.83" cy="12509.8" r="590.5" /> 
</g>
<g style="fill:#000000; fill-opacity:1.0; 
stroke:#000000; stroke-width:39.3701; stroke-opacity:1; 
stroke-linecap:round; stroke-linejoin:round;">
</g>
<g style="fill:#000000; fill-opacity:1.0; 
stroke:#000000; stroke-width:0; stroke-opacity:1; 
stroke-linecap:round; stroke-linejoin:round;">
<path style="fill:#000000; fill-opacity:1.0; 
stroke:#000000; stroke-width:0; stroke-opacity:1; 
stroke-linecap:round; stroke-linejoin:round;fill-rule:evenodd;"
d="M 5688,11919
5688,13100
4507,13100
4507,11919
5688,11919
Z" /> 
</g>
<g >
<path style="fill:#000000; fill-opacity:1.0; 
stroke:#000000; stroke-width:0; stroke-opacity:1; 
stroke-linecap:round; stroke-linejoin:round;fill-rule:evenodd;"
d="M 1643,6853
1899,6853
1899,7468
1643,7468
1643,6853
Z" /> 
<path style="fill:#000000; fill-opacity:1.0; 
stroke:#000000; stroke-width:0; stroke-opacity:1; 
stroke-linecap:round; stroke-linejoin:round;fill-rule:evenodd;"
d="M 2017,6853
2273,6853
2273,7468
2017,7468
2017,6853
Z" /> 
<path style="fill:#000000; fill-opacity:1.0; 
stroke:#000000; stroke-width:0; stroke-opacity:1; 
stroke-linecap:round; stroke-linejoin:round;fill-rule:evenodd;"
d="M 1269,6853
1525,6853
1525,7468
1269,7468
1269,6853
Z" /> 
<path style="fill:#000000; fill-opacity:1.0; 
stroke:#000000; stroke-width:0; stroke-opacity:1; 
stroke-linecap:round; stroke-linejoin:round;fill-rule:evenodd;"
d="M 1269,5790
1525,5790
1525,6405
1269,6405
1269,5790
Z" /> 
<path style="fill:#000000; fill-opacity:1.0; 
stroke:#000000; stroke-width:0; stroke-opacity:1; 
stroke-linecap:round; stroke-linejoin:round;fill-rule:evenodd;"
d="M 1643,5790
1899,5790
1899,6405
1643,6405
1643,5790
Z" /> 
<path style="fill:#000000; fill-opacity:1.0; 
stroke:#000000; stroke-width:0; stroke-opacity:1; 
stroke-linecap:round; stroke-linejoin:round;fill-rule:evenodd;"
d="M 2017,5790
2273,5790
2273,6405
2017,6405
2017,5790
Z" /> 
</g>
<g >
<path style="fill:#000000; fill-opacity:1.0; 
stroke:#000000; stroke-width:0; stroke-opacity:1; 
stroke-linecap:round; stroke-linejoin:round;fill-rule:evenodd;"
d="M 2017,3901
2273,3901
2273,4515
2017,4515
2017,3901
Z" /> 
<path style="fill:#000000; fill-opacity:1.0; 
stroke:#000000; stroke-width:0; stroke-opacity:1; 
stroke-linecap:round; stroke-linejoin:round;fill-rule:evenodd;"
d="M 1269,3901
1525,3901
1525,4515
1269,4515
1269,3901
Z" /> 
<path style="fill:#000000; fill-opacity:1.0; 
stroke:#000000; stroke-width:0; stroke-opacity:1; 
stroke-linecap:round; stroke-linejoin:round;fill-rule:evenodd;"
d="M 1269,2838
1525,2838
1525,3452
1269,3452
1269,2838
Z" /> 
<path style="fill:#000000; fill-opacity:1.0; 
stroke:#000000; stroke-width:0; stroke-opacity:1; 
stroke-linecap:round; stroke-linejoin:round;fill-rule:evenodd;"
d="M 1643,2838
1899,2838
1899,3452
1643,3452
1643,2838
Z" /> 
<path style="fill:#000000; fill-opacity:1.0; 
stroke:#000000; stroke-width:0; stroke-opacity:1; 
stroke-linecap:round; stroke-linejoin:round;fill-rule:evenodd;"
d="M 2017,2838
2273,2838
2273,3452
2017,3452
2017,2838
Z" /> 
</g>
<g >
<path style="fill:#000000; fill-opacity:1.0; 
stroke:#000000; stroke-width:0; stroke-opacity:1; 
stroke-linecap:round; stroke-linejoin:round;fill-rule:evenodd;"
d="M 5103,8315
5113,8317
5122,8319
5131,8322
5140,8326
5148,8331
5156,8337
5163,8344
5170,8351
5176,8359
5181,8367
5185,8376
5188,8385
5190,8394
5192,8404
5192,8413
5192,8905
5192,8915
5190,8925
5188,8934
5185,8943
5181,8952
5176,8960
5170,8968
5163,8975
5156,8981
5148,8987
5140,8992
5131,8996
5122,9000
5113,9002
5103,9003
5094,9004
4730,9004
4720,9003
4710,9002
4701,9000
4692,8996
4683,8992
4675,8987
4667,8981
4660,8975
4654,8968
4648,8960
4643,8952
4639,8943
4635,8934
4633,8925
4632,8915
4631,8905
4631,8413
4632,8404
4633,8394
4635,8385
4639,8376
4643,8367
4648,8359
4654,8351
4660,8344
4667,8337
4675,8331
4683,8326
4692,8322
4701,8319
4710,8317
4720,8315
4730,8315
5094,8315
5103,8315
Z" /> 
<path style="fill:#000000; fill-opacity:1.0; 
stroke:#000000; stroke-width:0; stroke-opacity:1; 
stroke-linecap:round; stroke-linejoin:round;fill-rule:evenodd;"
d="M 6275,8315
6284,8317
6294,8319
6303,8322
6311,8326
6320,8331
6327,8337
6335,8344
6341,8351
6347,8359
6352,8367
6356,8376
6359,8385
6362,8394
6363,8404
6363,8413
6363,8905
6363,8915
6362,8925
6359,8934
6356,8943
6352,8952
6347,8960
6341,8968
6335,8975
6327,8981
6320,8987
6311,8992
6303,8996
6294,9000
6284,9002
6275,9003
6265,9004
5901,9004
5891,9003
5882,9002
5872,9000
5863,8996
5854,8992
5846,8987
5838,8981
5831,8975
5825,8968
5819,8960
5814,8952
5810,8943
5807,8934
5804,8925
5803,8915
5802,8905
5802,8413
5803,8404
5804,8394
5807,8385
5810,8376
5814,8367
5819,8359
5825,8351
5831,8344
5838,8337
5846,8331
5854,8326
5863,8322
5872,8319
5882,8317
5891,8315
5901,8315
6265,8315
6275,8315
Z" /> 
</g>
<g >
<path style="fill:#000000; fill-opacity:1.0; 
stroke:#000000; stroke-width:0; stroke-opacity:1; 
stroke-linecap:round; stroke-linejoin:round;fill-rule:evenodd;"
d="M 3353,6915
3363,6916
3372,6919
3381,6922
3390,6926
3398,6931
3406,6937
3413,6943
3419,6950
3425,6958
3430,6966
3434,6975
3438,6984
3440,6994
3441,7003
3442,7013
3442,7377
3441,7387
3440,7396
3438,7406
3434,7415
3430,7423
3425,7432
3419,7439
3413,7447
3406,7453
3398,7459
3390,7464
3381,7468
3372,7471
3363,7474
3353,7475
3343,7475
2851,7475
2842,7475
2832,7474
2823,7471
2814,7468
2805,7464
2797,7459
2789,7453
2782,7447
2775,7439
2769,7432
2764,7423
2760,7415
2757,7406
2755,7396
2753,7387
2753,7377
2753,7013
2753,7003
2755,6994
2757,6984
2760,6975
2764,6966
2769,6958
2775,6950
2782,6943
2789,6937
2797,6931
2805,6926
2814,6922
2823,6919
2832,6916
2842,6915
2851,6914
3343,6914
3353,6915
Z" /> 
<path style="fill:#000000; fill-opacity:1.0; 
stroke:#000000; stroke-width:0; stroke-opacity:1; 
stroke-linecap:round; stroke-linejoin:round;fill-rule:evenodd;"
d="M 3353,5744
3363,5745
3372,5747
3381,5751
3390,5755
3398,5760
3406,5766
3413,5772
3419,5779
3425,5787
3430,5795
3434,5804
3438,5813
3440,5822
3441,5832
3442,5842
3442,6206
3441,6215
3440,6225
3438,6234
3434,6243
3430,6252
3425,6260
3419,6268
3413,6275
3406,6282
3398,6288
3390,6293
3381,6297
3372,6300
3363,6302
3353,6304
3343,6304
2851,6304
2842,6304
2832,6302
2823,6300
2814,6297
2805,6293
2797,6288
2789,6282
2782,6275
2775,6268
2769,6260
2764,6252
2760,6243
2757,6234
2755,6225
2753,6215
2753,6206
2753,5842
2753,5832
2755,5822
2757,5813
2760,5804
2764,5795
2769,5787
2775,5779
2782,5772
2789,5766
2797,5760
2805,5755
2814,5751
2823,5747
2832,5745
2842,5744
2851,5743
3343,5743
3353,5744
Z" /> 
</g>
<g >
<path style="fill:#000000; fill-opacity:1.0; 
stroke:#000000; stroke-width:0; stroke-opacity:1; 
stroke-linecap:round; stroke-linejoin:round;fill-rule:evenodd;"
d="M 1633,7765
1643,7767
1652,7769
1661,7772
1670,7776
1678,7781
1686,7787
1693,7794
1700,7801
1706,7809
1711,7817
1715,7826
1718,7835
1720,7844
1722,7854
1722,7863
1722,8355
1722,8365
1720,8375
1718,8384
1715,8393
1711,8402
1706,8410
1700,8418
1693,8425
1686,8431
1678,8437
1670,8442
1661,8446
1652,8450
1643,8452
1633,8453
1624,8454
1260,8454
1250,8453
1240,8452
1231,8450
1222,8446
1213,8442
1205,8437
1197,8431
1190,8425
1183,8418
1178,8410
1173,8402
1169,8393
1165,8384
1163,8375
1162,8365
1161,8355
1161,7863
1162,7854
1163,7844
1165,7835
1169,7826
1173,7817
1178,7809
1183,7801
1190,7794
1197,7787
1205,7781
1213,7776
1222,7772
1231,7769
1240,7767
1250,7765
1260,7765
1624,7765
1633,7765
Z" /> 
<path style="fill:#000000; fill-opacity:1.0; 
stroke:#000000; stroke-width:0; stroke-opacity:1; 
stroke-linecap:round; stroke-linejoin:round;fill-rule:evenodd;"
d="M 2805,7765
2814,7767
2824,7769
2833,7772
2841,7776
2850,7781
2857,7787
2865,7794
2871,7801
2877,7809
2882,7817
2886,7826
2889,7835
2892,7844
2893,7854
2893,7863
2893,8355
2893,8365
2892,8375
2889,8384
2886,8393
2882,8402
2877,8410
2871,8418
2865,8425
2857,8431
2850,8437
2841,8442
2833,8446
2824,8450
2814,8452
2805,8453
2795,8454
2431,8454
2421,8453
2412,8452
2402,8450
2393,8446
2384,8442
2376,8437
2368,8431
2361,8425
2355,8418
2349,8410
2344,8402
2340,8393
2337,8384
2334,8375
2333,8365
2332,8355
2332,7863
2333,7854
2334,7844
2337,7835
2340,7826
2344,7817
2349,7809
2355,7801
2361,7794
2368,7787
2376,7781
2384,7776
2393,7772
2402,7769
2412,7767
2421,7765
2431,7765
2795,7765
2805,7765
Z" /> 
</g>
<g >
<path style="fill:#000000; fill-opacity:1.0; 
stroke:#000000; stroke-width:0; stroke-opacity:1; 
stroke-linecap:round; stroke-linejoin:round;fill-rule:evenodd;"
d="M 1633,4805
1643,4806
1652,4808
1661,4812
1670,4816
1678,4821
1686,4827
1693,4833
1700,4840
1706,4848
1711,4856
1715,4865
1718,4874
1720,4883
1722,4893
1722,4903
1722,5395
1722,5404
1720,5414
1718,5423
1715,5432
1711,5441
1706,5449
1700,5457
1693,5464
1686,5471
1678,5477
1670,5482
1661,5486
1652,5489
1643,5491
1633,5493
1624,5493
1260,5493
1250,5493
1240,5491
1231,5489
1222,5486
1213,5482
1205,5477
1197,5471
1190,5464
1183,5457
1178,5449
1173,5441
1169,5432
1165,5423
1163,5414
1162,5404
1161,5395
1161,4903
1162,4893
1163,4883
1165,4874
1169,4865
1173,4856
1178,4848
1183,4840
1190,4833
1197,4827
1205,4821
1213,4816
1222,4812
1231,4808
1240,4806
1250,4805
1260,4804
1624,4804
1633,4805
Z" /> 
<path style="fill:#000000; fill-opacity:1.0; 
stroke:#000000; stroke-width:0; stroke-opacity:1; 
stroke-linecap:round; stroke-linejoin:round;fill-rule:evenodd;"
d="M 2805,4805
2814,4806
2824,4808
2833,4812
2841,4816
2850,4821
2857,4827
2865,4833
2871,4840
2877,4848
2882,4856
2886,4865
2889,4874
2892,4883
2893,4893
2893,4903
2893,5395
2893,5404
2892,5414
2889,5423
2886,5432
2882,5441
2877,5449
2871,5457
2865,5464
2857,5471
2850,5477
2841,5482
2833,5486
2824,5489
2814,5491
2805,5493
2795,5493
2431,5493
2421,5493
2412,5491
2402,5489
2393,5486
2384,5482
2376,5477
2368,5471
2361,5464
2355,5457
2349,5449
2344,5441
2340,5432
2337,5423
2334,5414
2333,5404
2332,5395
2332,4903
2333,4893
2334,4883
2337,4874
2340,4865
2344,4856
2349,4848
2355,4840
2361,4833
2368,4827
2376,4821
2384,4816
2393,4812
2402,4808
2412,4806
2421,4805
2431,4804
2795,4804
2805,4805
Z" /> 
</g>
<g >
<path style="fill:#000000; fill-opacity:1.0; 
stroke:#000000; stroke-width:0; stroke-opacity:1; 
stroke-linecap:round; stroke-linejoin:round;fill-rule:evenodd;"
d="M 1203,1701
1213,1702
1222,1704
1231,1708
1240,1712
1248,1717
1256,1722
1263,1729
1269,1736
1275,1744
1280,1752
1284,1761
1288,1770
1290,1779
1291,1789
1292,1799
1292,2163
1291,2172
1290,2182
1288,2191
1284,2200
1280,2209
1275,2217
1269,2225
1263,2232
1256,2239
1248,2245
1240,2249
1231,2254
1222,2257
1213,2259
1203,2261
1193,2261
701,2261
692,2261
682,2259
673,2257
664,2254
655,2249
647,2245
639,2239
632,2232
625,2225
619,2217
614,2209
610,2200
607,2191
605,2182
603,2172
603,2163
603,1799
603,1789
605,1779
607,1770
610,1761
614,1752
619,1744
625,1736
632,1729
639,1722
647,1717
655,1712
664,1708
673,1704
682,1702
692,1701
701,1700
1193,1700
1203,1701
Z" /> 
<path style="fill:#000000; fill-opacity:1.0; 
stroke:#000000; stroke-width:0; stroke-opacity:1; 
stroke-linecap:round; stroke-linejoin:round;fill-rule:evenodd;"
d="M 1203,529
1213,531
1222,533
1231,536
1240,540
1248,545
1256,551
1263,558
1269,565
1275,573
1280,581
1284,590
1288,599
1290,608
1291,618
1292,627
1292,991
1291,1001
1290,1011
1288,1020
1284,1029
1280,1038
1275,1046
1269,1054
1263,1061
1256,1068
1248,1073
1240,1078
1231,1082
1222,1086
1213,1088
1203,1089
1193,1090
701,1090
692,1089
682,1088
673,1086
664,1082
655,1078
647,1073
639,1068
632,1061
625,1054
619,1046
614,1038
610,1029
607,1020
605,1011
603,1001
603,991
603,627
603,618
605,608
607,599
610,590
614,581
619,573
625,565
632,558
639,551
647,545
655,540
664,536
673,533
682,531
692,529
701,529
1193,529
1203,529
Z" /> 
</g>
<g >
<path style="fill:#000000; fill-opacity:1.0; 
stroke:#000000; stroke-width:0; stroke-opacity:1; 
stroke-linecap:round; stroke-linejoin:round;fill-rule:evenodd;"
d="M 6103,9729
6113,9731
6122,9733
6131,9736
6140,9740
6148,9745
6156,9751
6163,9758
6169,9765
6175,9773
6180,9781
6184,9790
6188,9799
6190,9808
6191,9818
6192,9827
6192,10191
6191,10201
6190,10211
6188,10220
6184,10229
6180,10238
6175,10246
6169,10254
6163,10261
6156,10268
6148,10273
6140,10278
6131,10282
6122,10286
6113,10288
6103,10289
6093,10290
5601,10290
5592,10289
5582,10288
5573,10286
5564,10282
5555,10278
5547,10273
5539,10268
5532,10261
5525,10254
5519,10246
5514,10238
5510,10229
5507,10220
5505,10211
5503,10201
5503,10191
5503,9827
5503,9818
5505,9808
5507,9799
5510,9790
5514,9781
5519,9773
5525,9765
5532,9758
5539,9751
5547,9745
5555,9740
5564,9736
5573,9733
5582,9731
5592,9729
5601,9729
6093,9729
6103,9729
Z" /> 
<path style="fill:#000000; fill-opacity:1.0; 
stroke:#000000; stroke-width:0; stroke-opacity:1; 
stroke-linecap:round; stroke-linejoin:round;fill-rule:evenodd;"
d="M 6103,10901
6113,10902
6122,10904
6131,10908
6140,10912
6148,10917
6156,10922
6163,10929
6169,10936
6175,10944
6180,10952
6184,10961
6188,10970
6190,10979
6191,10989
6192,10999
6192,11363
6191,11372
6190,11382
6188,11391
6184,11400
6180,11409
6175,11417
6169,11425
6163,11432
6156,11439
6148,11445
6140,11449
6131,11454
6122,11457
6113,11459
6103,11461
6093,11461
5601,11461
5592,11461
5582,11459
5573,11457
5564,11454
5555,11449
5547,11445
5539,11439
5532,11432
5525,11425
5519,11417
5514,11409
5510,11400
5507,11391
5505,11382
5503,11372
5503,11363
5503,10999
5503,10989
5505,10979
5507,10970
5510,10961
5514,10952
5519,10944
5525,10936
5532,10929
5539,10922
5547,10917
5555,10912
5564,10908
5573,10904
5582,10902
5592,10901
5601,10900
6093,10900
6103,10901
Z" /> 
</g>
<g >
<path style="fill:#000000; fill-opacity:1.0; 
stroke:#000000; stroke-width:0; stroke-opacity:1; 
stroke-linecap:round; stroke-linejoin:round;fill-rule:evenodd;"
d="M 4487,7643
3897,7643
3897,6856
4487,6856
4487,7643
Z" /> 
<path style="fill:#000000; fill-opacity:1.0; 
stroke:#000000; stroke-width:0; stroke-opacity:1; 
stroke-linecap:round; stroke-linejoin:round;fill-rule:evenodd;"
d="M 6298,7643
5708,7643
5708,6856
6298,6856
6298,7643
Z" /> 
<path style="fill:#000000; fill-opacity:1.0; 
stroke:#000000; stroke-width:0; stroke-opacity:1; 
stroke-linecap:round; stroke-linejoin:round;fill-rule:evenodd;"
d="M 5393,7643
4802,7643
4802,6856
5393,6856
5393,7643
Z" /> 
<path style="fill:#000000; fill-opacity:1.0; 
stroke:#000000; stroke-width:0; stroke-opacity:1; 
stroke-linecap:round; stroke-linejoin:round;fill-rule:evenodd;"
d="M 5845,5163
4349,5163
4349,4375
5845,4375
5845,5163
Z" /> 
</g>
<g >
<circle cx="1697.83" cy="4109.84" r="157.48" /> 
</g>
<g style="fill:#000000; fill-opacity:1.0; 
stroke:#000000; stroke-width:39.3701; stroke-opacity:1; 
stroke-linecap:round; stroke-linejoin:round;">
</g>
<g >
</g>
<g style="fill:#000000; fill-opacity:1.0; 
stroke:#000000; stroke-width:393.701; stroke-opacity:1; 
stroke-linecap:round; stroke-linejoin:round;">
</g>
<g style="fill:#000000; fill-opacity:0.0; 
stroke:#000000; stroke-width:393.701; stroke-opacity:1; 
stroke-linecap:round; stroke-linejoin:round;">
<path d="M5147 2009
L5097 1959
" />
</g>
<g style="fill:#000000; fill-opacity:0.0; 
stroke:#000000; stroke-width:196.85; stroke-opacity:1; 
stroke-linecap:round; stroke-linejoin:round;">
<path d="M1771 5478
L1771 6098
" />
<path d="M1442 5149
L1771 5478
" />
<path d="M3097 6609
L3097 6024
" />
<path d="M1397 6477
L1529 6609
" />
<path d="M1397 6098
L1397 6477
" />
<path d="M1724 6609
L1697 6609
" />
<path d="M1771 6657
L1724 6609
" />
<path d="M1771 7161
L1771 6657
" />
<path d="M1697 6609
L3097 6609
" />
<path d="M1529 6609
L1697 6609
" />
</g>
<g style="fill:#000000; fill-opacity:0.0; 
stroke:#000000; stroke-width:98.4252; stroke-opacity:1; 
stroke-linecap:round; stroke-linejoin:round;">
<path d="M5097 4709
L5097 5469
" />
</g>
<g style="fill:#000000; fill-opacity:0.0; 
stroke:#000000; stroke-width:196.85; stroke-opacity:1; 
stroke-linecap:round; stroke-linejoin:round;">
<path d="M2613 5149
L2237 5149
" />
<path d="M2145 5057
L2145 4208
" />
<path d="M2237 5149
L2145 5057
" />
<path d="M2145 6098
L2145 5057
" />
<path d="M1397 4109
L1697 4109
" />
<path d="M1697 4109
L1697 4109
" />
<path d="M1917 3629
L1771 3483
" />
<path d="M1771 3483
L1771 3243
" />
<path d="M4097 1959
L2428 3629
" />
<path d="M2428 3629
L1917 3629
" />
<path d="M1397 8065
L1442 8109
" />
<path d="M1397 7161
L1397 8065
" />
<path d="M2145 7642
L2613 8109
" />
<path d="M2145 7161
L2145 7642
" />
</g>
<g >
</g>
<g style="fill:#000000; fill-opacity:1.0; 
stroke:#000000; stroke-width:100; stroke-opacity:1; 
stroke-linecap:round; stroke-linejoin:round;">
<path style="fill:#000000; fill-opacity:1.0; 
stroke:#000000; stroke-width:100; stroke-opacity:1; 
stroke-linecap:round; stroke-linejoin:round;fill-rule:evenodd;"
d="M 6637,10759
6347,10759
6341,10751
6288,10708
6227,10675
6162,10656
6093,10649
5601,10649
5533,10656
5467,10675
5407,10708
5354,10751
5347,10759
2897,10759
2856,10754
2821,10739
2791,10716
2767,10686
2753,10650
2747,10609
2747,10591
2757,10602
2795,10633
2838,10656
2885,10671
2934,10676
3511,10674
3573,10612
3573,10159
3673,10159
3673,10612
3736,10674
4312,10676
4361,10671
4408,10656
4452,10633
4490,10602
4521,10564
4544,10520
4559,10473
4564,10424
4563,10290
5252,10290
5256,10339
5271,10386
5294,10429
5325,10467
5363,10499
5407,10522
5454,10536
5503,10541
5735,10540
5797,10477
5797,10059
5897,10059
5897,10477
5960,10540
6192,10541
6241,10536
6288,10522
6331,10499
6369,10467
6401,10429
6424,10386
6438,10339
6443,10290
6442,10122
6379,10059
5897,10059
5797,10059
5315,10059
5253,10122
5252,10290
4563,10290
4562,10222
4500,10159
3673,10159
3573,10159
3565,10159
3565,10059
3573,10059
3573,9607
3673,9607
3673,10059
4500,10059
4562,9997
4564,9794
4559,9745
4554,9729
5252,9729
5253,9897
5315,9959
5797,9959
5797,9541
5897,9541
5897,9959
6379,9959
6442,9897
6443,9729
6438,9680
6424,9633
6401,9589
6369,9551
6331,9520
6288,9497
6241,9482
6192,9478
5960,9479
5897,9541
5797,9541
5735,9479
5503,9478
5454,9482
5407,9497
5363,9520
5325,9551
5294,9589
5271,9633
5256,9680
5252,9729
4554,9729
4544,9698
4521,9655
4490,9617
4452,9586
4408,9562
4361,9548
4312,9543
3736,9544
3673,9607
3573,9607
3511,9544
2934,9543
2885,9548
2838,9562
2795,9586
2757,9617
2747,9628
2747,9609
2753,9568
2767,9533
2791,9503
2821,9479
2856,9465
2897,9459
5500,9459
5507,9459
5558,9452
5571,9449
5618,9429
5629,9423
5670,9391
5679,9382
5711,9341
5717,9330
5737,9283
5740,9270
5743,9247
5753,9250
5802,9255
5970,9254
6033,9191
6033,8709
6133,8709
6133,9191
6195,9254
6363,9255
6412,9250
6460,9236
6503,9213
6541,9181
6572,9143
6596,9100
6610,9053
6615,9004
6613,8772
6551,8709
6133,8709
6033,8709
6025,8709
6025,8609
6033,8609
6033,8127
6133,8127
6133,8609
6551,8609
6613,8547
6615,8315
6610,8266
6596,8219
6572,8175
6541,8137
6503,8106
6460,8083
6412,8068
6363,8064
6195,8065
6133,8127
6033,8127
5970,8065
5802,8064
5753,8068
5747,8070
5747,7894
5890,7893
5953,7831
5953,7300
6053,7300
6053,7831
6115,7893
6298,7894
6347,7890
6394,7875
6438,7852
6476,7821
6507,7783
6530,7739
6545,7692
6549,7643
6548,7362
6486,7300
6053,7300
5953,7300
5945,7300
5945,7200
5953,7200
5953,7192
6053,7192
6053,7200
6486,7200
6548,7137
6549,6859
6637,6859
6637,10759
Z" /> 
<path style="fill:#000000; fill-opacity:1.0; 
stroke:#000000; stroke-width:100; stroke-opacity:1; 
stroke-linecap:round; stroke-linejoin:round;fill-rule:evenodd;"
d="M 6637,13297
6630,13375
6611,13438
6580,13497
6538,13548
6487,13590
6429,13622
6365,13641
6288,13650
4547,13650
4547,13351
4985,13350
5047,13287
5047,12559
5147,12559
5147,13287
5210,13350
5688,13351
5737,13346
5784,13332
5827,13309
5865,13277
5897,13239
5920,13196
5934,13149
5939,13100
5938,12622
5875,12559
5147,12559
5047,12559
5039,12559
5039,12459
5047,12459
5047,11731
5147,11731
5147,12459
5875,12459
5938,12397
5939,11919
5934,11870
5920,11823
5897,11779
5865,11741
5827,11710
5784,11687
5765,11681
5797,11649
5797,11231
5897,11231
5897,11649
5960,11711
6192,11712
6241,11707
6288,11693
6331,11670
6369,11639
6401,11601
6424,11557
6438,11510
6443,11461
6442,11293
6379,11231
5897,11231
5797,11231
5315,11231
5253,11293
5252,11461
5256,11510
5271,11557
5294,11601
5325,11639
5361,11668
5210,11669
5147,11731
5047,11731
4985,11669
4547,11668
4547,11309
4553,11268
4567,11233
4591,11203
4621,11179
4656,11165
4697,11159
6637,11159
6637,13297
Z" /> 
<path style="fill:#000000; fill-opacity:1.0; 
stroke:#000000; stroke-width:100; stroke-opacity:1; 
stroke-linecap:round; stroke-linejoin:round;fill-rule:evenodd;"
d="M 6363,277
6426,296
6485,327
6536,369
6578,420
6610,478
6629,541
6637,619
6637,6559
5694,6559
5688,6560
5637,6566
5624,6570
5577,6590
5565,6596
5525,6627
5515,6637
5515,6638
5489,6624
5442,6609
5393,6605
5210,6606
5147,6668
5147,7200
5155,7200
5155,7300
5147,7300
5147,7307
5047,7307
5047,7300
5039,7300
5039,7200
5047,7200
5047,6668
4985,6606
4802,6605
4753,6609
4706,6624
4662,6647
4645,6662
4627,6647
4583,6624
4536,6609
4487,6605
3897,6605
3848,6609
3800,6624
3757,6647
3742,6659
2697,6659
2656,6654
2621,6639
2591,6616
2567,6586
2553,6550
2547,6509
2547,6448
2575,6482
2613,6513
2657,6536
2704,6551
2753,6555
2985,6554
3047,6492
3047,6074
3147,6074
3147,6492
3210,6554
3442,6555
3491,6551
3538,6536
3581,6513
3619,6482
3651,6444
3674,6400
3688,6353
3693,6304
3692,6136
3629,6074
3147,6074
3047,6074
3039,6074
3039,5974
3047,5974
3047,5966
3147,5966
3147,5974
3629,5974
3692,5911
3693,5743
3688,5694
3674,5647
3651,5604
3619,5566
3581,5534
3538,5511
3491,5497
3442,5492
3210,5493
3147,5556
3147,5493
3129,5493
3138,5463
3145,5395
3145,5163
4098,5163
4103,5212
4117,5259
4140,5302
4172,5341
4210,5372
4253,5395
4300,5409
4349,5414
4985,5413
5047,5350
5047,4819
5147,4819
5147,5350
5210,5413
5845,5414
5894,5409
5942,5395
5985,5372
6023,5341
6054,5302
6077,5259
6092,5212
6097,5163
6095,4882
6033,4819
5147,4819
5047,4819
4162,4819
4099,4882
4098,5163
3145,5163
3145,4903
3138,4834
3118,4769
3086,4708
3042,4655
2989,4612
2929,4580
2863,4560
2795,4553
2547,4553
2547,4375
4098,4375
4099,4657
4162,4719
5047,4719
5047,4188
5147,4188
5147,4719
6033,4719
6095,4657
6097,4375
6092,4326
6077,4279
6054,4236
6023,4198
5985,4167
5942,4143
5894,4129
5845,4124
5210,4125
5147,4188
5047,4188
4985,4125
4349,4124
4300,4129
4253,4143
4210,4167
4172,4198
4140,4236
4117,4279
4103,4326
4098,4375
2547,4375
2547,3957
2562,3952
2622,3920
2675,3877
2686,3863
4006,2543
4068,2549
4126,2549
4213,2541
4324,2507
4427,2452
4517,2379
4590,2289
4597,2276
4604,2289
4678,2379
4768,2452
4870,2507
4982,2541
5068,2549
5126,2549
5213,2541
5324,2507
5427,2452
5517,2379
5590,2289
5645,2186
5679,2075
5690,1959
5679,1844
5645,1732
5590,1630
5517,1540
5513,1538
5533,1531
5577,1508
5615,1477
5646,1439
5669,1395
5684,1348
5689,1299
5689,619
5684,570
5669,523
5646,480
5615,442
5577,410
5533,387
5486,373
5437,368
4757,368
4708,373
4661,387
4618,410
4580,442
4548,480
4525,523
4518,549
4495,524
4402,454
4298,405
4239,387
4147,434
4147,909
4155,909
4155,1009
4147,1009
4147,1017
4047,1017
4047,1009
3147,1009
3147,1017
3047,1017
3047,1009
2147,1009
2147,1017
2047,1017
2047,1009
2039,1009
2039,909
2047,909
2047,434
2147,434
2147,909
3047,909
3047,434
3147,434
3147,909
4047,909
4047,434
3956,387
3897,405
3792,454
3700,524
3622,610
3597,651
3572,610
3495,524
3402,454
3298,405
3239,387
3147,434
3047,434
2956,387
2897,405
2792,454
2700,524
2622,610
2597,651
2572,610
2495,524
2402,454
2298,405
2239,387
2147,434
2047,434
1956,387
1897,405
1792,454
1700,524
1622,610
1563,709
1542,769
1542,759
1479,759
1542,697
1543,529
1538,480
1524,433
1501,389
1469,351
1431,320
1388,297
1341,282
1292,278
1060,279
997,341
997,759
1005,759
1005,859
997,859
997,867
897,867
897,859
889,859
889,759
897,759
897,341
835,279
825,279
829,277
907,269
6285,269
6363,277
Z" /> 
<path style="fill:#000000; fill-opacity:1.0; 
stroke:#000000; stroke-width:100; stroke-opacity:1; 
stroke-linecap:round; stroke-linejoin:round;fill-rule:evenodd;"
d="M 997,1931
1005,1931
1005,2031
997,2031
997,2449
1060,2511
1292,2512
1341,2507
1388,2493
1431,2470
1469,2439
1501,2401
1524,2357
1538,2310
1543,2261
1542,2162
1550,2186
1604,2289
1678,2379
1768,2452
1870,2507
1982,2541
2068,2549
2126,2549
2213,2541
2324,2507
2427,2452
2517,2379
2590,2289
2597,2276
2604,2289
2678,2379
2768,2452
2870,2507
2982,2541
3019,2545
2469,3095
2461,3095
2523,3032
2525,2838
2520,2789
2505,2742
2482,2698
2451,2660
2413,2629
2369,2606
2322,2591
2273,2586
2258,2588
2195,2650
2195,3095
2203,3095
2203,3195
2195,3195
2195,3203
2151,3203
2151,2838
2146,2789
2131,2742
2108,2698
2095,2683
2095,2650
2033,2588
2017,2586
1968,2591
1958,2594
1948,2591
1899,2586
1643,2586
1594,2591
1584,2594
1574,2591
1525,2586
1510,2588
1447,2650
1447,2683
1435,2698
1411,2742
1397,2789
1392,2838
1392,3203
1347,3203
1347,3195
1082,3195
1019,3257
1018,3452
1023,3501
1037,3548
1061,3591
1092,3629
1130,3661
1159,3676
1130,3692
1092,3723
1061,3761
1037,3805
1023,3852
1018,3901
1018,4515
1023,4564
1031,4590
1022,4595
983,4627
952,4665
929,4708
915,4755
910,4804
911,5036
974,5099
1392,5099
1392,5091
1492,5091
1492,5099
1500,5099
1500,5199
1492,5199
1492,5207
1392,5207
1392,5199
974,5199
911,5261
910,5493
915,5542
929,5589
952,5633
983,5671
1022,5702
1033,5708
1023,5741
1018,5790
1018,6405
1023,6454
1037,6501
1052,6529
1054,6546
1074,6611
1103,6666
1092,6676
1061,6714
1037,6757
1023,6804
1018,6853
1018,7468
1023,7517
1037,7564
1049,7585
1049,7586
1012,7616
969,7669
937,7729
917,7795
910,7863
910,8355
917,8424
937,8489
969,8550
1012,8603
1065,8646
1126,8678
1191,8698
1260,8705
1624,8705
1692,8698
1758,8678
1818,8646
1871,8603
1914,8550
1947,8489
1967,8424
1973,8355
1973,7963
2081,8070
2081,8355
2088,8424
2108,8489
2140,8550
2184,8603
2237,8646
2297,8678
2363,8698
2431,8705
2795,8705
2863,8698
2929,8678
2989,8646
3042,8603
3086,8550
3118,8489
3138,8424
3145,8355
3145,8315
4380,8315
4381,8547
4444,8609
4862,8609
4862,8127
4962,8127
4962,8609
5380,8609
5442,8547
5443,8315
5439,8266
5424,8219
5401,8175
5370,8137
5332,8106
5288,8083
5241,8068
5192,8064
5024,8065
4962,8127
4862,8127
4799,8065
4631,8064
4582,8068
4535,8083
4492,8106
4454,8137
4422,8175
4399,8219
4385,8266
4380,8315
3145,8315
3145,7863
3138,7795
3118,7729
3116,7725
3147,7725
3147,7663
3210,7725
3442,7727
3491,7722
3538,7708
3581,7684
3619,7653
3645,7621
3645,7643
3650,7692
3664,7739
3688,7783
3719,7821
3757,7852
3800,7875
3848,7890
3897,7894
4079,7893
4142,7831
4142,7300
3709,7300
3692,7317
3692,7307
3629,7245
3147,7245
3147,7253
3047,7253
3047,7245
3039,7245
3039,7145
3047,7145
3047,7137
3147,7137
3147,7145
3629,7145
3647,7128
3647,7137
3709,7200
4142,7200
4142,7192
4242,7192
4242,7200
4250,7200
4250,7300
4242,7300
4242,7831
4304,7893
4463,7894
4478,7930
4484,7941
4515,7982
4525,7991
4565,8023
4577,8029
4624,8049
4637,8052
4688,8059
4694,8059
5297,8059
5338,8065
5374,8079
5404,8103
5427,8133
5442,8168
5447,8209
5447,9009
5442,9050
5432,9074
5439,9053
5443,9004
5442,8772
5380,8709
4962,8709
4962,8717
4862,8717
4862,8709
4444,8709
4381,8772
4380,9004
4385,9053
4399,9100
4422,9143
4435,9159
2594,9159
2588,9160
2537,9166
2524,9170
2477,9190
2465,9196
2425,9227
2415,9237
2384,9277
2378,9289
2358,9336
2354,9349
2348,9400
2347,9406
2347,9603
2326,9586
2282,9562
2235,9548
2186,9543
1610,9544
1547,9607
1547,10059
1555,10059
1555,10159
1547,10159
1547,10612
1610,10674
2186,10676
2235,10671
2282,10656
2326,10633
2347,10616
2347,10912
2348,10919
2354,10970
2358,10983
2378,11030
2384,11041
2415,11082
2425,11091
2465,11123
2477,11129
2524,11149
2537,11152
2588,11159
2594,11159
3997,11159
4038,11165
4074,11179
4104,11203
4127,11233
4142,11268
4147,11309
4147,11871
4133,11856
3995,11765
3842,11701
3680,11669
3515,11669
3352,11701
3199,11765
3062,11856
2944,11974
2852,12111
2847,12125
2809,12054
2685,11993
2168,12509
2685,13026
2809,12964
2846,12892
2852,12907
2944,13045
3062,13162
3199,13254
3352,13318
3515,13350
3680,13350
3842,13318
3995,13254
4133,13162
4147,13148
4147,13650
910,13650
832,13642
768,13623
710,13592
659,13550
616,13499
585,13441
565,13377
557,13300
557,13097
1581,13097
1642,13221
1790,13296
1949,13341
2114,13354
2279,13334
2436,13283
2552,13221
2614,13097
2097,12580
1581,13097
557,13097
557,12526
1253,12526
1272,12691
1324,12848
1386,12964
1510,13026
2027,12509
1510,11993
1386,12054
1311,12202
1266,12361
1253,12526
557,12526
557,11922
1581,11922
2097,12439
2614,11922
2552,11798
2405,11723
2246,11678
2080,11665
1916,11684
1759,11736
1642,11798
1581,11922
557,11922
557,10425
562,10473
576,10520
599,10564
631,10602
669,10633
712,10656
759,10671
808,10676
1385,10674
1447,10612
1447,10159
621,10159
558,10222
557,10420
557,9799
558,9997
621,10059
1447,10059
1447,9607
1385,9544
808,9543
759,9548
712,9562
669,9586
631,9617
599,9655
576,9698
562,9745
557,9794
557,2838
1018,2838
1019,3032
1082,3095
1347,3095
1347,2650
1285,2588
1269,2586
1220,2591
1173,2606
1130,2629
1092,2660
1061,2698
1037,2742
1023,2789
1018,2838
557,2838
557,2508
603,2512
835,2511
897,2449
897,2031
889,2031
889,1931
897,1931
897,1923
997,1923
997,1931
Z" /> 
</g>
</g>
<g style="fill:#FFFFFF; fill-opacity:1.0; 
stroke:#FFFFFF; stroke-width:100; stroke-opacity:1; 
stroke-linecap:round; stroke-linejoin:round;">
</g>
<g style="fill:#FFFFFF; fill-opacity:1.0; 
stroke:#FFFFFF; stroke-width:0; stroke-opacity:1; 
stroke-linecap:round; stroke-linejoin:round;">
<circle cx="1697.83" cy="4109.84" r="78.7402" /> 
</g>
<g style="fill:#FFFFFF; fill-opacity:1.0; 
stroke:#FFFFFF; stroke-width:39.3701; stroke-opacity:1; 
stroke-linecap:round; stroke-linejoin:round;">
</g>
<g style="fill:#FFFFFF; fill-opacity:1.0; 
stroke:#FFFFFF; stroke-width:0; stroke-opacity:1; 
stroke-linecap:round; stroke-linejoin:round;">
<circle cx="2097.83" cy="1959.84" r="200" /> 
</g>
<g style="fill:#FFFFFF; fill-opacity:1.0; 
stroke:#FFFFFF; stroke-width:39.3701; stroke-opacity:1; 
stroke-linecap:round; stroke-linejoin:round;">
</g>
<g style="fill:#FFFFFF; fill-opacity:1.0; 
stroke:#FFFFFF; stroke-width:0; stroke-opacity:1; 
stroke-linecap:round; stroke-linejoin:round;">
<circle cx="2097.83" cy="959.843" r="200" /> 
</g>
<g style="fill:#FFFFFF; fill-opacity:1.0; 
stroke:#FFFFFF; stroke-width:39.3701; stroke-opacity:1; 
stroke-linecap:round; stroke-linejoin:round;">
</g>
<g style="fill:#FFFFFF; fill-opacity:1.0; 
stroke:#FFFFFF; stroke-width:0; stroke-opacity:1; 
stroke-linecap:round; stroke-linejoin:round;">
<circle cx="3097.83" cy="1959.84" r="200" /> 
</g>
<g style="fill:#FFFFFF; fill-opacity:1.0; 
stroke:#FFFFFF; stroke-width:39.3701; stroke-opacity:1; 
stroke-linecap:round; stroke-linejoin:round;">
</g>
<g style="fill:#FFFFFF; fill-opacity:1.0; 
stroke:#FFFFFF; stroke-width:0; stroke-opacity:1; 
stroke-linecap:round; stroke-linejoin:round;">
<circle cx="3097.83" cy="959.843" r="200" /> 
</g>
<g style="fill:#FFFFFF; fill-opacity:1.0; 
stroke:#FFFFFF; stroke-width:39.3701; stroke-opacity:1; 
stroke-linecap:round; stroke-linejoin:round;">
</g>
<g style="fill:#FFFFFF; fill-opacity:1.0; 
stroke:#FFFFFF; stroke-width:0; stroke-opacity:1; 
stroke-linecap:round; stroke-linejoin:round;">
<circle cx="4097.83" cy="1959.84" r="200" /> 
</g>
<g style="fill:#FFFFFF; fill-opacity:1.0; 
stroke:#FFFFFF; stroke-width:39.3701; stroke-opacity:1; 
stroke-linecap:round; stroke-linejoin:round;">
</g>
<g style="fill:#FFFFFF; fill-opacity:1.0; 
stroke:#FFFFFF; stroke-width:0; stroke-opacity:1; 
stroke-linecap:round; stroke-linejoin:round;">
<circle cx="4097.83" cy="959.843" r="200" /> 
</g>
<g style="fill:#FFFFFF; fill-opacity:1.0; 
stroke:#FFFFFF; stroke-width:39.3701; stroke-opacity:1; 
stroke-linecap:round; stroke-linejoin:round;">
</g>
<g style="fill:#FFFFFF; fill-opacity:1.0; 
stroke:#FFFFFF; stroke-width:0; stroke-opacity:1; 
stroke-linecap:round; stroke-linejoin:round;">
<circle cx="5097.83" cy="1959.84" r="200" /> 
</g>
<g style="fill:#FFFFFF; fill-opacity:1.0; 
stroke:#FFFFFF; stroke-width:39.3701; stroke-opacity:1; 
stroke-linecap:round; stroke-linejoin:round;">
</g>
<g style="fill:#FFFFFF; fill-opacity:1.0; 
stroke:#FFFFFF; stroke-width:0; stroke-opacity:1; 
stroke-linecap:round; stroke-linejoin:round;">
<circle cx="5097.83" cy="959.843" r="200" /> 
</g>
<g style="fill:#FFFFFF; fill-opacity:1.0; 
stroke:#FFFFFF; stroke-width:39.3701; stroke-opacity:1; 
stroke-linecap:round; stroke-linejoin:round;">
</g>
<g style="fill:#FFFFFF; fill-opacity:1.0; 
stroke:#FFFFFF; stroke-width:0; stroke-opacity:1; 
stroke-linecap:round; stroke-linejoin:round;">
<circle cx="2097.83" cy="12509.8" r="236" /> 
</g>
<g style="fill:#FFFFFF; fill-opacity:1.0; 
stroke:#FFFFFF; stroke-width:39.3701; stroke-opacity:1; 
stroke-linecap:round; stroke-linejoin:round;">
</g>
<g style="fill:#FFFFFF; fill-opacity:1.0; 
stroke:#FFFFFF; stroke-width:0; stroke-opacity:1; 
stroke-linecap:round; stroke-linejoin:round;">
<circle cx="3597.83" cy="12509.8" r="236" /> 
</g>
<g style="fill:#FFFFFF; fill-opacity:1.0; 
stroke:#FFFFFF; stroke-width:39.3701; stroke-opacity:1; 
stroke-linecap:round; stroke-linejoin:round;">
</g>
<g style="fill:#FFFFFF; fill-opacity:1.0; 
stroke:#FFFFFF; stroke-width:0; stroke-opacity:1; 
stroke-linecap:round; stroke-linejoin:round;">
<circle cx="5097.83" cy="12509.8" r="236" /> 
</g>
<g style="fill:#FFFFFF; fill-opacity:1.0; 
stroke:#FFFFFF; stroke-width:39.3701; stroke-opacity:1; 
stroke-linecap:round; stroke-linejoin:round;">
</g>
<g style="fill:#000000; fill-opacity:1.0; 
stroke:#000000; stroke-width:39.3701; stroke-opacity:1; 
stroke-linecap:round; stroke-linejoin:round;">
</g>
<g style="fill:#000000; fill-opacity:0.0; 
stroke:#000000; stroke-width:19.685; stroke-opacity:1; 
stroke-linecap:round; stroke-linejoin:round;">
<path d="M6897.83 609.843 A600 600 0.0 0 0 6297.83 9.84291 " />
<path d="M897.835 9.84291 A600 600 0.0 0 0 297.835 609.843 " />
<path d="M297.835 13309.8 A600 600 0.0 0 0 897.835 13909.8 " />
<path d="M6297.83 13909.8 A600 600 0.0 0 0 6897.83 13309.8 " />
<path d="M6897 609
L6897 13309
" />
<path d="M297 13309
L297 609
" />
<path d="M6297 9
L897 9
" />
<path d="M897 13909
L6297 13909
" />
<g >
</g>
<g >
</g>
<g >
</g>
<g >
</g>
<g >
</g>
<g >
</g>
<g >
</g>
<g >
</g>
<g >
</g>
<g >
</g>
<g >
</g>
<g >
</g>
<g >
</g>
</g> 
</svg>
