G04 #@! TF.GenerationSoftware,KiCad,Pcbnew,(5.1.4)-1*
G04 #@! TF.CreationDate,2019-12-17T12:56:31-08:00*
G04 #@! TF.ProjectId,pixel-stick,70697865-6c2d-4737-9469-636b2e6b6963,rev?*
G04 #@! TF.SameCoordinates,Original*
G04 #@! TF.FileFunction,Soldermask,Bot*
G04 #@! TF.FilePolarity,Negative*
%FSLAX46Y46*%
G04 Gerber Fmt 4.6, Leading zero omitted, Abs format (unit mm)*
G04 Created by KiCad (PCBNEW (5.1.4)-1) date 2019-12-17 12:56:31*
%MOMM*%
%LPD*%
G04 APERTURE LIST*
%ADD10C,0.100000*%
G04 APERTURE END LIST*
D10*
G36*
X108379487Y-45498996D02*
G01*
X108616253Y-45597068D01*
X108616255Y-45597069D01*
X108829339Y-45739447D01*
X109010553Y-45920661D01*
X109152932Y-46133747D01*
X109251004Y-46370513D01*
X109301000Y-46621861D01*
X109301000Y-46878139D01*
X109251004Y-47129487D01*
X109152932Y-47366253D01*
X109152931Y-47366255D01*
X109010553Y-47579339D01*
X108829339Y-47760553D01*
X108616255Y-47902931D01*
X108616254Y-47902932D01*
X108616253Y-47902932D01*
X108379487Y-48001004D01*
X108128139Y-48051000D01*
X107871861Y-48051000D01*
X107620513Y-48001004D01*
X107383747Y-47902932D01*
X107383746Y-47902932D01*
X107383745Y-47902931D01*
X107170661Y-47760553D01*
X106989447Y-47579339D01*
X106847069Y-47366255D01*
X106847068Y-47366253D01*
X106748996Y-47129487D01*
X106699000Y-46878139D01*
X106699000Y-46621861D01*
X106748996Y-46370513D01*
X106847068Y-46133747D01*
X106989447Y-45920661D01*
X107170661Y-45739447D01*
X107383745Y-45597069D01*
X107383747Y-45597068D01*
X107620513Y-45498996D01*
X107871861Y-45449000D01*
X108128139Y-45449000D01*
X108379487Y-45498996D01*
X108379487Y-45498996D01*
G37*
G36*
X111016242Y-40103404D02*
G01*
X111053337Y-40114657D01*
X111087515Y-40132925D01*
X111117481Y-40157519D01*
X111142075Y-40187485D01*
X111160343Y-40221663D01*
X111171596Y-40258758D01*
X111176000Y-40303474D01*
X111176000Y-41196526D01*
X111171596Y-41241242D01*
X111160343Y-41278337D01*
X111142075Y-41312515D01*
X111117481Y-41342481D01*
X111087515Y-41367075D01*
X111053337Y-41385343D01*
X111016242Y-41396596D01*
X110971526Y-41401000D01*
X109528474Y-41401000D01*
X109483758Y-41396596D01*
X109446663Y-41385343D01*
X109412485Y-41367075D01*
X109382519Y-41342481D01*
X109357925Y-41312515D01*
X109339657Y-41278337D01*
X109328404Y-41241242D01*
X109324000Y-41196526D01*
X109324000Y-40303474D01*
X109328404Y-40258758D01*
X109339657Y-40221663D01*
X109357925Y-40187485D01*
X109382519Y-40157519D01*
X109412485Y-40132925D01*
X109446663Y-40114657D01*
X109483758Y-40103404D01*
X109528474Y-40099000D01*
X110971526Y-40099000D01*
X111016242Y-40103404D01*
X111016242Y-40103404D01*
G37*
G36*
X110588855Y-38102140D02*
G01*
X110652618Y-38108420D01*
X110743404Y-38135960D01*
X110775336Y-38145646D01*
X110888425Y-38206094D01*
X110987554Y-38287446D01*
X111068906Y-38386575D01*
X111129354Y-38499664D01*
X111129355Y-38499668D01*
X111166580Y-38622382D01*
X111179149Y-38750000D01*
X111166580Y-38877618D01*
X111139040Y-38968404D01*
X111129354Y-39000336D01*
X111068906Y-39113425D01*
X110987554Y-39212554D01*
X110888425Y-39293906D01*
X110775336Y-39354354D01*
X110743404Y-39364040D01*
X110652618Y-39391580D01*
X110588855Y-39397860D01*
X110556974Y-39401000D01*
X109943026Y-39401000D01*
X109911145Y-39397860D01*
X109847382Y-39391580D01*
X109756596Y-39364040D01*
X109724664Y-39354354D01*
X109611575Y-39293906D01*
X109512446Y-39212554D01*
X109431094Y-39113425D01*
X109370646Y-39000336D01*
X109360960Y-38968404D01*
X109333420Y-38877618D01*
X109320851Y-38750000D01*
X109333420Y-38622382D01*
X109370645Y-38499668D01*
X109370646Y-38499664D01*
X109431094Y-38386575D01*
X109512446Y-38287446D01*
X109611575Y-38206094D01*
X109724664Y-38145646D01*
X109756596Y-38135960D01*
X109847382Y-38108420D01*
X109911145Y-38102140D01*
X109943026Y-38099000D01*
X110556974Y-38099000D01*
X110588855Y-38102140D01*
X110588855Y-38102140D01*
G37*
G36*
X110588855Y-36102140D02*
G01*
X110652618Y-36108420D01*
X110743404Y-36135960D01*
X110775336Y-36145646D01*
X110888425Y-36206094D01*
X110987554Y-36287446D01*
X111068906Y-36386575D01*
X111129354Y-36499664D01*
X111129355Y-36499668D01*
X111166580Y-36622382D01*
X111179149Y-36750000D01*
X111166580Y-36877618D01*
X111139040Y-36968404D01*
X111129354Y-37000336D01*
X111068906Y-37113425D01*
X110987554Y-37212554D01*
X110888425Y-37293906D01*
X110775336Y-37354354D01*
X110743404Y-37364040D01*
X110652618Y-37391580D01*
X110588855Y-37397860D01*
X110556974Y-37401000D01*
X109943026Y-37401000D01*
X109911145Y-37397860D01*
X109847382Y-37391580D01*
X109756596Y-37364040D01*
X109724664Y-37354354D01*
X109611575Y-37293906D01*
X109512446Y-37212554D01*
X109431094Y-37113425D01*
X109370646Y-37000336D01*
X109360960Y-36968404D01*
X109333420Y-36877618D01*
X109320851Y-36750000D01*
X109333420Y-36622382D01*
X109370645Y-36499668D01*
X109370646Y-36499664D01*
X109431094Y-36386575D01*
X109512446Y-36287446D01*
X109611575Y-36206094D01*
X109724664Y-36145646D01*
X109756596Y-36135960D01*
X109847382Y-36108420D01*
X109911145Y-36102140D01*
X109943026Y-36099000D01*
X110556974Y-36099000D01*
X110588855Y-36102140D01*
X110588855Y-36102140D01*
G37*
G36*
X88567942Y-30355519D02*
G01*
X88634126Y-30362037D01*
X88803965Y-30413557D01*
X88960490Y-30497222D01*
X88996228Y-30526552D01*
X89097685Y-30609814D01*
X89180947Y-30711271D01*
X89210277Y-30747009D01*
X89293942Y-30903534D01*
X89345462Y-31073373D01*
X89362858Y-31250000D01*
X89345462Y-31426627D01*
X89293942Y-31596466D01*
X89210277Y-31752991D01*
X89180947Y-31788729D01*
X89097685Y-31890186D01*
X88996228Y-31973448D01*
X88960490Y-32002778D01*
X88803965Y-32086443D01*
X88634126Y-32137963D01*
X88567942Y-32144481D01*
X88501759Y-32151000D01*
X88413239Y-32151000D01*
X88347056Y-32144481D01*
X88280872Y-32137963D01*
X88111033Y-32086443D01*
X87954508Y-32002778D01*
X87918770Y-31973448D01*
X87817313Y-31890186D01*
X87734051Y-31788729D01*
X87704721Y-31752991D01*
X87621056Y-31596466D01*
X87569536Y-31426627D01*
X87552140Y-31250000D01*
X87569536Y-31073373D01*
X87621056Y-30903534D01*
X87704721Y-30747009D01*
X87734051Y-30711271D01*
X87817313Y-30609814D01*
X87918770Y-30526552D01*
X87954508Y-30497222D01*
X88111033Y-30413557D01*
X88280872Y-30362037D01*
X88347056Y-30355519D01*
X88413239Y-30349000D01*
X88501759Y-30349000D01*
X88567942Y-30355519D01*
X88567942Y-30355519D01*
G37*
G36*
X86818499Y-32151000D02*
G01*
X85016499Y-32151000D01*
X85016499Y-30349000D01*
X86818499Y-30349000D01*
X86818499Y-32151000D01*
X86818499Y-32151000D01*
G37*
G36*
X75379487Y-29498996D02*
G01*
X75616253Y-29597068D01*
X75616255Y-29597069D01*
X75829339Y-29739447D01*
X76010553Y-29920661D01*
X76152932Y-30133747D01*
X76251004Y-30370513D01*
X76301000Y-30621861D01*
X76301000Y-30878139D01*
X76251004Y-31129487D01*
X76152932Y-31366253D01*
X76152931Y-31366255D01*
X76010553Y-31579339D01*
X75829339Y-31760553D01*
X75616255Y-31902931D01*
X75616254Y-31902932D01*
X75616253Y-31902932D01*
X75379487Y-32001004D01*
X75128139Y-32051000D01*
X74871861Y-32051000D01*
X74620513Y-32001004D01*
X74383747Y-31902932D01*
X74383746Y-31902932D01*
X74383745Y-31902931D01*
X74170661Y-31760553D01*
X73989447Y-31579339D01*
X73847069Y-31366255D01*
X73847068Y-31366253D01*
X73748996Y-31129487D01*
X73699000Y-30878139D01*
X73699000Y-30621861D01*
X73748996Y-30370513D01*
X73847068Y-30133747D01*
X73989447Y-29920661D01*
X74170661Y-29739447D01*
X74383745Y-29597069D01*
X74383747Y-29597068D01*
X74620513Y-29498996D01*
X74871861Y-29449000D01*
X75128139Y-29449000D01*
X75379487Y-29498996D01*
X75379487Y-29498996D01*
G37*
M02*
