G04 #@! TF.GenerationSoftware,KiCad,Pcbnew,(5.1.4)-1*
G04 #@! TF.CreationDate,2019-12-17T12:56:31-08:00*
G04 #@! TF.ProjectId,pixel-stick,70697865-6c2d-4737-9469-636b2e6b6963,rev?*
G04 #@! TF.SameCoordinates,Original*
G04 #@! TF.FileFunction,Soldermask,Top*
G04 #@! TF.FilePolarity,Negative*
%FSLAX46Y46*%
G04 Gerber Fmt 4.6, Leading zero omitted, Abs format (unit mm)*
G04 Created by KiCad (PCBNEW (5.1.4)-1) date 2019-12-17 12:56:31*
%MOMM*%
%LPD*%
G04 APERTURE LIST*
%ADD10C,0.100000*%
G04 APERTURE END LIST*
D10*
G36*
X90251000Y-48051000D02*
G01*
X89249000Y-48051000D01*
X89249000Y-45949000D01*
X90251000Y-45949000D01*
X90251000Y-48051000D01*
X90251000Y-48051000D01*
G37*
G36*
X91751000Y-48051000D02*
G01*
X90749000Y-48051000D01*
X90749000Y-45949000D01*
X91751000Y-45949000D01*
X91751000Y-48051000D01*
X91751000Y-48051000D01*
G37*
G36*
X108379487Y-45498996D02*
G01*
X108616253Y-45597068D01*
X108616255Y-45597069D01*
X108708844Y-45658935D01*
X108829339Y-45739447D01*
X109010553Y-45920661D01*
X109152932Y-46133747D01*
X109251004Y-46370513D01*
X109301000Y-46621861D01*
X109301000Y-46878139D01*
X109251004Y-47129487D01*
X109193112Y-47269250D01*
X109152931Y-47366255D01*
X109010553Y-47579339D01*
X108829339Y-47760553D01*
X108616255Y-47902931D01*
X108616254Y-47902932D01*
X108616253Y-47902932D01*
X108379487Y-48001004D01*
X108128139Y-48051000D01*
X107871861Y-48051000D01*
X107620513Y-48001004D01*
X107383747Y-47902932D01*
X107383746Y-47902932D01*
X107383745Y-47902931D01*
X107170661Y-47760553D01*
X106989447Y-47579339D01*
X106847069Y-47366255D01*
X106806888Y-47269250D01*
X106748996Y-47129487D01*
X106699000Y-46878139D01*
X106699000Y-46621861D01*
X106748996Y-46370513D01*
X106847068Y-46133747D01*
X106989447Y-45920661D01*
X107170661Y-45739447D01*
X107291156Y-45658935D01*
X107383745Y-45597069D01*
X107383747Y-45597068D01*
X107620513Y-45498996D01*
X107871861Y-45449000D01*
X108128139Y-45449000D01*
X108379487Y-45498996D01*
X108379487Y-45498996D01*
G37*
G36*
X82751000Y-48051000D02*
G01*
X81749000Y-48051000D01*
X81749000Y-45949000D01*
X82751000Y-45949000D01*
X82751000Y-48051000D01*
X82751000Y-48051000D01*
G37*
G36*
X84251000Y-48051000D02*
G01*
X83249000Y-48051000D01*
X83249000Y-45949000D01*
X84251000Y-45949000D01*
X84251000Y-48051000D01*
X84251000Y-48051000D01*
G37*
G36*
X87251000Y-48051000D02*
G01*
X86249000Y-48051000D01*
X86249000Y-45949000D01*
X87251000Y-45949000D01*
X87251000Y-48051000D01*
X87251000Y-48051000D01*
G37*
G36*
X88751000Y-48051000D02*
G01*
X87749000Y-48051000D01*
X87749000Y-45949000D01*
X88751000Y-45949000D01*
X88751000Y-48051000D01*
X88751000Y-48051000D01*
G37*
G36*
X85751000Y-48051000D02*
G01*
X84749000Y-48051000D01*
X84749000Y-45949000D01*
X85751000Y-45949000D01*
X85751000Y-48051000D01*
X85751000Y-48051000D01*
G37*
G36*
X103091000Y-47571000D02*
G01*
X102339000Y-47571000D01*
X102339000Y-45469000D01*
X103091000Y-45469000D01*
X103091000Y-47571000D01*
X103091000Y-47571000D01*
G37*
G36*
X101741000Y-47571000D02*
G01*
X100989000Y-47571000D01*
X100989000Y-45469000D01*
X101741000Y-45469000D01*
X101741000Y-47571000D01*
X101741000Y-47571000D01*
G37*
G36*
X94834468Y-46466065D02*
G01*
X94873138Y-46477796D01*
X94908777Y-46496846D01*
X94940017Y-46522483D01*
X94965654Y-46553723D01*
X94984704Y-46589362D01*
X94996435Y-46628032D01*
X95001000Y-46674388D01*
X95001000Y-47325612D01*
X94996435Y-47371968D01*
X94984704Y-47410638D01*
X94965654Y-47446277D01*
X94940017Y-47477517D01*
X94908777Y-47503154D01*
X94873138Y-47522204D01*
X94834468Y-47533935D01*
X94788112Y-47538500D01*
X93711888Y-47538500D01*
X93665532Y-47533935D01*
X93626862Y-47522204D01*
X93591223Y-47503154D01*
X93559983Y-47477517D01*
X93534346Y-47446277D01*
X93515296Y-47410638D01*
X93503565Y-47371968D01*
X93499000Y-47325612D01*
X93499000Y-46674388D01*
X93503565Y-46628032D01*
X93515296Y-46589362D01*
X93534346Y-46553723D01*
X93559983Y-46522483D01*
X93591223Y-46496846D01*
X93626862Y-46477796D01*
X93665532Y-46466065D01*
X93711888Y-46461500D01*
X94788112Y-46461500D01*
X94834468Y-46466065D01*
X94834468Y-46466065D01*
G37*
G36*
X94834468Y-44591065D02*
G01*
X94873138Y-44602796D01*
X94908777Y-44621846D01*
X94940017Y-44647483D01*
X94965654Y-44678723D01*
X94984704Y-44714362D01*
X94996435Y-44753032D01*
X95001000Y-44799388D01*
X95001000Y-45450612D01*
X94996435Y-45496968D01*
X94984704Y-45535638D01*
X94965654Y-45571277D01*
X94940017Y-45602517D01*
X94908777Y-45628154D01*
X94873138Y-45647204D01*
X94834468Y-45658935D01*
X94788112Y-45663500D01*
X93711888Y-45663500D01*
X93665532Y-45658935D01*
X93626862Y-45647204D01*
X93591223Y-45628154D01*
X93559983Y-45602517D01*
X93534346Y-45571277D01*
X93515296Y-45535638D01*
X93503565Y-45496968D01*
X93499000Y-45450612D01*
X93499000Y-44799388D01*
X93503565Y-44753032D01*
X93515296Y-44714362D01*
X93534346Y-44678723D01*
X93559983Y-44647483D01*
X93591223Y-44621846D01*
X93626862Y-44602796D01*
X93665532Y-44591065D01*
X93711888Y-44586500D01*
X94788112Y-44586500D01*
X94834468Y-44591065D01*
X94834468Y-44591065D01*
G37*
G36*
X103366000Y-44451000D02*
G01*
X102614000Y-44451000D01*
X102614000Y-43289000D01*
X103366000Y-43289000D01*
X103366000Y-44451000D01*
X103366000Y-44451000D01*
G37*
G36*
X101466000Y-44451000D02*
G01*
X100714000Y-44451000D01*
X100714000Y-43289000D01*
X101466000Y-43289000D01*
X101466000Y-44451000D01*
X101466000Y-44451000D01*
G37*
G36*
X99434468Y-43333565D02*
G01*
X99473138Y-43345296D01*
X99508777Y-43364346D01*
X99540017Y-43389983D01*
X99565654Y-43421223D01*
X99584704Y-43456862D01*
X99596435Y-43495532D01*
X99601000Y-43541888D01*
X99601000Y-44193112D01*
X99596435Y-44239468D01*
X99584704Y-44278138D01*
X99565654Y-44313777D01*
X99540017Y-44345017D01*
X99508777Y-44370654D01*
X99473138Y-44389704D01*
X99434468Y-44401435D01*
X99388112Y-44406000D01*
X98311888Y-44406000D01*
X98265532Y-44401435D01*
X98226862Y-44389704D01*
X98191223Y-44370654D01*
X98159983Y-44345017D01*
X98134346Y-44313777D01*
X98115296Y-44278138D01*
X98103565Y-44239468D01*
X98099000Y-44193112D01*
X98099000Y-43541888D01*
X98103565Y-43495532D01*
X98115296Y-43456862D01*
X98134346Y-43421223D01*
X98159983Y-43389983D01*
X98191223Y-43364346D01*
X98226862Y-43345296D01*
X98265532Y-43333565D01*
X98311888Y-43329000D01*
X99388112Y-43329000D01*
X99434468Y-43333565D01*
X99434468Y-43333565D01*
G37*
G36*
X105814468Y-42953565D02*
G01*
X105853138Y-42965296D01*
X105888777Y-42984346D01*
X105920017Y-43009983D01*
X105945654Y-43041223D01*
X105964704Y-43076862D01*
X105976435Y-43115532D01*
X105981000Y-43161888D01*
X105981000Y-43813112D01*
X105976435Y-43859468D01*
X105964704Y-43898138D01*
X105945654Y-43933777D01*
X105920017Y-43965017D01*
X105888777Y-43990654D01*
X105853138Y-44009704D01*
X105814468Y-44021435D01*
X105768112Y-44026000D01*
X104691888Y-44026000D01*
X104645532Y-44021435D01*
X104606862Y-44009704D01*
X104571223Y-43990654D01*
X104539983Y-43965017D01*
X104514346Y-43933777D01*
X104495296Y-43898138D01*
X104483565Y-43859468D01*
X104479000Y-43813112D01*
X104479000Y-43161888D01*
X104483565Y-43115532D01*
X104495296Y-43076862D01*
X104514346Y-43041223D01*
X104539983Y-43009983D01*
X104571223Y-42984346D01*
X104606862Y-42965296D01*
X104645532Y-42953565D01*
X104691888Y-42949000D01*
X105768112Y-42949000D01*
X105814468Y-42953565D01*
X105814468Y-42953565D01*
G37*
G36*
X88751000Y-43451000D02*
G01*
X86149000Y-43451000D01*
X86149000Y-40849000D01*
X88751000Y-40849000D01*
X88751000Y-43451000D01*
X88751000Y-43451000D01*
G37*
G36*
X99434468Y-41458565D02*
G01*
X99473138Y-41470296D01*
X99508777Y-41489346D01*
X99540017Y-41514983D01*
X99565654Y-41546223D01*
X99584704Y-41581862D01*
X99596435Y-41620532D01*
X99601000Y-41666888D01*
X99601000Y-42318112D01*
X99596435Y-42364468D01*
X99584704Y-42403138D01*
X99565654Y-42438777D01*
X99540017Y-42470017D01*
X99508777Y-42495654D01*
X99473138Y-42514704D01*
X99434468Y-42526435D01*
X99388112Y-42531000D01*
X98311888Y-42531000D01*
X98265532Y-42526435D01*
X98226862Y-42514704D01*
X98191223Y-42495654D01*
X98159983Y-42470017D01*
X98134346Y-42438777D01*
X98115296Y-42403138D01*
X98103565Y-42364468D01*
X98099000Y-42318112D01*
X98099000Y-41666888D01*
X98103565Y-41620532D01*
X98115296Y-41581862D01*
X98134346Y-41546223D01*
X98159983Y-41514983D01*
X98191223Y-41489346D01*
X98226862Y-41470296D01*
X98265532Y-41458565D01*
X98311888Y-41454000D01*
X99388112Y-41454000D01*
X99434468Y-41458565D01*
X99434468Y-41458565D01*
G37*
G36*
X103366000Y-42251000D02*
G01*
X100714000Y-42251000D01*
X100714000Y-41089000D01*
X103366000Y-41089000D01*
X103366000Y-42251000D01*
X103366000Y-42251000D01*
G37*
G36*
X105814468Y-41078565D02*
G01*
X105853138Y-41090296D01*
X105888777Y-41109346D01*
X105920017Y-41134983D01*
X105945654Y-41166223D01*
X105964704Y-41201862D01*
X105976435Y-41240532D01*
X105981000Y-41286888D01*
X105981000Y-41938112D01*
X105976435Y-41984468D01*
X105964704Y-42023138D01*
X105945654Y-42058777D01*
X105920017Y-42090017D01*
X105888777Y-42115654D01*
X105853138Y-42134704D01*
X105814468Y-42146435D01*
X105768112Y-42151000D01*
X104691888Y-42151000D01*
X104645532Y-42146435D01*
X104606862Y-42134704D01*
X104571223Y-42115654D01*
X104539983Y-42090017D01*
X104514346Y-42058777D01*
X104495296Y-42023138D01*
X104483565Y-41984468D01*
X104479000Y-41938112D01*
X104479000Y-41286888D01*
X104483565Y-41240532D01*
X104495296Y-41201862D01*
X104514346Y-41166223D01*
X104539983Y-41134983D01*
X104571223Y-41109346D01*
X104606862Y-41090296D01*
X104645532Y-41078565D01*
X104691888Y-41074000D01*
X105768112Y-41074000D01*
X105814468Y-41078565D01*
X105814468Y-41078565D01*
G37*
G36*
X111016242Y-40103404D02*
G01*
X111053337Y-40114657D01*
X111087515Y-40132925D01*
X111117481Y-40157519D01*
X111142075Y-40187485D01*
X111160343Y-40221663D01*
X111171596Y-40258758D01*
X111176000Y-40303474D01*
X111176000Y-41196526D01*
X111171596Y-41241242D01*
X111160343Y-41278337D01*
X111142075Y-41312515D01*
X111117481Y-41342481D01*
X111087515Y-41367075D01*
X111053337Y-41385343D01*
X111016242Y-41396596D01*
X110971526Y-41401000D01*
X109528474Y-41401000D01*
X109483758Y-41396596D01*
X109446663Y-41385343D01*
X109412485Y-41367075D01*
X109382519Y-41342481D01*
X109357925Y-41312515D01*
X109339657Y-41278337D01*
X109328404Y-41241242D01*
X109324000Y-41196526D01*
X109324000Y-40303474D01*
X109328404Y-40258758D01*
X109339657Y-40221663D01*
X109357925Y-40187485D01*
X109382519Y-40157519D01*
X109412485Y-40132925D01*
X109446663Y-40114657D01*
X109483758Y-40103404D01*
X109528474Y-40099000D01*
X110971526Y-40099000D01*
X111016242Y-40103404D01*
X111016242Y-40103404D01*
G37*
G36*
X99394468Y-39333565D02*
G01*
X99433138Y-39345296D01*
X99468777Y-39364346D01*
X99500017Y-39389983D01*
X99525654Y-39421223D01*
X99544704Y-39456862D01*
X99556435Y-39495532D01*
X99561000Y-39541888D01*
X99561000Y-40193112D01*
X99556435Y-40239468D01*
X99544704Y-40278138D01*
X99525654Y-40313777D01*
X99500017Y-40345017D01*
X99468777Y-40370654D01*
X99433138Y-40389704D01*
X99394468Y-40401435D01*
X99348112Y-40406000D01*
X98271888Y-40406000D01*
X98225532Y-40401435D01*
X98186862Y-40389704D01*
X98151223Y-40370654D01*
X98119983Y-40345017D01*
X98094346Y-40313777D01*
X98075296Y-40278138D01*
X98063565Y-40239468D01*
X98059000Y-40193112D01*
X98059000Y-39541888D01*
X98063565Y-39495532D01*
X98075296Y-39456862D01*
X98094346Y-39421223D01*
X98119983Y-39389983D01*
X98151223Y-39364346D01*
X98186862Y-39345296D01*
X98225532Y-39333565D01*
X98271888Y-39329000D01*
X99348112Y-39329000D01*
X99394468Y-39333565D01*
X99394468Y-39333565D01*
G37*
G36*
X110588855Y-38102140D02*
G01*
X110652618Y-38108420D01*
X110743404Y-38135960D01*
X110775336Y-38145646D01*
X110888425Y-38206094D01*
X110987554Y-38287446D01*
X111068906Y-38386575D01*
X111129354Y-38499664D01*
X111133916Y-38514704D01*
X111166580Y-38622382D01*
X111179149Y-38750000D01*
X111166580Y-38877618D01*
X111139040Y-38968404D01*
X111129354Y-39000336D01*
X111068906Y-39113425D01*
X110987554Y-39212554D01*
X110888425Y-39293906D01*
X110775336Y-39354354D01*
X110743404Y-39364040D01*
X110652618Y-39391580D01*
X110588855Y-39397860D01*
X110556974Y-39401000D01*
X109943026Y-39401000D01*
X109911145Y-39397860D01*
X109847382Y-39391580D01*
X109756596Y-39364040D01*
X109724664Y-39354354D01*
X109611575Y-39293906D01*
X109512446Y-39212554D01*
X109431094Y-39113425D01*
X109370646Y-39000336D01*
X109360960Y-38968404D01*
X109333420Y-38877618D01*
X109320851Y-38750000D01*
X109333420Y-38622382D01*
X109366084Y-38514704D01*
X109370646Y-38499664D01*
X109431094Y-38386575D01*
X109512446Y-38287446D01*
X109611575Y-38206094D01*
X109724664Y-38145646D01*
X109756596Y-38135960D01*
X109847382Y-38108420D01*
X109911145Y-38102140D01*
X109943026Y-38099000D01*
X110556974Y-38099000D01*
X110588855Y-38102140D01*
X110588855Y-38102140D01*
G37*
G36*
X99394468Y-37458565D02*
G01*
X99433138Y-37470296D01*
X99468777Y-37489346D01*
X99500017Y-37514983D01*
X99525654Y-37546223D01*
X99544704Y-37581862D01*
X99556435Y-37620532D01*
X99561000Y-37666888D01*
X99561000Y-38318112D01*
X99556435Y-38364468D01*
X99544704Y-38403138D01*
X99525654Y-38438777D01*
X99500017Y-38470017D01*
X99468777Y-38495654D01*
X99433138Y-38514704D01*
X99394468Y-38526435D01*
X99348112Y-38531000D01*
X98271888Y-38531000D01*
X98225532Y-38526435D01*
X98186862Y-38514704D01*
X98151223Y-38495654D01*
X98119983Y-38470017D01*
X98094346Y-38438777D01*
X98075296Y-38403138D01*
X98063565Y-38364468D01*
X98059000Y-38318112D01*
X98059000Y-37666888D01*
X98063565Y-37620532D01*
X98075296Y-37581862D01*
X98094346Y-37546223D01*
X98119983Y-37514983D01*
X98151223Y-37489346D01*
X98186862Y-37470296D01*
X98225532Y-37458565D01*
X98271888Y-37454000D01*
X99348112Y-37454000D01*
X99394468Y-37458565D01*
X99394468Y-37458565D01*
G37*
G36*
X106104468Y-37443565D02*
G01*
X106143138Y-37455296D01*
X106178777Y-37474346D01*
X106210017Y-37499983D01*
X106235654Y-37531223D01*
X106254704Y-37566862D01*
X106266435Y-37605532D01*
X106271000Y-37651888D01*
X106271000Y-38303112D01*
X106266435Y-38349468D01*
X106254704Y-38388138D01*
X106235654Y-38423777D01*
X106210017Y-38455017D01*
X106178777Y-38480654D01*
X106143138Y-38499704D01*
X106104468Y-38511435D01*
X106058112Y-38516000D01*
X104981888Y-38516000D01*
X104935532Y-38511435D01*
X104896862Y-38499704D01*
X104861223Y-38480654D01*
X104829983Y-38455017D01*
X104804346Y-38423777D01*
X104785296Y-38388138D01*
X104773565Y-38349468D01*
X104769000Y-38303112D01*
X104769000Y-37651888D01*
X104773565Y-37605532D01*
X104785296Y-37566862D01*
X104804346Y-37531223D01*
X104829983Y-37499983D01*
X104861223Y-37474346D01*
X104896862Y-37455296D01*
X104935532Y-37443565D01*
X104981888Y-37439000D01*
X106058112Y-37439000D01*
X106104468Y-37443565D01*
X106104468Y-37443565D01*
G37*
G36*
X101371000Y-38366000D02*
G01*
X100209000Y-38366000D01*
X100209000Y-35714000D01*
X101371000Y-35714000D01*
X101371000Y-38366000D01*
X101371000Y-38366000D01*
G37*
G36*
X103571000Y-38366000D02*
G01*
X102409000Y-38366000D01*
X102409000Y-35714000D01*
X103571000Y-35714000D01*
X103571000Y-38366000D01*
X103571000Y-38366000D01*
G37*
G36*
X110566954Y-36099983D02*
G01*
X110652618Y-36108420D01*
X110727789Y-36131223D01*
X110775336Y-36145646D01*
X110888425Y-36206094D01*
X110987554Y-36287446D01*
X111068906Y-36386575D01*
X111129354Y-36499664D01*
X111129355Y-36499668D01*
X111166580Y-36622382D01*
X111179149Y-36750000D01*
X111166580Y-36877618D01*
X111160009Y-36899278D01*
X111129354Y-37000336D01*
X111068906Y-37113425D01*
X110987554Y-37212554D01*
X110888425Y-37293906D01*
X110775336Y-37354354D01*
X110743404Y-37364040D01*
X110652618Y-37391580D01*
X110588855Y-37397860D01*
X110556974Y-37401000D01*
X109943026Y-37401000D01*
X109911145Y-37397860D01*
X109847382Y-37391580D01*
X109756596Y-37364040D01*
X109724664Y-37354354D01*
X109611575Y-37293906D01*
X109512446Y-37212554D01*
X109431094Y-37113425D01*
X109370646Y-37000336D01*
X109339991Y-36899278D01*
X109333420Y-36877618D01*
X109320851Y-36750000D01*
X109333420Y-36622382D01*
X109370645Y-36499668D01*
X109370646Y-36499664D01*
X109431094Y-36386575D01*
X109512446Y-36287446D01*
X109611575Y-36206094D01*
X109724664Y-36145646D01*
X109772211Y-36131223D01*
X109847382Y-36108420D01*
X109933046Y-36099983D01*
X109943026Y-36099000D01*
X110556974Y-36099000D01*
X110566954Y-36099983D01*
X110566954Y-36099983D01*
G37*
G36*
X94834468Y-36043565D02*
G01*
X94873138Y-36055296D01*
X94908777Y-36074346D01*
X94940017Y-36099983D01*
X94965654Y-36131223D01*
X94984704Y-36166862D01*
X94996435Y-36205532D01*
X95001000Y-36251888D01*
X95001000Y-36903112D01*
X94996435Y-36949468D01*
X94984704Y-36988138D01*
X94965654Y-37023777D01*
X94940017Y-37055017D01*
X94908777Y-37080654D01*
X94873138Y-37099704D01*
X94834468Y-37111435D01*
X94788112Y-37116000D01*
X93711888Y-37116000D01*
X93665532Y-37111435D01*
X93626862Y-37099704D01*
X93591223Y-37080654D01*
X93559983Y-37055017D01*
X93534346Y-37023777D01*
X93515296Y-36988138D01*
X93503565Y-36949468D01*
X93499000Y-36903112D01*
X93499000Y-36251888D01*
X93503565Y-36205532D01*
X93515296Y-36166862D01*
X93534346Y-36131223D01*
X93559983Y-36099983D01*
X93591223Y-36074346D01*
X93626862Y-36055296D01*
X93665532Y-36043565D01*
X93711888Y-36039000D01*
X94788112Y-36039000D01*
X94834468Y-36043565D01*
X94834468Y-36043565D01*
G37*
G36*
X106104468Y-35568565D02*
G01*
X106143138Y-35580296D01*
X106178777Y-35599346D01*
X106210017Y-35624983D01*
X106235654Y-35656223D01*
X106254704Y-35691862D01*
X106266435Y-35730532D01*
X106271000Y-35776888D01*
X106271000Y-36428112D01*
X106266435Y-36474468D01*
X106254704Y-36513138D01*
X106235654Y-36548777D01*
X106210017Y-36580017D01*
X106178777Y-36605654D01*
X106143138Y-36624704D01*
X106104468Y-36636435D01*
X106058112Y-36641000D01*
X104981888Y-36641000D01*
X104935532Y-36636435D01*
X104896862Y-36624704D01*
X104861223Y-36605654D01*
X104829983Y-36580017D01*
X104804346Y-36548777D01*
X104785296Y-36513138D01*
X104773565Y-36474468D01*
X104769000Y-36428112D01*
X104769000Y-35776888D01*
X104773565Y-35730532D01*
X104785296Y-35691862D01*
X104804346Y-35656223D01*
X104829983Y-35624983D01*
X104861223Y-35599346D01*
X104896862Y-35580296D01*
X104935532Y-35568565D01*
X104981888Y-35564000D01*
X106058112Y-35564000D01*
X106104468Y-35568565D01*
X106104468Y-35568565D01*
G37*
G36*
X99394468Y-35553565D02*
G01*
X99433138Y-35565296D01*
X99468777Y-35584346D01*
X99500017Y-35609983D01*
X99525654Y-35641223D01*
X99544704Y-35676862D01*
X99556435Y-35715532D01*
X99561000Y-35761888D01*
X99561000Y-36413112D01*
X99556435Y-36459468D01*
X99544704Y-36498138D01*
X99525654Y-36533777D01*
X99500017Y-36565017D01*
X99468777Y-36590654D01*
X99433138Y-36609704D01*
X99394468Y-36621435D01*
X99348112Y-36626000D01*
X98271888Y-36626000D01*
X98225532Y-36621435D01*
X98186862Y-36609704D01*
X98151223Y-36590654D01*
X98119983Y-36565017D01*
X98094346Y-36533777D01*
X98075296Y-36498138D01*
X98063565Y-36459468D01*
X98059000Y-36413112D01*
X98059000Y-35761888D01*
X98063565Y-35715532D01*
X98075296Y-35676862D01*
X98094346Y-35641223D01*
X98119983Y-35609983D01*
X98151223Y-35584346D01*
X98186862Y-35565296D01*
X98225532Y-35553565D01*
X98271888Y-35549000D01*
X99348112Y-35549000D01*
X99394468Y-35553565D01*
X99394468Y-35553565D01*
G37*
G36*
X91751000Y-35751000D02*
G01*
X90749000Y-35751000D01*
X90749000Y-33649000D01*
X91751000Y-33649000D01*
X91751000Y-35751000D01*
X91751000Y-35751000D01*
G37*
G36*
X90251000Y-35751000D02*
G01*
X89249000Y-35751000D01*
X89249000Y-33649000D01*
X90251000Y-33649000D01*
X90251000Y-35751000D01*
X90251000Y-35751000D01*
G37*
G36*
X88751000Y-35751000D02*
G01*
X87749000Y-35751000D01*
X87749000Y-33649000D01*
X88751000Y-33649000D01*
X88751000Y-35751000D01*
X88751000Y-35751000D01*
G37*
G36*
X87251000Y-35751000D02*
G01*
X86249000Y-35751000D01*
X86249000Y-33649000D01*
X87251000Y-33649000D01*
X87251000Y-35751000D01*
X87251000Y-35751000D01*
G37*
G36*
X85751000Y-35751000D02*
G01*
X84749000Y-35751000D01*
X84749000Y-33649000D01*
X85751000Y-33649000D01*
X85751000Y-35751000D01*
X85751000Y-35751000D01*
G37*
G36*
X82751000Y-35751000D02*
G01*
X81749000Y-35751000D01*
X81749000Y-33649000D01*
X82751000Y-33649000D01*
X82751000Y-35751000D01*
X82751000Y-35751000D01*
G37*
G36*
X81251000Y-35751000D02*
G01*
X80249000Y-35751000D01*
X80249000Y-33649000D01*
X81251000Y-33649000D01*
X81251000Y-35751000D01*
X81251000Y-35751000D01*
G37*
G36*
X84251000Y-35751000D02*
G01*
X83249000Y-35751000D01*
X83249000Y-33649000D01*
X84251000Y-33649000D01*
X84251000Y-35751000D01*
X84251000Y-35751000D01*
G37*
G36*
X94834468Y-34168565D02*
G01*
X94873138Y-34180296D01*
X94908777Y-34199346D01*
X94940017Y-34224983D01*
X94965654Y-34256223D01*
X94984704Y-34291862D01*
X94996435Y-34330532D01*
X95001000Y-34376888D01*
X95001000Y-35028112D01*
X94996435Y-35074468D01*
X94984704Y-35113138D01*
X94965654Y-35148777D01*
X94940017Y-35180017D01*
X94908777Y-35205654D01*
X94873138Y-35224704D01*
X94834468Y-35236435D01*
X94788112Y-35241000D01*
X93711888Y-35241000D01*
X93665532Y-35236435D01*
X93626862Y-35224704D01*
X93591223Y-35205654D01*
X93559983Y-35180017D01*
X93534346Y-35148777D01*
X93515296Y-35113138D01*
X93503565Y-35074468D01*
X93499000Y-35028112D01*
X93499000Y-34376888D01*
X93503565Y-34330532D01*
X93515296Y-34291862D01*
X93534346Y-34256223D01*
X93559983Y-34224983D01*
X93591223Y-34199346D01*
X93626862Y-34180296D01*
X93665532Y-34168565D01*
X93711888Y-34164000D01*
X94788112Y-34164000D01*
X94834468Y-34168565D01*
X94834468Y-34168565D01*
G37*
G36*
X99394468Y-33678565D02*
G01*
X99433138Y-33690296D01*
X99468777Y-33709346D01*
X99500017Y-33734983D01*
X99525654Y-33766223D01*
X99544704Y-33801862D01*
X99556435Y-33840532D01*
X99561000Y-33886888D01*
X99561000Y-34538112D01*
X99556435Y-34584468D01*
X99544704Y-34623138D01*
X99525654Y-34658777D01*
X99500017Y-34690017D01*
X99468777Y-34715654D01*
X99433138Y-34734704D01*
X99394468Y-34746435D01*
X99348112Y-34751000D01*
X98271888Y-34751000D01*
X98225532Y-34746435D01*
X98186862Y-34734704D01*
X98151223Y-34715654D01*
X98119983Y-34690017D01*
X98094346Y-34658777D01*
X98075296Y-34623138D01*
X98063565Y-34584468D01*
X98059000Y-34538112D01*
X98059000Y-33886888D01*
X98063565Y-33840532D01*
X98075296Y-33801862D01*
X98094346Y-33766223D01*
X98119983Y-33734983D01*
X98151223Y-33709346D01*
X98186862Y-33690296D01*
X98225532Y-33678565D01*
X98271888Y-33674000D01*
X99348112Y-33674000D01*
X99394468Y-33678565D01*
X99394468Y-33678565D01*
G37*
G36*
X99404468Y-31553565D02*
G01*
X99443138Y-31565296D01*
X99478777Y-31584346D01*
X99510017Y-31609983D01*
X99535654Y-31641223D01*
X99554704Y-31676862D01*
X99566435Y-31715532D01*
X99571000Y-31761888D01*
X99571000Y-32413112D01*
X99566435Y-32459468D01*
X99554704Y-32498138D01*
X99535654Y-32533777D01*
X99510017Y-32565017D01*
X99478777Y-32590654D01*
X99443138Y-32609704D01*
X99404468Y-32621435D01*
X99358112Y-32626000D01*
X98281888Y-32626000D01*
X98235532Y-32621435D01*
X98196862Y-32609704D01*
X98161223Y-32590654D01*
X98129983Y-32565017D01*
X98104346Y-32533777D01*
X98085296Y-32498138D01*
X98073565Y-32459468D01*
X98069000Y-32413112D01*
X98069000Y-31761888D01*
X98073565Y-31715532D01*
X98085296Y-31676862D01*
X98104346Y-31641223D01*
X98129983Y-31609983D01*
X98161223Y-31584346D01*
X98196862Y-31565296D01*
X98235532Y-31553565D01*
X98281888Y-31549000D01*
X99358112Y-31549000D01*
X99404468Y-31553565D01*
X99404468Y-31553565D01*
G37*
G36*
X105594468Y-31553565D02*
G01*
X105633138Y-31565296D01*
X105668777Y-31584346D01*
X105700017Y-31609983D01*
X105725654Y-31641223D01*
X105744704Y-31676862D01*
X105756435Y-31715532D01*
X105761000Y-31761888D01*
X105761000Y-32413112D01*
X105756435Y-32459468D01*
X105744704Y-32498138D01*
X105725654Y-32533777D01*
X105700017Y-32565017D01*
X105668777Y-32590654D01*
X105633138Y-32609704D01*
X105594468Y-32621435D01*
X105548112Y-32626000D01*
X104471888Y-32626000D01*
X104425532Y-32621435D01*
X104386862Y-32609704D01*
X104351223Y-32590654D01*
X104319983Y-32565017D01*
X104294346Y-32533777D01*
X104275296Y-32498138D01*
X104263565Y-32459468D01*
X104259000Y-32413112D01*
X104259000Y-31761888D01*
X104263565Y-31715532D01*
X104275296Y-31676862D01*
X104294346Y-31641223D01*
X104319983Y-31609983D01*
X104351223Y-31584346D01*
X104386862Y-31565296D01*
X104425532Y-31553565D01*
X104471888Y-31549000D01*
X105548112Y-31549000D01*
X105594468Y-31553565D01*
X105594468Y-31553565D01*
G37*
G36*
X101416000Y-32551000D02*
G01*
X100414000Y-32551000D01*
X100414000Y-31649000D01*
X101416000Y-31649000D01*
X101416000Y-32551000D01*
X101416000Y-32551000D01*
G37*
G36*
X95687182Y-30202725D02*
G01*
X95717642Y-30211966D01*
X95745722Y-30226974D01*
X95770330Y-30247169D01*
X95790525Y-30271777D01*
X95805533Y-30299857D01*
X95814774Y-30330317D01*
X95818499Y-30368140D01*
X95818499Y-32131860D01*
X95814774Y-32169683D01*
X95805533Y-32200143D01*
X95790525Y-32228223D01*
X95770330Y-32252831D01*
X95745722Y-32273026D01*
X95717642Y-32288034D01*
X95687182Y-32297275D01*
X95649359Y-32301000D01*
X95085639Y-32301000D01*
X95047816Y-32297275D01*
X95017356Y-32288034D01*
X94989276Y-32273026D01*
X94964668Y-32252831D01*
X94944473Y-32228223D01*
X94929465Y-32200143D01*
X94920224Y-32169683D01*
X94916499Y-32131860D01*
X94916499Y-30368140D01*
X94920224Y-30330317D01*
X94929465Y-30299857D01*
X94944473Y-30271777D01*
X94964668Y-30247169D01*
X94989276Y-30226974D01*
X95017356Y-30211966D01*
X95047816Y-30202725D01*
X95085639Y-30199000D01*
X95649359Y-30199000D01*
X95687182Y-30202725D01*
X95687182Y-30202725D01*
G37*
G36*
X91487182Y-30202725D02*
G01*
X91517642Y-30211966D01*
X91545722Y-30226974D01*
X91570330Y-30247169D01*
X91590525Y-30271777D01*
X91605533Y-30299857D01*
X91614774Y-30330317D01*
X91618499Y-30368140D01*
X91618499Y-32131860D01*
X91614774Y-32169683D01*
X91605533Y-32200143D01*
X91590525Y-32228223D01*
X91570330Y-32252831D01*
X91545722Y-32273026D01*
X91517642Y-32288034D01*
X91487182Y-32297275D01*
X91449359Y-32301000D01*
X90885639Y-32301000D01*
X90847816Y-32297275D01*
X90817356Y-32288034D01*
X90789276Y-32273026D01*
X90764668Y-32252831D01*
X90744473Y-32228223D01*
X90729465Y-32200143D01*
X90720224Y-32169683D01*
X90716499Y-32131860D01*
X90716499Y-30368140D01*
X90720224Y-30330317D01*
X90729465Y-30299857D01*
X90744473Y-30271777D01*
X90764668Y-30247169D01*
X90789276Y-30226974D01*
X90817356Y-30211966D01*
X90847816Y-30202725D01*
X90885639Y-30199000D01*
X91449359Y-30199000D01*
X91487182Y-30202725D01*
X91487182Y-30202725D01*
G37*
G36*
X83537182Y-30202725D02*
G01*
X83567642Y-30211966D01*
X83595722Y-30226974D01*
X83620330Y-30247169D01*
X83640525Y-30271777D01*
X83655533Y-30299857D01*
X83664774Y-30330317D01*
X83668499Y-30368140D01*
X83668499Y-32131860D01*
X83664774Y-32169683D01*
X83655533Y-32200143D01*
X83640525Y-32228223D01*
X83620330Y-32252831D01*
X83595722Y-32273026D01*
X83567642Y-32288034D01*
X83537182Y-32297275D01*
X83499359Y-32301000D01*
X82935639Y-32301000D01*
X82897816Y-32297275D01*
X82867356Y-32288034D01*
X82839276Y-32273026D01*
X82814668Y-32252831D01*
X82794473Y-32228223D01*
X82779465Y-32200143D01*
X82770224Y-32169683D01*
X82766499Y-32131860D01*
X82766499Y-30368140D01*
X82770224Y-30330317D01*
X82779465Y-30299857D01*
X82794473Y-30271777D01*
X82814668Y-30247169D01*
X82839276Y-30226974D01*
X82867356Y-30211966D01*
X82897816Y-30202725D01*
X82935639Y-30199000D01*
X83499359Y-30199000D01*
X83537182Y-30202725D01*
X83537182Y-30202725D01*
G37*
G36*
X79337182Y-30202725D02*
G01*
X79367642Y-30211966D01*
X79395722Y-30226974D01*
X79420330Y-30247169D01*
X79440525Y-30271777D01*
X79455533Y-30299857D01*
X79464774Y-30330317D01*
X79468499Y-30368140D01*
X79468499Y-32131860D01*
X79464774Y-32169683D01*
X79455533Y-32200143D01*
X79440525Y-32228223D01*
X79420330Y-32252831D01*
X79395722Y-32273026D01*
X79367642Y-32288034D01*
X79337182Y-32297275D01*
X79299359Y-32301000D01*
X78735639Y-32301000D01*
X78697816Y-32297275D01*
X78667356Y-32288034D01*
X78639276Y-32273026D01*
X78614668Y-32252831D01*
X78594473Y-32228223D01*
X78579465Y-32200143D01*
X78570224Y-32169683D01*
X78566499Y-32131860D01*
X78566499Y-30368140D01*
X78570224Y-30330317D01*
X78579465Y-30299857D01*
X78594473Y-30271777D01*
X78614668Y-30247169D01*
X78639276Y-30226974D01*
X78667356Y-30211966D01*
X78697816Y-30202725D01*
X78735639Y-30199000D01*
X79299359Y-30199000D01*
X79337182Y-30202725D01*
X79337182Y-30202725D01*
G37*
G36*
X88567942Y-30355519D02*
G01*
X88634126Y-30362037D01*
X88803965Y-30413557D01*
X88960490Y-30497222D01*
X88996228Y-30526552D01*
X89097685Y-30609814D01*
X89163505Y-30690017D01*
X89210277Y-30747009D01*
X89293942Y-30903534D01*
X89345462Y-31073373D01*
X89362858Y-31250000D01*
X89345462Y-31426627D01*
X89293942Y-31596466D01*
X89210277Y-31752991D01*
X89180947Y-31788729D01*
X89097685Y-31890186D01*
X88996228Y-31973448D01*
X88960490Y-32002778D01*
X88803965Y-32086443D01*
X88634126Y-32137963D01*
X88567942Y-32144481D01*
X88501759Y-32151000D01*
X88413239Y-32151000D01*
X88347056Y-32144481D01*
X88280872Y-32137963D01*
X88111033Y-32086443D01*
X87954508Y-32002778D01*
X87918770Y-31973448D01*
X87817313Y-31890186D01*
X87734051Y-31788729D01*
X87704721Y-31752991D01*
X87621056Y-31596466D01*
X87569536Y-31426627D01*
X87552140Y-31250000D01*
X87569536Y-31073373D01*
X87621056Y-30903534D01*
X87704721Y-30747009D01*
X87751493Y-30690017D01*
X87817313Y-30609814D01*
X87918770Y-30526552D01*
X87954508Y-30497222D01*
X88111033Y-30413557D01*
X88280872Y-30362037D01*
X88347056Y-30355519D01*
X88413239Y-30349000D01*
X88501759Y-30349000D01*
X88567942Y-30355519D01*
X88567942Y-30355519D01*
G37*
G36*
X86818499Y-32151000D02*
G01*
X85016499Y-32151000D01*
X85016499Y-30349000D01*
X86818499Y-30349000D01*
X86818499Y-32151000D01*
X86818499Y-32151000D01*
G37*
G36*
X75379487Y-29498996D02*
G01*
X75616253Y-29597068D01*
X75616255Y-29597069D01*
X75739134Y-29679174D01*
X75829339Y-29739447D01*
X76010553Y-29920661D01*
X76152932Y-30133747D01*
X76251004Y-30370513D01*
X76301000Y-30621861D01*
X76301000Y-30878139D01*
X76251004Y-31129487D01*
X76152932Y-31366253D01*
X76152931Y-31366255D01*
X76010553Y-31579339D01*
X75829339Y-31760553D01*
X75616255Y-31902931D01*
X75616254Y-31902932D01*
X75616253Y-31902932D01*
X75379487Y-32001004D01*
X75128139Y-32051000D01*
X74871861Y-32051000D01*
X74620513Y-32001004D01*
X74383747Y-31902932D01*
X74383746Y-31902932D01*
X74383745Y-31902931D01*
X74170661Y-31760553D01*
X73989447Y-31579339D01*
X73847069Y-31366255D01*
X73847068Y-31366253D01*
X73748996Y-31129487D01*
X73699000Y-30878139D01*
X73699000Y-30621861D01*
X73748996Y-30370513D01*
X73847068Y-30133747D01*
X73989447Y-29920661D01*
X74170661Y-29739447D01*
X74260866Y-29679174D01*
X74383745Y-29597069D01*
X74383747Y-29597068D01*
X74620513Y-29498996D01*
X74871861Y-29449000D01*
X75128139Y-29449000D01*
X75379487Y-29498996D01*
X75379487Y-29498996D01*
G37*
G36*
X103416000Y-31601000D02*
G01*
X102414000Y-31601000D01*
X102414000Y-30699000D01*
X103416000Y-30699000D01*
X103416000Y-31601000D01*
X103416000Y-31601000D01*
G37*
G36*
X99404468Y-29678565D02*
G01*
X99443138Y-29690296D01*
X99478777Y-29709346D01*
X99510017Y-29734983D01*
X99535654Y-29766223D01*
X99554704Y-29801862D01*
X99566435Y-29840532D01*
X99571000Y-29886888D01*
X99571000Y-30538112D01*
X99566435Y-30584468D01*
X99554704Y-30623138D01*
X99535654Y-30658777D01*
X99510017Y-30690017D01*
X99478777Y-30715654D01*
X99443138Y-30734704D01*
X99404468Y-30746435D01*
X99358112Y-30751000D01*
X98281888Y-30751000D01*
X98235532Y-30746435D01*
X98196862Y-30734704D01*
X98161223Y-30715654D01*
X98129983Y-30690017D01*
X98104346Y-30658777D01*
X98085296Y-30623138D01*
X98073565Y-30584468D01*
X98069000Y-30538112D01*
X98069000Y-29886888D01*
X98073565Y-29840532D01*
X98085296Y-29801862D01*
X98104346Y-29766223D01*
X98129983Y-29734983D01*
X98161223Y-29709346D01*
X98196862Y-29690296D01*
X98235532Y-29678565D01*
X98281888Y-29674000D01*
X99358112Y-29674000D01*
X99404468Y-29678565D01*
X99404468Y-29678565D01*
G37*
G36*
X105594468Y-29678565D02*
G01*
X105633138Y-29690296D01*
X105668777Y-29709346D01*
X105700017Y-29734983D01*
X105725654Y-29766223D01*
X105744704Y-29801862D01*
X105756435Y-29840532D01*
X105761000Y-29886888D01*
X105761000Y-30538112D01*
X105756435Y-30584468D01*
X105744704Y-30623138D01*
X105725654Y-30658777D01*
X105700017Y-30690017D01*
X105668777Y-30715654D01*
X105633138Y-30734704D01*
X105594468Y-30746435D01*
X105548112Y-30751000D01*
X104471888Y-30751000D01*
X104425532Y-30746435D01*
X104386862Y-30734704D01*
X104351223Y-30715654D01*
X104319983Y-30690017D01*
X104294346Y-30658777D01*
X104275296Y-30623138D01*
X104263565Y-30584468D01*
X104259000Y-30538112D01*
X104259000Y-29886888D01*
X104263565Y-29840532D01*
X104275296Y-29801862D01*
X104294346Y-29766223D01*
X104319983Y-29734983D01*
X104351223Y-29709346D01*
X104386862Y-29690296D01*
X104425532Y-29678565D01*
X104471888Y-29674000D01*
X105548112Y-29674000D01*
X105594468Y-29678565D01*
X105594468Y-29678565D01*
G37*
G36*
X101416000Y-30651000D02*
G01*
X100414000Y-30651000D01*
X100414000Y-29749000D01*
X101416000Y-29749000D01*
X101416000Y-30651000D01*
X101416000Y-30651000D01*
G37*
M02*
