G04 #@! TF.GenerationSoftware,KiCad,Pcbnew,(5.1.2-1)-1*
G04 #@! TF.CreationDate,2019-12-06T15:49:55-08:00*
G04 #@! TF.ProjectId,pixel-stick,70697865-6c2d-4737-9469-636b2e6b6963,rev?*
G04 #@! TF.SameCoordinates,Original*
G04 #@! TF.FileFunction,Paste,Top*
G04 #@! TF.FilePolarity,Positive*
%FSLAX46Y46*%
G04 Gerber Fmt 4.6, Leading zero omitted, Abs format (unit mm)*
G04 Created by KiCad (PCBNEW (5.1.2-1)-1) date 2019-12-06 15:49:55*
%MOMM*%
%LPD*%
G04 APERTURE LIST*
%ADD10C,0.100000*%
%ADD11C,0.975000*%
%ADD12R,0.650000X1.060000*%
%ADD13R,1.500000X2.000000*%
%ADD14R,3.800000X2.000000*%
%ADD15C,1.250000*%
%ADD16C,2.500000*%
G04 APERTURE END LIST*
D10*
G36*
X56487142Y-63951174D02*
G01*
X56510803Y-63954684D01*
X56534007Y-63960496D01*
X56556529Y-63968554D01*
X56578153Y-63978782D01*
X56598670Y-63991079D01*
X56617883Y-64005329D01*
X56635607Y-64021393D01*
X56651671Y-64039117D01*
X56665921Y-64058330D01*
X56678218Y-64078847D01*
X56688446Y-64100471D01*
X56696504Y-64122993D01*
X56702316Y-64146197D01*
X56705826Y-64169858D01*
X56707000Y-64193750D01*
X56707000Y-64681250D01*
X56705826Y-64705142D01*
X56702316Y-64728803D01*
X56696504Y-64752007D01*
X56688446Y-64774529D01*
X56678218Y-64796153D01*
X56665921Y-64816670D01*
X56651671Y-64835883D01*
X56635607Y-64853607D01*
X56617883Y-64869671D01*
X56598670Y-64883921D01*
X56578153Y-64896218D01*
X56556529Y-64906446D01*
X56534007Y-64914504D01*
X56510803Y-64920316D01*
X56487142Y-64923826D01*
X56463250Y-64925000D01*
X55550750Y-64925000D01*
X55526858Y-64923826D01*
X55503197Y-64920316D01*
X55479993Y-64914504D01*
X55457471Y-64906446D01*
X55435847Y-64896218D01*
X55415330Y-64883921D01*
X55396117Y-64869671D01*
X55378393Y-64853607D01*
X55362329Y-64835883D01*
X55348079Y-64816670D01*
X55335782Y-64796153D01*
X55325554Y-64774529D01*
X55317496Y-64752007D01*
X55311684Y-64728803D01*
X55308174Y-64705142D01*
X55307000Y-64681250D01*
X55307000Y-64193750D01*
X55308174Y-64169858D01*
X55311684Y-64146197D01*
X55317496Y-64122993D01*
X55325554Y-64100471D01*
X55335782Y-64078847D01*
X55348079Y-64058330D01*
X55362329Y-64039117D01*
X55378393Y-64021393D01*
X55396117Y-64005329D01*
X55415330Y-63991079D01*
X55435847Y-63978782D01*
X55457471Y-63968554D01*
X55479993Y-63960496D01*
X55503197Y-63954684D01*
X55526858Y-63951174D01*
X55550750Y-63950000D01*
X56463250Y-63950000D01*
X56487142Y-63951174D01*
X56487142Y-63951174D01*
G37*
D11*
X56007000Y-64437500D03*
D10*
G36*
X56487142Y-62076174D02*
G01*
X56510803Y-62079684D01*
X56534007Y-62085496D01*
X56556529Y-62093554D01*
X56578153Y-62103782D01*
X56598670Y-62116079D01*
X56617883Y-62130329D01*
X56635607Y-62146393D01*
X56651671Y-62164117D01*
X56665921Y-62183330D01*
X56678218Y-62203847D01*
X56688446Y-62225471D01*
X56696504Y-62247993D01*
X56702316Y-62271197D01*
X56705826Y-62294858D01*
X56707000Y-62318750D01*
X56707000Y-62806250D01*
X56705826Y-62830142D01*
X56702316Y-62853803D01*
X56696504Y-62877007D01*
X56688446Y-62899529D01*
X56678218Y-62921153D01*
X56665921Y-62941670D01*
X56651671Y-62960883D01*
X56635607Y-62978607D01*
X56617883Y-62994671D01*
X56598670Y-63008921D01*
X56578153Y-63021218D01*
X56556529Y-63031446D01*
X56534007Y-63039504D01*
X56510803Y-63045316D01*
X56487142Y-63048826D01*
X56463250Y-63050000D01*
X55550750Y-63050000D01*
X55526858Y-63048826D01*
X55503197Y-63045316D01*
X55479993Y-63039504D01*
X55457471Y-63031446D01*
X55435847Y-63021218D01*
X55415330Y-63008921D01*
X55396117Y-62994671D01*
X55378393Y-62978607D01*
X55362329Y-62960883D01*
X55348079Y-62941670D01*
X55335782Y-62921153D01*
X55325554Y-62899529D01*
X55317496Y-62877007D01*
X55311684Y-62853803D01*
X55308174Y-62830142D01*
X55307000Y-62806250D01*
X55307000Y-62318750D01*
X55308174Y-62294858D01*
X55311684Y-62271197D01*
X55317496Y-62247993D01*
X55325554Y-62225471D01*
X55335782Y-62203847D01*
X55348079Y-62183330D01*
X55362329Y-62164117D01*
X55378393Y-62146393D01*
X55396117Y-62130329D01*
X55415330Y-62116079D01*
X55435847Y-62103782D01*
X55457471Y-62093554D01*
X55479993Y-62085496D01*
X55503197Y-62079684D01*
X55526858Y-62076174D01*
X55550750Y-62075000D01*
X56463250Y-62075000D01*
X56487142Y-62076174D01*
X56487142Y-62076174D01*
G37*
D11*
X56007000Y-62562500D03*
D10*
G36*
X53947142Y-63902674D02*
G01*
X53970803Y-63906184D01*
X53994007Y-63911996D01*
X54016529Y-63920054D01*
X54038153Y-63930282D01*
X54058670Y-63942579D01*
X54077883Y-63956829D01*
X54095607Y-63972893D01*
X54111671Y-63990617D01*
X54125921Y-64009830D01*
X54138218Y-64030347D01*
X54148446Y-64051971D01*
X54156504Y-64074493D01*
X54162316Y-64097697D01*
X54165826Y-64121358D01*
X54167000Y-64145250D01*
X54167000Y-64632750D01*
X54165826Y-64656642D01*
X54162316Y-64680303D01*
X54156504Y-64703507D01*
X54148446Y-64726029D01*
X54138218Y-64747653D01*
X54125921Y-64768170D01*
X54111671Y-64787383D01*
X54095607Y-64805107D01*
X54077883Y-64821171D01*
X54058670Y-64835421D01*
X54038153Y-64847718D01*
X54016529Y-64857946D01*
X53994007Y-64866004D01*
X53970803Y-64871816D01*
X53947142Y-64875326D01*
X53923250Y-64876500D01*
X53010750Y-64876500D01*
X52986858Y-64875326D01*
X52963197Y-64871816D01*
X52939993Y-64866004D01*
X52917471Y-64857946D01*
X52895847Y-64847718D01*
X52875330Y-64835421D01*
X52856117Y-64821171D01*
X52838393Y-64805107D01*
X52822329Y-64787383D01*
X52808079Y-64768170D01*
X52795782Y-64747653D01*
X52785554Y-64726029D01*
X52777496Y-64703507D01*
X52771684Y-64680303D01*
X52768174Y-64656642D01*
X52767000Y-64632750D01*
X52767000Y-64145250D01*
X52768174Y-64121358D01*
X52771684Y-64097697D01*
X52777496Y-64074493D01*
X52785554Y-64051971D01*
X52795782Y-64030347D01*
X52808079Y-64009830D01*
X52822329Y-63990617D01*
X52838393Y-63972893D01*
X52856117Y-63956829D01*
X52875330Y-63942579D01*
X52895847Y-63930282D01*
X52917471Y-63920054D01*
X52939993Y-63911996D01*
X52963197Y-63906184D01*
X52986858Y-63902674D01*
X53010750Y-63901500D01*
X53923250Y-63901500D01*
X53947142Y-63902674D01*
X53947142Y-63902674D01*
G37*
D11*
X53467000Y-64389000D03*
D10*
G36*
X53947142Y-62027674D02*
G01*
X53970803Y-62031184D01*
X53994007Y-62036996D01*
X54016529Y-62045054D01*
X54038153Y-62055282D01*
X54058670Y-62067579D01*
X54077883Y-62081829D01*
X54095607Y-62097893D01*
X54111671Y-62115617D01*
X54125921Y-62134830D01*
X54138218Y-62155347D01*
X54148446Y-62176971D01*
X54156504Y-62199493D01*
X54162316Y-62222697D01*
X54165826Y-62246358D01*
X54167000Y-62270250D01*
X54167000Y-62757750D01*
X54165826Y-62781642D01*
X54162316Y-62805303D01*
X54156504Y-62828507D01*
X54148446Y-62851029D01*
X54138218Y-62872653D01*
X54125921Y-62893170D01*
X54111671Y-62912383D01*
X54095607Y-62930107D01*
X54077883Y-62946171D01*
X54058670Y-62960421D01*
X54038153Y-62972718D01*
X54016529Y-62982946D01*
X53994007Y-62991004D01*
X53970803Y-62996816D01*
X53947142Y-63000326D01*
X53923250Y-63001500D01*
X53010750Y-63001500D01*
X52986858Y-63000326D01*
X52963197Y-62996816D01*
X52939993Y-62991004D01*
X52917471Y-62982946D01*
X52895847Y-62972718D01*
X52875330Y-62960421D01*
X52856117Y-62946171D01*
X52838393Y-62930107D01*
X52822329Y-62912383D01*
X52808079Y-62893170D01*
X52795782Y-62872653D01*
X52785554Y-62851029D01*
X52777496Y-62828507D01*
X52771684Y-62805303D01*
X52768174Y-62781642D01*
X52767000Y-62757750D01*
X52767000Y-62270250D01*
X52768174Y-62246358D01*
X52771684Y-62222697D01*
X52777496Y-62199493D01*
X52785554Y-62176971D01*
X52795782Y-62155347D01*
X52808079Y-62134830D01*
X52822329Y-62115617D01*
X52838393Y-62097893D01*
X52856117Y-62081829D01*
X52875330Y-62067579D01*
X52895847Y-62055282D01*
X52917471Y-62045054D01*
X52939993Y-62036996D01*
X52963197Y-62031184D01*
X52986858Y-62027674D01*
X53010750Y-62026500D01*
X53923250Y-62026500D01*
X53947142Y-62027674D01*
X53947142Y-62027674D01*
G37*
D11*
X53467000Y-62514000D03*
D12*
X46035000Y-71374000D03*
X46985000Y-71374000D03*
X45085000Y-71374000D03*
X45085000Y-69174000D03*
X46035000Y-69174000D03*
X46985000Y-69174000D03*
X45974000Y-64346000D03*
X46924000Y-64346000D03*
X45024000Y-64346000D03*
X45024000Y-62146000D03*
X45974000Y-62146000D03*
X46924000Y-62146000D03*
D13*
X52310000Y-74270000D03*
X56910000Y-74270000D03*
X54610000Y-74270000D03*
D14*
X54610000Y-67970000D03*
D10*
G36*
X49883142Y-63981174D02*
G01*
X49906803Y-63984684D01*
X49930007Y-63990496D01*
X49952529Y-63998554D01*
X49974153Y-64008782D01*
X49994670Y-64021079D01*
X50013883Y-64035329D01*
X50031607Y-64051393D01*
X50047671Y-64069117D01*
X50061921Y-64088330D01*
X50074218Y-64108847D01*
X50084446Y-64130471D01*
X50092504Y-64152993D01*
X50098316Y-64176197D01*
X50101826Y-64199858D01*
X50103000Y-64223750D01*
X50103000Y-64711250D01*
X50101826Y-64735142D01*
X50098316Y-64758803D01*
X50092504Y-64782007D01*
X50084446Y-64804529D01*
X50074218Y-64826153D01*
X50061921Y-64846670D01*
X50047671Y-64865883D01*
X50031607Y-64883607D01*
X50013883Y-64899671D01*
X49994670Y-64913921D01*
X49974153Y-64926218D01*
X49952529Y-64936446D01*
X49930007Y-64944504D01*
X49906803Y-64950316D01*
X49883142Y-64953826D01*
X49859250Y-64955000D01*
X48946750Y-64955000D01*
X48922858Y-64953826D01*
X48899197Y-64950316D01*
X48875993Y-64944504D01*
X48853471Y-64936446D01*
X48831847Y-64926218D01*
X48811330Y-64913921D01*
X48792117Y-64899671D01*
X48774393Y-64883607D01*
X48758329Y-64865883D01*
X48744079Y-64846670D01*
X48731782Y-64826153D01*
X48721554Y-64804529D01*
X48713496Y-64782007D01*
X48707684Y-64758803D01*
X48704174Y-64735142D01*
X48703000Y-64711250D01*
X48703000Y-64223750D01*
X48704174Y-64199858D01*
X48707684Y-64176197D01*
X48713496Y-64152993D01*
X48721554Y-64130471D01*
X48731782Y-64108847D01*
X48744079Y-64088330D01*
X48758329Y-64069117D01*
X48774393Y-64051393D01*
X48792117Y-64035329D01*
X48811330Y-64021079D01*
X48831847Y-64008782D01*
X48853471Y-63998554D01*
X48875993Y-63990496D01*
X48899197Y-63984684D01*
X48922858Y-63981174D01*
X48946750Y-63980000D01*
X49859250Y-63980000D01*
X49883142Y-63981174D01*
X49883142Y-63981174D01*
G37*
D11*
X49403000Y-64467500D03*
D10*
G36*
X49883142Y-65856174D02*
G01*
X49906803Y-65859684D01*
X49930007Y-65865496D01*
X49952529Y-65873554D01*
X49974153Y-65883782D01*
X49994670Y-65896079D01*
X50013883Y-65910329D01*
X50031607Y-65926393D01*
X50047671Y-65944117D01*
X50061921Y-65963330D01*
X50074218Y-65983847D01*
X50084446Y-66005471D01*
X50092504Y-66027993D01*
X50098316Y-66051197D01*
X50101826Y-66074858D01*
X50103000Y-66098750D01*
X50103000Y-66586250D01*
X50101826Y-66610142D01*
X50098316Y-66633803D01*
X50092504Y-66657007D01*
X50084446Y-66679529D01*
X50074218Y-66701153D01*
X50061921Y-66721670D01*
X50047671Y-66740883D01*
X50031607Y-66758607D01*
X50013883Y-66774671D01*
X49994670Y-66788921D01*
X49974153Y-66801218D01*
X49952529Y-66811446D01*
X49930007Y-66819504D01*
X49906803Y-66825316D01*
X49883142Y-66828826D01*
X49859250Y-66830000D01*
X48946750Y-66830000D01*
X48922858Y-66828826D01*
X48899197Y-66825316D01*
X48875993Y-66819504D01*
X48853471Y-66811446D01*
X48831847Y-66801218D01*
X48811330Y-66788921D01*
X48792117Y-66774671D01*
X48774393Y-66758607D01*
X48758329Y-66740883D01*
X48744079Y-66721670D01*
X48731782Y-66701153D01*
X48721554Y-66679529D01*
X48713496Y-66657007D01*
X48707684Y-66633803D01*
X48704174Y-66610142D01*
X48703000Y-66586250D01*
X48703000Y-66098750D01*
X48704174Y-66074858D01*
X48707684Y-66051197D01*
X48713496Y-66027993D01*
X48721554Y-66005471D01*
X48731782Y-65983847D01*
X48744079Y-65963330D01*
X48758329Y-65944117D01*
X48774393Y-65926393D01*
X48792117Y-65910329D01*
X48811330Y-65896079D01*
X48831847Y-65883782D01*
X48853471Y-65873554D01*
X48875993Y-65865496D01*
X48899197Y-65859684D01*
X48922858Y-65856174D01*
X48946750Y-65855000D01*
X49859250Y-65855000D01*
X49883142Y-65856174D01*
X49883142Y-65856174D01*
G37*
D11*
X49403000Y-66342500D03*
D10*
G36*
X57164504Y-80526204D02*
G01*
X57188773Y-80529804D01*
X57212571Y-80535765D01*
X57235671Y-80544030D01*
X57257849Y-80554520D01*
X57278893Y-80567133D01*
X57298598Y-80581747D01*
X57316777Y-80598223D01*
X57333253Y-80616402D01*
X57347867Y-80636107D01*
X57360480Y-80657151D01*
X57370970Y-80679329D01*
X57379235Y-80702429D01*
X57385196Y-80726227D01*
X57388796Y-80750496D01*
X57390000Y-80775000D01*
X57390000Y-81525000D01*
X57388796Y-81549504D01*
X57385196Y-81573773D01*
X57379235Y-81597571D01*
X57370970Y-81620671D01*
X57360480Y-81642849D01*
X57347867Y-81663893D01*
X57333253Y-81683598D01*
X57316777Y-81701777D01*
X57298598Y-81718253D01*
X57278893Y-81732867D01*
X57257849Y-81745480D01*
X57235671Y-81755970D01*
X57212571Y-81764235D01*
X57188773Y-81770196D01*
X57164504Y-81773796D01*
X57140000Y-81775000D01*
X55890000Y-81775000D01*
X55865496Y-81773796D01*
X55841227Y-81770196D01*
X55817429Y-81764235D01*
X55794329Y-81755970D01*
X55772151Y-81745480D01*
X55751107Y-81732867D01*
X55731402Y-81718253D01*
X55713223Y-81701777D01*
X55696747Y-81683598D01*
X55682133Y-81663893D01*
X55669520Y-81642849D01*
X55659030Y-81620671D01*
X55650765Y-81597571D01*
X55644804Y-81573773D01*
X55641204Y-81549504D01*
X55640000Y-81525000D01*
X55640000Y-80775000D01*
X55641204Y-80750496D01*
X55644804Y-80726227D01*
X55650765Y-80702429D01*
X55659030Y-80679329D01*
X55669520Y-80657151D01*
X55682133Y-80636107D01*
X55696747Y-80616402D01*
X55713223Y-80598223D01*
X55731402Y-80581747D01*
X55751107Y-80567133D01*
X55772151Y-80554520D01*
X55794329Y-80544030D01*
X55817429Y-80535765D01*
X55841227Y-80529804D01*
X55865496Y-80526204D01*
X55890000Y-80525000D01*
X57140000Y-80525000D01*
X57164504Y-80526204D01*
X57164504Y-80526204D01*
G37*
D15*
X56515000Y-81150000D03*
D10*
G36*
X57164504Y-83326204D02*
G01*
X57188773Y-83329804D01*
X57212571Y-83335765D01*
X57235671Y-83344030D01*
X57257849Y-83354520D01*
X57278893Y-83367133D01*
X57298598Y-83381747D01*
X57316777Y-83398223D01*
X57333253Y-83416402D01*
X57347867Y-83436107D01*
X57360480Y-83457151D01*
X57370970Y-83479329D01*
X57379235Y-83502429D01*
X57385196Y-83526227D01*
X57388796Y-83550496D01*
X57390000Y-83575000D01*
X57390000Y-84325000D01*
X57388796Y-84349504D01*
X57385196Y-84373773D01*
X57379235Y-84397571D01*
X57370970Y-84420671D01*
X57360480Y-84442849D01*
X57347867Y-84463893D01*
X57333253Y-84483598D01*
X57316777Y-84501777D01*
X57298598Y-84518253D01*
X57278893Y-84532867D01*
X57257849Y-84545480D01*
X57235671Y-84555970D01*
X57212571Y-84564235D01*
X57188773Y-84570196D01*
X57164504Y-84573796D01*
X57140000Y-84575000D01*
X55890000Y-84575000D01*
X55865496Y-84573796D01*
X55841227Y-84570196D01*
X55817429Y-84564235D01*
X55794329Y-84555970D01*
X55772151Y-84545480D01*
X55751107Y-84532867D01*
X55731402Y-84518253D01*
X55713223Y-84501777D01*
X55696747Y-84483598D01*
X55682133Y-84463893D01*
X55669520Y-84442849D01*
X55659030Y-84420671D01*
X55650765Y-84397571D01*
X55644804Y-84373773D01*
X55641204Y-84349504D01*
X55640000Y-84325000D01*
X55640000Y-83575000D01*
X55641204Y-83550496D01*
X55644804Y-83526227D01*
X55650765Y-83502429D01*
X55659030Y-83479329D01*
X55669520Y-83457151D01*
X55682133Y-83436107D01*
X55696747Y-83416402D01*
X55713223Y-83398223D01*
X55731402Y-83381747D01*
X55751107Y-83367133D01*
X55772151Y-83354520D01*
X55794329Y-83344030D01*
X55817429Y-83335765D01*
X55841227Y-83329804D01*
X55865496Y-83326204D01*
X55890000Y-83325000D01*
X57140000Y-83325000D01*
X57164504Y-83326204D01*
X57164504Y-83326204D01*
G37*
D15*
X56515000Y-83950000D03*
D10*
G36*
X47744504Y-79396204D02*
G01*
X47768773Y-79399804D01*
X47792571Y-79405765D01*
X47815671Y-79414030D01*
X47837849Y-79424520D01*
X47858893Y-79437133D01*
X47878598Y-79451747D01*
X47896777Y-79468223D01*
X47913253Y-79486402D01*
X47927867Y-79506107D01*
X47940480Y-79527151D01*
X47950970Y-79549329D01*
X47959235Y-79572429D01*
X47965196Y-79596227D01*
X47968796Y-79620496D01*
X47970000Y-79645000D01*
X47970000Y-81645000D01*
X47968796Y-81669504D01*
X47965196Y-81693773D01*
X47959235Y-81717571D01*
X47950970Y-81740671D01*
X47940480Y-81762849D01*
X47927867Y-81783893D01*
X47913253Y-81803598D01*
X47896777Y-81821777D01*
X47878598Y-81838253D01*
X47858893Y-81852867D01*
X47837849Y-81865480D01*
X47815671Y-81875970D01*
X47792571Y-81884235D01*
X47768773Y-81890196D01*
X47744504Y-81893796D01*
X47720000Y-81895000D01*
X44220000Y-81895000D01*
X44195496Y-81893796D01*
X44171227Y-81890196D01*
X44147429Y-81884235D01*
X44124329Y-81875970D01*
X44102151Y-81865480D01*
X44081107Y-81852867D01*
X44061402Y-81838253D01*
X44043223Y-81821777D01*
X44026747Y-81803598D01*
X44012133Y-81783893D01*
X43999520Y-81762849D01*
X43989030Y-81740671D01*
X43980765Y-81717571D01*
X43974804Y-81693773D01*
X43971204Y-81669504D01*
X43970000Y-81645000D01*
X43970000Y-79645000D01*
X43971204Y-79620496D01*
X43974804Y-79596227D01*
X43980765Y-79572429D01*
X43989030Y-79549329D01*
X43999520Y-79527151D01*
X44012133Y-79506107D01*
X44026747Y-79486402D01*
X44043223Y-79468223D01*
X44061402Y-79451747D01*
X44081107Y-79437133D01*
X44102151Y-79424520D01*
X44124329Y-79414030D01*
X44147429Y-79405765D01*
X44171227Y-79399804D01*
X44195496Y-79396204D01*
X44220000Y-79395000D01*
X47720000Y-79395000D01*
X47744504Y-79396204D01*
X47744504Y-79396204D01*
G37*
D16*
X45970000Y-80645000D03*
D10*
G36*
X53844504Y-79396204D02*
G01*
X53868773Y-79399804D01*
X53892571Y-79405765D01*
X53915671Y-79414030D01*
X53937849Y-79424520D01*
X53958893Y-79437133D01*
X53978598Y-79451747D01*
X53996777Y-79468223D01*
X54013253Y-79486402D01*
X54027867Y-79506107D01*
X54040480Y-79527151D01*
X54050970Y-79549329D01*
X54059235Y-79572429D01*
X54065196Y-79596227D01*
X54068796Y-79620496D01*
X54070000Y-79645000D01*
X54070000Y-81645000D01*
X54068796Y-81669504D01*
X54065196Y-81693773D01*
X54059235Y-81717571D01*
X54050970Y-81740671D01*
X54040480Y-81762849D01*
X54027867Y-81783893D01*
X54013253Y-81803598D01*
X53996777Y-81821777D01*
X53978598Y-81838253D01*
X53958893Y-81852867D01*
X53937849Y-81865480D01*
X53915671Y-81875970D01*
X53892571Y-81884235D01*
X53868773Y-81890196D01*
X53844504Y-81893796D01*
X53820000Y-81895000D01*
X50320000Y-81895000D01*
X50295496Y-81893796D01*
X50271227Y-81890196D01*
X50247429Y-81884235D01*
X50224329Y-81875970D01*
X50202151Y-81865480D01*
X50181107Y-81852867D01*
X50161402Y-81838253D01*
X50143223Y-81821777D01*
X50126747Y-81803598D01*
X50112133Y-81783893D01*
X50099520Y-81762849D01*
X50089030Y-81740671D01*
X50080765Y-81717571D01*
X50074804Y-81693773D01*
X50071204Y-81669504D01*
X50070000Y-81645000D01*
X50070000Y-79645000D01*
X50071204Y-79620496D01*
X50074804Y-79596227D01*
X50080765Y-79572429D01*
X50089030Y-79549329D01*
X50099520Y-79527151D01*
X50112133Y-79506107D01*
X50126747Y-79486402D01*
X50143223Y-79468223D01*
X50161402Y-79451747D01*
X50181107Y-79437133D01*
X50202151Y-79424520D01*
X50224329Y-79414030D01*
X50247429Y-79405765D01*
X50271227Y-79399804D01*
X50295496Y-79396204D01*
X50320000Y-79395000D01*
X53820000Y-79395000D01*
X53844504Y-79396204D01*
X53844504Y-79396204D01*
G37*
D16*
X52070000Y-80645000D03*
D10*
G36*
X45382642Y-65849174D02*
G01*
X45406303Y-65852684D01*
X45429507Y-65858496D01*
X45452029Y-65866554D01*
X45473653Y-65876782D01*
X45494170Y-65889079D01*
X45513383Y-65903329D01*
X45531107Y-65919393D01*
X45547171Y-65937117D01*
X45561421Y-65956330D01*
X45573718Y-65976847D01*
X45583946Y-65998471D01*
X45592004Y-66020993D01*
X45597816Y-66044197D01*
X45601326Y-66067858D01*
X45602500Y-66091750D01*
X45602500Y-67004250D01*
X45601326Y-67028142D01*
X45597816Y-67051803D01*
X45592004Y-67075007D01*
X45583946Y-67097529D01*
X45573718Y-67119153D01*
X45561421Y-67139670D01*
X45547171Y-67158883D01*
X45531107Y-67176607D01*
X45513383Y-67192671D01*
X45494170Y-67206921D01*
X45473653Y-67219218D01*
X45452029Y-67229446D01*
X45429507Y-67237504D01*
X45406303Y-67243316D01*
X45382642Y-67246826D01*
X45358750Y-67248000D01*
X44871250Y-67248000D01*
X44847358Y-67246826D01*
X44823697Y-67243316D01*
X44800493Y-67237504D01*
X44777971Y-67229446D01*
X44756347Y-67219218D01*
X44735830Y-67206921D01*
X44716617Y-67192671D01*
X44698893Y-67176607D01*
X44682829Y-67158883D01*
X44668579Y-67139670D01*
X44656282Y-67119153D01*
X44646054Y-67097529D01*
X44637996Y-67075007D01*
X44632184Y-67051803D01*
X44628674Y-67028142D01*
X44627500Y-67004250D01*
X44627500Y-66091750D01*
X44628674Y-66067858D01*
X44632184Y-66044197D01*
X44637996Y-66020993D01*
X44646054Y-65998471D01*
X44656282Y-65976847D01*
X44668579Y-65956330D01*
X44682829Y-65937117D01*
X44698893Y-65919393D01*
X44716617Y-65903329D01*
X44735830Y-65889079D01*
X44756347Y-65876782D01*
X44777971Y-65866554D01*
X44800493Y-65858496D01*
X44823697Y-65852684D01*
X44847358Y-65849174D01*
X44871250Y-65848000D01*
X45358750Y-65848000D01*
X45382642Y-65849174D01*
X45382642Y-65849174D01*
G37*
D11*
X45115000Y-66548000D03*
D10*
G36*
X47257642Y-65849174D02*
G01*
X47281303Y-65852684D01*
X47304507Y-65858496D01*
X47327029Y-65866554D01*
X47348653Y-65876782D01*
X47369170Y-65889079D01*
X47388383Y-65903329D01*
X47406107Y-65919393D01*
X47422171Y-65937117D01*
X47436421Y-65956330D01*
X47448718Y-65976847D01*
X47458946Y-65998471D01*
X47467004Y-66020993D01*
X47472816Y-66044197D01*
X47476326Y-66067858D01*
X47477500Y-66091750D01*
X47477500Y-67004250D01*
X47476326Y-67028142D01*
X47472816Y-67051803D01*
X47467004Y-67075007D01*
X47458946Y-67097529D01*
X47448718Y-67119153D01*
X47436421Y-67139670D01*
X47422171Y-67158883D01*
X47406107Y-67176607D01*
X47388383Y-67192671D01*
X47369170Y-67206921D01*
X47348653Y-67219218D01*
X47327029Y-67229446D01*
X47304507Y-67237504D01*
X47281303Y-67243316D01*
X47257642Y-67246826D01*
X47233750Y-67248000D01*
X46746250Y-67248000D01*
X46722358Y-67246826D01*
X46698697Y-67243316D01*
X46675493Y-67237504D01*
X46652971Y-67229446D01*
X46631347Y-67219218D01*
X46610830Y-67206921D01*
X46591617Y-67192671D01*
X46573893Y-67176607D01*
X46557829Y-67158883D01*
X46543579Y-67139670D01*
X46531282Y-67119153D01*
X46521054Y-67097529D01*
X46512996Y-67075007D01*
X46507184Y-67051803D01*
X46503674Y-67028142D01*
X46502500Y-67004250D01*
X46502500Y-66091750D01*
X46503674Y-66067858D01*
X46507184Y-66044197D01*
X46512996Y-66020993D01*
X46521054Y-65998471D01*
X46531282Y-65976847D01*
X46543579Y-65956330D01*
X46557829Y-65937117D01*
X46573893Y-65919393D01*
X46591617Y-65903329D01*
X46610830Y-65889079D01*
X46631347Y-65876782D01*
X46652971Y-65866554D01*
X46675493Y-65858496D01*
X46698697Y-65852684D01*
X46722358Y-65849174D01*
X46746250Y-65848000D01*
X47233750Y-65848000D01*
X47257642Y-65849174D01*
X47257642Y-65849174D01*
G37*
D11*
X46990000Y-66548000D03*
D10*
G36*
X45382642Y-73215174D02*
G01*
X45406303Y-73218684D01*
X45429507Y-73224496D01*
X45452029Y-73232554D01*
X45473653Y-73242782D01*
X45494170Y-73255079D01*
X45513383Y-73269329D01*
X45531107Y-73285393D01*
X45547171Y-73303117D01*
X45561421Y-73322330D01*
X45573718Y-73342847D01*
X45583946Y-73364471D01*
X45592004Y-73386993D01*
X45597816Y-73410197D01*
X45601326Y-73433858D01*
X45602500Y-73457750D01*
X45602500Y-74370250D01*
X45601326Y-74394142D01*
X45597816Y-74417803D01*
X45592004Y-74441007D01*
X45583946Y-74463529D01*
X45573718Y-74485153D01*
X45561421Y-74505670D01*
X45547171Y-74524883D01*
X45531107Y-74542607D01*
X45513383Y-74558671D01*
X45494170Y-74572921D01*
X45473653Y-74585218D01*
X45452029Y-74595446D01*
X45429507Y-74603504D01*
X45406303Y-74609316D01*
X45382642Y-74612826D01*
X45358750Y-74614000D01*
X44871250Y-74614000D01*
X44847358Y-74612826D01*
X44823697Y-74609316D01*
X44800493Y-74603504D01*
X44777971Y-74595446D01*
X44756347Y-74585218D01*
X44735830Y-74572921D01*
X44716617Y-74558671D01*
X44698893Y-74542607D01*
X44682829Y-74524883D01*
X44668579Y-74505670D01*
X44656282Y-74485153D01*
X44646054Y-74463529D01*
X44637996Y-74441007D01*
X44632184Y-74417803D01*
X44628674Y-74394142D01*
X44627500Y-74370250D01*
X44627500Y-73457750D01*
X44628674Y-73433858D01*
X44632184Y-73410197D01*
X44637996Y-73386993D01*
X44646054Y-73364471D01*
X44656282Y-73342847D01*
X44668579Y-73322330D01*
X44682829Y-73303117D01*
X44698893Y-73285393D01*
X44716617Y-73269329D01*
X44735830Y-73255079D01*
X44756347Y-73242782D01*
X44777971Y-73232554D01*
X44800493Y-73224496D01*
X44823697Y-73218684D01*
X44847358Y-73215174D01*
X44871250Y-73214000D01*
X45358750Y-73214000D01*
X45382642Y-73215174D01*
X45382642Y-73215174D01*
G37*
D11*
X45115000Y-73914000D03*
D10*
G36*
X47257642Y-73215174D02*
G01*
X47281303Y-73218684D01*
X47304507Y-73224496D01*
X47327029Y-73232554D01*
X47348653Y-73242782D01*
X47369170Y-73255079D01*
X47388383Y-73269329D01*
X47406107Y-73285393D01*
X47422171Y-73303117D01*
X47436421Y-73322330D01*
X47448718Y-73342847D01*
X47458946Y-73364471D01*
X47467004Y-73386993D01*
X47472816Y-73410197D01*
X47476326Y-73433858D01*
X47477500Y-73457750D01*
X47477500Y-74370250D01*
X47476326Y-74394142D01*
X47472816Y-74417803D01*
X47467004Y-74441007D01*
X47458946Y-74463529D01*
X47448718Y-74485153D01*
X47436421Y-74505670D01*
X47422171Y-74524883D01*
X47406107Y-74542607D01*
X47388383Y-74558671D01*
X47369170Y-74572921D01*
X47348653Y-74585218D01*
X47327029Y-74595446D01*
X47304507Y-74603504D01*
X47281303Y-74609316D01*
X47257642Y-74612826D01*
X47233750Y-74614000D01*
X46746250Y-74614000D01*
X46722358Y-74612826D01*
X46698697Y-74609316D01*
X46675493Y-74603504D01*
X46652971Y-74595446D01*
X46631347Y-74585218D01*
X46610830Y-74572921D01*
X46591617Y-74558671D01*
X46573893Y-74542607D01*
X46557829Y-74524883D01*
X46543579Y-74505670D01*
X46531282Y-74485153D01*
X46521054Y-74463529D01*
X46512996Y-74441007D01*
X46507184Y-74417803D01*
X46503674Y-74394142D01*
X46502500Y-74370250D01*
X46502500Y-73457750D01*
X46503674Y-73433858D01*
X46507184Y-73410197D01*
X46512996Y-73386993D01*
X46521054Y-73364471D01*
X46531282Y-73342847D01*
X46543579Y-73322330D01*
X46557829Y-73303117D01*
X46573893Y-73285393D01*
X46591617Y-73269329D01*
X46610830Y-73255079D01*
X46631347Y-73242782D01*
X46652971Y-73232554D01*
X46675493Y-73224496D01*
X46698697Y-73218684D01*
X46722358Y-73215174D01*
X46746250Y-73214000D01*
X47233750Y-73214000D01*
X47257642Y-73215174D01*
X47257642Y-73215174D01*
G37*
D11*
X46990000Y-73914000D03*
D10*
G36*
X49883142Y-71619674D02*
G01*
X49906803Y-71623184D01*
X49930007Y-71628996D01*
X49952529Y-71637054D01*
X49974153Y-71647282D01*
X49994670Y-71659579D01*
X50013883Y-71673829D01*
X50031607Y-71689893D01*
X50047671Y-71707617D01*
X50061921Y-71726830D01*
X50074218Y-71747347D01*
X50084446Y-71768971D01*
X50092504Y-71791493D01*
X50098316Y-71814697D01*
X50101826Y-71838358D01*
X50103000Y-71862250D01*
X50103000Y-72349750D01*
X50101826Y-72373642D01*
X50098316Y-72397303D01*
X50092504Y-72420507D01*
X50084446Y-72443029D01*
X50074218Y-72464653D01*
X50061921Y-72485170D01*
X50047671Y-72504383D01*
X50031607Y-72522107D01*
X50013883Y-72538171D01*
X49994670Y-72552421D01*
X49974153Y-72564718D01*
X49952529Y-72574946D01*
X49930007Y-72583004D01*
X49906803Y-72588816D01*
X49883142Y-72592326D01*
X49859250Y-72593500D01*
X48946750Y-72593500D01*
X48922858Y-72592326D01*
X48899197Y-72588816D01*
X48875993Y-72583004D01*
X48853471Y-72574946D01*
X48831847Y-72564718D01*
X48811330Y-72552421D01*
X48792117Y-72538171D01*
X48774393Y-72522107D01*
X48758329Y-72504383D01*
X48744079Y-72485170D01*
X48731782Y-72464653D01*
X48721554Y-72443029D01*
X48713496Y-72420507D01*
X48707684Y-72397303D01*
X48704174Y-72373642D01*
X48703000Y-72349750D01*
X48703000Y-71862250D01*
X48704174Y-71838358D01*
X48707684Y-71814697D01*
X48713496Y-71791493D01*
X48721554Y-71768971D01*
X48731782Y-71747347D01*
X48744079Y-71726830D01*
X48758329Y-71707617D01*
X48774393Y-71689893D01*
X48792117Y-71673829D01*
X48811330Y-71659579D01*
X48831847Y-71647282D01*
X48853471Y-71637054D01*
X48875993Y-71628996D01*
X48899197Y-71623184D01*
X48922858Y-71619674D01*
X48946750Y-71618500D01*
X49859250Y-71618500D01*
X49883142Y-71619674D01*
X49883142Y-71619674D01*
G37*
D11*
X49403000Y-72106000D03*
D10*
G36*
X49883142Y-69744674D02*
G01*
X49906803Y-69748184D01*
X49930007Y-69753996D01*
X49952529Y-69762054D01*
X49974153Y-69772282D01*
X49994670Y-69784579D01*
X50013883Y-69798829D01*
X50031607Y-69814893D01*
X50047671Y-69832617D01*
X50061921Y-69851830D01*
X50074218Y-69872347D01*
X50084446Y-69893971D01*
X50092504Y-69916493D01*
X50098316Y-69939697D01*
X50101826Y-69963358D01*
X50103000Y-69987250D01*
X50103000Y-70474750D01*
X50101826Y-70498642D01*
X50098316Y-70522303D01*
X50092504Y-70545507D01*
X50084446Y-70568029D01*
X50074218Y-70589653D01*
X50061921Y-70610170D01*
X50047671Y-70629383D01*
X50031607Y-70647107D01*
X50013883Y-70663171D01*
X49994670Y-70677421D01*
X49974153Y-70689718D01*
X49952529Y-70699946D01*
X49930007Y-70708004D01*
X49906803Y-70713816D01*
X49883142Y-70717326D01*
X49859250Y-70718500D01*
X48946750Y-70718500D01*
X48922858Y-70717326D01*
X48899197Y-70713816D01*
X48875993Y-70708004D01*
X48853471Y-70699946D01*
X48831847Y-70689718D01*
X48811330Y-70677421D01*
X48792117Y-70663171D01*
X48774393Y-70647107D01*
X48758329Y-70629383D01*
X48744079Y-70610170D01*
X48731782Y-70589653D01*
X48721554Y-70568029D01*
X48713496Y-70545507D01*
X48707684Y-70522303D01*
X48704174Y-70498642D01*
X48703000Y-70474750D01*
X48703000Y-69987250D01*
X48704174Y-69963358D01*
X48707684Y-69939697D01*
X48713496Y-69916493D01*
X48721554Y-69893971D01*
X48731782Y-69872347D01*
X48744079Y-69851830D01*
X48758329Y-69832617D01*
X48774393Y-69814893D01*
X48792117Y-69798829D01*
X48811330Y-69784579D01*
X48831847Y-69772282D01*
X48853471Y-69762054D01*
X48875993Y-69753996D01*
X48899197Y-69748184D01*
X48922858Y-69744674D01*
X48946750Y-69743500D01*
X49859250Y-69743500D01*
X49883142Y-69744674D01*
X49883142Y-69744674D01*
G37*
D11*
X49403000Y-70231000D03*
D10*
G36*
X55210142Y-76771174D02*
G01*
X55233803Y-76774684D01*
X55257007Y-76780496D01*
X55279529Y-76788554D01*
X55301153Y-76798782D01*
X55321670Y-76811079D01*
X55340883Y-76825329D01*
X55358607Y-76841393D01*
X55374671Y-76859117D01*
X55388921Y-76878330D01*
X55401218Y-76898847D01*
X55411446Y-76920471D01*
X55419504Y-76942993D01*
X55425316Y-76966197D01*
X55428826Y-76989858D01*
X55430000Y-77013750D01*
X55430000Y-77926250D01*
X55428826Y-77950142D01*
X55425316Y-77973803D01*
X55419504Y-77997007D01*
X55411446Y-78019529D01*
X55401218Y-78041153D01*
X55388921Y-78061670D01*
X55374671Y-78080883D01*
X55358607Y-78098607D01*
X55340883Y-78114671D01*
X55321670Y-78128921D01*
X55301153Y-78141218D01*
X55279529Y-78151446D01*
X55257007Y-78159504D01*
X55233803Y-78165316D01*
X55210142Y-78168826D01*
X55186250Y-78170000D01*
X54698750Y-78170000D01*
X54674858Y-78168826D01*
X54651197Y-78165316D01*
X54627993Y-78159504D01*
X54605471Y-78151446D01*
X54583847Y-78141218D01*
X54563330Y-78128921D01*
X54544117Y-78114671D01*
X54526393Y-78098607D01*
X54510329Y-78080883D01*
X54496079Y-78061670D01*
X54483782Y-78041153D01*
X54473554Y-78019529D01*
X54465496Y-77997007D01*
X54459684Y-77973803D01*
X54456174Y-77950142D01*
X54455000Y-77926250D01*
X54455000Y-77013750D01*
X54456174Y-76989858D01*
X54459684Y-76966197D01*
X54465496Y-76942993D01*
X54473554Y-76920471D01*
X54483782Y-76898847D01*
X54496079Y-76878330D01*
X54510329Y-76859117D01*
X54526393Y-76841393D01*
X54544117Y-76825329D01*
X54563330Y-76811079D01*
X54583847Y-76798782D01*
X54605471Y-76788554D01*
X54627993Y-76780496D01*
X54651197Y-76774684D01*
X54674858Y-76771174D01*
X54698750Y-76770000D01*
X55186250Y-76770000D01*
X55210142Y-76771174D01*
X55210142Y-76771174D01*
G37*
D11*
X54942500Y-77470000D03*
D10*
G36*
X57085142Y-76771174D02*
G01*
X57108803Y-76774684D01*
X57132007Y-76780496D01*
X57154529Y-76788554D01*
X57176153Y-76798782D01*
X57196670Y-76811079D01*
X57215883Y-76825329D01*
X57233607Y-76841393D01*
X57249671Y-76859117D01*
X57263921Y-76878330D01*
X57276218Y-76898847D01*
X57286446Y-76920471D01*
X57294504Y-76942993D01*
X57300316Y-76966197D01*
X57303826Y-76989858D01*
X57305000Y-77013750D01*
X57305000Y-77926250D01*
X57303826Y-77950142D01*
X57300316Y-77973803D01*
X57294504Y-77997007D01*
X57286446Y-78019529D01*
X57276218Y-78041153D01*
X57263921Y-78061670D01*
X57249671Y-78080883D01*
X57233607Y-78098607D01*
X57215883Y-78114671D01*
X57196670Y-78128921D01*
X57176153Y-78141218D01*
X57154529Y-78151446D01*
X57132007Y-78159504D01*
X57108803Y-78165316D01*
X57085142Y-78168826D01*
X57061250Y-78170000D01*
X56573750Y-78170000D01*
X56549858Y-78168826D01*
X56526197Y-78165316D01*
X56502993Y-78159504D01*
X56480471Y-78151446D01*
X56458847Y-78141218D01*
X56438330Y-78128921D01*
X56419117Y-78114671D01*
X56401393Y-78098607D01*
X56385329Y-78080883D01*
X56371079Y-78061670D01*
X56358782Y-78041153D01*
X56348554Y-78019529D01*
X56340496Y-77997007D01*
X56334684Y-77973803D01*
X56331174Y-77950142D01*
X56330000Y-77926250D01*
X56330000Y-77013750D01*
X56331174Y-76989858D01*
X56334684Y-76966197D01*
X56340496Y-76942993D01*
X56348554Y-76920471D01*
X56358782Y-76898847D01*
X56371079Y-76878330D01*
X56385329Y-76859117D01*
X56401393Y-76841393D01*
X56419117Y-76825329D01*
X56438330Y-76811079D01*
X56458847Y-76798782D01*
X56480471Y-76788554D01*
X56502993Y-76780496D01*
X56526197Y-76774684D01*
X56549858Y-76771174D01*
X56573750Y-76770000D01*
X57061250Y-76770000D01*
X57085142Y-76771174D01*
X57085142Y-76771174D01*
G37*
D11*
X56817500Y-77470000D03*
D10*
G36*
X44549142Y-58109174D02*
G01*
X44572803Y-58112684D01*
X44596007Y-58118496D01*
X44618529Y-58126554D01*
X44640153Y-58136782D01*
X44660670Y-58149079D01*
X44679883Y-58163329D01*
X44697607Y-58179393D01*
X44713671Y-58197117D01*
X44727921Y-58216330D01*
X44740218Y-58236847D01*
X44750446Y-58258471D01*
X44758504Y-58280993D01*
X44764316Y-58304197D01*
X44767826Y-58327858D01*
X44769000Y-58351750D01*
X44769000Y-58839250D01*
X44767826Y-58863142D01*
X44764316Y-58886803D01*
X44758504Y-58910007D01*
X44750446Y-58932529D01*
X44740218Y-58954153D01*
X44727921Y-58974670D01*
X44713671Y-58993883D01*
X44697607Y-59011607D01*
X44679883Y-59027671D01*
X44660670Y-59041921D01*
X44640153Y-59054218D01*
X44618529Y-59064446D01*
X44596007Y-59072504D01*
X44572803Y-59078316D01*
X44549142Y-59081826D01*
X44525250Y-59083000D01*
X43612750Y-59083000D01*
X43588858Y-59081826D01*
X43565197Y-59078316D01*
X43541993Y-59072504D01*
X43519471Y-59064446D01*
X43497847Y-59054218D01*
X43477330Y-59041921D01*
X43458117Y-59027671D01*
X43440393Y-59011607D01*
X43424329Y-58993883D01*
X43410079Y-58974670D01*
X43397782Y-58954153D01*
X43387554Y-58932529D01*
X43379496Y-58910007D01*
X43373684Y-58886803D01*
X43370174Y-58863142D01*
X43369000Y-58839250D01*
X43369000Y-58351750D01*
X43370174Y-58327858D01*
X43373684Y-58304197D01*
X43379496Y-58280993D01*
X43387554Y-58258471D01*
X43397782Y-58236847D01*
X43410079Y-58216330D01*
X43424329Y-58197117D01*
X43440393Y-58179393D01*
X43458117Y-58163329D01*
X43477330Y-58149079D01*
X43497847Y-58136782D01*
X43519471Y-58126554D01*
X43541993Y-58118496D01*
X43565197Y-58112684D01*
X43588858Y-58109174D01*
X43612750Y-58108000D01*
X44525250Y-58108000D01*
X44549142Y-58109174D01*
X44549142Y-58109174D01*
G37*
D11*
X44069000Y-58595500D03*
D10*
G36*
X44549142Y-56234174D02*
G01*
X44572803Y-56237684D01*
X44596007Y-56243496D01*
X44618529Y-56251554D01*
X44640153Y-56261782D01*
X44660670Y-56274079D01*
X44679883Y-56288329D01*
X44697607Y-56304393D01*
X44713671Y-56322117D01*
X44727921Y-56341330D01*
X44740218Y-56361847D01*
X44750446Y-56383471D01*
X44758504Y-56405993D01*
X44764316Y-56429197D01*
X44767826Y-56452858D01*
X44769000Y-56476750D01*
X44769000Y-56964250D01*
X44767826Y-56988142D01*
X44764316Y-57011803D01*
X44758504Y-57035007D01*
X44750446Y-57057529D01*
X44740218Y-57079153D01*
X44727921Y-57099670D01*
X44713671Y-57118883D01*
X44697607Y-57136607D01*
X44679883Y-57152671D01*
X44660670Y-57166921D01*
X44640153Y-57179218D01*
X44618529Y-57189446D01*
X44596007Y-57197504D01*
X44572803Y-57203316D01*
X44549142Y-57206826D01*
X44525250Y-57208000D01*
X43612750Y-57208000D01*
X43588858Y-57206826D01*
X43565197Y-57203316D01*
X43541993Y-57197504D01*
X43519471Y-57189446D01*
X43497847Y-57179218D01*
X43477330Y-57166921D01*
X43458117Y-57152671D01*
X43440393Y-57136607D01*
X43424329Y-57118883D01*
X43410079Y-57099670D01*
X43397782Y-57079153D01*
X43387554Y-57057529D01*
X43379496Y-57035007D01*
X43373684Y-57011803D01*
X43370174Y-56988142D01*
X43369000Y-56964250D01*
X43369000Y-56476750D01*
X43370174Y-56452858D01*
X43373684Y-56429197D01*
X43379496Y-56405993D01*
X43387554Y-56383471D01*
X43397782Y-56361847D01*
X43410079Y-56341330D01*
X43424329Y-56322117D01*
X43440393Y-56304393D01*
X43458117Y-56288329D01*
X43477330Y-56274079D01*
X43497847Y-56261782D01*
X43519471Y-56251554D01*
X43541993Y-56243496D01*
X43565197Y-56237684D01*
X43588858Y-56234174D01*
X43612750Y-56233000D01*
X44525250Y-56233000D01*
X44549142Y-56234174D01*
X44549142Y-56234174D01*
G37*
D11*
X44069000Y-56720500D03*
M02*
