G04 #@! TF.GenerationSoftware,KiCad,Pcbnew,(5.1.2-1)-1*
G04 #@! TF.CreationDate,2019-12-06T12:36:27-08:00*
G04 #@! TF.ProjectId,pixel-stick,70697865-6c2d-4737-9469-636b2e6b6963,rev?*
G04 #@! TF.SameCoordinates,Original*
G04 #@! TF.FileFunction,Soldermask,Bot*
G04 #@! TF.FilePolarity,Negative*
%FSLAX46Y46*%
G04 Gerber Fmt 4.6, Leading zero omitted, Abs format (unit mm)*
G04 Created by KiCad (PCBNEW (5.1.2-1)-1) date 2019-12-06 12:36:27*
%MOMM*%
%LPD*%
G04 APERTURE LIST*
%ADD10C,0.100000*%
G04 APERTURE END LIST*
D10*
G36*
X57688680Y-88549680D02*
G01*
X55087320Y-88549680D01*
X55087320Y-85948320D01*
X57688680Y-85948320D01*
X57688680Y-88549680D01*
X57688680Y-88549680D01*
G37*
G36*
X52957393Y-85998304D02*
G01*
X53194101Y-86096352D01*
X53194103Y-86096353D01*
X53407135Y-86238696D01*
X53588304Y-86419865D01*
X53730647Y-86632897D01*
X53730648Y-86632899D01*
X53828696Y-86869607D01*
X53878680Y-87120893D01*
X53878680Y-87377107D01*
X53828696Y-87628393D01*
X53730648Y-87865101D01*
X53730647Y-87865103D01*
X53588304Y-88078135D01*
X53407135Y-88259304D01*
X53194103Y-88401647D01*
X53194102Y-88401648D01*
X53194101Y-88401648D01*
X52957393Y-88499696D01*
X52706107Y-88549680D01*
X52449893Y-88549680D01*
X52198607Y-88499696D01*
X51961899Y-88401648D01*
X51961898Y-88401648D01*
X51961897Y-88401647D01*
X51748865Y-88259304D01*
X51567696Y-88078135D01*
X51425353Y-87865103D01*
X51425352Y-87865101D01*
X51327304Y-87628393D01*
X51277320Y-87377107D01*
X51277320Y-87120893D01*
X51327304Y-86869607D01*
X51425352Y-86632899D01*
X51425353Y-86632897D01*
X51567696Y-86419865D01*
X51748865Y-86238696D01*
X51961897Y-86096353D01*
X51961899Y-86096352D01*
X52198607Y-85998304D01*
X52449893Y-85948320D01*
X52706107Y-85948320D01*
X52957393Y-85998304D01*
X52957393Y-85998304D01*
G37*
G36*
X49147393Y-85998304D02*
G01*
X49384101Y-86096352D01*
X49384103Y-86096353D01*
X49597135Y-86238696D01*
X49778304Y-86419865D01*
X49920647Y-86632897D01*
X49920648Y-86632899D01*
X50018696Y-86869607D01*
X50068680Y-87120893D01*
X50068680Y-87377107D01*
X50018696Y-87628393D01*
X49920648Y-87865101D01*
X49920647Y-87865103D01*
X49778304Y-88078135D01*
X49597135Y-88259304D01*
X49384103Y-88401647D01*
X49384102Y-88401648D01*
X49384101Y-88401648D01*
X49147393Y-88499696D01*
X48896107Y-88549680D01*
X48639893Y-88549680D01*
X48388607Y-88499696D01*
X48151899Y-88401648D01*
X48151898Y-88401648D01*
X48151897Y-88401647D01*
X47938865Y-88259304D01*
X47757696Y-88078135D01*
X47615353Y-87865103D01*
X47615352Y-87865101D01*
X47517304Y-87628393D01*
X47467320Y-87377107D01*
X47467320Y-87120893D01*
X47517304Y-86869607D01*
X47615352Y-86632899D01*
X47615353Y-86632897D01*
X47757696Y-86419865D01*
X47938865Y-86238696D01*
X48151897Y-86096353D01*
X48151899Y-86096352D01*
X48388607Y-85998304D01*
X48639893Y-85948320D01*
X48896107Y-85948320D01*
X49147393Y-85998304D01*
X49147393Y-85998304D01*
G37*
G36*
X45337393Y-85998304D02*
G01*
X45574101Y-86096352D01*
X45574103Y-86096353D01*
X45787135Y-86238696D01*
X45968304Y-86419865D01*
X46110647Y-86632897D01*
X46110648Y-86632899D01*
X46208696Y-86869607D01*
X46258680Y-87120893D01*
X46258680Y-87377107D01*
X46208696Y-87628393D01*
X46110648Y-87865101D01*
X46110647Y-87865103D01*
X45968304Y-88078135D01*
X45787135Y-88259304D01*
X45574103Y-88401647D01*
X45574102Y-88401648D01*
X45574101Y-88401648D01*
X45337393Y-88499696D01*
X45086107Y-88549680D01*
X44829893Y-88549680D01*
X44578607Y-88499696D01*
X44341899Y-88401648D01*
X44341898Y-88401648D01*
X44341897Y-88401647D01*
X44128865Y-88259304D01*
X43947696Y-88078135D01*
X43805353Y-87865103D01*
X43805352Y-87865101D01*
X43707304Y-87628393D01*
X43657320Y-87377107D01*
X43657320Y-87120893D01*
X43707304Y-86869607D01*
X43805352Y-86632899D01*
X43805353Y-86632897D01*
X43947696Y-86419865D01*
X44128865Y-86238696D01*
X44341897Y-86096353D01*
X44341899Y-86096352D01*
X44578607Y-85998304D01*
X44829893Y-85948320D01*
X45086107Y-85948320D01*
X45337393Y-85998304D01*
X45337393Y-85998304D01*
G37*
G36*
X54720442Y-58160518D02*
G01*
X54786627Y-58167037D01*
X54956466Y-58218557D01*
X55112991Y-58302222D01*
X55148729Y-58331552D01*
X55250186Y-58414814D01*
X55333448Y-58516271D01*
X55362778Y-58552009D01*
X55446443Y-58708534D01*
X55497963Y-58878373D01*
X55515359Y-59055000D01*
X55497963Y-59231627D01*
X55446443Y-59401466D01*
X55362778Y-59557991D01*
X55333448Y-59593729D01*
X55250186Y-59695186D01*
X55148729Y-59778448D01*
X55112991Y-59807778D01*
X54956466Y-59891443D01*
X54786627Y-59942963D01*
X54720442Y-59949482D01*
X54654260Y-59956000D01*
X54565740Y-59956000D01*
X54499558Y-59949482D01*
X54433373Y-59942963D01*
X54263534Y-59891443D01*
X54107009Y-59807778D01*
X54071271Y-59778448D01*
X53969814Y-59695186D01*
X53886552Y-59593729D01*
X53857222Y-59557991D01*
X53773557Y-59401466D01*
X53722037Y-59231627D01*
X53704641Y-59055000D01*
X53722037Y-58878373D01*
X53773557Y-58708534D01*
X53857222Y-58552009D01*
X53886552Y-58516271D01*
X53969814Y-58414814D01*
X54071271Y-58331552D01*
X54107009Y-58302222D01*
X54263534Y-58218557D01*
X54433373Y-58167037D01*
X54499558Y-58160518D01*
X54565740Y-58154000D01*
X54654260Y-58154000D01*
X54720442Y-58160518D01*
X54720442Y-58160518D01*
G37*
G36*
X52180442Y-58160518D02*
G01*
X52246627Y-58167037D01*
X52416466Y-58218557D01*
X52572991Y-58302222D01*
X52608729Y-58331552D01*
X52710186Y-58414814D01*
X52793448Y-58516271D01*
X52822778Y-58552009D01*
X52906443Y-58708534D01*
X52957963Y-58878373D01*
X52975359Y-59055000D01*
X52957963Y-59231627D01*
X52906443Y-59401466D01*
X52822778Y-59557991D01*
X52793448Y-59593729D01*
X52710186Y-59695186D01*
X52608729Y-59778448D01*
X52572991Y-59807778D01*
X52416466Y-59891443D01*
X52246627Y-59942963D01*
X52180442Y-59949482D01*
X52114260Y-59956000D01*
X52025740Y-59956000D01*
X51959558Y-59949482D01*
X51893373Y-59942963D01*
X51723534Y-59891443D01*
X51567009Y-59807778D01*
X51531271Y-59778448D01*
X51429814Y-59695186D01*
X51346552Y-59593729D01*
X51317222Y-59557991D01*
X51233557Y-59401466D01*
X51182037Y-59231627D01*
X51164641Y-59055000D01*
X51182037Y-58878373D01*
X51233557Y-58708534D01*
X51317222Y-58552009D01*
X51346552Y-58516271D01*
X51429814Y-58414814D01*
X51531271Y-58331552D01*
X51567009Y-58302222D01*
X51723534Y-58218557D01*
X51893373Y-58167037D01*
X51959558Y-58160518D01*
X52025740Y-58154000D01*
X52114260Y-58154000D01*
X52180442Y-58160518D01*
X52180442Y-58160518D01*
G37*
G36*
X49640442Y-58160518D02*
G01*
X49706627Y-58167037D01*
X49876466Y-58218557D01*
X50032991Y-58302222D01*
X50068729Y-58331552D01*
X50170186Y-58414814D01*
X50253448Y-58516271D01*
X50282778Y-58552009D01*
X50366443Y-58708534D01*
X50417963Y-58878373D01*
X50435359Y-59055000D01*
X50417963Y-59231627D01*
X50366443Y-59401466D01*
X50282778Y-59557991D01*
X50253448Y-59593729D01*
X50170186Y-59695186D01*
X50068729Y-59778448D01*
X50032991Y-59807778D01*
X49876466Y-59891443D01*
X49706627Y-59942963D01*
X49640442Y-59949482D01*
X49574260Y-59956000D01*
X49485740Y-59956000D01*
X49419558Y-59949482D01*
X49353373Y-59942963D01*
X49183534Y-59891443D01*
X49027009Y-59807778D01*
X48991271Y-59778448D01*
X48889814Y-59695186D01*
X48806552Y-59593729D01*
X48777222Y-59557991D01*
X48693557Y-59401466D01*
X48642037Y-59231627D01*
X48624641Y-59055000D01*
X48642037Y-58878373D01*
X48693557Y-58708534D01*
X48777222Y-58552009D01*
X48806552Y-58516271D01*
X48889814Y-58414814D01*
X48991271Y-58331552D01*
X49027009Y-58302222D01*
X49183534Y-58218557D01*
X49353373Y-58167037D01*
X49419558Y-58160518D01*
X49485740Y-58154000D01*
X49574260Y-58154000D01*
X49640442Y-58160518D01*
X49640442Y-58160518D01*
G37*
G36*
X47100442Y-58160518D02*
G01*
X47166627Y-58167037D01*
X47336466Y-58218557D01*
X47492991Y-58302222D01*
X47528729Y-58331552D01*
X47630186Y-58414814D01*
X47713448Y-58516271D01*
X47742778Y-58552009D01*
X47826443Y-58708534D01*
X47877963Y-58878373D01*
X47895359Y-59055000D01*
X47877963Y-59231627D01*
X47826443Y-59401466D01*
X47742778Y-59557991D01*
X47713448Y-59593729D01*
X47630186Y-59695186D01*
X47528729Y-59778448D01*
X47492991Y-59807778D01*
X47336466Y-59891443D01*
X47166627Y-59942963D01*
X47100442Y-59949482D01*
X47034260Y-59956000D01*
X46945740Y-59956000D01*
X46879558Y-59949482D01*
X46813373Y-59942963D01*
X46643534Y-59891443D01*
X46487009Y-59807778D01*
X46451271Y-59778448D01*
X46349814Y-59695186D01*
X46266552Y-59593729D01*
X46237222Y-59557991D01*
X46153557Y-59401466D01*
X46102037Y-59231627D01*
X46084641Y-59055000D01*
X46102037Y-58878373D01*
X46153557Y-58708534D01*
X46237222Y-58552009D01*
X46266552Y-58516271D01*
X46349814Y-58414814D01*
X46451271Y-58331552D01*
X46487009Y-58302222D01*
X46643534Y-58218557D01*
X46813373Y-58167037D01*
X46879558Y-58160518D01*
X46945740Y-58154000D01*
X47034260Y-58154000D01*
X47100442Y-58160518D01*
X47100442Y-58160518D01*
G37*
G36*
X55511000Y-57416000D02*
G01*
X53709000Y-57416000D01*
X53709000Y-55614000D01*
X55511000Y-55614000D01*
X55511000Y-57416000D01*
X55511000Y-57416000D01*
G37*
G36*
X52180443Y-55620519D02*
G01*
X52246627Y-55627037D01*
X52416466Y-55678557D01*
X52572991Y-55762222D01*
X52608729Y-55791552D01*
X52710186Y-55874814D01*
X52793448Y-55976271D01*
X52822778Y-56012009D01*
X52906443Y-56168534D01*
X52957963Y-56338373D01*
X52975359Y-56515000D01*
X52957963Y-56691627D01*
X52906443Y-56861466D01*
X52822778Y-57017991D01*
X52793448Y-57053729D01*
X52710186Y-57155186D01*
X52608729Y-57238448D01*
X52572991Y-57267778D01*
X52416466Y-57351443D01*
X52246627Y-57402963D01*
X52180443Y-57409481D01*
X52114260Y-57416000D01*
X52025740Y-57416000D01*
X51959557Y-57409481D01*
X51893373Y-57402963D01*
X51723534Y-57351443D01*
X51567009Y-57267778D01*
X51531271Y-57238448D01*
X51429814Y-57155186D01*
X51346552Y-57053729D01*
X51317222Y-57017991D01*
X51233557Y-56861466D01*
X51182037Y-56691627D01*
X51164641Y-56515000D01*
X51182037Y-56338373D01*
X51233557Y-56168534D01*
X51317222Y-56012009D01*
X51346552Y-55976271D01*
X51429814Y-55874814D01*
X51531271Y-55791552D01*
X51567009Y-55762222D01*
X51723534Y-55678557D01*
X51893373Y-55627037D01*
X51959557Y-55620519D01*
X52025740Y-55614000D01*
X52114260Y-55614000D01*
X52180443Y-55620519D01*
X52180443Y-55620519D01*
G37*
G36*
X49640443Y-55620519D02*
G01*
X49706627Y-55627037D01*
X49876466Y-55678557D01*
X50032991Y-55762222D01*
X50068729Y-55791552D01*
X50170186Y-55874814D01*
X50253448Y-55976271D01*
X50282778Y-56012009D01*
X50366443Y-56168534D01*
X50417963Y-56338373D01*
X50435359Y-56515000D01*
X50417963Y-56691627D01*
X50366443Y-56861466D01*
X50282778Y-57017991D01*
X50253448Y-57053729D01*
X50170186Y-57155186D01*
X50068729Y-57238448D01*
X50032991Y-57267778D01*
X49876466Y-57351443D01*
X49706627Y-57402963D01*
X49640443Y-57409481D01*
X49574260Y-57416000D01*
X49485740Y-57416000D01*
X49419557Y-57409481D01*
X49353373Y-57402963D01*
X49183534Y-57351443D01*
X49027009Y-57267778D01*
X48991271Y-57238448D01*
X48889814Y-57155186D01*
X48806552Y-57053729D01*
X48777222Y-57017991D01*
X48693557Y-56861466D01*
X48642037Y-56691627D01*
X48624641Y-56515000D01*
X48642037Y-56338373D01*
X48693557Y-56168534D01*
X48777222Y-56012009D01*
X48806552Y-55976271D01*
X48889814Y-55874814D01*
X48991271Y-55791552D01*
X49027009Y-55762222D01*
X49183534Y-55678557D01*
X49353373Y-55627037D01*
X49419557Y-55620519D01*
X49485740Y-55614000D01*
X49574260Y-55614000D01*
X49640443Y-55620519D01*
X49640443Y-55620519D01*
G37*
G36*
X47100443Y-55620519D02*
G01*
X47166627Y-55627037D01*
X47336466Y-55678557D01*
X47492991Y-55762222D01*
X47528729Y-55791552D01*
X47630186Y-55874814D01*
X47713448Y-55976271D01*
X47742778Y-56012009D01*
X47826443Y-56168534D01*
X47877963Y-56338373D01*
X47895359Y-56515000D01*
X47877963Y-56691627D01*
X47826443Y-56861466D01*
X47742778Y-57017991D01*
X47713448Y-57053729D01*
X47630186Y-57155186D01*
X47528729Y-57238448D01*
X47492991Y-57267778D01*
X47336466Y-57351443D01*
X47166627Y-57402963D01*
X47100443Y-57409481D01*
X47034260Y-57416000D01*
X46945740Y-57416000D01*
X46879557Y-57409481D01*
X46813373Y-57402963D01*
X46643534Y-57351443D01*
X46487009Y-57267778D01*
X46451271Y-57238448D01*
X46349814Y-57155186D01*
X46266552Y-57053729D01*
X46237222Y-57017991D01*
X46153557Y-56861466D01*
X46102037Y-56691627D01*
X46084641Y-56515000D01*
X46102037Y-56338373D01*
X46153557Y-56168534D01*
X46237222Y-56012009D01*
X46266552Y-55976271D01*
X46349814Y-55874814D01*
X46451271Y-55791552D01*
X46487009Y-55762222D01*
X46643534Y-55678557D01*
X46813373Y-55627037D01*
X46879557Y-55620519D01*
X46945740Y-55614000D01*
X47034260Y-55614000D01*
X47100443Y-55620519D01*
X47100443Y-55620519D01*
G37*
M02*
