G04 #@! TF.GenerationSoftware,KiCad,Pcbnew,(5.1.2-1)-1*
G04 #@! TF.CreationDate,2019-12-07T23:50:45-08:00*
G04 #@! TF.ProjectId,pixel-stick,70697865-6c2d-4737-9469-636b2e6b6963,rev?*
G04 #@! TF.SameCoordinates,Original*
G04 #@! TF.FileFunction,Copper,L2,Bot*
G04 #@! TF.FilePolarity,Positive*
%FSLAX46Y46*%
G04 Gerber Fmt 4.6, Leading zero omitted, Abs format (unit mm)*
G04 Created by KiCad (PCBNEW (5.1.2-1)-1) date 2019-12-07 23:50:45*
%MOMM*%
%LPD*%
G04 APERTURE LIST*
%ADD10O,1.727200X1.727200*%
%ADD11R,1.727200X1.727200*%
%ADD12C,2.999740*%
%ADD13R,2.999740X2.999740*%
%ADD14C,0.800000*%
%ADD15C,0.250000*%
%ADD16C,0.254000*%
G04 APERTURE END LIST*
D10*
X46990000Y-59055000D03*
X46990000Y-56515000D03*
X49530000Y-59055000D03*
X49530000Y-56515000D03*
X52070000Y-59055000D03*
X52070000Y-56515000D03*
X54610000Y-59055000D03*
D11*
X54610000Y-56515000D03*
D12*
X46990000Y-85852000D03*
X50800000Y-85852000D03*
D13*
X54610000Y-85852000D03*
D14*
X45974000Y-64516000D03*
D15*
X52040000Y-56485000D02*
X52070000Y-56515000D01*
X50800000Y-69342000D02*
X45974000Y-64516000D01*
X50800000Y-87376000D02*
X50800000Y-69342000D01*
D16*
G36*
X57825200Y-54781559D02*
G01*
X57986041Y-54830120D01*
X58134378Y-54908992D01*
X58264574Y-55015176D01*
X58371664Y-55144626D01*
X58451572Y-55292414D01*
X58501252Y-55452902D01*
X58522000Y-55650306D01*
X58522001Y-87851713D01*
X58502441Y-88051204D01*
X58453881Y-88212040D01*
X58375008Y-88360378D01*
X58268822Y-88490575D01*
X58139372Y-88597665D01*
X57991586Y-88677572D01*
X57831094Y-88727253D01*
X57633695Y-88748000D01*
X43974277Y-88748000D01*
X43774796Y-88728441D01*
X43613960Y-88679881D01*
X43465622Y-88601008D01*
X43335425Y-88494822D01*
X43228335Y-88365372D01*
X43148428Y-88217586D01*
X43098747Y-88057094D01*
X43078000Y-87859695D01*
X43078000Y-87343561D01*
X45678044Y-87343561D01*
X45834040Y-87659108D01*
X46208800Y-87849901D01*
X46613582Y-87963917D01*
X47032829Y-87996772D01*
X47450431Y-87947205D01*
X47850339Y-87817121D01*
X48145960Y-87659108D01*
X48301956Y-87343561D01*
X46990000Y-86031605D01*
X45678044Y-87343561D01*
X43078000Y-87343561D01*
X43078000Y-85894829D01*
X44845228Y-85894829D01*
X44894795Y-86312431D01*
X45024879Y-86712339D01*
X45182892Y-87007960D01*
X45498439Y-87163956D01*
X46810395Y-85852000D01*
X45498439Y-84540044D01*
X45182892Y-84696040D01*
X44992099Y-85070800D01*
X44878083Y-85475582D01*
X44845228Y-85894829D01*
X43078000Y-85894829D01*
X43078000Y-84360439D01*
X45678044Y-84360439D01*
X46990000Y-85672395D01*
X48301956Y-84360439D01*
X48145960Y-84044892D01*
X47771200Y-83854099D01*
X47366418Y-83740083D01*
X46947171Y-83707228D01*
X46529569Y-83756795D01*
X46129661Y-83886879D01*
X45834040Y-84044892D01*
X45678044Y-84360439D01*
X43078000Y-84360439D01*
X43078000Y-64414061D01*
X44939000Y-64414061D01*
X44939000Y-64617939D01*
X44978774Y-64817898D01*
X45056795Y-65006256D01*
X45170063Y-65175774D01*
X45314226Y-65319937D01*
X45483744Y-65433205D01*
X45672102Y-65511226D01*
X45872061Y-65551000D01*
X45934199Y-65551000D01*
X50040001Y-69656803D01*
X50040000Y-83856036D01*
X49788760Y-83960103D01*
X49439100Y-84193738D01*
X49141738Y-84491100D01*
X48908103Y-84840760D01*
X48893416Y-84876218D01*
X48797108Y-84696040D01*
X48481561Y-84540044D01*
X47169605Y-85852000D01*
X48481561Y-87163956D01*
X48797108Y-87007960D01*
X48891362Y-86822824D01*
X48908103Y-86863240D01*
X49141738Y-87212900D01*
X49439100Y-87510262D01*
X49788760Y-87743897D01*
X50177281Y-87904828D01*
X50268492Y-87922971D01*
X50375724Y-88010974D01*
X50507753Y-88081546D01*
X50651014Y-88125003D01*
X50800000Y-88139677D01*
X50948985Y-88125003D01*
X51092246Y-88081546D01*
X51224275Y-88010974D01*
X51331508Y-87922971D01*
X51422719Y-87904828D01*
X51811240Y-87743897D01*
X52160900Y-87510262D01*
X52458262Y-87212900D01*
X52472058Y-87192253D01*
X52472058Y-87351870D01*
X52484318Y-87476352D01*
X52520628Y-87596050D01*
X52579593Y-87706364D01*
X52658945Y-87803055D01*
X52755636Y-87882407D01*
X52865950Y-87941372D01*
X52985648Y-87977682D01*
X53110130Y-87989942D01*
X56109870Y-87989942D01*
X56234352Y-87977682D01*
X56354050Y-87941372D01*
X56464364Y-87882407D01*
X56561055Y-87803055D01*
X56640407Y-87706364D01*
X56699372Y-87596050D01*
X56735682Y-87476352D01*
X56747942Y-87351870D01*
X56747942Y-84352130D01*
X56735682Y-84227648D01*
X56699372Y-84107950D01*
X56640407Y-83997636D01*
X56561055Y-83900945D01*
X56464364Y-83821593D01*
X56354050Y-83762628D01*
X56234352Y-83726318D01*
X56109870Y-83714058D01*
X53110130Y-83714058D01*
X52985648Y-83726318D01*
X52865950Y-83762628D01*
X52755636Y-83821593D01*
X52658945Y-83900945D01*
X52579593Y-83997636D01*
X52520628Y-84107950D01*
X52484318Y-84227648D01*
X52472058Y-84352130D01*
X52472058Y-84511747D01*
X52458262Y-84491100D01*
X52160900Y-84193738D01*
X51811240Y-83960103D01*
X51560000Y-83856036D01*
X51560000Y-69379325D01*
X51563676Y-69342000D01*
X51560000Y-69304675D01*
X51560000Y-69304667D01*
X51549003Y-69193014D01*
X51505546Y-69049753D01*
X51434974Y-68917724D01*
X51340001Y-68801999D01*
X51311003Y-68778201D01*
X47009000Y-64476199D01*
X47009000Y-64414061D01*
X46969226Y-64214102D01*
X46891205Y-64025744D01*
X46777937Y-63856226D01*
X46633774Y-63712063D01*
X46464256Y-63598795D01*
X46275898Y-63520774D01*
X46075939Y-63481000D01*
X45872061Y-63481000D01*
X45672102Y-63520774D01*
X45483744Y-63598795D01*
X45314226Y-63712063D01*
X45170063Y-63856226D01*
X45056795Y-64025744D01*
X44978774Y-64214102D01*
X44939000Y-64414061D01*
X43078000Y-64414061D01*
X43078000Y-56515000D01*
X45484149Y-56515000D01*
X45513084Y-56808777D01*
X45598775Y-57091264D01*
X45737931Y-57351606D01*
X45925203Y-57579797D01*
X46153394Y-57767069D01*
X46186940Y-57785000D01*
X46153394Y-57802931D01*
X45925203Y-57990203D01*
X45737931Y-58218394D01*
X45598775Y-58478736D01*
X45513084Y-58761223D01*
X45484149Y-59055000D01*
X45513084Y-59348777D01*
X45598775Y-59631264D01*
X45737931Y-59891606D01*
X45925203Y-60119797D01*
X46153394Y-60307069D01*
X46413736Y-60446225D01*
X46696223Y-60531916D01*
X46916381Y-60553600D01*
X47063619Y-60553600D01*
X47283777Y-60531916D01*
X47566264Y-60446225D01*
X47826606Y-60307069D01*
X48054797Y-60119797D01*
X48242069Y-59891606D01*
X48260000Y-59858060D01*
X48277931Y-59891606D01*
X48465203Y-60119797D01*
X48693394Y-60307069D01*
X48953736Y-60446225D01*
X49236223Y-60531916D01*
X49456381Y-60553600D01*
X49603619Y-60553600D01*
X49823777Y-60531916D01*
X50106264Y-60446225D01*
X50366606Y-60307069D01*
X50594797Y-60119797D01*
X50782069Y-59891606D01*
X50800000Y-59858060D01*
X50817931Y-59891606D01*
X51005203Y-60119797D01*
X51233394Y-60307069D01*
X51493736Y-60446225D01*
X51776223Y-60531916D01*
X51996381Y-60553600D01*
X52143619Y-60553600D01*
X52363777Y-60531916D01*
X52646264Y-60446225D01*
X52906606Y-60307069D01*
X53134797Y-60119797D01*
X53322069Y-59891606D01*
X53345863Y-59847090D01*
X53403183Y-59943488D01*
X53599707Y-60161854D01*
X53835056Y-60337684D01*
X54100186Y-60464222D01*
X54250974Y-60509958D01*
X54483000Y-60388817D01*
X54483000Y-59182000D01*
X54737000Y-59182000D01*
X54737000Y-60388817D01*
X54969026Y-60509958D01*
X55119814Y-60464222D01*
X55384944Y-60337684D01*
X55620293Y-60161854D01*
X55816817Y-59943488D01*
X55966964Y-59690978D01*
X56064963Y-59414027D01*
X55944464Y-59182000D01*
X54737000Y-59182000D01*
X54483000Y-59182000D01*
X54463000Y-59182000D01*
X54463000Y-58928000D01*
X54483000Y-58928000D01*
X54483000Y-58908000D01*
X54737000Y-58908000D01*
X54737000Y-58928000D01*
X55944464Y-58928000D01*
X56064963Y-58695973D01*
X55966964Y-58419022D01*
X55816817Y-58166512D01*
X55655308Y-57987053D01*
X55717780Y-57968102D01*
X55828094Y-57909137D01*
X55924785Y-57829785D01*
X56004137Y-57733094D01*
X56063102Y-57622780D01*
X56099412Y-57503082D01*
X56111672Y-57378600D01*
X56111672Y-55651400D01*
X56099412Y-55526918D01*
X56063102Y-55407220D01*
X56004137Y-55296906D01*
X55924785Y-55200215D01*
X55828094Y-55120863D01*
X55717780Y-55061898D01*
X55598082Y-55025588D01*
X55473600Y-55013328D01*
X53746400Y-55013328D01*
X53621918Y-55025588D01*
X53502220Y-55061898D01*
X53391906Y-55120863D01*
X53295215Y-55200215D01*
X53215863Y-55296906D01*
X53156898Y-55407220D01*
X53141414Y-55458265D01*
X53134797Y-55450203D01*
X52906606Y-55262931D01*
X52646264Y-55123775D01*
X52363777Y-55038084D01*
X52143619Y-55016400D01*
X51996381Y-55016400D01*
X51776223Y-55038084D01*
X51493736Y-55123775D01*
X51233394Y-55262931D01*
X51005203Y-55450203D01*
X50817931Y-55678394D01*
X50800000Y-55711940D01*
X50782069Y-55678394D01*
X50594797Y-55450203D01*
X50366606Y-55262931D01*
X50106264Y-55123775D01*
X49823777Y-55038084D01*
X49603619Y-55016400D01*
X49456381Y-55016400D01*
X49236223Y-55038084D01*
X48953736Y-55123775D01*
X48693394Y-55262931D01*
X48465203Y-55450203D01*
X48277931Y-55678394D01*
X48260000Y-55711940D01*
X48242069Y-55678394D01*
X48054797Y-55450203D01*
X47826606Y-55262931D01*
X47566264Y-55123775D01*
X47283777Y-55038084D01*
X47063619Y-55016400D01*
X46916381Y-55016400D01*
X46696223Y-55038084D01*
X46413736Y-55123775D01*
X46153394Y-55262931D01*
X45925203Y-55450203D01*
X45737931Y-55678394D01*
X45598775Y-55938736D01*
X45513084Y-56221223D01*
X45484149Y-56515000D01*
X43078000Y-56515000D01*
X43078000Y-55658277D01*
X43097559Y-55458800D01*
X43146120Y-55297959D01*
X43224992Y-55149622D01*
X43331176Y-55019426D01*
X43460626Y-54912336D01*
X43608414Y-54832428D01*
X43768902Y-54782748D01*
X43966306Y-54762000D01*
X57625723Y-54762000D01*
X57825200Y-54781559D01*
X57825200Y-54781559D01*
G37*
X57825200Y-54781559D02*
X57986041Y-54830120D01*
X58134378Y-54908992D01*
X58264574Y-55015176D01*
X58371664Y-55144626D01*
X58451572Y-55292414D01*
X58501252Y-55452902D01*
X58522000Y-55650306D01*
X58522001Y-87851713D01*
X58502441Y-88051204D01*
X58453881Y-88212040D01*
X58375008Y-88360378D01*
X58268822Y-88490575D01*
X58139372Y-88597665D01*
X57991586Y-88677572D01*
X57831094Y-88727253D01*
X57633695Y-88748000D01*
X43974277Y-88748000D01*
X43774796Y-88728441D01*
X43613960Y-88679881D01*
X43465622Y-88601008D01*
X43335425Y-88494822D01*
X43228335Y-88365372D01*
X43148428Y-88217586D01*
X43098747Y-88057094D01*
X43078000Y-87859695D01*
X43078000Y-87343561D01*
X45678044Y-87343561D01*
X45834040Y-87659108D01*
X46208800Y-87849901D01*
X46613582Y-87963917D01*
X47032829Y-87996772D01*
X47450431Y-87947205D01*
X47850339Y-87817121D01*
X48145960Y-87659108D01*
X48301956Y-87343561D01*
X46990000Y-86031605D01*
X45678044Y-87343561D01*
X43078000Y-87343561D01*
X43078000Y-85894829D01*
X44845228Y-85894829D01*
X44894795Y-86312431D01*
X45024879Y-86712339D01*
X45182892Y-87007960D01*
X45498439Y-87163956D01*
X46810395Y-85852000D01*
X45498439Y-84540044D01*
X45182892Y-84696040D01*
X44992099Y-85070800D01*
X44878083Y-85475582D01*
X44845228Y-85894829D01*
X43078000Y-85894829D01*
X43078000Y-84360439D01*
X45678044Y-84360439D01*
X46990000Y-85672395D01*
X48301956Y-84360439D01*
X48145960Y-84044892D01*
X47771200Y-83854099D01*
X47366418Y-83740083D01*
X46947171Y-83707228D01*
X46529569Y-83756795D01*
X46129661Y-83886879D01*
X45834040Y-84044892D01*
X45678044Y-84360439D01*
X43078000Y-84360439D01*
X43078000Y-64414061D01*
X44939000Y-64414061D01*
X44939000Y-64617939D01*
X44978774Y-64817898D01*
X45056795Y-65006256D01*
X45170063Y-65175774D01*
X45314226Y-65319937D01*
X45483744Y-65433205D01*
X45672102Y-65511226D01*
X45872061Y-65551000D01*
X45934199Y-65551000D01*
X50040001Y-69656803D01*
X50040000Y-83856036D01*
X49788760Y-83960103D01*
X49439100Y-84193738D01*
X49141738Y-84491100D01*
X48908103Y-84840760D01*
X48893416Y-84876218D01*
X48797108Y-84696040D01*
X48481561Y-84540044D01*
X47169605Y-85852000D01*
X48481561Y-87163956D01*
X48797108Y-87007960D01*
X48891362Y-86822824D01*
X48908103Y-86863240D01*
X49141738Y-87212900D01*
X49439100Y-87510262D01*
X49788760Y-87743897D01*
X50177281Y-87904828D01*
X50268492Y-87922971D01*
X50375724Y-88010974D01*
X50507753Y-88081546D01*
X50651014Y-88125003D01*
X50800000Y-88139677D01*
X50948985Y-88125003D01*
X51092246Y-88081546D01*
X51224275Y-88010974D01*
X51331508Y-87922971D01*
X51422719Y-87904828D01*
X51811240Y-87743897D01*
X52160900Y-87510262D01*
X52458262Y-87212900D01*
X52472058Y-87192253D01*
X52472058Y-87351870D01*
X52484318Y-87476352D01*
X52520628Y-87596050D01*
X52579593Y-87706364D01*
X52658945Y-87803055D01*
X52755636Y-87882407D01*
X52865950Y-87941372D01*
X52985648Y-87977682D01*
X53110130Y-87989942D01*
X56109870Y-87989942D01*
X56234352Y-87977682D01*
X56354050Y-87941372D01*
X56464364Y-87882407D01*
X56561055Y-87803055D01*
X56640407Y-87706364D01*
X56699372Y-87596050D01*
X56735682Y-87476352D01*
X56747942Y-87351870D01*
X56747942Y-84352130D01*
X56735682Y-84227648D01*
X56699372Y-84107950D01*
X56640407Y-83997636D01*
X56561055Y-83900945D01*
X56464364Y-83821593D01*
X56354050Y-83762628D01*
X56234352Y-83726318D01*
X56109870Y-83714058D01*
X53110130Y-83714058D01*
X52985648Y-83726318D01*
X52865950Y-83762628D01*
X52755636Y-83821593D01*
X52658945Y-83900945D01*
X52579593Y-83997636D01*
X52520628Y-84107950D01*
X52484318Y-84227648D01*
X52472058Y-84352130D01*
X52472058Y-84511747D01*
X52458262Y-84491100D01*
X52160900Y-84193738D01*
X51811240Y-83960103D01*
X51560000Y-83856036D01*
X51560000Y-69379325D01*
X51563676Y-69342000D01*
X51560000Y-69304675D01*
X51560000Y-69304667D01*
X51549003Y-69193014D01*
X51505546Y-69049753D01*
X51434974Y-68917724D01*
X51340001Y-68801999D01*
X51311003Y-68778201D01*
X47009000Y-64476199D01*
X47009000Y-64414061D01*
X46969226Y-64214102D01*
X46891205Y-64025744D01*
X46777937Y-63856226D01*
X46633774Y-63712063D01*
X46464256Y-63598795D01*
X46275898Y-63520774D01*
X46075939Y-63481000D01*
X45872061Y-63481000D01*
X45672102Y-63520774D01*
X45483744Y-63598795D01*
X45314226Y-63712063D01*
X45170063Y-63856226D01*
X45056795Y-64025744D01*
X44978774Y-64214102D01*
X44939000Y-64414061D01*
X43078000Y-64414061D01*
X43078000Y-56515000D01*
X45484149Y-56515000D01*
X45513084Y-56808777D01*
X45598775Y-57091264D01*
X45737931Y-57351606D01*
X45925203Y-57579797D01*
X46153394Y-57767069D01*
X46186940Y-57785000D01*
X46153394Y-57802931D01*
X45925203Y-57990203D01*
X45737931Y-58218394D01*
X45598775Y-58478736D01*
X45513084Y-58761223D01*
X45484149Y-59055000D01*
X45513084Y-59348777D01*
X45598775Y-59631264D01*
X45737931Y-59891606D01*
X45925203Y-60119797D01*
X46153394Y-60307069D01*
X46413736Y-60446225D01*
X46696223Y-60531916D01*
X46916381Y-60553600D01*
X47063619Y-60553600D01*
X47283777Y-60531916D01*
X47566264Y-60446225D01*
X47826606Y-60307069D01*
X48054797Y-60119797D01*
X48242069Y-59891606D01*
X48260000Y-59858060D01*
X48277931Y-59891606D01*
X48465203Y-60119797D01*
X48693394Y-60307069D01*
X48953736Y-60446225D01*
X49236223Y-60531916D01*
X49456381Y-60553600D01*
X49603619Y-60553600D01*
X49823777Y-60531916D01*
X50106264Y-60446225D01*
X50366606Y-60307069D01*
X50594797Y-60119797D01*
X50782069Y-59891606D01*
X50800000Y-59858060D01*
X50817931Y-59891606D01*
X51005203Y-60119797D01*
X51233394Y-60307069D01*
X51493736Y-60446225D01*
X51776223Y-60531916D01*
X51996381Y-60553600D01*
X52143619Y-60553600D01*
X52363777Y-60531916D01*
X52646264Y-60446225D01*
X52906606Y-60307069D01*
X53134797Y-60119797D01*
X53322069Y-59891606D01*
X53345863Y-59847090D01*
X53403183Y-59943488D01*
X53599707Y-60161854D01*
X53835056Y-60337684D01*
X54100186Y-60464222D01*
X54250974Y-60509958D01*
X54483000Y-60388817D01*
X54483000Y-59182000D01*
X54737000Y-59182000D01*
X54737000Y-60388817D01*
X54969026Y-60509958D01*
X55119814Y-60464222D01*
X55384944Y-60337684D01*
X55620293Y-60161854D01*
X55816817Y-59943488D01*
X55966964Y-59690978D01*
X56064963Y-59414027D01*
X55944464Y-59182000D01*
X54737000Y-59182000D01*
X54483000Y-59182000D01*
X54463000Y-59182000D01*
X54463000Y-58928000D01*
X54483000Y-58928000D01*
X54483000Y-58908000D01*
X54737000Y-58908000D01*
X54737000Y-58928000D01*
X55944464Y-58928000D01*
X56064963Y-58695973D01*
X55966964Y-58419022D01*
X55816817Y-58166512D01*
X55655308Y-57987053D01*
X55717780Y-57968102D01*
X55828094Y-57909137D01*
X55924785Y-57829785D01*
X56004137Y-57733094D01*
X56063102Y-57622780D01*
X56099412Y-57503082D01*
X56111672Y-57378600D01*
X56111672Y-55651400D01*
X56099412Y-55526918D01*
X56063102Y-55407220D01*
X56004137Y-55296906D01*
X55924785Y-55200215D01*
X55828094Y-55120863D01*
X55717780Y-55061898D01*
X55598082Y-55025588D01*
X55473600Y-55013328D01*
X53746400Y-55013328D01*
X53621918Y-55025588D01*
X53502220Y-55061898D01*
X53391906Y-55120863D01*
X53295215Y-55200215D01*
X53215863Y-55296906D01*
X53156898Y-55407220D01*
X53141414Y-55458265D01*
X53134797Y-55450203D01*
X52906606Y-55262931D01*
X52646264Y-55123775D01*
X52363777Y-55038084D01*
X52143619Y-55016400D01*
X51996381Y-55016400D01*
X51776223Y-55038084D01*
X51493736Y-55123775D01*
X51233394Y-55262931D01*
X51005203Y-55450203D01*
X50817931Y-55678394D01*
X50800000Y-55711940D01*
X50782069Y-55678394D01*
X50594797Y-55450203D01*
X50366606Y-55262931D01*
X50106264Y-55123775D01*
X49823777Y-55038084D01*
X49603619Y-55016400D01*
X49456381Y-55016400D01*
X49236223Y-55038084D01*
X48953736Y-55123775D01*
X48693394Y-55262931D01*
X48465203Y-55450203D01*
X48277931Y-55678394D01*
X48260000Y-55711940D01*
X48242069Y-55678394D01*
X48054797Y-55450203D01*
X47826606Y-55262931D01*
X47566264Y-55123775D01*
X47283777Y-55038084D01*
X47063619Y-55016400D01*
X46916381Y-55016400D01*
X46696223Y-55038084D01*
X46413736Y-55123775D01*
X46153394Y-55262931D01*
X45925203Y-55450203D01*
X45737931Y-55678394D01*
X45598775Y-55938736D01*
X45513084Y-56221223D01*
X45484149Y-56515000D01*
X43078000Y-56515000D01*
X43078000Y-55658277D01*
X43097559Y-55458800D01*
X43146120Y-55297959D01*
X43224992Y-55149622D01*
X43331176Y-55019426D01*
X43460626Y-54912336D01*
X43608414Y-54832428D01*
X43768902Y-54782748D01*
X43966306Y-54762000D01*
X57625723Y-54762000D01*
X57825200Y-54781559D01*
M02*
