G04 #@! TF.GenerationSoftware,KiCad,Pcbnew,(5.1.2-1)-1*
G04 #@! TF.CreationDate,2019-12-06T11:21:49-08:00*
G04 #@! TF.ProjectId,pixel-stick,70697865-6c2d-4737-9469-636b2e6b6963,rev?*
G04 #@! TF.SameCoordinates,Original*
G04 #@! TF.FileFunction,Copper,L1,Top*
G04 #@! TF.FilePolarity,Positive*
%FSLAX46Y46*%
G04 Gerber Fmt 4.6, Leading zero omitted, Abs format (unit mm)*
G04 Created by KiCad (PCBNEW (5.1.2-1)-1) date 2019-12-06 11:21:49*
%MOMM*%
%LPD*%
G04 APERTURE LIST*
%ADD10C,2.499360*%
%ADD11R,2.499360X2.499360*%
%ADD12O,1.700000X1.700000*%
%ADD13R,1.700000X1.700000*%
%ADD14R,0.650000X1.060000*%
%ADD15R,1.060000X0.650000*%
%ADD16R,1.500000X2.000000*%
%ADD17R,3.800000X2.000000*%
%ADD18C,0.100000*%
%ADD19C,0.975000*%
%ADD20C,1.250000*%
%ADD21C,2.500000*%
%ADD22C,0.800000*%
%ADD23C,0.250000*%
%ADD24C,0.500000*%
%ADD25C,1.000000*%
%ADD26C,0.254000*%
G04 APERTURE END LIST*
D10*
X45212000Y-87249000D03*
X49022000Y-87249000D03*
X52832000Y-87249000D03*
D11*
X56642000Y-87249000D03*
D12*
X46990000Y-59055000D03*
X46990000Y-56515000D03*
X49530000Y-59055000D03*
X49530000Y-56515000D03*
X52070000Y-59055000D03*
X52070000Y-56515000D03*
X54610000Y-59055000D03*
D13*
X54610000Y-56515000D03*
D14*
X46035000Y-71374000D03*
X46985000Y-71374000D03*
X45085000Y-71374000D03*
X45085000Y-69174000D03*
X46035000Y-69174000D03*
X46985000Y-69174000D03*
D15*
X48768000Y-63500000D03*
X48768000Y-64450000D03*
X48768000Y-62550000D03*
X50968000Y-62550000D03*
X50968000Y-63500000D03*
X50968000Y-64450000D03*
D16*
X52310000Y-74270000D03*
X56910000Y-74270000D03*
X54610000Y-74270000D03*
D17*
X54610000Y-67970000D03*
D18*
G36*
X56655642Y-64325174D02*
G01*
X56679303Y-64328684D01*
X56702507Y-64334496D01*
X56725029Y-64342554D01*
X56746653Y-64352782D01*
X56767170Y-64365079D01*
X56786383Y-64379329D01*
X56804107Y-64395393D01*
X56820171Y-64413117D01*
X56834421Y-64432330D01*
X56846718Y-64452847D01*
X56856946Y-64474471D01*
X56865004Y-64496993D01*
X56870816Y-64520197D01*
X56874326Y-64543858D01*
X56875500Y-64567750D01*
X56875500Y-65480250D01*
X56874326Y-65504142D01*
X56870816Y-65527803D01*
X56865004Y-65551007D01*
X56856946Y-65573529D01*
X56846718Y-65595153D01*
X56834421Y-65615670D01*
X56820171Y-65634883D01*
X56804107Y-65652607D01*
X56786383Y-65668671D01*
X56767170Y-65682921D01*
X56746653Y-65695218D01*
X56725029Y-65705446D01*
X56702507Y-65713504D01*
X56679303Y-65719316D01*
X56655642Y-65722826D01*
X56631750Y-65724000D01*
X56144250Y-65724000D01*
X56120358Y-65722826D01*
X56096697Y-65719316D01*
X56073493Y-65713504D01*
X56050971Y-65705446D01*
X56029347Y-65695218D01*
X56008830Y-65682921D01*
X55989617Y-65668671D01*
X55971893Y-65652607D01*
X55955829Y-65634883D01*
X55941579Y-65615670D01*
X55929282Y-65595153D01*
X55919054Y-65573529D01*
X55910996Y-65551007D01*
X55905184Y-65527803D01*
X55901674Y-65504142D01*
X55900500Y-65480250D01*
X55900500Y-64567750D01*
X55901674Y-64543858D01*
X55905184Y-64520197D01*
X55910996Y-64496993D01*
X55919054Y-64474471D01*
X55929282Y-64452847D01*
X55941579Y-64432330D01*
X55955829Y-64413117D01*
X55971893Y-64395393D01*
X55989617Y-64379329D01*
X56008830Y-64365079D01*
X56029347Y-64352782D01*
X56050971Y-64342554D01*
X56073493Y-64334496D01*
X56096697Y-64328684D01*
X56120358Y-64325174D01*
X56144250Y-64324000D01*
X56631750Y-64324000D01*
X56655642Y-64325174D01*
X56655642Y-64325174D01*
G37*
D19*
X56388000Y-65024000D03*
D18*
G36*
X54780642Y-64325174D02*
G01*
X54804303Y-64328684D01*
X54827507Y-64334496D01*
X54850029Y-64342554D01*
X54871653Y-64352782D01*
X54892170Y-64365079D01*
X54911383Y-64379329D01*
X54929107Y-64395393D01*
X54945171Y-64413117D01*
X54959421Y-64432330D01*
X54971718Y-64452847D01*
X54981946Y-64474471D01*
X54990004Y-64496993D01*
X54995816Y-64520197D01*
X54999326Y-64543858D01*
X55000500Y-64567750D01*
X55000500Y-65480250D01*
X54999326Y-65504142D01*
X54995816Y-65527803D01*
X54990004Y-65551007D01*
X54981946Y-65573529D01*
X54971718Y-65595153D01*
X54959421Y-65615670D01*
X54945171Y-65634883D01*
X54929107Y-65652607D01*
X54911383Y-65668671D01*
X54892170Y-65682921D01*
X54871653Y-65695218D01*
X54850029Y-65705446D01*
X54827507Y-65713504D01*
X54804303Y-65719316D01*
X54780642Y-65722826D01*
X54756750Y-65724000D01*
X54269250Y-65724000D01*
X54245358Y-65722826D01*
X54221697Y-65719316D01*
X54198493Y-65713504D01*
X54175971Y-65705446D01*
X54154347Y-65695218D01*
X54133830Y-65682921D01*
X54114617Y-65668671D01*
X54096893Y-65652607D01*
X54080829Y-65634883D01*
X54066579Y-65615670D01*
X54054282Y-65595153D01*
X54044054Y-65573529D01*
X54035996Y-65551007D01*
X54030184Y-65527803D01*
X54026674Y-65504142D01*
X54025500Y-65480250D01*
X54025500Y-64567750D01*
X54026674Y-64543858D01*
X54030184Y-64520197D01*
X54035996Y-64496993D01*
X54044054Y-64474471D01*
X54054282Y-64452847D01*
X54066579Y-64432330D01*
X54080829Y-64413117D01*
X54096893Y-64395393D01*
X54114617Y-64379329D01*
X54133830Y-64365079D01*
X54154347Y-64352782D01*
X54175971Y-64342554D01*
X54198493Y-64334496D01*
X54221697Y-64328684D01*
X54245358Y-64325174D01*
X54269250Y-64324000D01*
X54756750Y-64324000D01*
X54780642Y-64325174D01*
X54780642Y-64325174D01*
G37*
D19*
X54513000Y-65024000D03*
D18*
G36*
X57164504Y-81031204D02*
G01*
X57188773Y-81034804D01*
X57212571Y-81040765D01*
X57235671Y-81049030D01*
X57257849Y-81059520D01*
X57278893Y-81072133D01*
X57298598Y-81086747D01*
X57316777Y-81103223D01*
X57333253Y-81121402D01*
X57347867Y-81141107D01*
X57360480Y-81162151D01*
X57370970Y-81184329D01*
X57379235Y-81207429D01*
X57385196Y-81231227D01*
X57388796Y-81255496D01*
X57390000Y-81280000D01*
X57390000Y-82030000D01*
X57388796Y-82054504D01*
X57385196Y-82078773D01*
X57379235Y-82102571D01*
X57370970Y-82125671D01*
X57360480Y-82147849D01*
X57347867Y-82168893D01*
X57333253Y-82188598D01*
X57316777Y-82206777D01*
X57298598Y-82223253D01*
X57278893Y-82237867D01*
X57257849Y-82250480D01*
X57235671Y-82260970D01*
X57212571Y-82269235D01*
X57188773Y-82275196D01*
X57164504Y-82278796D01*
X57140000Y-82280000D01*
X55890000Y-82280000D01*
X55865496Y-82278796D01*
X55841227Y-82275196D01*
X55817429Y-82269235D01*
X55794329Y-82260970D01*
X55772151Y-82250480D01*
X55751107Y-82237867D01*
X55731402Y-82223253D01*
X55713223Y-82206777D01*
X55696747Y-82188598D01*
X55682133Y-82168893D01*
X55669520Y-82147849D01*
X55659030Y-82125671D01*
X55650765Y-82102571D01*
X55644804Y-82078773D01*
X55641204Y-82054504D01*
X55640000Y-82030000D01*
X55640000Y-81280000D01*
X55641204Y-81255496D01*
X55644804Y-81231227D01*
X55650765Y-81207429D01*
X55659030Y-81184329D01*
X55669520Y-81162151D01*
X55682133Y-81141107D01*
X55696747Y-81121402D01*
X55713223Y-81103223D01*
X55731402Y-81086747D01*
X55751107Y-81072133D01*
X55772151Y-81059520D01*
X55794329Y-81049030D01*
X55817429Y-81040765D01*
X55841227Y-81034804D01*
X55865496Y-81031204D01*
X55890000Y-81030000D01*
X57140000Y-81030000D01*
X57164504Y-81031204D01*
X57164504Y-81031204D01*
G37*
D20*
X56515000Y-81655000D03*
D18*
G36*
X57164504Y-83831204D02*
G01*
X57188773Y-83834804D01*
X57212571Y-83840765D01*
X57235671Y-83849030D01*
X57257849Y-83859520D01*
X57278893Y-83872133D01*
X57298598Y-83886747D01*
X57316777Y-83903223D01*
X57333253Y-83921402D01*
X57347867Y-83941107D01*
X57360480Y-83962151D01*
X57370970Y-83984329D01*
X57379235Y-84007429D01*
X57385196Y-84031227D01*
X57388796Y-84055496D01*
X57390000Y-84080000D01*
X57390000Y-84830000D01*
X57388796Y-84854504D01*
X57385196Y-84878773D01*
X57379235Y-84902571D01*
X57370970Y-84925671D01*
X57360480Y-84947849D01*
X57347867Y-84968893D01*
X57333253Y-84988598D01*
X57316777Y-85006777D01*
X57298598Y-85023253D01*
X57278893Y-85037867D01*
X57257849Y-85050480D01*
X57235671Y-85060970D01*
X57212571Y-85069235D01*
X57188773Y-85075196D01*
X57164504Y-85078796D01*
X57140000Y-85080000D01*
X55890000Y-85080000D01*
X55865496Y-85078796D01*
X55841227Y-85075196D01*
X55817429Y-85069235D01*
X55794329Y-85060970D01*
X55772151Y-85050480D01*
X55751107Y-85037867D01*
X55731402Y-85023253D01*
X55713223Y-85006777D01*
X55696747Y-84988598D01*
X55682133Y-84968893D01*
X55669520Y-84947849D01*
X55659030Y-84925671D01*
X55650765Y-84902571D01*
X55644804Y-84878773D01*
X55641204Y-84854504D01*
X55640000Y-84830000D01*
X55640000Y-84080000D01*
X55641204Y-84055496D01*
X55644804Y-84031227D01*
X55650765Y-84007429D01*
X55659030Y-83984329D01*
X55669520Y-83962151D01*
X55682133Y-83941107D01*
X55696747Y-83921402D01*
X55713223Y-83903223D01*
X55731402Y-83886747D01*
X55751107Y-83872133D01*
X55772151Y-83859520D01*
X55794329Y-83849030D01*
X55817429Y-83840765D01*
X55841227Y-83834804D01*
X55865496Y-83831204D01*
X55890000Y-83830000D01*
X57140000Y-83830000D01*
X57164504Y-83831204D01*
X57164504Y-83831204D01*
G37*
D20*
X56515000Y-84455000D03*
D18*
G36*
X47744504Y-79396204D02*
G01*
X47768773Y-79399804D01*
X47792571Y-79405765D01*
X47815671Y-79414030D01*
X47837849Y-79424520D01*
X47858893Y-79437133D01*
X47878598Y-79451747D01*
X47896777Y-79468223D01*
X47913253Y-79486402D01*
X47927867Y-79506107D01*
X47940480Y-79527151D01*
X47950970Y-79549329D01*
X47959235Y-79572429D01*
X47965196Y-79596227D01*
X47968796Y-79620496D01*
X47970000Y-79645000D01*
X47970000Y-81645000D01*
X47968796Y-81669504D01*
X47965196Y-81693773D01*
X47959235Y-81717571D01*
X47950970Y-81740671D01*
X47940480Y-81762849D01*
X47927867Y-81783893D01*
X47913253Y-81803598D01*
X47896777Y-81821777D01*
X47878598Y-81838253D01*
X47858893Y-81852867D01*
X47837849Y-81865480D01*
X47815671Y-81875970D01*
X47792571Y-81884235D01*
X47768773Y-81890196D01*
X47744504Y-81893796D01*
X47720000Y-81895000D01*
X44220000Y-81895000D01*
X44195496Y-81893796D01*
X44171227Y-81890196D01*
X44147429Y-81884235D01*
X44124329Y-81875970D01*
X44102151Y-81865480D01*
X44081107Y-81852867D01*
X44061402Y-81838253D01*
X44043223Y-81821777D01*
X44026747Y-81803598D01*
X44012133Y-81783893D01*
X43999520Y-81762849D01*
X43989030Y-81740671D01*
X43980765Y-81717571D01*
X43974804Y-81693773D01*
X43971204Y-81669504D01*
X43970000Y-81645000D01*
X43970000Y-79645000D01*
X43971204Y-79620496D01*
X43974804Y-79596227D01*
X43980765Y-79572429D01*
X43989030Y-79549329D01*
X43999520Y-79527151D01*
X44012133Y-79506107D01*
X44026747Y-79486402D01*
X44043223Y-79468223D01*
X44061402Y-79451747D01*
X44081107Y-79437133D01*
X44102151Y-79424520D01*
X44124329Y-79414030D01*
X44147429Y-79405765D01*
X44171227Y-79399804D01*
X44195496Y-79396204D01*
X44220000Y-79395000D01*
X47720000Y-79395000D01*
X47744504Y-79396204D01*
X47744504Y-79396204D01*
G37*
D21*
X45970000Y-80645000D03*
D18*
G36*
X53844504Y-79396204D02*
G01*
X53868773Y-79399804D01*
X53892571Y-79405765D01*
X53915671Y-79414030D01*
X53937849Y-79424520D01*
X53958893Y-79437133D01*
X53978598Y-79451747D01*
X53996777Y-79468223D01*
X54013253Y-79486402D01*
X54027867Y-79506107D01*
X54040480Y-79527151D01*
X54050970Y-79549329D01*
X54059235Y-79572429D01*
X54065196Y-79596227D01*
X54068796Y-79620496D01*
X54070000Y-79645000D01*
X54070000Y-81645000D01*
X54068796Y-81669504D01*
X54065196Y-81693773D01*
X54059235Y-81717571D01*
X54050970Y-81740671D01*
X54040480Y-81762849D01*
X54027867Y-81783893D01*
X54013253Y-81803598D01*
X53996777Y-81821777D01*
X53978598Y-81838253D01*
X53958893Y-81852867D01*
X53937849Y-81865480D01*
X53915671Y-81875970D01*
X53892571Y-81884235D01*
X53868773Y-81890196D01*
X53844504Y-81893796D01*
X53820000Y-81895000D01*
X50320000Y-81895000D01*
X50295496Y-81893796D01*
X50271227Y-81890196D01*
X50247429Y-81884235D01*
X50224329Y-81875970D01*
X50202151Y-81865480D01*
X50181107Y-81852867D01*
X50161402Y-81838253D01*
X50143223Y-81821777D01*
X50126747Y-81803598D01*
X50112133Y-81783893D01*
X50099520Y-81762849D01*
X50089030Y-81740671D01*
X50080765Y-81717571D01*
X50074804Y-81693773D01*
X50071204Y-81669504D01*
X50070000Y-81645000D01*
X50070000Y-79645000D01*
X50071204Y-79620496D01*
X50074804Y-79596227D01*
X50080765Y-79572429D01*
X50089030Y-79549329D01*
X50099520Y-79527151D01*
X50112133Y-79506107D01*
X50126747Y-79486402D01*
X50143223Y-79468223D01*
X50161402Y-79451747D01*
X50181107Y-79437133D01*
X50202151Y-79424520D01*
X50224329Y-79414030D01*
X50247429Y-79405765D01*
X50271227Y-79399804D01*
X50295496Y-79396204D01*
X50320000Y-79395000D01*
X53820000Y-79395000D01*
X53844504Y-79396204D01*
X53844504Y-79396204D01*
G37*
D21*
X52070000Y-80645000D03*
D18*
G36*
X45382642Y-65849174D02*
G01*
X45406303Y-65852684D01*
X45429507Y-65858496D01*
X45452029Y-65866554D01*
X45473653Y-65876782D01*
X45494170Y-65889079D01*
X45513383Y-65903329D01*
X45531107Y-65919393D01*
X45547171Y-65937117D01*
X45561421Y-65956330D01*
X45573718Y-65976847D01*
X45583946Y-65998471D01*
X45592004Y-66020993D01*
X45597816Y-66044197D01*
X45601326Y-66067858D01*
X45602500Y-66091750D01*
X45602500Y-67004250D01*
X45601326Y-67028142D01*
X45597816Y-67051803D01*
X45592004Y-67075007D01*
X45583946Y-67097529D01*
X45573718Y-67119153D01*
X45561421Y-67139670D01*
X45547171Y-67158883D01*
X45531107Y-67176607D01*
X45513383Y-67192671D01*
X45494170Y-67206921D01*
X45473653Y-67219218D01*
X45452029Y-67229446D01*
X45429507Y-67237504D01*
X45406303Y-67243316D01*
X45382642Y-67246826D01*
X45358750Y-67248000D01*
X44871250Y-67248000D01*
X44847358Y-67246826D01*
X44823697Y-67243316D01*
X44800493Y-67237504D01*
X44777971Y-67229446D01*
X44756347Y-67219218D01*
X44735830Y-67206921D01*
X44716617Y-67192671D01*
X44698893Y-67176607D01*
X44682829Y-67158883D01*
X44668579Y-67139670D01*
X44656282Y-67119153D01*
X44646054Y-67097529D01*
X44637996Y-67075007D01*
X44632184Y-67051803D01*
X44628674Y-67028142D01*
X44627500Y-67004250D01*
X44627500Y-66091750D01*
X44628674Y-66067858D01*
X44632184Y-66044197D01*
X44637996Y-66020993D01*
X44646054Y-65998471D01*
X44656282Y-65976847D01*
X44668579Y-65956330D01*
X44682829Y-65937117D01*
X44698893Y-65919393D01*
X44716617Y-65903329D01*
X44735830Y-65889079D01*
X44756347Y-65876782D01*
X44777971Y-65866554D01*
X44800493Y-65858496D01*
X44823697Y-65852684D01*
X44847358Y-65849174D01*
X44871250Y-65848000D01*
X45358750Y-65848000D01*
X45382642Y-65849174D01*
X45382642Y-65849174D01*
G37*
D19*
X45115000Y-66548000D03*
D18*
G36*
X47257642Y-65849174D02*
G01*
X47281303Y-65852684D01*
X47304507Y-65858496D01*
X47327029Y-65866554D01*
X47348653Y-65876782D01*
X47369170Y-65889079D01*
X47388383Y-65903329D01*
X47406107Y-65919393D01*
X47422171Y-65937117D01*
X47436421Y-65956330D01*
X47448718Y-65976847D01*
X47458946Y-65998471D01*
X47467004Y-66020993D01*
X47472816Y-66044197D01*
X47476326Y-66067858D01*
X47477500Y-66091750D01*
X47477500Y-67004250D01*
X47476326Y-67028142D01*
X47472816Y-67051803D01*
X47467004Y-67075007D01*
X47458946Y-67097529D01*
X47448718Y-67119153D01*
X47436421Y-67139670D01*
X47422171Y-67158883D01*
X47406107Y-67176607D01*
X47388383Y-67192671D01*
X47369170Y-67206921D01*
X47348653Y-67219218D01*
X47327029Y-67229446D01*
X47304507Y-67237504D01*
X47281303Y-67243316D01*
X47257642Y-67246826D01*
X47233750Y-67248000D01*
X46746250Y-67248000D01*
X46722358Y-67246826D01*
X46698697Y-67243316D01*
X46675493Y-67237504D01*
X46652971Y-67229446D01*
X46631347Y-67219218D01*
X46610830Y-67206921D01*
X46591617Y-67192671D01*
X46573893Y-67176607D01*
X46557829Y-67158883D01*
X46543579Y-67139670D01*
X46531282Y-67119153D01*
X46521054Y-67097529D01*
X46512996Y-67075007D01*
X46507184Y-67051803D01*
X46503674Y-67028142D01*
X46502500Y-67004250D01*
X46502500Y-66091750D01*
X46503674Y-66067858D01*
X46507184Y-66044197D01*
X46512996Y-66020993D01*
X46521054Y-65998471D01*
X46531282Y-65976847D01*
X46543579Y-65956330D01*
X46557829Y-65937117D01*
X46573893Y-65919393D01*
X46591617Y-65903329D01*
X46610830Y-65889079D01*
X46631347Y-65876782D01*
X46652971Y-65866554D01*
X46675493Y-65858496D01*
X46698697Y-65852684D01*
X46722358Y-65849174D01*
X46746250Y-65848000D01*
X47233750Y-65848000D01*
X47257642Y-65849174D01*
X47257642Y-65849174D01*
G37*
D19*
X46990000Y-66548000D03*
D18*
G36*
X45382642Y-73215174D02*
G01*
X45406303Y-73218684D01*
X45429507Y-73224496D01*
X45452029Y-73232554D01*
X45473653Y-73242782D01*
X45494170Y-73255079D01*
X45513383Y-73269329D01*
X45531107Y-73285393D01*
X45547171Y-73303117D01*
X45561421Y-73322330D01*
X45573718Y-73342847D01*
X45583946Y-73364471D01*
X45592004Y-73386993D01*
X45597816Y-73410197D01*
X45601326Y-73433858D01*
X45602500Y-73457750D01*
X45602500Y-74370250D01*
X45601326Y-74394142D01*
X45597816Y-74417803D01*
X45592004Y-74441007D01*
X45583946Y-74463529D01*
X45573718Y-74485153D01*
X45561421Y-74505670D01*
X45547171Y-74524883D01*
X45531107Y-74542607D01*
X45513383Y-74558671D01*
X45494170Y-74572921D01*
X45473653Y-74585218D01*
X45452029Y-74595446D01*
X45429507Y-74603504D01*
X45406303Y-74609316D01*
X45382642Y-74612826D01*
X45358750Y-74614000D01*
X44871250Y-74614000D01*
X44847358Y-74612826D01*
X44823697Y-74609316D01*
X44800493Y-74603504D01*
X44777971Y-74595446D01*
X44756347Y-74585218D01*
X44735830Y-74572921D01*
X44716617Y-74558671D01*
X44698893Y-74542607D01*
X44682829Y-74524883D01*
X44668579Y-74505670D01*
X44656282Y-74485153D01*
X44646054Y-74463529D01*
X44637996Y-74441007D01*
X44632184Y-74417803D01*
X44628674Y-74394142D01*
X44627500Y-74370250D01*
X44627500Y-73457750D01*
X44628674Y-73433858D01*
X44632184Y-73410197D01*
X44637996Y-73386993D01*
X44646054Y-73364471D01*
X44656282Y-73342847D01*
X44668579Y-73322330D01*
X44682829Y-73303117D01*
X44698893Y-73285393D01*
X44716617Y-73269329D01*
X44735830Y-73255079D01*
X44756347Y-73242782D01*
X44777971Y-73232554D01*
X44800493Y-73224496D01*
X44823697Y-73218684D01*
X44847358Y-73215174D01*
X44871250Y-73214000D01*
X45358750Y-73214000D01*
X45382642Y-73215174D01*
X45382642Y-73215174D01*
G37*
D19*
X45115000Y-73914000D03*
D18*
G36*
X47257642Y-73215174D02*
G01*
X47281303Y-73218684D01*
X47304507Y-73224496D01*
X47327029Y-73232554D01*
X47348653Y-73242782D01*
X47369170Y-73255079D01*
X47388383Y-73269329D01*
X47406107Y-73285393D01*
X47422171Y-73303117D01*
X47436421Y-73322330D01*
X47448718Y-73342847D01*
X47458946Y-73364471D01*
X47467004Y-73386993D01*
X47472816Y-73410197D01*
X47476326Y-73433858D01*
X47477500Y-73457750D01*
X47477500Y-74370250D01*
X47476326Y-74394142D01*
X47472816Y-74417803D01*
X47467004Y-74441007D01*
X47458946Y-74463529D01*
X47448718Y-74485153D01*
X47436421Y-74505670D01*
X47422171Y-74524883D01*
X47406107Y-74542607D01*
X47388383Y-74558671D01*
X47369170Y-74572921D01*
X47348653Y-74585218D01*
X47327029Y-74595446D01*
X47304507Y-74603504D01*
X47281303Y-74609316D01*
X47257642Y-74612826D01*
X47233750Y-74614000D01*
X46746250Y-74614000D01*
X46722358Y-74612826D01*
X46698697Y-74609316D01*
X46675493Y-74603504D01*
X46652971Y-74595446D01*
X46631347Y-74585218D01*
X46610830Y-74572921D01*
X46591617Y-74558671D01*
X46573893Y-74542607D01*
X46557829Y-74524883D01*
X46543579Y-74505670D01*
X46531282Y-74485153D01*
X46521054Y-74463529D01*
X46512996Y-74441007D01*
X46507184Y-74417803D01*
X46503674Y-74394142D01*
X46502500Y-74370250D01*
X46502500Y-73457750D01*
X46503674Y-73433858D01*
X46507184Y-73410197D01*
X46512996Y-73386993D01*
X46521054Y-73364471D01*
X46531282Y-73342847D01*
X46543579Y-73322330D01*
X46557829Y-73303117D01*
X46573893Y-73285393D01*
X46591617Y-73269329D01*
X46610830Y-73255079D01*
X46631347Y-73242782D01*
X46652971Y-73232554D01*
X46675493Y-73224496D01*
X46698697Y-73218684D01*
X46722358Y-73215174D01*
X46746250Y-73214000D01*
X47233750Y-73214000D01*
X47257642Y-73215174D01*
X47257642Y-73215174D01*
G37*
D19*
X46990000Y-73914000D03*
D18*
G36*
X50010142Y-68093674D02*
G01*
X50033803Y-68097184D01*
X50057007Y-68102996D01*
X50079529Y-68111054D01*
X50101153Y-68121282D01*
X50121670Y-68133579D01*
X50140883Y-68147829D01*
X50158607Y-68163893D01*
X50174671Y-68181617D01*
X50188921Y-68200830D01*
X50201218Y-68221347D01*
X50211446Y-68242971D01*
X50219504Y-68265493D01*
X50225316Y-68288697D01*
X50228826Y-68312358D01*
X50230000Y-68336250D01*
X50230000Y-68823750D01*
X50228826Y-68847642D01*
X50225316Y-68871303D01*
X50219504Y-68894507D01*
X50211446Y-68917029D01*
X50201218Y-68938653D01*
X50188921Y-68959170D01*
X50174671Y-68978383D01*
X50158607Y-68996107D01*
X50140883Y-69012171D01*
X50121670Y-69026421D01*
X50101153Y-69038718D01*
X50079529Y-69048946D01*
X50057007Y-69057004D01*
X50033803Y-69062816D01*
X50010142Y-69066326D01*
X49986250Y-69067500D01*
X49073750Y-69067500D01*
X49049858Y-69066326D01*
X49026197Y-69062816D01*
X49002993Y-69057004D01*
X48980471Y-69048946D01*
X48958847Y-69038718D01*
X48938330Y-69026421D01*
X48919117Y-69012171D01*
X48901393Y-68996107D01*
X48885329Y-68978383D01*
X48871079Y-68959170D01*
X48858782Y-68938653D01*
X48848554Y-68917029D01*
X48840496Y-68894507D01*
X48834684Y-68871303D01*
X48831174Y-68847642D01*
X48830000Y-68823750D01*
X48830000Y-68336250D01*
X48831174Y-68312358D01*
X48834684Y-68288697D01*
X48840496Y-68265493D01*
X48848554Y-68242971D01*
X48858782Y-68221347D01*
X48871079Y-68200830D01*
X48885329Y-68181617D01*
X48901393Y-68163893D01*
X48919117Y-68147829D01*
X48938330Y-68133579D01*
X48958847Y-68121282D01*
X48980471Y-68111054D01*
X49002993Y-68102996D01*
X49026197Y-68097184D01*
X49049858Y-68093674D01*
X49073750Y-68092500D01*
X49986250Y-68092500D01*
X50010142Y-68093674D01*
X50010142Y-68093674D01*
G37*
D19*
X49530000Y-68580000D03*
D18*
G36*
X50010142Y-69968674D02*
G01*
X50033803Y-69972184D01*
X50057007Y-69977996D01*
X50079529Y-69986054D01*
X50101153Y-69996282D01*
X50121670Y-70008579D01*
X50140883Y-70022829D01*
X50158607Y-70038893D01*
X50174671Y-70056617D01*
X50188921Y-70075830D01*
X50201218Y-70096347D01*
X50211446Y-70117971D01*
X50219504Y-70140493D01*
X50225316Y-70163697D01*
X50228826Y-70187358D01*
X50230000Y-70211250D01*
X50230000Y-70698750D01*
X50228826Y-70722642D01*
X50225316Y-70746303D01*
X50219504Y-70769507D01*
X50211446Y-70792029D01*
X50201218Y-70813653D01*
X50188921Y-70834170D01*
X50174671Y-70853383D01*
X50158607Y-70871107D01*
X50140883Y-70887171D01*
X50121670Y-70901421D01*
X50101153Y-70913718D01*
X50079529Y-70923946D01*
X50057007Y-70932004D01*
X50033803Y-70937816D01*
X50010142Y-70941326D01*
X49986250Y-70942500D01*
X49073750Y-70942500D01*
X49049858Y-70941326D01*
X49026197Y-70937816D01*
X49002993Y-70932004D01*
X48980471Y-70923946D01*
X48958847Y-70913718D01*
X48938330Y-70901421D01*
X48919117Y-70887171D01*
X48901393Y-70871107D01*
X48885329Y-70853383D01*
X48871079Y-70834170D01*
X48858782Y-70813653D01*
X48848554Y-70792029D01*
X48840496Y-70769507D01*
X48834684Y-70746303D01*
X48831174Y-70722642D01*
X48830000Y-70698750D01*
X48830000Y-70211250D01*
X48831174Y-70187358D01*
X48834684Y-70163697D01*
X48840496Y-70140493D01*
X48848554Y-70117971D01*
X48858782Y-70096347D01*
X48871079Y-70075830D01*
X48885329Y-70056617D01*
X48901393Y-70038893D01*
X48919117Y-70022829D01*
X48938330Y-70008579D01*
X48958847Y-69996282D01*
X48980471Y-69986054D01*
X49002993Y-69977996D01*
X49026197Y-69972184D01*
X49049858Y-69968674D01*
X49073750Y-69967500D01*
X49986250Y-69967500D01*
X50010142Y-69968674D01*
X50010142Y-69968674D01*
G37*
D19*
X49530000Y-70455000D03*
D18*
G36*
X50010142Y-73808674D02*
G01*
X50033803Y-73812184D01*
X50057007Y-73817996D01*
X50079529Y-73826054D01*
X50101153Y-73836282D01*
X50121670Y-73848579D01*
X50140883Y-73862829D01*
X50158607Y-73878893D01*
X50174671Y-73896617D01*
X50188921Y-73915830D01*
X50201218Y-73936347D01*
X50211446Y-73957971D01*
X50219504Y-73980493D01*
X50225316Y-74003697D01*
X50228826Y-74027358D01*
X50230000Y-74051250D01*
X50230000Y-74538750D01*
X50228826Y-74562642D01*
X50225316Y-74586303D01*
X50219504Y-74609507D01*
X50211446Y-74632029D01*
X50201218Y-74653653D01*
X50188921Y-74674170D01*
X50174671Y-74693383D01*
X50158607Y-74711107D01*
X50140883Y-74727171D01*
X50121670Y-74741421D01*
X50101153Y-74753718D01*
X50079529Y-74763946D01*
X50057007Y-74772004D01*
X50033803Y-74777816D01*
X50010142Y-74781326D01*
X49986250Y-74782500D01*
X49073750Y-74782500D01*
X49049858Y-74781326D01*
X49026197Y-74777816D01*
X49002993Y-74772004D01*
X48980471Y-74763946D01*
X48958847Y-74753718D01*
X48938330Y-74741421D01*
X48919117Y-74727171D01*
X48901393Y-74711107D01*
X48885329Y-74693383D01*
X48871079Y-74674170D01*
X48858782Y-74653653D01*
X48848554Y-74632029D01*
X48840496Y-74609507D01*
X48834684Y-74586303D01*
X48831174Y-74562642D01*
X48830000Y-74538750D01*
X48830000Y-74051250D01*
X48831174Y-74027358D01*
X48834684Y-74003697D01*
X48840496Y-73980493D01*
X48848554Y-73957971D01*
X48858782Y-73936347D01*
X48871079Y-73915830D01*
X48885329Y-73896617D01*
X48901393Y-73878893D01*
X48919117Y-73862829D01*
X48938330Y-73848579D01*
X48958847Y-73836282D01*
X48980471Y-73826054D01*
X49002993Y-73817996D01*
X49026197Y-73812184D01*
X49049858Y-73808674D01*
X49073750Y-73807500D01*
X49986250Y-73807500D01*
X50010142Y-73808674D01*
X50010142Y-73808674D01*
G37*
D19*
X49530000Y-74295000D03*
D18*
G36*
X50010142Y-71933674D02*
G01*
X50033803Y-71937184D01*
X50057007Y-71942996D01*
X50079529Y-71951054D01*
X50101153Y-71961282D01*
X50121670Y-71973579D01*
X50140883Y-71987829D01*
X50158607Y-72003893D01*
X50174671Y-72021617D01*
X50188921Y-72040830D01*
X50201218Y-72061347D01*
X50211446Y-72082971D01*
X50219504Y-72105493D01*
X50225316Y-72128697D01*
X50228826Y-72152358D01*
X50230000Y-72176250D01*
X50230000Y-72663750D01*
X50228826Y-72687642D01*
X50225316Y-72711303D01*
X50219504Y-72734507D01*
X50211446Y-72757029D01*
X50201218Y-72778653D01*
X50188921Y-72799170D01*
X50174671Y-72818383D01*
X50158607Y-72836107D01*
X50140883Y-72852171D01*
X50121670Y-72866421D01*
X50101153Y-72878718D01*
X50079529Y-72888946D01*
X50057007Y-72897004D01*
X50033803Y-72902816D01*
X50010142Y-72906326D01*
X49986250Y-72907500D01*
X49073750Y-72907500D01*
X49049858Y-72906326D01*
X49026197Y-72902816D01*
X49002993Y-72897004D01*
X48980471Y-72888946D01*
X48958847Y-72878718D01*
X48938330Y-72866421D01*
X48919117Y-72852171D01*
X48901393Y-72836107D01*
X48885329Y-72818383D01*
X48871079Y-72799170D01*
X48858782Y-72778653D01*
X48848554Y-72757029D01*
X48840496Y-72734507D01*
X48834684Y-72711303D01*
X48831174Y-72687642D01*
X48830000Y-72663750D01*
X48830000Y-72176250D01*
X48831174Y-72152358D01*
X48834684Y-72128697D01*
X48840496Y-72105493D01*
X48848554Y-72082971D01*
X48858782Y-72061347D01*
X48871079Y-72040830D01*
X48885329Y-72021617D01*
X48901393Y-72003893D01*
X48919117Y-71987829D01*
X48938330Y-71973579D01*
X48958847Y-71961282D01*
X48980471Y-71951054D01*
X49002993Y-71942996D01*
X49026197Y-71937184D01*
X49049858Y-71933674D01*
X49073750Y-71932500D01*
X49986250Y-71932500D01*
X50010142Y-71933674D01*
X50010142Y-71933674D01*
G37*
D19*
X49530000Y-72420000D03*
D18*
G36*
X55210142Y-76771174D02*
G01*
X55233803Y-76774684D01*
X55257007Y-76780496D01*
X55279529Y-76788554D01*
X55301153Y-76798782D01*
X55321670Y-76811079D01*
X55340883Y-76825329D01*
X55358607Y-76841393D01*
X55374671Y-76859117D01*
X55388921Y-76878330D01*
X55401218Y-76898847D01*
X55411446Y-76920471D01*
X55419504Y-76942993D01*
X55425316Y-76966197D01*
X55428826Y-76989858D01*
X55430000Y-77013750D01*
X55430000Y-77926250D01*
X55428826Y-77950142D01*
X55425316Y-77973803D01*
X55419504Y-77997007D01*
X55411446Y-78019529D01*
X55401218Y-78041153D01*
X55388921Y-78061670D01*
X55374671Y-78080883D01*
X55358607Y-78098607D01*
X55340883Y-78114671D01*
X55321670Y-78128921D01*
X55301153Y-78141218D01*
X55279529Y-78151446D01*
X55257007Y-78159504D01*
X55233803Y-78165316D01*
X55210142Y-78168826D01*
X55186250Y-78170000D01*
X54698750Y-78170000D01*
X54674858Y-78168826D01*
X54651197Y-78165316D01*
X54627993Y-78159504D01*
X54605471Y-78151446D01*
X54583847Y-78141218D01*
X54563330Y-78128921D01*
X54544117Y-78114671D01*
X54526393Y-78098607D01*
X54510329Y-78080883D01*
X54496079Y-78061670D01*
X54483782Y-78041153D01*
X54473554Y-78019529D01*
X54465496Y-77997007D01*
X54459684Y-77973803D01*
X54456174Y-77950142D01*
X54455000Y-77926250D01*
X54455000Y-77013750D01*
X54456174Y-76989858D01*
X54459684Y-76966197D01*
X54465496Y-76942993D01*
X54473554Y-76920471D01*
X54483782Y-76898847D01*
X54496079Y-76878330D01*
X54510329Y-76859117D01*
X54526393Y-76841393D01*
X54544117Y-76825329D01*
X54563330Y-76811079D01*
X54583847Y-76798782D01*
X54605471Y-76788554D01*
X54627993Y-76780496D01*
X54651197Y-76774684D01*
X54674858Y-76771174D01*
X54698750Y-76770000D01*
X55186250Y-76770000D01*
X55210142Y-76771174D01*
X55210142Y-76771174D01*
G37*
D19*
X54942500Y-77470000D03*
D18*
G36*
X57085142Y-76771174D02*
G01*
X57108803Y-76774684D01*
X57132007Y-76780496D01*
X57154529Y-76788554D01*
X57176153Y-76798782D01*
X57196670Y-76811079D01*
X57215883Y-76825329D01*
X57233607Y-76841393D01*
X57249671Y-76859117D01*
X57263921Y-76878330D01*
X57276218Y-76898847D01*
X57286446Y-76920471D01*
X57294504Y-76942993D01*
X57300316Y-76966197D01*
X57303826Y-76989858D01*
X57305000Y-77013750D01*
X57305000Y-77926250D01*
X57303826Y-77950142D01*
X57300316Y-77973803D01*
X57294504Y-77997007D01*
X57286446Y-78019529D01*
X57276218Y-78041153D01*
X57263921Y-78061670D01*
X57249671Y-78080883D01*
X57233607Y-78098607D01*
X57215883Y-78114671D01*
X57196670Y-78128921D01*
X57176153Y-78141218D01*
X57154529Y-78151446D01*
X57132007Y-78159504D01*
X57108803Y-78165316D01*
X57085142Y-78168826D01*
X57061250Y-78170000D01*
X56573750Y-78170000D01*
X56549858Y-78168826D01*
X56526197Y-78165316D01*
X56502993Y-78159504D01*
X56480471Y-78151446D01*
X56458847Y-78141218D01*
X56438330Y-78128921D01*
X56419117Y-78114671D01*
X56401393Y-78098607D01*
X56385329Y-78080883D01*
X56371079Y-78061670D01*
X56358782Y-78041153D01*
X56348554Y-78019529D01*
X56340496Y-77997007D01*
X56334684Y-77973803D01*
X56331174Y-77950142D01*
X56330000Y-77926250D01*
X56330000Y-77013750D01*
X56331174Y-76989858D01*
X56334684Y-76966197D01*
X56340496Y-76942993D01*
X56348554Y-76920471D01*
X56358782Y-76898847D01*
X56371079Y-76878330D01*
X56385329Y-76859117D01*
X56401393Y-76841393D01*
X56419117Y-76825329D01*
X56438330Y-76811079D01*
X56458847Y-76798782D01*
X56480471Y-76788554D01*
X56502993Y-76780496D01*
X56526197Y-76774684D01*
X56549858Y-76771174D01*
X56573750Y-76770000D01*
X57061250Y-76770000D01*
X57085142Y-76771174D01*
X57085142Y-76771174D01*
G37*
D19*
X56817500Y-77470000D03*
D18*
G36*
X44676142Y-58109174D02*
G01*
X44699803Y-58112684D01*
X44723007Y-58118496D01*
X44745529Y-58126554D01*
X44767153Y-58136782D01*
X44787670Y-58149079D01*
X44806883Y-58163329D01*
X44824607Y-58179393D01*
X44840671Y-58197117D01*
X44854921Y-58216330D01*
X44867218Y-58236847D01*
X44877446Y-58258471D01*
X44885504Y-58280993D01*
X44891316Y-58304197D01*
X44894826Y-58327858D01*
X44896000Y-58351750D01*
X44896000Y-58839250D01*
X44894826Y-58863142D01*
X44891316Y-58886803D01*
X44885504Y-58910007D01*
X44877446Y-58932529D01*
X44867218Y-58954153D01*
X44854921Y-58974670D01*
X44840671Y-58993883D01*
X44824607Y-59011607D01*
X44806883Y-59027671D01*
X44787670Y-59041921D01*
X44767153Y-59054218D01*
X44745529Y-59064446D01*
X44723007Y-59072504D01*
X44699803Y-59078316D01*
X44676142Y-59081826D01*
X44652250Y-59083000D01*
X43739750Y-59083000D01*
X43715858Y-59081826D01*
X43692197Y-59078316D01*
X43668993Y-59072504D01*
X43646471Y-59064446D01*
X43624847Y-59054218D01*
X43604330Y-59041921D01*
X43585117Y-59027671D01*
X43567393Y-59011607D01*
X43551329Y-58993883D01*
X43537079Y-58974670D01*
X43524782Y-58954153D01*
X43514554Y-58932529D01*
X43506496Y-58910007D01*
X43500684Y-58886803D01*
X43497174Y-58863142D01*
X43496000Y-58839250D01*
X43496000Y-58351750D01*
X43497174Y-58327858D01*
X43500684Y-58304197D01*
X43506496Y-58280993D01*
X43514554Y-58258471D01*
X43524782Y-58236847D01*
X43537079Y-58216330D01*
X43551329Y-58197117D01*
X43567393Y-58179393D01*
X43585117Y-58163329D01*
X43604330Y-58149079D01*
X43624847Y-58136782D01*
X43646471Y-58126554D01*
X43668993Y-58118496D01*
X43692197Y-58112684D01*
X43715858Y-58109174D01*
X43739750Y-58108000D01*
X44652250Y-58108000D01*
X44676142Y-58109174D01*
X44676142Y-58109174D01*
G37*
D19*
X44196000Y-58595500D03*
D18*
G36*
X44676142Y-56234174D02*
G01*
X44699803Y-56237684D01*
X44723007Y-56243496D01*
X44745529Y-56251554D01*
X44767153Y-56261782D01*
X44787670Y-56274079D01*
X44806883Y-56288329D01*
X44824607Y-56304393D01*
X44840671Y-56322117D01*
X44854921Y-56341330D01*
X44867218Y-56361847D01*
X44877446Y-56383471D01*
X44885504Y-56405993D01*
X44891316Y-56429197D01*
X44894826Y-56452858D01*
X44896000Y-56476750D01*
X44896000Y-56964250D01*
X44894826Y-56988142D01*
X44891316Y-57011803D01*
X44885504Y-57035007D01*
X44877446Y-57057529D01*
X44867218Y-57079153D01*
X44854921Y-57099670D01*
X44840671Y-57118883D01*
X44824607Y-57136607D01*
X44806883Y-57152671D01*
X44787670Y-57166921D01*
X44767153Y-57179218D01*
X44745529Y-57189446D01*
X44723007Y-57197504D01*
X44699803Y-57203316D01*
X44676142Y-57206826D01*
X44652250Y-57208000D01*
X43739750Y-57208000D01*
X43715858Y-57206826D01*
X43692197Y-57203316D01*
X43668993Y-57197504D01*
X43646471Y-57189446D01*
X43624847Y-57179218D01*
X43604330Y-57166921D01*
X43585117Y-57152671D01*
X43567393Y-57136607D01*
X43551329Y-57118883D01*
X43537079Y-57099670D01*
X43524782Y-57079153D01*
X43514554Y-57057529D01*
X43506496Y-57035007D01*
X43500684Y-57011803D01*
X43497174Y-56988142D01*
X43496000Y-56964250D01*
X43496000Y-56476750D01*
X43497174Y-56452858D01*
X43500684Y-56429197D01*
X43506496Y-56405993D01*
X43514554Y-56383471D01*
X43524782Y-56361847D01*
X43537079Y-56341330D01*
X43551329Y-56322117D01*
X43567393Y-56304393D01*
X43585117Y-56288329D01*
X43604330Y-56274079D01*
X43624847Y-56261782D01*
X43646471Y-56251554D01*
X43668993Y-56243496D01*
X43692197Y-56237684D01*
X43715858Y-56234174D01*
X43739750Y-56233000D01*
X44652250Y-56233000D01*
X44676142Y-56234174D01*
X44676142Y-56234174D01*
G37*
D19*
X44196000Y-56720500D03*
D22*
X48006000Y-68326000D03*
X46035000Y-68265000D03*
X47498000Y-62550000D03*
D23*
X46035000Y-67468000D02*
X46035000Y-68265000D01*
X45115000Y-66548000D02*
X46035000Y-67468000D01*
X49530000Y-68580000D02*
X48260000Y-68580000D01*
X48260000Y-68580000D02*
X48006000Y-68326000D01*
X48006000Y-68326000D02*
X47752000Y-68072000D01*
X46035000Y-68265000D02*
X46035000Y-69174000D01*
D24*
X51998000Y-63500000D02*
X50968000Y-63500000D01*
X54610000Y-60888000D02*
X51998000Y-63500000D01*
X54610000Y-59055000D02*
X54610000Y-60888000D01*
D23*
X45085000Y-69954000D02*
X46035000Y-70904000D01*
X46035000Y-70904000D02*
X46035000Y-71374000D01*
X45085000Y-69174000D02*
X45085000Y-69954000D01*
D24*
X48668999Y-70393999D02*
X48730000Y-70455000D01*
X48730000Y-70455000D02*
X49530000Y-70455000D01*
X46035000Y-70658998D02*
X46299999Y-70393999D01*
X46299999Y-70393999D02*
X48668999Y-70393999D01*
X46035000Y-71374000D02*
X46035000Y-70658998D01*
D25*
X52324000Y-54864000D02*
X55946202Y-54864000D01*
D24*
X54610000Y-74270000D02*
X54610000Y-67970000D01*
X45115000Y-71404000D02*
X45085000Y-71374000D01*
X45115000Y-73914000D02*
X45115000Y-71404000D01*
X46990000Y-71379000D02*
X46985000Y-71374000D01*
X46990000Y-73914000D02*
X46990000Y-71379000D01*
X46990000Y-66548000D02*
X46990000Y-65024000D01*
X47564000Y-64450000D02*
X48768000Y-64450000D01*
X46990000Y-65024000D02*
X47564000Y-64450000D01*
X46985000Y-66553000D02*
X46990000Y-66548000D01*
X46985000Y-69174000D02*
X46985000Y-66553000D01*
D25*
X56525836Y-87132837D02*
X56510734Y-87158438D01*
X56515000Y-87122000D02*
X56525836Y-87132837D01*
D24*
X47498000Y-62550000D02*
X48768000Y-62550000D01*
D23*
X51173000Y-62550000D02*
X50968000Y-62550000D01*
X52070000Y-61653000D02*
X51173000Y-62550000D01*
X52070000Y-59055000D02*
X52070000Y-61653000D01*
X49548000Y-63500000D02*
X49623001Y-63575001D01*
X48768000Y-63500000D02*
X49548000Y-63500000D01*
X49784000Y-64770000D02*
X50340237Y-65326237D01*
X49784000Y-63736000D02*
X49784000Y-64770000D01*
X49548000Y-63500000D02*
X49784000Y-63736000D01*
X53925500Y-65024000D02*
X54513000Y-65024000D01*
X53623263Y-65326237D02*
X53925500Y-65024000D01*
X50340237Y-65326237D02*
X53623263Y-65326237D01*
D26*
G36*
X45749294Y-58225986D02*
G01*
X45611401Y-58483966D01*
X45526487Y-58763889D01*
X45516369Y-58866619D01*
X45372250Y-58722500D01*
X44323000Y-58722500D01*
X44323000Y-59559250D01*
X44481750Y-59718000D01*
X44896000Y-59721072D01*
X45020482Y-59708812D01*
X45140180Y-59672502D01*
X45250494Y-59613537D01*
X45347185Y-59534185D01*
X45426537Y-59437494D01*
X45485502Y-59327180D01*
X45515034Y-59229826D01*
X45526487Y-59346111D01*
X45611401Y-59626034D01*
X45749294Y-59884014D01*
X45934866Y-60110134D01*
X46160986Y-60295706D01*
X46418966Y-60433599D01*
X46698889Y-60518513D01*
X46917050Y-60540000D01*
X47062950Y-60540000D01*
X47281111Y-60518513D01*
X47561034Y-60433599D01*
X47819014Y-60295706D01*
X47879000Y-60246477D01*
X47879000Y-61587539D01*
X47799898Y-61554774D01*
X47599939Y-61515000D01*
X47396061Y-61515000D01*
X47196102Y-61554774D01*
X47007744Y-61632795D01*
X46838226Y-61746063D01*
X46694063Y-61890226D01*
X46580795Y-62059744D01*
X46502774Y-62248102D01*
X46463000Y-62448061D01*
X46463000Y-62651939D01*
X46502774Y-62851898D01*
X46580795Y-63040256D01*
X46694063Y-63209774D01*
X46838226Y-63353937D01*
X47007744Y-63467205D01*
X47196102Y-63545226D01*
X47378383Y-63581484D01*
X47223686Y-63628411D01*
X47185195Y-63648985D01*
X47069941Y-63710589D01*
X46935183Y-63821183D01*
X46907466Y-63854956D01*
X46394952Y-64367470D01*
X46361184Y-64395183D01*
X46333471Y-64428951D01*
X46333468Y-64428954D01*
X46250590Y-64529941D01*
X46168412Y-64683687D01*
X46117805Y-64850510D01*
X46100719Y-65024000D01*
X46105001Y-65067479D01*
X46105001Y-65459344D01*
X46053685Y-65396815D01*
X45956994Y-65317463D01*
X45846680Y-65258498D01*
X45726982Y-65222188D01*
X45602500Y-65209928D01*
X45400750Y-65213000D01*
X45242000Y-65371750D01*
X45242000Y-66421000D01*
X45262000Y-66421000D01*
X45262000Y-66675000D01*
X45242000Y-66675000D01*
X45242000Y-67724250D01*
X45400750Y-67883000D01*
X45602500Y-67886072D01*
X45726982Y-67873812D01*
X45846680Y-67837502D01*
X45956994Y-67778537D01*
X46053685Y-67699185D01*
X46100001Y-67642749D01*
X46100000Y-68344626D01*
X46070498Y-68399820D01*
X46035000Y-68516841D01*
X45999502Y-68399820D01*
X45940537Y-68289506D01*
X45908000Y-68249859D01*
X45908000Y-68167750D01*
X45749250Y-68009000D01*
X45710000Y-68005928D01*
X45585518Y-68018188D01*
X45560000Y-68025929D01*
X45534482Y-68018188D01*
X45410000Y-68005928D01*
X44760000Y-68005928D01*
X44635518Y-68018188D01*
X44515820Y-68054498D01*
X44405506Y-68113463D01*
X44308815Y-68192815D01*
X44229463Y-68289506D01*
X44170498Y-68399820D01*
X44134188Y-68519518D01*
X44121928Y-68644000D01*
X44121928Y-69704000D01*
X44134188Y-69828482D01*
X44170498Y-69948180D01*
X44229463Y-70058494D01*
X44308815Y-70155185D01*
X44366090Y-70202189D01*
X44379454Y-70246246D01*
X44413188Y-70309357D01*
X44405506Y-70313463D01*
X44308815Y-70392815D01*
X44229463Y-70489506D01*
X44170498Y-70599820D01*
X44134188Y-70719518D01*
X44121928Y-70844000D01*
X44121928Y-71904000D01*
X44134188Y-72028482D01*
X44170498Y-72148180D01*
X44229463Y-72258494D01*
X44230001Y-72259149D01*
X44230000Y-72855785D01*
X44138042Y-72967836D01*
X44056553Y-73120291D01*
X44006372Y-73285715D01*
X43989428Y-73457750D01*
X43989428Y-74370250D01*
X44006372Y-74542285D01*
X44056553Y-74707709D01*
X44138042Y-74860164D01*
X44247708Y-74993792D01*
X44381336Y-75103458D01*
X44533791Y-75184947D01*
X44699215Y-75235128D01*
X44871250Y-75252072D01*
X45358750Y-75252072D01*
X45530785Y-75235128D01*
X45696209Y-75184947D01*
X45848664Y-75103458D01*
X45982292Y-74993792D01*
X46052500Y-74908244D01*
X46122708Y-74993792D01*
X46256336Y-75103458D01*
X46408791Y-75184947D01*
X46574215Y-75235128D01*
X46746250Y-75252072D01*
X47233750Y-75252072D01*
X47405785Y-75235128D01*
X47571209Y-75184947D01*
X47723664Y-75103458D01*
X47857292Y-74993792D01*
X47966958Y-74860164D01*
X48008470Y-74782500D01*
X48191928Y-74782500D01*
X48204188Y-74906982D01*
X48240498Y-75026680D01*
X48299463Y-75136994D01*
X48378815Y-75233685D01*
X48475506Y-75313037D01*
X48585820Y-75372002D01*
X48705518Y-75408312D01*
X48830000Y-75420572D01*
X49244250Y-75417500D01*
X49403000Y-75258750D01*
X49403000Y-74422000D01*
X49657000Y-74422000D01*
X49657000Y-75258750D01*
X49815750Y-75417500D01*
X50230000Y-75420572D01*
X50354482Y-75408312D01*
X50474180Y-75372002D01*
X50584494Y-75313037D01*
X50636934Y-75270000D01*
X50921928Y-75270000D01*
X50934188Y-75394482D01*
X50970498Y-75514180D01*
X51029463Y-75624494D01*
X51108815Y-75721185D01*
X51205506Y-75800537D01*
X51315820Y-75859502D01*
X51435518Y-75895812D01*
X51560000Y-75908072D01*
X52024250Y-75905000D01*
X52183000Y-75746250D01*
X52183000Y-74397000D01*
X51083750Y-74397000D01*
X50925000Y-74555750D01*
X50921928Y-75270000D01*
X50636934Y-75270000D01*
X50681185Y-75233685D01*
X50760537Y-75136994D01*
X50819502Y-75026680D01*
X50855812Y-74906982D01*
X50868072Y-74782500D01*
X50865000Y-74580750D01*
X50706250Y-74422000D01*
X49657000Y-74422000D01*
X49403000Y-74422000D01*
X48353750Y-74422000D01*
X48195000Y-74580750D01*
X48191928Y-74782500D01*
X48008470Y-74782500D01*
X48048447Y-74707709D01*
X48098628Y-74542285D01*
X48115572Y-74370250D01*
X48115572Y-73787000D01*
X48193947Y-73787000D01*
X48191928Y-73807500D01*
X48195000Y-74009250D01*
X48353750Y-74168000D01*
X49403000Y-74168000D01*
X49403000Y-74148000D01*
X49657000Y-74148000D01*
X49657000Y-74168000D01*
X50706250Y-74168000D01*
X50865000Y-74009250D01*
X50868072Y-73807500D01*
X50866053Y-73787000D01*
X50924152Y-73787000D01*
X50925000Y-73984250D01*
X51083750Y-74143000D01*
X52183000Y-74143000D01*
X52183000Y-74123000D01*
X52437000Y-74123000D01*
X52437000Y-74143000D01*
X52457000Y-74143000D01*
X52457000Y-74397000D01*
X52437000Y-74397000D01*
X52437000Y-75746250D01*
X52595750Y-75905000D01*
X53060000Y-75908072D01*
X53123000Y-75901867D01*
X53123000Y-76250000D01*
X53125440Y-76274776D01*
X53132667Y-76298601D01*
X53144403Y-76320557D01*
X53160197Y-76339803D01*
X53179443Y-76355597D01*
X53201399Y-76367333D01*
X53225224Y-76374560D01*
X53250000Y-76377000D01*
X53956064Y-76377000D01*
X53924463Y-76415506D01*
X53865498Y-76525820D01*
X53829188Y-76645518D01*
X53816928Y-76770000D01*
X53820000Y-77184250D01*
X53978750Y-77343000D01*
X54815500Y-77343000D01*
X54815500Y-77323000D01*
X55069500Y-77323000D01*
X55069500Y-77343000D01*
X55089500Y-77343000D01*
X55089500Y-77597000D01*
X55069500Y-77597000D01*
X55069500Y-77617000D01*
X54815500Y-77617000D01*
X54815500Y-77597000D01*
X53978750Y-77597000D01*
X53820000Y-77755750D01*
X53816928Y-78170000D01*
X53829188Y-78294482D01*
X53848759Y-78359000D01*
X49022000Y-78359000D01*
X48997224Y-78361440D01*
X48973399Y-78368667D01*
X48951443Y-78380403D01*
X48932197Y-78396197D01*
X48916403Y-78415443D01*
X48904667Y-78437399D01*
X48897440Y-78461224D01*
X48895000Y-78486000D01*
X48895000Y-83058000D01*
X48897440Y-83082776D01*
X48904667Y-83106601D01*
X48916403Y-83128557D01*
X48932197Y-83147803D01*
X48951443Y-83163597D01*
X48973399Y-83175333D01*
X48997224Y-83182560D01*
X49022000Y-83185000D01*
X53848000Y-83185000D01*
X53848000Y-85661184D01*
X53724731Y-85578818D01*
X53381741Y-85436747D01*
X53017625Y-85364320D01*
X52646375Y-85364320D01*
X52282259Y-85436747D01*
X51939269Y-85578818D01*
X51630587Y-85785074D01*
X51368074Y-86047587D01*
X51161818Y-86356269D01*
X51019747Y-86699259D01*
X50947320Y-87063375D01*
X50947320Y-87434625D01*
X51019747Y-87798741D01*
X51161818Y-88141731D01*
X51368074Y-88450413D01*
X51630587Y-88712926D01*
X51939269Y-88919182D01*
X52282259Y-89061253D01*
X52646375Y-89133680D01*
X53017625Y-89133680D01*
X53381741Y-89061253D01*
X53724731Y-88919182D01*
X53848000Y-88836816D01*
X53848000Y-90018000D01*
X43847279Y-90018000D01*
X43697131Y-90003278D01*
X43583754Y-89969047D01*
X43479183Y-89913446D01*
X43387405Y-89838594D01*
X43311909Y-89747335D01*
X43255581Y-89643160D01*
X43220560Y-89530024D01*
X43205000Y-89381979D01*
X43205000Y-88562377D01*
X44078229Y-88562377D01*
X44204104Y-88852315D01*
X44536262Y-89018139D01*
X44894387Y-89115975D01*
X45264719Y-89142065D01*
X45633025Y-89095405D01*
X45985151Y-88977789D01*
X46219896Y-88852315D01*
X46345771Y-88562377D01*
X45212000Y-87428605D01*
X44078229Y-88562377D01*
X43205000Y-88562377D01*
X43205000Y-87301719D01*
X43318935Y-87301719D01*
X43365595Y-87670025D01*
X43483211Y-88022151D01*
X43608685Y-88256896D01*
X43898623Y-88382771D01*
X45032395Y-87249000D01*
X45391605Y-87249000D01*
X46525377Y-88382771D01*
X46815315Y-88256896D01*
X46981139Y-87924738D01*
X47078975Y-87566613D01*
X47105065Y-87196281D01*
X47088228Y-87063375D01*
X47137320Y-87063375D01*
X47137320Y-87434625D01*
X47209747Y-87798741D01*
X47351818Y-88141731D01*
X47558074Y-88450413D01*
X47820587Y-88712926D01*
X48129269Y-88919182D01*
X48472259Y-89061253D01*
X48836375Y-89133680D01*
X49207625Y-89133680D01*
X49571741Y-89061253D01*
X49914731Y-88919182D01*
X50223413Y-88712926D01*
X50485926Y-88450413D01*
X50692182Y-88141731D01*
X50834253Y-87798741D01*
X50906680Y-87434625D01*
X50906680Y-87063375D01*
X50834253Y-86699259D01*
X50692182Y-86356269D01*
X50485926Y-86047587D01*
X50223413Y-85785074D01*
X49914731Y-85578818D01*
X49571741Y-85436747D01*
X49207625Y-85364320D01*
X48836375Y-85364320D01*
X48472259Y-85436747D01*
X48129269Y-85578818D01*
X47820587Y-85785074D01*
X47558074Y-86047587D01*
X47351818Y-86356269D01*
X47209747Y-86699259D01*
X47137320Y-87063375D01*
X47088228Y-87063375D01*
X47058405Y-86827975D01*
X46940789Y-86475849D01*
X46815315Y-86241104D01*
X46525377Y-86115229D01*
X45391605Y-87249000D01*
X45032395Y-87249000D01*
X43898623Y-86115229D01*
X43608685Y-86241104D01*
X43442861Y-86573262D01*
X43345025Y-86931387D01*
X43318935Y-87301719D01*
X43205000Y-87301719D01*
X43205000Y-85935623D01*
X44078229Y-85935623D01*
X45212000Y-87069395D01*
X46345771Y-85935623D01*
X46219896Y-85645685D01*
X45887738Y-85479861D01*
X45529613Y-85382025D01*
X45159281Y-85355935D01*
X44790975Y-85402595D01*
X44438849Y-85520211D01*
X44204104Y-85645685D01*
X44078229Y-85935623D01*
X43205000Y-85935623D01*
X43205000Y-81895000D01*
X43331928Y-81895000D01*
X43344188Y-82019482D01*
X43380498Y-82139180D01*
X43439463Y-82249494D01*
X43518815Y-82346185D01*
X43615506Y-82425537D01*
X43725820Y-82484502D01*
X43845518Y-82520812D01*
X43970000Y-82533072D01*
X45684250Y-82530000D01*
X45843000Y-82371250D01*
X45843000Y-80772000D01*
X46097000Y-80772000D01*
X46097000Y-82371250D01*
X46255750Y-82530000D01*
X47970000Y-82533072D01*
X48094482Y-82520812D01*
X48214180Y-82484502D01*
X48324494Y-82425537D01*
X48421185Y-82346185D01*
X48500537Y-82249494D01*
X48559502Y-82139180D01*
X48595812Y-82019482D01*
X48608072Y-81895000D01*
X48605000Y-80930750D01*
X48446250Y-80772000D01*
X46097000Y-80772000D01*
X45843000Y-80772000D01*
X43493750Y-80772000D01*
X43335000Y-80930750D01*
X43331928Y-81895000D01*
X43205000Y-81895000D01*
X43205000Y-79395000D01*
X43331928Y-79395000D01*
X43335000Y-80359250D01*
X43493750Y-80518000D01*
X45843000Y-80518000D01*
X45843000Y-78918750D01*
X46097000Y-78918750D01*
X46097000Y-80518000D01*
X48446250Y-80518000D01*
X48605000Y-80359250D01*
X48608072Y-79395000D01*
X48595812Y-79270518D01*
X48559502Y-79150820D01*
X48500537Y-79040506D01*
X48421185Y-78943815D01*
X48324494Y-78864463D01*
X48214180Y-78805498D01*
X48094482Y-78769188D01*
X47970000Y-78756928D01*
X46255750Y-78760000D01*
X46097000Y-78918750D01*
X45843000Y-78918750D01*
X45684250Y-78760000D01*
X43970000Y-78756928D01*
X43845518Y-78769188D01*
X43725820Y-78805498D01*
X43615506Y-78864463D01*
X43518815Y-78943815D01*
X43439463Y-79040506D01*
X43380498Y-79150820D01*
X43344188Y-79270518D01*
X43331928Y-79395000D01*
X43205000Y-79395000D01*
X43205000Y-67248000D01*
X43989428Y-67248000D01*
X44001688Y-67372482D01*
X44037998Y-67492180D01*
X44096963Y-67602494D01*
X44176315Y-67699185D01*
X44273006Y-67778537D01*
X44383320Y-67837502D01*
X44503018Y-67873812D01*
X44627500Y-67886072D01*
X44829250Y-67883000D01*
X44988000Y-67724250D01*
X44988000Y-66675000D01*
X44151250Y-66675000D01*
X43992500Y-66833750D01*
X43989428Y-67248000D01*
X43205000Y-67248000D01*
X43205000Y-65848000D01*
X43989428Y-65848000D01*
X43992500Y-66262250D01*
X44151250Y-66421000D01*
X44988000Y-66421000D01*
X44988000Y-65371750D01*
X44829250Y-65213000D01*
X44627500Y-65209928D01*
X44503018Y-65222188D01*
X44383320Y-65258498D01*
X44273006Y-65317463D01*
X44176315Y-65396815D01*
X44096963Y-65493506D01*
X44037998Y-65603820D01*
X44001688Y-65723518D01*
X43989428Y-65848000D01*
X43205000Y-65848000D01*
X43205000Y-59647476D01*
X43251820Y-59672502D01*
X43371518Y-59708812D01*
X43496000Y-59721072D01*
X43910250Y-59718000D01*
X44069000Y-59559250D01*
X44069000Y-58722500D01*
X44049000Y-58722500D01*
X44049000Y-58468500D01*
X44069000Y-58468500D01*
X44069000Y-58448500D01*
X44323000Y-58448500D01*
X44323000Y-58468500D01*
X45372250Y-58468500D01*
X45531000Y-58309750D01*
X45534072Y-58108000D01*
X45527276Y-58039000D01*
X45902750Y-58039000D01*
X45749294Y-58225986D01*
X45749294Y-58225986D01*
G37*
X45749294Y-58225986D02*
X45611401Y-58483966D01*
X45526487Y-58763889D01*
X45516369Y-58866619D01*
X45372250Y-58722500D01*
X44323000Y-58722500D01*
X44323000Y-59559250D01*
X44481750Y-59718000D01*
X44896000Y-59721072D01*
X45020482Y-59708812D01*
X45140180Y-59672502D01*
X45250494Y-59613537D01*
X45347185Y-59534185D01*
X45426537Y-59437494D01*
X45485502Y-59327180D01*
X45515034Y-59229826D01*
X45526487Y-59346111D01*
X45611401Y-59626034D01*
X45749294Y-59884014D01*
X45934866Y-60110134D01*
X46160986Y-60295706D01*
X46418966Y-60433599D01*
X46698889Y-60518513D01*
X46917050Y-60540000D01*
X47062950Y-60540000D01*
X47281111Y-60518513D01*
X47561034Y-60433599D01*
X47819014Y-60295706D01*
X47879000Y-60246477D01*
X47879000Y-61587539D01*
X47799898Y-61554774D01*
X47599939Y-61515000D01*
X47396061Y-61515000D01*
X47196102Y-61554774D01*
X47007744Y-61632795D01*
X46838226Y-61746063D01*
X46694063Y-61890226D01*
X46580795Y-62059744D01*
X46502774Y-62248102D01*
X46463000Y-62448061D01*
X46463000Y-62651939D01*
X46502774Y-62851898D01*
X46580795Y-63040256D01*
X46694063Y-63209774D01*
X46838226Y-63353937D01*
X47007744Y-63467205D01*
X47196102Y-63545226D01*
X47378383Y-63581484D01*
X47223686Y-63628411D01*
X47185195Y-63648985D01*
X47069941Y-63710589D01*
X46935183Y-63821183D01*
X46907466Y-63854956D01*
X46394952Y-64367470D01*
X46361184Y-64395183D01*
X46333471Y-64428951D01*
X46333468Y-64428954D01*
X46250590Y-64529941D01*
X46168412Y-64683687D01*
X46117805Y-64850510D01*
X46100719Y-65024000D01*
X46105001Y-65067479D01*
X46105001Y-65459344D01*
X46053685Y-65396815D01*
X45956994Y-65317463D01*
X45846680Y-65258498D01*
X45726982Y-65222188D01*
X45602500Y-65209928D01*
X45400750Y-65213000D01*
X45242000Y-65371750D01*
X45242000Y-66421000D01*
X45262000Y-66421000D01*
X45262000Y-66675000D01*
X45242000Y-66675000D01*
X45242000Y-67724250D01*
X45400750Y-67883000D01*
X45602500Y-67886072D01*
X45726982Y-67873812D01*
X45846680Y-67837502D01*
X45956994Y-67778537D01*
X46053685Y-67699185D01*
X46100001Y-67642749D01*
X46100000Y-68344626D01*
X46070498Y-68399820D01*
X46035000Y-68516841D01*
X45999502Y-68399820D01*
X45940537Y-68289506D01*
X45908000Y-68249859D01*
X45908000Y-68167750D01*
X45749250Y-68009000D01*
X45710000Y-68005928D01*
X45585518Y-68018188D01*
X45560000Y-68025929D01*
X45534482Y-68018188D01*
X45410000Y-68005928D01*
X44760000Y-68005928D01*
X44635518Y-68018188D01*
X44515820Y-68054498D01*
X44405506Y-68113463D01*
X44308815Y-68192815D01*
X44229463Y-68289506D01*
X44170498Y-68399820D01*
X44134188Y-68519518D01*
X44121928Y-68644000D01*
X44121928Y-69704000D01*
X44134188Y-69828482D01*
X44170498Y-69948180D01*
X44229463Y-70058494D01*
X44308815Y-70155185D01*
X44366090Y-70202189D01*
X44379454Y-70246246D01*
X44413188Y-70309357D01*
X44405506Y-70313463D01*
X44308815Y-70392815D01*
X44229463Y-70489506D01*
X44170498Y-70599820D01*
X44134188Y-70719518D01*
X44121928Y-70844000D01*
X44121928Y-71904000D01*
X44134188Y-72028482D01*
X44170498Y-72148180D01*
X44229463Y-72258494D01*
X44230001Y-72259149D01*
X44230000Y-72855785D01*
X44138042Y-72967836D01*
X44056553Y-73120291D01*
X44006372Y-73285715D01*
X43989428Y-73457750D01*
X43989428Y-74370250D01*
X44006372Y-74542285D01*
X44056553Y-74707709D01*
X44138042Y-74860164D01*
X44247708Y-74993792D01*
X44381336Y-75103458D01*
X44533791Y-75184947D01*
X44699215Y-75235128D01*
X44871250Y-75252072D01*
X45358750Y-75252072D01*
X45530785Y-75235128D01*
X45696209Y-75184947D01*
X45848664Y-75103458D01*
X45982292Y-74993792D01*
X46052500Y-74908244D01*
X46122708Y-74993792D01*
X46256336Y-75103458D01*
X46408791Y-75184947D01*
X46574215Y-75235128D01*
X46746250Y-75252072D01*
X47233750Y-75252072D01*
X47405785Y-75235128D01*
X47571209Y-75184947D01*
X47723664Y-75103458D01*
X47857292Y-74993792D01*
X47966958Y-74860164D01*
X48008470Y-74782500D01*
X48191928Y-74782500D01*
X48204188Y-74906982D01*
X48240498Y-75026680D01*
X48299463Y-75136994D01*
X48378815Y-75233685D01*
X48475506Y-75313037D01*
X48585820Y-75372002D01*
X48705518Y-75408312D01*
X48830000Y-75420572D01*
X49244250Y-75417500D01*
X49403000Y-75258750D01*
X49403000Y-74422000D01*
X49657000Y-74422000D01*
X49657000Y-75258750D01*
X49815750Y-75417500D01*
X50230000Y-75420572D01*
X50354482Y-75408312D01*
X50474180Y-75372002D01*
X50584494Y-75313037D01*
X50636934Y-75270000D01*
X50921928Y-75270000D01*
X50934188Y-75394482D01*
X50970498Y-75514180D01*
X51029463Y-75624494D01*
X51108815Y-75721185D01*
X51205506Y-75800537D01*
X51315820Y-75859502D01*
X51435518Y-75895812D01*
X51560000Y-75908072D01*
X52024250Y-75905000D01*
X52183000Y-75746250D01*
X52183000Y-74397000D01*
X51083750Y-74397000D01*
X50925000Y-74555750D01*
X50921928Y-75270000D01*
X50636934Y-75270000D01*
X50681185Y-75233685D01*
X50760537Y-75136994D01*
X50819502Y-75026680D01*
X50855812Y-74906982D01*
X50868072Y-74782500D01*
X50865000Y-74580750D01*
X50706250Y-74422000D01*
X49657000Y-74422000D01*
X49403000Y-74422000D01*
X48353750Y-74422000D01*
X48195000Y-74580750D01*
X48191928Y-74782500D01*
X48008470Y-74782500D01*
X48048447Y-74707709D01*
X48098628Y-74542285D01*
X48115572Y-74370250D01*
X48115572Y-73787000D01*
X48193947Y-73787000D01*
X48191928Y-73807500D01*
X48195000Y-74009250D01*
X48353750Y-74168000D01*
X49403000Y-74168000D01*
X49403000Y-74148000D01*
X49657000Y-74148000D01*
X49657000Y-74168000D01*
X50706250Y-74168000D01*
X50865000Y-74009250D01*
X50868072Y-73807500D01*
X50866053Y-73787000D01*
X50924152Y-73787000D01*
X50925000Y-73984250D01*
X51083750Y-74143000D01*
X52183000Y-74143000D01*
X52183000Y-74123000D01*
X52437000Y-74123000D01*
X52437000Y-74143000D01*
X52457000Y-74143000D01*
X52457000Y-74397000D01*
X52437000Y-74397000D01*
X52437000Y-75746250D01*
X52595750Y-75905000D01*
X53060000Y-75908072D01*
X53123000Y-75901867D01*
X53123000Y-76250000D01*
X53125440Y-76274776D01*
X53132667Y-76298601D01*
X53144403Y-76320557D01*
X53160197Y-76339803D01*
X53179443Y-76355597D01*
X53201399Y-76367333D01*
X53225224Y-76374560D01*
X53250000Y-76377000D01*
X53956064Y-76377000D01*
X53924463Y-76415506D01*
X53865498Y-76525820D01*
X53829188Y-76645518D01*
X53816928Y-76770000D01*
X53820000Y-77184250D01*
X53978750Y-77343000D01*
X54815500Y-77343000D01*
X54815500Y-77323000D01*
X55069500Y-77323000D01*
X55069500Y-77343000D01*
X55089500Y-77343000D01*
X55089500Y-77597000D01*
X55069500Y-77597000D01*
X55069500Y-77617000D01*
X54815500Y-77617000D01*
X54815500Y-77597000D01*
X53978750Y-77597000D01*
X53820000Y-77755750D01*
X53816928Y-78170000D01*
X53829188Y-78294482D01*
X53848759Y-78359000D01*
X49022000Y-78359000D01*
X48997224Y-78361440D01*
X48973399Y-78368667D01*
X48951443Y-78380403D01*
X48932197Y-78396197D01*
X48916403Y-78415443D01*
X48904667Y-78437399D01*
X48897440Y-78461224D01*
X48895000Y-78486000D01*
X48895000Y-83058000D01*
X48897440Y-83082776D01*
X48904667Y-83106601D01*
X48916403Y-83128557D01*
X48932197Y-83147803D01*
X48951443Y-83163597D01*
X48973399Y-83175333D01*
X48997224Y-83182560D01*
X49022000Y-83185000D01*
X53848000Y-83185000D01*
X53848000Y-85661184D01*
X53724731Y-85578818D01*
X53381741Y-85436747D01*
X53017625Y-85364320D01*
X52646375Y-85364320D01*
X52282259Y-85436747D01*
X51939269Y-85578818D01*
X51630587Y-85785074D01*
X51368074Y-86047587D01*
X51161818Y-86356269D01*
X51019747Y-86699259D01*
X50947320Y-87063375D01*
X50947320Y-87434625D01*
X51019747Y-87798741D01*
X51161818Y-88141731D01*
X51368074Y-88450413D01*
X51630587Y-88712926D01*
X51939269Y-88919182D01*
X52282259Y-89061253D01*
X52646375Y-89133680D01*
X53017625Y-89133680D01*
X53381741Y-89061253D01*
X53724731Y-88919182D01*
X53848000Y-88836816D01*
X53848000Y-90018000D01*
X43847279Y-90018000D01*
X43697131Y-90003278D01*
X43583754Y-89969047D01*
X43479183Y-89913446D01*
X43387405Y-89838594D01*
X43311909Y-89747335D01*
X43255581Y-89643160D01*
X43220560Y-89530024D01*
X43205000Y-89381979D01*
X43205000Y-88562377D01*
X44078229Y-88562377D01*
X44204104Y-88852315D01*
X44536262Y-89018139D01*
X44894387Y-89115975D01*
X45264719Y-89142065D01*
X45633025Y-89095405D01*
X45985151Y-88977789D01*
X46219896Y-88852315D01*
X46345771Y-88562377D01*
X45212000Y-87428605D01*
X44078229Y-88562377D01*
X43205000Y-88562377D01*
X43205000Y-87301719D01*
X43318935Y-87301719D01*
X43365595Y-87670025D01*
X43483211Y-88022151D01*
X43608685Y-88256896D01*
X43898623Y-88382771D01*
X45032395Y-87249000D01*
X45391605Y-87249000D01*
X46525377Y-88382771D01*
X46815315Y-88256896D01*
X46981139Y-87924738D01*
X47078975Y-87566613D01*
X47105065Y-87196281D01*
X47088228Y-87063375D01*
X47137320Y-87063375D01*
X47137320Y-87434625D01*
X47209747Y-87798741D01*
X47351818Y-88141731D01*
X47558074Y-88450413D01*
X47820587Y-88712926D01*
X48129269Y-88919182D01*
X48472259Y-89061253D01*
X48836375Y-89133680D01*
X49207625Y-89133680D01*
X49571741Y-89061253D01*
X49914731Y-88919182D01*
X50223413Y-88712926D01*
X50485926Y-88450413D01*
X50692182Y-88141731D01*
X50834253Y-87798741D01*
X50906680Y-87434625D01*
X50906680Y-87063375D01*
X50834253Y-86699259D01*
X50692182Y-86356269D01*
X50485926Y-86047587D01*
X50223413Y-85785074D01*
X49914731Y-85578818D01*
X49571741Y-85436747D01*
X49207625Y-85364320D01*
X48836375Y-85364320D01*
X48472259Y-85436747D01*
X48129269Y-85578818D01*
X47820587Y-85785074D01*
X47558074Y-86047587D01*
X47351818Y-86356269D01*
X47209747Y-86699259D01*
X47137320Y-87063375D01*
X47088228Y-87063375D01*
X47058405Y-86827975D01*
X46940789Y-86475849D01*
X46815315Y-86241104D01*
X46525377Y-86115229D01*
X45391605Y-87249000D01*
X45032395Y-87249000D01*
X43898623Y-86115229D01*
X43608685Y-86241104D01*
X43442861Y-86573262D01*
X43345025Y-86931387D01*
X43318935Y-87301719D01*
X43205000Y-87301719D01*
X43205000Y-85935623D01*
X44078229Y-85935623D01*
X45212000Y-87069395D01*
X46345771Y-85935623D01*
X46219896Y-85645685D01*
X45887738Y-85479861D01*
X45529613Y-85382025D01*
X45159281Y-85355935D01*
X44790975Y-85402595D01*
X44438849Y-85520211D01*
X44204104Y-85645685D01*
X44078229Y-85935623D01*
X43205000Y-85935623D01*
X43205000Y-81895000D01*
X43331928Y-81895000D01*
X43344188Y-82019482D01*
X43380498Y-82139180D01*
X43439463Y-82249494D01*
X43518815Y-82346185D01*
X43615506Y-82425537D01*
X43725820Y-82484502D01*
X43845518Y-82520812D01*
X43970000Y-82533072D01*
X45684250Y-82530000D01*
X45843000Y-82371250D01*
X45843000Y-80772000D01*
X46097000Y-80772000D01*
X46097000Y-82371250D01*
X46255750Y-82530000D01*
X47970000Y-82533072D01*
X48094482Y-82520812D01*
X48214180Y-82484502D01*
X48324494Y-82425537D01*
X48421185Y-82346185D01*
X48500537Y-82249494D01*
X48559502Y-82139180D01*
X48595812Y-82019482D01*
X48608072Y-81895000D01*
X48605000Y-80930750D01*
X48446250Y-80772000D01*
X46097000Y-80772000D01*
X45843000Y-80772000D01*
X43493750Y-80772000D01*
X43335000Y-80930750D01*
X43331928Y-81895000D01*
X43205000Y-81895000D01*
X43205000Y-79395000D01*
X43331928Y-79395000D01*
X43335000Y-80359250D01*
X43493750Y-80518000D01*
X45843000Y-80518000D01*
X45843000Y-78918750D01*
X46097000Y-78918750D01*
X46097000Y-80518000D01*
X48446250Y-80518000D01*
X48605000Y-80359250D01*
X48608072Y-79395000D01*
X48595812Y-79270518D01*
X48559502Y-79150820D01*
X48500537Y-79040506D01*
X48421185Y-78943815D01*
X48324494Y-78864463D01*
X48214180Y-78805498D01*
X48094482Y-78769188D01*
X47970000Y-78756928D01*
X46255750Y-78760000D01*
X46097000Y-78918750D01*
X45843000Y-78918750D01*
X45684250Y-78760000D01*
X43970000Y-78756928D01*
X43845518Y-78769188D01*
X43725820Y-78805498D01*
X43615506Y-78864463D01*
X43518815Y-78943815D01*
X43439463Y-79040506D01*
X43380498Y-79150820D01*
X43344188Y-79270518D01*
X43331928Y-79395000D01*
X43205000Y-79395000D01*
X43205000Y-67248000D01*
X43989428Y-67248000D01*
X44001688Y-67372482D01*
X44037998Y-67492180D01*
X44096963Y-67602494D01*
X44176315Y-67699185D01*
X44273006Y-67778537D01*
X44383320Y-67837502D01*
X44503018Y-67873812D01*
X44627500Y-67886072D01*
X44829250Y-67883000D01*
X44988000Y-67724250D01*
X44988000Y-66675000D01*
X44151250Y-66675000D01*
X43992500Y-66833750D01*
X43989428Y-67248000D01*
X43205000Y-67248000D01*
X43205000Y-65848000D01*
X43989428Y-65848000D01*
X43992500Y-66262250D01*
X44151250Y-66421000D01*
X44988000Y-66421000D01*
X44988000Y-65371750D01*
X44829250Y-65213000D01*
X44627500Y-65209928D01*
X44503018Y-65222188D01*
X44383320Y-65258498D01*
X44273006Y-65317463D01*
X44176315Y-65396815D01*
X44096963Y-65493506D01*
X44037998Y-65603820D01*
X44001688Y-65723518D01*
X43989428Y-65848000D01*
X43205000Y-65848000D01*
X43205000Y-59647476D01*
X43251820Y-59672502D01*
X43371518Y-59708812D01*
X43496000Y-59721072D01*
X43910250Y-59718000D01*
X44069000Y-59559250D01*
X44069000Y-58722500D01*
X44049000Y-58722500D01*
X44049000Y-58468500D01*
X44069000Y-58468500D01*
X44069000Y-58448500D01*
X44323000Y-58448500D01*
X44323000Y-58468500D01*
X45372250Y-58468500D01*
X45531000Y-58309750D01*
X45534072Y-58108000D01*
X45527276Y-58039000D01*
X45902750Y-58039000D01*
X45749294Y-58225986D01*
G36*
X47879000Y-68361464D02*
G01*
X47870000Y-68344627D01*
X47870000Y-67612307D01*
X47879000Y-67601341D01*
X47879000Y-68361464D01*
X47879000Y-68361464D01*
G37*
X47879000Y-68361464D02*
X47870000Y-68344627D01*
X47870000Y-67612307D01*
X47879000Y-67601341D01*
X47879000Y-68361464D01*
G36*
X58395000Y-82423000D02*
G01*
X58010195Y-82423000D01*
X58015812Y-82404482D01*
X58028072Y-82280000D01*
X58025000Y-81940750D01*
X57866250Y-81782000D01*
X56642000Y-81782000D01*
X56642000Y-81802000D01*
X56388000Y-81802000D01*
X56388000Y-81782000D01*
X55163750Y-81782000D01*
X55005000Y-81940750D01*
X55001928Y-82280000D01*
X55014188Y-82404482D01*
X55019805Y-82423000D01*
X54427585Y-82423000D01*
X54521185Y-82346185D01*
X54600537Y-82249494D01*
X54659502Y-82139180D01*
X54695812Y-82019482D01*
X54708072Y-81895000D01*
X54705317Y-81030000D01*
X55001928Y-81030000D01*
X55005000Y-81369250D01*
X55163750Y-81528000D01*
X56388000Y-81528000D01*
X56388000Y-80553750D01*
X56642000Y-80553750D01*
X56642000Y-81528000D01*
X57866250Y-81528000D01*
X58025000Y-81369250D01*
X58028072Y-81030000D01*
X58015812Y-80905518D01*
X57979502Y-80785820D01*
X57920537Y-80675506D01*
X57841185Y-80578815D01*
X57744494Y-80499463D01*
X57634180Y-80440498D01*
X57514482Y-80404188D01*
X57390000Y-80391928D01*
X56800750Y-80395000D01*
X56642000Y-80553750D01*
X56388000Y-80553750D01*
X56229250Y-80395000D01*
X55640000Y-80391928D01*
X55515518Y-80404188D01*
X55395820Y-80440498D01*
X55285506Y-80499463D01*
X55188815Y-80578815D01*
X55109463Y-80675506D01*
X55050498Y-80785820D01*
X55014188Y-80905518D01*
X55001928Y-81030000D01*
X54705317Y-81030000D01*
X54705000Y-80930750D01*
X54546250Y-80772000D01*
X52197000Y-80772000D01*
X52197000Y-80792000D01*
X51943000Y-80792000D01*
X51943000Y-80772000D01*
X51923000Y-80772000D01*
X51923000Y-80518000D01*
X51943000Y-80518000D01*
X51943000Y-80498000D01*
X52197000Y-80498000D01*
X52197000Y-80518000D01*
X54546250Y-80518000D01*
X54705000Y-80359250D01*
X54708072Y-79395000D01*
X54695812Y-79270518D01*
X54659502Y-79150820D01*
X54644286Y-79122354D01*
X56134115Y-79121000D01*
X56158890Y-79118537D01*
X56182707Y-79111288D01*
X56204653Y-79099532D01*
X56223884Y-79083721D01*
X56239661Y-79064461D01*
X56251377Y-79042494D01*
X56258582Y-79018663D01*
X56261000Y-78994000D01*
X56261000Y-78801276D01*
X56330000Y-78808072D01*
X56531750Y-78805000D01*
X56690500Y-78646250D01*
X56690500Y-77597000D01*
X56944500Y-77597000D01*
X56944500Y-78646250D01*
X57103250Y-78805000D01*
X57305000Y-78808072D01*
X57429482Y-78795812D01*
X57549180Y-78759502D01*
X57659494Y-78700537D01*
X57756185Y-78621185D01*
X57835537Y-78524494D01*
X57894502Y-78414180D01*
X57930812Y-78294482D01*
X57943072Y-78170000D01*
X57940000Y-77755750D01*
X57781250Y-77597000D01*
X56944500Y-77597000D01*
X56690500Y-77597000D01*
X56670500Y-77597000D01*
X56670500Y-77343000D01*
X56690500Y-77343000D01*
X56690500Y-76293750D01*
X56944500Y-76293750D01*
X56944500Y-77343000D01*
X57781250Y-77343000D01*
X57940000Y-77184250D01*
X57943072Y-76770000D01*
X57930812Y-76645518D01*
X57894502Y-76525820D01*
X57835537Y-76415506D01*
X57756185Y-76318815D01*
X57659494Y-76239463D01*
X57549180Y-76180498D01*
X57429482Y-76144188D01*
X57305000Y-76131928D01*
X57103250Y-76135000D01*
X56944500Y-76293750D01*
X56690500Y-76293750D01*
X56531750Y-76135000D01*
X56330000Y-76131928D01*
X56261000Y-76138724D01*
X56261000Y-75907404D01*
X56624250Y-75905000D01*
X56783000Y-75746250D01*
X56783000Y-74397000D01*
X57037000Y-74397000D01*
X57037000Y-75746250D01*
X57195750Y-75905000D01*
X57660000Y-75908072D01*
X57784482Y-75895812D01*
X57904180Y-75859502D01*
X58014494Y-75800537D01*
X58111185Y-75721185D01*
X58190537Y-75624494D01*
X58249502Y-75514180D01*
X58285812Y-75394482D01*
X58298072Y-75270000D01*
X58295000Y-74555750D01*
X58136250Y-74397000D01*
X57037000Y-74397000D01*
X56783000Y-74397000D01*
X56763000Y-74397000D01*
X56763000Y-74143000D01*
X56783000Y-74143000D01*
X56783000Y-74123000D01*
X57037000Y-74123000D01*
X57037000Y-74143000D01*
X58136250Y-74143000D01*
X58295000Y-73984250D01*
X58295848Y-73787000D01*
X58395000Y-73787000D01*
X58395000Y-82423000D01*
X58395000Y-82423000D01*
G37*
X58395000Y-82423000D02*
X58010195Y-82423000D01*
X58015812Y-82404482D01*
X58028072Y-82280000D01*
X58025000Y-81940750D01*
X57866250Y-81782000D01*
X56642000Y-81782000D01*
X56642000Y-81802000D01*
X56388000Y-81802000D01*
X56388000Y-81782000D01*
X55163750Y-81782000D01*
X55005000Y-81940750D01*
X55001928Y-82280000D01*
X55014188Y-82404482D01*
X55019805Y-82423000D01*
X54427585Y-82423000D01*
X54521185Y-82346185D01*
X54600537Y-82249494D01*
X54659502Y-82139180D01*
X54695812Y-82019482D01*
X54708072Y-81895000D01*
X54705317Y-81030000D01*
X55001928Y-81030000D01*
X55005000Y-81369250D01*
X55163750Y-81528000D01*
X56388000Y-81528000D01*
X56388000Y-80553750D01*
X56642000Y-80553750D01*
X56642000Y-81528000D01*
X57866250Y-81528000D01*
X58025000Y-81369250D01*
X58028072Y-81030000D01*
X58015812Y-80905518D01*
X57979502Y-80785820D01*
X57920537Y-80675506D01*
X57841185Y-80578815D01*
X57744494Y-80499463D01*
X57634180Y-80440498D01*
X57514482Y-80404188D01*
X57390000Y-80391928D01*
X56800750Y-80395000D01*
X56642000Y-80553750D01*
X56388000Y-80553750D01*
X56229250Y-80395000D01*
X55640000Y-80391928D01*
X55515518Y-80404188D01*
X55395820Y-80440498D01*
X55285506Y-80499463D01*
X55188815Y-80578815D01*
X55109463Y-80675506D01*
X55050498Y-80785820D01*
X55014188Y-80905518D01*
X55001928Y-81030000D01*
X54705317Y-81030000D01*
X54705000Y-80930750D01*
X54546250Y-80772000D01*
X52197000Y-80772000D01*
X52197000Y-80792000D01*
X51943000Y-80792000D01*
X51943000Y-80772000D01*
X51923000Y-80772000D01*
X51923000Y-80518000D01*
X51943000Y-80518000D01*
X51943000Y-80498000D01*
X52197000Y-80498000D01*
X52197000Y-80518000D01*
X54546250Y-80518000D01*
X54705000Y-80359250D01*
X54708072Y-79395000D01*
X54695812Y-79270518D01*
X54659502Y-79150820D01*
X54644286Y-79122354D01*
X56134115Y-79121000D01*
X56158890Y-79118537D01*
X56182707Y-79111288D01*
X56204653Y-79099532D01*
X56223884Y-79083721D01*
X56239661Y-79064461D01*
X56251377Y-79042494D01*
X56258582Y-79018663D01*
X56261000Y-78994000D01*
X56261000Y-78801276D01*
X56330000Y-78808072D01*
X56531750Y-78805000D01*
X56690500Y-78646250D01*
X56690500Y-77597000D01*
X56944500Y-77597000D01*
X56944500Y-78646250D01*
X57103250Y-78805000D01*
X57305000Y-78808072D01*
X57429482Y-78795812D01*
X57549180Y-78759502D01*
X57659494Y-78700537D01*
X57756185Y-78621185D01*
X57835537Y-78524494D01*
X57894502Y-78414180D01*
X57930812Y-78294482D01*
X57943072Y-78170000D01*
X57940000Y-77755750D01*
X57781250Y-77597000D01*
X56944500Y-77597000D01*
X56690500Y-77597000D01*
X56670500Y-77597000D01*
X56670500Y-77343000D01*
X56690500Y-77343000D01*
X56690500Y-76293750D01*
X56944500Y-76293750D01*
X56944500Y-77343000D01*
X57781250Y-77343000D01*
X57940000Y-77184250D01*
X57943072Y-76770000D01*
X57930812Y-76645518D01*
X57894502Y-76525820D01*
X57835537Y-76415506D01*
X57756185Y-76318815D01*
X57659494Y-76239463D01*
X57549180Y-76180498D01*
X57429482Y-76144188D01*
X57305000Y-76131928D01*
X57103250Y-76135000D01*
X56944500Y-76293750D01*
X56690500Y-76293750D01*
X56531750Y-76135000D01*
X56330000Y-76131928D01*
X56261000Y-76138724D01*
X56261000Y-75907404D01*
X56624250Y-75905000D01*
X56783000Y-75746250D01*
X56783000Y-74397000D01*
X57037000Y-74397000D01*
X57037000Y-75746250D01*
X57195750Y-75905000D01*
X57660000Y-75908072D01*
X57784482Y-75895812D01*
X57904180Y-75859502D01*
X58014494Y-75800537D01*
X58111185Y-75721185D01*
X58190537Y-75624494D01*
X58249502Y-75514180D01*
X58285812Y-75394482D01*
X58298072Y-75270000D01*
X58295000Y-74555750D01*
X58136250Y-74397000D01*
X57037000Y-74397000D01*
X56783000Y-74397000D01*
X56763000Y-74397000D01*
X56763000Y-74143000D01*
X56783000Y-74143000D01*
X56783000Y-74123000D01*
X57037000Y-74123000D01*
X57037000Y-74143000D01*
X58136250Y-74143000D01*
X58295000Y-73984250D01*
X58295848Y-73787000D01*
X58395000Y-73787000D01*
X58395000Y-82423000D01*
G36*
X57902869Y-54268722D02*
G01*
X58016246Y-54302953D01*
X58120819Y-54358555D01*
X58212596Y-54433407D01*
X58288091Y-54524664D01*
X58344419Y-54628844D01*
X58379440Y-54741976D01*
X58395001Y-54890031D01*
X58395000Y-72898000D01*
X58176170Y-72898000D01*
X58111185Y-72818815D01*
X58014494Y-72739463D01*
X57904180Y-72680498D01*
X57784482Y-72644188D01*
X57660000Y-72631928D01*
X56160000Y-72631928D01*
X56035518Y-72644188D01*
X55915820Y-72680498D01*
X55805506Y-72739463D01*
X55760000Y-72776809D01*
X55714494Y-72739463D01*
X55604180Y-72680498D01*
X55484482Y-72644188D01*
X55360000Y-72631928D01*
X54895750Y-72635000D01*
X54737000Y-72793750D01*
X54737000Y-72898000D01*
X54483000Y-72898000D01*
X54483000Y-72793750D01*
X54324250Y-72635000D01*
X53860000Y-72631928D01*
X53735518Y-72644188D01*
X53615820Y-72680498D01*
X53505506Y-72739463D01*
X53460000Y-72776809D01*
X53414494Y-72739463D01*
X53304180Y-72680498D01*
X53184482Y-72644188D01*
X53060000Y-72631928D01*
X51560000Y-72631928D01*
X51435518Y-72644188D01*
X51315820Y-72680498D01*
X51205506Y-72739463D01*
X51108815Y-72818815D01*
X51043830Y-72898000D01*
X50867927Y-72898000D01*
X50865000Y-72705750D01*
X50706250Y-72547000D01*
X49657000Y-72547000D01*
X49657000Y-72567000D01*
X49403000Y-72567000D01*
X49403000Y-72547000D01*
X49383000Y-72547000D01*
X49383000Y-72293000D01*
X49403000Y-72293000D01*
X49403000Y-71456250D01*
X49384250Y-71437500D01*
X49403000Y-71418750D01*
X49403000Y-70582000D01*
X49657000Y-70582000D01*
X49657000Y-71418750D01*
X49675750Y-71437500D01*
X49657000Y-71456250D01*
X49657000Y-72293000D01*
X50706250Y-72293000D01*
X50865000Y-72134250D01*
X50868072Y-71932500D01*
X50855812Y-71808018D01*
X50819502Y-71688320D01*
X50760537Y-71578006D01*
X50681185Y-71481315D01*
X50627796Y-71437500D01*
X50681185Y-71393685D01*
X50760537Y-71296994D01*
X50819502Y-71186680D01*
X50855812Y-71066982D01*
X50868072Y-70942500D01*
X50865000Y-70740750D01*
X50706250Y-70582000D01*
X49657000Y-70582000D01*
X49403000Y-70582000D01*
X49383000Y-70582000D01*
X49383000Y-70328000D01*
X49403000Y-70328000D01*
X49403000Y-70308000D01*
X49657000Y-70308000D01*
X49657000Y-70328000D01*
X50706250Y-70328000D01*
X50865000Y-70169250D01*
X50868072Y-69967500D01*
X50855812Y-69843018D01*
X50819502Y-69723320D01*
X50760537Y-69613006D01*
X50681185Y-69516315D01*
X50603436Y-69452508D01*
X50609792Y-69447292D01*
X50719458Y-69313664D01*
X50800947Y-69161209D01*
X50851128Y-68995785D01*
X50853667Y-68970000D01*
X52071928Y-68970000D01*
X52084188Y-69094482D01*
X52120498Y-69214180D01*
X52179463Y-69324494D01*
X52258815Y-69421185D01*
X52355506Y-69500537D01*
X52465820Y-69559502D01*
X52585518Y-69595812D01*
X52710000Y-69608072D01*
X54324250Y-69605000D01*
X54483000Y-69446250D01*
X54483000Y-68097000D01*
X54737000Y-68097000D01*
X54737000Y-69446250D01*
X54895750Y-69605000D01*
X56510000Y-69608072D01*
X56634482Y-69595812D01*
X56754180Y-69559502D01*
X56864494Y-69500537D01*
X56961185Y-69421185D01*
X57040537Y-69324494D01*
X57099502Y-69214180D01*
X57135812Y-69094482D01*
X57148072Y-68970000D01*
X57145000Y-68255750D01*
X56986250Y-68097000D01*
X54737000Y-68097000D01*
X54483000Y-68097000D01*
X52233750Y-68097000D01*
X52075000Y-68255750D01*
X52071928Y-68970000D01*
X50853667Y-68970000D01*
X50868072Y-68823750D01*
X50868072Y-68336250D01*
X50851128Y-68164215D01*
X50800947Y-67998791D01*
X50719458Y-67846336D01*
X50609792Y-67712708D01*
X50476164Y-67603042D01*
X50323709Y-67521553D01*
X50158285Y-67471372D01*
X49986250Y-67454428D01*
X49073750Y-67454428D01*
X48901715Y-67471372D01*
X48883394Y-67476930D01*
X48885772Y-65413072D01*
X49298000Y-65413072D01*
X49347405Y-65408206D01*
X49776437Y-65837239D01*
X49800236Y-65866238D01*
X49829234Y-65890036D01*
X49915960Y-65961211D01*
X50003494Y-66007999D01*
X50047990Y-66031783D01*
X50191251Y-66075240D01*
X50302904Y-66086237D01*
X50302914Y-66086237D01*
X50340237Y-66089913D01*
X50377560Y-66086237D01*
X53585941Y-66086237D01*
X53623263Y-66089913D01*
X53633491Y-66088906D01*
X53645708Y-66103792D01*
X53779336Y-66213458D01*
X53931791Y-66294947D01*
X54062184Y-66334501D01*
X52710000Y-66331928D01*
X52585518Y-66344188D01*
X52465820Y-66380498D01*
X52355506Y-66439463D01*
X52258815Y-66518815D01*
X52179463Y-66615506D01*
X52120498Y-66725820D01*
X52084188Y-66845518D01*
X52071928Y-66970000D01*
X52075000Y-67684250D01*
X52233750Y-67843000D01*
X54483000Y-67843000D01*
X54483000Y-67823000D01*
X54737000Y-67823000D01*
X54737000Y-67843000D01*
X56986250Y-67843000D01*
X57145000Y-67684250D01*
X57148072Y-66970000D01*
X57135812Y-66845518D01*
X57099502Y-66725820D01*
X57040537Y-66615506D01*
X56961185Y-66518815D01*
X56864494Y-66439463D01*
X56754180Y-66380498D01*
X56683816Y-66359153D01*
X56875500Y-66362072D01*
X56999982Y-66349812D01*
X57119680Y-66313502D01*
X57229994Y-66254537D01*
X57326685Y-66175185D01*
X57406037Y-66078494D01*
X57465002Y-65968180D01*
X57501312Y-65848482D01*
X57513572Y-65724000D01*
X57510500Y-65309750D01*
X57351750Y-65151000D01*
X56515000Y-65151000D01*
X56515000Y-65171000D01*
X56261000Y-65171000D01*
X56261000Y-65151000D01*
X56241000Y-65151000D01*
X56241000Y-64897000D01*
X56261000Y-64897000D01*
X56261000Y-63847750D01*
X56515000Y-63847750D01*
X56515000Y-64897000D01*
X57351750Y-64897000D01*
X57510500Y-64738250D01*
X57513572Y-64324000D01*
X57501312Y-64199518D01*
X57465002Y-64079820D01*
X57406037Y-63969506D01*
X57326685Y-63872815D01*
X57229994Y-63793463D01*
X57119680Y-63734498D01*
X56999982Y-63698188D01*
X56875500Y-63685928D01*
X56673750Y-63689000D01*
X56515000Y-63847750D01*
X56261000Y-63847750D01*
X56102250Y-63689000D01*
X55900500Y-63685928D01*
X55776018Y-63698188D01*
X55656320Y-63734498D01*
X55546006Y-63793463D01*
X55449315Y-63872815D01*
X55385508Y-63950564D01*
X55380292Y-63944208D01*
X55246664Y-63834542D01*
X55094209Y-63753053D01*
X54928785Y-63702872D01*
X54756750Y-63685928D01*
X54269250Y-63685928D01*
X54097215Y-63702872D01*
X53931791Y-63753053D01*
X53779336Y-63834542D01*
X53645708Y-63944208D01*
X53536042Y-64077836D01*
X53454553Y-64230291D01*
X53404372Y-64395715D01*
X53396572Y-64474912D01*
X53385499Y-64483999D01*
X53361696Y-64513003D01*
X53308462Y-64566237D01*
X50821000Y-64566237D01*
X50821000Y-64463072D01*
X51498000Y-64463072D01*
X51622482Y-64450812D01*
X51742180Y-64414502D01*
X51797373Y-64385000D01*
X51954531Y-64385000D01*
X51998000Y-64389281D01*
X52041469Y-64385000D01*
X52041477Y-64385000D01*
X52171490Y-64372195D01*
X52338313Y-64321589D01*
X52492059Y-64239411D01*
X52626817Y-64128817D01*
X52654534Y-64095044D01*
X55205049Y-61544530D01*
X55238817Y-61516817D01*
X55349411Y-61382059D01*
X55431589Y-61228313D01*
X55482195Y-61061490D01*
X55495000Y-60931477D01*
X55495000Y-60931469D01*
X55499281Y-60888000D01*
X55495000Y-60844531D01*
X55495000Y-60249759D01*
X55665134Y-60110134D01*
X55850706Y-59884014D01*
X55988599Y-59626034D01*
X56073513Y-59346111D01*
X56102185Y-59055000D01*
X56073513Y-58763889D01*
X55988599Y-58483966D01*
X55850706Y-58225986D01*
X55665134Y-57999866D01*
X55635313Y-57975393D01*
X55704180Y-57954502D01*
X55814494Y-57895537D01*
X55911185Y-57816185D01*
X55990537Y-57719494D01*
X56049502Y-57609180D01*
X56085812Y-57489482D01*
X56098072Y-57365000D01*
X56098072Y-55665000D01*
X56085812Y-55540518D01*
X56049502Y-55420820D01*
X55990537Y-55310506D01*
X55911185Y-55213815D01*
X55814494Y-55134463D01*
X55704180Y-55075498D01*
X55584482Y-55039188D01*
X55460000Y-55026928D01*
X53760000Y-55026928D01*
X53635518Y-55039188D01*
X53515820Y-55075498D01*
X53405506Y-55134463D01*
X53308815Y-55213815D01*
X53229463Y-55310506D01*
X53170498Y-55420820D01*
X53146034Y-55501466D01*
X53070269Y-55417412D01*
X52836920Y-55243359D01*
X52574099Y-55118175D01*
X52426890Y-55073524D01*
X52197000Y-55194845D01*
X52197000Y-56388000D01*
X52217000Y-56388000D01*
X52217000Y-56642000D01*
X52197000Y-56642000D01*
X52197000Y-56662000D01*
X51943000Y-56662000D01*
X51943000Y-56642000D01*
X51923000Y-56642000D01*
X51923000Y-56388000D01*
X51943000Y-56388000D01*
X51943000Y-55194845D01*
X51713110Y-55073524D01*
X51565901Y-55118175D01*
X51303080Y-55243359D01*
X51069731Y-55417412D01*
X50874822Y-55633645D01*
X50805201Y-55750523D01*
X50770706Y-55685986D01*
X50585134Y-55459866D01*
X50359014Y-55274294D01*
X50101034Y-55136401D01*
X49821111Y-55051487D01*
X49602950Y-55030000D01*
X49457050Y-55030000D01*
X49238889Y-55051487D01*
X48958966Y-55136401D01*
X48700986Y-55274294D01*
X48474866Y-55459866D01*
X48289294Y-55685986D01*
X48254799Y-55750523D01*
X48185178Y-55633645D01*
X47990269Y-55417412D01*
X47756920Y-55243359D01*
X47494099Y-55118175D01*
X47346890Y-55073524D01*
X47117000Y-55194845D01*
X47117000Y-56388000D01*
X47137000Y-56388000D01*
X47137000Y-56642000D01*
X47117000Y-56642000D01*
X47117000Y-56662000D01*
X46863000Y-56662000D01*
X46863000Y-56642000D01*
X45669186Y-56642000D01*
X45548519Y-56871891D01*
X45645843Y-57146252D01*
X45723726Y-57277000D01*
X45527276Y-57277000D01*
X45534072Y-57208000D01*
X45531000Y-57006250D01*
X45372250Y-56847500D01*
X44323000Y-56847500D01*
X44323000Y-56867500D01*
X44069000Y-56867500D01*
X44069000Y-56847500D01*
X44049000Y-56847500D01*
X44049000Y-56593500D01*
X44069000Y-56593500D01*
X44069000Y-55756750D01*
X44323000Y-55756750D01*
X44323000Y-56593500D01*
X45372250Y-56593500D01*
X45531000Y-56434750D01*
X45534072Y-56233000D01*
X45526697Y-56158109D01*
X45548519Y-56158109D01*
X45669186Y-56388000D01*
X46863000Y-56388000D01*
X46863000Y-55194845D01*
X46633110Y-55073524D01*
X46485901Y-55118175D01*
X46223080Y-55243359D01*
X45989731Y-55417412D01*
X45794822Y-55633645D01*
X45645843Y-55883748D01*
X45548519Y-56158109D01*
X45526697Y-56158109D01*
X45521812Y-56108518D01*
X45485502Y-55988820D01*
X45426537Y-55878506D01*
X45347185Y-55781815D01*
X45250494Y-55702463D01*
X45140180Y-55643498D01*
X45020482Y-55607188D01*
X44896000Y-55594928D01*
X44481750Y-55598000D01*
X44323000Y-55756750D01*
X44069000Y-55756750D01*
X43910250Y-55598000D01*
X43496000Y-55594928D01*
X43371518Y-55607188D01*
X43251820Y-55643498D01*
X43205000Y-55668524D01*
X43205000Y-54896279D01*
X43219722Y-54746131D01*
X43253953Y-54632754D01*
X43309555Y-54528181D01*
X43384407Y-54436404D01*
X43475664Y-54360909D01*
X43579844Y-54304581D01*
X43692976Y-54269560D01*
X43841022Y-54254000D01*
X57752721Y-54254000D01*
X57902869Y-54268722D01*
X57902869Y-54268722D01*
G37*
X57902869Y-54268722D02*
X58016246Y-54302953D01*
X58120819Y-54358555D01*
X58212596Y-54433407D01*
X58288091Y-54524664D01*
X58344419Y-54628844D01*
X58379440Y-54741976D01*
X58395001Y-54890031D01*
X58395000Y-72898000D01*
X58176170Y-72898000D01*
X58111185Y-72818815D01*
X58014494Y-72739463D01*
X57904180Y-72680498D01*
X57784482Y-72644188D01*
X57660000Y-72631928D01*
X56160000Y-72631928D01*
X56035518Y-72644188D01*
X55915820Y-72680498D01*
X55805506Y-72739463D01*
X55760000Y-72776809D01*
X55714494Y-72739463D01*
X55604180Y-72680498D01*
X55484482Y-72644188D01*
X55360000Y-72631928D01*
X54895750Y-72635000D01*
X54737000Y-72793750D01*
X54737000Y-72898000D01*
X54483000Y-72898000D01*
X54483000Y-72793750D01*
X54324250Y-72635000D01*
X53860000Y-72631928D01*
X53735518Y-72644188D01*
X53615820Y-72680498D01*
X53505506Y-72739463D01*
X53460000Y-72776809D01*
X53414494Y-72739463D01*
X53304180Y-72680498D01*
X53184482Y-72644188D01*
X53060000Y-72631928D01*
X51560000Y-72631928D01*
X51435518Y-72644188D01*
X51315820Y-72680498D01*
X51205506Y-72739463D01*
X51108815Y-72818815D01*
X51043830Y-72898000D01*
X50867927Y-72898000D01*
X50865000Y-72705750D01*
X50706250Y-72547000D01*
X49657000Y-72547000D01*
X49657000Y-72567000D01*
X49403000Y-72567000D01*
X49403000Y-72547000D01*
X49383000Y-72547000D01*
X49383000Y-72293000D01*
X49403000Y-72293000D01*
X49403000Y-71456250D01*
X49384250Y-71437500D01*
X49403000Y-71418750D01*
X49403000Y-70582000D01*
X49657000Y-70582000D01*
X49657000Y-71418750D01*
X49675750Y-71437500D01*
X49657000Y-71456250D01*
X49657000Y-72293000D01*
X50706250Y-72293000D01*
X50865000Y-72134250D01*
X50868072Y-71932500D01*
X50855812Y-71808018D01*
X50819502Y-71688320D01*
X50760537Y-71578006D01*
X50681185Y-71481315D01*
X50627796Y-71437500D01*
X50681185Y-71393685D01*
X50760537Y-71296994D01*
X50819502Y-71186680D01*
X50855812Y-71066982D01*
X50868072Y-70942500D01*
X50865000Y-70740750D01*
X50706250Y-70582000D01*
X49657000Y-70582000D01*
X49403000Y-70582000D01*
X49383000Y-70582000D01*
X49383000Y-70328000D01*
X49403000Y-70328000D01*
X49403000Y-70308000D01*
X49657000Y-70308000D01*
X49657000Y-70328000D01*
X50706250Y-70328000D01*
X50865000Y-70169250D01*
X50868072Y-69967500D01*
X50855812Y-69843018D01*
X50819502Y-69723320D01*
X50760537Y-69613006D01*
X50681185Y-69516315D01*
X50603436Y-69452508D01*
X50609792Y-69447292D01*
X50719458Y-69313664D01*
X50800947Y-69161209D01*
X50851128Y-68995785D01*
X50853667Y-68970000D01*
X52071928Y-68970000D01*
X52084188Y-69094482D01*
X52120498Y-69214180D01*
X52179463Y-69324494D01*
X52258815Y-69421185D01*
X52355506Y-69500537D01*
X52465820Y-69559502D01*
X52585518Y-69595812D01*
X52710000Y-69608072D01*
X54324250Y-69605000D01*
X54483000Y-69446250D01*
X54483000Y-68097000D01*
X54737000Y-68097000D01*
X54737000Y-69446250D01*
X54895750Y-69605000D01*
X56510000Y-69608072D01*
X56634482Y-69595812D01*
X56754180Y-69559502D01*
X56864494Y-69500537D01*
X56961185Y-69421185D01*
X57040537Y-69324494D01*
X57099502Y-69214180D01*
X57135812Y-69094482D01*
X57148072Y-68970000D01*
X57145000Y-68255750D01*
X56986250Y-68097000D01*
X54737000Y-68097000D01*
X54483000Y-68097000D01*
X52233750Y-68097000D01*
X52075000Y-68255750D01*
X52071928Y-68970000D01*
X50853667Y-68970000D01*
X50868072Y-68823750D01*
X50868072Y-68336250D01*
X50851128Y-68164215D01*
X50800947Y-67998791D01*
X50719458Y-67846336D01*
X50609792Y-67712708D01*
X50476164Y-67603042D01*
X50323709Y-67521553D01*
X50158285Y-67471372D01*
X49986250Y-67454428D01*
X49073750Y-67454428D01*
X48901715Y-67471372D01*
X48883394Y-67476930D01*
X48885772Y-65413072D01*
X49298000Y-65413072D01*
X49347405Y-65408206D01*
X49776437Y-65837239D01*
X49800236Y-65866238D01*
X49829234Y-65890036D01*
X49915960Y-65961211D01*
X50003494Y-66007999D01*
X50047990Y-66031783D01*
X50191251Y-66075240D01*
X50302904Y-66086237D01*
X50302914Y-66086237D01*
X50340237Y-66089913D01*
X50377560Y-66086237D01*
X53585941Y-66086237D01*
X53623263Y-66089913D01*
X53633491Y-66088906D01*
X53645708Y-66103792D01*
X53779336Y-66213458D01*
X53931791Y-66294947D01*
X54062184Y-66334501D01*
X52710000Y-66331928D01*
X52585518Y-66344188D01*
X52465820Y-66380498D01*
X52355506Y-66439463D01*
X52258815Y-66518815D01*
X52179463Y-66615506D01*
X52120498Y-66725820D01*
X52084188Y-66845518D01*
X52071928Y-66970000D01*
X52075000Y-67684250D01*
X52233750Y-67843000D01*
X54483000Y-67843000D01*
X54483000Y-67823000D01*
X54737000Y-67823000D01*
X54737000Y-67843000D01*
X56986250Y-67843000D01*
X57145000Y-67684250D01*
X57148072Y-66970000D01*
X57135812Y-66845518D01*
X57099502Y-66725820D01*
X57040537Y-66615506D01*
X56961185Y-66518815D01*
X56864494Y-66439463D01*
X56754180Y-66380498D01*
X56683816Y-66359153D01*
X56875500Y-66362072D01*
X56999982Y-66349812D01*
X57119680Y-66313502D01*
X57229994Y-66254537D01*
X57326685Y-66175185D01*
X57406037Y-66078494D01*
X57465002Y-65968180D01*
X57501312Y-65848482D01*
X57513572Y-65724000D01*
X57510500Y-65309750D01*
X57351750Y-65151000D01*
X56515000Y-65151000D01*
X56515000Y-65171000D01*
X56261000Y-65171000D01*
X56261000Y-65151000D01*
X56241000Y-65151000D01*
X56241000Y-64897000D01*
X56261000Y-64897000D01*
X56261000Y-63847750D01*
X56515000Y-63847750D01*
X56515000Y-64897000D01*
X57351750Y-64897000D01*
X57510500Y-64738250D01*
X57513572Y-64324000D01*
X57501312Y-64199518D01*
X57465002Y-64079820D01*
X57406037Y-63969506D01*
X57326685Y-63872815D01*
X57229994Y-63793463D01*
X57119680Y-63734498D01*
X56999982Y-63698188D01*
X56875500Y-63685928D01*
X56673750Y-63689000D01*
X56515000Y-63847750D01*
X56261000Y-63847750D01*
X56102250Y-63689000D01*
X55900500Y-63685928D01*
X55776018Y-63698188D01*
X55656320Y-63734498D01*
X55546006Y-63793463D01*
X55449315Y-63872815D01*
X55385508Y-63950564D01*
X55380292Y-63944208D01*
X55246664Y-63834542D01*
X55094209Y-63753053D01*
X54928785Y-63702872D01*
X54756750Y-63685928D01*
X54269250Y-63685928D01*
X54097215Y-63702872D01*
X53931791Y-63753053D01*
X53779336Y-63834542D01*
X53645708Y-63944208D01*
X53536042Y-64077836D01*
X53454553Y-64230291D01*
X53404372Y-64395715D01*
X53396572Y-64474912D01*
X53385499Y-64483999D01*
X53361696Y-64513003D01*
X53308462Y-64566237D01*
X50821000Y-64566237D01*
X50821000Y-64463072D01*
X51498000Y-64463072D01*
X51622482Y-64450812D01*
X51742180Y-64414502D01*
X51797373Y-64385000D01*
X51954531Y-64385000D01*
X51998000Y-64389281D01*
X52041469Y-64385000D01*
X52041477Y-64385000D01*
X52171490Y-64372195D01*
X52338313Y-64321589D01*
X52492059Y-64239411D01*
X52626817Y-64128817D01*
X52654534Y-64095044D01*
X55205049Y-61544530D01*
X55238817Y-61516817D01*
X55349411Y-61382059D01*
X55431589Y-61228313D01*
X55482195Y-61061490D01*
X55495000Y-60931477D01*
X55495000Y-60931469D01*
X55499281Y-60888000D01*
X55495000Y-60844531D01*
X55495000Y-60249759D01*
X55665134Y-60110134D01*
X55850706Y-59884014D01*
X55988599Y-59626034D01*
X56073513Y-59346111D01*
X56102185Y-59055000D01*
X56073513Y-58763889D01*
X55988599Y-58483966D01*
X55850706Y-58225986D01*
X55665134Y-57999866D01*
X55635313Y-57975393D01*
X55704180Y-57954502D01*
X55814494Y-57895537D01*
X55911185Y-57816185D01*
X55990537Y-57719494D01*
X56049502Y-57609180D01*
X56085812Y-57489482D01*
X56098072Y-57365000D01*
X56098072Y-55665000D01*
X56085812Y-55540518D01*
X56049502Y-55420820D01*
X55990537Y-55310506D01*
X55911185Y-55213815D01*
X55814494Y-55134463D01*
X55704180Y-55075498D01*
X55584482Y-55039188D01*
X55460000Y-55026928D01*
X53760000Y-55026928D01*
X53635518Y-55039188D01*
X53515820Y-55075498D01*
X53405506Y-55134463D01*
X53308815Y-55213815D01*
X53229463Y-55310506D01*
X53170498Y-55420820D01*
X53146034Y-55501466D01*
X53070269Y-55417412D01*
X52836920Y-55243359D01*
X52574099Y-55118175D01*
X52426890Y-55073524D01*
X52197000Y-55194845D01*
X52197000Y-56388000D01*
X52217000Y-56388000D01*
X52217000Y-56642000D01*
X52197000Y-56642000D01*
X52197000Y-56662000D01*
X51943000Y-56662000D01*
X51943000Y-56642000D01*
X51923000Y-56642000D01*
X51923000Y-56388000D01*
X51943000Y-56388000D01*
X51943000Y-55194845D01*
X51713110Y-55073524D01*
X51565901Y-55118175D01*
X51303080Y-55243359D01*
X51069731Y-55417412D01*
X50874822Y-55633645D01*
X50805201Y-55750523D01*
X50770706Y-55685986D01*
X50585134Y-55459866D01*
X50359014Y-55274294D01*
X50101034Y-55136401D01*
X49821111Y-55051487D01*
X49602950Y-55030000D01*
X49457050Y-55030000D01*
X49238889Y-55051487D01*
X48958966Y-55136401D01*
X48700986Y-55274294D01*
X48474866Y-55459866D01*
X48289294Y-55685986D01*
X48254799Y-55750523D01*
X48185178Y-55633645D01*
X47990269Y-55417412D01*
X47756920Y-55243359D01*
X47494099Y-55118175D01*
X47346890Y-55073524D01*
X47117000Y-55194845D01*
X47117000Y-56388000D01*
X47137000Y-56388000D01*
X47137000Y-56642000D01*
X47117000Y-56642000D01*
X47117000Y-56662000D01*
X46863000Y-56662000D01*
X46863000Y-56642000D01*
X45669186Y-56642000D01*
X45548519Y-56871891D01*
X45645843Y-57146252D01*
X45723726Y-57277000D01*
X45527276Y-57277000D01*
X45534072Y-57208000D01*
X45531000Y-57006250D01*
X45372250Y-56847500D01*
X44323000Y-56847500D01*
X44323000Y-56867500D01*
X44069000Y-56867500D01*
X44069000Y-56847500D01*
X44049000Y-56847500D01*
X44049000Y-56593500D01*
X44069000Y-56593500D01*
X44069000Y-55756750D01*
X44323000Y-55756750D01*
X44323000Y-56593500D01*
X45372250Y-56593500D01*
X45531000Y-56434750D01*
X45534072Y-56233000D01*
X45526697Y-56158109D01*
X45548519Y-56158109D01*
X45669186Y-56388000D01*
X46863000Y-56388000D01*
X46863000Y-55194845D01*
X46633110Y-55073524D01*
X46485901Y-55118175D01*
X46223080Y-55243359D01*
X45989731Y-55417412D01*
X45794822Y-55633645D01*
X45645843Y-55883748D01*
X45548519Y-56158109D01*
X45526697Y-56158109D01*
X45521812Y-56108518D01*
X45485502Y-55988820D01*
X45426537Y-55878506D01*
X45347185Y-55781815D01*
X45250494Y-55702463D01*
X45140180Y-55643498D01*
X45020482Y-55607188D01*
X44896000Y-55594928D01*
X44481750Y-55598000D01*
X44323000Y-55756750D01*
X44069000Y-55756750D01*
X43910250Y-55598000D01*
X43496000Y-55594928D01*
X43371518Y-55607188D01*
X43251820Y-55643498D01*
X43205000Y-55668524D01*
X43205000Y-54896279D01*
X43219722Y-54746131D01*
X43253953Y-54632754D01*
X43309555Y-54528181D01*
X43384407Y-54436404D01*
X43475664Y-54360909D01*
X43579844Y-54304581D01*
X43692976Y-54269560D01*
X43841022Y-54254000D01*
X57752721Y-54254000D01*
X57902869Y-54268722D01*
G36*
X55188815Y-83378815D02*
G01*
X55109463Y-83475506D01*
X55050498Y-83585820D01*
X55014188Y-83705518D01*
X55001928Y-83830000D01*
X55005000Y-84169250D01*
X55163750Y-84328000D01*
X56388000Y-84328000D01*
X56388000Y-84308000D01*
X56642000Y-84308000D01*
X56642000Y-84328000D01*
X57866250Y-84328000D01*
X58025000Y-84169250D01*
X58028072Y-83830000D01*
X58015812Y-83705518D01*
X57979502Y-83585820D01*
X57920537Y-83475506D01*
X57841185Y-83378815D01*
X57759770Y-83312000D01*
X58395000Y-83312000D01*
X58395000Y-85611662D01*
X58342865Y-85548135D01*
X58246174Y-85468783D01*
X58135860Y-85409818D01*
X58016162Y-85373508D01*
X57956287Y-85367611D01*
X57979502Y-85324180D01*
X58015812Y-85204482D01*
X58028072Y-85080000D01*
X58025000Y-84740750D01*
X57866250Y-84582000D01*
X56642000Y-84582000D01*
X56642000Y-85364320D01*
X56514998Y-85364320D01*
X56514998Y-85523068D01*
X56388000Y-85396070D01*
X56388000Y-84582000D01*
X55163750Y-84582000D01*
X55005000Y-84740750D01*
X55001928Y-85080000D01*
X55014188Y-85204482D01*
X55050498Y-85324180D01*
X55107799Y-85431381D01*
X55037826Y-85468783D01*
X54941135Y-85548135D01*
X54861783Y-85644826D01*
X54802818Y-85755140D01*
X54766508Y-85874838D01*
X54754248Y-85999320D01*
X54757320Y-86963250D01*
X54916070Y-87122000D01*
X56515000Y-87122000D01*
X56515000Y-87102000D01*
X56769000Y-87102000D01*
X56769000Y-87122000D01*
X56789000Y-87122000D01*
X56789000Y-87376000D01*
X56769000Y-87376000D01*
X56769000Y-88974930D01*
X56927750Y-89133680D01*
X57891680Y-89136752D01*
X58016162Y-89124492D01*
X58135860Y-89088182D01*
X58246174Y-89029217D01*
X58342865Y-88949865D01*
X58395000Y-88886338D01*
X58395000Y-89375721D01*
X58380278Y-89525869D01*
X58346047Y-89639246D01*
X58290446Y-89743817D01*
X58215594Y-89835595D01*
X58124335Y-89911091D01*
X58020160Y-89967419D01*
X57907024Y-90002440D01*
X57758979Y-90018000D01*
X54737000Y-90018000D01*
X54737000Y-88498680D01*
X54754248Y-88498680D01*
X54766508Y-88623162D01*
X54802818Y-88742860D01*
X54861783Y-88853174D01*
X54941135Y-88949865D01*
X55037826Y-89029217D01*
X55148140Y-89088182D01*
X55267838Y-89124492D01*
X55392320Y-89136752D01*
X56356250Y-89133680D01*
X56515000Y-88974930D01*
X56515000Y-87376000D01*
X54916070Y-87376000D01*
X54757320Y-87534750D01*
X54754248Y-88498680D01*
X54737000Y-88498680D01*
X54737000Y-83312000D01*
X55270230Y-83312000D01*
X55188815Y-83378815D01*
X55188815Y-83378815D01*
G37*
X55188815Y-83378815D02*
X55109463Y-83475506D01*
X55050498Y-83585820D01*
X55014188Y-83705518D01*
X55001928Y-83830000D01*
X55005000Y-84169250D01*
X55163750Y-84328000D01*
X56388000Y-84328000D01*
X56388000Y-84308000D01*
X56642000Y-84308000D01*
X56642000Y-84328000D01*
X57866250Y-84328000D01*
X58025000Y-84169250D01*
X58028072Y-83830000D01*
X58015812Y-83705518D01*
X57979502Y-83585820D01*
X57920537Y-83475506D01*
X57841185Y-83378815D01*
X57759770Y-83312000D01*
X58395000Y-83312000D01*
X58395000Y-85611662D01*
X58342865Y-85548135D01*
X58246174Y-85468783D01*
X58135860Y-85409818D01*
X58016162Y-85373508D01*
X57956287Y-85367611D01*
X57979502Y-85324180D01*
X58015812Y-85204482D01*
X58028072Y-85080000D01*
X58025000Y-84740750D01*
X57866250Y-84582000D01*
X56642000Y-84582000D01*
X56642000Y-85364320D01*
X56514998Y-85364320D01*
X56514998Y-85523068D01*
X56388000Y-85396070D01*
X56388000Y-84582000D01*
X55163750Y-84582000D01*
X55005000Y-84740750D01*
X55001928Y-85080000D01*
X55014188Y-85204482D01*
X55050498Y-85324180D01*
X55107799Y-85431381D01*
X55037826Y-85468783D01*
X54941135Y-85548135D01*
X54861783Y-85644826D01*
X54802818Y-85755140D01*
X54766508Y-85874838D01*
X54754248Y-85999320D01*
X54757320Y-86963250D01*
X54916070Y-87122000D01*
X56515000Y-87122000D01*
X56515000Y-87102000D01*
X56769000Y-87102000D01*
X56769000Y-87122000D01*
X56789000Y-87122000D01*
X56789000Y-87376000D01*
X56769000Y-87376000D01*
X56769000Y-88974930D01*
X56927750Y-89133680D01*
X57891680Y-89136752D01*
X58016162Y-89124492D01*
X58135860Y-89088182D01*
X58246174Y-89029217D01*
X58342865Y-88949865D01*
X58395000Y-88886338D01*
X58395000Y-89375721D01*
X58380278Y-89525869D01*
X58346047Y-89639246D01*
X58290446Y-89743817D01*
X58215594Y-89835595D01*
X58124335Y-89911091D01*
X58020160Y-89967419D01*
X57907024Y-90002440D01*
X57758979Y-90018000D01*
X54737000Y-90018000D01*
X54737000Y-88498680D01*
X54754248Y-88498680D01*
X54766508Y-88623162D01*
X54802818Y-88742860D01*
X54861783Y-88853174D01*
X54941135Y-88949865D01*
X55037826Y-89029217D01*
X55148140Y-89088182D01*
X55267838Y-89124492D01*
X55392320Y-89136752D01*
X56356250Y-89133680D01*
X56515000Y-88974930D01*
X56515000Y-87376000D01*
X54916070Y-87376000D01*
X54757320Y-87534750D01*
X54754248Y-88498680D01*
X54737000Y-88498680D01*
X54737000Y-83312000D01*
X55270230Y-83312000D01*
X55188815Y-83378815D01*
M02*
