G04 #@! TF.GenerationSoftware,KiCad,Pcbnew,(5.1.2-1)-1*
G04 #@! TF.CreationDate,2019-12-06T10:29:21-08:00*
G04 #@! TF.ProjectId,pixel-stick,70697865-6c2d-4737-9469-636b2e6b6963,rev?*
G04 #@! TF.SameCoordinates,Original*
G04 #@! TF.FileFunction,Soldermask,Top*
G04 #@! TF.FilePolarity,Negative*
%FSLAX46Y46*%
G04 Gerber Fmt 4.6, Leading zero omitted, Abs format (unit mm)*
G04 Created by KiCad (PCBNEW (5.1.2-1)-1) date 2019-12-06 10:29:21*
%MOMM*%
%LPD*%
G04 APERTURE LIST*
%ADD10C,0.100000*%
G04 APERTURE END LIST*
D10*
G36*
X57942680Y-88549680D02*
G01*
X55341320Y-88549680D01*
X55341320Y-85948320D01*
X57942680Y-85948320D01*
X57942680Y-88549680D01*
X57942680Y-88549680D01*
G37*
G36*
X53211393Y-85998304D02*
G01*
X53448101Y-86096352D01*
X53448103Y-86096353D01*
X53661135Y-86238696D01*
X53842304Y-86419865D01*
X53984647Y-86632897D01*
X53984648Y-86632899D01*
X54082696Y-86869607D01*
X54132680Y-87120893D01*
X54132680Y-87377107D01*
X54082696Y-87628393D01*
X53984648Y-87865101D01*
X53984647Y-87865103D01*
X53842304Y-88078135D01*
X53661135Y-88259304D01*
X53448103Y-88401647D01*
X53448102Y-88401648D01*
X53448101Y-88401648D01*
X53211393Y-88499696D01*
X52960107Y-88549680D01*
X52703893Y-88549680D01*
X52452607Y-88499696D01*
X52215899Y-88401648D01*
X52215898Y-88401648D01*
X52215897Y-88401647D01*
X52002865Y-88259304D01*
X51821696Y-88078135D01*
X51679353Y-87865103D01*
X51679352Y-87865101D01*
X51581304Y-87628393D01*
X51531320Y-87377107D01*
X51531320Y-87120893D01*
X51581304Y-86869607D01*
X51679352Y-86632899D01*
X51679353Y-86632897D01*
X51821696Y-86419865D01*
X52002865Y-86238696D01*
X52215897Y-86096353D01*
X52215899Y-86096352D01*
X52452607Y-85998304D01*
X52703893Y-85948320D01*
X52960107Y-85948320D01*
X53211393Y-85998304D01*
X53211393Y-85998304D01*
G37*
G36*
X49401393Y-85998304D02*
G01*
X49638101Y-86096352D01*
X49638103Y-86096353D01*
X49851135Y-86238696D01*
X50032304Y-86419865D01*
X50174647Y-86632897D01*
X50174648Y-86632899D01*
X50272696Y-86869607D01*
X50322680Y-87120893D01*
X50322680Y-87377107D01*
X50272696Y-87628393D01*
X50174648Y-87865101D01*
X50174647Y-87865103D01*
X50032304Y-88078135D01*
X49851135Y-88259304D01*
X49638103Y-88401647D01*
X49638102Y-88401648D01*
X49638101Y-88401648D01*
X49401393Y-88499696D01*
X49150107Y-88549680D01*
X48893893Y-88549680D01*
X48642607Y-88499696D01*
X48405899Y-88401648D01*
X48405898Y-88401648D01*
X48405897Y-88401647D01*
X48192865Y-88259304D01*
X48011696Y-88078135D01*
X47869353Y-87865103D01*
X47869352Y-87865101D01*
X47771304Y-87628393D01*
X47721320Y-87377107D01*
X47721320Y-87120893D01*
X47771304Y-86869607D01*
X47869352Y-86632899D01*
X47869353Y-86632897D01*
X48011696Y-86419865D01*
X48192865Y-86238696D01*
X48405897Y-86096353D01*
X48405899Y-86096352D01*
X48642607Y-85998304D01*
X48893893Y-85948320D01*
X49150107Y-85948320D01*
X49401393Y-85998304D01*
X49401393Y-85998304D01*
G37*
G36*
X45591393Y-85998304D02*
G01*
X45828101Y-86096352D01*
X45828103Y-86096353D01*
X46041135Y-86238696D01*
X46222304Y-86419865D01*
X46364647Y-86632897D01*
X46364648Y-86632899D01*
X46462696Y-86869607D01*
X46512680Y-87120893D01*
X46512680Y-87377107D01*
X46462696Y-87628393D01*
X46364648Y-87865101D01*
X46364647Y-87865103D01*
X46222304Y-88078135D01*
X46041135Y-88259304D01*
X45828103Y-88401647D01*
X45828102Y-88401648D01*
X45828101Y-88401648D01*
X45591393Y-88499696D01*
X45340107Y-88549680D01*
X45083893Y-88549680D01*
X44832607Y-88499696D01*
X44595899Y-88401648D01*
X44595898Y-88401648D01*
X44595897Y-88401647D01*
X44382865Y-88259304D01*
X44201696Y-88078135D01*
X44059353Y-87865103D01*
X44059352Y-87865101D01*
X43961304Y-87628393D01*
X43911320Y-87377107D01*
X43911320Y-87120893D01*
X43961304Y-86869607D01*
X44059352Y-86632899D01*
X44059353Y-86632897D01*
X44201696Y-86419865D01*
X44382865Y-86238696D01*
X44595897Y-86096353D01*
X44595899Y-86096352D01*
X44832607Y-85998304D01*
X45083893Y-85948320D01*
X45340107Y-85948320D01*
X45591393Y-85998304D01*
X45591393Y-85998304D01*
G37*
G36*
X57283604Y-83783347D02*
G01*
X57320144Y-83794432D01*
X57353821Y-83812433D01*
X57383341Y-83836659D01*
X57407567Y-83866179D01*
X57425568Y-83899856D01*
X57436653Y-83936396D01*
X57441000Y-83980538D01*
X57441000Y-84929462D01*
X57436653Y-84973604D01*
X57425568Y-85010144D01*
X57407567Y-85043821D01*
X57383341Y-85073341D01*
X57353821Y-85097567D01*
X57320144Y-85115568D01*
X57283604Y-85126653D01*
X57239462Y-85131000D01*
X55790538Y-85131000D01*
X55746396Y-85126653D01*
X55709856Y-85115568D01*
X55676179Y-85097567D01*
X55646659Y-85073341D01*
X55622433Y-85043821D01*
X55604432Y-85010144D01*
X55593347Y-84973604D01*
X55589000Y-84929462D01*
X55589000Y-83980538D01*
X55593347Y-83936396D01*
X55604432Y-83899856D01*
X55622433Y-83866179D01*
X55646659Y-83836659D01*
X55676179Y-83812433D01*
X55709856Y-83794432D01*
X55746396Y-83783347D01*
X55790538Y-83779000D01*
X57239462Y-83779000D01*
X57283604Y-83783347D01*
X57283604Y-83783347D01*
G37*
G36*
X57283604Y-80983347D02*
G01*
X57320144Y-80994432D01*
X57353821Y-81012433D01*
X57383341Y-81036659D01*
X57407567Y-81066179D01*
X57425568Y-81099856D01*
X57436653Y-81136396D01*
X57441000Y-81180538D01*
X57441000Y-82129462D01*
X57436653Y-82173604D01*
X57425568Y-82210144D01*
X57407567Y-82243821D01*
X57383341Y-82273341D01*
X57353821Y-82297567D01*
X57320144Y-82315568D01*
X57283604Y-82326653D01*
X57239462Y-82331000D01*
X55790538Y-82331000D01*
X55746396Y-82326653D01*
X55709856Y-82315568D01*
X55676179Y-82297567D01*
X55646659Y-82273341D01*
X55622433Y-82243821D01*
X55604432Y-82210144D01*
X55593347Y-82173604D01*
X55589000Y-82129462D01*
X55589000Y-81180538D01*
X55593347Y-81136396D01*
X55604432Y-81099856D01*
X55622433Y-81066179D01*
X55646659Y-81036659D01*
X55676179Y-81012433D01*
X55709856Y-80994432D01*
X55746396Y-80983347D01*
X55790538Y-80979000D01*
X57239462Y-80979000D01*
X57283604Y-80983347D01*
X57283604Y-80983347D01*
G37*
G36*
X53991934Y-79347671D02*
G01*
X54021877Y-79356754D01*
X54049465Y-79371500D01*
X54073651Y-79391349D01*
X54093500Y-79415535D01*
X54108246Y-79443123D01*
X54117329Y-79473066D01*
X54121000Y-79510340D01*
X54121000Y-81779660D01*
X54117329Y-81816934D01*
X54108246Y-81846877D01*
X54093500Y-81874465D01*
X54073651Y-81898651D01*
X54049465Y-81918500D01*
X54021877Y-81933246D01*
X53991934Y-81942329D01*
X53954660Y-81946000D01*
X50185340Y-81946000D01*
X50148066Y-81942329D01*
X50118123Y-81933246D01*
X50090535Y-81918500D01*
X50066349Y-81898651D01*
X50046500Y-81874465D01*
X50031754Y-81846877D01*
X50022671Y-81816934D01*
X50019000Y-81779660D01*
X50019000Y-79510340D01*
X50022671Y-79473066D01*
X50031754Y-79443123D01*
X50046500Y-79415535D01*
X50066349Y-79391349D01*
X50090535Y-79371500D01*
X50118123Y-79356754D01*
X50148066Y-79347671D01*
X50185340Y-79344000D01*
X53954660Y-79344000D01*
X53991934Y-79347671D01*
X53991934Y-79347671D01*
G37*
G36*
X47891934Y-79347671D02*
G01*
X47921877Y-79356754D01*
X47949465Y-79371500D01*
X47973651Y-79391349D01*
X47993500Y-79415535D01*
X48008246Y-79443123D01*
X48017329Y-79473066D01*
X48021000Y-79510340D01*
X48021000Y-81779660D01*
X48017329Y-81816934D01*
X48008246Y-81846877D01*
X47993500Y-81874465D01*
X47973651Y-81898651D01*
X47949465Y-81918500D01*
X47921877Y-81933246D01*
X47891934Y-81942329D01*
X47854660Y-81946000D01*
X44085340Y-81946000D01*
X44048066Y-81942329D01*
X44018123Y-81933246D01*
X43990535Y-81918500D01*
X43966349Y-81898651D01*
X43946500Y-81874465D01*
X43931754Y-81846877D01*
X43922671Y-81816934D01*
X43919000Y-81779660D01*
X43919000Y-79510340D01*
X43922671Y-79473066D01*
X43931754Y-79443123D01*
X43946500Y-79415535D01*
X43966349Y-79391349D01*
X43990535Y-79371500D01*
X44018123Y-79356754D01*
X44048066Y-79347671D01*
X44085340Y-79344000D01*
X47854660Y-79344000D01*
X47891934Y-79347671D01*
X47891934Y-79347671D01*
G37*
G36*
X57189468Y-76723565D02*
G01*
X57228138Y-76735296D01*
X57263777Y-76754346D01*
X57295017Y-76779983D01*
X57320654Y-76811223D01*
X57339704Y-76846862D01*
X57351435Y-76885532D01*
X57356000Y-76931888D01*
X57356000Y-78008112D01*
X57351435Y-78054468D01*
X57339704Y-78093138D01*
X57320654Y-78128777D01*
X57295017Y-78160017D01*
X57263777Y-78185654D01*
X57228138Y-78204704D01*
X57189468Y-78216435D01*
X57143112Y-78221000D01*
X56491888Y-78221000D01*
X56445532Y-78216435D01*
X56406862Y-78204704D01*
X56371223Y-78185654D01*
X56339983Y-78160017D01*
X56314346Y-78128777D01*
X56295296Y-78093138D01*
X56283565Y-78054468D01*
X56279000Y-78008112D01*
X56279000Y-76931888D01*
X56283565Y-76885532D01*
X56295296Y-76846862D01*
X56314346Y-76811223D01*
X56339983Y-76779983D01*
X56371223Y-76754346D01*
X56406862Y-76735296D01*
X56445532Y-76723565D01*
X56491888Y-76719000D01*
X57143112Y-76719000D01*
X57189468Y-76723565D01*
X57189468Y-76723565D01*
G37*
G36*
X55314468Y-76723565D02*
G01*
X55353138Y-76735296D01*
X55388777Y-76754346D01*
X55420017Y-76779983D01*
X55445654Y-76811223D01*
X55464704Y-76846862D01*
X55476435Y-76885532D01*
X55481000Y-76931888D01*
X55481000Y-78008112D01*
X55476435Y-78054468D01*
X55464704Y-78093138D01*
X55445654Y-78128777D01*
X55420017Y-78160017D01*
X55388777Y-78185654D01*
X55353138Y-78204704D01*
X55314468Y-78216435D01*
X55268112Y-78221000D01*
X54616888Y-78221000D01*
X54570532Y-78216435D01*
X54531862Y-78204704D01*
X54496223Y-78185654D01*
X54464983Y-78160017D01*
X54439346Y-78128777D01*
X54420296Y-78093138D01*
X54408565Y-78054468D01*
X54404000Y-78008112D01*
X54404000Y-76931888D01*
X54408565Y-76885532D01*
X54420296Y-76846862D01*
X54439346Y-76811223D01*
X54464983Y-76779983D01*
X54496223Y-76754346D01*
X54531862Y-76735296D01*
X54570532Y-76723565D01*
X54616888Y-76719000D01*
X55268112Y-76719000D01*
X55314468Y-76723565D01*
X55314468Y-76723565D01*
G37*
G36*
X55411000Y-75321000D02*
G01*
X53809000Y-75321000D01*
X53809000Y-73219000D01*
X55411000Y-73219000D01*
X55411000Y-75321000D01*
X55411000Y-75321000D01*
G37*
G36*
X57711000Y-75321000D02*
G01*
X56109000Y-75321000D01*
X56109000Y-73219000D01*
X57711000Y-73219000D01*
X57711000Y-75321000D01*
X57711000Y-75321000D01*
G37*
G36*
X53111000Y-75321000D02*
G01*
X51509000Y-75321000D01*
X51509000Y-73219000D01*
X53111000Y-73219000D01*
X53111000Y-75321000D01*
X53111000Y-75321000D01*
G37*
G36*
X50114468Y-73761065D02*
G01*
X50153138Y-73772796D01*
X50188777Y-73791846D01*
X50220017Y-73817483D01*
X50245654Y-73848723D01*
X50264704Y-73884362D01*
X50276435Y-73923032D01*
X50281000Y-73969388D01*
X50281000Y-74620612D01*
X50276435Y-74666968D01*
X50264704Y-74705638D01*
X50245654Y-74741277D01*
X50220017Y-74772517D01*
X50188777Y-74798154D01*
X50153138Y-74817204D01*
X50114468Y-74828935D01*
X50068112Y-74833500D01*
X48991888Y-74833500D01*
X48945532Y-74828935D01*
X48906862Y-74817204D01*
X48871223Y-74798154D01*
X48839983Y-74772517D01*
X48814346Y-74741277D01*
X48795296Y-74705638D01*
X48783565Y-74666968D01*
X48779000Y-74620612D01*
X48779000Y-73969388D01*
X48783565Y-73923032D01*
X48795296Y-73884362D01*
X48814346Y-73848723D01*
X48839983Y-73817483D01*
X48871223Y-73791846D01*
X48906862Y-73772796D01*
X48945532Y-73761065D01*
X48991888Y-73756500D01*
X50068112Y-73756500D01*
X50114468Y-73761065D01*
X50114468Y-73761065D01*
G37*
G36*
X45486968Y-73167565D02*
G01*
X45525638Y-73179296D01*
X45561277Y-73198346D01*
X45592517Y-73223983D01*
X45618154Y-73255223D01*
X45637204Y-73290862D01*
X45648935Y-73329532D01*
X45653500Y-73375888D01*
X45653500Y-74452112D01*
X45648935Y-74498468D01*
X45637204Y-74537138D01*
X45618154Y-74572777D01*
X45592517Y-74604017D01*
X45561277Y-74629654D01*
X45525638Y-74648704D01*
X45486968Y-74660435D01*
X45440612Y-74665000D01*
X44789388Y-74665000D01*
X44743032Y-74660435D01*
X44704362Y-74648704D01*
X44668723Y-74629654D01*
X44637483Y-74604017D01*
X44611846Y-74572777D01*
X44592796Y-74537138D01*
X44581065Y-74498468D01*
X44576500Y-74452112D01*
X44576500Y-73375888D01*
X44581065Y-73329532D01*
X44592796Y-73290862D01*
X44611846Y-73255223D01*
X44637483Y-73223983D01*
X44668723Y-73198346D01*
X44704362Y-73179296D01*
X44743032Y-73167565D01*
X44789388Y-73163000D01*
X45440612Y-73163000D01*
X45486968Y-73167565D01*
X45486968Y-73167565D01*
G37*
G36*
X47361968Y-73167565D02*
G01*
X47400638Y-73179296D01*
X47436277Y-73198346D01*
X47467517Y-73223983D01*
X47493154Y-73255223D01*
X47512204Y-73290862D01*
X47523935Y-73329532D01*
X47528500Y-73375888D01*
X47528500Y-74452112D01*
X47523935Y-74498468D01*
X47512204Y-74537138D01*
X47493154Y-74572777D01*
X47467517Y-74604017D01*
X47436277Y-74629654D01*
X47400638Y-74648704D01*
X47361968Y-74660435D01*
X47315612Y-74665000D01*
X46664388Y-74665000D01*
X46618032Y-74660435D01*
X46579362Y-74648704D01*
X46543723Y-74629654D01*
X46512483Y-74604017D01*
X46486846Y-74572777D01*
X46467796Y-74537138D01*
X46456065Y-74498468D01*
X46451500Y-74452112D01*
X46451500Y-73375888D01*
X46456065Y-73329532D01*
X46467796Y-73290862D01*
X46486846Y-73255223D01*
X46512483Y-73223983D01*
X46543723Y-73198346D01*
X46579362Y-73179296D01*
X46618032Y-73167565D01*
X46664388Y-73163000D01*
X47315612Y-73163000D01*
X47361968Y-73167565D01*
X47361968Y-73167565D01*
G37*
G36*
X50114468Y-71886065D02*
G01*
X50153138Y-71897796D01*
X50188777Y-71916846D01*
X50220017Y-71942483D01*
X50245654Y-71973723D01*
X50264704Y-72009362D01*
X50276435Y-72048032D01*
X50281000Y-72094388D01*
X50281000Y-72745612D01*
X50276435Y-72791968D01*
X50264704Y-72830638D01*
X50245654Y-72866277D01*
X50220017Y-72897517D01*
X50188777Y-72923154D01*
X50153138Y-72942204D01*
X50114468Y-72953935D01*
X50068112Y-72958500D01*
X48991888Y-72958500D01*
X48945532Y-72953935D01*
X48906862Y-72942204D01*
X48871223Y-72923154D01*
X48839983Y-72897517D01*
X48814346Y-72866277D01*
X48795296Y-72830638D01*
X48783565Y-72791968D01*
X48779000Y-72745612D01*
X48779000Y-72094388D01*
X48783565Y-72048032D01*
X48795296Y-72009362D01*
X48814346Y-71973723D01*
X48839983Y-71942483D01*
X48871223Y-71916846D01*
X48906862Y-71897796D01*
X48945532Y-71886065D01*
X48991888Y-71881500D01*
X50068112Y-71881500D01*
X50114468Y-71886065D01*
X50114468Y-71886065D01*
G37*
G36*
X47361000Y-71955000D02*
G01*
X44709000Y-71955000D01*
X44709000Y-70793000D01*
X47361000Y-70793000D01*
X47361000Y-71955000D01*
X47361000Y-71955000D01*
G37*
G36*
X50114468Y-69921065D02*
G01*
X50153138Y-69932796D01*
X50188777Y-69951846D01*
X50220017Y-69977483D01*
X50245654Y-70008723D01*
X50264704Y-70044362D01*
X50276435Y-70083032D01*
X50281000Y-70129388D01*
X50281000Y-70780612D01*
X50276435Y-70826968D01*
X50264704Y-70865638D01*
X50245654Y-70901277D01*
X50220017Y-70932517D01*
X50188777Y-70958154D01*
X50153138Y-70977204D01*
X50114468Y-70988935D01*
X50068112Y-70993500D01*
X48991888Y-70993500D01*
X48945532Y-70988935D01*
X48906862Y-70977204D01*
X48871223Y-70958154D01*
X48839983Y-70932517D01*
X48814346Y-70901277D01*
X48795296Y-70865638D01*
X48783565Y-70826968D01*
X48779000Y-70780612D01*
X48779000Y-70129388D01*
X48783565Y-70083032D01*
X48795296Y-70044362D01*
X48814346Y-70008723D01*
X48839983Y-69977483D01*
X48871223Y-69951846D01*
X48906862Y-69932796D01*
X48945532Y-69921065D01*
X48991888Y-69916500D01*
X50068112Y-69916500D01*
X50114468Y-69921065D01*
X50114468Y-69921065D01*
G37*
G36*
X47361000Y-69755000D02*
G01*
X44709000Y-69755000D01*
X44709000Y-68593000D01*
X47361000Y-68593000D01*
X47361000Y-69755000D01*
X47361000Y-69755000D01*
G37*
G36*
X50114468Y-68046065D02*
G01*
X50153138Y-68057796D01*
X50188777Y-68076846D01*
X50220017Y-68102483D01*
X50245654Y-68133723D01*
X50264704Y-68169362D01*
X50276435Y-68208032D01*
X50281000Y-68254388D01*
X50281000Y-68905612D01*
X50276435Y-68951968D01*
X50264704Y-68990638D01*
X50245654Y-69026277D01*
X50220017Y-69057517D01*
X50188777Y-69083154D01*
X50153138Y-69102204D01*
X50114468Y-69113935D01*
X50068112Y-69118500D01*
X48991888Y-69118500D01*
X48945532Y-69113935D01*
X48906862Y-69102204D01*
X48871223Y-69083154D01*
X48839983Y-69057517D01*
X48814346Y-69026277D01*
X48795296Y-68990638D01*
X48783565Y-68951968D01*
X48779000Y-68905612D01*
X48779000Y-68254388D01*
X48783565Y-68208032D01*
X48795296Y-68169362D01*
X48814346Y-68133723D01*
X48839983Y-68102483D01*
X48871223Y-68076846D01*
X48906862Y-68057796D01*
X48945532Y-68046065D01*
X48991888Y-68041500D01*
X50068112Y-68041500D01*
X50114468Y-68046065D01*
X50114468Y-68046065D01*
G37*
G36*
X56561000Y-69021000D02*
G01*
X52659000Y-69021000D01*
X52659000Y-66919000D01*
X56561000Y-66919000D01*
X56561000Y-69021000D01*
X56561000Y-69021000D01*
G37*
G36*
X47361968Y-65801565D02*
G01*
X47400638Y-65813296D01*
X47436277Y-65832346D01*
X47467517Y-65857983D01*
X47493154Y-65889223D01*
X47512204Y-65924862D01*
X47523935Y-65963532D01*
X47528500Y-66009888D01*
X47528500Y-67086112D01*
X47523935Y-67132468D01*
X47512204Y-67171138D01*
X47493154Y-67206777D01*
X47467517Y-67238017D01*
X47436277Y-67263654D01*
X47400638Y-67282704D01*
X47361968Y-67294435D01*
X47315612Y-67299000D01*
X46664388Y-67299000D01*
X46618032Y-67294435D01*
X46579362Y-67282704D01*
X46543723Y-67263654D01*
X46512483Y-67238017D01*
X46486846Y-67206777D01*
X46467796Y-67171138D01*
X46456065Y-67132468D01*
X46451500Y-67086112D01*
X46451500Y-66009888D01*
X46456065Y-65963532D01*
X46467796Y-65924862D01*
X46486846Y-65889223D01*
X46512483Y-65857983D01*
X46543723Y-65832346D01*
X46579362Y-65813296D01*
X46618032Y-65801565D01*
X46664388Y-65797000D01*
X47315612Y-65797000D01*
X47361968Y-65801565D01*
X47361968Y-65801565D01*
G37*
G36*
X45486968Y-65801565D02*
G01*
X45525638Y-65813296D01*
X45561277Y-65832346D01*
X45592517Y-65857983D01*
X45618154Y-65889223D01*
X45637204Y-65924862D01*
X45648935Y-65963532D01*
X45653500Y-66009888D01*
X45653500Y-67086112D01*
X45648935Y-67132468D01*
X45637204Y-67171138D01*
X45618154Y-67206777D01*
X45592517Y-67238017D01*
X45561277Y-67263654D01*
X45525638Y-67282704D01*
X45486968Y-67294435D01*
X45440612Y-67299000D01*
X44789388Y-67299000D01*
X44743032Y-67294435D01*
X44704362Y-67282704D01*
X44668723Y-67263654D01*
X44637483Y-67238017D01*
X44611846Y-67206777D01*
X44592796Y-67171138D01*
X44581065Y-67132468D01*
X44576500Y-67086112D01*
X44576500Y-66009888D01*
X44581065Y-65963532D01*
X44592796Y-65924862D01*
X44611846Y-65889223D01*
X44637483Y-65857983D01*
X44668723Y-65832346D01*
X44704362Y-65813296D01*
X44743032Y-65801565D01*
X44789388Y-65797000D01*
X45440612Y-65797000D01*
X45486968Y-65801565D01*
X45486968Y-65801565D01*
G37*
G36*
X49139968Y-65801565D02*
G01*
X49178638Y-65813296D01*
X49214277Y-65832346D01*
X49245517Y-65857983D01*
X49271154Y-65889223D01*
X49290204Y-65924862D01*
X49301935Y-65963532D01*
X49306500Y-66009888D01*
X49306500Y-67086112D01*
X49301935Y-67132468D01*
X49290204Y-67171138D01*
X49271154Y-67206777D01*
X49245517Y-67238017D01*
X49214277Y-67263654D01*
X49178638Y-67282704D01*
X49139968Y-67294435D01*
X49093612Y-67299000D01*
X48442388Y-67299000D01*
X48396032Y-67294435D01*
X48357362Y-67282704D01*
X48321723Y-67263654D01*
X48290483Y-67238017D01*
X48264846Y-67206777D01*
X48245796Y-67171138D01*
X48234065Y-67132468D01*
X48229500Y-67086112D01*
X48229500Y-66009888D01*
X48234065Y-65963532D01*
X48245796Y-65924862D01*
X48264846Y-65889223D01*
X48290483Y-65857983D01*
X48321723Y-65832346D01*
X48357362Y-65813296D01*
X48396032Y-65801565D01*
X48442388Y-65797000D01*
X49093612Y-65797000D01*
X49139968Y-65801565D01*
X49139968Y-65801565D01*
G37*
G36*
X51014968Y-65801565D02*
G01*
X51053638Y-65813296D01*
X51089277Y-65832346D01*
X51120517Y-65857983D01*
X51146154Y-65889223D01*
X51165204Y-65924862D01*
X51176935Y-65963532D01*
X51181500Y-66009888D01*
X51181500Y-67086112D01*
X51176935Y-67132468D01*
X51165204Y-67171138D01*
X51146154Y-67206777D01*
X51120517Y-67238017D01*
X51089277Y-67263654D01*
X51053638Y-67282704D01*
X51014968Y-67294435D01*
X50968612Y-67299000D01*
X50317388Y-67299000D01*
X50271032Y-67294435D01*
X50232362Y-67282704D01*
X50196723Y-67263654D01*
X50165483Y-67238017D01*
X50139846Y-67206777D01*
X50120796Y-67171138D01*
X50109065Y-67132468D01*
X50104500Y-67086112D01*
X50104500Y-66009888D01*
X50109065Y-65963532D01*
X50120796Y-65924862D01*
X50139846Y-65889223D01*
X50165483Y-65857983D01*
X50196723Y-65832346D01*
X50232362Y-65813296D01*
X50271032Y-65801565D01*
X50317388Y-65797000D01*
X50968612Y-65797000D01*
X51014968Y-65801565D01*
X51014968Y-65801565D01*
G37*
G36*
X49349000Y-64826000D02*
G01*
X48187000Y-64826000D01*
X48187000Y-62174000D01*
X49349000Y-62174000D01*
X49349000Y-64826000D01*
X49349000Y-64826000D01*
G37*
G36*
X51549000Y-64826000D02*
G01*
X50387000Y-64826000D01*
X50387000Y-62174000D01*
X51549000Y-62174000D01*
X51549000Y-64826000D01*
X51549000Y-64826000D01*
G37*
G36*
X56173468Y-62753565D02*
G01*
X56212138Y-62765296D01*
X56247777Y-62784346D01*
X56279017Y-62809983D01*
X56304654Y-62841223D01*
X56323704Y-62876862D01*
X56335435Y-62915532D01*
X56340000Y-62961888D01*
X56340000Y-64038112D01*
X56335435Y-64084468D01*
X56323704Y-64123138D01*
X56304654Y-64158777D01*
X56279017Y-64190017D01*
X56247777Y-64215654D01*
X56212138Y-64234704D01*
X56173468Y-64246435D01*
X56127112Y-64251000D01*
X55475888Y-64251000D01*
X55429532Y-64246435D01*
X55390862Y-64234704D01*
X55355223Y-64215654D01*
X55323983Y-64190017D01*
X55298346Y-64158777D01*
X55279296Y-64123138D01*
X55267565Y-64084468D01*
X55263000Y-64038112D01*
X55263000Y-62961888D01*
X55267565Y-62915532D01*
X55279296Y-62876862D01*
X55298346Y-62841223D01*
X55323983Y-62809983D01*
X55355223Y-62784346D01*
X55390862Y-62765296D01*
X55429532Y-62753565D01*
X55475888Y-62749000D01*
X56127112Y-62749000D01*
X56173468Y-62753565D01*
X56173468Y-62753565D01*
G37*
G36*
X54298468Y-62753565D02*
G01*
X54337138Y-62765296D01*
X54372777Y-62784346D01*
X54404017Y-62809983D01*
X54429654Y-62841223D01*
X54448704Y-62876862D01*
X54460435Y-62915532D01*
X54465000Y-62961888D01*
X54465000Y-64038112D01*
X54460435Y-64084468D01*
X54448704Y-64123138D01*
X54429654Y-64158777D01*
X54404017Y-64190017D01*
X54372777Y-64215654D01*
X54337138Y-64234704D01*
X54298468Y-64246435D01*
X54252112Y-64251000D01*
X53600888Y-64251000D01*
X53554532Y-64246435D01*
X53515862Y-64234704D01*
X53480223Y-64215654D01*
X53448983Y-64190017D01*
X53423346Y-64158777D01*
X53404296Y-64123138D01*
X53392565Y-64084468D01*
X53388000Y-64038112D01*
X53388000Y-62961888D01*
X53392565Y-62915532D01*
X53404296Y-62876862D01*
X53423346Y-62841223D01*
X53448983Y-62809983D01*
X53480223Y-62784346D01*
X53515862Y-62765296D01*
X53554532Y-62753565D01*
X53600888Y-62749000D01*
X54252112Y-62749000D01*
X54298468Y-62753565D01*
X54298468Y-62753565D01*
G37*
G36*
X54720442Y-58160518D02*
G01*
X54786627Y-58167037D01*
X54956466Y-58218557D01*
X55112991Y-58302222D01*
X55148729Y-58331552D01*
X55250186Y-58414814D01*
X55333448Y-58516271D01*
X55362778Y-58552009D01*
X55446443Y-58708534D01*
X55497963Y-58878373D01*
X55515359Y-59055000D01*
X55497963Y-59231627D01*
X55446443Y-59401466D01*
X55362778Y-59557991D01*
X55333448Y-59593729D01*
X55250186Y-59695186D01*
X55148729Y-59778448D01*
X55112991Y-59807778D01*
X54956466Y-59891443D01*
X54786627Y-59942963D01*
X54720442Y-59949482D01*
X54654260Y-59956000D01*
X54565740Y-59956000D01*
X54499558Y-59949482D01*
X54433373Y-59942963D01*
X54263534Y-59891443D01*
X54107009Y-59807778D01*
X54071271Y-59778448D01*
X53969814Y-59695186D01*
X53886552Y-59593729D01*
X53857222Y-59557991D01*
X53773557Y-59401466D01*
X53722037Y-59231627D01*
X53704641Y-59055000D01*
X53722037Y-58878373D01*
X53773557Y-58708534D01*
X53857222Y-58552009D01*
X53886552Y-58516271D01*
X53969814Y-58414814D01*
X54071271Y-58331552D01*
X54107009Y-58302222D01*
X54263534Y-58218557D01*
X54433373Y-58167037D01*
X54499558Y-58160518D01*
X54565740Y-58154000D01*
X54654260Y-58154000D01*
X54720442Y-58160518D01*
X54720442Y-58160518D01*
G37*
G36*
X52180442Y-58160518D02*
G01*
X52246627Y-58167037D01*
X52416466Y-58218557D01*
X52572991Y-58302222D01*
X52608729Y-58331552D01*
X52710186Y-58414814D01*
X52793448Y-58516271D01*
X52822778Y-58552009D01*
X52906443Y-58708534D01*
X52957963Y-58878373D01*
X52975359Y-59055000D01*
X52957963Y-59231627D01*
X52906443Y-59401466D01*
X52822778Y-59557991D01*
X52793448Y-59593729D01*
X52710186Y-59695186D01*
X52608729Y-59778448D01*
X52572991Y-59807778D01*
X52416466Y-59891443D01*
X52246627Y-59942963D01*
X52180442Y-59949482D01*
X52114260Y-59956000D01*
X52025740Y-59956000D01*
X51959558Y-59949482D01*
X51893373Y-59942963D01*
X51723534Y-59891443D01*
X51567009Y-59807778D01*
X51531271Y-59778448D01*
X51429814Y-59695186D01*
X51346552Y-59593729D01*
X51317222Y-59557991D01*
X51233557Y-59401466D01*
X51182037Y-59231627D01*
X51164641Y-59055000D01*
X51182037Y-58878373D01*
X51233557Y-58708534D01*
X51317222Y-58552009D01*
X51346552Y-58516271D01*
X51429814Y-58414814D01*
X51531271Y-58331552D01*
X51567009Y-58302222D01*
X51723534Y-58218557D01*
X51893373Y-58167037D01*
X51959558Y-58160518D01*
X52025740Y-58154000D01*
X52114260Y-58154000D01*
X52180442Y-58160518D01*
X52180442Y-58160518D01*
G37*
G36*
X49640442Y-58160518D02*
G01*
X49706627Y-58167037D01*
X49876466Y-58218557D01*
X50032991Y-58302222D01*
X50068729Y-58331552D01*
X50170186Y-58414814D01*
X50253448Y-58516271D01*
X50282778Y-58552009D01*
X50366443Y-58708534D01*
X50417963Y-58878373D01*
X50435359Y-59055000D01*
X50417963Y-59231627D01*
X50366443Y-59401466D01*
X50282778Y-59557991D01*
X50253448Y-59593729D01*
X50170186Y-59695186D01*
X50068729Y-59778448D01*
X50032991Y-59807778D01*
X49876466Y-59891443D01*
X49706627Y-59942963D01*
X49640442Y-59949482D01*
X49574260Y-59956000D01*
X49485740Y-59956000D01*
X49419558Y-59949482D01*
X49353373Y-59942963D01*
X49183534Y-59891443D01*
X49027009Y-59807778D01*
X48991271Y-59778448D01*
X48889814Y-59695186D01*
X48806552Y-59593729D01*
X48777222Y-59557991D01*
X48693557Y-59401466D01*
X48642037Y-59231627D01*
X48624641Y-59055000D01*
X48642037Y-58878373D01*
X48693557Y-58708534D01*
X48777222Y-58552009D01*
X48806552Y-58516271D01*
X48889814Y-58414814D01*
X48991271Y-58331552D01*
X49027009Y-58302222D01*
X49183534Y-58218557D01*
X49353373Y-58167037D01*
X49419558Y-58160518D01*
X49485740Y-58154000D01*
X49574260Y-58154000D01*
X49640442Y-58160518D01*
X49640442Y-58160518D01*
G37*
G36*
X47100442Y-58160518D02*
G01*
X47166627Y-58167037D01*
X47336466Y-58218557D01*
X47492991Y-58302222D01*
X47528729Y-58331552D01*
X47630186Y-58414814D01*
X47713448Y-58516271D01*
X47742778Y-58552009D01*
X47826443Y-58708534D01*
X47877963Y-58878373D01*
X47895359Y-59055000D01*
X47877963Y-59231627D01*
X47826443Y-59401466D01*
X47742778Y-59557991D01*
X47713448Y-59593729D01*
X47630186Y-59695186D01*
X47528729Y-59778448D01*
X47492991Y-59807778D01*
X47336466Y-59891443D01*
X47166627Y-59942963D01*
X47100442Y-59949482D01*
X47034260Y-59956000D01*
X46945740Y-59956000D01*
X46879558Y-59949482D01*
X46813373Y-59942963D01*
X46643534Y-59891443D01*
X46487009Y-59807778D01*
X46451271Y-59778448D01*
X46349814Y-59695186D01*
X46266552Y-59593729D01*
X46237222Y-59557991D01*
X46153557Y-59401466D01*
X46102037Y-59231627D01*
X46084641Y-59055000D01*
X46102037Y-58878373D01*
X46153557Y-58708534D01*
X46237222Y-58552009D01*
X46266552Y-58516271D01*
X46349814Y-58414814D01*
X46451271Y-58331552D01*
X46487009Y-58302222D01*
X46643534Y-58218557D01*
X46813373Y-58167037D01*
X46879558Y-58160518D01*
X46945740Y-58154000D01*
X47034260Y-58154000D01*
X47100442Y-58160518D01*
X47100442Y-58160518D01*
G37*
G36*
X55511000Y-57416000D02*
G01*
X53709000Y-57416000D01*
X53709000Y-55614000D01*
X55511000Y-55614000D01*
X55511000Y-57416000D01*
X55511000Y-57416000D01*
G37*
G36*
X52180443Y-55620519D02*
G01*
X52246627Y-55627037D01*
X52416466Y-55678557D01*
X52572991Y-55762222D01*
X52608729Y-55791552D01*
X52710186Y-55874814D01*
X52793448Y-55976271D01*
X52822778Y-56012009D01*
X52906443Y-56168534D01*
X52957963Y-56338373D01*
X52975359Y-56515000D01*
X52957963Y-56691627D01*
X52906443Y-56861466D01*
X52822778Y-57017991D01*
X52793448Y-57053729D01*
X52710186Y-57155186D01*
X52608729Y-57238448D01*
X52572991Y-57267778D01*
X52416466Y-57351443D01*
X52246627Y-57402963D01*
X52180443Y-57409481D01*
X52114260Y-57416000D01*
X52025740Y-57416000D01*
X51959557Y-57409481D01*
X51893373Y-57402963D01*
X51723534Y-57351443D01*
X51567009Y-57267778D01*
X51531271Y-57238448D01*
X51429814Y-57155186D01*
X51346552Y-57053729D01*
X51317222Y-57017991D01*
X51233557Y-56861466D01*
X51182037Y-56691627D01*
X51164641Y-56515000D01*
X51182037Y-56338373D01*
X51233557Y-56168534D01*
X51317222Y-56012009D01*
X51346552Y-55976271D01*
X51429814Y-55874814D01*
X51531271Y-55791552D01*
X51567009Y-55762222D01*
X51723534Y-55678557D01*
X51893373Y-55627037D01*
X51959557Y-55620519D01*
X52025740Y-55614000D01*
X52114260Y-55614000D01*
X52180443Y-55620519D01*
X52180443Y-55620519D01*
G37*
G36*
X49640443Y-55620519D02*
G01*
X49706627Y-55627037D01*
X49876466Y-55678557D01*
X50032991Y-55762222D01*
X50068729Y-55791552D01*
X50170186Y-55874814D01*
X50253448Y-55976271D01*
X50282778Y-56012009D01*
X50366443Y-56168534D01*
X50417963Y-56338373D01*
X50435359Y-56515000D01*
X50417963Y-56691627D01*
X50366443Y-56861466D01*
X50282778Y-57017991D01*
X50253448Y-57053729D01*
X50170186Y-57155186D01*
X50068729Y-57238448D01*
X50032991Y-57267778D01*
X49876466Y-57351443D01*
X49706627Y-57402963D01*
X49640443Y-57409481D01*
X49574260Y-57416000D01*
X49485740Y-57416000D01*
X49419557Y-57409481D01*
X49353373Y-57402963D01*
X49183534Y-57351443D01*
X49027009Y-57267778D01*
X48991271Y-57238448D01*
X48889814Y-57155186D01*
X48806552Y-57053729D01*
X48777222Y-57017991D01*
X48693557Y-56861466D01*
X48642037Y-56691627D01*
X48624641Y-56515000D01*
X48642037Y-56338373D01*
X48693557Y-56168534D01*
X48777222Y-56012009D01*
X48806552Y-55976271D01*
X48889814Y-55874814D01*
X48991271Y-55791552D01*
X49027009Y-55762222D01*
X49183534Y-55678557D01*
X49353373Y-55627037D01*
X49419557Y-55620519D01*
X49485740Y-55614000D01*
X49574260Y-55614000D01*
X49640443Y-55620519D01*
X49640443Y-55620519D01*
G37*
G36*
X47100443Y-55620519D02*
G01*
X47166627Y-55627037D01*
X47336466Y-55678557D01*
X47492991Y-55762222D01*
X47528729Y-55791552D01*
X47630186Y-55874814D01*
X47713448Y-55976271D01*
X47742778Y-56012009D01*
X47826443Y-56168534D01*
X47877963Y-56338373D01*
X47895359Y-56515000D01*
X47877963Y-56691627D01*
X47826443Y-56861466D01*
X47742778Y-57017991D01*
X47713448Y-57053729D01*
X47630186Y-57155186D01*
X47528729Y-57238448D01*
X47492991Y-57267778D01*
X47336466Y-57351443D01*
X47166627Y-57402963D01*
X47100443Y-57409481D01*
X47034260Y-57416000D01*
X46945740Y-57416000D01*
X46879557Y-57409481D01*
X46813373Y-57402963D01*
X46643534Y-57351443D01*
X46487009Y-57267778D01*
X46451271Y-57238448D01*
X46349814Y-57155186D01*
X46266552Y-57053729D01*
X46237222Y-57017991D01*
X46153557Y-56861466D01*
X46102037Y-56691627D01*
X46084641Y-56515000D01*
X46102037Y-56338373D01*
X46153557Y-56168534D01*
X46237222Y-56012009D01*
X46266552Y-55976271D01*
X46349814Y-55874814D01*
X46451271Y-55791552D01*
X46487009Y-55762222D01*
X46643534Y-55678557D01*
X46813373Y-55627037D01*
X46879557Y-55620519D01*
X46945740Y-55614000D01*
X47034260Y-55614000D01*
X47100443Y-55620519D01*
X47100443Y-55620519D01*
G37*
M02*
