G04 #@! TF.GenerationSoftware,KiCad,Pcbnew,(5.1.2-1)-1*
G04 #@! TF.CreationDate,2019-12-06T11:21:49-08:00*
G04 #@! TF.ProjectId,pixel-stick,70697865-6c2d-4737-9469-636b2e6b6963,rev?*
G04 #@! TF.SameCoordinates,Original*
G04 #@! TF.FileFunction,Legend,Top*
G04 #@! TF.FilePolarity,Positive*
%FSLAX46Y46*%
G04 Gerber Fmt 4.6, Leading zero omitted, Abs format (unit mm)*
G04 Created by KiCad (PCBNEW (5.1.2-1)-1) date 2019-12-06 11:21:49*
%MOMM*%
%LPD*%
G04 APERTURE LIST*
%ADD10C,0.150000*%
%ADD11C,0.120000*%
G04 APERTURE END LIST*
D10*
X55816619Y-89114380D02*
X56149952Y-90114380D01*
X56483285Y-89114380D01*
X56816619Y-89733428D02*
X57578523Y-89733428D01*
X57197571Y-90114380D02*
X57197571Y-89352476D01*
X53141523Y-90019142D02*
X53093904Y-90066761D01*
X52951047Y-90114380D01*
X52855809Y-90114380D01*
X52712952Y-90066761D01*
X52617714Y-89971523D01*
X52570095Y-89876285D01*
X52522476Y-89685809D01*
X52522476Y-89542952D01*
X52570095Y-89352476D01*
X52617714Y-89257238D01*
X52712952Y-89162000D01*
X52855809Y-89114380D01*
X52951047Y-89114380D01*
X53093904Y-89162000D01*
X53141523Y-89209619D01*
X44577095Y-89162000D02*
X44481857Y-89114380D01*
X44339000Y-89114380D01*
X44196142Y-89162000D01*
X44100904Y-89257238D01*
X44053285Y-89352476D01*
X44005666Y-89542952D01*
X44005666Y-89685809D01*
X44053285Y-89876285D01*
X44100904Y-89971523D01*
X44196142Y-90066761D01*
X44339000Y-90114380D01*
X44434238Y-90114380D01*
X44577095Y-90066761D01*
X44624714Y-90019142D01*
X44624714Y-89685809D01*
X44434238Y-89685809D01*
X45053285Y-90114380D02*
X45053285Y-89114380D01*
X45624714Y-90114380D01*
X45624714Y-89114380D01*
X46100904Y-90114380D02*
X46100904Y-89114380D01*
X46339000Y-89114380D01*
X46481857Y-89162000D01*
X46577095Y-89257238D01*
X46624714Y-89352476D01*
X46672333Y-89542952D01*
X46672333Y-89685809D01*
X46624714Y-89876285D01*
X46577095Y-89971523D01*
X46481857Y-90066761D01*
X46339000Y-90114380D01*
X46100904Y-90114380D01*
X49014095Y-90114380D02*
X49014095Y-89114380D01*
X49252190Y-89114380D01*
X49395047Y-89162000D01*
X49490285Y-89257238D01*
X49537904Y-89352476D01*
X49585523Y-89542952D01*
X49585523Y-89685809D01*
X49537904Y-89876285D01*
X49490285Y-89971523D01*
X49395047Y-90066761D01*
X49252190Y-90114380D01*
X49014095Y-90114380D01*
D11*
X55940000Y-55185000D02*
X55940000Y-56515000D01*
X54610000Y-55185000D02*
X55940000Y-55185000D01*
X55940000Y-57785000D02*
X55940000Y-60385000D01*
X53340000Y-57785000D02*
X55940000Y-57785000D01*
X53340000Y-55185000D02*
X53340000Y-57785000D01*
X55940000Y-60385000D02*
X45660000Y-60385000D01*
X53340000Y-55185000D02*
X45660000Y-55185000D01*
X45660000Y-55185000D02*
X45660000Y-60385000D01*
X47645000Y-71174000D02*
X47645000Y-68724000D01*
X44425000Y-69374000D02*
X44425000Y-71174000D01*
X48968000Y-65110000D02*
X51418000Y-65110000D01*
X50768000Y-61890000D02*
X48968000Y-61890000D01*
X51200000Y-75220000D02*
X51200000Y-69210000D01*
X58020000Y-72970000D02*
X58020000Y-69210000D01*
X51200000Y-69210000D02*
X52460000Y-69210000D01*
X58020000Y-69210000D02*
X56760000Y-69210000D01*
X55191922Y-65734000D02*
X55709078Y-65734000D01*
X55191922Y-64314000D02*
X55709078Y-64314000D01*
X57425000Y-83657064D02*
X57425000Y-82452936D01*
X55605000Y-83657064D02*
X55605000Y-82452936D01*
X54020000Y-83655000D02*
X54020000Y-82655000D01*
X54520000Y-83155000D02*
X53520000Y-83155000D01*
X53280000Y-77449437D02*
X52215563Y-76385000D01*
X53280000Y-83840563D02*
X52215563Y-84905000D01*
X53280000Y-83840563D02*
X53280000Y-82155000D01*
X53280000Y-77449437D02*
X53280000Y-79135000D01*
X52215563Y-76385000D02*
X44760000Y-76385000D01*
X52215563Y-84905000D02*
X44760000Y-84905000D01*
X44760000Y-84905000D02*
X44760000Y-82155000D01*
X44760000Y-76385000D02*
X44760000Y-79135000D01*
X46311078Y-65838000D02*
X45793922Y-65838000D01*
X46311078Y-67258000D02*
X45793922Y-67258000D01*
X46311078Y-73204000D02*
X45793922Y-73204000D01*
X46311078Y-74624000D02*
X45793922Y-74624000D01*
X50240000Y-69776078D02*
X50240000Y-69258922D01*
X48820000Y-69776078D02*
X48820000Y-69258922D01*
X48820000Y-73098922D02*
X48820000Y-73616078D01*
X50240000Y-73098922D02*
X50240000Y-73616078D01*
X56138578Y-76760000D02*
X55621422Y-76760000D01*
X56138578Y-78180000D02*
X55621422Y-78180000D01*
X43486000Y-57399422D02*
X43486000Y-57916578D01*
X44906000Y-57399422D02*
X44906000Y-57916578D01*
D10*
X50038095Y-57237380D02*
X50038095Y-58046904D01*
X50085714Y-58142142D01*
X50133333Y-58189761D01*
X50228571Y-58237380D01*
X50419047Y-58237380D01*
X50514285Y-58189761D01*
X50561904Y-58142142D01*
X50609523Y-58046904D01*
X50609523Y-57237380D01*
X51038095Y-57332619D02*
X51085714Y-57285000D01*
X51180952Y-57237380D01*
X51419047Y-57237380D01*
X51514285Y-57285000D01*
X51561904Y-57332619D01*
X51609523Y-57427857D01*
X51609523Y-57523095D01*
X51561904Y-57665952D01*
X50990476Y-58237380D01*
X51609523Y-58237380D01*
X45212095Y-69810380D02*
X45212095Y-70619904D01*
X45259714Y-70715142D01*
X45307333Y-70762761D01*
X45402571Y-70810380D01*
X45593047Y-70810380D01*
X45688285Y-70762761D01*
X45735904Y-70715142D01*
X45783523Y-70619904D01*
X45783523Y-69810380D01*
X46688285Y-70143714D02*
X46688285Y-70810380D01*
X46450190Y-69762761D02*
X46212095Y-70477047D01*
X46831142Y-70477047D01*
X49363380Y-64388904D02*
X50172904Y-64388904D01*
X50268142Y-64341285D01*
X50315761Y-64293666D01*
X50363380Y-64198428D01*
X50363380Y-64007952D01*
X50315761Y-63912714D01*
X50268142Y-63865095D01*
X50172904Y-63817476D01*
X49363380Y-63817476D01*
X49363380Y-63436523D02*
X49363380Y-62817476D01*
X49744333Y-63150809D01*
X49744333Y-63007952D01*
X49791952Y-62912714D01*
X49839571Y-62865095D01*
X49934809Y-62817476D01*
X50172904Y-62817476D01*
X50268142Y-62865095D01*
X50315761Y-62912714D01*
X50363380Y-63007952D01*
X50363380Y-63293666D01*
X50315761Y-63388904D01*
X50268142Y-63436523D01*
X53975095Y-70572380D02*
X53975095Y-71381904D01*
X54022714Y-71477142D01*
X54070333Y-71524761D01*
X54165571Y-71572380D01*
X54356047Y-71572380D01*
X54451285Y-71524761D01*
X54498904Y-71477142D01*
X54546523Y-71381904D01*
X54546523Y-70572380D01*
X55546523Y-71572380D02*
X54975095Y-71572380D01*
X55260809Y-71572380D02*
X55260809Y-70572380D01*
X55165571Y-70715238D01*
X55070333Y-70810476D01*
X54975095Y-70858095D01*
X55362333Y-65603380D02*
X55029000Y-65127190D01*
X54790904Y-65603380D02*
X54790904Y-64603380D01*
X55171857Y-64603380D01*
X55267095Y-64651000D01*
X55314714Y-64698619D01*
X55362333Y-64793857D01*
X55362333Y-64936714D01*
X55314714Y-65031952D01*
X55267095Y-65079571D01*
X55171857Y-65127190D01*
X54790904Y-65127190D01*
X55695666Y-64603380D02*
X56314714Y-64603380D01*
X55981380Y-64984333D01*
X56124238Y-64984333D01*
X56219476Y-65031952D01*
X56267095Y-65079571D01*
X56314714Y-65174809D01*
X56314714Y-65412904D01*
X56267095Y-65508142D01*
X56219476Y-65555761D01*
X56124238Y-65603380D01*
X55838523Y-65603380D01*
X55743285Y-65555761D01*
X55695666Y-65508142D01*
X56570571Y-83264333D02*
X56570571Y-83597666D01*
X57094380Y-83597666D02*
X56094380Y-83597666D01*
X56094380Y-83121476D01*
X57094380Y-82216714D02*
X57094380Y-82788142D01*
X57094380Y-82502428D02*
X56094380Y-82502428D01*
X56237238Y-82597666D01*
X56332476Y-82692904D01*
X56380095Y-82788142D01*
X48982333Y-81002142D02*
X48934714Y-81049761D01*
X48791857Y-81097380D01*
X48696619Y-81097380D01*
X48553761Y-81049761D01*
X48458523Y-80954523D01*
X48410904Y-80859285D01*
X48363285Y-80668809D01*
X48363285Y-80525952D01*
X48410904Y-80335476D01*
X48458523Y-80240238D01*
X48553761Y-80145000D01*
X48696619Y-80097380D01*
X48791857Y-80097380D01*
X48934714Y-80145000D01*
X48982333Y-80192619D01*
X49315666Y-80097380D02*
X49982333Y-80097380D01*
X49553761Y-81097380D01*
X45807333Y-66905142D02*
X45759714Y-66952761D01*
X45616857Y-67000380D01*
X45521619Y-67000380D01*
X45378761Y-66952761D01*
X45283523Y-66857523D01*
X45235904Y-66762285D01*
X45188285Y-66571809D01*
X45188285Y-66428952D01*
X45235904Y-66238476D01*
X45283523Y-66143238D01*
X45378761Y-66048000D01*
X45521619Y-66000380D01*
X45616857Y-66000380D01*
X45759714Y-66048000D01*
X45807333Y-66095619D01*
X46664476Y-66000380D02*
X46474000Y-66000380D01*
X46378761Y-66048000D01*
X46331142Y-66095619D01*
X46235904Y-66238476D01*
X46188285Y-66428952D01*
X46188285Y-66809904D01*
X46235904Y-66905142D01*
X46283523Y-66952761D01*
X46378761Y-67000380D01*
X46569238Y-67000380D01*
X46664476Y-66952761D01*
X46712095Y-66905142D01*
X46759714Y-66809904D01*
X46759714Y-66571809D01*
X46712095Y-66476571D01*
X46664476Y-66428952D01*
X46569238Y-66381333D01*
X46378761Y-66381333D01*
X46283523Y-66428952D01*
X46235904Y-66476571D01*
X46188285Y-66571809D01*
X45807333Y-74398142D02*
X45759714Y-74445761D01*
X45616857Y-74493380D01*
X45521619Y-74493380D01*
X45378761Y-74445761D01*
X45283523Y-74350523D01*
X45235904Y-74255285D01*
X45188285Y-74064809D01*
X45188285Y-73921952D01*
X45235904Y-73731476D01*
X45283523Y-73636238D01*
X45378761Y-73541000D01*
X45521619Y-73493380D01*
X45616857Y-73493380D01*
X45759714Y-73541000D01*
X45807333Y-73588619D01*
X46712095Y-73493380D02*
X46235904Y-73493380D01*
X46188285Y-73969571D01*
X46235904Y-73921952D01*
X46331142Y-73874333D01*
X46569238Y-73874333D01*
X46664476Y-73921952D01*
X46712095Y-73969571D01*
X46759714Y-74064809D01*
X46759714Y-74302904D01*
X46712095Y-74398142D01*
X46664476Y-74445761D01*
X46569238Y-74493380D01*
X46331142Y-74493380D01*
X46235904Y-74445761D01*
X46188285Y-74398142D01*
X50014142Y-69762666D02*
X50061761Y-69810285D01*
X50109380Y-69953142D01*
X50109380Y-70048380D01*
X50061761Y-70191238D01*
X49966523Y-70286476D01*
X49871285Y-70334095D01*
X49680809Y-70381714D01*
X49537952Y-70381714D01*
X49347476Y-70334095D01*
X49252238Y-70286476D01*
X49157000Y-70191238D01*
X49109380Y-70048380D01*
X49109380Y-69953142D01*
X49157000Y-69810285D01*
X49204619Y-69762666D01*
X49442714Y-68905523D02*
X50109380Y-68905523D01*
X49061761Y-69143619D02*
X49776047Y-69381714D01*
X49776047Y-68762666D01*
X50014142Y-73572666D02*
X50061761Y-73620285D01*
X50109380Y-73763142D01*
X50109380Y-73858380D01*
X50061761Y-74001238D01*
X49966523Y-74096476D01*
X49871285Y-74144095D01*
X49680809Y-74191714D01*
X49537952Y-74191714D01*
X49347476Y-74144095D01*
X49252238Y-74096476D01*
X49157000Y-74001238D01*
X49109380Y-73858380D01*
X49109380Y-73763142D01*
X49157000Y-73620285D01*
X49204619Y-73572666D01*
X49109380Y-73239333D02*
X49109380Y-72620285D01*
X49490333Y-72953619D01*
X49490333Y-72810761D01*
X49537952Y-72715523D01*
X49585571Y-72667904D01*
X49680809Y-72620285D01*
X49918904Y-72620285D01*
X50014142Y-72667904D01*
X50061761Y-72715523D01*
X50109380Y-72810761D01*
X50109380Y-73096476D01*
X50061761Y-73191714D01*
X50014142Y-73239333D01*
X55713333Y-77827142D02*
X55665714Y-77874761D01*
X55522857Y-77922380D01*
X55427619Y-77922380D01*
X55284761Y-77874761D01*
X55189523Y-77779523D01*
X55141904Y-77684285D01*
X55094285Y-77493809D01*
X55094285Y-77350952D01*
X55141904Y-77160476D01*
X55189523Y-77065238D01*
X55284761Y-76970000D01*
X55427619Y-76922380D01*
X55522857Y-76922380D01*
X55665714Y-76970000D01*
X55713333Y-77017619D01*
X56094285Y-77017619D02*
X56141904Y-76970000D01*
X56237142Y-76922380D01*
X56475238Y-76922380D01*
X56570476Y-76970000D01*
X56618095Y-77017619D01*
X56665714Y-77112857D01*
X56665714Y-77208095D01*
X56618095Y-77350952D01*
X56046666Y-77922380D01*
X56665714Y-77922380D01*
X44680142Y-57824666D02*
X44727761Y-57872285D01*
X44775380Y-58015142D01*
X44775380Y-58110380D01*
X44727761Y-58253238D01*
X44632523Y-58348476D01*
X44537285Y-58396095D01*
X44346809Y-58443714D01*
X44203952Y-58443714D01*
X44013476Y-58396095D01*
X43918238Y-58348476D01*
X43823000Y-58253238D01*
X43775380Y-58110380D01*
X43775380Y-58015142D01*
X43823000Y-57872285D01*
X43870619Y-57824666D01*
X44775380Y-56872285D02*
X44775380Y-57443714D01*
X44775380Y-57158000D02*
X43775380Y-57158000D01*
X43918238Y-57253238D01*
X44013476Y-57348476D01*
X44061095Y-57443714D01*
M02*
