G04 #@! TF.GenerationSoftware,KiCad,Pcbnew,(5.1.2-1)-1*
G04 #@! TF.CreationDate,2019-12-08T00:36:42-08:00*
G04 #@! TF.ProjectId,pixel-stick,70697865-6c2d-4737-9469-636b2e6b6963,rev?*
G04 #@! TF.SameCoordinates,Original*
G04 #@! TF.FileFunction,Legend,Top*
G04 #@! TF.FilePolarity,Positive*
%FSLAX46Y46*%
G04 Gerber Fmt 4.6, Leading zero omitted, Abs format (unit mm)*
G04 Created by KiCad (PCBNEW (5.1.2-1)-1) date 2019-12-08 00:36:42*
%MOMM*%
%LPD*%
G04 APERTURE LIST*
%ADD10C,0.150000*%
%ADD11C,0.152400*%
%ADD12C,0.120000*%
%ADD13C,0.125000*%
G04 APERTURE END LIST*
D10*
X53911619Y-87844380D02*
X54244952Y-88844380D01*
X54578285Y-87844380D01*
X54911619Y-88463428D02*
X55673523Y-88463428D01*
X55292571Y-88844380D02*
X55292571Y-88082476D01*
X46228095Y-87892000D02*
X46132857Y-87844380D01*
X45990000Y-87844380D01*
X45847142Y-87892000D01*
X45751904Y-87987238D01*
X45704285Y-88082476D01*
X45656666Y-88272952D01*
X45656666Y-88415809D01*
X45704285Y-88606285D01*
X45751904Y-88701523D01*
X45847142Y-88796761D01*
X45990000Y-88844380D01*
X46085238Y-88844380D01*
X46228095Y-88796761D01*
X46275714Y-88749142D01*
X46275714Y-88415809D01*
X46085238Y-88415809D01*
X46704285Y-88844380D02*
X46704285Y-87844380D01*
X47275714Y-88844380D01*
X47275714Y-87844380D01*
X47751904Y-88844380D02*
X47751904Y-87844380D01*
X47990000Y-87844380D01*
X48132857Y-87892000D01*
X48228095Y-87987238D01*
X48275714Y-88082476D01*
X48323333Y-88272952D01*
X48323333Y-88415809D01*
X48275714Y-88606285D01*
X48228095Y-88701523D01*
X48132857Y-88796761D01*
X47990000Y-88844380D01*
X47751904Y-88844380D01*
X50014285Y-88844380D02*
X50014285Y-87844380D01*
X50252380Y-87844380D01*
X50395238Y-87892000D01*
X50490476Y-87987238D01*
X50538095Y-88082476D01*
X50585714Y-88272952D01*
X50585714Y-88415809D01*
X50538095Y-88606285D01*
X50490476Y-88701523D01*
X50395238Y-88796761D01*
X50252380Y-88844380D01*
X50014285Y-88844380D01*
X51204761Y-87844380D02*
X51395238Y-87844380D01*
X51490476Y-87892000D01*
X51585714Y-87987238D01*
X51633333Y-88177714D01*
X51633333Y-88511047D01*
X51585714Y-88701523D01*
X51490476Y-88796761D01*
X51395238Y-88844380D01*
X51204761Y-88844380D01*
X51109523Y-88796761D01*
X51014285Y-88701523D01*
X50966666Y-88511047D01*
X50966666Y-88177714D01*
X51014285Y-87987238D01*
X51109523Y-87892000D01*
X51204761Y-87844380D01*
D11*
X55880000Y-60325000D02*
X55880000Y-57785000D01*
X45720000Y-60325000D02*
X55880000Y-60325000D01*
X45720000Y-55245000D02*
X45720000Y-60325000D01*
X53340000Y-55245000D02*
X45720000Y-55245000D01*
X55880000Y-55245000D02*
X53340000Y-55245000D01*
X55880000Y-57785000D02*
X55880000Y-55245000D01*
D12*
X52209750Y-81997250D02*
X52209750Y-81209750D01*
X52603500Y-81603500D02*
X51816000Y-81603500D01*
X51576000Y-77410437D02*
X50511563Y-76346000D01*
X51576000Y-82101563D02*
X50511563Y-83166000D01*
X51576000Y-82101563D02*
X51576000Y-80816000D01*
X51576000Y-77410437D02*
X51576000Y-78696000D01*
X50511563Y-76346000D02*
X44756000Y-76346000D01*
X50511563Y-83166000D02*
X44756000Y-83166000D01*
X44756000Y-83166000D02*
X44756000Y-80816000D01*
X44756000Y-76346000D02*
X44756000Y-78696000D01*
X47772000Y-71816000D02*
X47772000Y-68866000D01*
X44552000Y-70016000D02*
X44552000Y-71816000D01*
X47772000Y-64316000D02*
X47772000Y-61866000D01*
X44552000Y-62516000D02*
X44552000Y-64316000D01*
X56228064Y-75163000D02*
X55023936Y-75163000D01*
X56228064Y-76983000D02*
X55023936Y-76983000D01*
X48620000Y-70263936D02*
X48620000Y-71468064D01*
X50440000Y-70263936D02*
X50440000Y-71468064D01*
X47414064Y-73766000D02*
X46209936Y-73766000D01*
X47414064Y-75586000D02*
X46209936Y-75586000D01*
X47414064Y-66246000D02*
X46209936Y-66246000D01*
X47414064Y-68066000D02*
X46209936Y-68066000D01*
X43159000Y-57019436D02*
X43159000Y-58223564D01*
X44979000Y-57019436D02*
X44979000Y-58223564D01*
X57425000Y-81591564D02*
X57425000Y-80387436D01*
X55605000Y-81591564D02*
X55605000Y-80387436D01*
X51200000Y-73442000D02*
X51200000Y-67432000D01*
X58020000Y-71192000D02*
X58020000Y-67432000D01*
X51200000Y-67432000D02*
X52460000Y-67432000D01*
X58020000Y-67432000D02*
X56760000Y-67432000D01*
D10*
X57078571Y-60673904D02*
X57078571Y-60340571D01*
X57602380Y-60197714D02*
X57602380Y-60673904D01*
X56602380Y-60673904D01*
X56602380Y-60197714D01*
X57554761Y-59816761D02*
X57602380Y-59673904D01*
X57602380Y-59435809D01*
X57554761Y-59340571D01*
X57507142Y-59292952D01*
X57411904Y-59245333D01*
X57316666Y-59245333D01*
X57221428Y-59292952D01*
X57173809Y-59340571D01*
X57126190Y-59435809D01*
X57078571Y-59626285D01*
X57030952Y-59721523D01*
X56983333Y-59769142D01*
X56888095Y-59816761D01*
X56792857Y-59816761D01*
X56697619Y-59769142D01*
X56650000Y-59721523D01*
X56602380Y-59626285D01*
X56602380Y-59388190D01*
X56650000Y-59245333D01*
X57602380Y-58816761D02*
X56602380Y-58816761D01*
X56602380Y-58435809D01*
X56650000Y-58340571D01*
X56697619Y-58292952D01*
X56792857Y-58245333D01*
X56935714Y-58245333D01*
X57030952Y-58292952D01*
X57078571Y-58340571D01*
X57126190Y-58435809D01*
X57126190Y-58816761D01*
X57221428Y-57816761D02*
X57221428Y-57054857D01*
X56602380Y-56388190D02*
X56602380Y-56292952D01*
X56650000Y-56197714D01*
X56697619Y-56150095D01*
X56792857Y-56102476D01*
X56983333Y-56054857D01*
X57221428Y-56054857D01*
X57411904Y-56102476D01*
X57507142Y-56150095D01*
X57554761Y-56197714D01*
X57602380Y-56292952D01*
X57602380Y-56388190D01*
X57554761Y-56483428D01*
X57507142Y-56531047D01*
X57411904Y-56578666D01*
X57221428Y-56626285D01*
X56983333Y-56626285D01*
X56792857Y-56578666D01*
X56697619Y-56531047D01*
X56650000Y-56483428D01*
X56602380Y-56388190D01*
X57602380Y-55102476D02*
X57602380Y-55673904D01*
X57602380Y-55388190D02*
X56602380Y-55388190D01*
X56745238Y-55483428D01*
X56840476Y-55578666D01*
X56888095Y-55673904D01*
D13*
X43866571Y-77553333D02*
X43890380Y-77577142D01*
X43914190Y-77648571D01*
X43914190Y-77696190D01*
X43890380Y-77767619D01*
X43842761Y-77815238D01*
X43795142Y-77839047D01*
X43699904Y-77862857D01*
X43628476Y-77862857D01*
X43533238Y-77839047D01*
X43485619Y-77815238D01*
X43438000Y-77767619D01*
X43414190Y-77696190D01*
X43414190Y-77648571D01*
X43438000Y-77577142D01*
X43461809Y-77553333D01*
X43914190Y-77077142D02*
X43914190Y-77362857D01*
X43914190Y-77220000D02*
X43414190Y-77220000D01*
X43485619Y-77267619D01*
X43533238Y-77315238D01*
X43557047Y-77362857D01*
X43418190Y-71253952D02*
X43822952Y-71253952D01*
X43870571Y-71230142D01*
X43894380Y-71206333D01*
X43918190Y-71158714D01*
X43918190Y-71063476D01*
X43894380Y-71015857D01*
X43870571Y-70992047D01*
X43822952Y-70968238D01*
X43418190Y-70968238D01*
X43465809Y-70753952D02*
X43442000Y-70730142D01*
X43418190Y-70682523D01*
X43418190Y-70563476D01*
X43442000Y-70515857D01*
X43465809Y-70492047D01*
X43513428Y-70468238D01*
X43561047Y-70468238D01*
X43632476Y-70492047D01*
X43918190Y-70777761D01*
X43918190Y-70468238D01*
X43418190Y-63880952D02*
X43822952Y-63880952D01*
X43870571Y-63857142D01*
X43894380Y-63833333D01*
X43918190Y-63785714D01*
X43918190Y-63690476D01*
X43894380Y-63642857D01*
X43870571Y-63619047D01*
X43822952Y-63595238D01*
X43418190Y-63595238D01*
X43418190Y-63404761D02*
X43418190Y-63095238D01*
X43608666Y-63261904D01*
X43608666Y-63190476D01*
X43632476Y-63142857D01*
X43656285Y-63119047D01*
X43703904Y-63095238D01*
X43822952Y-63095238D01*
X43870571Y-63119047D01*
X43894380Y-63142857D01*
X43918190Y-63190476D01*
X43918190Y-63333333D01*
X43894380Y-63380952D01*
X43870571Y-63404761D01*
X52629571Y-75394333D02*
X52653380Y-75418142D01*
X52677190Y-75489571D01*
X52677190Y-75537190D01*
X52653380Y-75608619D01*
X52605761Y-75656238D01*
X52558142Y-75680047D01*
X52462904Y-75703857D01*
X52391476Y-75703857D01*
X52296238Y-75680047D01*
X52248619Y-75656238D01*
X52201000Y-75608619D01*
X52177190Y-75537190D01*
X52177190Y-75489571D01*
X52201000Y-75418142D01*
X52224809Y-75394333D01*
X52224809Y-75203857D02*
X52201000Y-75180047D01*
X52177190Y-75132428D01*
X52177190Y-75013380D01*
X52201000Y-74965761D01*
X52224809Y-74941952D01*
X52272428Y-74918142D01*
X52320047Y-74918142D01*
X52391476Y-74941952D01*
X52677190Y-75227666D01*
X52677190Y-74918142D01*
X50208666Y-74346571D02*
X50184857Y-74370380D01*
X50113428Y-74394190D01*
X50065809Y-74394190D01*
X49994380Y-74370380D01*
X49946761Y-74322761D01*
X49922952Y-74275142D01*
X49899142Y-74179904D01*
X49899142Y-74108476D01*
X49922952Y-74013238D01*
X49946761Y-73965619D01*
X49994380Y-73918000D01*
X50065809Y-73894190D01*
X50113428Y-73894190D01*
X50184857Y-73918000D01*
X50208666Y-73941809D01*
X50375333Y-73894190D02*
X50684857Y-73894190D01*
X50518190Y-74084666D01*
X50589619Y-74084666D01*
X50637238Y-74108476D01*
X50661047Y-74132285D01*
X50684857Y-74179904D01*
X50684857Y-74298952D01*
X50661047Y-74346571D01*
X50637238Y-74370380D01*
X50589619Y-74394190D01*
X50446761Y-74394190D01*
X50399142Y-74370380D01*
X50375333Y-74346571D01*
X43870571Y-74759333D02*
X43894380Y-74783142D01*
X43918190Y-74854571D01*
X43918190Y-74902190D01*
X43894380Y-74973619D01*
X43846761Y-75021238D01*
X43799142Y-75045047D01*
X43703904Y-75068857D01*
X43632476Y-75068857D01*
X43537238Y-75045047D01*
X43489619Y-75021238D01*
X43442000Y-74973619D01*
X43418190Y-74902190D01*
X43418190Y-74854571D01*
X43442000Y-74783142D01*
X43465809Y-74759333D01*
X43584857Y-74330761D02*
X43918190Y-74330761D01*
X43394380Y-74449809D02*
X43751523Y-74568857D01*
X43751523Y-74259333D01*
X43870571Y-67366333D02*
X43894380Y-67390142D01*
X43918190Y-67461571D01*
X43918190Y-67509190D01*
X43894380Y-67580619D01*
X43846761Y-67628238D01*
X43799142Y-67652047D01*
X43703904Y-67675857D01*
X43632476Y-67675857D01*
X43537238Y-67652047D01*
X43489619Y-67628238D01*
X43442000Y-67580619D01*
X43418190Y-67509190D01*
X43418190Y-67461571D01*
X43442000Y-67390142D01*
X43465809Y-67366333D01*
X43418190Y-66913952D02*
X43418190Y-67152047D01*
X43656285Y-67175857D01*
X43632476Y-67152047D01*
X43608666Y-67104428D01*
X43608666Y-66985380D01*
X43632476Y-66937761D01*
X43656285Y-66913952D01*
X43703904Y-66890142D01*
X43822952Y-66890142D01*
X43870571Y-66913952D01*
X43894380Y-66937761D01*
X43918190Y-66985380D01*
X43918190Y-67104428D01*
X43894380Y-67152047D01*
X43870571Y-67175857D01*
X43541821Y-61138571D02*
X43518012Y-61162380D01*
X43446583Y-61186190D01*
X43398964Y-61186190D01*
X43327535Y-61162380D01*
X43279916Y-61114761D01*
X43256107Y-61067142D01*
X43232297Y-60971904D01*
X43232297Y-60900476D01*
X43256107Y-60805238D01*
X43279916Y-60757619D01*
X43327535Y-60710000D01*
X43398964Y-60686190D01*
X43446583Y-60686190D01*
X43518012Y-60710000D01*
X43541821Y-60733809D01*
X43970393Y-60686190D02*
X43875155Y-60686190D01*
X43827535Y-60710000D01*
X43803726Y-60733809D01*
X43756107Y-60805238D01*
X43732297Y-60900476D01*
X43732297Y-61090952D01*
X43756107Y-61138571D01*
X43779916Y-61162380D01*
X43827535Y-61186190D01*
X43922774Y-61186190D01*
X43970393Y-61162380D01*
X43994202Y-61138571D01*
X44018012Y-61090952D01*
X44018012Y-60971904D01*
X43994202Y-60924285D01*
X43970393Y-60900476D01*
X43922774Y-60876666D01*
X43827535Y-60876666D01*
X43779916Y-60900476D01*
X43756107Y-60924285D01*
X43732297Y-60971904D01*
X56348333Y-77742285D02*
X56181666Y-77742285D01*
X56181666Y-78004190D02*
X56181666Y-77504190D01*
X56419761Y-77504190D01*
X56872142Y-78004190D02*
X56586428Y-78004190D01*
X56729285Y-78004190D02*
X56729285Y-77504190D01*
X56681666Y-77575619D01*
X56634047Y-77623238D01*
X56586428Y-77647047D01*
X57277047Y-66274190D02*
X57277047Y-66678952D01*
X57300857Y-66726571D01*
X57324666Y-66750380D01*
X57372285Y-66774190D01*
X57467523Y-66774190D01*
X57515142Y-66750380D01*
X57538952Y-66726571D01*
X57562761Y-66678952D01*
X57562761Y-66274190D01*
X58062761Y-66774190D02*
X57777047Y-66774190D01*
X57919904Y-66774190D02*
X57919904Y-66274190D01*
X57872285Y-66345619D01*
X57824666Y-66393238D01*
X57777047Y-66417047D01*
M02*
