G04 #@! TF.GenerationSoftware,KiCad,Pcbnew,(5.1.2-1)-1*
G04 #@! TF.CreationDate,2019-12-07T23:50:45-08:00*
G04 #@! TF.ProjectId,pixel-stick,70697865-6c2d-4737-9469-636b2e6b6963,rev?*
G04 #@! TF.SameCoordinates,Original*
G04 #@! TF.FileFunction,Soldermask,Top*
G04 #@! TF.FilePolarity,Negative*
%FSLAX46Y46*%
G04 Gerber Fmt 4.6, Leading zero omitted, Abs format (unit mm)*
G04 Created by KiCad (PCBNEW (5.1.2-1)-1) date 2019-12-07 23:50:45*
%MOMM*%
%LPD*%
G04 APERTURE LIST*
%ADD10C,0.100000*%
G04 APERTURE END LIST*
D10*
G36*
X56160870Y-87402870D02*
G01*
X53059130Y-87402870D01*
X53059130Y-84301130D01*
X56160870Y-84301130D01*
X56160870Y-87402870D01*
X56160870Y-87402870D01*
G37*
G36*
X51152497Y-84340863D02*
G01*
X51252372Y-84360729D01*
X51369279Y-84409154D01*
X51534611Y-84477636D01*
X51788621Y-84647360D01*
X52004640Y-84863379D01*
X52174364Y-85117389D01*
X52291271Y-85399629D01*
X52350870Y-85699251D01*
X52350870Y-86004749D01*
X52291271Y-86304371D01*
X52174364Y-86586611D01*
X52004640Y-86840621D01*
X51788621Y-87056640D01*
X51534611Y-87226364D01*
X51369279Y-87294846D01*
X51252372Y-87343271D01*
X51152497Y-87363137D01*
X50952749Y-87402870D01*
X50647251Y-87402870D01*
X50447503Y-87363137D01*
X50347628Y-87343271D01*
X50230721Y-87294846D01*
X50065389Y-87226364D01*
X49811379Y-87056640D01*
X49595360Y-86840621D01*
X49425636Y-86586611D01*
X49308729Y-86304371D01*
X49249130Y-86004749D01*
X49249130Y-85699251D01*
X49308729Y-85399629D01*
X49425636Y-85117389D01*
X49595360Y-84863379D01*
X49811379Y-84647360D01*
X50065389Y-84477636D01*
X50230721Y-84409154D01*
X50347628Y-84360729D01*
X50447503Y-84340863D01*
X50647251Y-84301130D01*
X50952749Y-84301130D01*
X51152497Y-84340863D01*
X51152497Y-84340863D01*
G37*
G36*
X47342497Y-84340863D02*
G01*
X47442372Y-84360729D01*
X47559279Y-84409154D01*
X47724611Y-84477636D01*
X47978621Y-84647360D01*
X48194640Y-84863379D01*
X48364364Y-85117389D01*
X48481271Y-85399629D01*
X48540870Y-85699251D01*
X48540870Y-86004749D01*
X48481271Y-86304371D01*
X48364364Y-86586611D01*
X48194640Y-86840621D01*
X47978621Y-87056640D01*
X47724611Y-87226364D01*
X47559279Y-87294846D01*
X47442372Y-87343271D01*
X47342497Y-87363137D01*
X47142749Y-87402870D01*
X46837251Y-87402870D01*
X46637503Y-87363137D01*
X46537628Y-87343271D01*
X46420721Y-87294846D01*
X46255389Y-87226364D01*
X46001379Y-87056640D01*
X45785360Y-86840621D01*
X45615636Y-86586611D01*
X45498729Y-86304371D01*
X45439130Y-86004749D01*
X45439130Y-85699251D01*
X45498729Y-85399629D01*
X45615636Y-85117389D01*
X45785360Y-84863379D01*
X46001379Y-84647360D01*
X46255389Y-84477636D01*
X46420721Y-84409154D01*
X46537628Y-84360729D01*
X46637503Y-84340863D01*
X46837251Y-84301130D01*
X47142749Y-84301130D01*
X47342497Y-84340863D01*
X47342497Y-84340863D01*
G37*
G36*
X57290562Y-81717681D02*
G01*
X57325481Y-81728274D01*
X57357663Y-81745476D01*
X57385873Y-81768627D01*
X57409024Y-81796837D01*
X57426226Y-81829019D01*
X57436819Y-81863938D01*
X57441000Y-81906395D01*
X57441000Y-83047605D01*
X57436819Y-83090062D01*
X57426226Y-83124981D01*
X57409024Y-83157163D01*
X57385873Y-83185373D01*
X57357663Y-83208524D01*
X57325481Y-83225726D01*
X57290562Y-83236319D01*
X57248105Y-83240500D01*
X55781895Y-83240500D01*
X55739438Y-83236319D01*
X55704519Y-83225726D01*
X55672337Y-83208524D01*
X55644127Y-83185373D01*
X55620976Y-83157163D01*
X55603774Y-83124981D01*
X55593181Y-83090062D01*
X55589000Y-83047605D01*
X55589000Y-81906395D01*
X55593181Y-81863938D01*
X55603774Y-81829019D01*
X55620976Y-81796837D01*
X55644127Y-81768627D01*
X55672337Y-81745476D01*
X55704519Y-81728274D01*
X55739438Y-81717681D01*
X55781895Y-81713500D01*
X57248105Y-81713500D01*
X57290562Y-81717681D01*
X57290562Y-81717681D01*
G37*
G36*
X52521997Y-78909051D02*
G01*
X52555652Y-78919261D01*
X52586665Y-78935838D01*
X52613851Y-78958149D01*
X52636162Y-78985335D01*
X52652739Y-79016348D01*
X52662949Y-79050003D01*
X52667000Y-79091138D01*
X52667000Y-80420862D01*
X52662949Y-80461997D01*
X52652739Y-80495652D01*
X52636162Y-80526665D01*
X52613851Y-80553851D01*
X52586665Y-80576162D01*
X52555652Y-80592739D01*
X52521997Y-80602949D01*
X52480862Y-80607000D01*
X49251138Y-80607000D01*
X49210003Y-80602949D01*
X49176348Y-80592739D01*
X49145335Y-80576162D01*
X49118149Y-80553851D01*
X49095838Y-80526665D01*
X49079261Y-80495652D01*
X49069051Y-80461997D01*
X49065000Y-80420862D01*
X49065000Y-79091138D01*
X49069051Y-79050003D01*
X49079261Y-79016348D01*
X49095838Y-78985335D01*
X49118149Y-78958149D01*
X49145335Y-78935838D01*
X49176348Y-78919261D01*
X49210003Y-78909051D01*
X49251138Y-78905000D01*
X52480862Y-78905000D01*
X52521997Y-78909051D01*
X52521997Y-78909051D01*
G37*
G36*
X47121997Y-78909051D02*
G01*
X47155652Y-78919261D01*
X47186665Y-78935838D01*
X47213851Y-78958149D01*
X47236162Y-78985335D01*
X47252739Y-79016348D01*
X47262949Y-79050003D01*
X47267000Y-79091138D01*
X47267000Y-80420862D01*
X47262949Y-80461997D01*
X47252739Y-80495652D01*
X47236162Y-80526665D01*
X47213851Y-80553851D01*
X47186665Y-80576162D01*
X47155652Y-80592739D01*
X47121997Y-80602949D01*
X47080862Y-80607000D01*
X43851138Y-80607000D01*
X43810003Y-80602949D01*
X43776348Y-80592739D01*
X43745335Y-80576162D01*
X43718149Y-80553851D01*
X43695838Y-80526665D01*
X43679261Y-80495652D01*
X43669051Y-80461997D01*
X43665000Y-80420862D01*
X43665000Y-79091138D01*
X43669051Y-79050003D01*
X43679261Y-79016348D01*
X43695838Y-78985335D01*
X43718149Y-78958149D01*
X43745335Y-78935838D01*
X43776348Y-78919261D01*
X43810003Y-78909051D01*
X43851138Y-78905000D01*
X47080862Y-78905000D01*
X47121997Y-78909051D01*
X47121997Y-78909051D01*
G37*
G36*
X57290562Y-78742681D02*
G01*
X57325481Y-78753274D01*
X57357663Y-78770476D01*
X57385873Y-78793627D01*
X57409024Y-78821837D01*
X57426226Y-78854019D01*
X57436819Y-78888938D01*
X57441000Y-78931395D01*
X57441000Y-80072605D01*
X57436819Y-80115062D01*
X57426226Y-80149981D01*
X57409024Y-80182163D01*
X57385873Y-80210373D01*
X57357663Y-80233524D01*
X57325481Y-80250726D01*
X57290562Y-80261319D01*
X57248105Y-80265500D01*
X55781895Y-80265500D01*
X55739438Y-80261319D01*
X55704519Y-80250726D01*
X55672337Y-80233524D01*
X55644127Y-80210373D01*
X55620976Y-80182163D01*
X55603774Y-80149981D01*
X55593181Y-80115062D01*
X55589000Y-80072605D01*
X55589000Y-78931395D01*
X55593181Y-78888938D01*
X55603774Y-78854019D01*
X55620976Y-78821837D01*
X55644127Y-78793627D01*
X55672337Y-78770476D01*
X55704519Y-78753274D01*
X55739438Y-78742681D01*
X55781895Y-78738500D01*
X57248105Y-78738500D01*
X57290562Y-78742681D01*
X57290562Y-78742681D01*
G37*
G36*
X54751562Y-75151181D02*
G01*
X54786481Y-75161774D01*
X54818663Y-75178976D01*
X54846873Y-75202127D01*
X54870024Y-75230337D01*
X54887226Y-75262519D01*
X54897819Y-75297438D01*
X54902000Y-75339895D01*
X54902000Y-76806105D01*
X54897819Y-76848562D01*
X54887226Y-76883481D01*
X54870024Y-76915663D01*
X54846873Y-76943873D01*
X54818663Y-76967024D01*
X54786481Y-76984226D01*
X54751562Y-76994819D01*
X54709105Y-76999000D01*
X53567895Y-76999000D01*
X53525438Y-76994819D01*
X53490519Y-76984226D01*
X53458337Y-76967024D01*
X53430127Y-76943873D01*
X53406976Y-76915663D01*
X53389774Y-76883481D01*
X53379181Y-76848562D01*
X53375000Y-76806105D01*
X53375000Y-75339895D01*
X53379181Y-75297438D01*
X53389774Y-75262519D01*
X53406976Y-75230337D01*
X53430127Y-75202127D01*
X53458337Y-75178976D01*
X53490519Y-75161774D01*
X53525438Y-75151181D01*
X53567895Y-75147000D01*
X54709105Y-75147000D01*
X54751562Y-75151181D01*
X54751562Y-75151181D01*
G37*
G36*
X57726562Y-75151181D02*
G01*
X57761481Y-75161774D01*
X57793663Y-75178976D01*
X57821873Y-75202127D01*
X57845024Y-75230337D01*
X57862226Y-75262519D01*
X57872819Y-75297438D01*
X57877000Y-75339895D01*
X57877000Y-76806105D01*
X57872819Y-76848562D01*
X57862226Y-76883481D01*
X57845024Y-76915663D01*
X57821873Y-76943873D01*
X57793663Y-76967024D01*
X57761481Y-76984226D01*
X57726562Y-76994819D01*
X57684105Y-76999000D01*
X56542895Y-76999000D01*
X56500438Y-76994819D01*
X56465519Y-76984226D01*
X56433337Y-76967024D01*
X56405127Y-76943873D01*
X56381976Y-76915663D01*
X56364774Y-76883481D01*
X56354181Y-76848562D01*
X56350000Y-76806105D01*
X56350000Y-75339895D01*
X56354181Y-75297438D01*
X56364774Y-75262519D01*
X56381976Y-75230337D01*
X56405127Y-75202127D01*
X56433337Y-75178976D01*
X56465519Y-75161774D01*
X56500438Y-75151181D01*
X56542895Y-75147000D01*
X57684105Y-75147000D01*
X57726562Y-75151181D01*
X57726562Y-75151181D01*
G37*
G36*
X48912562Y-73754181D02*
G01*
X48947481Y-73764774D01*
X48979663Y-73781976D01*
X49007873Y-73805127D01*
X49031024Y-73833337D01*
X49048226Y-73865519D01*
X49058819Y-73900438D01*
X49063000Y-73942895D01*
X49063000Y-75409105D01*
X49058819Y-75451562D01*
X49048226Y-75486481D01*
X49031024Y-75518663D01*
X49007873Y-75546873D01*
X48979663Y-75570024D01*
X48947481Y-75587226D01*
X48912562Y-75597819D01*
X48870105Y-75602000D01*
X47728895Y-75602000D01*
X47686438Y-75597819D01*
X47651519Y-75587226D01*
X47619337Y-75570024D01*
X47591127Y-75546873D01*
X47567976Y-75518663D01*
X47550774Y-75486481D01*
X47540181Y-75451562D01*
X47536000Y-75409105D01*
X47536000Y-73942895D01*
X47540181Y-73900438D01*
X47550774Y-73865519D01*
X47567976Y-73833337D01*
X47591127Y-73805127D01*
X47619337Y-73781976D01*
X47651519Y-73764774D01*
X47686438Y-73754181D01*
X47728895Y-73750000D01*
X48870105Y-73750000D01*
X48912562Y-73754181D01*
X48912562Y-73754181D01*
G37*
G36*
X45937562Y-73754181D02*
G01*
X45972481Y-73764774D01*
X46004663Y-73781976D01*
X46032873Y-73805127D01*
X46056024Y-73833337D01*
X46073226Y-73865519D01*
X46083819Y-73900438D01*
X46088000Y-73942895D01*
X46088000Y-75409105D01*
X46083819Y-75451562D01*
X46073226Y-75486481D01*
X46056024Y-75518663D01*
X46032873Y-75546873D01*
X46004663Y-75570024D01*
X45972481Y-75587226D01*
X45937562Y-75597819D01*
X45895105Y-75602000D01*
X44753895Y-75602000D01*
X44711438Y-75597819D01*
X44676519Y-75587226D01*
X44644337Y-75570024D01*
X44616127Y-75546873D01*
X44592976Y-75518663D01*
X44575774Y-75486481D01*
X44565181Y-75451562D01*
X44561000Y-75409105D01*
X44561000Y-73942895D01*
X44565181Y-73900438D01*
X44575774Y-73865519D01*
X44592976Y-73833337D01*
X44616127Y-73805127D01*
X44644337Y-73781976D01*
X44676519Y-73764774D01*
X44711438Y-73754181D01*
X44753895Y-73750000D01*
X45895105Y-73750000D01*
X45937562Y-73754181D01*
X45937562Y-73754181D01*
G37*
G36*
X57711000Y-73543000D02*
G01*
X56109000Y-73543000D01*
X56109000Y-71441000D01*
X57711000Y-71441000D01*
X57711000Y-73543000D01*
X57711000Y-73543000D01*
G37*
G36*
X55411000Y-73543000D02*
G01*
X53809000Y-73543000D01*
X53809000Y-71441000D01*
X55411000Y-71441000D01*
X55411000Y-73543000D01*
X55411000Y-73543000D01*
G37*
G36*
X53111000Y-73543000D02*
G01*
X51509000Y-73543000D01*
X51509000Y-71441000D01*
X53111000Y-71441000D01*
X53111000Y-73543000D01*
X53111000Y-73543000D01*
G37*
G36*
X50305562Y-71594181D02*
G01*
X50340481Y-71604774D01*
X50372663Y-71621976D01*
X50400873Y-71645127D01*
X50424024Y-71673337D01*
X50441226Y-71705519D01*
X50451819Y-71740438D01*
X50456000Y-71782895D01*
X50456000Y-72924105D01*
X50451819Y-72966562D01*
X50441226Y-73001481D01*
X50424024Y-73033663D01*
X50400873Y-73061873D01*
X50372663Y-73085024D01*
X50340481Y-73102226D01*
X50305562Y-73112819D01*
X50263105Y-73117000D01*
X48796895Y-73117000D01*
X48754438Y-73112819D01*
X48719519Y-73102226D01*
X48687337Y-73085024D01*
X48659127Y-73061873D01*
X48635976Y-73033663D01*
X48618774Y-73001481D01*
X48608181Y-72966562D01*
X48604000Y-72924105D01*
X48604000Y-71782895D01*
X48608181Y-71740438D01*
X48618774Y-71705519D01*
X48635976Y-71673337D01*
X48659127Y-71645127D01*
X48687337Y-71621976D01*
X48719519Y-71604774D01*
X48754438Y-71594181D01*
X48796895Y-71590000D01*
X50263105Y-71590000D01*
X50305562Y-71594181D01*
X50305562Y-71594181D01*
G37*
G36*
X47488000Y-73097000D02*
G01*
X44836000Y-73097000D01*
X44836000Y-71435000D01*
X47488000Y-71435000D01*
X47488000Y-73097000D01*
X47488000Y-73097000D01*
G37*
G36*
X47488000Y-70397000D02*
G01*
X44836000Y-70397000D01*
X44836000Y-68735000D01*
X47488000Y-68735000D01*
X47488000Y-70397000D01*
X47488000Y-70397000D01*
G37*
G36*
X50305562Y-68619181D02*
G01*
X50340481Y-68629774D01*
X50372663Y-68646976D01*
X50400873Y-68670127D01*
X50424024Y-68698337D01*
X50441226Y-68730519D01*
X50451819Y-68765438D01*
X50456000Y-68807895D01*
X50456000Y-69949105D01*
X50451819Y-69991562D01*
X50441226Y-70026481D01*
X50424024Y-70058663D01*
X50400873Y-70086873D01*
X50372663Y-70110024D01*
X50340481Y-70127226D01*
X50305562Y-70137819D01*
X50263105Y-70142000D01*
X48796895Y-70142000D01*
X48754438Y-70137819D01*
X48719519Y-70127226D01*
X48687337Y-70110024D01*
X48659127Y-70086873D01*
X48635976Y-70058663D01*
X48618774Y-70026481D01*
X48608181Y-69991562D01*
X48604000Y-69949105D01*
X48604000Y-68807895D01*
X48608181Y-68765438D01*
X48618774Y-68730519D01*
X48635976Y-68698337D01*
X48659127Y-68670127D01*
X48687337Y-68646976D01*
X48719519Y-68629774D01*
X48754438Y-68619181D01*
X48796895Y-68615000D01*
X50263105Y-68615000D01*
X50305562Y-68619181D01*
X50305562Y-68619181D01*
G37*
G36*
X45937562Y-66234181D02*
G01*
X45972481Y-66244774D01*
X46004663Y-66261976D01*
X46032873Y-66285127D01*
X46056024Y-66313337D01*
X46073226Y-66345519D01*
X46083819Y-66380438D01*
X46088000Y-66422895D01*
X46088000Y-67889105D01*
X46083819Y-67931562D01*
X46073226Y-67966481D01*
X46056024Y-67998663D01*
X46032873Y-68026873D01*
X46004663Y-68050024D01*
X45972481Y-68067226D01*
X45937562Y-68077819D01*
X45895105Y-68082000D01*
X44753895Y-68082000D01*
X44711438Y-68077819D01*
X44676519Y-68067226D01*
X44644337Y-68050024D01*
X44616127Y-68026873D01*
X44592976Y-67998663D01*
X44575774Y-67966481D01*
X44565181Y-67931562D01*
X44561000Y-67889105D01*
X44561000Y-66422895D01*
X44565181Y-66380438D01*
X44575774Y-66345519D01*
X44592976Y-66313337D01*
X44616127Y-66285127D01*
X44644337Y-66261976D01*
X44676519Y-66244774D01*
X44711438Y-66234181D01*
X44753895Y-66230000D01*
X45895105Y-66230000D01*
X45937562Y-66234181D01*
X45937562Y-66234181D01*
G37*
G36*
X48912562Y-66234181D02*
G01*
X48947481Y-66244774D01*
X48979663Y-66261976D01*
X49007873Y-66285127D01*
X49031024Y-66313337D01*
X49048226Y-66345519D01*
X49058819Y-66380438D01*
X49063000Y-66422895D01*
X49063000Y-67889105D01*
X49058819Y-67931562D01*
X49048226Y-67966481D01*
X49031024Y-67998663D01*
X49007873Y-68026873D01*
X48979663Y-68050024D01*
X48947481Y-68067226D01*
X48912562Y-68077819D01*
X48870105Y-68082000D01*
X47728895Y-68082000D01*
X47686438Y-68077819D01*
X47651519Y-68067226D01*
X47619337Y-68050024D01*
X47591127Y-68026873D01*
X47567976Y-67998663D01*
X47550774Y-67966481D01*
X47540181Y-67931562D01*
X47536000Y-67889105D01*
X47536000Y-66422895D01*
X47540181Y-66380438D01*
X47550774Y-66345519D01*
X47567976Y-66313337D01*
X47591127Y-66285127D01*
X47619337Y-66261976D01*
X47651519Y-66244774D01*
X47686438Y-66234181D01*
X47728895Y-66230000D01*
X48870105Y-66230000D01*
X48912562Y-66234181D01*
X48912562Y-66234181D01*
G37*
G36*
X56561000Y-67243000D02*
G01*
X52659000Y-67243000D01*
X52659000Y-65141000D01*
X56561000Y-65141000D01*
X56561000Y-67243000D01*
X56561000Y-67243000D01*
G37*
G36*
X47488000Y-65597000D02*
G01*
X46736000Y-65597000D01*
X46736000Y-63935000D01*
X47488000Y-63935000D01*
X47488000Y-65597000D01*
X47488000Y-65597000D01*
G37*
G36*
X45588000Y-65597000D02*
G01*
X44836000Y-65597000D01*
X44836000Y-63935000D01*
X45588000Y-63935000D01*
X45588000Y-65597000D01*
X45588000Y-65597000D01*
G37*
G36*
X47488000Y-62897000D02*
G01*
X44836000Y-62897000D01*
X44836000Y-61235000D01*
X47488000Y-61235000D01*
X47488000Y-62897000D01*
X47488000Y-62897000D01*
G37*
G36*
X54789294Y-58153633D02*
G01*
X54961695Y-58205931D01*
X55120583Y-58290858D01*
X55259849Y-58405151D01*
X55374142Y-58544417D01*
X55459069Y-58703305D01*
X55511367Y-58875706D01*
X55529025Y-59055000D01*
X55511367Y-59234294D01*
X55459069Y-59406695D01*
X55374142Y-59565583D01*
X55259849Y-59704849D01*
X55120583Y-59819142D01*
X54961695Y-59904069D01*
X54789294Y-59956367D01*
X54654931Y-59969600D01*
X54565069Y-59969600D01*
X54430706Y-59956367D01*
X54258305Y-59904069D01*
X54099417Y-59819142D01*
X53960151Y-59704849D01*
X53845858Y-59565583D01*
X53760931Y-59406695D01*
X53708633Y-59234294D01*
X53690975Y-59055000D01*
X53708633Y-58875706D01*
X53760931Y-58703305D01*
X53845858Y-58544417D01*
X53960151Y-58405151D01*
X54099417Y-58290858D01*
X54258305Y-58205931D01*
X54430706Y-58153633D01*
X54565069Y-58140400D01*
X54654931Y-58140400D01*
X54789294Y-58153633D01*
X54789294Y-58153633D01*
G37*
G36*
X52249294Y-58153633D02*
G01*
X52421695Y-58205931D01*
X52580583Y-58290858D01*
X52719849Y-58405151D01*
X52834142Y-58544417D01*
X52919069Y-58703305D01*
X52971367Y-58875706D01*
X52989025Y-59055000D01*
X52971367Y-59234294D01*
X52919069Y-59406695D01*
X52834142Y-59565583D01*
X52719849Y-59704849D01*
X52580583Y-59819142D01*
X52421695Y-59904069D01*
X52249294Y-59956367D01*
X52114931Y-59969600D01*
X52025069Y-59969600D01*
X51890706Y-59956367D01*
X51718305Y-59904069D01*
X51559417Y-59819142D01*
X51420151Y-59704849D01*
X51305858Y-59565583D01*
X51220931Y-59406695D01*
X51168633Y-59234294D01*
X51150975Y-59055000D01*
X51168633Y-58875706D01*
X51220931Y-58703305D01*
X51305858Y-58544417D01*
X51420151Y-58405151D01*
X51559417Y-58290858D01*
X51718305Y-58205931D01*
X51890706Y-58153633D01*
X52025069Y-58140400D01*
X52114931Y-58140400D01*
X52249294Y-58153633D01*
X52249294Y-58153633D01*
G37*
G36*
X49709294Y-58153633D02*
G01*
X49881695Y-58205931D01*
X50040583Y-58290858D01*
X50179849Y-58405151D01*
X50294142Y-58544417D01*
X50379069Y-58703305D01*
X50431367Y-58875706D01*
X50449025Y-59055000D01*
X50431367Y-59234294D01*
X50379069Y-59406695D01*
X50294142Y-59565583D01*
X50179849Y-59704849D01*
X50040583Y-59819142D01*
X49881695Y-59904069D01*
X49709294Y-59956367D01*
X49574931Y-59969600D01*
X49485069Y-59969600D01*
X49350706Y-59956367D01*
X49178305Y-59904069D01*
X49019417Y-59819142D01*
X48880151Y-59704849D01*
X48765858Y-59565583D01*
X48680931Y-59406695D01*
X48628633Y-59234294D01*
X48610975Y-59055000D01*
X48628633Y-58875706D01*
X48680931Y-58703305D01*
X48765858Y-58544417D01*
X48880151Y-58405151D01*
X49019417Y-58290858D01*
X49178305Y-58205931D01*
X49350706Y-58153633D01*
X49485069Y-58140400D01*
X49574931Y-58140400D01*
X49709294Y-58153633D01*
X49709294Y-58153633D01*
G37*
G36*
X47169294Y-58153633D02*
G01*
X47341695Y-58205931D01*
X47500583Y-58290858D01*
X47639849Y-58405151D01*
X47754142Y-58544417D01*
X47839069Y-58703305D01*
X47891367Y-58875706D01*
X47909025Y-59055000D01*
X47891367Y-59234294D01*
X47839069Y-59406695D01*
X47754142Y-59565583D01*
X47639849Y-59704849D01*
X47500583Y-59819142D01*
X47341695Y-59904069D01*
X47169294Y-59956367D01*
X47034931Y-59969600D01*
X46945069Y-59969600D01*
X46810706Y-59956367D01*
X46638305Y-59904069D01*
X46479417Y-59819142D01*
X46340151Y-59704849D01*
X46225858Y-59565583D01*
X46140931Y-59406695D01*
X46088633Y-59234294D01*
X46070975Y-59055000D01*
X46088633Y-58875706D01*
X46140931Y-58703305D01*
X46225858Y-58544417D01*
X46340151Y-58405151D01*
X46479417Y-58290858D01*
X46638305Y-58205931D01*
X46810706Y-58153633D01*
X46945069Y-58140400D01*
X47034931Y-58140400D01*
X47169294Y-58153633D01*
X47169294Y-58153633D01*
G37*
G36*
X44844562Y-58349681D02*
G01*
X44879481Y-58360274D01*
X44911663Y-58377476D01*
X44939873Y-58400627D01*
X44963024Y-58428837D01*
X44980226Y-58461019D01*
X44990819Y-58495938D01*
X44995000Y-58538395D01*
X44995000Y-59679605D01*
X44990819Y-59722062D01*
X44980226Y-59756981D01*
X44963024Y-59789163D01*
X44939873Y-59817373D01*
X44911663Y-59840524D01*
X44879481Y-59857726D01*
X44844562Y-59868319D01*
X44802105Y-59872500D01*
X43335895Y-59872500D01*
X43293438Y-59868319D01*
X43258519Y-59857726D01*
X43226337Y-59840524D01*
X43198127Y-59817373D01*
X43174976Y-59789163D01*
X43157774Y-59756981D01*
X43147181Y-59722062D01*
X43143000Y-59679605D01*
X43143000Y-58538395D01*
X43147181Y-58495938D01*
X43157774Y-58461019D01*
X43174976Y-58428837D01*
X43198127Y-58400627D01*
X43226337Y-58377476D01*
X43258519Y-58360274D01*
X43293438Y-58349681D01*
X43335895Y-58345500D01*
X44802105Y-58345500D01*
X44844562Y-58349681D01*
X44844562Y-58349681D01*
G37*
G36*
X52249294Y-55613633D02*
G01*
X52421695Y-55665931D01*
X52580583Y-55750858D01*
X52719849Y-55865151D01*
X52834142Y-56004417D01*
X52919069Y-56163305D01*
X52971367Y-56335706D01*
X52989025Y-56515000D01*
X52971367Y-56694294D01*
X52919069Y-56866695D01*
X52834142Y-57025583D01*
X52719849Y-57164849D01*
X52580583Y-57279142D01*
X52421695Y-57364069D01*
X52249294Y-57416367D01*
X52114931Y-57429600D01*
X52025069Y-57429600D01*
X51890706Y-57416367D01*
X51718305Y-57364069D01*
X51559417Y-57279142D01*
X51420151Y-57164849D01*
X51305858Y-57025583D01*
X51220931Y-56866695D01*
X51168633Y-56694294D01*
X51150975Y-56515000D01*
X51168633Y-56335706D01*
X51220931Y-56163305D01*
X51305858Y-56004417D01*
X51420151Y-55865151D01*
X51559417Y-55750858D01*
X51718305Y-55665931D01*
X51890706Y-55613633D01*
X52025069Y-55600400D01*
X52114931Y-55600400D01*
X52249294Y-55613633D01*
X52249294Y-55613633D01*
G37*
G36*
X55524600Y-57429600D02*
G01*
X53695400Y-57429600D01*
X53695400Y-55600400D01*
X55524600Y-55600400D01*
X55524600Y-57429600D01*
X55524600Y-57429600D01*
G37*
G36*
X47169294Y-55613633D02*
G01*
X47341695Y-55665931D01*
X47500583Y-55750858D01*
X47639849Y-55865151D01*
X47754142Y-56004417D01*
X47839069Y-56163305D01*
X47891367Y-56335706D01*
X47909025Y-56515000D01*
X47891367Y-56694294D01*
X47839069Y-56866695D01*
X47754142Y-57025583D01*
X47639849Y-57164849D01*
X47500583Y-57279142D01*
X47341695Y-57364069D01*
X47169294Y-57416367D01*
X47034931Y-57429600D01*
X46945069Y-57429600D01*
X46810706Y-57416367D01*
X46638305Y-57364069D01*
X46479417Y-57279142D01*
X46340151Y-57164849D01*
X46225858Y-57025583D01*
X46140931Y-56866695D01*
X46088633Y-56694294D01*
X46070975Y-56515000D01*
X46088633Y-56335706D01*
X46140931Y-56163305D01*
X46225858Y-56004417D01*
X46340151Y-55865151D01*
X46479417Y-55750858D01*
X46638305Y-55665931D01*
X46810706Y-55613633D01*
X46945069Y-55600400D01*
X47034931Y-55600400D01*
X47169294Y-55613633D01*
X47169294Y-55613633D01*
G37*
G36*
X49709294Y-55613633D02*
G01*
X49881695Y-55665931D01*
X50040583Y-55750858D01*
X50179849Y-55865151D01*
X50294142Y-56004417D01*
X50379069Y-56163305D01*
X50431367Y-56335706D01*
X50449025Y-56515000D01*
X50431367Y-56694294D01*
X50379069Y-56866695D01*
X50294142Y-57025583D01*
X50179849Y-57164849D01*
X50040583Y-57279142D01*
X49881695Y-57364069D01*
X49709294Y-57416367D01*
X49574931Y-57429600D01*
X49485069Y-57429600D01*
X49350706Y-57416367D01*
X49178305Y-57364069D01*
X49019417Y-57279142D01*
X48880151Y-57164849D01*
X48765858Y-57025583D01*
X48680931Y-56866695D01*
X48628633Y-56694294D01*
X48610975Y-56515000D01*
X48628633Y-56335706D01*
X48680931Y-56163305D01*
X48765858Y-56004417D01*
X48880151Y-55865151D01*
X49019417Y-55750858D01*
X49178305Y-55665931D01*
X49350706Y-55613633D01*
X49485069Y-55600400D01*
X49574931Y-55600400D01*
X49709294Y-55613633D01*
X49709294Y-55613633D01*
G37*
G36*
X44844562Y-55374681D02*
G01*
X44879481Y-55385274D01*
X44911663Y-55402476D01*
X44939873Y-55425627D01*
X44963024Y-55453837D01*
X44980226Y-55486019D01*
X44990819Y-55520938D01*
X44995000Y-55563395D01*
X44995000Y-56704605D01*
X44990819Y-56747062D01*
X44980226Y-56781981D01*
X44963024Y-56814163D01*
X44939873Y-56842373D01*
X44911663Y-56865524D01*
X44879481Y-56882726D01*
X44844562Y-56893319D01*
X44802105Y-56897500D01*
X43335895Y-56897500D01*
X43293438Y-56893319D01*
X43258519Y-56882726D01*
X43226337Y-56865524D01*
X43198127Y-56842373D01*
X43174976Y-56814163D01*
X43157774Y-56781981D01*
X43147181Y-56747062D01*
X43143000Y-56704605D01*
X43143000Y-55563395D01*
X43147181Y-55520938D01*
X43157774Y-55486019D01*
X43174976Y-55453837D01*
X43198127Y-55425627D01*
X43226337Y-55402476D01*
X43258519Y-55385274D01*
X43293438Y-55374681D01*
X43335895Y-55370500D01*
X44802105Y-55370500D01*
X44844562Y-55374681D01*
X44844562Y-55374681D01*
G37*
M02*
