G04 #@! TF.GenerationSoftware,KiCad,Pcbnew,(5.1.2-1)-1*
G04 #@! TF.CreationDate,2019-12-06T11:42:25-08:00*
G04 #@! TF.ProjectId,pixel-stick,70697865-6c2d-4737-9469-636b2e6b6963,rev?*
G04 #@! TF.SameCoordinates,Original*
G04 #@! TF.FileFunction,Paste,Top*
G04 #@! TF.FilePolarity,Positive*
%FSLAX46Y46*%
G04 Gerber Fmt 4.6, Leading zero omitted, Abs format (unit mm)*
G04 Created by KiCad (PCBNEW (5.1.2-1)-1) date 2019-12-06 11:42:25*
%MOMM*%
%LPD*%
G04 APERTURE LIST*
%ADD10R,0.650000X1.060000*%
%ADD11R,1.500000X2.000000*%
%ADD12R,3.800000X2.000000*%
%ADD13C,0.100000*%
%ADD14C,0.975000*%
%ADD15C,1.250000*%
%ADD16C,2.500000*%
G04 APERTURE END LIST*
D10*
X46035000Y-71374000D03*
X46985000Y-71374000D03*
X45085000Y-71374000D03*
X45085000Y-69174000D03*
X46035000Y-69174000D03*
X46985000Y-69174000D03*
X45974000Y-64346000D03*
X46924000Y-64346000D03*
X45024000Y-64346000D03*
X45024000Y-62146000D03*
X45974000Y-62146000D03*
X46924000Y-62146000D03*
D11*
X52310000Y-74270000D03*
X56910000Y-74270000D03*
X54610000Y-74270000D03*
D12*
X54610000Y-67970000D03*
D13*
G36*
X50010142Y-65983174D02*
G01*
X50033803Y-65986684D01*
X50057007Y-65992496D01*
X50079529Y-66000554D01*
X50101153Y-66010782D01*
X50121670Y-66023079D01*
X50140883Y-66037329D01*
X50158607Y-66053393D01*
X50174671Y-66071117D01*
X50188921Y-66090330D01*
X50201218Y-66110847D01*
X50211446Y-66132471D01*
X50219504Y-66154993D01*
X50225316Y-66178197D01*
X50228826Y-66201858D01*
X50230000Y-66225750D01*
X50230000Y-66713250D01*
X50228826Y-66737142D01*
X50225316Y-66760803D01*
X50219504Y-66784007D01*
X50211446Y-66806529D01*
X50201218Y-66828153D01*
X50188921Y-66848670D01*
X50174671Y-66867883D01*
X50158607Y-66885607D01*
X50140883Y-66901671D01*
X50121670Y-66915921D01*
X50101153Y-66928218D01*
X50079529Y-66938446D01*
X50057007Y-66946504D01*
X50033803Y-66952316D01*
X50010142Y-66955826D01*
X49986250Y-66957000D01*
X49073750Y-66957000D01*
X49049858Y-66955826D01*
X49026197Y-66952316D01*
X49002993Y-66946504D01*
X48980471Y-66938446D01*
X48958847Y-66928218D01*
X48938330Y-66915921D01*
X48919117Y-66901671D01*
X48901393Y-66885607D01*
X48885329Y-66867883D01*
X48871079Y-66848670D01*
X48858782Y-66828153D01*
X48848554Y-66806529D01*
X48840496Y-66784007D01*
X48834684Y-66760803D01*
X48831174Y-66737142D01*
X48830000Y-66713250D01*
X48830000Y-66225750D01*
X48831174Y-66201858D01*
X48834684Y-66178197D01*
X48840496Y-66154993D01*
X48848554Y-66132471D01*
X48858782Y-66110847D01*
X48871079Y-66090330D01*
X48885329Y-66071117D01*
X48901393Y-66053393D01*
X48919117Y-66037329D01*
X48938330Y-66023079D01*
X48958847Y-66010782D01*
X48980471Y-66000554D01*
X49002993Y-65992496D01*
X49026197Y-65986684D01*
X49049858Y-65983174D01*
X49073750Y-65982000D01*
X49986250Y-65982000D01*
X50010142Y-65983174D01*
X50010142Y-65983174D01*
G37*
D14*
X49530000Y-66469500D03*
D13*
G36*
X50010142Y-64108174D02*
G01*
X50033803Y-64111684D01*
X50057007Y-64117496D01*
X50079529Y-64125554D01*
X50101153Y-64135782D01*
X50121670Y-64148079D01*
X50140883Y-64162329D01*
X50158607Y-64178393D01*
X50174671Y-64196117D01*
X50188921Y-64215330D01*
X50201218Y-64235847D01*
X50211446Y-64257471D01*
X50219504Y-64279993D01*
X50225316Y-64303197D01*
X50228826Y-64326858D01*
X50230000Y-64350750D01*
X50230000Y-64838250D01*
X50228826Y-64862142D01*
X50225316Y-64885803D01*
X50219504Y-64909007D01*
X50211446Y-64931529D01*
X50201218Y-64953153D01*
X50188921Y-64973670D01*
X50174671Y-64992883D01*
X50158607Y-65010607D01*
X50140883Y-65026671D01*
X50121670Y-65040921D01*
X50101153Y-65053218D01*
X50079529Y-65063446D01*
X50057007Y-65071504D01*
X50033803Y-65077316D01*
X50010142Y-65080826D01*
X49986250Y-65082000D01*
X49073750Y-65082000D01*
X49049858Y-65080826D01*
X49026197Y-65077316D01*
X49002993Y-65071504D01*
X48980471Y-65063446D01*
X48958847Y-65053218D01*
X48938330Y-65040921D01*
X48919117Y-65026671D01*
X48901393Y-65010607D01*
X48885329Y-64992883D01*
X48871079Y-64973670D01*
X48858782Y-64953153D01*
X48848554Y-64931529D01*
X48840496Y-64909007D01*
X48834684Y-64885803D01*
X48831174Y-64862142D01*
X48830000Y-64838250D01*
X48830000Y-64350750D01*
X48831174Y-64326858D01*
X48834684Y-64303197D01*
X48840496Y-64279993D01*
X48848554Y-64257471D01*
X48858782Y-64235847D01*
X48871079Y-64215330D01*
X48885329Y-64196117D01*
X48901393Y-64178393D01*
X48919117Y-64162329D01*
X48938330Y-64148079D01*
X48958847Y-64135782D01*
X48980471Y-64125554D01*
X49002993Y-64117496D01*
X49026197Y-64111684D01*
X49049858Y-64108174D01*
X49073750Y-64107000D01*
X49986250Y-64107000D01*
X50010142Y-64108174D01*
X50010142Y-64108174D01*
G37*
D14*
X49530000Y-64594500D03*
D13*
G36*
X57164504Y-80526204D02*
G01*
X57188773Y-80529804D01*
X57212571Y-80535765D01*
X57235671Y-80544030D01*
X57257849Y-80554520D01*
X57278893Y-80567133D01*
X57298598Y-80581747D01*
X57316777Y-80598223D01*
X57333253Y-80616402D01*
X57347867Y-80636107D01*
X57360480Y-80657151D01*
X57370970Y-80679329D01*
X57379235Y-80702429D01*
X57385196Y-80726227D01*
X57388796Y-80750496D01*
X57390000Y-80775000D01*
X57390000Y-81525000D01*
X57388796Y-81549504D01*
X57385196Y-81573773D01*
X57379235Y-81597571D01*
X57370970Y-81620671D01*
X57360480Y-81642849D01*
X57347867Y-81663893D01*
X57333253Y-81683598D01*
X57316777Y-81701777D01*
X57298598Y-81718253D01*
X57278893Y-81732867D01*
X57257849Y-81745480D01*
X57235671Y-81755970D01*
X57212571Y-81764235D01*
X57188773Y-81770196D01*
X57164504Y-81773796D01*
X57140000Y-81775000D01*
X55890000Y-81775000D01*
X55865496Y-81773796D01*
X55841227Y-81770196D01*
X55817429Y-81764235D01*
X55794329Y-81755970D01*
X55772151Y-81745480D01*
X55751107Y-81732867D01*
X55731402Y-81718253D01*
X55713223Y-81701777D01*
X55696747Y-81683598D01*
X55682133Y-81663893D01*
X55669520Y-81642849D01*
X55659030Y-81620671D01*
X55650765Y-81597571D01*
X55644804Y-81573773D01*
X55641204Y-81549504D01*
X55640000Y-81525000D01*
X55640000Y-80775000D01*
X55641204Y-80750496D01*
X55644804Y-80726227D01*
X55650765Y-80702429D01*
X55659030Y-80679329D01*
X55669520Y-80657151D01*
X55682133Y-80636107D01*
X55696747Y-80616402D01*
X55713223Y-80598223D01*
X55731402Y-80581747D01*
X55751107Y-80567133D01*
X55772151Y-80554520D01*
X55794329Y-80544030D01*
X55817429Y-80535765D01*
X55841227Y-80529804D01*
X55865496Y-80526204D01*
X55890000Y-80525000D01*
X57140000Y-80525000D01*
X57164504Y-80526204D01*
X57164504Y-80526204D01*
G37*
D15*
X56515000Y-81150000D03*
D13*
G36*
X57164504Y-83326204D02*
G01*
X57188773Y-83329804D01*
X57212571Y-83335765D01*
X57235671Y-83344030D01*
X57257849Y-83354520D01*
X57278893Y-83367133D01*
X57298598Y-83381747D01*
X57316777Y-83398223D01*
X57333253Y-83416402D01*
X57347867Y-83436107D01*
X57360480Y-83457151D01*
X57370970Y-83479329D01*
X57379235Y-83502429D01*
X57385196Y-83526227D01*
X57388796Y-83550496D01*
X57390000Y-83575000D01*
X57390000Y-84325000D01*
X57388796Y-84349504D01*
X57385196Y-84373773D01*
X57379235Y-84397571D01*
X57370970Y-84420671D01*
X57360480Y-84442849D01*
X57347867Y-84463893D01*
X57333253Y-84483598D01*
X57316777Y-84501777D01*
X57298598Y-84518253D01*
X57278893Y-84532867D01*
X57257849Y-84545480D01*
X57235671Y-84555970D01*
X57212571Y-84564235D01*
X57188773Y-84570196D01*
X57164504Y-84573796D01*
X57140000Y-84575000D01*
X55890000Y-84575000D01*
X55865496Y-84573796D01*
X55841227Y-84570196D01*
X55817429Y-84564235D01*
X55794329Y-84555970D01*
X55772151Y-84545480D01*
X55751107Y-84532867D01*
X55731402Y-84518253D01*
X55713223Y-84501777D01*
X55696747Y-84483598D01*
X55682133Y-84463893D01*
X55669520Y-84442849D01*
X55659030Y-84420671D01*
X55650765Y-84397571D01*
X55644804Y-84373773D01*
X55641204Y-84349504D01*
X55640000Y-84325000D01*
X55640000Y-83575000D01*
X55641204Y-83550496D01*
X55644804Y-83526227D01*
X55650765Y-83502429D01*
X55659030Y-83479329D01*
X55669520Y-83457151D01*
X55682133Y-83436107D01*
X55696747Y-83416402D01*
X55713223Y-83398223D01*
X55731402Y-83381747D01*
X55751107Y-83367133D01*
X55772151Y-83354520D01*
X55794329Y-83344030D01*
X55817429Y-83335765D01*
X55841227Y-83329804D01*
X55865496Y-83326204D01*
X55890000Y-83325000D01*
X57140000Y-83325000D01*
X57164504Y-83326204D01*
X57164504Y-83326204D01*
G37*
D15*
X56515000Y-83950000D03*
D13*
G36*
X47744504Y-79396204D02*
G01*
X47768773Y-79399804D01*
X47792571Y-79405765D01*
X47815671Y-79414030D01*
X47837849Y-79424520D01*
X47858893Y-79437133D01*
X47878598Y-79451747D01*
X47896777Y-79468223D01*
X47913253Y-79486402D01*
X47927867Y-79506107D01*
X47940480Y-79527151D01*
X47950970Y-79549329D01*
X47959235Y-79572429D01*
X47965196Y-79596227D01*
X47968796Y-79620496D01*
X47970000Y-79645000D01*
X47970000Y-81645000D01*
X47968796Y-81669504D01*
X47965196Y-81693773D01*
X47959235Y-81717571D01*
X47950970Y-81740671D01*
X47940480Y-81762849D01*
X47927867Y-81783893D01*
X47913253Y-81803598D01*
X47896777Y-81821777D01*
X47878598Y-81838253D01*
X47858893Y-81852867D01*
X47837849Y-81865480D01*
X47815671Y-81875970D01*
X47792571Y-81884235D01*
X47768773Y-81890196D01*
X47744504Y-81893796D01*
X47720000Y-81895000D01*
X44220000Y-81895000D01*
X44195496Y-81893796D01*
X44171227Y-81890196D01*
X44147429Y-81884235D01*
X44124329Y-81875970D01*
X44102151Y-81865480D01*
X44081107Y-81852867D01*
X44061402Y-81838253D01*
X44043223Y-81821777D01*
X44026747Y-81803598D01*
X44012133Y-81783893D01*
X43999520Y-81762849D01*
X43989030Y-81740671D01*
X43980765Y-81717571D01*
X43974804Y-81693773D01*
X43971204Y-81669504D01*
X43970000Y-81645000D01*
X43970000Y-79645000D01*
X43971204Y-79620496D01*
X43974804Y-79596227D01*
X43980765Y-79572429D01*
X43989030Y-79549329D01*
X43999520Y-79527151D01*
X44012133Y-79506107D01*
X44026747Y-79486402D01*
X44043223Y-79468223D01*
X44061402Y-79451747D01*
X44081107Y-79437133D01*
X44102151Y-79424520D01*
X44124329Y-79414030D01*
X44147429Y-79405765D01*
X44171227Y-79399804D01*
X44195496Y-79396204D01*
X44220000Y-79395000D01*
X47720000Y-79395000D01*
X47744504Y-79396204D01*
X47744504Y-79396204D01*
G37*
D16*
X45970000Y-80645000D03*
D13*
G36*
X53844504Y-79396204D02*
G01*
X53868773Y-79399804D01*
X53892571Y-79405765D01*
X53915671Y-79414030D01*
X53937849Y-79424520D01*
X53958893Y-79437133D01*
X53978598Y-79451747D01*
X53996777Y-79468223D01*
X54013253Y-79486402D01*
X54027867Y-79506107D01*
X54040480Y-79527151D01*
X54050970Y-79549329D01*
X54059235Y-79572429D01*
X54065196Y-79596227D01*
X54068796Y-79620496D01*
X54070000Y-79645000D01*
X54070000Y-81645000D01*
X54068796Y-81669504D01*
X54065196Y-81693773D01*
X54059235Y-81717571D01*
X54050970Y-81740671D01*
X54040480Y-81762849D01*
X54027867Y-81783893D01*
X54013253Y-81803598D01*
X53996777Y-81821777D01*
X53978598Y-81838253D01*
X53958893Y-81852867D01*
X53937849Y-81865480D01*
X53915671Y-81875970D01*
X53892571Y-81884235D01*
X53868773Y-81890196D01*
X53844504Y-81893796D01*
X53820000Y-81895000D01*
X50320000Y-81895000D01*
X50295496Y-81893796D01*
X50271227Y-81890196D01*
X50247429Y-81884235D01*
X50224329Y-81875970D01*
X50202151Y-81865480D01*
X50181107Y-81852867D01*
X50161402Y-81838253D01*
X50143223Y-81821777D01*
X50126747Y-81803598D01*
X50112133Y-81783893D01*
X50099520Y-81762849D01*
X50089030Y-81740671D01*
X50080765Y-81717571D01*
X50074804Y-81693773D01*
X50071204Y-81669504D01*
X50070000Y-81645000D01*
X50070000Y-79645000D01*
X50071204Y-79620496D01*
X50074804Y-79596227D01*
X50080765Y-79572429D01*
X50089030Y-79549329D01*
X50099520Y-79527151D01*
X50112133Y-79506107D01*
X50126747Y-79486402D01*
X50143223Y-79468223D01*
X50161402Y-79451747D01*
X50181107Y-79437133D01*
X50202151Y-79424520D01*
X50224329Y-79414030D01*
X50247429Y-79405765D01*
X50271227Y-79399804D01*
X50295496Y-79396204D01*
X50320000Y-79395000D01*
X53820000Y-79395000D01*
X53844504Y-79396204D01*
X53844504Y-79396204D01*
G37*
D16*
X52070000Y-80645000D03*
D13*
G36*
X45382642Y-65849174D02*
G01*
X45406303Y-65852684D01*
X45429507Y-65858496D01*
X45452029Y-65866554D01*
X45473653Y-65876782D01*
X45494170Y-65889079D01*
X45513383Y-65903329D01*
X45531107Y-65919393D01*
X45547171Y-65937117D01*
X45561421Y-65956330D01*
X45573718Y-65976847D01*
X45583946Y-65998471D01*
X45592004Y-66020993D01*
X45597816Y-66044197D01*
X45601326Y-66067858D01*
X45602500Y-66091750D01*
X45602500Y-67004250D01*
X45601326Y-67028142D01*
X45597816Y-67051803D01*
X45592004Y-67075007D01*
X45583946Y-67097529D01*
X45573718Y-67119153D01*
X45561421Y-67139670D01*
X45547171Y-67158883D01*
X45531107Y-67176607D01*
X45513383Y-67192671D01*
X45494170Y-67206921D01*
X45473653Y-67219218D01*
X45452029Y-67229446D01*
X45429507Y-67237504D01*
X45406303Y-67243316D01*
X45382642Y-67246826D01*
X45358750Y-67248000D01*
X44871250Y-67248000D01*
X44847358Y-67246826D01*
X44823697Y-67243316D01*
X44800493Y-67237504D01*
X44777971Y-67229446D01*
X44756347Y-67219218D01*
X44735830Y-67206921D01*
X44716617Y-67192671D01*
X44698893Y-67176607D01*
X44682829Y-67158883D01*
X44668579Y-67139670D01*
X44656282Y-67119153D01*
X44646054Y-67097529D01*
X44637996Y-67075007D01*
X44632184Y-67051803D01*
X44628674Y-67028142D01*
X44627500Y-67004250D01*
X44627500Y-66091750D01*
X44628674Y-66067858D01*
X44632184Y-66044197D01*
X44637996Y-66020993D01*
X44646054Y-65998471D01*
X44656282Y-65976847D01*
X44668579Y-65956330D01*
X44682829Y-65937117D01*
X44698893Y-65919393D01*
X44716617Y-65903329D01*
X44735830Y-65889079D01*
X44756347Y-65876782D01*
X44777971Y-65866554D01*
X44800493Y-65858496D01*
X44823697Y-65852684D01*
X44847358Y-65849174D01*
X44871250Y-65848000D01*
X45358750Y-65848000D01*
X45382642Y-65849174D01*
X45382642Y-65849174D01*
G37*
D14*
X45115000Y-66548000D03*
D13*
G36*
X47257642Y-65849174D02*
G01*
X47281303Y-65852684D01*
X47304507Y-65858496D01*
X47327029Y-65866554D01*
X47348653Y-65876782D01*
X47369170Y-65889079D01*
X47388383Y-65903329D01*
X47406107Y-65919393D01*
X47422171Y-65937117D01*
X47436421Y-65956330D01*
X47448718Y-65976847D01*
X47458946Y-65998471D01*
X47467004Y-66020993D01*
X47472816Y-66044197D01*
X47476326Y-66067858D01*
X47477500Y-66091750D01*
X47477500Y-67004250D01*
X47476326Y-67028142D01*
X47472816Y-67051803D01*
X47467004Y-67075007D01*
X47458946Y-67097529D01*
X47448718Y-67119153D01*
X47436421Y-67139670D01*
X47422171Y-67158883D01*
X47406107Y-67176607D01*
X47388383Y-67192671D01*
X47369170Y-67206921D01*
X47348653Y-67219218D01*
X47327029Y-67229446D01*
X47304507Y-67237504D01*
X47281303Y-67243316D01*
X47257642Y-67246826D01*
X47233750Y-67248000D01*
X46746250Y-67248000D01*
X46722358Y-67246826D01*
X46698697Y-67243316D01*
X46675493Y-67237504D01*
X46652971Y-67229446D01*
X46631347Y-67219218D01*
X46610830Y-67206921D01*
X46591617Y-67192671D01*
X46573893Y-67176607D01*
X46557829Y-67158883D01*
X46543579Y-67139670D01*
X46531282Y-67119153D01*
X46521054Y-67097529D01*
X46512996Y-67075007D01*
X46507184Y-67051803D01*
X46503674Y-67028142D01*
X46502500Y-67004250D01*
X46502500Y-66091750D01*
X46503674Y-66067858D01*
X46507184Y-66044197D01*
X46512996Y-66020993D01*
X46521054Y-65998471D01*
X46531282Y-65976847D01*
X46543579Y-65956330D01*
X46557829Y-65937117D01*
X46573893Y-65919393D01*
X46591617Y-65903329D01*
X46610830Y-65889079D01*
X46631347Y-65876782D01*
X46652971Y-65866554D01*
X46675493Y-65858496D01*
X46698697Y-65852684D01*
X46722358Y-65849174D01*
X46746250Y-65848000D01*
X47233750Y-65848000D01*
X47257642Y-65849174D01*
X47257642Y-65849174D01*
G37*
D14*
X46990000Y-66548000D03*
D13*
G36*
X45382642Y-73215174D02*
G01*
X45406303Y-73218684D01*
X45429507Y-73224496D01*
X45452029Y-73232554D01*
X45473653Y-73242782D01*
X45494170Y-73255079D01*
X45513383Y-73269329D01*
X45531107Y-73285393D01*
X45547171Y-73303117D01*
X45561421Y-73322330D01*
X45573718Y-73342847D01*
X45583946Y-73364471D01*
X45592004Y-73386993D01*
X45597816Y-73410197D01*
X45601326Y-73433858D01*
X45602500Y-73457750D01*
X45602500Y-74370250D01*
X45601326Y-74394142D01*
X45597816Y-74417803D01*
X45592004Y-74441007D01*
X45583946Y-74463529D01*
X45573718Y-74485153D01*
X45561421Y-74505670D01*
X45547171Y-74524883D01*
X45531107Y-74542607D01*
X45513383Y-74558671D01*
X45494170Y-74572921D01*
X45473653Y-74585218D01*
X45452029Y-74595446D01*
X45429507Y-74603504D01*
X45406303Y-74609316D01*
X45382642Y-74612826D01*
X45358750Y-74614000D01*
X44871250Y-74614000D01*
X44847358Y-74612826D01*
X44823697Y-74609316D01*
X44800493Y-74603504D01*
X44777971Y-74595446D01*
X44756347Y-74585218D01*
X44735830Y-74572921D01*
X44716617Y-74558671D01*
X44698893Y-74542607D01*
X44682829Y-74524883D01*
X44668579Y-74505670D01*
X44656282Y-74485153D01*
X44646054Y-74463529D01*
X44637996Y-74441007D01*
X44632184Y-74417803D01*
X44628674Y-74394142D01*
X44627500Y-74370250D01*
X44627500Y-73457750D01*
X44628674Y-73433858D01*
X44632184Y-73410197D01*
X44637996Y-73386993D01*
X44646054Y-73364471D01*
X44656282Y-73342847D01*
X44668579Y-73322330D01*
X44682829Y-73303117D01*
X44698893Y-73285393D01*
X44716617Y-73269329D01*
X44735830Y-73255079D01*
X44756347Y-73242782D01*
X44777971Y-73232554D01*
X44800493Y-73224496D01*
X44823697Y-73218684D01*
X44847358Y-73215174D01*
X44871250Y-73214000D01*
X45358750Y-73214000D01*
X45382642Y-73215174D01*
X45382642Y-73215174D01*
G37*
D14*
X45115000Y-73914000D03*
D13*
G36*
X47257642Y-73215174D02*
G01*
X47281303Y-73218684D01*
X47304507Y-73224496D01*
X47327029Y-73232554D01*
X47348653Y-73242782D01*
X47369170Y-73255079D01*
X47388383Y-73269329D01*
X47406107Y-73285393D01*
X47422171Y-73303117D01*
X47436421Y-73322330D01*
X47448718Y-73342847D01*
X47458946Y-73364471D01*
X47467004Y-73386993D01*
X47472816Y-73410197D01*
X47476326Y-73433858D01*
X47477500Y-73457750D01*
X47477500Y-74370250D01*
X47476326Y-74394142D01*
X47472816Y-74417803D01*
X47467004Y-74441007D01*
X47458946Y-74463529D01*
X47448718Y-74485153D01*
X47436421Y-74505670D01*
X47422171Y-74524883D01*
X47406107Y-74542607D01*
X47388383Y-74558671D01*
X47369170Y-74572921D01*
X47348653Y-74585218D01*
X47327029Y-74595446D01*
X47304507Y-74603504D01*
X47281303Y-74609316D01*
X47257642Y-74612826D01*
X47233750Y-74614000D01*
X46746250Y-74614000D01*
X46722358Y-74612826D01*
X46698697Y-74609316D01*
X46675493Y-74603504D01*
X46652971Y-74595446D01*
X46631347Y-74585218D01*
X46610830Y-74572921D01*
X46591617Y-74558671D01*
X46573893Y-74542607D01*
X46557829Y-74524883D01*
X46543579Y-74505670D01*
X46531282Y-74485153D01*
X46521054Y-74463529D01*
X46512996Y-74441007D01*
X46507184Y-74417803D01*
X46503674Y-74394142D01*
X46502500Y-74370250D01*
X46502500Y-73457750D01*
X46503674Y-73433858D01*
X46507184Y-73410197D01*
X46512996Y-73386993D01*
X46521054Y-73364471D01*
X46531282Y-73342847D01*
X46543579Y-73322330D01*
X46557829Y-73303117D01*
X46573893Y-73285393D01*
X46591617Y-73269329D01*
X46610830Y-73255079D01*
X46631347Y-73242782D01*
X46652971Y-73232554D01*
X46675493Y-73224496D01*
X46698697Y-73218684D01*
X46722358Y-73215174D01*
X46746250Y-73214000D01*
X47233750Y-73214000D01*
X47257642Y-73215174D01*
X47257642Y-73215174D01*
G37*
D14*
X46990000Y-73914000D03*
D13*
G36*
X50010142Y-68093674D02*
G01*
X50033803Y-68097184D01*
X50057007Y-68102996D01*
X50079529Y-68111054D01*
X50101153Y-68121282D01*
X50121670Y-68133579D01*
X50140883Y-68147829D01*
X50158607Y-68163893D01*
X50174671Y-68181617D01*
X50188921Y-68200830D01*
X50201218Y-68221347D01*
X50211446Y-68242971D01*
X50219504Y-68265493D01*
X50225316Y-68288697D01*
X50228826Y-68312358D01*
X50230000Y-68336250D01*
X50230000Y-68823750D01*
X50228826Y-68847642D01*
X50225316Y-68871303D01*
X50219504Y-68894507D01*
X50211446Y-68917029D01*
X50201218Y-68938653D01*
X50188921Y-68959170D01*
X50174671Y-68978383D01*
X50158607Y-68996107D01*
X50140883Y-69012171D01*
X50121670Y-69026421D01*
X50101153Y-69038718D01*
X50079529Y-69048946D01*
X50057007Y-69057004D01*
X50033803Y-69062816D01*
X50010142Y-69066326D01*
X49986250Y-69067500D01*
X49073750Y-69067500D01*
X49049858Y-69066326D01*
X49026197Y-69062816D01*
X49002993Y-69057004D01*
X48980471Y-69048946D01*
X48958847Y-69038718D01*
X48938330Y-69026421D01*
X48919117Y-69012171D01*
X48901393Y-68996107D01*
X48885329Y-68978383D01*
X48871079Y-68959170D01*
X48858782Y-68938653D01*
X48848554Y-68917029D01*
X48840496Y-68894507D01*
X48834684Y-68871303D01*
X48831174Y-68847642D01*
X48830000Y-68823750D01*
X48830000Y-68336250D01*
X48831174Y-68312358D01*
X48834684Y-68288697D01*
X48840496Y-68265493D01*
X48848554Y-68242971D01*
X48858782Y-68221347D01*
X48871079Y-68200830D01*
X48885329Y-68181617D01*
X48901393Y-68163893D01*
X48919117Y-68147829D01*
X48938330Y-68133579D01*
X48958847Y-68121282D01*
X48980471Y-68111054D01*
X49002993Y-68102996D01*
X49026197Y-68097184D01*
X49049858Y-68093674D01*
X49073750Y-68092500D01*
X49986250Y-68092500D01*
X50010142Y-68093674D01*
X50010142Y-68093674D01*
G37*
D14*
X49530000Y-68580000D03*
D13*
G36*
X50010142Y-69968674D02*
G01*
X50033803Y-69972184D01*
X50057007Y-69977996D01*
X50079529Y-69986054D01*
X50101153Y-69996282D01*
X50121670Y-70008579D01*
X50140883Y-70022829D01*
X50158607Y-70038893D01*
X50174671Y-70056617D01*
X50188921Y-70075830D01*
X50201218Y-70096347D01*
X50211446Y-70117971D01*
X50219504Y-70140493D01*
X50225316Y-70163697D01*
X50228826Y-70187358D01*
X50230000Y-70211250D01*
X50230000Y-70698750D01*
X50228826Y-70722642D01*
X50225316Y-70746303D01*
X50219504Y-70769507D01*
X50211446Y-70792029D01*
X50201218Y-70813653D01*
X50188921Y-70834170D01*
X50174671Y-70853383D01*
X50158607Y-70871107D01*
X50140883Y-70887171D01*
X50121670Y-70901421D01*
X50101153Y-70913718D01*
X50079529Y-70923946D01*
X50057007Y-70932004D01*
X50033803Y-70937816D01*
X50010142Y-70941326D01*
X49986250Y-70942500D01*
X49073750Y-70942500D01*
X49049858Y-70941326D01*
X49026197Y-70937816D01*
X49002993Y-70932004D01*
X48980471Y-70923946D01*
X48958847Y-70913718D01*
X48938330Y-70901421D01*
X48919117Y-70887171D01*
X48901393Y-70871107D01*
X48885329Y-70853383D01*
X48871079Y-70834170D01*
X48858782Y-70813653D01*
X48848554Y-70792029D01*
X48840496Y-70769507D01*
X48834684Y-70746303D01*
X48831174Y-70722642D01*
X48830000Y-70698750D01*
X48830000Y-70211250D01*
X48831174Y-70187358D01*
X48834684Y-70163697D01*
X48840496Y-70140493D01*
X48848554Y-70117971D01*
X48858782Y-70096347D01*
X48871079Y-70075830D01*
X48885329Y-70056617D01*
X48901393Y-70038893D01*
X48919117Y-70022829D01*
X48938330Y-70008579D01*
X48958847Y-69996282D01*
X48980471Y-69986054D01*
X49002993Y-69977996D01*
X49026197Y-69972184D01*
X49049858Y-69968674D01*
X49073750Y-69967500D01*
X49986250Y-69967500D01*
X50010142Y-69968674D01*
X50010142Y-69968674D01*
G37*
D14*
X49530000Y-70455000D03*
D13*
G36*
X50010142Y-73808674D02*
G01*
X50033803Y-73812184D01*
X50057007Y-73817996D01*
X50079529Y-73826054D01*
X50101153Y-73836282D01*
X50121670Y-73848579D01*
X50140883Y-73862829D01*
X50158607Y-73878893D01*
X50174671Y-73896617D01*
X50188921Y-73915830D01*
X50201218Y-73936347D01*
X50211446Y-73957971D01*
X50219504Y-73980493D01*
X50225316Y-74003697D01*
X50228826Y-74027358D01*
X50230000Y-74051250D01*
X50230000Y-74538750D01*
X50228826Y-74562642D01*
X50225316Y-74586303D01*
X50219504Y-74609507D01*
X50211446Y-74632029D01*
X50201218Y-74653653D01*
X50188921Y-74674170D01*
X50174671Y-74693383D01*
X50158607Y-74711107D01*
X50140883Y-74727171D01*
X50121670Y-74741421D01*
X50101153Y-74753718D01*
X50079529Y-74763946D01*
X50057007Y-74772004D01*
X50033803Y-74777816D01*
X50010142Y-74781326D01*
X49986250Y-74782500D01*
X49073750Y-74782500D01*
X49049858Y-74781326D01*
X49026197Y-74777816D01*
X49002993Y-74772004D01*
X48980471Y-74763946D01*
X48958847Y-74753718D01*
X48938330Y-74741421D01*
X48919117Y-74727171D01*
X48901393Y-74711107D01*
X48885329Y-74693383D01*
X48871079Y-74674170D01*
X48858782Y-74653653D01*
X48848554Y-74632029D01*
X48840496Y-74609507D01*
X48834684Y-74586303D01*
X48831174Y-74562642D01*
X48830000Y-74538750D01*
X48830000Y-74051250D01*
X48831174Y-74027358D01*
X48834684Y-74003697D01*
X48840496Y-73980493D01*
X48848554Y-73957971D01*
X48858782Y-73936347D01*
X48871079Y-73915830D01*
X48885329Y-73896617D01*
X48901393Y-73878893D01*
X48919117Y-73862829D01*
X48938330Y-73848579D01*
X48958847Y-73836282D01*
X48980471Y-73826054D01*
X49002993Y-73817996D01*
X49026197Y-73812184D01*
X49049858Y-73808674D01*
X49073750Y-73807500D01*
X49986250Y-73807500D01*
X50010142Y-73808674D01*
X50010142Y-73808674D01*
G37*
D14*
X49530000Y-74295000D03*
D13*
G36*
X50010142Y-71933674D02*
G01*
X50033803Y-71937184D01*
X50057007Y-71942996D01*
X50079529Y-71951054D01*
X50101153Y-71961282D01*
X50121670Y-71973579D01*
X50140883Y-71987829D01*
X50158607Y-72003893D01*
X50174671Y-72021617D01*
X50188921Y-72040830D01*
X50201218Y-72061347D01*
X50211446Y-72082971D01*
X50219504Y-72105493D01*
X50225316Y-72128697D01*
X50228826Y-72152358D01*
X50230000Y-72176250D01*
X50230000Y-72663750D01*
X50228826Y-72687642D01*
X50225316Y-72711303D01*
X50219504Y-72734507D01*
X50211446Y-72757029D01*
X50201218Y-72778653D01*
X50188921Y-72799170D01*
X50174671Y-72818383D01*
X50158607Y-72836107D01*
X50140883Y-72852171D01*
X50121670Y-72866421D01*
X50101153Y-72878718D01*
X50079529Y-72888946D01*
X50057007Y-72897004D01*
X50033803Y-72902816D01*
X50010142Y-72906326D01*
X49986250Y-72907500D01*
X49073750Y-72907500D01*
X49049858Y-72906326D01*
X49026197Y-72902816D01*
X49002993Y-72897004D01*
X48980471Y-72888946D01*
X48958847Y-72878718D01*
X48938330Y-72866421D01*
X48919117Y-72852171D01*
X48901393Y-72836107D01*
X48885329Y-72818383D01*
X48871079Y-72799170D01*
X48858782Y-72778653D01*
X48848554Y-72757029D01*
X48840496Y-72734507D01*
X48834684Y-72711303D01*
X48831174Y-72687642D01*
X48830000Y-72663750D01*
X48830000Y-72176250D01*
X48831174Y-72152358D01*
X48834684Y-72128697D01*
X48840496Y-72105493D01*
X48848554Y-72082971D01*
X48858782Y-72061347D01*
X48871079Y-72040830D01*
X48885329Y-72021617D01*
X48901393Y-72003893D01*
X48919117Y-71987829D01*
X48938330Y-71973579D01*
X48958847Y-71961282D01*
X48980471Y-71951054D01*
X49002993Y-71942996D01*
X49026197Y-71937184D01*
X49049858Y-71933674D01*
X49073750Y-71932500D01*
X49986250Y-71932500D01*
X50010142Y-71933674D01*
X50010142Y-71933674D01*
G37*
D14*
X49530000Y-72420000D03*
D13*
G36*
X55210142Y-76771174D02*
G01*
X55233803Y-76774684D01*
X55257007Y-76780496D01*
X55279529Y-76788554D01*
X55301153Y-76798782D01*
X55321670Y-76811079D01*
X55340883Y-76825329D01*
X55358607Y-76841393D01*
X55374671Y-76859117D01*
X55388921Y-76878330D01*
X55401218Y-76898847D01*
X55411446Y-76920471D01*
X55419504Y-76942993D01*
X55425316Y-76966197D01*
X55428826Y-76989858D01*
X55430000Y-77013750D01*
X55430000Y-77926250D01*
X55428826Y-77950142D01*
X55425316Y-77973803D01*
X55419504Y-77997007D01*
X55411446Y-78019529D01*
X55401218Y-78041153D01*
X55388921Y-78061670D01*
X55374671Y-78080883D01*
X55358607Y-78098607D01*
X55340883Y-78114671D01*
X55321670Y-78128921D01*
X55301153Y-78141218D01*
X55279529Y-78151446D01*
X55257007Y-78159504D01*
X55233803Y-78165316D01*
X55210142Y-78168826D01*
X55186250Y-78170000D01*
X54698750Y-78170000D01*
X54674858Y-78168826D01*
X54651197Y-78165316D01*
X54627993Y-78159504D01*
X54605471Y-78151446D01*
X54583847Y-78141218D01*
X54563330Y-78128921D01*
X54544117Y-78114671D01*
X54526393Y-78098607D01*
X54510329Y-78080883D01*
X54496079Y-78061670D01*
X54483782Y-78041153D01*
X54473554Y-78019529D01*
X54465496Y-77997007D01*
X54459684Y-77973803D01*
X54456174Y-77950142D01*
X54455000Y-77926250D01*
X54455000Y-77013750D01*
X54456174Y-76989858D01*
X54459684Y-76966197D01*
X54465496Y-76942993D01*
X54473554Y-76920471D01*
X54483782Y-76898847D01*
X54496079Y-76878330D01*
X54510329Y-76859117D01*
X54526393Y-76841393D01*
X54544117Y-76825329D01*
X54563330Y-76811079D01*
X54583847Y-76798782D01*
X54605471Y-76788554D01*
X54627993Y-76780496D01*
X54651197Y-76774684D01*
X54674858Y-76771174D01*
X54698750Y-76770000D01*
X55186250Y-76770000D01*
X55210142Y-76771174D01*
X55210142Y-76771174D01*
G37*
D14*
X54942500Y-77470000D03*
D13*
G36*
X57085142Y-76771174D02*
G01*
X57108803Y-76774684D01*
X57132007Y-76780496D01*
X57154529Y-76788554D01*
X57176153Y-76798782D01*
X57196670Y-76811079D01*
X57215883Y-76825329D01*
X57233607Y-76841393D01*
X57249671Y-76859117D01*
X57263921Y-76878330D01*
X57276218Y-76898847D01*
X57286446Y-76920471D01*
X57294504Y-76942993D01*
X57300316Y-76966197D01*
X57303826Y-76989858D01*
X57305000Y-77013750D01*
X57305000Y-77926250D01*
X57303826Y-77950142D01*
X57300316Y-77973803D01*
X57294504Y-77997007D01*
X57286446Y-78019529D01*
X57276218Y-78041153D01*
X57263921Y-78061670D01*
X57249671Y-78080883D01*
X57233607Y-78098607D01*
X57215883Y-78114671D01*
X57196670Y-78128921D01*
X57176153Y-78141218D01*
X57154529Y-78151446D01*
X57132007Y-78159504D01*
X57108803Y-78165316D01*
X57085142Y-78168826D01*
X57061250Y-78170000D01*
X56573750Y-78170000D01*
X56549858Y-78168826D01*
X56526197Y-78165316D01*
X56502993Y-78159504D01*
X56480471Y-78151446D01*
X56458847Y-78141218D01*
X56438330Y-78128921D01*
X56419117Y-78114671D01*
X56401393Y-78098607D01*
X56385329Y-78080883D01*
X56371079Y-78061670D01*
X56358782Y-78041153D01*
X56348554Y-78019529D01*
X56340496Y-77997007D01*
X56334684Y-77973803D01*
X56331174Y-77950142D01*
X56330000Y-77926250D01*
X56330000Y-77013750D01*
X56331174Y-76989858D01*
X56334684Y-76966197D01*
X56340496Y-76942993D01*
X56348554Y-76920471D01*
X56358782Y-76898847D01*
X56371079Y-76878330D01*
X56385329Y-76859117D01*
X56401393Y-76841393D01*
X56419117Y-76825329D01*
X56438330Y-76811079D01*
X56458847Y-76798782D01*
X56480471Y-76788554D01*
X56502993Y-76780496D01*
X56526197Y-76774684D01*
X56549858Y-76771174D01*
X56573750Y-76770000D01*
X57061250Y-76770000D01*
X57085142Y-76771174D01*
X57085142Y-76771174D01*
G37*
D14*
X56817500Y-77470000D03*
D13*
G36*
X44676142Y-58109174D02*
G01*
X44699803Y-58112684D01*
X44723007Y-58118496D01*
X44745529Y-58126554D01*
X44767153Y-58136782D01*
X44787670Y-58149079D01*
X44806883Y-58163329D01*
X44824607Y-58179393D01*
X44840671Y-58197117D01*
X44854921Y-58216330D01*
X44867218Y-58236847D01*
X44877446Y-58258471D01*
X44885504Y-58280993D01*
X44891316Y-58304197D01*
X44894826Y-58327858D01*
X44896000Y-58351750D01*
X44896000Y-58839250D01*
X44894826Y-58863142D01*
X44891316Y-58886803D01*
X44885504Y-58910007D01*
X44877446Y-58932529D01*
X44867218Y-58954153D01*
X44854921Y-58974670D01*
X44840671Y-58993883D01*
X44824607Y-59011607D01*
X44806883Y-59027671D01*
X44787670Y-59041921D01*
X44767153Y-59054218D01*
X44745529Y-59064446D01*
X44723007Y-59072504D01*
X44699803Y-59078316D01*
X44676142Y-59081826D01*
X44652250Y-59083000D01*
X43739750Y-59083000D01*
X43715858Y-59081826D01*
X43692197Y-59078316D01*
X43668993Y-59072504D01*
X43646471Y-59064446D01*
X43624847Y-59054218D01*
X43604330Y-59041921D01*
X43585117Y-59027671D01*
X43567393Y-59011607D01*
X43551329Y-58993883D01*
X43537079Y-58974670D01*
X43524782Y-58954153D01*
X43514554Y-58932529D01*
X43506496Y-58910007D01*
X43500684Y-58886803D01*
X43497174Y-58863142D01*
X43496000Y-58839250D01*
X43496000Y-58351750D01*
X43497174Y-58327858D01*
X43500684Y-58304197D01*
X43506496Y-58280993D01*
X43514554Y-58258471D01*
X43524782Y-58236847D01*
X43537079Y-58216330D01*
X43551329Y-58197117D01*
X43567393Y-58179393D01*
X43585117Y-58163329D01*
X43604330Y-58149079D01*
X43624847Y-58136782D01*
X43646471Y-58126554D01*
X43668993Y-58118496D01*
X43692197Y-58112684D01*
X43715858Y-58109174D01*
X43739750Y-58108000D01*
X44652250Y-58108000D01*
X44676142Y-58109174D01*
X44676142Y-58109174D01*
G37*
D14*
X44196000Y-58595500D03*
D13*
G36*
X44676142Y-56234174D02*
G01*
X44699803Y-56237684D01*
X44723007Y-56243496D01*
X44745529Y-56251554D01*
X44767153Y-56261782D01*
X44787670Y-56274079D01*
X44806883Y-56288329D01*
X44824607Y-56304393D01*
X44840671Y-56322117D01*
X44854921Y-56341330D01*
X44867218Y-56361847D01*
X44877446Y-56383471D01*
X44885504Y-56405993D01*
X44891316Y-56429197D01*
X44894826Y-56452858D01*
X44896000Y-56476750D01*
X44896000Y-56964250D01*
X44894826Y-56988142D01*
X44891316Y-57011803D01*
X44885504Y-57035007D01*
X44877446Y-57057529D01*
X44867218Y-57079153D01*
X44854921Y-57099670D01*
X44840671Y-57118883D01*
X44824607Y-57136607D01*
X44806883Y-57152671D01*
X44787670Y-57166921D01*
X44767153Y-57179218D01*
X44745529Y-57189446D01*
X44723007Y-57197504D01*
X44699803Y-57203316D01*
X44676142Y-57206826D01*
X44652250Y-57208000D01*
X43739750Y-57208000D01*
X43715858Y-57206826D01*
X43692197Y-57203316D01*
X43668993Y-57197504D01*
X43646471Y-57189446D01*
X43624847Y-57179218D01*
X43604330Y-57166921D01*
X43585117Y-57152671D01*
X43567393Y-57136607D01*
X43551329Y-57118883D01*
X43537079Y-57099670D01*
X43524782Y-57079153D01*
X43514554Y-57057529D01*
X43506496Y-57035007D01*
X43500684Y-57011803D01*
X43497174Y-56988142D01*
X43496000Y-56964250D01*
X43496000Y-56476750D01*
X43497174Y-56452858D01*
X43500684Y-56429197D01*
X43506496Y-56405993D01*
X43514554Y-56383471D01*
X43524782Y-56361847D01*
X43537079Y-56341330D01*
X43551329Y-56322117D01*
X43567393Y-56304393D01*
X43585117Y-56288329D01*
X43604330Y-56274079D01*
X43624847Y-56261782D01*
X43646471Y-56251554D01*
X43668993Y-56243496D01*
X43692197Y-56237684D01*
X43715858Y-56234174D01*
X43739750Y-56233000D01*
X44652250Y-56233000D01*
X44676142Y-56234174D01*
X44676142Y-56234174D01*
G37*
D14*
X44196000Y-56720500D03*
M02*
