G04 #@! TF.GenerationSoftware,KiCad,Pcbnew,(5.1.4)-1*
G04 #@! TF.CreationDate,2019-12-17T12:56:31-08:00*
G04 #@! TF.ProjectId,pixel-stick,70697865-6c2d-4737-9469-636b2e6b6963,rev?*
G04 #@! TF.SameCoordinates,Original*
G04 #@! TF.FileFunction,Copper,L2,Bot*
G04 #@! TF.FilePolarity,Positive*
%FSLAX46Y46*%
G04 Gerber Fmt 4.6, Leading zero omitted, Abs format (unit mm)*
G04 Created by KiCad (PCBNEW (5.1.4)-1) date 2019-12-17 12:56:31*
%MOMM*%
%LPD*%
G04 APERTURE LIST*
%ADD10O,1.750000X1.200000*%
%ADD11C,0.100000*%
%ADD12C,1.200000*%
%ADD13O,1.700000X1.700000*%
%ADD14R,1.700000X1.700000*%
%ADD15C,0.800000*%
%ADD16C,0.500000*%
%ADD17C,0.254000*%
G04 APERTURE END LIST*
D10*
X110250000Y-36750000D03*
X110250000Y-38750000D03*
D11*
G36*
X110899505Y-40151204D02*
G01*
X110923773Y-40154804D01*
X110947572Y-40160765D01*
X110970671Y-40169030D01*
X110992850Y-40179520D01*
X111013893Y-40192132D01*
X111033599Y-40206747D01*
X111051777Y-40223223D01*
X111068253Y-40241401D01*
X111082868Y-40261107D01*
X111095480Y-40282150D01*
X111105970Y-40304329D01*
X111114235Y-40327428D01*
X111120196Y-40351227D01*
X111123796Y-40375495D01*
X111125000Y-40399999D01*
X111125000Y-41100001D01*
X111123796Y-41124505D01*
X111120196Y-41148773D01*
X111114235Y-41172572D01*
X111105970Y-41195671D01*
X111095480Y-41217850D01*
X111082868Y-41238893D01*
X111068253Y-41258599D01*
X111051777Y-41276777D01*
X111033599Y-41293253D01*
X111013893Y-41307868D01*
X110992850Y-41320480D01*
X110970671Y-41330970D01*
X110947572Y-41339235D01*
X110923773Y-41345196D01*
X110899505Y-41348796D01*
X110875001Y-41350000D01*
X109624999Y-41350000D01*
X109600495Y-41348796D01*
X109576227Y-41345196D01*
X109552428Y-41339235D01*
X109529329Y-41330970D01*
X109507150Y-41320480D01*
X109486107Y-41307868D01*
X109466401Y-41293253D01*
X109448223Y-41276777D01*
X109431747Y-41258599D01*
X109417132Y-41238893D01*
X109404520Y-41217850D01*
X109394030Y-41195671D01*
X109385765Y-41172572D01*
X109379804Y-41148773D01*
X109376204Y-41124505D01*
X109375000Y-41100001D01*
X109375000Y-40399999D01*
X109376204Y-40375495D01*
X109379804Y-40351227D01*
X109385765Y-40327428D01*
X109394030Y-40304329D01*
X109404520Y-40282150D01*
X109417132Y-40261107D01*
X109431747Y-40241401D01*
X109448223Y-40223223D01*
X109466401Y-40206747D01*
X109486107Y-40192132D01*
X109507150Y-40179520D01*
X109529329Y-40169030D01*
X109552428Y-40160765D01*
X109576227Y-40154804D01*
X109600495Y-40151204D01*
X109624999Y-40150000D01*
X110875001Y-40150000D01*
X110899505Y-40151204D01*
X110899505Y-40151204D01*
G37*
D12*
X110250000Y-40750000D03*
D13*
X88457499Y-31250000D03*
D14*
X85917499Y-31250000D03*
D15*
X100500000Y-33750000D03*
X93500000Y-31250000D03*
X81250000Y-31250000D03*
X107250000Y-43250000D03*
X96959980Y-30000000D03*
X96959980Y-32290020D03*
D16*
X96959980Y-30000000D02*
X96959980Y-32290020D01*
D17*
G36*
X96305306Y-29202277D02*
G01*
X96162257Y-29345326D01*
X96049865Y-29513533D01*
X95972447Y-29700435D01*
X95932980Y-29898849D01*
X95932980Y-30101151D01*
X95972447Y-30299565D01*
X96049865Y-30486467D01*
X96082980Y-30536028D01*
X96082981Y-31753992D01*
X96049865Y-31803553D01*
X95972447Y-31990455D01*
X95932980Y-32188869D01*
X95932980Y-32391171D01*
X95972447Y-32589585D01*
X96049865Y-32776487D01*
X96162257Y-32944694D01*
X96305306Y-33087743D01*
X96473513Y-33200135D01*
X96660415Y-33277553D01*
X96858829Y-33317020D01*
X97061131Y-33317020D01*
X97259545Y-33277553D01*
X97446447Y-33200135D01*
X97614654Y-33087743D01*
X97757703Y-32944694D01*
X97870095Y-32776487D01*
X97947513Y-32589585D01*
X97986980Y-32391171D01*
X97986980Y-32188869D01*
X97947513Y-31990455D01*
X97870095Y-31803553D01*
X97836980Y-31753993D01*
X97836980Y-30536027D01*
X97870095Y-30486467D01*
X97947513Y-30299565D01*
X97986980Y-30101151D01*
X97986980Y-29898849D01*
X97947513Y-29700435D01*
X97870095Y-29513533D01*
X97757703Y-29345326D01*
X97614654Y-29202277D01*
X97539409Y-29152000D01*
X109848000Y-29152000D01*
X109848001Y-30167968D01*
X109844846Y-30200000D01*
X109857435Y-30327814D01*
X109894717Y-30450717D01*
X109955259Y-30563984D01*
X110036736Y-30663264D01*
X110136016Y-30744741D01*
X110249283Y-30805283D01*
X110372186Y-30842565D01*
X110467978Y-30852000D01*
X110500000Y-30855154D01*
X110532022Y-30852000D01*
X113348001Y-30852000D01*
X113348000Y-46648000D01*
X110532022Y-46648000D01*
X110500000Y-46644846D01*
X110467978Y-46648000D01*
X110372186Y-46657435D01*
X110249283Y-46694717D01*
X110136016Y-46755259D01*
X110036736Y-46836736D01*
X109955259Y-46936016D01*
X109894717Y-47049283D01*
X109857435Y-47172186D01*
X109844846Y-47300000D01*
X109848001Y-47332032D01*
X109848000Y-48348000D01*
X108986935Y-48348000D01*
X109196518Y-48207961D01*
X109457961Y-47946518D01*
X109663376Y-47639093D01*
X109804868Y-47297501D01*
X109877000Y-46934868D01*
X109877000Y-46565132D01*
X109804868Y-46202499D01*
X109663376Y-45860907D01*
X109457961Y-45553482D01*
X109196518Y-45292039D01*
X108889093Y-45086624D01*
X108547501Y-44945132D01*
X108184868Y-44873000D01*
X107815132Y-44873000D01*
X107452499Y-44945132D01*
X107110907Y-45086624D01*
X106803482Y-45292039D01*
X106542039Y-45553482D01*
X106336624Y-45860907D01*
X106195132Y-46202499D01*
X106123000Y-46565132D01*
X106123000Y-46934868D01*
X106195132Y-47297501D01*
X106336624Y-47639093D01*
X106542039Y-47946518D01*
X106803482Y-48207961D01*
X107013065Y-48348000D01*
X104127000Y-48348000D01*
X104127000Y-43000000D01*
X104124560Y-42975224D01*
X104117333Y-42951399D01*
X104105597Y-42929443D01*
X104089803Y-42910197D01*
X104070557Y-42894403D01*
X104048601Y-42882667D01*
X104024776Y-42875440D01*
X104000000Y-42873000D01*
X101500000Y-42873000D01*
X101475224Y-42875440D01*
X101451399Y-42882667D01*
X101429443Y-42894403D01*
X101410197Y-42910197D01*
X101394403Y-42929443D01*
X101382667Y-42951399D01*
X101375440Y-42975224D01*
X101373000Y-43000000D01*
X101373000Y-48348000D01*
X77127000Y-48348000D01*
X77127000Y-38750000D01*
X108742064Y-38750000D01*
X108765755Y-38990534D01*
X108835916Y-39221824D01*
X108949851Y-39434983D01*
X109103183Y-39621817D01*
X109150442Y-39660602D01*
X109136079Y-39668279D01*
X109002722Y-39777722D01*
X108893279Y-39911079D01*
X108811955Y-40063225D01*
X108761877Y-40228313D01*
X108744967Y-40399999D01*
X108744967Y-41100001D01*
X108761877Y-41271687D01*
X108811955Y-41436775D01*
X108893279Y-41588921D01*
X109002722Y-41722278D01*
X109136079Y-41831721D01*
X109288225Y-41913045D01*
X109453313Y-41963123D01*
X109624999Y-41980033D01*
X110875001Y-41980033D01*
X111046687Y-41963123D01*
X111211775Y-41913045D01*
X111363921Y-41831721D01*
X111497278Y-41722278D01*
X111606721Y-41588921D01*
X111688045Y-41436775D01*
X111738123Y-41271687D01*
X111755033Y-41100001D01*
X111755033Y-40399999D01*
X111738123Y-40228313D01*
X111688045Y-40063225D01*
X111606721Y-39911079D01*
X111497278Y-39777722D01*
X111363921Y-39668279D01*
X111349558Y-39660602D01*
X111396817Y-39621817D01*
X111550149Y-39434983D01*
X111664084Y-39221824D01*
X111734245Y-38990534D01*
X111757936Y-38750000D01*
X111734245Y-38509466D01*
X111664084Y-38278176D01*
X111550149Y-38065017D01*
X111396817Y-37878183D01*
X111245729Y-37754188D01*
X111316725Y-37706307D01*
X111488078Y-37533474D01*
X111622421Y-37330533D01*
X111714591Y-37105282D01*
X111718462Y-37067609D01*
X111593731Y-36877000D01*
X110377000Y-36877000D01*
X110377000Y-36897000D01*
X110123000Y-36897000D01*
X110123000Y-36877000D01*
X108906269Y-36877000D01*
X108781538Y-37067609D01*
X108785409Y-37105282D01*
X108877579Y-37330533D01*
X109011922Y-37533474D01*
X109183275Y-37706307D01*
X109254271Y-37754188D01*
X109103183Y-37878183D01*
X108949851Y-38065017D01*
X108835916Y-38278176D01*
X108765755Y-38509466D01*
X108742064Y-38750000D01*
X77127000Y-38750000D01*
X77127000Y-36432391D01*
X108781538Y-36432391D01*
X108906269Y-36623000D01*
X110123000Y-36623000D01*
X110123000Y-35515000D01*
X110377000Y-35515000D01*
X110377000Y-36623000D01*
X111593731Y-36623000D01*
X111718462Y-36432391D01*
X111714591Y-36394718D01*
X111622421Y-36169467D01*
X111488078Y-35966526D01*
X111316725Y-35793693D01*
X111114946Y-35657610D01*
X110890496Y-35563507D01*
X110652000Y-35515000D01*
X110377000Y-35515000D01*
X110123000Y-35515000D01*
X109848000Y-35515000D01*
X109609504Y-35563507D01*
X109385054Y-35657610D01*
X109183275Y-35793693D01*
X109011922Y-35966526D01*
X108877579Y-36169467D01*
X108785409Y-36394718D01*
X108781538Y-36432391D01*
X77127000Y-36432391D01*
X77127000Y-30400000D01*
X84437466Y-30400000D01*
X84437466Y-32100000D01*
X84449572Y-32222913D01*
X84485424Y-32341103D01*
X84543646Y-32450028D01*
X84621998Y-32545501D01*
X84717471Y-32623853D01*
X84826396Y-32682075D01*
X84944586Y-32717927D01*
X85067499Y-32730033D01*
X86767499Y-32730033D01*
X86890412Y-32717927D01*
X87008602Y-32682075D01*
X87117527Y-32623853D01*
X87213000Y-32545501D01*
X87291352Y-32450028D01*
X87349574Y-32341103D01*
X87374580Y-32258668D01*
X87408049Y-32299450D01*
X87632952Y-32484022D01*
X87889541Y-32621172D01*
X88167956Y-32705629D01*
X88384943Y-32727000D01*
X88530055Y-32727000D01*
X88747042Y-32705629D01*
X89025457Y-32621172D01*
X89282046Y-32484022D01*
X89506949Y-32299450D01*
X89691521Y-32074547D01*
X89828671Y-31817958D01*
X89913128Y-31539543D01*
X89941645Y-31250000D01*
X89913128Y-30960457D01*
X89828671Y-30682042D01*
X89691521Y-30425453D01*
X89506949Y-30200550D01*
X89282046Y-30015978D01*
X89025457Y-29878828D01*
X88747042Y-29794371D01*
X88530055Y-29773000D01*
X88384943Y-29773000D01*
X88167956Y-29794371D01*
X87889541Y-29878828D01*
X87632952Y-30015978D01*
X87408049Y-30200550D01*
X87374580Y-30241332D01*
X87349574Y-30158897D01*
X87291352Y-30049972D01*
X87213000Y-29954499D01*
X87117527Y-29876147D01*
X87008602Y-29817925D01*
X86890412Y-29782073D01*
X86767499Y-29769967D01*
X85067499Y-29769967D01*
X84944586Y-29782073D01*
X84826396Y-29817925D01*
X84717471Y-29876147D01*
X84621998Y-29954499D01*
X84543646Y-30049972D01*
X84485424Y-30158897D01*
X84449572Y-30277087D01*
X84437466Y-30400000D01*
X77127000Y-30400000D01*
X77127000Y-29152000D01*
X96380551Y-29152000D01*
X96305306Y-29202277D01*
X96305306Y-29202277D01*
G37*
X96305306Y-29202277D02*
X96162257Y-29345326D01*
X96049865Y-29513533D01*
X95972447Y-29700435D01*
X95932980Y-29898849D01*
X95932980Y-30101151D01*
X95972447Y-30299565D01*
X96049865Y-30486467D01*
X96082980Y-30536028D01*
X96082981Y-31753992D01*
X96049865Y-31803553D01*
X95972447Y-31990455D01*
X95932980Y-32188869D01*
X95932980Y-32391171D01*
X95972447Y-32589585D01*
X96049865Y-32776487D01*
X96162257Y-32944694D01*
X96305306Y-33087743D01*
X96473513Y-33200135D01*
X96660415Y-33277553D01*
X96858829Y-33317020D01*
X97061131Y-33317020D01*
X97259545Y-33277553D01*
X97446447Y-33200135D01*
X97614654Y-33087743D01*
X97757703Y-32944694D01*
X97870095Y-32776487D01*
X97947513Y-32589585D01*
X97986980Y-32391171D01*
X97986980Y-32188869D01*
X97947513Y-31990455D01*
X97870095Y-31803553D01*
X97836980Y-31753993D01*
X97836980Y-30536027D01*
X97870095Y-30486467D01*
X97947513Y-30299565D01*
X97986980Y-30101151D01*
X97986980Y-29898849D01*
X97947513Y-29700435D01*
X97870095Y-29513533D01*
X97757703Y-29345326D01*
X97614654Y-29202277D01*
X97539409Y-29152000D01*
X109848000Y-29152000D01*
X109848001Y-30167968D01*
X109844846Y-30200000D01*
X109857435Y-30327814D01*
X109894717Y-30450717D01*
X109955259Y-30563984D01*
X110036736Y-30663264D01*
X110136016Y-30744741D01*
X110249283Y-30805283D01*
X110372186Y-30842565D01*
X110467978Y-30852000D01*
X110500000Y-30855154D01*
X110532022Y-30852000D01*
X113348001Y-30852000D01*
X113348000Y-46648000D01*
X110532022Y-46648000D01*
X110500000Y-46644846D01*
X110467978Y-46648000D01*
X110372186Y-46657435D01*
X110249283Y-46694717D01*
X110136016Y-46755259D01*
X110036736Y-46836736D01*
X109955259Y-46936016D01*
X109894717Y-47049283D01*
X109857435Y-47172186D01*
X109844846Y-47300000D01*
X109848001Y-47332032D01*
X109848000Y-48348000D01*
X108986935Y-48348000D01*
X109196518Y-48207961D01*
X109457961Y-47946518D01*
X109663376Y-47639093D01*
X109804868Y-47297501D01*
X109877000Y-46934868D01*
X109877000Y-46565132D01*
X109804868Y-46202499D01*
X109663376Y-45860907D01*
X109457961Y-45553482D01*
X109196518Y-45292039D01*
X108889093Y-45086624D01*
X108547501Y-44945132D01*
X108184868Y-44873000D01*
X107815132Y-44873000D01*
X107452499Y-44945132D01*
X107110907Y-45086624D01*
X106803482Y-45292039D01*
X106542039Y-45553482D01*
X106336624Y-45860907D01*
X106195132Y-46202499D01*
X106123000Y-46565132D01*
X106123000Y-46934868D01*
X106195132Y-47297501D01*
X106336624Y-47639093D01*
X106542039Y-47946518D01*
X106803482Y-48207961D01*
X107013065Y-48348000D01*
X104127000Y-48348000D01*
X104127000Y-43000000D01*
X104124560Y-42975224D01*
X104117333Y-42951399D01*
X104105597Y-42929443D01*
X104089803Y-42910197D01*
X104070557Y-42894403D01*
X104048601Y-42882667D01*
X104024776Y-42875440D01*
X104000000Y-42873000D01*
X101500000Y-42873000D01*
X101475224Y-42875440D01*
X101451399Y-42882667D01*
X101429443Y-42894403D01*
X101410197Y-42910197D01*
X101394403Y-42929443D01*
X101382667Y-42951399D01*
X101375440Y-42975224D01*
X101373000Y-43000000D01*
X101373000Y-48348000D01*
X77127000Y-48348000D01*
X77127000Y-38750000D01*
X108742064Y-38750000D01*
X108765755Y-38990534D01*
X108835916Y-39221824D01*
X108949851Y-39434983D01*
X109103183Y-39621817D01*
X109150442Y-39660602D01*
X109136079Y-39668279D01*
X109002722Y-39777722D01*
X108893279Y-39911079D01*
X108811955Y-40063225D01*
X108761877Y-40228313D01*
X108744967Y-40399999D01*
X108744967Y-41100001D01*
X108761877Y-41271687D01*
X108811955Y-41436775D01*
X108893279Y-41588921D01*
X109002722Y-41722278D01*
X109136079Y-41831721D01*
X109288225Y-41913045D01*
X109453313Y-41963123D01*
X109624999Y-41980033D01*
X110875001Y-41980033D01*
X111046687Y-41963123D01*
X111211775Y-41913045D01*
X111363921Y-41831721D01*
X111497278Y-41722278D01*
X111606721Y-41588921D01*
X111688045Y-41436775D01*
X111738123Y-41271687D01*
X111755033Y-41100001D01*
X111755033Y-40399999D01*
X111738123Y-40228313D01*
X111688045Y-40063225D01*
X111606721Y-39911079D01*
X111497278Y-39777722D01*
X111363921Y-39668279D01*
X111349558Y-39660602D01*
X111396817Y-39621817D01*
X111550149Y-39434983D01*
X111664084Y-39221824D01*
X111734245Y-38990534D01*
X111757936Y-38750000D01*
X111734245Y-38509466D01*
X111664084Y-38278176D01*
X111550149Y-38065017D01*
X111396817Y-37878183D01*
X111245729Y-37754188D01*
X111316725Y-37706307D01*
X111488078Y-37533474D01*
X111622421Y-37330533D01*
X111714591Y-37105282D01*
X111718462Y-37067609D01*
X111593731Y-36877000D01*
X110377000Y-36877000D01*
X110377000Y-36897000D01*
X110123000Y-36897000D01*
X110123000Y-36877000D01*
X108906269Y-36877000D01*
X108781538Y-37067609D01*
X108785409Y-37105282D01*
X108877579Y-37330533D01*
X109011922Y-37533474D01*
X109183275Y-37706307D01*
X109254271Y-37754188D01*
X109103183Y-37878183D01*
X108949851Y-38065017D01*
X108835916Y-38278176D01*
X108765755Y-38509466D01*
X108742064Y-38750000D01*
X77127000Y-38750000D01*
X77127000Y-36432391D01*
X108781538Y-36432391D01*
X108906269Y-36623000D01*
X110123000Y-36623000D01*
X110123000Y-35515000D01*
X110377000Y-35515000D01*
X110377000Y-36623000D01*
X111593731Y-36623000D01*
X111718462Y-36432391D01*
X111714591Y-36394718D01*
X111622421Y-36169467D01*
X111488078Y-35966526D01*
X111316725Y-35793693D01*
X111114946Y-35657610D01*
X110890496Y-35563507D01*
X110652000Y-35515000D01*
X110377000Y-35515000D01*
X110123000Y-35515000D01*
X109848000Y-35515000D01*
X109609504Y-35563507D01*
X109385054Y-35657610D01*
X109183275Y-35793693D01*
X109011922Y-35966526D01*
X108877579Y-36169467D01*
X108785409Y-36394718D01*
X108781538Y-36432391D01*
X77127000Y-36432391D01*
X77127000Y-30400000D01*
X84437466Y-30400000D01*
X84437466Y-32100000D01*
X84449572Y-32222913D01*
X84485424Y-32341103D01*
X84543646Y-32450028D01*
X84621998Y-32545501D01*
X84717471Y-32623853D01*
X84826396Y-32682075D01*
X84944586Y-32717927D01*
X85067499Y-32730033D01*
X86767499Y-32730033D01*
X86890412Y-32717927D01*
X87008602Y-32682075D01*
X87117527Y-32623853D01*
X87213000Y-32545501D01*
X87291352Y-32450028D01*
X87349574Y-32341103D01*
X87374580Y-32258668D01*
X87408049Y-32299450D01*
X87632952Y-32484022D01*
X87889541Y-32621172D01*
X88167956Y-32705629D01*
X88384943Y-32727000D01*
X88530055Y-32727000D01*
X88747042Y-32705629D01*
X89025457Y-32621172D01*
X89282046Y-32484022D01*
X89506949Y-32299450D01*
X89691521Y-32074547D01*
X89828671Y-31817958D01*
X89913128Y-31539543D01*
X89941645Y-31250000D01*
X89913128Y-30960457D01*
X89828671Y-30682042D01*
X89691521Y-30425453D01*
X89506949Y-30200550D01*
X89282046Y-30015978D01*
X89025457Y-29878828D01*
X88747042Y-29794371D01*
X88530055Y-29773000D01*
X88384943Y-29773000D01*
X88167956Y-29794371D01*
X87889541Y-29878828D01*
X87632952Y-30015978D01*
X87408049Y-30200550D01*
X87374580Y-30241332D01*
X87349574Y-30158897D01*
X87291352Y-30049972D01*
X87213000Y-29954499D01*
X87117527Y-29876147D01*
X87008602Y-29817925D01*
X86890412Y-29782073D01*
X86767499Y-29769967D01*
X85067499Y-29769967D01*
X84944586Y-29782073D01*
X84826396Y-29817925D01*
X84717471Y-29876147D01*
X84621998Y-29954499D01*
X84543646Y-30049972D01*
X84485424Y-30158897D01*
X84449572Y-30277087D01*
X84437466Y-30400000D01*
X77127000Y-30400000D01*
X77127000Y-29152000D01*
X96380551Y-29152000D01*
X96305306Y-29202277D01*
M02*
