G04 #@! TF.GenerationSoftware,KiCad,Pcbnew,(5.1.4)-1*
G04 #@! TF.CreationDate,2019-12-17T13:17:42-08:00*
G04 #@! TF.ProjectId,pixel-stick,70697865-6c2d-4737-9469-636b2e6b6963,rev?*
G04 #@! TF.SameCoordinates,Original*
G04 #@! TF.FileFunction,Copper,L1,Top*
G04 #@! TF.FilePolarity,Positive*
%FSLAX46Y46*%
G04 Gerber Fmt 4.6, Leading zero omitted, Abs format (unit mm)*
G04 Created by KiCad (PCBNEW (5.1.4)-1) date 2019-12-17 13:17:42*
%MOMM*%
%LPD*%
G04 APERTURE LIST*
%ADD10O,1.750000X1.200000*%
%ADD11C,0.100000*%
%ADD12C,1.200000*%
%ADD13R,0.650000X1.060000*%
%ADD14O,1.700000X1.700000*%
%ADD15R,1.700000X1.700000*%
%ADD16C,0.800000*%
%ADD17C,0.975000*%
%ADD18R,2.500000X2.500000*%
%ADD19R,0.900000X2.000000*%
%ADD20R,1.060000X0.650000*%
%ADD21R,0.900000X0.800000*%
%ADD22R,0.650000X2.000000*%
%ADD23C,0.500000*%
%ADD24C,1.000000*%
%ADD25C,0.250000*%
%ADD26C,0.254000*%
G04 APERTURE END LIST*
D10*
X110250000Y-36750000D03*
X110250000Y-38750000D03*
D11*
G36*
X110899505Y-40151204D02*
G01*
X110923773Y-40154804D01*
X110947572Y-40160765D01*
X110970671Y-40169030D01*
X110992850Y-40179520D01*
X111013893Y-40192132D01*
X111033599Y-40206747D01*
X111051777Y-40223223D01*
X111068253Y-40241401D01*
X111082868Y-40261107D01*
X111095480Y-40282150D01*
X111105970Y-40304329D01*
X111114235Y-40327428D01*
X111120196Y-40351227D01*
X111123796Y-40375495D01*
X111125000Y-40399999D01*
X111125000Y-41100001D01*
X111123796Y-41124505D01*
X111120196Y-41148773D01*
X111114235Y-41172572D01*
X111105970Y-41195671D01*
X111095480Y-41217850D01*
X111082868Y-41238893D01*
X111068253Y-41258599D01*
X111051777Y-41276777D01*
X111033599Y-41293253D01*
X111013893Y-41307868D01*
X110992850Y-41320480D01*
X110970671Y-41330970D01*
X110947572Y-41339235D01*
X110923773Y-41345196D01*
X110899505Y-41348796D01*
X110875001Y-41350000D01*
X109624999Y-41350000D01*
X109600495Y-41348796D01*
X109576227Y-41345196D01*
X109552428Y-41339235D01*
X109529329Y-41330970D01*
X109507150Y-41320480D01*
X109486107Y-41307868D01*
X109466401Y-41293253D01*
X109448223Y-41276777D01*
X109431747Y-41258599D01*
X109417132Y-41238893D01*
X109404520Y-41217850D01*
X109394030Y-41195671D01*
X109385765Y-41172572D01*
X109379804Y-41148773D01*
X109376204Y-41124505D01*
X109375000Y-41100001D01*
X109375000Y-40399999D01*
X109376204Y-40375495D01*
X109379804Y-40351227D01*
X109385765Y-40327428D01*
X109394030Y-40304329D01*
X109404520Y-40282150D01*
X109417132Y-40261107D01*
X109431747Y-40241401D01*
X109448223Y-40223223D01*
X109466401Y-40206747D01*
X109486107Y-40192132D01*
X109507150Y-40179520D01*
X109529329Y-40169030D01*
X109552428Y-40160765D01*
X109576227Y-40154804D01*
X109600495Y-40151204D01*
X109624999Y-40150000D01*
X110875001Y-40150000D01*
X110899505Y-40151204D01*
X110899505Y-40151204D01*
G37*
D12*
X110250000Y-40750000D03*
D13*
X102990000Y-43870000D03*
X101090000Y-43870000D03*
X101090000Y-41670000D03*
X102040000Y-41670000D03*
X102990000Y-41670000D03*
D14*
X88457499Y-31250000D03*
D15*
X85917499Y-31250000D03*
D11*
G36*
X91387102Y-30250963D02*
G01*
X91406517Y-30253843D01*
X91425556Y-30258612D01*
X91444036Y-30265224D01*
X91461778Y-30273616D01*
X91478613Y-30283706D01*
X91494378Y-30295398D01*
X91508920Y-30308579D01*
X91522101Y-30323121D01*
X91533793Y-30338886D01*
X91543883Y-30355721D01*
X91552275Y-30373463D01*
X91558887Y-30391943D01*
X91563656Y-30410982D01*
X91566536Y-30430397D01*
X91567499Y-30450000D01*
X91567499Y-32050000D01*
X91566536Y-32069603D01*
X91563656Y-32089018D01*
X91558887Y-32108057D01*
X91552275Y-32126537D01*
X91543883Y-32144279D01*
X91533793Y-32161114D01*
X91522101Y-32176879D01*
X91508920Y-32191421D01*
X91494378Y-32204602D01*
X91478613Y-32216294D01*
X91461778Y-32226384D01*
X91444036Y-32234776D01*
X91425556Y-32241388D01*
X91406517Y-32246157D01*
X91387102Y-32249037D01*
X91367499Y-32250000D01*
X90967499Y-32250000D01*
X90947896Y-32249037D01*
X90928481Y-32246157D01*
X90909442Y-32241388D01*
X90890962Y-32234776D01*
X90873220Y-32226384D01*
X90856385Y-32216294D01*
X90840620Y-32204602D01*
X90826078Y-32191421D01*
X90812897Y-32176879D01*
X90801205Y-32161114D01*
X90791115Y-32144279D01*
X90782723Y-32126537D01*
X90776111Y-32108057D01*
X90771342Y-32089018D01*
X90768462Y-32069603D01*
X90767499Y-32050000D01*
X90767499Y-30450000D01*
X90768462Y-30430397D01*
X90771342Y-30410982D01*
X90776111Y-30391943D01*
X90782723Y-30373463D01*
X90791115Y-30355721D01*
X90801205Y-30338886D01*
X90812897Y-30323121D01*
X90826078Y-30308579D01*
X90840620Y-30295398D01*
X90856385Y-30283706D01*
X90873220Y-30273616D01*
X90890962Y-30265224D01*
X90909442Y-30258612D01*
X90928481Y-30253843D01*
X90947896Y-30250963D01*
X90967499Y-30250000D01*
X91367499Y-30250000D01*
X91387102Y-30250963D01*
X91387102Y-30250963D01*
G37*
D16*
X91167499Y-31250000D03*
D11*
G36*
X95587102Y-30250963D02*
G01*
X95606517Y-30253843D01*
X95625556Y-30258612D01*
X95644036Y-30265224D01*
X95661778Y-30273616D01*
X95678613Y-30283706D01*
X95694378Y-30295398D01*
X95708920Y-30308579D01*
X95722101Y-30323121D01*
X95733793Y-30338886D01*
X95743883Y-30355721D01*
X95752275Y-30373463D01*
X95758887Y-30391943D01*
X95763656Y-30410982D01*
X95766536Y-30430397D01*
X95767499Y-30450000D01*
X95767499Y-32050000D01*
X95766536Y-32069603D01*
X95763656Y-32089018D01*
X95758887Y-32108057D01*
X95752275Y-32126537D01*
X95743883Y-32144279D01*
X95733793Y-32161114D01*
X95722101Y-32176879D01*
X95708920Y-32191421D01*
X95694378Y-32204602D01*
X95678613Y-32216294D01*
X95661778Y-32226384D01*
X95644036Y-32234776D01*
X95625556Y-32241388D01*
X95606517Y-32246157D01*
X95587102Y-32249037D01*
X95567499Y-32250000D01*
X95167499Y-32250000D01*
X95147896Y-32249037D01*
X95128481Y-32246157D01*
X95109442Y-32241388D01*
X95090962Y-32234776D01*
X95073220Y-32226384D01*
X95056385Y-32216294D01*
X95040620Y-32204602D01*
X95026078Y-32191421D01*
X95012897Y-32176879D01*
X95001205Y-32161114D01*
X94991115Y-32144279D01*
X94982723Y-32126537D01*
X94976111Y-32108057D01*
X94971342Y-32089018D01*
X94968462Y-32069603D01*
X94967499Y-32050000D01*
X94967499Y-30450000D01*
X94968462Y-30430397D01*
X94971342Y-30410982D01*
X94976111Y-30391943D01*
X94982723Y-30373463D01*
X94991115Y-30355721D01*
X95001205Y-30338886D01*
X95012897Y-30323121D01*
X95026078Y-30308579D01*
X95040620Y-30295398D01*
X95056385Y-30283706D01*
X95073220Y-30273616D01*
X95090962Y-30265224D01*
X95109442Y-30258612D01*
X95128481Y-30253843D01*
X95147896Y-30250963D01*
X95167499Y-30250000D01*
X95567499Y-30250000D01*
X95587102Y-30250963D01*
X95587102Y-30250963D01*
G37*
D16*
X95367499Y-31250000D03*
D11*
G36*
X83437102Y-30250963D02*
G01*
X83456517Y-30253843D01*
X83475556Y-30258612D01*
X83494036Y-30265224D01*
X83511778Y-30273616D01*
X83528613Y-30283706D01*
X83544378Y-30295398D01*
X83558920Y-30308579D01*
X83572101Y-30323121D01*
X83583793Y-30338886D01*
X83593883Y-30355721D01*
X83602275Y-30373463D01*
X83608887Y-30391943D01*
X83613656Y-30410982D01*
X83616536Y-30430397D01*
X83617499Y-30450000D01*
X83617499Y-32050000D01*
X83616536Y-32069603D01*
X83613656Y-32089018D01*
X83608887Y-32108057D01*
X83602275Y-32126537D01*
X83593883Y-32144279D01*
X83583793Y-32161114D01*
X83572101Y-32176879D01*
X83558920Y-32191421D01*
X83544378Y-32204602D01*
X83528613Y-32216294D01*
X83511778Y-32226384D01*
X83494036Y-32234776D01*
X83475556Y-32241388D01*
X83456517Y-32246157D01*
X83437102Y-32249037D01*
X83417499Y-32250000D01*
X83017499Y-32250000D01*
X82997896Y-32249037D01*
X82978481Y-32246157D01*
X82959442Y-32241388D01*
X82940962Y-32234776D01*
X82923220Y-32226384D01*
X82906385Y-32216294D01*
X82890620Y-32204602D01*
X82876078Y-32191421D01*
X82862897Y-32176879D01*
X82851205Y-32161114D01*
X82841115Y-32144279D01*
X82832723Y-32126537D01*
X82826111Y-32108057D01*
X82821342Y-32089018D01*
X82818462Y-32069603D01*
X82817499Y-32050000D01*
X82817499Y-30450000D01*
X82818462Y-30430397D01*
X82821342Y-30410982D01*
X82826111Y-30391943D01*
X82832723Y-30373463D01*
X82841115Y-30355721D01*
X82851205Y-30338886D01*
X82862897Y-30323121D01*
X82876078Y-30308579D01*
X82890620Y-30295398D01*
X82906385Y-30283706D01*
X82923220Y-30273616D01*
X82940962Y-30265224D01*
X82959442Y-30258612D01*
X82978481Y-30253843D01*
X82997896Y-30250963D01*
X83017499Y-30250000D01*
X83417499Y-30250000D01*
X83437102Y-30250963D01*
X83437102Y-30250963D01*
G37*
D16*
X83217499Y-31250000D03*
D11*
G36*
X79237102Y-30250963D02*
G01*
X79256517Y-30253843D01*
X79275556Y-30258612D01*
X79294036Y-30265224D01*
X79311778Y-30273616D01*
X79328613Y-30283706D01*
X79344378Y-30295398D01*
X79358920Y-30308579D01*
X79372101Y-30323121D01*
X79383793Y-30338886D01*
X79393883Y-30355721D01*
X79402275Y-30373463D01*
X79408887Y-30391943D01*
X79413656Y-30410982D01*
X79416536Y-30430397D01*
X79417499Y-30450000D01*
X79417499Y-32050000D01*
X79416536Y-32069603D01*
X79413656Y-32089018D01*
X79408887Y-32108057D01*
X79402275Y-32126537D01*
X79393883Y-32144279D01*
X79383793Y-32161114D01*
X79372101Y-32176879D01*
X79358920Y-32191421D01*
X79344378Y-32204602D01*
X79328613Y-32216294D01*
X79311778Y-32226384D01*
X79294036Y-32234776D01*
X79275556Y-32241388D01*
X79256517Y-32246157D01*
X79237102Y-32249037D01*
X79217499Y-32250000D01*
X78817499Y-32250000D01*
X78797896Y-32249037D01*
X78778481Y-32246157D01*
X78759442Y-32241388D01*
X78740962Y-32234776D01*
X78723220Y-32226384D01*
X78706385Y-32216294D01*
X78690620Y-32204602D01*
X78676078Y-32191421D01*
X78662897Y-32176879D01*
X78651205Y-32161114D01*
X78641115Y-32144279D01*
X78632723Y-32126537D01*
X78626111Y-32108057D01*
X78621342Y-32089018D01*
X78618462Y-32069603D01*
X78617499Y-32050000D01*
X78617499Y-30450000D01*
X78618462Y-30430397D01*
X78621342Y-30410982D01*
X78626111Y-30391943D01*
X78632723Y-30373463D01*
X78641115Y-30355721D01*
X78651205Y-30338886D01*
X78662897Y-30323121D01*
X78676078Y-30308579D01*
X78690620Y-30295398D01*
X78706385Y-30283706D01*
X78723220Y-30273616D01*
X78740962Y-30265224D01*
X78759442Y-30258612D01*
X78778481Y-30253843D01*
X78797896Y-30250963D01*
X78817499Y-30250000D01*
X79217499Y-30250000D01*
X79237102Y-30250963D01*
X79237102Y-30250963D01*
G37*
D16*
X79017499Y-31250000D03*
D11*
G36*
X94730142Y-34216174D02*
G01*
X94753803Y-34219684D01*
X94777007Y-34225496D01*
X94799529Y-34233554D01*
X94821153Y-34243782D01*
X94841670Y-34256079D01*
X94860883Y-34270329D01*
X94878607Y-34286393D01*
X94894671Y-34304117D01*
X94908921Y-34323330D01*
X94921218Y-34343847D01*
X94931446Y-34365471D01*
X94939504Y-34387993D01*
X94945316Y-34411197D01*
X94948826Y-34434858D01*
X94950000Y-34458750D01*
X94950000Y-34946250D01*
X94948826Y-34970142D01*
X94945316Y-34993803D01*
X94939504Y-35017007D01*
X94931446Y-35039529D01*
X94921218Y-35061153D01*
X94908921Y-35081670D01*
X94894671Y-35100883D01*
X94878607Y-35118607D01*
X94860883Y-35134671D01*
X94841670Y-35148921D01*
X94821153Y-35161218D01*
X94799529Y-35171446D01*
X94777007Y-35179504D01*
X94753803Y-35185316D01*
X94730142Y-35188826D01*
X94706250Y-35190000D01*
X93793750Y-35190000D01*
X93769858Y-35188826D01*
X93746197Y-35185316D01*
X93722993Y-35179504D01*
X93700471Y-35171446D01*
X93678847Y-35161218D01*
X93658330Y-35148921D01*
X93639117Y-35134671D01*
X93621393Y-35118607D01*
X93605329Y-35100883D01*
X93591079Y-35081670D01*
X93578782Y-35061153D01*
X93568554Y-35039529D01*
X93560496Y-35017007D01*
X93554684Y-34993803D01*
X93551174Y-34970142D01*
X93550000Y-34946250D01*
X93550000Y-34458750D01*
X93551174Y-34434858D01*
X93554684Y-34411197D01*
X93560496Y-34387993D01*
X93568554Y-34365471D01*
X93578782Y-34343847D01*
X93591079Y-34323330D01*
X93605329Y-34304117D01*
X93621393Y-34286393D01*
X93639117Y-34270329D01*
X93658330Y-34256079D01*
X93678847Y-34243782D01*
X93700471Y-34233554D01*
X93722993Y-34225496D01*
X93746197Y-34219684D01*
X93769858Y-34216174D01*
X93793750Y-34215000D01*
X94706250Y-34215000D01*
X94730142Y-34216174D01*
X94730142Y-34216174D01*
G37*
D17*
X94250000Y-34702500D03*
D11*
G36*
X94730142Y-36091174D02*
G01*
X94753803Y-36094684D01*
X94777007Y-36100496D01*
X94799529Y-36108554D01*
X94821153Y-36118782D01*
X94841670Y-36131079D01*
X94860883Y-36145329D01*
X94878607Y-36161393D01*
X94894671Y-36179117D01*
X94908921Y-36198330D01*
X94921218Y-36218847D01*
X94931446Y-36240471D01*
X94939504Y-36262993D01*
X94945316Y-36286197D01*
X94948826Y-36309858D01*
X94950000Y-36333750D01*
X94950000Y-36821250D01*
X94948826Y-36845142D01*
X94945316Y-36868803D01*
X94939504Y-36892007D01*
X94931446Y-36914529D01*
X94921218Y-36936153D01*
X94908921Y-36956670D01*
X94894671Y-36975883D01*
X94878607Y-36993607D01*
X94860883Y-37009671D01*
X94841670Y-37023921D01*
X94821153Y-37036218D01*
X94799529Y-37046446D01*
X94777007Y-37054504D01*
X94753803Y-37060316D01*
X94730142Y-37063826D01*
X94706250Y-37065000D01*
X93793750Y-37065000D01*
X93769858Y-37063826D01*
X93746197Y-37060316D01*
X93722993Y-37054504D01*
X93700471Y-37046446D01*
X93678847Y-37036218D01*
X93658330Y-37023921D01*
X93639117Y-37009671D01*
X93621393Y-36993607D01*
X93605329Y-36975883D01*
X93591079Y-36956670D01*
X93578782Y-36936153D01*
X93568554Y-36914529D01*
X93560496Y-36892007D01*
X93554684Y-36868803D01*
X93551174Y-36845142D01*
X93550000Y-36821250D01*
X93550000Y-36333750D01*
X93551174Y-36309858D01*
X93554684Y-36286197D01*
X93560496Y-36262993D01*
X93568554Y-36240471D01*
X93578782Y-36218847D01*
X93591079Y-36198330D01*
X93605329Y-36179117D01*
X93621393Y-36161393D01*
X93639117Y-36145329D01*
X93658330Y-36131079D01*
X93678847Y-36118782D01*
X93700471Y-36108554D01*
X93722993Y-36100496D01*
X93746197Y-36094684D01*
X93769858Y-36091174D01*
X93793750Y-36090000D01*
X94706250Y-36090000D01*
X94730142Y-36091174D01*
X94730142Y-36091174D01*
G37*
D17*
X94250000Y-36577500D03*
D11*
G36*
X94730142Y-46513674D02*
G01*
X94753803Y-46517184D01*
X94777007Y-46522996D01*
X94799529Y-46531054D01*
X94821153Y-46541282D01*
X94841670Y-46553579D01*
X94860883Y-46567829D01*
X94878607Y-46583893D01*
X94894671Y-46601617D01*
X94908921Y-46620830D01*
X94921218Y-46641347D01*
X94931446Y-46662971D01*
X94939504Y-46685493D01*
X94945316Y-46708697D01*
X94948826Y-46732358D01*
X94950000Y-46756250D01*
X94950000Y-47243750D01*
X94948826Y-47267642D01*
X94945316Y-47291303D01*
X94939504Y-47314507D01*
X94931446Y-47337029D01*
X94921218Y-47358653D01*
X94908921Y-47379170D01*
X94894671Y-47398383D01*
X94878607Y-47416107D01*
X94860883Y-47432171D01*
X94841670Y-47446421D01*
X94821153Y-47458718D01*
X94799529Y-47468946D01*
X94777007Y-47477004D01*
X94753803Y-47482816D01*
X94730142Y-47486326D01*
X94706250Y-47487500D01*
X93793750Y-47487500D01*
X93769858Y-47486326D01*
X93746197Y-47482816D01*
X93722993Y-47477004D01*
X93700471Y-47468946D01*
X93678847Y-47458718D01*
X93658330Y-47446421D01*
X93639117Y-47432171D01*
X93621393Y-47416107D01*
X93605329Y-47398383D01*
X93591079Y-47379170D01*
X93578782Y-47358653D01*
X93568554Y-47337029D01*
X93560496Y-47314507D01*
X93554684Y-47291303D01*
X93551174Y-47267642D01*
X93550000Y-47243750D01*
X93550000Y-46756250D01*
X93551174Y-46732358D01*
X93554684Y-46708697D01*
X93560496Y-46685493D01*
X93568554Y-46662971D01*
X93578782Y-46641347D01*
X93591079Y-46620830D01*
X93605329Y-46601617D01*
X93621393Y-46583893D01*
X93639117Y-46567829D01*
X93658330Y-46553579D01*
X93678847Y-46541282D01*
X93700471Y-46531054D01*
X93722993Y-46522996D01*
X93746197Y-46517184D01*
X93769858Y-46513674D01*
X93793750Y-46512500D01*
X94706250Y-46512500D01*
X94730142Y-46513674D01*
X94730142Y-46513674D01*
G37*
D17*
X94250000Y-47000000D03*
D11*
G36*
X94730142Y-44638674D02*
G01*
X94753803Y-44642184D01*
X94777007Y-44647996D01*
X94799529Y-44656054D01*
X94821153Y-44666282D01*
X94841670Y-44678579D01*
X94860883Y-44692829D01*
X94878607Y-44708893D01*
X94894671Y-44726617D01*
X94908921Y-44745830D01*
X94921218Y-44766347D01*
X94931446Y-44787971D01*
X94939504Y-44810493D01*
X94945316Y-44833697D01*
X94948826Y-44857358D01*
X94950000Y-44881250D01*
X94950000Y-45368750D01*
X94948826Y-45392642D01*
X94945316Y-45416303D01*
X94939504Y-45439507D01*
X94931446Y-45462029D01*
X94921218Y-45483653D01*
X94908921Y-45504170D01*
X94894671Y-45523383D01*
X94878607Y-45541107D01*
X94860883Y-45557171D01*
X94841670Y-45571421D01*
X94821153Y-45583718D01*
X94799529Y-45593946D01*
X94777007Y-45602004D01*
X94753803Y-45607816D01*
X94730142Y-45611326D01*
X94706250Y-45612500D01*
X93793750Y-45612500D01*
X93769858Y-45611326D01*
X93746197Y-45607816D01*
X93722993Y-45602004D01*
X93700471Y-45593946D01*
X93678847Y-45583718D01*
X93658330Y-45571421D01*
X93639117Y-45557171D01*
X93621393Y-45541107D01*
X93605329Y-45523383D01*
X93591079Y-45504170D01*
X93578782Y-45483653D01*
X93568554Y-45462029D01*
X93560496Y-45439507D01*
X93554684Y-45416303D01*
X93551174Y-45392642D01*
X93550000Y-45368750D01*
X93550000Y-44881250D01*
X93551174Y-44857358D01*
X93554684Y-44833697D01*
X93560496Y-44810493D01*
X93568554Y-44787971D01*
X93578782Y-44766347D01*
X93591079Y-44745830D01*
X93605329Y-44726617D01*
X93621393Y-44708893D01*
X93639117Y-44692829D01*
X93658330Y-44678579D01*
X93678847Y-44666282D01*
X93700471Y-44656054D01*
X93722993Y-44647996D01*
X93746197Y-44642184D01*
X93769858Y-44638674D01*
X93793750Y-44637500D01*
X94706250Y-44637500D01*
X94730142Y-44638674D01*
X94730142Y-44638674D01*
G37*
D17*
X94250000Y-45125000D03*
D18*
X87450000Y-42150000D03*
D19*
X80750000Y-34700000D03*
X82250000Y-34700000D03*
X83750000Y-34700000D03*
X85250000Y-34700000D03*
X86750000Y-34700000D03*
X88250000Y-34700000D03*
X89750000Y-34700000D03*
X91250000Y-34700000D03*
X91250000Y-47000000D03*
X89750000Y-47000000D03*
X88250000Y-47000000D03*
X86750000Y-47000000D03*
X85250000Y-47000000D03*
X83750000Y-47000000D03*
X82250000Y-47000000D03*
D11*
G36*
X99300142Y-29726174D02*
G01*
X99323803Y-29729684D01*
X99347007Y-29735496D01*
X99369529Y-29743554D01*
X99391153Y-29753782D01*
X99411670Y-29766079D01*
X99430883Y-29780329D01*
X99448607Y-29796393D01*
X99464671Y-29814117D01*
X99478921Y-29833330D01*
X99491218Y-29853847D01*
X99501446Y-29875471D01*
X99509504Y-29897993D01*
X99515316Y-29921197D01*
X99518826Y-29944858D01*
X99520000Y-29968750D01*
X99520000Y-30456250D01*
X99518826Y-30480142D01*
X99515316Y-30503803D01*
X99509504Y-30527007D01*
X99501446Y-30549529D01*
X99491218Y-30571153D01*
X99478921Y-30591670D01*
X99464671Y-30610883D01*
X99448607Y-30628607D01*
X99430883Y-30644671D01*
X99411670Y-30658921D01*
X99391153Y-30671218D01*
X99369529Y-30681446D01*
X99347007Y-30689504D01*
X99323803Y-30695316D01*
X99300142Y-30698826D01*
X99276250Y-30700000D01*
X98363750Y-30700000D01*
X98339858Y-30698826D01*
X98316197Y-30695316D01*
X98292993Y-30689504D01*
X98270471Y-30681446D01*
X98248847Y-30671218D01*
X98228330Y-30658921D01*
X98209117Y-30644671D01*
X98191393Y-30628607D01*
X98175329Y-30610883D01*
X98161079Y-30591670D01*
X98148782Y-30571153D01*
X98138554Y-30549529D01*
X98130496Y-30527007D01*
X98124684Y-30503803D01*
X98121174Y-30480142D01*
X98120000Y-30456250D01*
X98120000Y-29968750D01*
X98121174Y-29944858D01*
X98124684Y-29921197D01*
X98130496Y-29897993D01*
X98138554Y-29875471D01*
X98148782Y-29853847D01*
X98161079Y-29833330D01*
X98175329Y-29814117D01*
X98191393Y-29796393D01*
X98209117Y-29780329D01*
X98228330Y-29766079D01*
X98248847Y-29753782D01*
X98270471Y-29743554D01*
X98292993Y-29735496D01*
X98316197Y-29729684D01*
X98339858Y-29726174D01*
X98363750Y-29725000D01*
X99276250Y-29725000D01*
X99300142Y-29726174D01*
X99300142Y-29726174D01*
G37*
D17*
X98820000Y-30212500D03*
D11*
G36*
X99300142Y-31601174D02*
G01*
X99323803Y-31604684D01*
X99347007Y-31610496D01*
X99369529Y-31618554D01*
X99391153Y-31628782D01*
X99411670Y-31641079D01*
X99430883Y-31655329D01*
X99448607Y-31671393D01*
X99464671Y-31689117D01*
X99478921Y-31708330D01*
X99491218Y-31728847D01*
X99501446Y-31750471D01*
X99509504Y-31772993D01*
X99515316Y-31796197D01*
X99518826Y-31819858D01*
X99520000Y-31843750D01*
X99520000Y-32331250D01*
X99518826Y-32355142D01*
X99515316Y-32378803D01*
X99509504Y-32402007D01*
X99501446Y-32424529D01*
X99491218Y-32446153D01*
X99478921Y-32466670D01*
X99464671Y-32485883D01*
X99448607Y-32503607D01*
X99430883Y-32519671D01*
X99411670Y-32533921D01*
X99391153Y-32546218D01*
X99369529Y-32556446D01*
X99347007Y-32564504D01*
X99323803Y-32570316D01*
X99300142Y-32573826D01*
X99276250Y-32575000D01*
X98363750Y-32575000D01*
X98339858Y-32573826D01*
X98316197Y-32570316D01*
X98292993Y-32564504D01*
X98270471Y-32556446D01*
X98248847Y-32546218D01*
X98228330Y-32533921D01*
X98209117Y-32519671D01*
X98191393Y-32503607D01*
X98175329Y-32485883D01*
X98161079Y-32466670D01*
X98148782Y-32446153D01*
X98138554Y-32424529D01*
X98130496Y-32402007D01*
X98124684Y-32378803D01*
X98121174Y-32355142D01*
X98120000Y-32331250D01*
X98120000Y-31843750D01*
X98121174Y-31819858D01*
X98124684Y-31796197D01*
X98130496Y-31772993D01*
X98138554Y-31750471D01*
X98148782Y-31728847D01*
X98161079Y-31708330D01*
X98175329Y-31689117D01*
X98191393Y-31671393D01*
X98209117Y-31655329D01*
X98228330Y-31641079D01*
X98248847Y-31628782D01*
X98270471Y-31618554D01*
X98292993Y-31610496D01*
X98316197Y-31604684D01*
X98339858Y-31601174D01*
X98363750Y-31600000D01*
X99276250Y-31600000D01*
X99300142Y-31601174D01*
X99300142Y-31601174D01*
G37*
D17*
X98820000Y-32087500D03*
D11*
G36*
X105490142Y-31601174D02*
G01*
X105513803Y-31604684D01*
X105537007Y-31610496D01*
X105559529Y-31618554D01*
X105581153Y-31628782D01*
X105601670Y-31641079D01*
X105620883Y-31655329D01*
X105638607Y-31671393D01*
X105654671Y-31689117D01*
X105668921Y-31708330D01*
X105681218Y-31728847D01*
X105691446Y-31750471D01*
X105699504Y-31772993D01*
X105705316Y-31796197D01*
X105708826Y-31819858D01*
X105710000Y-31843750D01*
X105710000Y-32331250D01*
X105708826Y-32355142D01*
X105705316Y-32378803D01*
X105699504Y-32402007D01*
X105691446Y-32424529D01*
X105681218Y-32446153D01*
X105668921Y-32466670D01*
X105654671Y-32485883D01*
X105638607Y-32503607D01*
X105620883Y-32519671D01*
X105601670Y-32533921D01*
X105581153Y-32546218D01*
X105559529Y-32556446D01*
X105537007Y-32564504D01*
X105513803Y-32570316D01*
X105490142Y-32573826D01*
X105466250Y-32575000D01*
X104553750Y-32575000D01*
X104529858Y-32573826D01*
X104506197Y-32570316D01*
X104482993Y-32564504D01*
X104460471Y-32556446D01*
X104438847Y-32546218D01*
X104418330Y-32533921D01*
X104399117Y-32519671D01*
X104381393Y-32503607D01*
X104365329Y-32485883D01*
X104351079Y-32466670D01*
X104338782Y-32446153D01*
X104328554Y-32424529D01*
X104320496Y-32402007D01*
X104314684Y-32378803D01*
X104311174Y-32355142D01*
X104310000Y-32331250D01*
X104310000Y-31843750D01*
X104311174Y-31819858D01*
X104314684Y-31796197D01*
X104320496Y-31772993D01*
X104328554Y-31750471D01*
X104338782Y-31728847D01*
X104351079Y-31708330D01*
X104365329Y-31689117D01*
X104381393Y-31671393D01*
X104399117Y-31655329D01*
X104418330Y-31641079D01*
X104438847Y-31628782D01*
X104460471Y-31618554D01*
X104482993Y-31610496D01*
X104506197Y-31604684D01*
X104529858Y-31601174D01*
X104553750Y-31600000D01*
X105466250Y-31600000D01*
X105490142Y-31601174D01*
X105490142Y-31601174D01*
G37*
D17*
X105010000Y-32087500D03*
D11*
G36*
X105490142Y-29726174D02*
G01*
X105513803Y-29729684D01*
X105537007Y-29735496D01*
X105559529Y-29743554D01*
X105581153Y-29753782D01*
X105601670Y-29766079D01*
X105620883Y-29780329D01*
X105638607Y-29796393D01*
X105654671Y-29814117D01*
X105668921Y-29833330D01*
X105681218Y-29853847D01*
X105691446Y-29875471D01*
X105699504Y-29897993D01*
X105705316Y-29921197D01*
X105708826Y-29944858D01*
X105710000Y-29968750D01*
X105710000Y-30456250D01*
X105708826Y-30480142D01*
X105705316Y-30503803D01*
X105699504Y-30527007D01*
X105691446Y-30549529D01*
X105681218Y-30571153D01*
X105668921Y-30591670D01*
X105654671Y-30610883D01*
X105638607Y-30628607D01*
X105620883Y-30644671D01*
X105601670Y-30658921D01*
X105581153Y-30671218D01*
X105559529Y-30681446D01*
X105537007Y-30689504D01*
X105513803Y-30695316D01*
X105490142Y-30698826D01*
X105466250Y-30700000D01*
X104553750Y-30700000D01*
X104529858Y-30698826D01*
X104506197Y-30695316D01*
X104482993Y-30689504D01*
X104460471Y-30681446D01*
X104438847Y-30671218D01*
X104418330Y-30658921D01*
X104399117Y-30644671D01*
X104381393Y-30628607D01*
X104365329Y-30610883D01*
X104351079Y-30591670D01*
X104338782Y-30571153D01*
X104328554Y-30549529D01*
X104320496Y-30527007D01*
X104314684Y-30503803D01*
X104311174Y-30480142D01*
X104310000Y-30456250D01*
X104310000Y-29968750D01*
X104311174Y-29944858D01*
X104314684Y-29921197D01*
X104320496Y-29897993D01*
X104328554Y-29875471D01*
X104338782Y-29853847D01*
X104351079Y-29833330D01*
X104365329Y-29814117D01*
X104381393Y-29796393D01*
X104399117Y-29780329D01*
X104418330Y-29766079D01*
X104438847Y-29753782D01*
X104460471Y-29743554D01*
X104482993Y-29735496D01*
X104506197Y-29729684D01*
X104529858Y-29726174D01*
X104553750Y-29725000D01*
X105466250Y-29725000D01*
X105490142Y-29726174D01*
X105490142Y-29726174D01*
G37*
D17*
X105010000Y-30212500D03*
D20*
X102990000Y-37040000D03*
X102990000Y-36090000D03*
X102990000Y-37990000D03*
X100790000Y-37990000D03*
X100790000Y-37040000D03*
X100790000Y-36090000D03*
D21*
X102915000Y-31150000D03*
X100915000Y-32100000D03*
X100915000Y-30200000D03*
D11*
G36*
X99290142Y-35601174D02*
G01*
X99313803Y-35604684D01*
X99337007Y-35610496D01*
X99359529Y-35618554D01*
X99381153Y-35628782D01*
X99401670Y-35641079D01*
X99420883Y-35655329D01*
X99438607Y-35671393D01*
X99454671Y-35689117D01*
X99468921Y-35708330D01*
X99481218Y-35728847D01*
X99491446Y-35750471D01*
X99499504Y-35772993D01*
X99505316Y-35796197D01*
X99508826Y-35819858D01*
X99510000Y-35843750D01*
X99510000Y-36331250D01*
X99508826Y-36355142D01*
X99505316Y-36378803D01*
X99499504Y-36402007D01*
X99491446Y-36424529D01*
X99481218Y-36446153D01*
X99468921Y-36466670D01*
X99454671Y-36485883D01*
X99438607Y-36503607D01*
X99420883Y-36519671D01*
X99401670Y-36533921D01*
X99381153Y-36546218D01*
X99359529Y-36556446D01*
X99337007Y-36564504D01*
X99313803Y-36570316D01*
X99290142Y-36573826D01*
X99266250Y-36575000D01*
X98353750Y-36575000D01*
X98329858Y-36573826D01*
X98306197Y-36570316D01*
X98282993Y-36564504D01*
X98260471Y-36556446D01*
X98238847Y-36546218D01*
X98218330Y-36533921D01*
X98199117Y-36519671D01*
X98181393Y-36503607D01*
X98165329Y-36485883D01*
X98151079Y-36466670D01*
X98138782Y-36446153D01*
X98128554Y-36424529D01*
X98120496Y-36402007D01*
X98114684Y-36378803D01*
X98111174Y-36355142D01*
X98110000Y-36331250D01*
X98110000Y-35843750D01*
X98111174Y-35819858D01*
X98114684Y-35796197D01*
X98120496Y-35772993D01*
X98128554Y-35750471D01*
X98138782Y-35728847D01*
X98151079Y-35708330D01*
X98165329Y-35689117D01*
X98181393Y-35671393D01*
X98199117Y-35655329D01*
X98218330Y-35641079D01*
X98238847Y-35628782D01*
X98260471Y-35618554D01*
X98282993Y-35610496D01*
X98306197Y-35604684D01*
X98329858Y-35601174D01*
X98353750Y-35600000D01*
X99266250Y-35600000D01*
X99290142Y-35601174D01*
X99290142Y-35601174D01*
G37*
D17*
X98810000Y-36087500D03*
D11*
G36*
X99290142Y-33726174D02*
G01*
X99313803Y-33729684D01*
X99337007Y-33735496D01*
X99359529Y-33743554D01*
X99381153Y-33753782D01*
X99401670Y-33766079D01*
X99420883Y-33780329D01*
X99438607Y-33796393D01*
X99454671Y-33814117D01*
X99468921Y-33833330D01*
X99481218Y-33853847D01*
X99491446Y-33875471D01*
X99499504Y-33897993D01*
X99505316Y-33921197D01*
X99508826Y-33944858D01*
X99510000Y-33968750D01*
X99510000Y-34456250D01*
X99508826Y-34480142D01*
X99505316Y-34503803D01*
X99499504Y-34527007D01*
X99491446Y-34549529D01*
X99481218Y-34571153D01*
X99468921Y-34591670D01*
X99454671Y-34610883D01*
X99438607Y-34628607D01*
X99420883Y-34644671D01*
X99401670Y-34658921D01*
X99381153Y-34671218D01*
X99359529Y-34681446D01*
X99337007Y-34689504D01*
X99313803Y-34695316D01*
X99290142Y-34698826D01*
X99266250Y-34700000D01*
X98353750Y-34700000D01*
X98329858Y-34698826D01*
X98306197Y-34695316D01*
X98282993Y-34689504D01*
X98260471Y-34681446D01*
X98238847Y-34671218D01*
X98218330Y-34658921D01*
X98199117Y-34644671D01*
X98181393Y-34628607D01*
X98165329Y-34610883D01*
X98151079Y-34591670D01*
X98138782Y-34571153D01*
X98128554Y-34549529D01*
X98120496Y-34527007D01*
X98114684Y-34503803D01*
X98111174Y-34480142D01*
X98110000Y-34456250D01*
X98110000Y-33968750D01*
X98111174Y-33944858D01*
X98114684Y-33921197D01*
X98120496Y-33897993D01*
X98128554Y-33875471D01*
X98138782Y-33853847D01*
X98151079Y-33833330D01*
X98165329Y-33814117D01*
X98181393Y-33796393D01*
X98199117Y-33780329D01*
X98218330Y-33766079D01*
X98238847Y-33753782D01*
X98260471Y-33743554D01*
X98282993Y-33735496D01*
X98306197Y-33729684D01*
X98329858Y-33726174D01*
X98353750Y-33725000D01*
X99266250Y-33725000D01*
X99290142Y-33726174D01*
X99290142Y-33726174D01*
G37*
D17*
X98810000Y-34212500D03*
D11*
G36*
X106000142Y-35616174D02*
G01*
X106023803Y-35619684D01*
X106047007Y-35625496D01*
X106069529Y-35633554D01*
X106091153Y-35643782D01*
X106111670Y-35656079D01*
X106130883Y-35670329D01*
X106148607Y-35686393D01*
X106164671Y-35704117D01*
X106178921Y-35723330D01*
X106191218Y-35743847D01*
X106201446Y-35765471D01*
X106209504Y-35787993D01*
X106215316Y-35811197D01*
X106218826Y-35834858D01*
X106220000Y-35858750D01*
X106220000Y-36346250D01*
X106218826Y-36370142D01*
X106215316Y-36393803D01*
X106209504Y-36417007D01*
X106201446Y-36439529D01*
X106191218Y-36461153D01*
X106178921Y-36481670D01*
X106164671Y-36500883D01*
X106148607Y-36518607D01*
X106130883Y-36534671D01*
X106111670Y-36548921D01*
X106091153Y-36561218D01*
X106069529Y-36571446D01*
X106047007Y-36579504D01*
X106023803Y-36585316D01*
X106000142Y-36588826D01*
X105976250Y-36590000D01*
X105063750Y-36590000D01*
X105039858Y-36588826D01*
X105016197Y-36585316D01*
X104992993Y-36579504D01*
X104970471Y-36571446D01*
X104948847Y-36561218D01*
X104928330Y-36548921D01*
X104909117Y-36534671D01*
X104891393Y-36518607D01*
X104875329Y-36500883D01*
X104861079Y-36481670D01*
X104848782Y-36461153D01*
X104838554Y-36439529D01*
X104830496Y-36417007D01*
X104824684Y-36393803D01*
X104821174Y-36370142D01*
X104820000Y-36346250D01*
X104820000Y-35858750D01*
X104821174Y-35834858D01*
X104824684Y-35811197D01*
X104830496Y-35787993D01*
X104838554Y-35765471D01*
X104848782Y-35743847D01*
X104861079Y-35723330D01*
X104875329Y-35704117D01*
X104891393Y-35686393D01*
X104909117Y-35670329D01*
X104928330Y-35656079D01*
X104948847Y-35643782D01*
X104970471Y-35633554D01*
X104992993Y-35625496D01*
X105016197Y-35619684D01*
X105039858Y-35616174D01*
X105063750Y-35615000D01*
X105976250Y-35615000D01*
X106000142Y-35616174D01*
X106000142Y-35616174D01*
G37*
D17*
X105520000Y-36102500D03*
D11*
G36*
X106000142Y-37491174D02*
G01*
X106023803Y-37494684D01*
X106047007Y-37500496D01*
X106069529Y-37508554D01*
X106091153Y-37518782D01*
X106111670Y-37531079D01*
X106130883Y-37545329D01*
X106148607Y-37561393D01*
X106164671Y-37579117D01*
X106178921Y-37598330D01*
X106191218Y-37618847D01*
X106201446Y-37640471D01*
X106209504Y-37662993D01*
X106215316Y-37686197D01*
X106218826Y-37709858D01*
X106220000Y-37733750D01*
X106220000Y-38221250D01*
X106218826Y-38245142D01*
X106215316Y-38268803D01*
X106209504Y-38292007D01*
X106201446Y-38314529D01*
X106191218Y-38336153D01*
X106178921Y-38356670D01*
X106164671Y-38375883D01*
X106148607Y-38393607D01*
X106130883Y-38409671D01*
X106111670Y-38423921D01*
X106091153Y-38436218D01*
X106069529Y-38446446D01*
X106047007Y-38454504D01*
X106023803Y-38460316D01*
X106000142Y-38463826D01*
X105976250Y-38465000D01*
X105063750Y-38465000D01*
X105039858Y-38463826D01*
X105016197Y-38460316D01*
X104992993Y-38454504D01*
X104970471Y-38446446D01*
X104948847Y-38436218D01*
X104928330Y-38423921D01*
X104909117Y-38409671D01*
X104891393Y-38393607D01*
X104875329Y-38375883D01*
X104861079Y-38356670D01*
X104848782Y-38336153D01*
X104838554Y-38314529D01*
X104830496Y-38292007D01*
X104824684Y-38268803D01*
X104821174Y-38245142D01*
X104820000Y-38221250D01*
X104820000Y-37733750D01*
X104821174Y-37709858D01*
X104824684Y-37686197D01*
X104830496Y-37662993D01*
X104838554Y-37640471D01*
X104848782Y-37618847D01*
X104861079Y-37598330D01*
X104875329Y-37579117D01*
X104891393Y-37561393D01*
X104909117Y-37545329D01*
X104928330Y-37531079D01*
X104948847Y-37518782D01*
X104970471Y-37508554D01*
X104992993Y-37500496D01*
X105016197Y-37494684D01*
X105039858Y-37491174D01*
X105063750Y-37490000D01*
X105976250Y-37490000D01*
X106000142Y-37491174D01*
X106000142Y-37491174D01*
G37*
D17*
X105520000Y-37977500D03*
D11*
G36*
X99330142Y-43381174D02*
G01*
X99353803Y-43384684D01*
X99377007Y-43390496D01*
X99399529Y-43398554D01*
X99421153Y-43408782D01*
X99441670Y-43421079D01*
X99460883Y-43435329D01*
X99478607Y-43451393D01*
X99494671Y-43469117D01*
X99508921Y-43488330D01*
X99521218Y-43508847D01*
X99531446Y-43530471D01*
X99539504Y-43552993D01*
X99545316Y-43576197D01*
X99548826Y-43599858D01*
X99550000Y-43623750D01*
X99550000Y-44111250D01*
X99548826Y-44135142D01*
X99545316Y-44158803D01*
X99539504Y-44182007D01*
X99531446Y-44204529D01*
X99521218Y-44226153D01*
X99508921Y-44246670D01*
X99494671Y-44265883D01*
X99478607Y-44283607D01*
X99460883Y-44299671D01*
X99441670Y-44313921D01*
X99421153Y-44326218D01*
X99399529Y-44336446D01*
X99377007Y-44344504D01*
X99353803Y-44350316D01*
X99330142Y-44353826D01*
X99306250Y-44355000D01*
X98393750Y-44355000D01*
X98369858Y-44353826D01*
X98346197Y-44350316D01*
X98322993Y-44344504D01*
X98300471Y-44336446D01*
X98278847Y-44326218D01*
X98258330Y-44313921D01*
X98239117Y-44299671D01*
X98221393Y-44283607D01*
X98205329Y-44265883D01*
X98191079Y-44246670D01*
X98178782Y-44226153D01*
X98168554Y-44204529D01*
X98160496Y-44182007D01*
X98154684Y-44158803D01*
X98151174Y-44135142D01*
X98150000Y-44111250D01*
X98150000Y-43623750D01*
X98151174Y-43599858D01*
X98154684Y-43576197D01*
X98160496Y-43552993D01*
X98168554Y-43530471D01*
X98178782Y-43508847D01*
X98191079Y-43488330D01*
X98205329Y-43469117D01*
X98221393Y-43451393D01*
X98239117Y-43435329D01*
X98258330Y-43421079D01*
X98278847Y-43408782D01*
X98300471Y-43398554D01*
X98322993Y-43390496D01*
X98346197Y-43384684D01*
X98369858Y-43381174D01*
X98393750Y-43380000D01*
X99306250Y-43380000D01*
X99330142Y-43381174D01*
X99330142Y-43381174D01*
G37*
D17*
X98850000Y-43867500D03*
D11*
G36*
X99330142Y-41506174D02*
G01*
X99353803Y-41509684D01*
X99377007Y-41515496D01*
X99399529Y-41523554D01*
X99421153Y-41533782D01*
X99441670Y-41546079D01*
X99460883Y-41560329D01*
X99478607Y-41576393D01*
X99494671Y-41594117D01*
X99508921Y-41613330D01*
X99521218Y-41633847D01*
X99531446Y-41655471D01*
X99539504Y-41677993D01*
X99545316Y-41701197D01*
X99548826Y-41724858D01*
X99550000Y-41748750D01*
X99550000Y-42236250D01*
X99548826Y-42260142D01*
X99545316Y-42283803D01*
X99539504Y-42307007D01*
X99531446Y-42329529D01*
X99521218Y-42351153D01*
X99508921Y-42371670D01*
X99494671Y-42390883D01*
X99478607Y-42408607D01*
X99460883Y-42424671D01*
X99441670Y-42438921D01*
X99421153Y-42451218D01*
X99399529Y-42461446D01*
X99377007Y-42469504D01*
X99353803Y-42475316D01*
X99330142Y-42478826D01*
X99306250Y-42480000D01*
X98393750Y-42480000D01*
X98369858Y-42478826D01*
X98346197Y-42475316D01*
X98322993Y-42469504D01*
X98300471Y-42461446D01*
X98278847Y-42451218D01*
X98258330Y-42438921D01*
X98239117Y-42424671D01*
X98221393Y-42408607D01*
X98205329Y-42390883D01*
X98191079Y-42371670D01*
X98178782Y-42351153D01*
X98168554Y-42329529D01*
X98160496Y-42307007D01*
X98154684Y-42283803D01*
X98151174Y-42260142D01*
X98150000Y-42236250D01*
X98150000Y-41748750D01*
X98151174Y-41724858D01*
X98154684Y-41701197D01*
X98160496Y-41677993D01*
X98168554Y-41655471D01*
X98178782Y-41633847D01*
X98191079Y-41613330D01*
X98205329Y-41594117D01*
X98221393Y-41576393D01*
X98239117Y-41560329D01*
X98258330Y-41546079D01*
X98278847Y-41533782D01*
X98300471Y-41523554D01*
X98322993Y-41515496D01*
X98346197Y-41509684D01*
X98369858Y-41506174D01*
X98393750Y-41505000D01*
X99306250Y-41505000D01*
X99330142Y-41506174D01*
X99330142Y-41506174D01*
G37*
D17*
X98850000Y-41992500D03*
D11*
G36*
X105710142Y-41126174D02*
G01*
X105733803Y-41129684D01*
X105757007Y-41135496D01*
X105779529Y-41143554D01*
X105801153Y-41153782D01*
X105821670Y-41166079D01*
X105840883Y-41180329D01*
X105858607Y-41196393D01*
X105874671Y-41214117D01*
X105888921Y-41233330D01*
X105901218Y-41253847D01*
X105911446Y-41275471D01*
X105919504Y-41297993D01*
X105925316Y-41321197D01*
X105928826Y-41344858D01*
X105930000Y-41368750D01*
X105930000Y-41856250D01*
X105928826Y-41880142D01*
X105925316Y-41903803D01*
X105919504Y-41927007D01*
X105911446Y-41949529D01*
X105901218Y-41971153D01*
X105888921Y-41991670D01*
X105874671Y-42010883D01*
X105858607Y-42028607D01*
X105840883Y-42044671D01*
X105821670Y-42058921D01*
X105801153Y-42071218D01*
X105779529Y-42081446D01*
X105757007Y-42089504D01*
X105733803Y-42095316D01*
X105710142Y-42098826D01*
X105686250Y-42100000D01*
X104773750Y-42100000D01*
X104749858Y-42098826D01*
X104726197Y-42095316D01*
X104702993Y-42089504D01*
X104680471Y-42081446D01*
X104658847Y-42071218D01*
X104638330Y-42058921D01*
X104619117Y-42044671D01*
X104601393Y-42028607D01*
X104585329Y-42010883D01*
X104571079Y-41991670D01*
X104558782Y-41971153D01*
X104548554Y-41949529D01*
X104540496Y-41927007D01*
X104534684Y-41903803D01*
X104531174Y-41880142D01*
X104530000Y-41856250D01*
X104530000Y-41368750D01*
X104531174Y-41344858D01*
X104534684Y-41321197D01*
X104540496Y-41297993D01*
X104548554Y-41275471D01*
X104558782Y-41253847D01*
X104571079Y-41233330D01*
X104585329Y-41214117D01*
X104601393Y-41196393D01*
X104619117Y-41180329D01*
X104638330Y-41166079D01*
X104658847Y-41153782D01*
X104680471Y-41143554D01*
X104702993Y-41135496D01*
X104726197Y-41129684D01*
X104749858Y-41126174D01*
X104773750Y-41125000D01*
X105686250Y-41125000D01*
X105710142Y-41126174D01*
X105710142Y-41126174D01*
G37*
D17*
X105230000Y-41612500D03*
D11*
G36*
X105710142Y-43001174D02*
G01*
X105733803Y-43004684D01*
X105757007Y-43010496D01*
X105779529Y-43018554D01*
X105801153Y-43028782D01*
X105821670Y-43041079D01*
X105840883Y-43055329D01*
X105858607Y-43071393D01*
X105874671Y-43089117D01*
X105888921Y-43108330D01*
X105901218Y-43128847D01*
X105911446Y-43150471D01*
X105919504Y-43172993D01*
X105925316Y-43196197D01*
X105928826Y-43219858D01*
X105930000Y-43243750D01*
X105930000Y-43731250D01*
X105928826Y-43755142D01*
X105925316Y-43778803D01*
X105919504Y-43802007D01*
X105911446Y-43824529D01*
X105901218Y-43846153D01*
X105888921Y-43866670D01*
X105874671Y-43885883D01*
X105858607Y-43903607D01*
X105840883Y-43919671D01*
X105821670Y-43933921D01*
X105801153Y-43946218D01*
X105779529Y-43956446D01*
X105757007Y-43964504D01*
X105733803Y-43970316D01*
X105710142Y-43973826D01*
X105686250Y-43975000D01*
X104773750Y-43975000D01*
X104749858Y-43973826D01*
X104726197Y-43970316D01*
X104702993Y-43964504D01*
X104680471Y-43956446D01*
X104658847Y-43946218D01*
X104638330Y-43933921D01*
X104619117Y-43919671D01*
X104601393Y-43903607D01*
X104585329Y-43885883D01*
X104571079Y-43866670D01*
X104558782Y-43846153D01*
X104548554Y-43824529D01*
X104540496Y-43802007D01*
X104534684Y-43778803D01*
X104531174Y-43755142D01*
X104530000Y-43731250D01*
X104530000Y-43243750D01*
X104531174Y-43219858D01*
X104534684Y-43196197D01*
X104540496Y-43172993D01*
X104548554Y-43150471D01*
X104558782Y-43128847D01*
X104571079Y-43108330D01*
X104585329Y-43089117D01*
X104601393Y-43071393D01*
X104619117Y-43055329D01*
X104638330Y-43041079D01*
X104658847Y-43028782D01*
X104680471Y-43018554D01*
X104702993Y-43010496D01*
X104726197Y-43004684D01*
X104749858Y-43001174D01*
X104773750Y-43000000D01*
X105686250Y-43000000D01*
X105710142Y-43001174D01*
X105710142Y-43001174D01*
G37*
D17*
X105230000Y-43487500D03*
D11*
G36*
X99290142Y-39381174D02*
G01*
X99313803Y-39384684D01*
X99337007Y-39390496D01*
X99359529Y-39398554D01*
X99381153Y-39408782D01*
X99401670Y-39421079D01*
X99420883Y-39435329D01*
X99438607Y-39451393D01*
X99454671Y-39469117D01*
X99468921Y-39488330D01*
X99481218Y-39508847D01*
X99491446Y-39530471D01*
X99499504Y-39552993D01*
X99505316Y-39576197D01*
X99508826Y-39599858D01*
X99510000Y-39623750D01*
X99510000Y-40111250D01*
X99508826Y-40135142D01*
X99505316Y-40158803D01*
X99499504Y-40182007D01*
X99491446Y-40204529D01*
X99481218Y-40226153D01*
X99468921Y-40246670D01*
X99454671Y-40265883D01*
X99438607Y-40283607D01*
X99420883Y-40299671D01*
X99401670Y-40313921D01*
X99381153Y-40326218D01*
X99359529Y-40336446D01*
X99337007Y-40344504D01*
X99313803Y-40350316D01*
X99290142Y-40353826D01*
X99266250Y-40355000D01*
X98353750Y-40355000D01*
X98329858Y-40353826D01*
X98306197Y-40350316D01*
X98282993Y-40344504D01*
X98260471Y-40336446D01*
X98238847Y-40326218D01*
X98218330Y-40313921D01*
X98199117Y-40299671D01*
X98181393Y-40283607D01*
X98165329Y-40265883D01*
X98151079Y-40246670D01*
X98138782Y-40226153D01*
X98128554Y-40204529D01*
X98120496Y-40182007D01*
X98114684Y-40158803D01*
X98111174Y-40135142D01*
X98110000Y-40111250D01*
X98110000Y-39623750D01*
X98111174Y-39599858D01*
X98114684Y-39576197D01*
X98120496Y-39552993D01*
X98128554Y-39530471D01*
X98138782Y-39508847D01*
X98151079Y-39488330D01*
X98165329Y-39469117D01*
X98181393Y-39451393D01*
X98199117Y-39435329D01*
X98218330Y-39421079D01*
X98238847Y-39408782D01*
X98260471Y-39398554D01*
X98282993Y-39390496D01*
X98306197Y-39384684D01*
X98329858Y-39381174D01*
X98353750Y-39380000D01*
X99266250Y-39380000D01*
X99290142Y-39381174D01*
X99290142Y-39381174D01*
G37*
D17*
X98810000Y-39867500D03*
D11*
G36*
X99290142Y-37506174D02*
G01*
X99313803Y-37509684D01*
X99337007Y-37515496D01*
X99359529Y-37523554D01*
X99381153Y-37533782D01*
X99401670Y-37546079D01*
X99420883Y-37560329D01*
X99438607Y-37576393D01*
X99454671Y-37594117D01*
X99468921Y-37613330D01*
X99481218Y-37633847D01*
X99491446Y-37655471D01*
X99499504Y-37677993D01*
X99505316Y-37701197D01*
X99508826Y-37724858D01*
X99510000Y-37748750D01*
X99510000Y-38236250D01*
X99508826Y-38260142D01*
X99505316Y-38283803D01*
X99499504Y-38307007D01*
X99491446Y-38329529D01*
X99481218Y-38351153D01*
X99468921Y-38371670D01*
X99454671Y-38390883D01*
X99438607Y-38408607D01*
X99420883Y-38424671D01*
X99401670Y-38438921D01*
X99381153Y-38451218D01*
X99359529Y-38461446D01*
X99337007Y-38469504D01*
X99313803Y-38475316D01*
X99290142Y-38478826D01*
X99266250Y-38480000D01*
X98353750Y-38480000D01*
X98329858Y-38478826D01*
X98306197Y-38475316D01*
X98282993Y-38469504D01*
X98260471Y-38461446D01*
X98238847Y-38451218D01*
X98218330Y-38438921D01*
X98199117Y-38424671D01*
X98181393Y-38408607D01*
X98165329Y-38390883D01*
X98151079Y-38371670D01*
X98138782Y-38351153D01*
X98128554Y-38329529D01*
X98120496Y-38307007D01*
X98114684Y-38283803D01*
X98111174Y-38260142D01*
X98110000Y-38236250D01*
X98110000Y-37748750D01*
X98111174Y-37724858D01*
X98114684Y-37701197D01*
X98120496Y-37677993D01*
X98128554Y-37655471D01*
X98138782Y-37633847D01*
X98151079Y-37613330D01*
X98165329Y-37594117D01*
X98181393Y-37576393D01*
X98199117Y-37560329D01*
X98218330Y-37546079D01*
X98238847Y-37533782D01*
X98260471Y-37523554D01*
X98282993Y-37515496D01*
X98306197Y-37509684D01*
X98329858Y-37506174D01*
X98353750Y-37505000D01*
X99266250Y-37505000D01*
X99290142Y-37506174D01*
X99290142Y-37506174D01*
G37*
D17*
X98810000Y-37992500D03*
D22*
X102715000Y-46520000D03*
X101365000Y-46520000D03*
D16*
X100500000Y-33750000D03*
X93500000Y-31250000D03*
X81250000Y-31250000D03*
X107250000Y-43250000D03*
X96959980Y-30000000D03*
X96959980Y-32290020D03*
D23*
X98010000Y-34212500D02*
X98810000Y-34212500D01*
X97659990Y-34562510D02*
X98010000Y-34212500D01*
X97659990Y-36618616D02*
X97659990Y-34562510D01*
X98081374Y-37040000D02*
X97659990Y-36618616D01*
X100790000Y-37040000D02*
X98081374Y-37040000D01*
X98810000Y-41952500D02*
X98850000Y-41992500D01*
X98810000Y-39867500D02*
X98810000Y-41952500D01*
X102040000Y-40640000D02*
X102040000Y-41670000D01*
X101267500Y-39867500D02*
X102040000Y-40640000D01*
X98810000Y-39867500D02*
X101267500Y-39867500D01*
D24*
X91250000Y-47000000D02*
X94250000Y-47000000D01*
D23*
X101365000Y-44145000D02*
X101090000Y-43870000D01*
X101365000Y-46520000D02*
X101365000Y-44145000D01*
X98852500Y-43870000D02*
X98850000Y-43867500D01*
D24*
X101090000Y-43870000D02*
X98852500Y-43870000D01*
D23*
X100785000Y-37995000D02*
X100790000Y-37990000D01*
D25*
X102210000Y-37040000D02*
X101910000Y-37340000D01*
X102990000Y-37040000D02*
X102210000Y-37040000D01*
X101570000Y-37990000D02*
X100790000Y-37990000D01*
X101910000Y-37650000D02*
X101570000Y-37990000D01*
X101910000Y-37340000D02*
X101910000Y-37650000D01*
X100902500Y-30212500D02*
X100915000Y-30200000D01*
X98820000Y-30212500D02*
X100902500Y-30212500D01*
D23*
X100787500Y-37992500D02*
X100790000Y-37990000D01*
X98810000Y-37992500D02*
X100787500Y-37992500D01*
X96959980Y-32290020D02*
X96959980Y-32290020D01*
X97172480Y-30212500D02*
X96959980Y-30000000D01*
X98820000Y-30212500D02*
X97172480Y-30212500D01*
D24*
X98850000Y-43867500D02*
X98850000Y-46400000D01*
X98250000Y-47000000D02*
X98850000Y-46400000D01*
X94250000Y-47000000D02*
X98250000Y-47000000D01*
D23*
X96827500Y-36577500D02*
X96959980Y-36709980D01*
X94250000Y-36577500D02*
X96827500Y-36577500D01*
X96959980Y-36709980D02*
X96959980Y-32290020D01*
X96959980Y-36942480D02*
X96959980Y-36709980D01*
X97617500Y-43867500D02*
X96959980Y-43209980D01*
X98850000Y-43867500D02*
X97617500Y-43867500D01*
X97007500Y-37992500D02*
X96959980Y-38040020D01*
X98810000Y-37992500D02*
X97007500Y-37992500D01*
X96959980Y-38040020D02*
X96959980Y-43209980D01*
X96959980Y-36709980D02*
X96959980Y-38040020D01*
X100785000Y-36085000D02*
X100790000Y-36090000D01*
X100787500Y-36087500D02*
X100790000Y-36090000D01*
X98810000Y-36087500D02*
X100787500Y-36087500D01*
X104210000Y-30212500D02*
X105010000Y-30212500D01*
X102192498Y-30212500D02*
X104210000Y-30212500D01*
X102014999Y-30389999D02*
X102192498Y-30212500D01*
X102014999Y-34040001D02*
X102014999Y-30389999D01*
X100790000Y-35265000D02*
X102014999Y-34040001D01*
X100790000Y-36090000D02*
X100790000Y-35265000D01*
D25*
X102915000Y-31800000D02*
X102915000Y-31150000D01*
X103202500Y-32087500D02*
X102915000Y-31800000D01*
X105010000Y-32087500D02*
X103202500Y-32087500D01*
X109987500Y-32087500D02*
X111450010Y-33550010D01*
X105010000Y-32087500D02*
X109987500Y-32087500D01*
X110525000Y-38750000D02*
X110250000Y-38750000D01*
X111450010Y-33550010D02*
X111450010Y-37824990D01*
X111450010Y-37824990D02*
X110525000Y-38750000D01*
X88250000Y-34150000D02*
X91150000Y-31250000D01*
X91150000Y-31250000D02*
X91167499Y-31250000D01*
X88250000Y-34700000D02*
X88250000Y-34150000D01*
X100902500Y-32087500D02*
X100915000Y-32100000D01*
X98820000Y-32087500D02*
X100902500Y-32087500D01*
X92667499Y-29750000D02*
X91167499Y-31250000D01*
X95609977Y-29750000D02*
X92667499Y-29750000D01*
X97947477Y-32087500D02*
X95609977Y-29750000D01*
X98820000Y-32087500D02*
X97947477Y-32087500D01*
D23*
X103002500Y-37977500D02*
X102990000Y-37990000D01*
X105520000Y-37977500D02*
X103002500Y-37977500D01*
X103002500Y-36102500D02*
X102990000Y-36090000D01*
X105520000Y-36102500D02*
X103002500Y-36102500D01*
D25*
X101080000Y-42450000D02*
X101400000Y-42770000D01*
X101080000Y-41670000D02*
X101080000Y-42450000D01*
X102980000Y-42450000D02*
X102980000Y-41670000D01*
X102660000Y-42770000D02*
X102980000Y-42450000D01*
X101400000Y-42770000D02*
X102660000Y-42770000D01*
D23*
X105227500Y-41670000D02*
X105230000Y-41667500D01*
X102990000Y-41670000D02*
X105227500Y-41670000D01*
D24*
X106092500Y-40750000D02*
X105230000Y-41612500D01*
X110250000Y-40750000D02*
X106092500Y-40750000D01*
D25*
X83750000Y-34150000D02*
X85150000Y-32750000D01*
X83750000Y-34700000D02*
X83750000Y-34150000D01*
X86957499Y-32750000D02*
X88457499Y-31250000D01*
X85150000Y-32750000D02*
X86957499Y-32750000D01*
X82250000Y-34150000D02*
X82250000Y-34700000D01*
X85150000Y-31250000D02*
X82250000Y-34150000D01*
X85917499Y-31250000D02*
X85150000Y-31250000D01*
D23*
X102715000Y-44145000D02*
X102990000Y-43870000D01*
X102715000Y-46520000D02*
X102715000Y-44145000D01*
D25*
X82746789Y-31720710D02*
X83217499Y-31250000D01*
X80750000Y-33717499D02*
X82746789Y-31720710D01*
X80750000Y-34700000D02*
X80750000Y-33717499D01*
X89750000Y-34150000D02*
X90700000Y-33200000D01*
X89750000Y-34700000D02*
X89750000Y-34150000D01*
X90700000Y-33200000D02*
X92747500Y-33200000D01*
X92747500Y-33200000D02*
X94250000Y-34702500D01*
D26*
G36*
X109848001Y-30167968D02*
G01*
X109844846Y-30200000D01*
X109857435Y-30327814D01*
X109894717Y-30450717D01*
X109955259Y-30563984D01*
X110036736Y-30663264D01*
X110136016Y-30744741D01*
X110249283Y-30805283D01*
X110372186Y-30842565D01*
X110467978Y-30852000D01*
X110500000Y-30855154D01*
X110532022Y-30852000D01*
X113348001Y-30852000D01*
X113348000Y-46648000D01*
X110532022Y-46648000D01*
X110500000Y-46644846D01*
X110467978Y-46648000D01*
X110372186Y-46657435D01*
X110249283Y-46694717D01*
X110136016Y-46755259D01*
X110036736Y-46836736D01*
X109955259Y-46936016D01*
X109894717Y-47049283D01*
X109857435Y-47172186D01*
X109844846Y-47300000D01*
X109848001Y-47332032D01*
X109848000Y-48348000D01*
X108986935Y-48348000D01*
X109196518Y-48207961D01*
X109457961Y-47946518D01*
X109663376Y-47639093D01*
X109804868Y-47297501D01*
X109877000Y-46934868D01*
X109877000Y-46565132D01*
X109804868Y-46202499D01*
X109663376Y-45860907D01*
X109457961Y-45553482D01*
X109196518Y-45292039D01*
X108889093Y-45086624D01*
X108547501Y-44945132D01*
X108184868Y-44873000D01*
X107815132Y-44873000D01*
X107452499Y-44945132D01*
X107110907Y-45086624D01*
X106803482Y-45292039D01*
X106542039Y-45553482D01*
X106336624Y-45860907D01*
X106195132Y-46202499D01*
X106123000Y-46565132D01*
X106123000Y-46934868D01*
X106195132Y-47297501D01*
X106336624Y-47639093D01*
X106542039Y-47946518D01*
X106803482Y-48207961D01*
X107013065Y-48348000D01*
X104127000Y-48348000D01*
X104127000Y-44465729D01*
X104175506Y-44505537D01*
X104285820Y-44564502D01*
X104405518Y-44600812D01*
X104530000Y-44613072D01*
X104944250Y-44610000D01*
X105103000Y-44451250D01*
X105103000Y-43614500D01*
X105357000Y-43614500D01*
X105357000Y-44451250D01*
X105515750Y-44610000D01*
X105930000Y-44613072D01*
X106054482Y-44600812D01*
X106174180Y-44564502D01*
X106284494Y-44505537D01*
X106381185Y-44426185D01*
X106460537Y-44329494D01*
X106519502Y-44219180D01*
X106555812Y-44099482D01*
X106568072Y-43975000D01*
X106565000Y-43773250D01*
X106406250Y-43614500D01*
X105357000Y-43614500D01*
X105103000Y-43614500D01*
X105083000Y-43614500D01*
X105083000Y-43360500D01*
X105103000Y-43360500D01*
X105103000Y-43340500D01*
X105357000Y-43340500D01*
X105357000Y-43360500D01*
X106406250Y-43360500D01*
X106565000Y-43201750D01*
X106568072Y-43000000D01*
X106555812Y-42875518D01*
X106519502Y-42755820D01*
X106460537Y-42645506D01*
X106381185Y-42548815D01*
X106297131Y-42479834D01*
X106304108Y-42474108D01*
X106412774Y-42341698D01*
X106493520Y-42190632D01*
X106543244Y-42026717D01*
X106557844Y-41878474D01*
X106559319Y-41877000D01*
X109220790Y-41877000D01*
X109288225Y-41913045D01*
X109453313Y-41963123D01*
X109624999Y-41980033D01*
X110875001Y-41980033D01*
X111046687Y-41963123D01*
X111211775Y-41913045D01*
X111363921Y-41831721D01*
X111497278Y-41722278D01*
X111606721Y-41588921D01*
X111688045Y-41436775D01*
X111738123Y-41271687D01*
X111755033Y-41100001D01*
X111755033Y-40399999D01*
X111738123Y-40228313D01*
X111688045Y-40063225D01*
X111606721Y-39911079D01*
X111497278Y-39777722D01*
X111363921Y-39668279D01*
X111349558Y-39660602D01*
X111396817Y-39621817D01*
X111550149Y-39434983D01*
X111664084Y-39221824D01*
X111734245Y-38990534D01*
X111757936Y-38750000D01*
X111742743Y-38595745D01*
X111955631Y-38382857D01*
X111984327Y-38359307D01*
X112078300Y-38244800D01*
X112148128Y-38114160D01*
X112191129Y-37972408D01*
X112202010Y-37861928D01*
X112202010Y-37861926D01*
X112205648Y-37824990D01*
X112202010Y-37788055D01*
X112202010Y-33586945D01*
X112205648Y-33550009D01*
X112201278Y-33505638D01*
X112191129Y-33402592D01*
X112148128Y-33260840D01*
X112099472Y-33169810D01*
X112078300Y-33130199D01*
X112007873Y-33044384D01*
X111984327Y-33015693D01*
X111955637Y-32992148D01*
X110545367Y-31581879D01*
X110521817Y-31553183D01*
X110407310Y-31459210D01*
X110276670Y-31389382D01*
X110134918Y-31346381D01*
X110024438Y-31335500D01*
X110024435Y-31335500D01*
X109987500Y-31331862D01*
X109950565Y-31335500D01*
X106174061Y-31335500D01*
X106084108Y-31225892D01*
X105991633Y-31150000D01*
X106084108Y-31074108D01*
X106192774Y-30941698D01*
X106273520Y-30790632D01*
X106323244Y-30626717D01*
X106340033Y-30456250D01*
X106340033Y-29968750D01*
X106323244Y-29798283D01*
X106273520Y-29634368D01*
X106192774Y-29483302D01*
X106084108Y-29350892D01*
X105951698Y-29242226D01*
X105800632Y-29161480D01*
X105769381Y-29152000D01*
X109848000Y-29152000D01*
X109848001Y-30167968D01*
X109848001Y-30167968D01*
G37*
X109848001Y-30167968D02*
X109844846Y-30200000D01*
X109857435Y-30327814D01*
X109894717Y-30450717D01*
X109955259Y-30563984D01*
X110036736Y-30663264D01*
X110136016Y-30744741D01*
X110249283Y-30805283D01*
X110372186Y-30842565D01*
X110467978Y-30852000D01*
X110500000Y-30855154D01*
X110532022Y-30852000D01*
X113348001Y-30852000D01*
X113348000Y-46648000D01*
X110532022Y-46648000D01*
X110500000Y-46644846D01*
X110467978Y-46648000D01*
X110372186Y-46657435D01*
X110249283Y-46694717D01*
X110136016Y-46755259D01*
X110036736Y-46836736D01*
X109955259Y-46936016D01*
X109894717Y-47049283D01*
X109857435Y-47172186D01*
X109844846Y-47300000D01*
X109848001Y-47332032D01*
X109848000Y-48348000D01*
X108986935Y-48348000D01*
X109196518Y-48207961D01*
X109457961Y-47946518D01*
X109663376Y-47639093D01*
X109804868Y-47297501D01*
X109877000Y-46934868D01*
X109877000Y-46565132D01*
X109804868Y-46202499D01*
X109663376Y-45860907D01*
X109457961Y-45553482D01*
X109196518Y-45292039D01*
X108889093Y-45086624D01*
X108547501Y-44945132D01*
X108184868Y-44873000D01*
X107815132Y-44873000D01*
X107452499Y-44945132D01*
X107110907Y-45086624D01*
X106803482Y-45292039D01*
X106542039Y-45553482D01*
X106336624Y-45860907D01*
X106195132Y-46202499D01*
X106123000Y-46565132D01*
X106123000Y-46934868D01*
X106195132Y-47297501D01*
X106336624Y-47639093D01*
X106542039Y-47946518D01*
X106803482Y-48207961D01*
X107013065Y-48348000D01*
X104127000Y-48348000D01*
X104127000Y-44465729D01*
X104175506Y-44505537D01*
X104285820Y-44564502D01*
X104405518Y-44600812D01*
X104530000Y-44613072D01*
X104944250Y-44610000D01*
X105103000Y-44451250D01*
X105103000Y-43614500D01*
X105357000Y-43614500D01*
X105357000Y-44451250D01*
X105515750Y-44610000D01*
X105930000Y-44613072D01*
X106054482Y-44600812D01*
X106174180Y-44564502D01*
X106284494Y-44505537D01*
X106381185Y-44426185D01*
X106460537Y-44329494D01*
X106519502Y-44219180D01*
X106555812Y-44099482D01*
X106568072Y-43975000D01*
X106565000Y-43773250D01*
X106406250Y-43614500D01*
X105357000Y-43614500D01*
X105103000Y-43614500D01*
X105083000Y-43614500D01*
X105083000Y-43360500D01*
X105103000Y-43360500D01*
X105103000Y-43340500D01*
X105357000Y-43340500D01*
X105357000Y-43360500D01*
X106406250Y-43360500D01*
X106565000Y-43201750D01*
X106568072Y-43000000D01*
X106555812Y-42875518D01*
X106519502Y-42755820D01*
X106460537Y-42645506D01*
X106381185Y-42548815D01*
X106297131Y-42479834D01*
X106304108Y-42474108D01*
X106412774Y-42341698D01*
X106493520Y-42190632D01*
X106543244Y-42026717D01*
X106557844Y-41878474D01*
X106559319Y-41877000D01*
X109220790Y-41877000D01*
X109288225Y-41913045D01*
X109453313Y-41963123D01*
X109624999Y-41980033D01*
X110875001Y-41980033D01*
X111046687Y-41963123D01*
X111211775Y-41913045D01*
X111363921Y-41831721D01*
X111497278Y-41722278D01*
X111606721Y-41588921D01*
X111688045Y-41436775D01*
X111738123Y-41271687D01*
X111755033Y-41100001D01*
X111755033Y-40399999D01*
X111738123Y-40228313D01*
X111688045Y-40063225D01*
X111606721Y-39911079D01*
X111497278Y-39777722D01*
X111363921Y-39668279D01*
X111349558Y-39660602D01*
X111396817Y-39621817D01*
X111550149Y-39434983D01*
X111664084Y-39221824D01*
X111734245Y-38990534D01*
X111757936Y-38750000D01*
X111742743Y-38595745D01*
X111955631Y-38382857D01*
X111984327Y-38359307D01*
X112078300Y-38244800D01*
X112148128Y-38114160D01*
X112191129Y-37972408D01*
X112202010Y-37861928D01*
X112202010Y-37861926D01*
X112205648Y-37824990D01*
X112202010Y-37788055D01*
X112202010Y-33586945D01*
X112205648Y-33550009D01*
X112201278Y-33505638D01*
X112191129Y-33402592D01*
X112148128Y-33260840D01*
X112099472Y-33169810D01*
X112078300Y-33130199D01*
X112007873Y-33044384D01*
X111984327Y-33015693D01*
X111955637Y-32992148D01*
X110545367Y-31581879D01*
X110521817Y-31553183D01*
X110407310Y-31459210D01*
X110276670Y-31389382D01*
X110134918Y-31346381D01*
X110024438Y-31335500D01*
X110024435Y-31335500D01*
X109987500Y-31331862D01*
X109950565Y-31335500D01*
X106174061Y-31335500D01*
X106084108Y-31225892D01*
X105991633Y-31150000D01*
X106084108Y-31074108D01*
X106192774Y-30941698D01*
X106273520Y-30790632D01*
X106323244Y-30626717D01*
X106340033Y-30456250D01*
X106340033Y-29968750D01*
X106323244Y-29798283D01*
X106273520Y-29634368D01*
X106192774Y-29483302D01*
X106084108Y-29350892D01*
X105951698Y-29242226D01*
X105800632Y-29161480D01*
X105769381Y-29152000D01*
X109848000Y-29152000D01*
X109848001Y-30167968D01*
G36*
X92188887Y-29169967D02*
G01*
X92133182Y-29215683D01*
X92109636Y-29244374D01*
X91674184Y-29679826D01*
X91529430Y-29635916D01*
X91367499Y-29619967D01*
X90967499Y-29619967D01*
X90805568Y-29635916D01*
X90649859Y-29683149D01*
X90506357Y-29759853D01*
X90380577Y-29863078D01*
X90277352Y-29988858D01*
X90200648Y-30132360D01*
X90153415Y-30288069D01*
X90137466Y-30450000D01*
X90137466Y-31199045D01*
X89925818Y-31410693D01*
X89941645Y-31250000D01*
X89913128Y-30960457D01*
X89828671Y-30682042D01*
X89691521Y-30425453D01*
X89506949Y-30200550D01*
X89282046Y-30015978D01*
X89025457Y-29878828D01*
X88747042Y-29794371D01*
X88530055Y-29773000D01*
X88384943Y-29773000D01*
X88167956Y-29794371D01*
X87889541Y-29878828D01*
X87632952Y-30015978D01*
X87408049Y-30200550D01*
X87374580Y-30241332D01*
X87349574Y-30158897D01*
X87291352Y-30049972D01*
X87213000Y-29954499D01*
X87117527Y-29876147D01*
X87008602Y-29817925D01*
X86890412Y-29782073D01*
X86767499Y-29769967D01*
X85067499Y-29769967D01*
X84944586Y-29782073D01*
X84826396Y-29817925D01*
X84717471Y-29876147D01*
X84621998Y-29954499D01*
X84543646Y-30049972D01*
X84485424Y-30158897D01*
X84449572Y-30277087D01*
X84437466Y-30400000D01*
X84437466Y-30899045D01*
X84247532Y-31088979D01*
X84247532Y-30450000D01*
X84231583Y-30288069D01*
X84184350Y-30132360D01*
X84107646Y-29988858D01*
X84004421Y-29863078D01*
X83878641Y-29759853D01*
X83735139Y-29683149D01*
X83579430Y-29635916D01*
X83417499Y-29619967D01*
X83017499Y-29619967D01*
X82855568Y-29635916D01*
X82699859Y-29683149D01*
X82556357Y-29759853D01*
X82430577Y-29863078D01*
X82327352Y-29988858D01*
X82250648Y-30132360D01*
X82203415Y-30288069D01*
X82187466Y-30450000D01*
X82187466Y-31216544D01*
X80334044Y-33069967D01*
X80300000Y-33069967D01*
X80177087Y-33082073D01*
X80058897Y-33117925D01*
X79949972Y-33176147D01*
X79854499Y-33254499D01*
X79776147Y-33349972D01*
X79717925Y-33458897D01*
X79682073Y-33577087D01*
X79669967Y-33700000D01*
X79669967Y-35700000D01*
X79682073Y-35822913D01*
X79717925Y-35941103D01*
X79776147Y-36050028D01*
X79854499Y-36145501D01*
X79949972Y-36223853D01*
X80058897Y-36282075D01*
X80177087Y-36317927D01*
X80300000Y-36330033D01*
X81200000Y-36330033D01*
X81322913Y-36317927D01*
X81441103Y-36282075D01*
X81500000Y-36250594D01*
X81558897Y-36282075D01*
X81677087Y-36317927D01*
X81800000Y-36330033D01*
X82700000Y-36330033D01*
X82822913Y-36317927D01*
X82941103Y-36282075D01*
X83000000Y-36250594D01*
X83058897Y-36282075D01*
X83177087Y-36317927D01*
X83300000Y-36330033D01*
X84200000Y-36330033D01*
X84322913Y-36317927D01*
X84441103Y-36282075D01*
X84500000Y-36250594D01*
X84558897Y-36282075D01*
X84677087Y-36317927D01*
X84800000Y-36330033D01*
X85700000Y-36330033D01*
X85822913Y-36317927D01*
X85941103Y-36282075D01*
X86000000Y-36250594D01*
X86058897Y-36282075D01*
X86177087Y-36317927D01*
X86300000Y-36330033D01*
X87200000Y-36330033D01*
X87322913Y-36317927D01*
X87441103Y-36282075D01*
X87500000Y-36250594D01*
X87558897Y-36282075D01*
X87677087Y-36317927D01*
X87800000Y-36330033D01*
X88700000Y-36330033D01*
X88822913Y-36317927D01*
X88941103Y-36282075D01*
X89000000Y-36250594D01*
X89058897Y-36282075D01*
X89177087Y-36317927D01*
X89300000Y-36330033D01*
X90200000Y-36330033D01*
X90322913Y-36317927D01*
X90441103Y-36282075D01*
X90491514Y-36255129D01*
X90555820Y-36289502D01*
X90675518Y-36325812D01*
X90800000Y-36338072D01*
X90964250Y-36335000D01*
X91123000Y-36176250D01*
X91123000Y-34827000D01*
X91377000Y-34827000D01*
X91377000Y-36176250D01*
X91535750Y-36335000D01*
X91700000Y-36338072D01*
X91824482Y-36325812D01*
X91944180Y-36289502D01*
X92054494Y-36230537D01*
X92151185Y-36151185D01*
X92230537Y-36054494D01*
X92289502Y-35944180D01*
X92325812Y-35824482D01*
X92338072Y-35700000D01*
X92335000Y-34985750D01*
X92176250Y-34827000D01*
X91377000Y-34827000D01*
X91123000Y-34827000D01*
X91103000Y-34827000D01*
X91103000Y-34573000D01*
X91123000Y-34573000D01*
X91123000Y-34553000D01*
X91377000Y-34553000D01*
X91377000Y-34573000D01*
X92176250Y-34573000D01*
X92335000Y-34414250D01*
X92336988Y-33952000D01*
X92436012Y-33952000D01*
X92922011Y-34437999D01*
X92919967Y-34458750D01*
X92919967Y-34946250D01*
X92936756Y-35116717D01*
X92986480Y-35280632D01*
X93067226Y-35431698D01*
X93175892Y-35564108D01*
X93268367Y-35640000D01*
X93175892Y-35715892D01*
X93067226Y-35848302D01*
X92986480Y-35999368D01*
X92936756Y-36163283D01*
X92919967Y-36333750D01*
X92919967Y-36821250D01*
X92936756Y-36991717D01*
X92986480Y-37155632D01*
X93067226Y-37306698D01*
X93175892Y-37439108D01*
X93308302Y-37547774D01*
X93459368Y-37628520D01*
X93623283Y-37678244D01*
X93793750Y-37695033D01*
X94706250Y-37695033D01*
X94876717Y-37678244D01*
X95040632Y-37628520D01*
X95191698Y-37547774D01*
X95305353Y-37454500D01*
X96082981Y-37454500D01*
X96082981Y-37996931D01*
X96078737Y-38040020D01*
X96082980Y-38083099D01*
X96082981Y-43166891D01*
X96078737Y-43209980D01*
X96095670Y-43381902D01*
X96145818Y-43547216D01*
X96227254Y-43699572D01*
X96309386Y-43799651D01*
X96309389Y-43799654D01*
X96336848Y-43833113D01*
X96370307Y-43860572D01*
X96966903Y-44457168D01*
X96994367Y-44490633D01*
X97127908Y-44600227D01*
X97204382Y-44641103D01*
X97280263Y-44681662D01*
X97445577Y-44731810D01*
X97617500Y-44748743D01*
X97660579Y-44744500D01*
X97723000Y-44744500D01*
X97723001Y-45873000D01*
X95530779Y-45873000D01*
X95539502Y-45856680D01*
X95575812Y-45736982D01*
X95588072Y-45612500D01*
X95585000Y-45410750D01*
X95426250Y-45252000D01*
X94377000Y-45252000D01*
X94377000Y-45272000D01*
X94123000Y-45272000D01*
X94123000Y-45252000D01*
X93073750Y-45252000D01*
X92915000Y-45410750D01*
X92911928Y-45612500D01*
X92924188Y-45736982D01*
X92960498Y-45856680D01*
X92969221Y-45873000D01*
X92316687Y-45873000D01*
X92282075Y-45758897D01*
X92223853Y-45649972D01*
X92145501Y-45554499D01*
X92050028Y-45476147D01*
X91941103Y-45417925D01*
X91822913Y-45382073D01*
X91700000Y-45369967D01*
X90800000Y-45369967D01*
X90677087Y-45382073D01*
X90558897Y-45417925D01*
X90500000Y-45449406D01*
X90441103Y-45417925D01*
X90322913Y-45382073D01*
X90200000Y-45369967D01*
X89300000Y-45369967D01*
X89177087Y-45382073D01*
X89058897Y-45417925D01*
X89000000Y-45449406D01*
X88941103Y-45417925D01*
X88822913Y-45382073D01*
X88700000Y-45369967D01*
X87800000Y-45369967D01*
X87677087Y-45382073D01*
X87558897Y-45417925D01*
X87500000Y-45449406D01*
X87441103Y-45417925D01*
X87322913Y-45382073D01*
X87200000Y-45369967D01*
X86300000Y-45369967D01*
X86177087Y-45382073D01*
X86058897Y-45417925D01*
X86000000Y-45449406D01*
X85941103Y-45417925D01*
X85822913Y-45382073D01*
X85700000Y-45369967D01*
X84800000Y-45369967D01*
X84677087Y-45382073D01*
X84558897Y-45417925D01*
X84500000Y-45449406D01*
X84441103Y-45417925D01*
X84322913Y-45382073D01*
X84200000Y-45369967D01*
X83300000Y-45369967D01*
X83177087Y-45382073D01*
X83058897Y-45417925D01*
X83000000Y-45449406D01*
X82941103Y-45417925D01*
X82822913Y-45382073D01*
X82700000Y-45369967D01*
X81800000Y-45369967D01*
X81677087Y-45382073D01*
X81558897Y-45417925D01*
X81449972Y-45476147D01*
X81354499Y-45554499D01*
X81276147Y-45649972D01*
X81217925Y-45758897D01*
X81182073Y-45877087D01*
X81169967Y-46000000D01*
X81169967Y-48000000D01*
X81182073Y-48122913D01*
X81217925Y-48241103D01*
X81275063Y-48348000D01*
X77127000Y-48348000D01*
X77127000Y-44637500D01*
X92911928Y-44637500D01*
X92915000Y-44839250D01*
X93073750Y-44998000D01*
X94123000Y-44998000D01*
X94123000Y-44161250D01*
X94377000Y-44161250D01*
X94377000Y-44998000D01*
X95426250Y-44998000D01*
X95585000Y-44839250D01*
X95588072Y-44637500D01*
X95575812Y-44513018D01*
X95539502Y-44393320D01*
X95480537Y-44283006D01*
X95401185Y-44186315D01*
X95304494Y-44106963D01*
X95194180Y-44047998D01*
X95074482Y-44011688D01*
X94950000Y-43999428D01*
X94535750Y-44002500D01*
X94377000Y-44161250D01*
X94123000Y-44161250D01*
X93964250Y-44002500D01*
X93550000Y-43999428D01*
X93425518Y-44011688D01*
X93305820Y-44047998D01*
X93195506Y-44106963D01*
X93098815Y-44186315D01*
X93019463Y-44283006D01*
X92960498Y-44393320D01*
X92924188Y-44513018D01*
X92911928Y-44637500D01*
X77127000Y-44637500D01*
X77127000Y-43400000D01*
X85561928Y-43400000D01*
X85574188Y-43524482D01*
X85610498Y-43644180D01*
X85669463Y-43754494D01*
X85748815Y-43851185D01*
X85845506Y-43930537D01*
X85955820Y-43989502D01*
X86075518Y-44025812D01*
X86200000Y-44038072D01*
X87164250Y-44035000D01*
X87323000Y-43876250D01*
X87323000Y-42277000D01*
X87577000Y-42277000D01*
X87577000Y-43876250D01*
X87735750Y-44035000D01*
X88700000Y-44038072D01*
X88824482Y-44025812D01*
X88944180Y-43989502D01*
X89054494Y-43930537D01*
X89151185Y-43851185D01*
X89230537Y-43754494D01*
X89289502Y-43644180D01*
X89325812Y-43524482D01*
X89338072Y-43400000D01*
X89335000Y-42435750D01*
X89176250Y-42277000D01*
X87577000Y-42277000D01*
X87323000Y-42277000D01*
X85723750Y-42277000D01*
X85565000Y-42435750D01*
X85561928Y-43400000D01*
X77127000Y-43400000D01*
X77127000Y-40900000D01*
X85561928Y-40900000D01*
X85565000Y-41864250D01*
X85723750Y-42023000D01*
X87323000Y-42023000D01*
X87323000Y-40423750D01*
X87577000Y-40423750D01*
X87577000Y-42023000D01*
X89176250Y-42023000D01*
X89335000Y-41864250D01*
X89338072Y-40900000D01*
X89325812Y-40775518D01*
X89289502Y-40655820D01*
X89230537Y-40545506D01*
X89151185Y-40448815D01*
X89054494Y-40369463D01*
X88944180Y-40310498D01*
X88824482Y-40274188D01*
X88700000Y-40261928D01*
X87735750Y-40265000D01*
X87577000Y-40423750D01*
X87323000Y-40423750D01*
X87164250Y-40265000D01*
X86200000Y-40261928D01*
X86075518Y-40274188D01*
X85955820Y-40310498D01*
X85845506Y-40369463D01*
X85748815Y-40448815D01*
X85669463Y-40545506D01*
X85610498Y-40655820D01*
X85574188Y-40775518D01*
X85561928Y-40900000D01*
X77127000Y-40900000D01*
X77127000Y-32250000D01*
X77979427Y-32250000D01*
X77991687Y-32374482D01*
X78027997Y-32494180D01*
X78086962Y-32604494D01*
X78166314Y-32701185D01*
X78263005Y-32780537D01*
X78373319Y-32839502D01*
X78493017Y-32875812D01*
X78617499Y-32888072D01*
X78731749Y-32885000D01*
X78890499Y-32726250D01*
X78890499Y-31377000D01*
X79144499Y-31377000D01*
X79144499Y-32726250D01*
X79303249Y-32885000D01*
X79417499Y-32888072D01*
X79541981Y-32875812D01*
X79661679Y-32839502D01*
X79771993Y-32780537D01*
X79868684Y-32701185D01*
X79948036Y-32604494D01*
X80007001Y-32494180D01*
X80043311Y-32374482D01*
X80055571Y-32250000D01*
X80052499Y-31535750D01*
X79893749Y-31377000D01*
X79144499Y-31377000D01*
X78890499Y-31377000D01*
X78141249Y-31377000D01*
X77982499Y-31535750D01*
X77979427Y-32250000D01*
X77127000Y-32250000D01*
X77127000Y-30250000D01*
X77979427Y-30250000D01*
X77982499Y-30964250D01*
X78141249Y-31123000D01*
X78890499Y-31123000D01*
X78890499Y-29773750D01*
X79144499Y-29773750D01*
X79144499Y-31123000D01*
X79893749Y-31123000D01*
X80052499Y-30964250D01*
X80055571Y-30250000D01*
X80043311Y-30125518D01*
X80007001Y-30005820D01*
X79948036Y-29895506D01*
X79868684Y-29798815D01*
X79771993Y-29719463D01*
X79661679Y-29660498D01*
X79541981Y-29624188D01*
X79417499Y-29611928D01*
X79303249Y-29615000D01*
X79144499Y-29773750D01*
X78890499Y-29773750D01*
X78731749Y-29615000D01*
X78617499Y-29611928D01*
X78493017Y-29624188D01*
X78373319Y-29660498D01*
X78263005Y-29719463D01*
X78166314Y-29798815D01*
X78086962Y-29895506D01*
X78027997Y-30005820D01*
X77991687Y-30125518D01*
X77979427Y-30250000D01*
X77127000Y-30250000D01*
X77127000Y-29152000D01*
X92210780Y-29152000D01*
X92188887Y-29169967D01*
X92188887Y-29169967D01*
G37*
X92188887Y-29169967D02*
X92133182Y-29215683D01*
X92109636Y-29244374D01*
X91674184Y-29679826D01*
X91529430Y-29635916D01*
X91367499Y-29619967D01*
X90967499Y-29619967D01*
X90805568Y-29635916D01*
X90649859Y-29683149D01*
X90506357Y-29759853D01*
X90380577Y-29863078D01*
X90277352Y-29988858D01*
X90200648Y-30132360D01*
X90153415Y-30288069D01*
X90137466Y-30450000D01*
X90137466Y-31199045D01*
X89925818Y-31410693D01*
X89941645Y-31250000D01*
X89913128Y-30960457D01*
X89828671Y-30682042D01*
X89691521Y-30425453D01*
X89506949Y-30200550D01*
X89282046Y-30015978D01*
X89025457Y-29878828D01*
X88747042Y-29794371D01*
X88530055Y-29773000D01*
X88384943Y-29773000D01*
X88167956Y-29794371D01*
X87889541Y-29878828D01*
X87632952Y-30015978D01*
X87408049Y-30200550D01*
X87374580Y-30241332D01*
X87349574Y-30158897D01*
X87291352Y-30049972D01*
X87213000Y-29954499D01*
X87117527Y-29876147D01*
X87008602Y-29817925D01*
X86890412Y-29782073D01*
X86767499Y-29769967D01*
X85067499Y-29769967D01*
X84944586Y-29782073D01*
X84826396Y-29817925D01*
X84717471Y-29876147D01*
X84621998Y-29954499D01*
X84543646Y-30049972D01*
X84485424Y-30158897D01*
X84449572Y-30277087D01*
X84437466Y-30400000D01*
X84437466Y-30899045D01*
X84247532Y-31088979D01*
X84247532Y-30450000D01*
X84231583Y-30288069D01*
X84184350Y-30132360D01*
X84107646Y-29988858D01*
X84004421Y-29863078D01*
X83878641Y-29759853D01*
X83735139Y-29683149D01*
X83579430Y-29635916D01*
X83417499Y-29619967D01*
X83017499Y-29619967D01*
X82855568Y-29635916D01*
X82699859Y-29683149D01*
X82556357Y-29759853D01*
X82430577Y-29863078D01*
X82327352Y-29988858D01*
X82250648Y-30132360D01*
X82203415Y-30288069D01*
X82187466Y-30450000D01*
X82187466Y-31216544D01*
X80334044Y-33069967D01*
X80300000Y-33069967D01*
X80177087Y-33082073D01*
X80058897Y-33117925D01*
X79949972Y-33176147D01*
X79854499Y-33254499D01*
X79776147Y-33349972D01*
X79717925Y-33458897D01*
X79682073Y-33577087D01*
X79669967Y-33700000D01*
X79669967Y-35700000D01*
X79682073Y-35822913D01*
X79717925Y-35941103D01*
X79776147Y-36050028D01*
X79854499Y-36145501D01*
X79949972Y-36223853D01*
X80058897Y-36282075D01*
X80177087Y-36317927D01*
X80300000Y-36330033D01*
X81200000Y-36330033D01*
X81322913Y-36317927D01*
X81441103Y-36282075D01*
X81500000Y-36250594D01*
X81558897Y-36282075D01*
X81677087Y-36317927D01*
X81800000Y-36330033D01*
X82700000Y-36330033D01*
X82822913Y-36317927D01*
X82941103Y-36282075D01*
X83000000Y-36250594D01*
X83058897Y-36282075D01*
X83177087Y-36317927D01*
X83300000Y-36330033D01*
X84200000Y-36330033D01*
X84322913Y-36317927D01*
X84441103Y-36282075D01*
X84500000Y-36250594D01*
X84558897Y-36282075D01*
X84677087Y-36317927D01*
X84800000Y-36330033D01*
X85700000Y-36330033D01*
X85822913Y-36317927D01*
X85941103Y-36282075D01*
X86000000Y-36250594D01*
X86058897Y-36282075D01*
X86177087Y-36317927D01*
X86300000Y-36330033D01*
X87200000Y-36330033D01*
X87322913Y-36317927D01*
X87441103Y-36282075D01*
X87500000Y-36250594D01*
X87558897Y-36282075D01*
X87677087Y-36317927D01*
X87800000Y-36330033D01*
X88700000Y-36330033D01*
X88822913Y-36317927D01*
X88941103Y-36282075D01*
X89000000Y-36250594D01*
X89058897Y-36282075D01*
X89177087Y-36317927D01*
X89300000Y-36330033D01*
X90200000Y-36330033D01*
X90322913Y-36317927D01*
X90441103Y-36282075D01*
X90491514Y-36255129D01*
X90555820Y-36289502D01*
X90675518Y-36325812D01*
X90800000Y-36338072D01*
X90964250Y-36335000D01*
X91123000Y-36176250D01*
X91123000Y-34827000D01*
X91377000Y-34827000D01*
X91377000Y-36176250D01*
X91535750Y-36335000D01*
X91700000Y-36338072D01*
X91824482Y-36325812D01*
X91944180Y-36289502D01*
X92054494Y-36230537D01*
X92151185Y-36151185D01*
X92230537Y-36054494D01*
X92289502Y-35944180D01*
X92325812Y-35824482D01*
X92338072Y-35700000D01*
X92335000Y-34985750D01*
X92176250Y-34827000D01*
X91377000Y-34827000D01*
X91123000Y-34827000D01*
X91103000Y-34827000D01*
X91103000Y-34573000D01*
X91123000Y-34573000D01*
X91123000Y-34553000D01*
X91377000Y-34553000D01*
X91377000Y-34573000D01*
X92176250Y-34573000D01*
X92335000Y-34414250D01*
X92336988Y-33952000D01*
X92436012Y-33952000D01*
X92922011Y-34437999D01*
X92919967Y-34458750D01*
X92919967Y-34946250D01*
X92936756Y-35116717D01*
X92986480Y-35280632D01*
X93067226Y-35431698D01*
X93175892Y-35564108D01*
X93268367Y-35640000D01*
X93175892Y-35715892D01*
X93067226Y-35848302D01*
X92986480Y-35999368D01*
X92936756Y-36163283D01*
X92919967Y-36333750D01*
X92919967Y-36821250D01*
X92936756Y-36991717D01*
X92986480Y-37155632D01*
X93067226Y-37306698D01*
X93175892Y-37439108D01*
X93308302Y-37547774D01*
X93459368Y-37628520D01*
X93623283Y-37678244D01*
X93793750Y-37695033D01*
X94706250Y-37695033D01*
X94876717Y-37678244D01*
X95040632Y-37628520D01*
X95191698Y-37547774D01*
X95305353Y-37454500D01*
X96082981Y-37454500D01*
X96082981Y-37996931D01*
X96078737Y-38040020D01*
X96082980Y-38083099D01*
X96082981Y-43166891D01*
X96078737Y-43209980D01*
X96095670Y-43381902D01*
X96145818Y-43547216D01*
X96227254Y-43699572D01*
X96309386Y-43799651D01*
X96309389Y-43799654D01*
X96336848Y-43833113D01*
X96370307Y-43860572D01*
X96966903Y-44457168D01*
X96994367Y-44490633D01*
X97127908Y-44600227D01*
X97204382Y-44641103D01*
X97280263Y-44681662D01*
X97445577Y-44731810D01*
X97617500Y-44748743D01*
X97660579Y-44744500D01*
X97723000Y-44744500D01*
X97723001Y-45873000D01*
X95530779Y-45873000D01*
X95539502Y-45856680D01*
X95575812Y-45736982D01*
X95588072Y-45612500D01*
X95585000Y-45410750D01*
X95426250Y-45252000D01*
X94377000Y-45252000D01*
X94377000Y-45272000D01*
X94123000Y-45272000D01*
X94123000Y-45252000D01*
X93073750Y-45252000D01*
X92915000Y-45410750D01*
X92911928Y-45612500D01*
X92924188Y-45736982D01*
X92960498Y-45856680D01*
X92969221Y-45873000D01*
X92316687Y-45873000D01*
X92282075Y-45758897D01*
X92223853Y-45649972D01*
X92145501Y-45554499D01*
X92050028Y-45476147D01*
X91941103Y-45417925D01*
X91822913Y-45382073D01*
X91700000Y-45369967D01*
X90800000Y-45369967D01*
X90677087Y-45382073D01*
X90558897Y-45417925D01*
X90500000Y-45449406D01*
X90441103Y-45417925D01*
X90322913Y-45382073D01*
X90200000Y-45369967D01*
X89300000Y-45369967D01*
X89177087Y-45382073D01*
X89058897Y-45417925D01*
X89000000Y-45449406D01*
X88941103Y-45417925D01*
X88822913Y-45382073D01*
X88700000Y-45369967D01*
X87800000Y-45369967D01*
X87677087Y-45382073D01*
X87558897Y-45417925D01*
X87500000Y-45449406D01*
X87441103Y-45417925D01*
X87322913Y-45382073D01*
X87200000Y-45369967D01*
X86300000Y-45369967D01*
X86177087Y-45382073D01*
X86058897Y-45417925D01*
X86000000Y-45449406D01*
X85941103Y-45417925D01*
X85822913Y-45382073D01*
X85700000Y-45369967D01*
X84800000Y-45369967D01*
X84677087Y-45382073D01*
X84558897Y-45417925D01*
X84500000Y-45449406D01*
X84441103Y-45417925D01*
X84322913Y-45382073D01*
X84200000Y-45369967D01*
X83300000Y-45369967D01*
X83177087Y-45382073D01*
X83058897Y-45417925D01*
X83000000Y-45449406D01*
X82941103Y-45417925D01*
X82822913Y-45382073D01*
X82700000Y-45369967D01*
X81800000Y-45369967D01*
X81677087Y-45382073D01*
X81558897Y-45417925D01*
X81449972Y-45476147D01*
X81354499Y-45554499D01*
X81276147Y-45649972D01*
X81217925Y-45758897D01*
X81182073Y-45877087D01*
X81169967Y-46000000D01*
X81169967Y-48000000D01*
X81182073Y-48122913D01*
X81217925Y-48241103D01*
X81275063Y-48348000D01*
X77127000Y-48348000D01*
X77127000Y-44637500D01*
X92911928Y-44637500D01*
X92915000Y-44839250D01*
X93073750Y-44998000D01*
X94123000Y-44998000D01*
X94123000Y-44161250D01*
X94377000Y-44161250D01*
X94377000Y-44998000D01*
X95426250Y-44998000D01*
X95585000Y-44839250D01*
X95588072Y-44637500D01*
X95575812Y-44513018D01*
X95539502Y-44393320D01*
X95480537Y-44283006D01*
X95401185Y-44186315D01*
X95304494Y-44106963D01*
X95194180Y-44047998D01*
X95074482Y-44011688D01*
X94950000Y-43999428D01*
X94535750Y-44002500D01*
X94377000Y-44161250D01*
X94123000Y-44161250D01*
X93964250Y-44002500D01*
X93550000Y-43999428D01*
X93425518Y-44011688D01*
X93305820Y-44047998D01*
X93195506Y-44106963D01*
X93098815Y-44186315D01*
X93019463Y-44283006D01*
X92960498Y-44393320D01*
X92924188Y-44513018D01*
X92911928Y-44637500D01*
X77127000Y-44637500D01*
X77127000Y-43400000D01*
X85561928Y-43400000D01*
X85574188Y-43524482D01*
X85610498Y-43644180D01*
X85669463Y-43754494D01*
X85748815Y-43851185D01*
X85845506Y-43930537D01*
X85955820Y-43989502D01*
X86075518Y-44025812D01*
X86200000Y-44038072D01*
X87164250Y-44035000D01*
X87323000Y-43876250D01*
X87323000Y-42277000D01*
X87577000Y-42277000D01*
X87577000Y-43876250D01*
X87735750Y-44035000D01*
X88700000Y-44038072D01*
X88824482Y-44025812D01*
X88944180Y-43989502D01*
X89054494Y-43930537D01*
X89151185Y-43851185D01*
X89230537Y-43754494D01*
X89289502Y-43644180D01*
X89325812Y-43524482D01*
X89338072Y-43400000D01*
X89335000Y-42435750D01*
X89176250Y-42277000D01*
X87577000Y-42277000D01*
X87323000Y-42277000D01*
X85723750Y-42277000D01*
X85565000Y-42435750D01*
X85561928Y-43400000D01*
X77127000Y-43400000D01*
X77127000Y-40900000D01*
X85561928Y-40900000D01*
X85565000Y-41864250D01*
X85723750Y-42023000D01*
X87323000Y-42023000D01*
X87323000Y-40423750D01*
X87577000Y-40423750D01*
X87577000Y-42023000D01*
X89176250Y-42023000D01*
X89335000Y-41864250D01*
X89338072Y-40900000D01*
X89325812Y-40775518D01*
X89289502Y-40655820D01*
X89230537Y-40545506D01*
X89151185Y-40448815D01*
X89054494Y-40369463D01*
X88944180Y-40310498D01*
X88824482Y-40274188D01*
X88700000Y-40261928D01*
X87735750Y-40265000D01*
X87577000Y-40423750D01*
X87323000Y-40423750D01*
X87164250Y-40265000D01*
X86200000Y-40261928D01*
X86075518Y-40274188D01*
X85955820Y-40310498D01*
X85845506Y-40369463D01*
X85748815Y-40448815D01*
X85669463Y-40545506D01*
X85610498Y-40655820D01*
X85574188Y-40775518D01*
X85561928Y-40900000D01*
X77127000Y-40900000D01*
X77127000Y-32250000D01*
X77979427Y-32250000D01*
X77991687Y-32374482D01*
X78027997Y-32494180D01*
X78086962Y-32604494D01*
X78166314Y-32701185D01*
X78263005Y-32780537D01*
X78373319Y-32839502D01*
X78493017Y-32875812D01*
X78617499Y-32888072D01*
X78731749Y-32885000D01*
X78890499Y-32726250D01*
X78890499Y-31377000D01*
X79144499Y-31377000D01*
X79144499Y-32726250D01*
X79303249Y-32885000D01*
X79417499Y-32888072D01*
X79541981Y-32875812D01*
X79661679Y-32839502D01*
X79771993Y-32780537D01*
X79868684Y-32701185D01*
X79948036Y-32604494D01*
X80007001Y-32494180D01*
X80043311Y-32374482D01*
X80055571Y-32250000D01*
X80052499Y-31535750D01*
X79893749Y-31377000D01*
X79144499Y-31377000D01*
X78890499Y-31377000D01*
X78141249Y-31377000D01*
X77982499Y-31535750D01*
X77979427Y-32250000D01*
X77127000Y-32250000D01*
X77127000Y-30250000D01*
X77979427Y-30250000D01*
X77982499Y-30964250D01*
X78141249Y-31123000D01*
X78890499Y-31123000D01*
X78890499Y-29773750D01*
X79144499Y-29773750D01*
X79144499Y-31123000D01*
X79893749Y-31123000D01*
X80052499Y-30964250D01*
X80055571Y-30250000D01*
X80043311Y-30125518D01*
X80007001Y-30005820D01*
X79948036Y-29895506D01*
X79868684Y-29798815D01*
X79771993Y-29719463D01*
X79661679Y-29660498D01*
X79541981Y-29624188D01*
X79417499Y-29611928D01*
X79303249Y-29615000D01*
X79144499Y-29773750D01*
X78890499Y-29773750D01*
X78731749Y-29615000D01*
X78617499Y-29611928D01*
X78493017Y-29624188D01*
X78373319Y-29660498D01*
X78263005Y-29719463D01*
X78166314Y-29798815D01*
X78086962Y-29895506D01*
X78027997Y-30005820D01*
X77991687Y-30125518D01*
X77979427Y-30250000D01*
X77127000Y-30250000D01*
X77127000Y-29152000D01*
X92210780Y-29152000D01*
X92188887Y-29169967D01*
G36*
X102913330Y-32785618D02*
G01*
X103055082Y-32828619D01*
X103165562Y-32839500D01*
X103165564Y-32839500D01*
X103202499Y-32843138D01*
X103239435Y-32839500D01*
X103845939Y-32839500D01*
X103935892Y-32949108D01*
X104068302Y-33057774D01*
X104219368Y-33138520D01*
X104383283Y-33188244D01*
X104553750Y-33205033D01*
X105466250Y-33205033D01*
X105636717Y-33188244D01*
X105800632Y-33138520D01*
X105951698Y-33057774D01*
X106084108Y-32949108D01*
X106174061Y-32839500D01*
X109676012Y-32839500D01*
X110698010Y-33861499D01*
X110698010Y-35524358D01*
X110652000Y-35515000D01*
X110377000Y-35515000D01*
X110377000Y-36623000D01*
X110397000Y-36623000D01*
X110397000Y-36877000D01*
X110377000Y-36877000D01*
X110377000Y-36897000D01*
X110123000Y-36897000D01*
X110123000Y-36877000D01*
X108906269Y-36877000D01*
X108781538Y-37067609D01*
X108785409Y-37105282D01*
X108877579Y-37330533D01*
X109011922Y-37533474D01*
X109183275Y-37706307D01*
X109254271Y-37754188D01*
X109103183Y-37878183D01*
X108949851Y-38065017D01*
X108835916Y-38278176D01*
X108765755Y-38509466D01*
X108742064Y-38750000D01*
X108765755Y-38990534D01*
X108835916Y-39221824D01*
X108949851Y-39434983D01*
X109103183Y-39621817D01*
X109104624Y-39623000D01*
X106147854Y-39623000D01*
X106092499Y-39617548D01*
X106037145Y-39623000D01*
X106037135Y-39623000D01*
X105871569Y-39639307D01*
X105659129Y-39703750D01*
X105463343Y-39808400D01*
X105334739Y-39913942D01*
X105334736Y-39913945D01*
X105291735Y-39949235D01*
X105256445Y-39992236D01*
X104751526Y-40497156D01*
X104603283Y-40511756D01*
X104439368Y-40561480D01*
X104288302Y-40642226D01*
X104155892Y-40750892D01*
X104121335Y-40793000D01*
X103840472Y-40793000D01*
X103838853Y-40789972D01*
X103760501Y-40694499D01*
X103665028Y-40616147D01*
X103556103Y-40557925D01*
X103437913Y-40522073D01*
X103315000Y-40509967D01*
X102665000Y-40509967D01*
X102542087Y-40522073D01*
X102528781Y-40526109D01*
X102489482Y-40514188D01*
X102365000Y-40501928D01*
X102325750Y-40505000D01*
X102167000Y-40663750D01*
X102167000Y-40758470D01*
X102141147Y-40789972D01*
X102082925Y-40898897D01*
X102047073Y-41017087D01*
X102040000Y-41088900D01*
X102032927Y-41017087D01*
X101997075Y-40898897D01*
X101938853Y-40789972D01*
X101913000Y-40758470D01*
X101913000Y-40663750D01*
X101754250Y-40505000D01*
X101715000Y-40501928D01*
X101590518Y-40514188D01*
X101551219Y-40526109D01*
X101537913Y-40522073D01*
X101415000Y-40509967D01*
X100765000Y-40509967D01*
X100642087Y-40522073D01*
X100523897Y-40557925D01*
X100414972Y-40616147D01*
X100319499Y-40694499D01*
X100241147Y-40789972D01*
X100182925Y-40898897D01*
X100147073Y-41017087D01*
X100134967Y-41140000D01*
X100134967Y-41252336D01*
X100080537Y-41150506D01*
X100001185Y-41053815D01*
X99904494Y-40974463D01*
X99801311Y-40919310D01*
X99864494Y-40885537D01*
X99961185Y-40806185D01*
X100040537Y-40709494D01*
X100099502Y-40599180D01*
X100135812Y-40479482D01*
X100148072Y-40355000D01*
X100145000Y-40153250D01*
X99986250Y-39994500D01*
X98937000Y-39994500D01*
X98937000Y-40831250D01*
X99055750Y-40950000D01*
X98977000Y-41028750D01*
X98977000Y-41865500D01*
X98997000Y-41865500D01*
X98997000Y-42119500D01*
X98977000Y-42119500D01*
X98977000Y-42139500D01*
X98723000Y-42139500D01*
X98723000Y-42119500D01*
X98703000Y-42119500D01*
X98703000Y-41865500D01*
X98723000Y-41865500D01*
X98723000Y-41028750D01*
X98604250Y-40910000D01*
X98683000Y-40831250D01*
X98683000Y-39994500D01*
X98663000Y-39994500D01*
X98663000Y-39740500D01*
X98683000Y-39740500D01*
X98683000Y-39720500D01*
X98937000Y-39720500D01*
X98937000Y-39740500D01*
X99986250Y-39740500D01*
X100145000Y-39581750D01*
X100148072Y-39380000D01*
X100135812Y-39255518D01*
X100099502Y-39135820D01*
X100040537Y-39025506D01*
X99961185Y-38928815D01*
X99888909Y-38869500D01*
X99967308Y-38869500D01*
X100018897Y-38897075D01*
X100137087Y-38932927D01*
X100260000Y-38945033D01*
X101320000Y-38945033D01*
X101442913Y-38932927D01*
X101561103Y-38897075D01*
X101670028Y-38838853D01*
X101765501Y-38760501D01*
X101813545Y-38701958D01*
X101859170Y-38688118D01*
X101928641Y-38650985D01*
X101936147Y-38665028D01*
X102014499Y-38760501D01*
X102109972Y-38838853D01*
X102218897Y-38897075D01*
X102337087Y-38932927D01*
X102460000Y-38945033D01*
X103520000Y-38945033D01*
X103642913Y-38932927D01*
X103761103Y-38897075D01*
X103840755Y-38854500D01*
X104464647Y-38854500D01*
X104578302Y-38947774D01*
X104729368Y-39028520D01*
X104893283Y-39078244D01*
X105063750Y-39095033D01*
X105976250Y-39095033D01*
X106146717Y-39078244D01*
X106310632Y-39028520D01*
X106461698Y-38947774D01*
X106594108Y-38839108D01*
X106702774Y-38706698D01*
X106783520Y-38555632D01*
X106833244Y-38391717D01*
X106850033Y-38221250D01*
X106850033Y-37733750D01*
X106833244Y-37563283D01*
X106783520Y-37399368D01*
X106702774Y-37248302D01*
X106594108Y-37115892D01*
X106501633Y-37040000D01*
X106594108Y-36964108D01*
X106702774Y-36831698D01*
X106783520Y-36680632D01*
X106833244Y-36516717D01*
X106841549Y-36432391D01*
X108781538Y-36432391D01*
X108906269Y-36623000D01*
X110123000Y-36623000D01*
X110123000Y-35515000D01*
X109848000Y-35515000D01*
X109609504Y-35563507D01*
X109385054Y-35657610D01*
X109183275Y-35793693D01*
X109011922Y-35966526D01*
X108877579Y-36169467D01*
X108785409Y-36394718D01*
X108781538Y-36432391D01*
X106841549Y-36432391D01*
X106850033Y-36346250D01*
X106850033Y-35858750D01*
X106833244Y-35688283D01*
X106783520Y-35524368D01*
X106702774Y-35373302D01*
X106594108Y-35240892D01*
X106461698Y-35132226D01*
X106310632Y-35051480D01*
X106146717Y-35001756D01*
X105976250Y-34984967D01*
X105063750Y-34984967D01*
X104893283Y-35001756D01*
X104729368Y-35051480D01*
X104578302Y-35132226D01*
X104464647Y-35225500D01*
X103840755Y-35225500D01*
X103761103Y-35182925D01*
X103642913Y-35147073D01*
X103520000Y-35134967D01*
X102460000Y-35134967D01*
X102337087Y-35147073D01*
X102218897Y-35182925D01*
X102109972Y-35241147D01*
X102014499Y-35319499D01*
X101936147Y-35414972D01*
X101890000Y-35501306D01*
X101856546Y-35438719D01*
X102604668Y-34690597D01*
X102638132Y-34663134D01*
X102747726Y-34529593D01*
X102829161Y-34377238D01*
X102879309Y-34211923D01*
X102891999Y-34083080D01*
X102891999Y-34083071D01*
X102896241Y-34040002D01*
X102891999Y-33996932D01*
X102891999Y-32774216D01*
X102913330Y-32785618D01*
X102913330Y-32785618D01*
G37*
X102913330Y-32785618D02*
X103055082Y-32828619D01*
X103165562Y-32839500D01*
X103165564Y-32839500D01*
X103202499Y-32843138D01*
X103239435Y-32839500D01*
X103845939Y-32839500D01*
X103935892Y-32949108D01*
X104068302Y-33057774D01*
X104219368Y-33138520D01*
X104383283Y-33188244D01*
X104553750Y-33205033D01*
X105466250Y-33205033D01*
X105636717Y-33188244D01*
X105800632Y-33138520D01*
X105951698Y-33057774D01*
X106084108Y-32949108D01*
X106174061Y-32839500D01*
X109676012Y-32839500D01*
X110698010Y-33861499D01*
X110698010Y-35524358D01*
X110652000Y-35515000D01*
X110377000Y-35515000D01*
X110377000Y-36623000D01*
X110397000Y-36623000D01*
X110397000Y-36877000D01*
X110377000Y-36877000D01*
X110377000Y-36897000D01*
X110123000Y-36897000D01*
X110123000Y-36877000D01*
X108906269Y-36877000D01*
X108781538Y-37067609D01*
X108785409Y-37105282D01*
X108877579Y-37330533D01*
X109011922Y-37533474D01*
X109183275Y-37706307D01*
X109254271Y-37754188D01*
X109103183Y-37878183D01*
X108949851Y-38065017D01*
X108835916Y-38278176D01*
X108765755Y-38509466D01*
X108742064Y-38750000D01*
X108765755Y-38990534D01*
X108835916Y-39221824D01*
X108949851Y-39434983D01*
X109103183Y-39621817D01*
X109104624Y-39623000D01*
X106147854Y-39623000D01*
X106092499Y-39617548D01*
X106037145Y-39623000D01*
X106037135Y-39623000D01*
X105871569Y-39639307D01*
X105659129Y-39703750D01*
X105463343Y-39808400D01*
X105334739Y-39913942D01*
X105334736Y-39913945D01*
X105291735Y-39949235D01*
X105256445Y-39992236D01*
X104751526Y-40497156D01*
X104603283Y-40511756D01*
X104439368Y-40561480D01*
X104288302Y-40642226D01*
X104155892Y-40750892D01*
X104121335Y-40793000D01*
X103840472Y-40793000D01*
X103838853Y-40789972D01*
X103760501Y-40694499D01*
X103665028Y-40616147D01*
X103556103Y-40557925D01*
X103437913Y-40522073D01*
X103315000Y-40509967D01*
X102665000Y-40509967D01*
X102542087Y-40522073D01*
X102528781Y-40526109D01*
X102489482Y-40514188D01*
X102365000Y-40501928D01*
X102325750Y-40505000D01*
X102167000Y-40663750D01*
X102167000Y-40758470D01*
X102141147Y-40789972D01*
X102082925Y-40898897D01*
X102047073Y-41017087D01*
X102040000Y-41088900D01*
X102032927Y-41017087D01*
X101997075Y-40898897D01*
X101938853Y-40789972D01*
X101913000Y-40758470D01*
X101913000Y-40663750D01*
X101754250Y-40505000D01*
X101715000Y-40501928D01*
X101590518Y-40514188D01*
X101551219Y-40526109D01*
X101537913Y-40522073D01*
X101415000Y-40509967D01*
X100765000Y-40509967D01*
X100642087Y-40522073D01*
X100523897Y-40557925D01*
X100414972Y-40616147D01*
X100319499Y-40694499D01*
X100241147Y-40789972D01*
X100182925Y-40898897D01*
X100147073Y-41017087D01*
X100134967Y-41140000D01*
X100134967Y-41252336D01*
X100080537Y-41150506D01*
X100001185Y-41053815D01*
X99904494Y-40974463D01*
X99801311Y-40919310D01*
X99864494Y-40885537D01*
X99961185Y-40806185D01*
X100040537Y-40709494D01*
X100099502Y-40599180D01*
X100135812Y-40479482D01*
X100148072Y-40355000D01*
X100145000Y-40153250D01*
X99986250Y-39994500D01*
X98937000Y-39994500D01*
X98937000Y-40831250D01*
X99055750Y-40950000D01*
X98977000Y-41028750D01*
X98977000Y-41865500D01*
X98997000Y-41865500D01*
X98997000Y-42119500D01*
X98977000Y-42119500D01*
X98977000Y-42139500D01*
X98723000Y-42139500D01*
X98723000Y-42119500D01*
X98703000Y-42119500D01*
X98703000Y-41865500D01*
X98723000Y-41865500D01*
X98723000Y-41028750D01*
X98604250Y-40910000D01*
X98683000Y-40831250D01*
X98683000Y-39994500D01*
X98663000Y-39994500D01*
X98663000Y-39740500D01*
X98683000Y-39740500D01*
X98683000Y-39720500D01*
X98937000Y-39720500D01*
X98937000Y-39740500D01*
X99986250Y-39740500D01*
X100145000Y-39581750D01*
X100148072Y-39380000D01*
X100135812Y-39255518D01*
X100099502Y-39135820D01*
X100040537Y-39025506D01*
X99961185Y-38928815D01*
X99888909Y-38869500D01*
X99967308Y-38869500D01*
X100018897Y-38897075D01*
X100137087Y-38932927D01*
X100260000Y-38945033D01*
X101320000Y-38945033D01*
X101442913Y-38932927D01*
X101561103Y-38897075D01*
X101670028Y-38838853D01*
X101765501Y-38760501D01*
X101813545Y-38701958D01*
X101859170Y-38688118D01*
X101928641Y-38650985D01*
X101936147Y-38665028D01*
X102014499Y-38760501D01*
X102109972Y-38838853D01*
X102218897Y-38897075D01*
X102337087Y-38932927D01*
X102460000Y-38945033D01*
X103520000Y-38945033D01*
X103642913Y-38932927D01*
X103761103Y-38897075D01*
X103840755Y-38854500D01*
X104464647Y-38854500D01*
X104578302Y-38947774D01*
X104729368Y-39028520D01*
X104893283Y-39078244D01*
X105063750Y-39095033D01*
X105976250Y-39095033D01*
X106146717Y-39078244D01*
X106310632Y-39028520D01*
X106461698Y-38947774D01*
X106594108Y-38839108D01*
X106702774Y-38706698D01*
X106783520Y-38555632D01*
X106833244Y-38391717D01*
X106850033Y-38221250D01*
X106850033Y-37733750D01*
X106833244Y-37563283D01*
X106783520Y-37399368D01*
X106702774Y-37248302D01*
X106594108Y-37115892D01*
X106501633Y-37040000D01*
X106594108Y-36964108D01*
X106702774Y-36831698D01*
X106783520Y-36680632D01*
X106833244Y-36516717D01*
X106841549Y-36432391D01*
X108781538Y-36432391D01*
X108906269Y-36623000D01*
X110123000Y-36623000D01*
X110123000Y-35515000D01*
X109848000Y-35515000D01*
X109609504Y-35563507D01*
X109385054Y-35657610D01*
X109183275Y-35793693D01*
X109011922Y-35966526D01*
X108877579Y-36169467D01*
X108785409Y-36394718D01*
X108781538Y-36432391D01*
X106841549Y-36432391D01*
X106850033Y-36346250D01*
X106850033Y-35858750D01*
X106833244Y-35688283D01*
X106783520Y-35524368D01*
X106702774Y-35373302D01*
X106594108Y-35240892D01*
X106461698Y-35132226D01*
X106310632Y-35051480D01*
X106146717Y-35001756D01*
X105976250Y-34984967D01*
X105063750Y-34984967D01*
X104893283Y-35001756D01*
X104729368Y-35051480D01*
X104578302Y-35132226D01*
X104464647Y-35225500D01*
X103840755Y-35225500D01*
X103761103Y-35182925D01*
X103642913Y-35147073D01*
X103520000Y-35134967D01*
X102460000Y-35134967D01*
X102337087Y-35147073D01*
X102218897Y-35182925D01*
X102109972Y-35241147D01*
X102014499Y-35319499D01*
X101936147Y-35414972D01*
X101890000Y-35501306D01*
X101856546Y-35438719D01*
X102604668Y-34690597D01*
X102638132Y-34663134D01*
X102747726Y-34529593D01*
X102829161Y-34377238D01*
X102879309Y-34211923D01*
X102891999Y-34083080D01*
X102891999Y-34083071D01*
X102896241Y-34040002D01*
X102891999Y-33996932D01*
X102891999Y-32774216D01*
X102913330Y-32785618D01*
G36*
X97846644Y-37040000D02*
G01*
X97836980Y-37047931D01*
X97836980Y-37032069D01*
X97846644Y-37040000D01*
X97846644Y-37040000D01*
G37*
X97846644Y-37040000D02*
X97836980Y-37047931D01*
X97836980Y-37032069D01*
X97846644Y-37040000D01*
G36*
X94332499Y-30964250D02*
G01*
X94491249Y-31123000D01*
X95240499Y-31123000D01*
X95240499Y-31103000D01*
X95494499Y-31103000D01*
X95494499Y-31123000D01*
X95514499Y-31123000D01*
X95514499Y-31377000D01*
X95494499Y-31377000D01*
X95494499Y-32726250D01*
X95653249Y-32885000D01*
X95767499Y-32888072D01*
X95891981Y-32875812D01*
X96011679Y-32839502D01*
X96070840Y-32807879D01*
X96082981Y-32826049D01*
X96082980Y-35700500D01*
X95305353Y-35700500D01*
X95231633Y-35640000D01*
X95324108Y-35564108D01*
X95432774Y-35431698D01*
X95513520Y-35280632D01*
X95563244Y-35116717D01*
X95580033Y-34946250D01*
X95580033Y-34458750D01*
X95563244Y-34288283D01*
X95513520Y-34124368D01*
X95432774Y-33973302D01*
X95324108Y-33840892D01*
X95191698Y-33732226D01*
X95040632Y-33651480D01*
X94876717Y-33601756D01*
X94706250Y-33584967D01*
X94195956Y-33584967D01*
X93305367Y-32694379D01*
X93281817Y-32665683D01*
X93167310Y-32571710D01*
X93036670Y-32501882D01*
X92894918Y-32458881D01*
X92784438Y-32448000D01*
X92784435Y-32448000D01*
X92747500Y-32444362D01*
X92710565Y-32448000D01*
X92091396Y-32448000D01*
X92134350Y-32367640D01*
X92170035Y-32250000D01*
X94329427Y-32250000D01*
X94341687Y-32374482D01*
X94377997Y-32494180D01*
X94436962Y-32604494D01*
X94516314Y-32701185D01*
X94613005Y-32780537D01*
X94723319Y-32839502D01*
X94843017Y-32875812D01*
X94967499Y-32888072D01*
X95081749Y-32885000D01*
X95240499Y-32726250D01*
X95240499Y-31377000D01*
X94491249Y-31377000D01*
X94332499Y-31535750D01*
X94329427Y-32250000D01*
X92170035Y-32250000D01*
X92181583Y-32211931D01*
X92197532Y-32050000D01*
X92197532Y-31283455D01*
X92978988Y-30502000D01*
X94330511Y-30502000D01*
X94332499Y-30964250D01*
X94332499Y-30964250D01*
G37*
X94332499Y-30964250D02*
X94491249Y-31123000D01*
X95240499Y-31123000D01*
X95240499Y-31103000D01*
X95494499Y-31103000D01*
X95494499Y-31123000D01*
X95514499Y-31123000D01*
X95514499Y-31377000D01*
X95494499Y-31377000D01*
X95494499Y-32726250D01*
X95653249Y-32885000D01*
X95767499Y-32888072D01*
X95891981Y-32875812D01*
X96011679Y-32839502D01*
X96070840Y-32807879D01*
X96082981Y-32826049D01*
X96082980Y-35700500D01*
X95305353Y-35700500D01*
X95231633Y-35640000D01*
X95324108Y-35564108D01*
X95432774Y-35431698D01*
X95513520Y-35280632D01*
X95563244Y-35116717D01*
X95580033Y-34946250D01*
X95580033Y-34458750D01*
X95563244Y-34288283D01*
X95513520Y-34124368D01*
X95432774Y-33973302D01*
X95324108Y-33840892D01*
X95191698Y-33732226D01*
X95040632Y-33651480D01*
X94876717Y-33601756D01*
X94706250Y-33584967D01*
X94195956Y-33584967D01*
X93305367Y-32694379D01*
X93281817Y-32665683D01*
X93167310Y-32571710D01*
X93036670Y-32501882D01*
X92894918Y-32458881D01*
X92784438Y-32448000D01*
X92784435Y-32448000D01*
X92747500Y-32444362D01*
X92710565Y-32448000D01*
X92091396Y-32448000D01*
X92134350Y-32367640D01*
X92170035Y-32250000D01*
X94329427Y-32250000D01*
X94341687Y-32374482D01*
X94377997Y-32494180D01*
X94436962Y-32604494D01*
X94516314Y-32701185D01*
X94613005Y-32780537D01*
X94723319Y-32839502D01*
X94843017Y-32875812D01*
X94967499Y-32888072D01*
X95081749Y-32885000D01*
X95240499Y-32726250D01*
X95240499Y-31377000D01*
X94491249Y-31377000D01*
X94332499Y-31535750D01*
X94329427Y-32250000D01*
X92170035Y-32250000D01*
X92181583Y-32211931D01*
X92197532Y-32050000D01*
X92197532Y-31283455D01*
X92978988Y-30502000D01*
X94330511Y-30502000D01*
X94332499Y-30964250D01*
G36*
X100019499Y-32945501D02*
G01*
X100114972Y-33023853D01*
X100223897Y-33082075D01*
X100342087Y-33117927D01*
X100465000Y-33130033D01*
X101137999Y-33130033D01*
X101137999Y-33676736D01*
X100200327Y-34614408D01*
X100166868Y-34641867D01*
X100147545Y-34665412D01*
X100145000Y-34498250D01*
X99986250Y-34339500D01*
X98937000Y-34339500D01*
X98937000Y-34359500D01*
X98683000Y-34359500D01*
X98683000Y-34339500D01*
X98663000Y-34339500D01*
X98663000Y-34085500D01*
X98683000Y-34085500D01*
X98683000Y-34065500D01*
X98937000Y-34065500D01*
X98937000Y-34085500D01*
X99986250Y-34085500D01*
X100145000Y-33926750D01*
X100148072Y-33725000D01*
X100135812Y-33600518D01*
X100099502Y-33480820D01*
X100040537Y-33370506D01*
X99961185Y-33273815D01*
X99864494Y-33194463D01*
X99754180Y-33135498D01*
X99666211Y-33108813D01*
X99761698Y-33057774D01*
X99894108Y-32949108D01*
X99958284Y-32870909D01*
X100019499Y-32945501D01*
X100019499Y-32945501D01*
G37*
X100019499Y-32945501D02*
X100114972Y-33023853D01*
X100223897Y-33082075D01*
X100342087Y-33117927D01*
X100465000Y-33130033D01*
X101137999Y-33130033D01*
X101137999Y-33676736D01*
X100200327Y-34614408D01*
X100166868Y-34641867D01*
X100147545Y-34665412D01*
X100145000Y-34498250D01*
X99986250Y-34339500D01*
X98937000Y-34339500D01*
X98937000Y-34359500D01*
X98683000Y-34359500D01*
X98683000Y-34339500D01*
X98663000Y-34339500D01*
X98663000Y-34085500D01*
X98683000Y-34085500D01*
X98683000Y-34065500D01*
X98937000Y-34065500D01*
X98937000Y-34085500D01*
X99986250Y-34085500D01*
X100145000Y-33926750D01*
X100148072Y-33725000D01*
X100135812Y-33600518D01*
X100099502Y-33480820D01*
X100040537Y-33370506D01*
X99961185Y-33273815D01*
X99864494Y-33194463D01*
X99754180Y-33135498D01*
X99666211Y-33108813D01*
X99761698Y-33057774D01*
X99894108Y-32949108D01*
X99958284Y-32870909D01*
X100019499Y-32945501D01*
M02*
