G04 #@! TF.GenerationSoftware,KiCad,Pcbnew,(5.1.2-1)-1*
G04 #@! TF.CreationDate,2019-12-06T14:14:37-08:00*
G04 #@! TF.ProjectId,pixel-stick,70697865-6c2d-4737-9469-636b2e6b6963,rev?*
G04 #@! TF.SameCoordinates,Original*
G04 #@! TF.FileFunction,Copper,L1,Top*
G04 #@! TF.FilePolarity,Positive*
%FSLAX46Y46*%
G04 Gerber Fmt 4.6, Leading zero omitted, Abs format (unit mm)*
G04 Created by KiCad (PCBNEW (5.1.2-1)-1) date 2019-12-06 14:14:37*
%MOMM*%
%LPD*%
G04 APERTURE LIST*
%ADD10C,0.100000*%
%ADD11C,0.975000*%
%ADD12C,2.499360*%
%ADD13R,2.499360X2.499360*%
%ADD14O,1.700000X1.700000*%
%ADD15R,1.700000X1.700000*%
%ADD16R,0.650000X1.060000*%
%ADD17R,1.500000X2.000000*%
%ADD18R,3.800000X2.000000*%
%ADD19C,1.250000*%
%ADD20C,2.500000*%
%ADD21C,0.800000*%
%ADD22C,0.250000*%
%ADD23C,0.500000*%
%ADD24C,1.000000*%
%ADD25C,0.750000*%
%ADD26C,0.254000*%
G04 APERTURE END LIST*
D10*
G36*
X56487142Y-63951174D02*
G01*
X56510803Y-63954684D01*
X56534007Y-63960496D01*
X56556529Y-63968554D01*
X56578153Y-63978782D01*
X56598670Y-63991079D01*
X56617883Y-64005329D01*
X56635607Y-64021393D01*
X56651671Y-64039117D01*
X56665921Y-64058330D01*
X56678218Y-64078847D01*
X56688446Y-64100471D01*
X56696504Y-64122993D01*
X56702316Y-64146197D01*
X56705826Y-64169858D01*
X56707000Y-64193750D01*
X56707000Y-64681250D01*
X56705826Y-64705142D01*
X56702316Y-64728803D01*
X56696504Y-64752007D01*
X56688446Y-64774529D01*
X56678218Y-64796153D01*
X56665921Y-64816670D01*
X56651671Y-64835883D01*
X56635607Y-64853607D01*
X56617883Y-64869671D01*
X56598670Y-64883921D01*
X56578153Y-64896218D01*
X56556529Y-64906446D01*
X56534007Y-64914504D01*
X56510803Y-64920316D01*
X56487142Y-64923826D01*
X56463250Y-64925000D01*
X55550750Y-64925000D01*
X55526858Y-64923826D01*
X55503197Y-64920316D01*
X55479993Y-64914504D01*
X55457471Y-64906446D01*
X55435847Y-64896218D01*
X55415330Y-64883921D01*
X55396117Y-64869671D01*
X55378393Y-64853607D01*
X55362329Y-64835883D01*
X55348079Y-64816670D01*
X55335782Y-64796153D01*
X55325554Y-64774529D01*
X55317496Y-64752007D01*
X55311684Y-64728803D01*
X55308174Y-64705142D01*
X55307000Y-64681250D01*
X55307000Y-64193750D01*
X55308174Y-64169858D01*
X55311684Y-64146197D01*
X55317496Y-64122993D01*
X55325554Y-64100471D01*
X55335782Y-64078847D01*
X55348079Y-64058330D01*
X55362329Y-64039117D01*
X55378393Y-64021393D01*
X55396117Y-64005329D01*
X55415330Y-63991079D01*
X55435847Y-63978782D01*
X55457471Y-63968554D01*
X55479993Y-63960496D01*
X55503197Y-63954684D01*
X55526858Y-63951174D01*
X55550750Y-63950000D01*
X56463250Y-63950000D01*
X56487142Y-63951174D01*
X56487142Y-63951174D01*
G37*
D11*
X56007000Y-64437500D03*
D10*
G36*
X56487142Y-62076174D02*
G01*
X56510803Y-62079684D01*
X56534007Y-62085496D01*
X56556529Y-62093554D01*
X56578153Y-62103782D01*
X56598670Y-62116079D01*
X56617883Y-62130329D01*
X56635607Y-62146393D01*
X56651671Y-62164117D01*
X56665921Y-62183330D01*
X56678218Y-62203847D01*
X56688446Y-62225471D01*
X56696504Y-62247993D01*
X56702316Y-62271197D01*
X56705826Y-62294858D01*
X56707000Y-62318750D01*
X56707000Y-62806250D01*
X56705826Y-62830142D01*
X56702316Y-62853803D01*
X56696504Y-62877007D01*
X56688446Y-62899529D01*
X56678218Y-62921153D01*
X56665921Y-62941670D01*
X56651671Y-62960883D01*
X56635607Y-62978607D01*
X56617883Y-62994671D01*
X56598670Y-63008921D01*
X56578153Y-63021218D01*
X56556529Y-63031446D01*
X56534007Y-63039504D01*
X56510803Y-63045316D01*
X56487142Y-63048826D01*
X56463250Y-63050000D01*
X55550750Y-63050000D01*
X55526858Y-63048826D01*
X55503197Y-63045316D01*
X55479993Y-63039504D01*
X55457471Y-63031446D01*
X55435847Y-63021218D01*
X55415330Y-63008921D01*
X55396117Y-62994671D01*
X55378393Y-62978607D01*
X55362329Y-62960883D01*
X55348079Y-62941670D01*
X55335782Y-62921153D01*
X55325554Y-62899529D01*
X55317496Y-62877007D01*
X55311684Y-62853803D01*
X55308174Y-62830142D01*
X55307000Y-62806250D01*
X55307000Y-62318750D01*
X55308174Y-62294858D01*
X55311684Y-62271197D01*
X55317496Y-62247993D01*
X55325554Y-62225471D01*
X55335782Y-62203847D01*
X55348079Y-62183330D01*
X55362329Y-62164117D01*
X55378393Y-62146393D01*
X55396117Y-62130329D01*
X55415330Y-62116079D01*
X55435847Y-62103782D01*
X55457471Y-62093554D01*
X55479993Y-62085496D01*
X55503197Y-62079684D01*
X55526858Y-62076174D01*
X55550750Y-62075000D01*
X56463250Y-62075000D01*
X56487142Y-62076174D01*
X56487142Y-62076174D01*
G37*
D11*
X56007000Y-62562500D03*
D10*
G36*
X53947142Y-63902674D02*
G01*
X53970803Y-63906184D01*
X53994007Y-63911996D01*
X54016529Y-63920054D01*
X54038153Y-63930282D01*
X54058670Y-63942579D01*
X54077883Y-63956829D01*
X54095607Y-63972893D01*
X54111671Y-63990617D01*
X54125921Y-64009830D01*
X54138218Y-64030347D01*
X54148446Y-64051971D01*
X54156504Y-64074493D01*
X54162316Y-64097697D01*
X54165826Y-64121358D01*
X54167000Y-64145250D01*
X54167000Y-64632750D01*
X54165826Y-64656642D01*
X54162316Y-64680303D01*
X54156504Y-64703507D01*
X54148446Y-64726029D01*
X54138218Y-64747653D01*
X54125921Y-64768170D01*
X54111671Y-64787383D01*
X54095607Y-64805107D01*
X54077883Y-64821171D01*
X54058670Y-64835421D01*
X54038153Y-64847718D01*
X54016529Y-64857946D01*
X53994007Y-64866004D01*
X53970803Y-64871816D01*
X53947142Y-64875326D01*
X53923250Y-64876500D01*
X53010750Y-64876500D01*
X52986858Y-64875326D01*
X52963197Y-64871816D01*
X52939993Y-64866004D01*
X52917471Y-64857946D01*
X52895847Y-64847718D01*
X52875330Y-64835421D01*
X52856117Y-64821171D01*
X52838393Y-64805107D01*
X52822329Y-64787383D01*
X52808079Y-64768170D01*
X52795782Y-64747653D01*
X52785554Y-64726029D01*
X52777496Y-64703507D01*
X52771684Y-64680303D01*
X52768174Y-64656642D01*
X52767000Y-64632750D01*
X52767000Y-64145250D01*
X52768174Y-64121358D01*
X52771684Y-64097697D01*
X52777496Y-64074493D01*
X52785554Y-64051971D01*
X52795782Y-64030347D01*
X52808079Y-64009830D01*
X52822329Y-63990617D01*
X52838393Y-63972893D01*
X52856117Y-63956829D01*
X52875330Y-63942579D01*
X52895847Y-63930282D01*
X52917471Y-63920054D01*
X52939993Y-63911996D01*
X52963197Y-63906184D01*
X52986858Y-63902674D01*
X53010750Y-63901500D01*
X53923250Y-63901500D01*
X53947142Y-63902674D01*
X53947142Y-63902674D01*
G37*
D11*
X53467000Y-64389000D03*
D10*
G36*
X53947142Y-62027674D02*
G01*
X53970803Y-62031184D01*
X53994007Y-62036996D01*
X54016529Y-62045054D01*
X54038153Y-62055282D01*
X54058670Y-62067579D01*
X54077883Y-62081829D01*
X54095607Y-62097893D01*
X54111671Y-62115617D01*
X54125921Y-62134830D01*
X54138218Y-62155347D01*
X54148446Y-62176971D01*
X54156504Y-62199493D01*
X54162316Y-62222697D01*
X54165826Y-62246358D01*
X54167000Y-62270250D01*
X54167000Y-62757750D01*
X54165826Y-62781642D01*
X54162316Y-62805303D01*
X54156504Y-62828507D01*
X54148446Y-62851029D01*
X54138218Y-62872653D01*
X54125921Y-62893170D01*
X54111671Y-62912383D01*
X54095607Y-62930107D01*
X54077883Y-62946171D01*
X54058670Y-62960421D01*
X54038153Y-62972718D01*
X54016529Y-62982946D01*
X53994007Y-62991004D01*
X53970803Y-62996816D01*
X53947142Y-63000326D01*
X53923250Y-63001500D01*
X53010750Y-63001500D01*
X52986858Y-63000326D01*
X52963197Y-62996816D01*
X52939993Y-62991004D01*
X52917471Y-62982946D01*
X52895847Y-62972718D01*
X52875330Y-62960421D01*
X52856117Y-62946171D01*
X52838393Y-62930107D01*
X52822329Y-62912383D01*
X52808079Y-62893170D01*
X52795782Y-62872653D01*
X52785554Y-62851029D01*
X52777496Y-62828507D01*
X52771684Y-62805303D01*
X52768174Y-62781642D01*
X52767000Y-62757750D01*
X52767000Y-62270250D01*
X52768174Y-62246358D01*
X52771684Y-62222697D01*
X52777496Y-62199493D01*
X52785554Y-62176971D01*
X52795782Y-62155347D01*
X52808079Y-62134830D01*
X52822329Y-62115617D01*
X52838393Y-62097893D01*
X52856117Y-62081829D01*
X52875330Y-62067579D01*
X52895847Y-62055282D01*
X52917471Y-62045054D01*
X52939993Y-62036996D01*
X52963197Y-62031184D01*
X52986858Y-62027674D01*
X53010750Y-62026500D01*
X53923250Y-62026500D01*
X53947142Y-62027674D01*
X53947142Y-62027674D01*
G37*
D11*
X53467000Y-62514000D03*
D12*
X44958000Y-87249000D03*
X48768000Y-87249000D03*
X52578000Y-87249000D03*
D13*
X56388000Y-87249000D03*
D14*
X46990000Y-59055000D03*
X46990000Y-56515000D03*
X49530000Y-59055000D03*
X49530000Y-56515000D03*
X52070000Y-59055000D03*
X52070000Y-56515000D03*
X54610000Y-59055000D03*
D15*
X54610000Y-56515000D03*
D16*
X46035000Y-71374000D03*
X46985000Y-71374000D03*
X45085000Y-71374000D03*
X45085000Y-69174000D03*
X46035000Y-69174000D03*
X46985000Y-69174000D03*
X45974000Y-64346000D03*
X46924000Y-64346000D03*
X45024000Y-64346000D03*
X45024000Y-62146000D03*
X45974000Y-62146000D03*
X46924000Y-62146000D03*
D17*
X52310000Y-74270000D03*
X56910000Y-74270000D03*
X54610000Y-74270000D03*
D18*
X54610000Y-67970000D03*
D10*
G36*
X51153142Y-63902674D02*
G01*
X51176803Y-63906184D01*
X51200007Y-63911996D01*
X51222529Y-63920054D01*
X51244153Y-63930282D01*
X51264670Y-63942579D01*
X51283883Y-63956829D01*
X51301607Y-63972893D01*
X51317671Y-63990617D01*
X51331921Y-64009830D01*
X51344218Y-64030347D01*
X51354446Y-64051971D01*
X51362504Y-64074493D01*
X51368316Y-64097697D01*
X51371826Y-64121358D01*
X51373000Y-64145250D01*
X51373000Y-64632750D01*
X51371826Y-64656642D01*
X51368316Y-64680303D01*
X51362504Y-64703507D01*
X51354446Y-64726029D01*
X51344218Y-64747653D01*
X51331921Y-64768170D01*
X51317671Y-64787383D01*
X51301607Y-64805107D01*
X51283883Y-64821171D01*
X51264670Y-64835421D01*
X51244153Y-64847718D01*
X51222529Y-64857946D01*
X51200007Y-64866004D01*
X51176803Y-64871816D01*
X51153142Y-64875326D01*
X51129250Y-64876500D01*
X50216750Y-64876500D01*
X50192858Y-64875326D01*
X50169197Y-64871816D01*
X50145993Y-64866004D01*
X50123471Y-64857946D01*
X50101847Y-64847718D01*
X50081330Y-64835421D01*
X50062117Y-64821171D01*
X50044393Y-64805107D01*
X50028329Y-64787383D01*
X50014079Y-64768170D01*
X50001782Y-64747653D01*
X49991554Y-64726029D01*
X49983496Y-64703507D01*
X49977684Y-64680303D01*
X49974174Y-64656642D01*
X49973000Y-64632750D01*
X49973000Y-64145250D01*
X49974174Y-64121358D01*
X49977684Y-64097697D01*
X49983496Y-64074493D01*
X49991554Y-64051971D01*
X50001782Y-64030347D01*
X50014079Y-64009830D01*
X50028329Y-63990617D01*
X50044393Y-63972893D01*
X50062117Y-63956829D01*
X50081330Y-63942579D01*
X50101847Y-63930282D01*
X50123471Y-63920054D01*
X50145993Y-63911996D01*
X50169197Y-63906184D01*
X50192858Y-63902674D01*
X50216750Y-63901500D01*
X51129250Y-63901500D01*
X51153142Y-63902674D01*
X51153142Y-63902674D01*
G37*
D11*
X50673000Y-64389000D03*
D10*
G36*
X51153142Y-62027674D02*
G01*
X51176803Y-62031184D01*
X51200007Y-62036996D01*
X51222529Y-62045054D01*
X51244153Y-62055282D01*
X51264670Y-62067579D01*
X51283883Y-62081829D01*
X51301607Y-62097893D01*
X51317671Y-62115617D01*
X51331921Y-62134830D01*
X51344218Y-62155347D01*
X51354446Y-62176971D01*
X51362504Y-62199493D01*
X51368316Y-62222697D01*
X51371826Y-62246358D01*
X51373000Y-62270250D01*
X51373000Y-62757750D01*
X51371826Y-62781642D01*
X51368316Y-62805303D01*
X51362504Y-62828507D01*
X51354446Y-62851029D01*
X51344218Y-62872653D01*
X51331921Y-62893170D01*
X51317671Y-62912383D01*
X51301607Y-62930107D01*
X51283883Y-62946171D01*
X51264670Y-62960421D01*
X51244153Y-62972718D01*
X51222529Y-62982946D01*
X51200007Y-62991004D01*
X51176803Y-62996816D01*
X51153142Y-63000326D01*
X51129250Y-63001500D01*
X50216750Y-63001500D01*
X50192858Y-63000326D01*
X50169197Y-62996816D01*
X50145993Y-62991004D01*
X50123471Y-62982946D01*
X50101847Y-62972718D01*
X50081330Y-62960421D01*
X50062117Y-62946171D01*
X50044393Y-62930107D01*
X50028329Y-62912383D01*
X50014079Y-62893170D01*
X50001782Y-62872653D01*
X49991554Y-62851029D01*
X49983496Y-62828507D01*
X49977684Y-62805303D01*
X49974174Y-62781642D01*
X49973000Y-62757750D01*
X49973000Y-62270250D01*
X49974174Y-62246358D01*
X49977684Y-62222697D01*
X49983496Y-62199493D01*
X49991554Y-62176971D01*
X50001782Y-62155347D01*
X50014079Y-62134830D01*
X50028329Y-62115617D01*
X50044393Y-62097893D01*
X50062117Y-62081829D01*
X50081330Y-62067579D01*
X50101847Y-62055282D01*
X50123471Y-62045054D01*
X50145993Y-62036996D01*
X50169197Y-62031184D01*
X50192858Y-62027674D01*
X50216750Y-62026500D01*
X51129250Y-62026500D01*
X51153142Y-62027674D01*
X51153142Y-62027674D01*
G37*
D11*
X50673000Y-62514000D03*
D10*
G36*
X57164504Y-80526204D02*
G01*
X57188773Y-80529804D01*
X57212571Y-80535765D01*
X57235671Y-80544030D01*
X57257849Y-80554520D01*
X57278893Y-80567133D01*
X57298598Y-80581747D01*
X57316777Y-80598223D01*
X57333253Y-80616402D01*
X57347867Y-80636107D01*
X57360480Y-80657151D01*
X57370970Y-80679329D01*
X57379235Y-80702429D01*
X57385196Y-80726227D01*
X57388796Y-80750496D01*
X57390000Y-80775000D01*
X57390000Y-81525000D01*
X57388796Y-81549504D01*
X57385196Y-81573773D01*
X57379235Y-81597571D01*
X57370970Y-81620671D01*
X57360480Y-81642849D01*
X57347867Y-81663893D01*
X57333253Y-81683598D01*
X57316777Y-81701777D01*
X57298598Y-81718253D01*
X57278893Y-81732867D01*
X57257849Y-81745480D01*
X57235671Y-81755970D01*
X57212571Y-81764235D01*
X57188773Y-81770196D01*
X57164504Y-81773796D01*
X57140000Y-81775000D01*
X55890000Y-81775000D01*
X55865496Y-81773796D01*
X55841227Y-81770196D01*
X55817429Y-81764235D01*
X55794329Y-81755970D01*
X55772151Y-81745480D01*
X55751107Y-81732867D01*
X55731402Y-81718253D01*
X55713223Y-81701777D01*
X55696747Y-81683598D01*
X55682133Y-81663893D01*
X55669520Y-81642849D01*
X55659030Y-81620671D01*
X55650765Y-81597571D01*
X55644804Y-81573773D01*
X55641204Y-81549504D01*
X55640000Y-81525000D01*
X55640000Y-80775000D01*
X55641204Y-80750496D01*
X55644804Y-80726227D01*
X55650765Y-80702429D01*
X55659030Y-80679329D01*
X55669520Y-80657151D01*
X55682133Y-80636107D01*
X55696747Y-80616402D01*
X55713223Y-80598223D01*
X55731402Y-80581747D01*
X55751107Y-80567133D01*
X55772151Y-80554520D01*
X55794329Y-80544030D01*
X55817429Y-80535765D01*
X55841227Y-80529804D01*
X55865496Y-80526204D01*
X55890000Y-80525000D01*
X57140000Y-80525000D01*
X57164504Y-80526204D01*
X57164504Y-80526204D01*
G37*
D19*
X56515000Y-81150000D03*
D10*
G36*
X57164504Y-83326204D02*
G01*
X57188773Y-83329804D01*
X57212571Y-83335765D01*
X57235671Y-83344030D01*
X57257849Y-83354520D01*
X57278893Y-83367133D01*
X57298598Y-83381747D01*
X57316777Y-83398223D01*
X57333253Y-83416402D01*
X57347867Y-83436107D01*
X57360480Y-83457151D01*
X57370970Y-83479329D01*
X57379235Y-83502429D01*
X57385196Y-83526227D01*
X57388796Y-83550496D01*
X57390000Y-83575000D01*
X57390000Y-84325000D01*
X57388796Y-84349504D01*
X57385196Y-84373773D01*
X57379235Y-84397571D01*
X57370970Y-84420671D01*
X57360480Y-84442849D01*
X57347867Y-84463893D01*
X57333253Y-84483598D01*
X57316777Y-84501777D01*
X57298598Y-84518253D01*
X57278893Y-84532867D01*
X57257849Y-84545480D01*
X57235671Y-84555970D01*
X57212571Y-84564235D01*
X57188773Y-84570196D01*
X57164504Y-84573796D01*
X57140000Y-84575000D01*
X55890000Y-84575000D01*
X55865496Y-84573796D01*
X55841227Y-84570196D01*
X55817429Y-84564235D01*
X55794329Y-84555970D01*
X55772151Y-84545480D01*
X55751107Y-84532867D01*
X55731402Y-84518253D01*
X55713223Y-84501777D01*
X55696747Y-84483598D01*
X55682133Y-84463893D01*
X55669520Y-84442849D01*
X55659030Y-84420671D01*
X55650765Y-84397571D01*
X55644804Y-84373773D01*
X55641204Y-84349504D01*
X55640000Y-84325000D01*
X55640000Y-83575000D01*
X55641204Y-83550496D01*
X55644804Y-83526227D01*
X55650765Y-83502429D01*
X55659030Y-83479329D01*
X55669520Y-83457151D01*
X55682133Y-83436107D01*
X55696747Y-83416402D01*
X55713223Y-83398223D01*
X55731402Y-83381747D01*
X55751107Y-83367133D01*
X55772151Y-83354520D01*
X55794329Y-83344030D01*
X55817429Y-83335765D01*
X55841227Y-83329804D01*
X55865496Y-83326204D01*
X55890000Y-83325000D01*
X57140000Y-83325000D01*
X57164504Y-83326204D01*
X57164504Y-83326204D01*
G37*
D19*
X56515000Y-83950000D03*
D10*
G36*
X47744504Y-79396204D02*
G01*
X47768773Y-79399804D01*
X47792571Y-79405765D01*
X47815671Y-79414030D01*
X47837849Y-79424520D01*
X47858893Y-79437133D01*
X47878598Y-79451747D01*
X47896777Y-79468223D01*
X47913253Y-79486402D01*
X47927867Y-79506107D01*
X47940480Y-79527151D01*
X47950970Y-79549329D01*
X47959235Y-79572429D01*
X47965196Y-79596227D01*
X47968796Y-79620496D01*
X47970000Y-79645000D01*
X47970000Y-81645000D01*
X47968796Y-81669504D01*
X47965196Y-81693773D01*
X47959235Y-81717571D01*
X47950970Y-81740671D01*
X47940480Y-81762849D01*
X47927867Y-81783893D01*
X47913253Y-81803598D01*
X47896777Y-81821777D01*
X47878598Y-81838253D01*
X47858893Y-81852867D01*
X47837849Y-81865480D01*
X47815671Y-81875970D01*
X47792571Y-81884235D01*
X47768773Y-81890196D01*
X47744504Y-81893796D01*
X47720000Y-81895000D01*
X44220000Y-81895000D01*
X44195496Y-81893796D01*
X44171227Y-81890196D01*
X44147429Y-81884235D01*
X44124329Y-81875970D01*
X44102151Y-81865480D01*
X44081107Y-81852867D01*
X44061402Y-81838253D01*
X44043223Y-81821777D01*
X44026747Y-81803598D01*
X44012133Y-81783893D01*
X43999520Y-81762849D01*
X43989030Y-81740671D01*
X43980765Y-81717571D01*
X43974804Y-81693773D01*
X43971204Y-81669504D01*
X43970000Y-81645000D01*
X43970000Y-79645000D01*
X43971204Y-79620496D01*
X43974804Y-79596227D01*
X43980765Y-79572429D01*
X43989030Y-79549329D01*
X43999520Y-79527151D01*
X44012133Y-79506107D01*
X44026747Y-79486402D01*
X44043223Y-79468223D01*
X44061402Y-79451747D01*
X44081107Y-79437133D01*
X44102151Y-79424520D01*
X44124329Y-79414030D01*
X44147429Y-79405765D01*
X44171227Y-79399804D01*
X44195496Y-79396204D01*
X44220000Y-79395000D01*
X47720000Y-79395000D01*
X47744504Y-79396204D01*
X47744504Y-79396204D01*
G37*
D20*
X45970000Y-80645000D03*
D10*
G36*
X53844504Y-79396204D02*
G01*
X53868773Y-79399804D01*
X53892571Y-79405765D01*
X53915671Y-79414030D01*
X53937849Y-79424520D01*
X53958893Y-79437133D01*
X53978598Y-79451747D01*
X53996777Y-79468223D01*
X54013253Y-79486402D01*
X54027867Y-79506107D01*
X54040480Y-79527151D01*
X54050970Y-79549329D01*
X54059235Y-79572429D01*
X54065196Y-79596227D01*
X54068796Y-79620496D01*
X54070000Y-79645000D01*
X54070000Y-81645000D01*
X54068796Y-81669504D01*
X54065196Y-81693773D01*
X54059235Y-81717571D01*
X54050970Y-81740671D01*
X54040480Y-81762849D01*
X54027867Y-81783893D01*
X54013253Y-81803598D01*
X53996777Y-81821777D01*
X53978598Y-81838253D01*
X53958893Y-81852867D01*
X53937849Y-81865480D01*
X53915671Y-81875970D01*
X53892571Y-81884235D01*
X53868773Y-81890196D01*
X53844504Y-81893796D01*
X53820000Y-81895000D01*
X50320000Y-81895000D01*
X50295496Y-81893796D01*
X50271227Y-81890196D01*
X50247429Y-81884235D01*
X50224329Y-81875970D01*
X50202151Y-81865480D01*
X50181107Y-81852867D01*
X50161402Y-81838253D01*
X50143223Y-81821777D01*
X50126747Y-81803598D01*
X50112133Y-81783893D01*
X50099520Y-81762849D01*
X50089030Y-81740671D01*
X50080765Y-81717571D01*
X50074804Y-81693773D01*
X50071204Y-81669504D01*
X50070000Y-81645000D01*
X50070000Y-79645000D01*
X50071204Y-79620496D01*
X50074804Y-79596227D01*
X50080765Y-79572429D01*
X50089030Y-79549329D01*
X50099520Y-79527151D01*
X50112133Y-79506107D01*
X50126747Y-79486402D01*
X50143223Y-79468223D01*
X50161402Y-79451747D01*
X50181107Y-79437133D01*
X50202151Y-79424520D01*
X50224329Y-79414030D01*
X50247429Y-79405765D01*
X50271227Y-79399804D01*
X50295496Y-79396204D01*
X50320000Y-79395000D01*
X53820000Y-79395000D01*
X53844504Y-79396204D01*
X53844504Y-79396204D01*
G37*
D20*
X52070000Y-80645000D03*
D10*
G36*
X45382642Y-65849174D02*
G01*
X45406303Y-65852684D01*
X45429507Y-65858496D01*
X45452029Y-65866554D01*
X45473653Y-65876782D01*
X45494170Y-65889079D01*
X45513383Y-65903329D01*
X45531107Y-65919393D01*
X45547171Y-65937117D01*
X45561421Y-65956330D01*
X45573718Y-65976847D01*
X45583946Y-65998471D01*
X45592004Y-66020993D01*
X45597816Y-66044197D01*
X45601326Y-66067858D01*
X45602500Y-66091750D01*
X45602500Y-67004250D01*
X45601326Y-67028142D01*
X45597816Y-67051803D01*
X45592004Y-67075007D01*
X45583946Y-67097529D01*
X45573718Y-67119153D01*
X45561421Y-67139670D01*
X45547171Y-67158883D01*
X45531107Y-67176607D01*
X45513383Y-67192671D01*
X45494170Y-67206921D01*
X45473653Y-67219218D01*
X45452029Y-67229446D01*
X45429507Y-67237504D01*
X45406303Y-67243316D01*
X45382642Y-67246826D01*
X45358750Y-67248000D01*
X44871250Y-67248000D01*
X44847358Y-67246826D01*
X44823697Y-67243316D01*
X44800493Y-67237504D01*
X44777971Y-67229446D01*
X44756347Y-67219218D01*
X44735830Y-67206921D01*
X44716617Y-67192671D01*
X44698893Y-67176607D01*
X44682829Y-67158883D01*
X44668579Y-67139670D01*
X44656282Y-67119153D01*
X44646054Y-67097529D01*
X44637996Y-67075007D01*
X44632184Y-67051803D01*
X44628674Y-67028142D01*
X44627500Y-67004250D01*
X44627500Y-66091750D01*
X44628674Y-66067858D01*
X44632184Y-66044197D01*
X44637996Y-66020993D01*
X44646054Y-65998471D01*
X44656282Y-65976847D01*
X44668579Y-65956330D01*
X44682829Y-65937117D01*
X44698893Y-65919393D01*
X44716617Y-65903329D01*
X44735830Y-65889079D01*
X44756347Y-65876782D01*
X44777971Y-65866554D01*
X44800493Y-65858496D01*
X44823697Y-65852684D01*
X44847358Y-65849174D01*
X44871250Y-65848000D01*
X45358750Y-65848000D01*
X45382642Y-65849174D01*
X45382642Y-65849174D01*
G37*
D11*
X45115000Y-66548000D03*
D10*
G36*
X47257642Y-65849174D02*
G01*
X47281303Y-65852684D01*
X47304507Y-65858496D01*
X47327029Y-65866554D01*
X47348653Y-65876782D01*
X47369170Y-65889079D01*
X47388383Y-65903329D01*
X47406107Y-65919393D01*
X47422171Y-65937117D01*
X47436421Y-65956330D01*
X47448718Y-65976847D01*
X47458946Y-65998471D01*
X47467004Y-66020993D01*
X47472816Y-66044197D01*
X47476326Y-66067858D01*
X47477500Y-66091750D01*
X47477500Y-67004250D01*
X47476326Y-67028142D01*
X47472816Y-67051803D01*
X47467004Y-67075007D01*
X47458946Y-67097529D01*
X47448718Y-67119153D01*
X47436421Y-67139670D01*
X47422171Y-67158883D01*
X47406107Y-67176607D01*
X47388383Y-67192671D01*
X47369170Y-67206921D01*
X47348653Y-67219218D01*
X47327029Y-67229446D01*
X47304507Y-67237504D01*
X47281303Y-67243316D01*
X47257642Y-67246826D01*
X47233750Y-67248000D01*
X46746250Y-67248000D01*
X46722358Y-67246826D01*
X46698697Y-67243316D01*
X46675493Y-67237504D01*
X46652971Y-67229446D01*
X46631347Y-67219218D01*
X46610830Y-67206921D01*
X46591617Y-67192671D01*
X46573893Y-67176607D01*
X46557829Y-67158883D01*
X46543579Y-67139670D01*
X46531282Y-67119153D01*
X46521054Y-67097529D01*
X46512996Y-67075007D01*
X46507184Y-67051803D01*
X46503674Y-67028142D01*
X46502500Y-67004250D01*
X46502500Y-66091750D01*
X46503674Y-66067858D01*
X46507184Y-66044197D01*
X46512996Y-66020993D01*
X46521054Y-65998471D01*
X46531282Y-65976847D01*
X46543579Y-65956330D01*
X46557829Y-65937117D01*
X46573893Y-65919393D01*
X46591617Y-65903329D01*
X46610830Y-65889079D01*
X46631347Y-65876782D01*
X46652971Y-65866554D01*
X46675493Y-65858496D01*
X46698697Y-65852684D01*
X46722358Y-65849174D01*
X46746250Y-65848000D01*
X47233750Y-65848000D01*
X47257642Y-65849174D01*
X47257642Y-65849174D01*
G37*
D11*
X46990000Y-66548000D03*
D10*
G36*
X45382642Y-73215174D02*
G01*
X45406303Y-73218684D01*
X45429507Y-73224496D01*
X45452029Y-73232554D01*
X45473653Y-73242782D01*
X45494170Y-73255079D01*
X45513383Y-73269329D01*
X45531107Y-73285393D01*
X45547171Y-73303117D01*
X45561421Y-73322330D01*
X45573718Y-73342847D01*
X45583946Y-73364471D01*
X45592004Y-73386993D01*
X45597816Y-73410197D01*
X45601326Y-73433858D01*
X45602500Y-73457750D01*
X45602500Y-74370250D01*
X45601326Y-74394142D01*
X45597816Y-74417803D01*
X45592004Y-74441007D01*
X45583946Y-74463529D01*
X45573718Y-74485153D01*
X45561421Y-74505670D01*
X45547171Y-74524883D01*
X45531107Y-74542607D01*
X45513383Y-74558671D01*
X45494170Y-74572921D01*
X45473653Y-74585218D01*
X45452029Y-74595446D01*
X45429507Y-74603504D01*
X45406303Y-74609316D01*
X45382642Y-74612826D01*
X45358750Y-74614000D01*
X44871250Y-74614000D01*
X44847358Y-74612826D01*
X44823697Y-74609316D01*
X44800493Y-74603504D01*
X44777971Y-74595446D01*
X44756347Y-74585218D01*
X44735830Y-74572921D01*
X44716617Y-74558671D01*
X44698893Y-74542607D01*
X44682829Y-74524883D01*
X44668579Y-74505670D01*
X44656282Y-74485153D01*
X44646054Y-74463529D01*
X44637996Y-74441007D01*
X44632184Y-74417803D01*
X44628674Y-74394142D01*
X44627500Y-74370250D01*
X44627500Y-73457750D01*
X44628674Y-73433858D01*
X44632184Y-73410197D01*
X44637996Y-73386993D01*
X44646054Y-73364471D01*
X44656282Y-73342847D01*
X44668579Y-73322330D01*
X44682829Y-73303117D01*
X44698893Y-73285393D01*
X44716617Y-73269329D01*
X44735830Y-73255079D01*
X44756347Y-73242782D01*
X44777971Y-73232554D01*
X44800493Y-73224496D01*
X44823697Y-73218684D01*
X44847358Y-73215174D01*
X44871250Y-73214000D01*
X45358750Y-73214000D01*
X45382642Y-73215174D01*
X45382642Y-73215174D01*
G37*
D11*
X45115000Y-73914000D03*
D10*
G36*
X47257642Y-73215174D02*
G01*
X47281303Y-73218684D01*
X47304507Y-73224496D01*
X47327029Y-73232554D01*
X47348653Y-73242782D01*
X47369170Y-73255079D01*
X47388383Y-73269329D01*
X47406107Y-73285393D01*
X47422171Y-73303117D01*
X47436421Y-73322330D01*
X47448718Y-73342847D01*
X47458946Y-73364471D01*
X47467004Y-73386993D01*
X47472816Y-73410197D01*
X47476326Y-73433858D01*
X47477500Y-73457750D01*
X47477500Y-74370250D01*
X47476326Y-74394142D01*
X47472816Y-74417803D01*
X47467004Y-74441007D01*
X47458946Y-74463529D01*
X47448718Y-74485153D01*
X47436421Y-74505670D01*
X47422171Y-74524883D01*
X47406107Y-74542607D01*
X47388383Y-74558671D01*
X47369170Y-74572921D01*
X47348653Y-74585218D01*
X47327029Y-74595446D01*
X47304507Y-74603504D01*
X47281303Y-74609316D01*
X47257642Y-74612826D01*
X47233750Y-74614000D01*
X46746250Y-74614000D01*
X46722358Y-74612826D01*
X46698697Y-74609316D01*
X46675493Y-74603504D01*
X46652971Y-74595446D01*
X46631347Y-74585218D01*
X46610830Y-74572921D01*
X46591617Y-74558671D01*
X46573893Y-74542607D01*
X46557829Y-74524883D01*
X46543579Y-74505670D01*
X46531282Y-74485153D01*
X46521054Y-74463529D01*
X46512996Y-74441007D01*
X46507184Y-74417803D01*
X46503674Y-74394142D01*
X46502500Y-74370250D01*
X46502500Y-73457750D01*
X46503674Y-73433858D01*
X46507184Y-73410197D01*
X46512996Y-73386993D01*
X46521054Y-73364471D01*
X46531282Y-73342847D01*
X46543579Y-73322330D01*
X46557829Y-73303117D01*
X46573893Y-73285393D01*
X46591617Y-73269329D01*
X46610830Y-73255079D01*
X46631347Y-73242782D01*
X46652971Y-73232554D01*
X46675493Y-73224496D01*
X46698697Y-73218684D01*
X46722358Y-73215174D01*
X46746250Y-73214000D01*
X47233750Y-73214000D01*
X47257642Y-73215174D01*
X47257642Y-73215174D01*
G37*
D11*
X46990000Y-73914000D03*
D10*
G36*
X49883142Y-71619674D02*
G01*
X49906803Y-71623184D01*
X49930007Y-71628996D01*
X49952529Y-71637054D01*
X49974153Y-71647282D01*
X49994670Y-71659579D01*
X50013883Y-71673829D01*
X50031607Y-71689893D01*
X50047671Y-71707617D01*
X50061921Y-71726830D01*
X50074218Y-71747347D01*
X50084446Y-71768971D01*
X50092504Y-71791493D01*
X50098316Y-71814697D01*
X50101826Y-71838358D01*
X50103000Y-71862250D01*
X50103000Y-72349750D01*
X50101826Y-72373642D01*
X50098316Y-72397303D01*
X50092504Y-72420507D01*
X50084446Y-72443029D01*
X50074218Y-72464653D01*
X50061921Y-72485170D01*
X50047671Y-72504383D01*
X50031607Y-72522107D01*
X50013883Y-72538171D01*
X49994670Y-72552421D01*
X49974153Y-72564718D01*
X49952529Y-72574946D01*
X49930007Y-72583004D01*
X49906803Y-72588816D01*
X49883142Y-72592326D01*
X49859250Y-72593500D01*
X48946750Y-72593500D01*
X48922858Y-72592326D01*
X48899197Y-72588816D01*
X48875993Y-72583004D01*
X48853471Y-72574946D01*
X48831847Y-72564718D01*
X48811330Y-72552421D01*
X48792117Y-72538171D01*
X48774393Y-72522107D01*
X48758329Y-72504383D01*
X48744079Y-72485170D01*
X48731782Y-72464653D01*
X48721554Y-72443029D01*
X48713496Y-72420507D01*
X48707684Y-72397303D01*
X48704174Y-72373642D01*
X48703000Y-72349750D01*
X48703000Y-71862250D01*
X48704174Y-71838358D01*
X48707684Y-71814697D01*
X48713496Y-71791493D01*
X48721554Y-71768971D01*
X48731782Y-71747347D01*
X48744079Y-71726830D01*
X48758329Y-71707617D01*
X48774393Y-71689893D01*
X48792117Y-71673829D01*
X48811330Y-71659579D01*
X48831847Y-71647282D01*
X48853471Y-71637054D01*
X48875993Y-71628996D01*
X48899197Y-71623184D01*
X48922858Y-71619674D01*
X48946750Y-71618500D01*
X49859250Y-71618500D01*
X49883142Y-71619674D01*
X49883142Y-71619674D01*
G37*
D11*
X49403000Y-72106000D03*
D10*
G36*
X49883142Y-69744674D02*
G01*
X49906803Y-69748184D01*
X49930007Y-69753996D01*
X49952529Y-69762054D01*
X49974153Y-69772282D01*
X49994670Y-69784579D01*
X50013883Y-69798829D01*
X50031607Y-69814893D01*
X50047671Y-69832617D01*
X50061921Y-69851830D01*
X50074218Y-69872347D01*
X50084446Y-69893971D01*
X50092504Y-69916493D01*
X50098316Y-69939697D01*
X50101826Y-69963358D01*
X50103000Y-69987250D01*
X50103000Y-70474750D01*
X50101826Y-70498642D01*
X50098316Y-70522303D01*
X50092504Y-70545507D01*
X50084446Y-70568029D01*
X50074218Y-70589653D01*
X50061921Y-70610170D01*
X50047671Y-70629383D01*
X50031607Y-70647107D01*
X50013883Y-70663171D01*
X49994670Y-70677421D01*
X49974153Y-70689718D01*
X49952529Y-70699946D01*
X49930007Y-70708004D01*
X49906803Y-70713816D01*
X49883142Y-70717326D01*
X49859250Y-70718500D01*
X48946750Y-70718500D01*
X48922858Y-70717326D01*
X48899197Y-70713816D01*
X48875993Y-70708004D01*
X48853471Y-70699946D01*
X48831847Y-70689718D01*
X48811330Y-70677421D01*
X48792117Y-70663171D01*
X48774393Y-70647107D01*
X48758329Y-70629383D01*
X48744079Y-70610170D01*
X48731782Y-70589653D01*
X48721554Y-70568029D01*
X48713496Y-70545507D01*
X48707684Y-70522303D01*
X48704174Y-70498642D01*
X48703000Y-70474750D01*
X48703000Y-69987250D01*
X48704174Y-69963358D01*
X48707684Y-69939697D01*
X48713496Y-69916493D01*
X48721554Y-69893971D01*
X48731782Y-69872347D01*
X48744079Y-69851830D01*
X48758329Y-69832617D01*
X48774393Y-69814893D01*
X48792117Y-69798829D01*
X48811330Y-69784579D01*
X48831847Y-69772282D01*
X48853471Y-69762054D01*
X48875993Y-69753996D01*
X48899197Y-69748184D01*
X48922858Y-69744674D01*
X48946750Y-69743500D01*
X49859250Y-69743500D01*
X49883142Y-69744674D01*
X49883142Y-69744674D01*
G37*
D11*
X49403000Y-70231000D03*
D10*
G36*
X55210142Y-76771174D02*
G01*
X55233803Y-76774684D01*
X55257007Y-76780496D01*
X55279529Y-76788554D01*
X55301153Y-76798782D01*
X55321670Y-76811079D01*
X55340883Y-76825329D01*
X55358607Y-76841393D01*
X55374671Y-76859117D01*
X55388921Y-76878330D01*
X55401218Y-76898847D01*
X55411446Y-76920471D01*
X55419504Y-76942993D01*
X55425316Y-76966197D01*
X55428826Y-76989858D01*
X55430000Y-77013750D01*
X55430000Y-77926250D01*
X55428826Y-77950142D01*
X55425316Y-77973803D01*
X55419504Y-77997007D01*
X55411446Y-78019529D01*
X55401218Y-78041153D01*
X55388921Y-78061670D01*
X55374671Y-78080883D01*
X55358607Y-78098607D01*
X55340883Y-78114671D01*
X55321670Y-78128921D01*
X55301153Y-78141218D01*
X55279529Y-78151446D01*
X55257007Y-78159504D01*
X55233803Y-78165316D01*
X55210142Y-78168826D01*
X55186250Y-78170000D01*
X54698750Y-78170000D01*
X54674858Y-78168826D01*
X54651197Y-78165316D01*
X54627993Y-78159504D01*
X54605471Y-78151446D01*
X54583847Y-78141218D01*
X54563330Y-78128921D01*
X54544117Y-78114671D01*
X54526393Y-78098607D01*
X54510329Y-78080883D01*
X54496079Y-78061670D01*
X54483782Y-78041153D01*
X54473554Y-78019529D01*
X54465496Y-77997007D01*
X54459684Y-77973803D01*
X54456174Y-77950142D01*
X54455000Y-77926250D01*
X54455000Y-77013750D01*
X54456174Y-76989858D01*
X54459684Y-76966197D01*
X54465496Y-76942993D01*
X54473554Y-76920471D01*
X54483782Y-76898847D01*
X54496079Y-76878330D01*
X54510329Y-76859117D01*
X54526393Y-76841393D01*
X54544117Y-76825329D01*
X54563330Y-76811079D01*
X54583847Y-76798782D01*
X54605471Y-76788554D01*
X54627993Y-76780496D01*
X54651197Y-76774684D01*
X54674858Y-76771174D01*
X54698750Y-76770000D01*
X55186250Y-76770000D01*
X55210142Y-76771174D01*
X55210142Y-76771174D01*
G37*
D11*
X54942500Y-77470000D03*
D10*
G36*
X57085142Y-76771174D02*
G01*
X57108803Y-76774684D01*
X57132007Y-76780496D01*
X57154529Y-76788554D01*
X57176153Y-76798782D01*
X57196670Y-76811079D01*
X57215883Y-76825329D01*
X57233607Y-76841393D01*
X57249671Y-76859117D01*
X57263921Y-76878330D01*
X57276218Y-76898847D01*
X57286446Y-76920471D01*
X57294504Y-76942993D01*
X57300316Y-76966197D01*
X57303826Y-76989858D01*
X57305000Y-77013750D01*
X57305000Y-77926250D01*
X57303826Y-77950142D01*
X57300316Y-77973803D01*
X57294504Y-77997007D01*
X57286446Y-78019529D01*
X57276218Y-78041153D01*
X57263921Y-78061670D01*
X57249671Y-78080883D01*
X57233607Y-78098607D01*
X57215883Y-78114671D01*
X57196670Y-78128921D01*
X57176153Y-78141218D01*
X57154529Y-78151446D01*
X57132007Y-78159504D01*
X57108803Y-78165316D01*
X57085142Y-78168826D01*
X57061250Y-78170000D01*
X56573750Y-78170000D01*
X56549858Y-78168826D01*
X56526197Y-78165316D01*
X56502993Y-78159504D01*
X56480471Y-78151446D01*
X56458847Y-78141218D01*
X56438330Y-78128921D01*
X56419117Y-78114671D01*
X56401393Y-78098607D01*
X56385329Y-78080883D01*
X56371079Y-78061670D01*
X56358782Y-78041153D01*
X56348554Y-78019529D01*
X56340496Y-77997007D01*
X56334684Y-77973803D01*
X56331174Y-77950142D01*
X56330000Y-77926250D01*
X56330000Y-77013750D01*
X56331174Y-76989858D01*
X56334684Y-76966197D01*
X56340496Y-76942993D01*
X56348554Y-76920471D01*
X56358782Y-76898847D01*
X56371079Y-76878330D01*
X56385329Y-76859117D01*
X56401393Y-76841393D01*
X56419117Y-76825329D01*
X56438330Y-76811079D01*
X56458847Y-76798782D01*
X56480471Y-76788554D01*
X56502993Y-76780496D01*
X56526197Y-76774684D01*
X56549858Y-76771174D01*
X56573750Y-76770000D01*
X57061250Y-76770000D01*
X57085142Y-76771174D01*
X57085142Y-76771174D01*
G37*
D11*
X56817500Y-77470000D03*
D10*
G36*
X44549142Y-58109174D02*
G01*
X44572803Y-58112684D01*
X44596007Y-58118496D01*
X44618529Y-58126554D01*
X44640153Y-58136782D01*
X44660670Y-58149079D01*
X44679883Y-58163329D01*
X44697607Y-58179393D01*
X44713671Y-58197117D01*
X44727921Y-58216330D01*
X44740218Y-58236847D01*
X44750446Y-58258471D01*
X44758504Y-58280993D01*
X44764316Y-58304197D01*
X44767826Y-58327858D01*
X44769000Y-58351750D01*
X44769000Y-58839250D01*
X44767826Y-58863142D01*
X44764316Y-58886803D01*
X44758504Y-58910007D01*
X44750446Y-58932529D01*
X44740218Y-58954153D01*
X44727921Y-58974670D01*
X44713671Y-58993883D01*
X44697607Y-59011607D01*
X44679883Y-59027671D01*
X44660670Y-59041921D01*
X44640153Y-59054218D01*
X44618529Y-59064446D01*
X44596007Y-59072504D01*
X44572803Y-59078316D01*
X44549142Y-59081826D01*
X44525250Y-59083000D01*
X43612750Y-59083000D01*
X43588858Y-59081826D01*
X43565197Y-59078316D01*
X43541993Y-59072504D01*
X43519471Y-59064446D01*
X43497847Y-59054218D01*
X43477330Y-59041921D01*
X43458117Y-59027671D01*
X43440393Y-59011607D01*
X43424329Y-58993883D01*
X43410079Y-58974670D01*
X43397782Y-58954153D01*
X43387554Y-58932529D01*
X43379496Y-58910007D01*
X43373684Y-58886803D01*
X43370174Y-58863142D01*
X43369000Y-58839250D01*
X43369000Y-58351750D01*
X43370174Y-58327858D01*
X43373684Y-58304197D01*
X43379496Y-58280993D01*
X43387554Y-58258471D01*
X43397782Y-58236847D01*
X43410079Y-58216330D01*
X43424329Y-58197117D01*
X43440393Y-58179393D01*
X43458117Y-58163329D01*
X43477330Y-58149079D01*
X43497847Y-58136782D01*
X43519471Y-58126554D01*
X43541993Y-58118496D01*
X43565197Y-58112684D01*
X43588858Y-58109174D01*
X43612750Y-58108000D01*
X44525250Y-58108000D01*
X44549142Y-58109174D01*
X44549142Y-58109174D01*
G37*
D11*
X44069000Y-58595500D03*
D10*
G36*
X44549142Y-56234174D02*
G01*
X44572803Y-56237684D01*
X44596007Y-56243496D01*
X44618529Y-56251554D01*
X44640153Y-56261782D01*
X44660670Y-56274079D01*
X44679883Y-56288329D01*
X44697607Y-56304393D01*
X44713671Y-56322117D01*
X44727921Y-56341330D01*
X44740218Y-56361847D01*
X44750446Y-56383471D01*
X44758504Y-56405993D01*
X44764316Y-56429197D01*
X44767826Y-56452858D01*
X44769000Y-56476750D01*
X44769000Y-56964250D01*
X44767826Y-56988142D01*
X44764316Y-57011803D01*
X44758504Y-57035007D01*
X44750446Y-57057529D01*
X44740218Y-57079153D01*
X44727921Y-57099670D01*
X44713671Y-57118883D01*
X44697607Y-57136607D01*
X44679883Y-57152671D01*
X44660670Y-57166921D01*
X44640153Y-57179218D01*
X44618529Y-57189446D01*
X44596007Y-57197504D01*
X44572803Y-57203316D01*
X44549142Y-57206826D01*
X44525250Y-57208000D01*
X43612750Y-57208000D01*
X43588858Y-57206826D01*
X43565197Y-57203316D01*
X43541993Y-57197504D01*
X43519471Y-57189446D01*
X43497847Y-57179218D01*
X43477330Y-57166921D01*
X43458117Y-57152671D01*
X43440393Y-57136607D01*
X43424329Y-57118883D01*
X43410079Y-57099670D01*
X43397782Y-57079153D01*
X43387554Y-57057529D01*
X43379496Y-57035007D01*
X43373684Y-57011803D01*
X43370174Y-56988142D01*
X43369000Y-56964250D01*
X43369000Y-56476750D01*
X43370174Y-56452858D01*
X43373684Y-56429197D01*
X43379496Y-56405993D01*
X43387554Y-56383471D01*
X43397782Y-56361847D01*
X43410079Y-56341330D01*
X43424329Y-56322117D01*
X43440393Y-56304393D01*
X43458117Y-56288329D01*
X43477330Y-56274079D01*
X43497847Y-56261782D01*
X43519471Y-56251554D01*
X43541993Y-56243496D01*
X43565197Y-56237684D01*
X43588858Y-56234174D01*
X43612750Y-56233000D01*
X44525250Y-56233000D01*
X44549142Y-56234174D01*
X44549142Y-56234174D01*
G37*
D11*
X44069000Y-56720500D03*
D21*
X48514000Y-62484000D03*
D22*
X46659989Y-60680011D02*
X52984989Y-60680011D01*
X45974000Y-61366000D02*
X46659989Y-60680011D01*
X45974000Y-62146000D02*
X45974000Y-61366000D01*
D23*
X46035000Y-68144000D02*
X45836000Y-67945000D01*
X46035000Y-69174000D02*
X46035000Y-68144000D01*
X45836000Y-67945000D02*
X45085000Y-67945000D01*
D24*
X54737000Y-59182000D02*
X54610000Y-59055000D01*
D22*
X54460011Y-60680011D02*
X54610000Y-60830000D01*
X52984989Y-60680011D02*
X54460011Y-60680011D01*
D24*
X54610000Y-61165500D02*
X56007000Y-62562500D01*
X54610000Y-59055000D02*
X54610000Y-61165500D01*
D23*
X54610000Y-74270000D02*
X54610000Y-67970000D01*
D22*
X54610000Y-66040000D02*
X54610000Y-67970000D01*
D23*
X45085000Y-69174000D02*
X45085000Y-70231000D01*
X46035000Y-71374000D02*
X46035000Y-70292000D01*
X45593000Y-70231000D02*
X49403000Y-70231000D01*
X45085000Y-70231000D02*
X45593000Y-70231000D01*
X50673000Y-64389000D02*
X52070000Y-64389000D01*
X52070000Y-64389000D02*
X53467000Y-64389000D01*
X46924000Y-62146000D02*
X46924000Y-61366000D01*
X52070000Y-61595000D02*
X51820716Y-61345716D01*
X52070000Y-64389000D02*
X52070000Y-61595000D01*
X46924000Y-61366000D02*
X51820716Y-61345716D01*
X45115000Y-71404000D02*
X45085000Y-71374000D01*
X45115000Y-73914000D02*
X45115000Y-71404000D01*
X46990000Y-71379000D02*
X46985000Y-71374000D01*
X46990000Y-73914000D02*
X46990000Y-71379000D01*
X46985000Y-66553000D02*
X46990000Y-66548000D01*
X46985000Y-69174000D02*
X46985000Y-66553000D01*
X46990000Y-64412000D02*
X46924000Y-64346000D01*
X46990000Y-66548000D02*
X46990000Y-64412000D01*
D22*
X48114001Y-62883999D02*
X48514000Y-62484000D01*
X47996999Y-63001001D02*
X48114001Y-62883999D01*
X45588999Y-63001001D02*
X47996999Y-63001001D01*
X45024000Y-63566000D02*
X45588999Y-63001001D01*
X45024000Y-64346000D02*
X45024000Y-63566000D01*
X45024000Y-61366000D02*
X45024000Y-62146000D01*
X50894999Y-60230001D02*
X46159999Y-60230001D01*
X52070000Y-59055000D02*
X50894999Y-60230001D01*
X46159999Y-60230001D02*
X45024000Y-61366000D01*
X49687000Y-63500000D02*
X50673000Y-62514000D01*
X46049001Y-63490999D02*
X47509001Y-63490999D01*
X47518002Y-63500000D02*
X49687000Y-63500000D01*
X47509001Y-63490999D02*
X47518002Y-63500000D01*
X45974000Y-63566000D02*
X46049001Y-63490999D01*
X45974000Y-64346000D02*
X45974000Y-63566000D01*
X55369000Y-64389000D02*
X55372000Y-64392000D01*
D23*
X55390500Y-64437500D02*
X56007000Y-64437500D01*
D25*
X53467000Y-62514000D02*
X55390500Y-64437500D01*
D26*
G36*
X45749294Y-58225986D02*
G01*
X45611401Y-58483966D01*
X45526487Y-58763889D01*
X45497815Y-59055000D01*
X45526487Y-59346111D01*
X45611401Y-59626034D01*
X45637788Y-59675400D01*
X45619998Y-59690000D01*
X45596200Y-59718998D01*
X44513002Y-60802196D01*
X44483999Y-60825999D01*
X44452013Y-60864975D01*
X44389026Y-60941724D01*
X44318455Y-61073753D01*
X44318454Y-61073754D01*
X44305090Y-61117811D01*
X44247815Y-61164815D01*
X44168463Y-61261506D01*
X44109498Y-61371820D01*
X44073188Y-61491518D01*
X44060928Y-61616000D01*
X44060928Y-62676000D01*
X44073188Y-62800482D01*
X44109498Y-62920180D01*
X44168463Y-63030494D01*
X44247815Y-63127185D01*
X44344506Y-63206537D01*
X44352188Y-63210643D01*
X44318454Y-63273754D01*
X44309943Y-63301812D01*
X44305090Y-63317811D01*
X44247815Y-63364815D01*
X44168463Y-63461506D01*
X44109498Y-63571820D01*
X44073188Y-63691518D01*
X44060928Y-63816000D01*
X44060928Y-64876000D01*
X44073188Y-65000482D01*
X44109498Y-65120180D01*
X44168463Y-65230494D01*
X44247815Y-65327185D01*
X44254487Y-65332661D01*
X44176315Y-65396815D01*
X44096963Y-65493506D01*
X44037998Y-65603820D01*
X44001688Y-65723518D01*
X43989428Y-65848000D01*
X43992500Y-66262250D01*
X44151250Y-66421000D01*
X44988000Y-66421000D01*
X44988000Y-66401000D01*
X45242000Y-66401000D01*
X45242000Y-66421000D01*
X45262000Y-66421000D01*
X45262000Y-66675000D01*
X45242000Y-66675000D01*
X45242000Y-67724250D01*
X45400750Y-67883000D01*
X45602500Y-67886072D01*
X45726982Y-67873812D01*
X45846680Y-67837502D01*
X45956994Y-67778537D01*
X46053685Y-67699185D01*
X46100001Y-67642749D01*
X46100000Y-68344626D01*
X46070498Y-68399820D01*
X46035000Y-68516841D01*
X45999502Y-68399820D01*
X45940537Y-68289506D01*
X45908000Y-68249859D01*
X45908000Y-68167750D01*
X45749250Y-68009000D01*
X45710000Y-68005928D01*
X45585518Y-68018188D01*
X45560000Y-68025929D01*
X45534482Y-68018188D01*
X45410000Y-68005928D01*
X44760000Y-68005928D01*
X44635518Y-68018188D01*
X44515820Y-68054498D01*
X44405506Y-68113463D01*
X44308815Y-68192815D01*
X44229463Y-68289506D01*
X44170498Y-68399820D01*
X44134188Y-68519518D01*
X44121928Y-68644000D01*
X44121928Y-69704000D01*
X44134188Y-69828482D01*
X44170498Y-69948180D01*
X44200001Y-70003375D01*
X44200001Y-70187514D01*
X44195718Y-70231000D01*
X44212805Y-70404490D01*
X44236130Y-70481382D01*
X44229463Y-70489506D01*
X44170498Y-70599820D01*
X44134188Y-70719518D01*
X44121928Y-70844000D01*
X44121928Y-71904000D01*
X44134188Y-72028482D01*
X44170498Y-72148180D01*
X44229463Y-72258494D01*
X44230001Y-72259149D01*
X44230000Y-72855785D01*
X44138042Y-72967836D01*
X44056553Y-73120291D01*
X44006372Y-73285715D01*
X43989428Y-73457750D01*
X43989428Y-74370250D01*
X44006372Y-74542285D01*
X44056553Y-74707709D01*
X44138042Y-74860164D01*
X44247708Y-74993792D01*
X44381336Y-75103458D01*
X44533791Y-75184947D01*
X44699215Y-75235128D01*
X44871250Y-75252072D01*
X45358750Y-75252072D01*
X45530785Y-75235128D01*
X45696209Y-75184947D01*
X45848664Y-75103458D01*
X45982292Y-74993792D01*
X46052500Y-74908244D01*
X46122708Y-74993792D01*
X46256336Y-75103458D01*
X46408791Y-75184947D01*
X46574215Y-75235128D01*
X46746250Y-75252072D01*
X47233750Y-75252072D01*
X47405785Y-75235128D01*
X47571209Y-75184947D01*
X47723664Y-75103458D01*
X47857292Y-74993792D01*
X47966958Y-74860164D01*
X48048447Y-74707709D01*
X48098628Y-74542285D01*
X48115572Y-74370250D01*
X48115572Y-73457750D01*
X48098628Y-73285715D01*
X48093861Y-73270000D01*
X50921928Y-73270000D01*
X50925000Y-73984250D01*
X51083750Y-74143000D01*
X52183000Y-74143000D01*
X52183000Y-72793750D01*
X52024250Y-72635000D01*
X51560000Y-72631928D01*
X51435518Y-72644188D01*
X51315820Y-72680498D01*
X51205506Y-72739463D01*
X51108815Y-72818815D01*
X51029463Y-72915506D01*
X50970498Y-73025820D01*
X50934188Y-73145518D01*
X50921928Y-73270000D01*
X48093861Y-73270000D01*
X48048447Y-73120291D01*
X47966958Y-72967836D01*
X47875000Y-72855785D01*
X47875000Y-72593500D01*
X48064928Y-72593500D01*
X48077188Y-72717982D01*
X48113498Y-72837680D01*
X48172463Y-72947994D01*
X48251815Y-73044685D01*
X48348506Y-73124037D01*
X48458820Y-73183002D01*
X48578518Y-73219312D01*
X48703000Y-73231572D01*
X49117250Y-73228500D01*
X49276000Y-73069750D01*
X49276000Y-72233000D01*
X49530000Y-72233000D01*
X49530000Y-73069750D01*
X49688750Y-73228500D01*
X50103000Y-73231572D01*
X50227482Y-73219312D01*
X50347180Y-73183002D01*
X50457494Y-73124037D01*
X50554185Y-73044685D01*
X50633537Y-72947994D01*
X50692502Y-72837680D01*
X50728812Y-72717982D01*
X50741072Y-72593500D01*
X50738000Y-72391750D01*
X50579250Y-72233000D01*
X49530000Y-72233000D01*
X49276000Y-72233000D01*
X48226750Y-72233000D01*
X48068000Y-72391750D01*
X48064928Y-72593500D01*
X47875000Y-72593500D01*
X47875000Y-72194019D01*
X47899502Y-72148180D01*
X47935812Y-72028482D01*
X47948072Y-71904000D01*
X47948072Y-71501000D01*
X48076500Y-71501000D01*
X48064928Y-71618500D01*
X48068000Y-71820250D01*
X48226750Y-71979000D01*
X49276000Y-71979000D01*
X49276000Y-71959000D01*
X49530000Y-71959000D01*
X49530000Y-71979000D01*
X50579250Y-71979000D01*
X50738000Y-71820250D01*
X50741072Y-71618500D01*
X50729500Y-71501000D01*
X52959000Y-71501000D01*
X52959000Y-72632596D01*
X52595750Y-72635000D01*
X52437000Y-72793750D01*
X52437000Y-74143000D01*
X52457000Y-74143000D01*
X52457000Y-74397000D01*
X52437000Y-74397000D01*
X52437000Y-75746250D01*
X52595750Y-75905000D01*
X52959000Y-75907404D01*
X52959000Y-75946000D01*
X52961440Y-75970776D01*
X52968667Y-75994601D01*
X52980403Y-76016557D01*
X52996197Y-76035803D01*
X53015443Y-76051597D01*
X53037399Y-76063333D01*
X53061224Y-76070560D01*
X53086000Y-76073000D01*
X55499000Y-76073000D01*
X55499000Y-76138724D01*
X55430000Y-76131928D01*
X55228250Y-76135000D01*
X55069500Y-76293750D01*
X55069500Y-77343000D01*
X55089500Y-77343000D01*
X55089500Y-77597000D01*
X55069500Y-77597000D01*
X55069500Y-77617000D01*
X54815500Y-77617000D01*
X54815500Y-77597000D01*
X53978750Y-77597000D01*
X53820000Y-77755750D01*
X53819294Y-77851000D01*
X48768000Y-77851000D01*
X48743224Y-77853440D01*
X48719399Y-77860667D01*
X48697443Y-77872403D01*
X48678197Y-77888197D01*
X48662403Y-77907443D01*
X48650667Y-77929399D01*
X48643440Y-77953224D01*
X48641000Y-77978000D01*
X48641000Y-83566000D01*
X48643440Y-83590776D01*
X48650667Y-83614601D01*
X48662403Y-83636557D01*
X48678197Y-83655803D01*
X48697443Y-83671597D01*
X48719399Y-83683333D01*
X48743224Y-83690560D01*
X48768000Y-83693000D01*
X53467000Y-83693000D01*
X53467000Y-85577273D01*
X53127741Y-85436747D01*
X52763625Y-85364320D01*
X52392375Y-85364320D01*
X52028259Y-85436747D01*
X51685269Y-85578818D01*
X51376587Y-85785074D01*
X51114074Y-86047587D01*
X50907818Y-86356269D01*
X50765747Y-86699259D01*
X50693320Y-87063375D01*
X50693320Y-87434625D01*
X50765747Y-87798741D01*
X50907818Y-88141731D01*
X51114074Y-88450413D01*
X51376587Y-88712926D01*
X51685269Y-88919182D01*
X52028259Y-89061253D01*
X52392375Y-89133680D01*
X52763625Y-89133680D01*
X53127741Y-89061253D01*
X53467000Y-88920727D01*
X53467000Y-90018000D01*
X43847279Y-90018000D01*
X43697131Y-90003278D01*
X43583754Y-89969047D01*
X43479183Y-89913446D01*
X43387405Y-89838594D01*
X43311909Y-89747335D01*
X43255581Y-89643160D01*
X43220560Y-89530024D01*
X43205000Y-89381979D01*
X43205000Y-88562377D01*
X43824229Y-88562377D01*
X43950104Y-88852315D01*
X44282262Y-89018139D01*
X44640387Y-89115975D01*
X45010719Y-89142065D01*
X45379025Y-89095405D01*
X45731151Y-88977789D01*
X45965896Y-88852315D01*
X46091771Y-88562377D01*
X44958000Y-87428605D01*
X43824229Y-88562377D01*
X43205000Y-88562377D01*
X43205000Y-87949667D01*
X43229211Y-88022151D01*
X43354685Y-88256896D01*
X43644623Y-88382771D01*
X44778395Y-87249000D01*
X45137605Y-87249000D01*
X46271377Y-88382771D01*
X46561315Y-88256896D01*
X46727139Y-87924738D01*
X46824975Y-87566613D01*
X46851065Y-87196281D01*
X46834228Y-87063375D01*
X46883320Y-87063375D01*
X46883320Y-87434625D01*
X46955747Y-87798741D01*
X47097818Y-88141731D01*
X47304074Y-88450413D01*
X47566587Y-88712926D01*
X47875269Y-88919182D01*
X48218259Y-89061253D01*
X48582375Y-89133680D01*
X48953625Y-89133680D01*
X49317741Y-89061253D01*
X49660731Y-88919182D01*
X49969413Y-88712926D01*
X50231926Y-88450413D01*
X50438182Y-88141731D01*
X50580253Y-87798741D01*
X50652680Y-87434625D01*
X50652680Y-87063375D01*
X50580253Y-86699259D01*
X50438182Y-86356269D01*
X50231926Y-86047587D01*
X49969413Y-85785074D01*
X49660731Y-85578818D01*
X49317741Y-85436747D01*
X48953625Y-85364320D01*
X48582375Y-85364320D01*
X48218259Y-85436747D01*
X47875269Y-85578818D01*
X47566587Y-85785074D01*
X47304074Y-86047587D01*
X47097818Y-86356269D01*
X46955747Y-86699259D01*
X46883320Y-87063375D01*
X46834228Y-87063375D01*
X46804405Y-86827975D01*
X46686789Y-86475849D01*
X46561315Y-86241104D01*
X46271377Y-86115229D01*
X45137605Y-87249000D01*
X44778395Y-87249000D01*
X43644623Y-86115229D01*
X43354685Y-86241104D01*
X43205000Y-86540934D01*
X43205000Y-85935623D01*
X43824229Y-85935623D01*
X44958000Y-87069395D01*
X46091771Y-85935623D01*
X45965896Y-85645685D01*
X45633738Y-85479861D01*
X45275613Y-85382025D01*
X44905281Y-85355935D01*
X44536975Y-85402595D01*
X44184849Y-85520211D01*
X43950104Y-85645685D01*
X43824229Y-85935623D01*
X43205000Y-85935623D01*
X43205000Y-81895000D01*
X43331928Y-81895000D01*
X43344188Y-82019482D01*
X43380498Y-82139180D01*
X43439463Y-82249494D01*
X43518815Y-82346185D01*
X43615506Y-82425537D01*
X43725820Y-82484502D01*
X43845518Y-82520812D01*
X43970000Y-82533072D01*
X45684250Y-82530000D01*
X45843000Y-82371250D01*
X45843000Y-80772000D01*
X46097000Y-80772000D01*
X46097000Y-82371250D01*
X46255750Y-82530000D01*
X47970000Y-82533072D01*
X48094482Y-82520812D01*
X48214180Y-82484502D01*
X48324494Y-82425537D01*
X48421185Y-82346185D01*
X48500537Y-82249494D01*
X48559502Y-82139180D01*
X48595812Y-82019482D01*
X48608072Y-81895000D01*
X48605000Y-80930750D01*
X48446250Y-80772000D01*
X46097000Y-80772000D01*
X45843000Y-80772000D01*
X43493750Y-80772000D01*
X43335000Y-80930750D01*
X43331928Y-81895000D01*
X43205000Y-81895000D01*
X43205000Y-79395000D01*
X43331928Y-79395000D01*
X43335000Y-80359250D01*
X43493750Y-80518000D01*
X45843000Y-80518000D01*
X45843000Y-78918750D01*
X46097000Y-78918750D01*
X46097000Y-80518000D01*
X48446250Y-80518000D01*
X48605000Y-80359250D01*
X48608072Y-79395000D01*
X48595812Y-79270518D01*
X48559502Y-79150820D01*
X48500537Y-79040506D01*
X48421185Y-78943815D01*
X48324494Y-78864463D01*
X48214180Y-78805498D01*
X48094482Y-78769188D01*
X47970000Y-78756928D01*
X46255750Y-78760000D01*
X46097000Y-78918750D01*
X45843000Y-78918750D01*
X45684250Y-78760000D01*
X43970000Y-78756928D01*
X43845518Y-78769188D01*
X43725820Y-78805498D01*
X43615506Y-78864463D01*
X43518815Y-78943815D01*
X43439463Y-79040506D01*
X43380498Y-79150820D01*
X43344188Y-79270518D01*
X43331928Y-79395000D01*
X43205000Y-79395000D01*
X43205000Y-76770000D01*
X53816928Y-76770000D01*
X53820000Y-77184250D01*
X53978750Y-77343000D01*
X54815500Y-77343000D01*
X54815500Y-76293750D01*
X54656750Y-76135000D01*
X54455000Y-76131928D01*
X54330518Y-76144188D01*
X54210820Y-76180498D01*
X54100506Y-76239463D01*
X54003815Y-76318815D01*
X53924463Y-76415506D01*
X53865498Y-76525820D01*
X53829188Y-76645518D01*
X53816928Y-76770000D01*
X43205000Y-76770000D01*
X43205000Y-75270000D01*
X50921928Y-75270000D01*
X50934188Y-75394482D01*
X50970498Y-75514180D01*
X51029463Y-75624494D01*
X51108815Y-75721185D01*
X51205506Y-75800537D01*
X51315820Y-75859502D01*
X51435518Y-75895812D01*
X51560000Y-75908072D01*
X52024250Y-75905000D01*
X52183000Y-75746250D01*
X52183000Y-74397000D01*
X51083750Y-74397000D01*
X50925000Y-74555750D01*
X50921928Y-75270000D01*
X43205000Y-75270000D01*
X43205000Y-67248000D01*
X43989428Y-67248000D01*
X44001688Y-67372482D01*
X44037998Y-67492180D01*
X44096963Y-67602494D01*
X44176315Y-67699185D01*
X44273006Y-67778537D01*
X44383320Y-67837502D01*
X44503018Y-67873812D01*
X44627500Y-67886072D01*
X44829250Y-67883000D01*
X44988000Y-67724250D01*
X44988000Y-66675000D01*
X44151250Y-66675000D01*
X43992500Y-66833750D01*
X43989428Y-67248000D01*
X43205000Y-67248000D01*
X43205000Y-59696824D01*
X43244518Y-59708812D01*
X43369000Y-59721072D01*
X43783250Y-59718000D01*
X43942000Y-59559250D01*
X43942000Y-58722500D01*
X44196000Y-58722500D01*
X44196000Y-59559250D01*
X44354750Y-59718000D01*
X44769000Y-59721072D01*
X44893482Y-59708812D01*
X45013180Y-59672502D01*
X45123494Y-59613537D01*
X45220185Y-59534185D01*
X45299537Y-59437494D01*
X45358502Y-59327180D01*
X45394812Y-59207482D01*
X45407072Y-59083000D01*
X45404000Y-58881250D01*
X45245250Y-58722500D01*
X44196000Y-58722500D01*
X43942000Y-58722500D01*
X43922000Y-58722500D01*
X43922000Y-58468500D01*
X43942000Y-58468500D01*
X43942000Y-58448500D01*
X44196000Y-58448500D01*
X44196000Y-58468500D01*
X45245250Y-58468500D01*
X45404000Y-58309750D01*
X45407072Y-58108000D01*
X45400276Y-58039000D01*
X45902750Y-58039000D01*
X45749294Y-58225986D01*
X45749294Y-58225986D01*
G37*
X45749294Y-58225986D02*
X45611401Y-58483966D01*
X45526487Y-58763889D01*
X45497815Y-59055000D01*
X45526487Y-59346111D01*
X45611401Y-59626034D01*
X45637788Y-59675400D01*
X45619998Y-59690000D01*
X45596200Y-59718998D01*
X44513002Y-60802196D01*
X44483999Y-60825999D01*
X44452013Y-60864975D01*
X44389026Y-60941724D01*
X44318455Y-61073753D01*
X44318454Y-61073754D01*
X44305090Y-61117811D01*
X44247815Y-61164815D01*
X44168463Y-61261506D01*
X44109498Y-61371820D01*
X44073188Y-61491518D01*
X44060928Y-61616000D01*
X44060928Y-62676000D01*
X44073188Y-62800482D01*
X44109498Y-62920180D01*
X44168463Y-63030494D01*
X44247815Y-63127185D01*
X44344506Y-63206537D01*
X44352188Y-63210643D01*
X44318454Y-63273754D01*
X44309943Y-63301812D01*
X44305090Y-63317811D01*
X44247815Y-63364815D01*
X44168463Y-63461506D01*
X44109498Y-63571820D01*
X44073188Y-63691518D01*
X44060928Y-63816000D01*
X44060928Y-64876000D01*
X44073188Y-65000482D01*
X44109498Y-65120180D01*
X44168463Y-65230494D01*
X44247815Y-65327185D01*
X44254487Y-65332661D01*
X44176315Y-65396815D01*
X44096963Y-65493506D01*
X44037998Y-65603820D01*
X44001688Y-65723518D01*
X43989428Y-65848000D01*
X43992500Y-66262250D01*
X44151250Y-66421000D01*
X44988000Y-66421000D01*
X44988000Y-66401000D01*
X45242000Y-66401000D01*
X45242000Y-66421000D01*
X45262000Y-66421000D01*
X45262000Y-66675000D01*
X45242000Y-66675000D01*
X45242000Y-67724250D01*
X45400750Y-67883000D01*
X45602500Y-67886072D01*
X45726982Y-67873812D01*
X45846680Y-67837502D01*
X45956994Y-67778537D01*
X46053685Y-67699185D01*
X46100001Y-67642749D01*
X46100000Y-68344626D01*
X46070498Y-68399820D01*
X46035000Y-68516841D01*
X45999502Y-68399820D01*
X45940537Y-68289506D01*
X45908000Y-68249859D01*
X45908000Y-68167750D01*
X45749250Y-68009000D01*
X45710000Y-68005928D01*
X45585518Y-68018188D01*
X45560000Y-68025929D01*
X45534482Y-68018188D01*
X45410000Y-68005928D01*
X44760000Y-68005928D01*
X44635518Y-68018188D01*
X44515820Y-68054498D01*
X44405506Y-68113463D01*
X44308815Y-68192815D01*
X44229463Y-68289506D01*
X44170498Y-68399820D01*
X44134188Y-68519518D01*
X44121928Y-68644000D01*
X44121928Y-69704000D01*
X44134188Y-69828482D01*
X44170498Y-69948180D01*
X44200001Y-70003375D01*
X44200001Y-70187514D01*
X44195718Y-70231000D01*
X44212805Y-70404490D01*
X44236130Y-70481382D01*
X44229463Y-70489506D01*
X44170498Y-70599820D01*
X44134188Y-70719518D01*
X44121928Y-70844000D01*
X44121928Y-71904000D01*
X44134188Y-72028482D01*
X44170498Y-72148180D01*
X44229463Y-72258494D01*
X44230001Y-72259149D01*
X44230000Y-72855785D01*
X44138042Y-72967836D01*
X44056553Y-73120291D01*
X44006372Y-73285715D01*
X43989428Y-73457750D01*
X43989428Y-74370250D01*
X44006372Y-74542285D01*
X44056553Y-74707709D01*
X44138042Y-74860164D01*
X44247708Y-74993792D01*
X44381336Y-75103458D01*
X44533791Y-75184947D01*
X44699215Y-75235128D01*
X44871250Y-75252072D01*
X45358750Y-75252072D01*
X45530785Y-75235128D01*
X45696209Y-75184947D01*
X45848664Y-75103458D01*
X45982292Y-74993792D01*
X46052500Y-74908244D01*
X46122708Y-74993792D01*
X46256336Y-75103458D01*
X46408791Y-75184947D01*
X46574215Y-75235128D01*
X46746250Y-75252072D01*
X47233750Y-75252072D01*
X47405785Y-75235128D01*
X47571209Y-75184947D01*
X47723664Y-75103458D01*
X47857292Y-74993792D01*
X47966958Y-74860164D01*
X48048447Y-74707709D01*
X48098628Y-74542285D01*
X48115572Y-74370250D01*
X48115572Y-73457750D01*
X48098628Y-73285715D01*
X48093861Y-73270000D01*
X50921928Y-73270000D01*
X50925000Y-73984250D01*
X51083750Y-74143000D01*
X52183000Y-74143000D01*
X52183000Y-72793750D01*
X52024250Y-72635000D01*
X51560000Y-72631928D01*
X51435518Y-72644188D01*
X51315820Y-72680498D01*
X51205506Y-72739463D01*
X51108815Y-72818815D01*
X51029463Y-72915506D01*
X50970498Y-73025820D01*
X50934188Y-73145518D01*
X50921928Y-73270000D01*
X48093861Y-73270000D01*
X48048447Y-73120291D01*
X47966958Y-72967836D01*
X47875000Y-72855785D01*
X47875000Y-72593500D01*
X48064928Y-72593500D01*
X48077188Y-72717982D01*
X48113498Y-72837680D01*
X48172463Y-72947994D01*
X48251815Y-73044685D01*
X48348506Y-73124037D01*
X48458820Y-73183002D01*
X48578518Y-73219312D01*
X48703000Y-73231572D01*
X49117250Y-73228500D01*
X49276000Y-73069750D01*
X49276000Y-72233000D01*
X49530000Y-72233000D01*
X49530000Y-73069750D01*
X49688750Y-73228500D01*
X50103000Y-73231572D01*
X50227482Y-73219312D01*
X50347180Y-73183002D01*
X50457494Y-73124037D01*
X50554185Y-73044685D01*
X50633537Y-72947994D01*
X50692502Y-72837680D01*
X50728812Y-72717982D01*
X50741072Y-72593500D01*
X50738000Y-72391750D01*
X50579250Y-72233000D01*
X49530000Y-72233000D01*
X49276000Y-72233000D01*
X48226750Y-72233000D01*
X48068000Y-72391750D01*
X48064928Y-72593500D01*
X47875000Y-72593500D01*
X47875000Y-72194019D01*
X47899502Y-72148180D01*
X47935812Y-72028482D01*
X47948072Y-71904000D01*
X47948072Y-71501000D01*
X48076500Y-71501000D01*
X48064928Y-71618500D01*
X48068000Y-71820250D01*
X48226750Y-71979000D01*
X49276000Y-71979000D01*
X49276000Y-71959000D01*
X49530000Y-71959000D01*
X49530000Y-71979000D01*
X50579250Y-71979000D01*
X50738000Y-71820250D01*
X50741072Y-71618500D01*
X50729500Y-71501000D01*
X52959000Y-71501000D01*
X52959000Y-72632596D01*
X52595750Y-72635000D01*
X52437000Y-72793750D01*
X52437000Y-74143000D01*
X52457000Y-74143000D01*
X52457000Y-74397000D01*
X52437000Y-74397000D01*
X52437000Y-75746250D01*
X52595750Y-75905000D01*
X52959000Y-75907404D01*
X52959000Y-75946000D01*
X52961440Y-75970776D01*
X52968667Y-75994601D01*
X52980403Y-76016557D01*
X52996197Y-76035803D01*
X53015443Y-76051597D01*
X53037399Y-76063333D01*
X53061224Y-76070560D01*
X53086000Y-76073000D01*
X55499000Y-76073000D01*
X55499000Y-76138724D01*
X55430000Y-76131928D01*
X55228250Y-76135000D01*
X55069500Y-76293750D01*
X55069500Y-77343000D01*
X55089500Y-77343000D01*
X55089500Y-77597000D01*
X55069500Y-77597000D01*
X55069500Y-77617000D01*
X54815500Y-77617000D01*
X54815500Y-77597000D01*
X53978750Y-77597000D01*
X53820000Y-77755750D01*
X53819294Y-77851000D01*
X48768000Y-77851000D01*
X48743224Y-77853440D01*
X48719399Y-77860667D01*
X48697443Y-77872403D01*
X48678197Y-77888197D01*
X48662403Y-77907443D01*
X48650667Y-77929399D01*
X48643440Y-77953224D01*
X48641000Y-77978000D01*
X48641000Y-83566000D01*
X48643440Y-83590776D01*
X48650667Y-83614601D01*
X48662403Y-83636557D01*
X48678197Y-83655803D01*
X48697443Y-83671597D01*
X48719399Y-83683333D01*
X48743224Y-83690560D01*
X48768000Y-83693000D01*
X53467000Y-83693000D01*
X53467000Y-85577273D01*
X53127741Y-85436747D01*
X52763625Y-85364320D01*
X52392375Y-85364320D01*
X52028259Y-85436747D01*
X51685269Y-85578818D01*
X51376587Y-85785074D01*
X51114074Y-86047587D01*
X50907818Y-86356269D01*
X50765747Y-86699259D01*
X50693320Y-87063375D01*
X50693320Y-87434625D01*
X50765747Y-87798741D01*
X50907818Y-88141731D01*
X51114074Y-88450413D01*
X51376587Y-88712926D01*
X51685269Y-88919182D01*
X52028259Y-89061253D01*
X52392375Y-89133680D01*
X52763625Y-89133680D01*
X53127741Y-89061253D01*
X53467000Y-88920727D01*
X53467000Y-90018000D01*
X43847279Y-90018000D01*
X43697131Y-90003278D01*
X43583754Y-89969047D01*
X43479183Y-89913446D01*
X43387405Y-89838594D01*
X43311909Y-89747335D01*
X43255581Y-89643160D01*
X43220560Y-89530024D01*
X43205000Y-89381979D01*
X43205000Y-88562377D01*
X43824229Y-88562377D01*
X43950104Y-88852315D01*
X44282262Y-89018139D01*
X44640387Y-89115975D01*
X45010719Y-89142065D01*
X45379025Y-89095405D01*
X45731151Y-88977789D01*
X45965896Y-88852315D01*
X46091771Y-88562377D01*
X44958000Y-87428605D01*
X43824229Y-88562377D01*
X43205000Y-88562377D01*
X43205000Y-87949667D01*
X43229211Y-88022151D01*
X43354685Y-88256896D01*
X43644623Y-88382771D01*
X44778395Y-87249000D01*
X45137605Y-87249000D01*
X46271377Y-88382771D01*
X46561315Y-88256896D01*
X46727139Y-87924738D01*
X46824975Y-87566613D01*
X46851065Y-87196281D01*
X46834228Y-87063375D01*
X46883320Y-87063375D01*
X46883320Y-87434625D01*
X46955747Y-87798741D01*
X47097818Y-88141731D01*
X47304074Y-88450413D01*
X47566587Y-88712926D01*
X47875269Y-88919182D01*
X48218259Y-89061253D01*
X48582375Y-89133680D01*
X48953625Y-89133680D01*
X49317741Y-89061253D01*
X49660731Y-88919182D01*
X49969413Y-88712926D01*
X50231926Y-88450413D01*
X50438182Y-88141731D01*
X50580253Y-87798741D01*
X50652680Y-87434625D01*
X50652680Y-87063375D01*
X50580253Y-86699259D01*
X50438182Y-86356269D01*
X50231926Y-86047587D01*
X49969413Y-85785074D01*
X49660731Y-85578818D01*
X49317741Y-85436747D01*
X48953625Y-85364320D01*
X48582375Y-85364320D01*
X48218259Y-85436747D01*
X47875269Y-85578818D01*
X47566587Y-85785074D01*
X47304074Y-86047587D01*
X47097818Y-86356269D01*
X46955747Y-86699259D01*
X46883320Y-87063375D01*
X46834228Y-87063375D01*
X46804405Y-86827975D01*
X46686789Y-86475849D01*
X46561315Y-86241104D01*
X46271377Y-86115229D01*
X45137605Y-87249000D01*
X44778395Y-87249000D01*
X43644623Y-86115229D01*
X43354685Y-86241104D01*
X43205000Y-86540934D01*
X43205000Y-85935623D01*
X43824229Y-85935623D01*
X44958000Y-87069395D01*
X46091771Y-85935623D01*
X45965896Y-85645685D01*
X45633738Y-85479861D01*
X45275613Y-85382025D01*
X44905281Y-85355935D01*
X44536975Y-85402595D01*
X44184849Y-85520211D01*
X43950104Y-85645685D01*
X43824229Y-85935623D01*
X43205000Y-85935623D01*
X43205000Y-81895000D01*
X43331928Y-81895000D01*
X43344188Y-82019482D01*
X43380498Y-82139180D01*
X43439463Y-82249494D01*
X43518815Y-82346185D01*
X43615506Y-82425537D01*
X43725820Y-82484502D01*
X43845518Y-82520812D01*
X43970000Y-82533072D01*
X45684250Y-82530000D01*
X45843000Y-82371250D01*
X45843000Y-80772000D01*
X46097000Y-80772000D01*
X46097000Y-82371250D01*
X46255750Y-82530000D01*
X47970000Y-82533072D01*
X48094482Y-82520812D01*
X48214180Y-82484502D01*
X48324494Y-82425537D01*
X48421185Y-82346185D01*
X48500537Y-82249494D01*
X48559502Y-82139180D01*
X48595812Y-82019482D01*
X48608072Y-81895000D01*
X48605000Y-80930750D01*
X48446250Y-80772000D01*
X46097000Y-80772000D01*
X45843000Y-80772000D01*
X43493750Y-80772000D01*
X43335000Y-80930750D01*
X43331928Y-81895000D01*
X43205000Y-81895000D01*
X43205000Y-79395000D01*
X43331928Y-79395000D01*
X43335000Y-80359250D01*
X43493750Y-80518000D01*
X45843000Y-80518000D01*
X45843000Y-78918750D01*
X46097000Y-78918750D01*
X46097000Y-80518000D01*
X48446250Y-80518000D01*
X48605000Y-80359250D01*
X48608072Y-79395000D01*
X48595812Y-79270518D01*
X48559502Y-79150820D01*
X48500537Y-79040506D01*
X48421185Y-78943815D01*
X48324494Y-78864463D01*
X48214180Y-78805498D01*
X48094482Y-78769188D01*
X47970000Y-78756928D01*
X46255750Y-78760000D01*
X46097000Y-78918750D01*
X45843000Y-78918750D01*
X45684250Y-78760000D01*
X43970000Y-78756928D01*
X43845518Y-78769188D01*
X43725820Y-78805498D01*
X43615506Y-78864463D01*
X43518815Y-78943815D01*
X43439463Y-79040506D01*
X43380498Y-79150820D01*
X43344188Y-79270518D01*
X43331928Y-79395000D01*
X43205000Y-79395000D01*
X43205000Y-76770000D01*
X53816928Y-76770000D01*
X53820000Y-77184250D01*
X53978750Y-77343000D01*
X54815500Y-77343000D01*
X54815500Y-76293750D01*
X54656750Y-76135000D01*
X54455000Y-76131928D01*
X54330518Y-76144188D01*
X54210820Y-76180498D01*
X54100506Y-76239463D01*
X54003815Y-76318815D01*
X53924463Y-76415506D01*
X53865498Y-76525820D01*
X53829188Y-76645518D01*
X53816928Y-76770000D01*
X43205000Y-76770000D01*
X43205000Y-75270000D01*
X50921928Y-75270000D01*
X50934188Y-75394482D01*
X50970498Y-75514180D01*
X51029463Y-75624494D01*
X51108815Y-75721185D01*
X51205506Y-75800537D01*
X51315820Y-75859502D01*
X51435518Y-75895812D01*
X51560000Y-75908072D01*
X52024250Y-75905000D01*
X52183000Y-75746250D01*
X52183000Y-74397000D01*
X51083750Y-74397000D01*
X50925000Y-74555750D01*
X50921928Y-75270000D01*
X43205000Y-75270000D01*
X43205000Y-67248000D01*
X43989428Y-67248000D01*
X44001688Y-67372482D01*
X44037998Y-67492180D01*
X44096963Y-67602494D01*
X44176315Y-67699185D01*
X44273006Y-67778537D01*
X44383320Y-67837502D01*
X44503018Y-67873812D01*
X44627500Y-67886072D01*
X44829250Y-67883000D01*
X44988000Y-67724250D01*
X44988000Y-66675000D01*
X44151250Y-66675000D01*
X43992500Y-66833750D01*
X43989428Y-67248000D01*
X43205000Y-67248000D01*
X43205000Y-59696824D01*
X43244518Y-59708812D01*
X43369000Y-59721072D01*
X43783250Y-59718000D01*
X43942000Y-59559250D01*
X43942000Y-58722500D01*
X44196000Y-58722500D01*
X44196000Y-59559250D01*
X44354750Y-59718000D01*
X44769000Y-59721072D01*
X44893482Y-59708812D01*
X45013180Y-59672502D01*
X45123494Y-59613537D01*
X45220185Y-59534185D01*
X45299537Y-59437494D01*
X45358502Y-59327180D01*
X45394812Y-59207482D01*
X45407072Y-59083000D01*
X45404000Y-58881250D01*
X45245250Y-58722500D01*
X44196000Y-58722500D01*
X43942000Y-58722500D01*
X43922000Y-58722500D01*
X43922000Y-58468500D01*
X43942000Y-58468500D01*
X43942000Y-58448500D01*
X44196000Y-58448500D01*
X44196000Y-58468500D01*
X45245250Y-58468500D01*
X45404000Y-58309750D01*
X45407072Y-58108000D01*
X45400276Y-58039000D01*
X45902750Y-58039000D01*
X45749294Y-58225986D01*
G36*
X58395000Y-82931000D02*
G01*
X57748420Y-82931000D01*
X57633386Y-82836595D01*
X57479850Y-82754528D01*
X57313254Y-82703992D01*
X57140000Y-82686928D01*
X55890000Y-82686928D01*
X55716746Y-82703992D01*
X55550150Y-82754528D01*
X55396614Y-82836595D01*
X55281580Y-82931000D01*
X49403000Y-82931000D01*
X49403000Y-81895000D01*
X49431928Y-81895000D01*
X49444188Y-82019482D01*
X49480498Y-82139180D01*
X49539463Y-82249494D01*
X49618815Y-82346185D01*
X49715506Y-82425537D01*
X49825820Y-82484502D01*
X49945518Y-82520812D01*
X50070000Y-82533072D01*
X51784250Y-82530000D01*
X51943000Y-82371250D01*
X51943000Y-80772000D01*
X52197000Y-80772000D01*
X52197000Y-82371250D01*
X52355750Y-82530000D01*
X54070000Y-82533072D01*
X54194482Y-82520812D01*
X54314180Y-82484502D01*
X54424494Y-82425537D01*
X54521185Y-82346185D01*
X54600537Y-82249494D01*
X54659502Y-82139180D01*
X54695812Y-82019482D01*
X54708072Y-81895000D01*
X54707690Y-81775000D01*
X55001928Y-81775000D01*
X55014188Y-81899482D01*
X55050498Y-82019180D01*
X55109463Y-82129494D01*
X55188815Y-82226185D01*
X55285506Y-82305537D01*
X55395820Y-82364502D01*
X55515518Y-82400812D01*
X55640000Y-82413072D01*
X56229250Y-82410000D01*
X56388000Y-82251250D01*
X56388000Y-81277000D01*
X56642000Y-81277000D01*
X56642000Y-82251250D01*
X56800750Y-82410000D01*
X57390000Y-82413072D01*
X57514482Y-82400812D01*
X57634180Y-82364502D01*
X57744494Y-82305537D01*
X57841185Y-82226185D01*
X57920537Y-82129494D01*
X57979502Y-82019180D01*
X58015812Y-81899482D01*
X58028072Y-81775000D01*
X58025000Y-81435750D01*
X57866250Y-81277000D01*
X56642000Y-81277000D01*
X56388000Y-81277000D01*
X55163750Y-81277000D01*
X55005000Y-81435750D01*
X55001928Y-81775000D01*
X54707690Y-81775000D01*
X54705000Y-80930750D01*
X54546250Y-80772000D01*
X52197000Y-80772000D01*
X51943000Y-80772000D01*
X49593750Y-80772000D01*
X49435000Y-80930750D01*
X49431928Y-81895000D01*
X49403000Y-81895000D01*
X49403000Y-80525000D01*
X55001928Y-80525000D01*
X55005000Y-80864250D01*
X55163750Y-81023000D01*
X56388000Y-81023000D01*
X56388000Y-80048750D01*
X56642000Y-80048750D01*
X56642000Y-81023000D01*
X57866250Y-81023000D01*
X58025000Y-80864250D01*
X58028072Y-80525000D01*
X58015812Y-80400518D01*
X57979502Y-80280820D01*
X57920537Y-80170506D01*
X57841185Y-80073815D01*
X57744494Y-79994463D01*
X57634180Y-79935498D01*
X57514482Y-79899188D01*
X57390000Y-79886928D01*
X56800750Y-79890000D01*
X56642000Y-80048750D01*
X56388000Y-80048750D01*
X56229250Y-79890000D01*
X55640000Y-79886928D01*
X55515518Y-79899188D01*
X55395820Y-79935498D01*
X55285506Y-79994463D01*
X55188815Y-80073815D01*
X55109463Y-80170506D01*
X55050498Y-80280820D01*
X55014188Y-80400518D01*
X55001928Y-80525000D01*
X49403000Y-80525000D01*
X49403000Y-79395000D01*
X49431928Y-79395000D01*
X49435000Y-80359250D01*
X49593750Y-80518000D01*
X51943000Y-80518000D01*
X51943000Y-78918750D01*
X52197000Y-78918750D01*
X52197000Y-80518000D01*
X54546250Y-80518000D01*
X54705000Y-80359250D01*
X54708072Y-79395000D01*
X54695812Y-79270518D01*
X54659502Y-79150820D01*
X54600537Y-79040506D01*
X54521185Y-78943815D01*
X54424494Y-78864463D01*
X54314180Y-78805498D01*
X54194482Y-78769188D01*
X54070000Y-78756928D01*
X52355750Y-78760000D01*
X52197000Y-78918750D01*
X51943000Y-78918750D01*
X51784250Y-78760000D01*
X50070000Y-78756928D01*
X49945518Y-78769188D01*
X49825820Y-78805498D01*
X49715506Y-78864463D01*
X49618815Y-78943815D01*
X49539463Y-79040506D01*
X49480498Y-79150820D01*
X49444188Y-79270518D01*
X49431928Y-79395000D01*
X49403000Y-79395000D01*
X49403000Y-78613000D01*
X54152227Y-78613000D01*
X54208836Y-78659458D01*
X54361291Y-78740947D01*
X54526715Y-78791128D01*
X54698750Y-78808072D01*
X55186250Y-78808072D01*
X55358285Y-78791128D01*
X55523709Y-78740947D01*
X55676164Y-78659458D01*
X55732773Y-78613000D01*
X55872098Y-78613000D01*
X55878815Y-78621185D01*
X55975506Y-78700537D01*
X56085820Y-78759502D01*
X56205518Y-78795812D01*
X56330000Y-78808072D01*
X56531750Y-78805000D01*
X56690500Y-78646250D01*
X56690500Y-77597000D01*
X56944500Y-77597000D01*
X56944500Y-78646250D01*
X57103250Y-78805000D01*
X57305000Y-78808072D01*
X57429482Y-78795812D01*
X57549180Y-78759502D01*
X57659494Y-78700537D01*
X57756185Y-78621185D01*
X57835537Y-78524494D01*
X57894502Y-78414180D01*
X57930812Y-78294482D01*
X57943072Y-78170000D01*
X57940000Y-77755750D01*
X57781250Y-77597000D01*
X56944500Y-77597000D01*
X56690500Y-77597000D01*
X56670500Y-77597000D01*
X56670500Y-77343000D01*
X56690500Y-77343000D01*
X56690500Y-76293750D01*
X56944500Y-76293750D01*
X56944500Y-77343000D01*
X57781250Y-77343000D01*
X57940000Y-77184250D01*
X57943072Y-76770000D01*
X57930812Y-76645518D01*
X57894502Y-76525820D01*
X57835537Y-76415506D01*
X57756185Y-76318815D01*
X57659494Y-76239463D01*
X57549180Y-76180498D01*
X57429482Y-76144188D01*
X57305000Y-76131928D01*
X57103250Y-76135000D01*
X56944500Y-76293750D01*
X56690500Y-76293750D01*
X56531750Y-76135000D01*
X56330000Y-76131928D01*
X56261000Y-76138724D01*
X56261000Y-75907404D01*
X56624250Y-75905000D01*
X56783000Y-75746250D01*
X56783000Y-74397000D01*
X57037000Y-74397000D01*
X57037000Y-75746250D01*
X57195750Y-75905000D01*
X57660000Y-75908072D01*
X57784482Y-75895812D01*
X57904180Y-75859502D01*
X58014494Y-75800537D01*
X58111185Y-75721185D01*
X58190537Y-75624494D01*
X58249502Y-75514180D01*
X58285812Y-75394482D01*
X58298072Y-75270000D01*
X58295000Y-74555750D01*
X58136250Y-74397000D01*
X57037000Y-74397000D01*
X56783000Y-74397000D01*
X56763000Y-74397000D01*
X56763000Y-74143000D01*
X56783000Y-74143000D01*
X56783000Y-72793750D01*
X57037000Y-72793750D01*
X57037000Y-74143000D01*
X58136250Y-74143000D01*
X58295000Y-73984250D01*
X58298072Y-73270000D01*
X58285812Y-73145518D01*
X58249502Y-73025820D01*
X58190537Y-72915506D01*
X58111185Y-72818815D01*
X58014494Y-72739463D01*
X57904180Y-72680498D01*
X57784482Y-72644188D01*
X57660000Y-72631928D01*
X57195750Y-72635000D01*
X57037000Y-72793750D01*
X56783000Y-72793750D01*
X56624250Y-72635000D01*
X56261000Y-72632596D01*
X56261000Y-71501000D01*
X58395001Y-71501000D01*
X58395000Y-82931000D01*
X58395000Y-82931000D01*
G37*
X58395000Y-82931000D02*
X57748420Y-82931000D01*
X57633386Y-82836595D01*
X57479850Y-82754528D01*
X57313254Y-82703992D01*
X57140000Y-82686928D01*
X55890000Y-82686928D01*
X55716746Y-82703992D01*
X55550150Y-82754528D01*
X55396614Y-82836595D01*
X55281580Y-82931000D01*
X49403000Y-82931000D01*
X49403000Y-81895000D01*
X49431928Y-81895000D01*
X49444188Y-82019482D01*
X49480498Y-82139180D01*
X49539463Y-82249494D01*
X49618815Y-82346185D01*
X49715506Y-82425537D01*
X49825820Y-82484502D01*
X49945518Y-82520812D01*
X50070000Y-82533072D01*
X51784250Y-82530000D01*
X51943000Y-82371250D01*
X51943000Y-80772000D01*
X52197000Y-80772000D01*
X52197000Y-82371250D01*
X52355750Y-82530000D01*
X54070000Y-82533072D01*
X54194482Y-82520812D01*
X54314180Y-82484502D01*
X54424494Y-82425537D01*
X54521185Y-82346185D01*
X54600537Y-82249494D01*
X54659502Y-82139180D01*
X54695812Y-82019482D01*
X54708072Y-81895000D01*
X54707690Y-81775000D01*
X55001928Y-81775000D01*
X55014188Y-81899482D01*
X55050498Y-82019180D01*
X55109463Y-82129494D01*
X55188815Y-82226185D01*
X55285506Y-82305537D01*
X55395820Y-82364502D01*
X55515518Y-82400812D01*
X55640000Y-82413072D01*
X56229250Y-82410000D01*
X56388000Y-82251250D01*
X56388000Y-81277000D01*
X56642000Y-81277000D01*
X56642000Y-82251250D01*
X56800750Y-82410000D01*
X57390000Y-82413072D01*
X57514482Y-82400812D01*
X57634180Y-82364502D01*
X57744494Y-82305537D01*
X57841185Y-82226185D01*
X57920537Y-82129494D01*
X57979502Y-82019180D01*
X58015812Y-81899482D01*
X58028072Y-81775000D01*
X58025000Y-81435750D01*
X57866250Y-81277000D01*
X56642000Y-81277000D01*
X56388000Y-81277000D01*
X55163750Y-81277000D01*
X55005000Y-81435750D01*
X55001928Y-81775000D01*
X54707690Y-81775000D01*
X54705000Y-80930750D01*
X54546250Y-80772000D01*
X52197000Y-80772000D01*
X51943000Y-80772000D01*
X49593750Y-80772000D01*
X49435000Y-80930750D01*
X49431928Y-81895000D01*
X49403000Y-81895000D01*
X49403000Y-80525000D01*
X55001928Y-80525000D01*
X55005000Y-80864250D01*
X55163750Y-81023000D01*
X56388000Y-81023000D01*
X56388000Y-80048750D01*
X56642000Y-80048750D01*
X56642000Y-81023000D01*
X57866250Y-81023000D01*
X58025000Y-80864250D01*
X58028072Y-80525000D01*
X58015812Y-80400518D01*
X57979502Y-80280820D01*
X57920537Y-80170506D01*
X57841185Y-80073815D01*
X57744494Y-79994463D01*
X57634180Y-79935498D01*
X57514482Y-79899188D01*
X57390000Y-79886928D01*
X56800750Y-79890000D01*
X56642000Y-80048750D01*
X56388000Y-80048750D01*
X56229250Y-79890000D01*
X55640000Y-79886928D01*
X55515518Y-79899188D01*
X55395820Y-79935498D01*
X55285506Y-79994463D01*
X55188815Y-80073815D01*
X55109463Y-80170506D01*
X55050498Y-80280820D01*
X55014188Y-80400518D01*
X55001928Y-80525000D01*
X49403000Y-80525000D01*
X49403000Y-79395000D01*
X49431928Y-79395000D01*
X49435000Y-80359250D01*
X49593750Y-80518000D01*
X51943000Y-80518000D01*
X51943000Y-78918750D01*
X52197000Y-78918750D01*
X52197000Y-80518000D01*
X54546250Y-80518000D01*
X54705000Y-80359250D01*
X54708072Y-79395000D01*
X54695812Y-79270518D01*
X54659502Y-79150820D01*
X54600537Y-79040506D01*
X54521185Y-78943815D01*
X54424494Y-78864463D01*
X54314180Y-78805498D01*
X54194482Y-78769188D01*
X54070000Y-78756928D01*
X52355750Y-78760000D01*
X52197000Y-78918750D01*
X51943000Y-78918750D01*
X51784250Y-78760000D01*
X50070000Y-78756928D01*
X49945518Y-78769188D01*
X49825820Y-78805498D01*
X49715506Y-78864463D01*
X49618815Y-78943815D01*
X49539463Y-79040506D01*
X49480498Y-79150820D01*
X49444188Y-79270518D01*
X49431928Y-79395000D01*
X49403000Y-79395000D01*
X49403000Y-78613000D01*
X54152227Y-78613000D01*
X54208836Y-78659458D01*
X54361291Y-78740947D01*
X54526715Y-78791128D01*
X54698750Y-78808072D01*
X55186250Y-78808072D01*
X55358285Y-78791128D01*
X55523709Y-78740947D01*
X55676164Y-78659458D01*
X55732773Y-78613000D01*
X55872098Y-78613000D01*
X55878815Y-78621185D01*
X55975506Y-78700537D01*
X56085820Y-78759502D01*
X56205518Y-78795812D01*
X56330000Y-78808072D01*
X56531750Y-78805000D01*
X56690500Y-78646250D01*
X56690500Y-77597000D01*
X56944500Y-77597000D01*
X56944500Y-78646250D01*
X57103250Y-78805000D01*
X57305000Y-78808072D01*
X57429482Y-78795812D01*
X57549180Y-78759502D01*
X57659494Y-78700537D01*
X57756185Y-78621185D01*
X57835537Y-78524494D01*
X57894502Y-78414180D01*
X57930812Y-78294482D01*
X57943072Y-78170000D01*
X57940000Y-77755750D01*
X57781250Y-77597000D01*
X56944500Y-77597000D01*
X56690500Y-77597000D01*
X56670500Y-77597000D01*
X56670500Y-77343000D01*
X56690500Y-77343000D01*
X56690500Y-76293750D01*
X56944500Y-76293750D01*
X56944500Y-77343000D01*
X57781250Y-77343000D01*
X57940000Y-77184250D01*
X57943072Y-76770000D01*
X57930812Y-76645518D01*
X57894502Y-76525820D01*
X57835537Y-76415506D01*
X57756185Y-76318815D01*
X57659494Y-76239463D01*
X57549180Y-76180498D01*
X57429482Y-76144188D01*
X57305000Y-76131928D01*
X57103250Y-76135000D01*
X56944500Y-76293750D01*
X56690500Y-76293750D01*
X56531750Y-76135000D01*
X56330000Y-76131928D01*
X56261000Y-76138724D01*
X56261000Y-75907404D01*
X56624250Y-75905000D01*
X56783000Y-75746250D01*
X56783000Y-74397000D01*
X57037000Y-74397000D01*
X57037000Y-75746250D01*
X57195750Y-75905000D01*
X57660000Y-75908072D01*
X57784482Y-75895812D01*
X57904180Y-75859502D01*
X58014494Y-75800537D01*
X58111185Y-75721185D01*
X58190537Y-75624494D01*
X58249502Y-75514180D01*
X58285812Y-75394482D01*
X58298072Y-75270000D01*
X58295000Y-74555750D01*
X58136250Y-74397000D01*
X57037000Y-74397000D01*
X56783000Y-74397000D01*
X56763000Y-74397000D01*
X56763000Y-74143000D01*
X56783000Y-74143000D01*
X56783000Y-72793750D01*
X57037000Y-72793750D01*
X57037000Y-74143000D01*
X58136250Y-74143000D01*
X58295000Y-73984250D01*
X58298072Y-73270000D01*
X58285812Y-73145518D01*
X58249502Y-73025820D01*
X58190537Y-72915506D01*
X58111185Y-72818815D01*
X58014494Y-72739463D01*
X57904180Y-72680498D01*
X57784482Y-72644188D01*
X57660000Y-72631928D01*
X57195750Y-72635000D01*
X57037000Y-72793750D01*
X56783000Y-72793750D01*
X56624250Y-72635000D01*
X56261000Y-72632596D01*
X56261000Y-71501000D01*
X58395001Y-71501000D01*
X58395000Y-82931000D01*
G36*
X55163750Y-83823000D02*
G01*
X56388000Y-83823000D01*
X56388000Y-83803000D01*
X56642000Y-83803000D01*
X56642000Y-83823000D01*
X57866250Y-83823000D01*
X57996250Y-83693000D01*
X58395000Y-83693000D01*
X58395000Y-89375721D01*
X58380278Y-89525869D01*
X58346047Y-89639246D01*
X58290446Y-89743817D01*
X58215594Y-89835595D01*
X58124335Y-89911091D01*
X58020160Y-89967419D01*
X57907024Y-90002440D01*
X57758979Y-90018000D01*
X54229000Y-90018000D01*
X54229000Y-88498680D01*
X54500248Y-88498680D01*
X54512508Y-88623162D01*
X54548818Y-88742860D01*
X54607783Y-88853174D01*
X54687135Y-88949865D01*
X54783826Y-89029217D01*
X54894140Y-89088182D01*
X55013838Y-89124492D01*
X55138320Y-89136752D01*
X56102250Y-89133680D01*
X56261000Y-88974930D01*
X56261000Y-87376000D01*
X56515000Y-87376000D01*
X56515000Y-88974930D01*
X56673750Y-89133680D01*
X57637680Y-89136752D01*
X57762162Y-89124492D01*
X57881860Y-89088182D01*
X57992174Y-89029217D01*
X58088865Y-88949865D01*
X58168217Y-88853174D01*
X58227182Y-88742860D01*
X58263492Y-88623162D01*
X58275752Y-88498680D01*
X58272680Y-87534750D01*
X58113930Y-87376000D01*
X56515000Y-87376000D01*
X56261000Y-87376000D01*
X54662070Y-87376000D01*
X54503320Y-87534750D01*
X54500248Y-88498680D01*
X54229000Y-88498680D01*
X54229000Y-88170439D01*
X54248182Y-88141731D01*
X54390253Y-87798741D01*
X54462680Y-87434625D01*
X54462680Y-87063375D01*
X54390253Y-86699259D01*
X54248182Y-86356269D01*
X54229000Y-86327561D01*
X54229000Y-85999320D01*
X54500248Y-85999320D01*
X54503320Y-86963250D01*
X54662070Y-87122000D01*
X56261000Y-87122000D01*
X56261000Y-85523070D01*
X56515000Y-85523070D01*
X56515000Y-87122000D01*
X58113930Y-87122000D01*
X58272680Y-86963250D01*
X58275752Y-85999320D01*
X58263492Y-85874838D01*
X58227182Y-85755140D01*
X58168217Y-85644826D01*
X58088865Y-85548135D01*
X57992174Y-85468783D01*
X57881860Y-85409818D01*
X57762162Y-85373508D01*
X57637680Y-85361248D01*
X56673750Y-85364320D01*
X56515000Y-85523070D01*
X56261000Y-85523070D01*
X56102250Y-85364320D01*
X55138320Y-85361248D01*
X55013838Y-85373508D01*
X54894140Y-85409818D01*
X54783826Y-85468783D01*
X54687135Y-85548135D01*
X54607783Y-85644826D01*
X54548818Y-85755140D01*
X54512508Y-85874838D01*
X54500248Y-85999320D01*
X54229000Y-85999320D01*
X54229000Y-84575000D01*
X55001928Y-84575000D01*
X55014188Y-84699482D01*
X55050498Y-84819180D01*
X55109463Y-84929494D01*
X55188815Y-85026185D01*
X55285506Y-85105537D01*
X55395820Y-85164502D01*
X55515518Y-85200812D01*
X55640000Y-85213072D01*
X56229250Y-85210000D01*
X56388000Y-85051250D01*
X56388000Y-84077000D01*
X56642000Y-84077000D01*
X56642000Y-85051250D01*
X56800750Y-85210000D01*
X57390000Y-85213072D01*
X57514482Y-85200812D01*
X57634180Y-85164502D01*
X57744494Y-85105537D01*
X57841185Y-85026185D01*
X57920537Y-84929494D01*
X57979502Y-84819180D01*
X58015812Y-84699482D01*
X58028072Y-84575000D01*
X58025000Y-84235750D01*
X57866250Y-84077000D01*
X56642000Y-84077000D01*
X56388000Y-84077000D01*
X55163750Y-84077000D01*
X55005000Y-84235750D01*
X55001928Y-84575000D01*
X54229000Y-84575000D01*
X54229000Y-83693000D01*
X55033750Y-83693000D01*
X55163750Y-83823000D01*
X55163750Y-83823000D01*
G37*
X55163750Y-83823000D02*
X56388000Y-83823000D01*
X56388000Y-83803000D01*
X56642000Y-83803000D01*
X56642000Y-83823000D01*
X57866250Y-83823000D01*
X57996250Y-83693000D01*
X58395000Y-83693000D01*
X58395000Y-89375721D01*
X58380278Y-89525869D01*
X58346047Y-89639246D01*
X58290446Y-89743817D01*
X58215594Y-89835595D01*
X58124335Y-89911091D01*
X58020160Y-89967419D01*
X57907024Y-90002440D01*
X57758979Y-90018000D01*
X54229000Y-90018000D01*
X54229000Y-88498680D01*
X54500248Y-88498680D01*
X54512508Y-88623162D01*
X54548818Y-88742860D01*
X54607783Y-88853174D01*
X54687135Y-88949865D01*
X54783826Y-89029217D01*
X54894140Y-89088182D01*
X55013838Y-89124492D01*
X55138320Y-89136752D01*
X56102250Y-89133680D01*
X56261000Y-88974930D01*
X56261000Y-87376000D01*
X56515000Y-87376000D01*
X56515000Y-88974930D01*
X56673750Y-89133680D01*
X57637680Y-89136752D01*
X57762162Y-89124492D01*
X57881860Y-89088182D01*
X57992174Y-89029217D01*
X58088865Y-88949865D01*
X58168217Y-88853174D01*
X58227182Y-88742860D01*
X58263492Y-88623162D01*
X58275752Y-88498680D01*
X58272680Y-87534750D01*
X58113930Y-87376000D01*
X56515000Y-87376000D01*
X56261000Y-87376000D01*
X54662070Y-87376000D01*
X54503320Y-87534750D01*
X54500248Y-88498680D01*
X54229000Y-88498680D01*
X54229000Y-88170439D01*
X54248182Y-88141731D01*
X54390253Y-87798741D01*
X54462680Y-87434625D01*
X54462680Y-87063375D01*
X54390253Y-86699259D01*
X54248182Y-86356269D01*
X54229000Y-86327561D01*
X54229000Y-85999320D01*
X54500248Y-85999320D01*
X54503320Y-86963250D01*
X54662070Y-87122000D01*
X56261000Y-87122000D01*
X56261000Y-85523070D01*
X56515000Y-85523070D01*
X56515000Y-87122000D01*
X58113930Y-87122000D01*
X58272680Y-86963250D01*
X58275752Y-85999320D01*
X58263492Y-85874838D01*
X58227182Y-85755140D01*
X58168217Y-85644826D01*
X58088865Y-85548135D01*
X57992174Y-85468783D01*
X57881860Y-85409818D01*
X57762162Y-85373508D01*
X57637680Y-85361248D01*
X56673750Y-85364320D01*
X56515000Y-85523070D01*
X56261000Y-85523070D01*
X56102250Y-85364320D01*
X55138320Y-85361248D01*
X55013838Y-85373508D01*
X54894140Y-85409818D01*
X54783826Y-85468783D01*
X54687135Y-85548135D01*
X54607783Y-85644826D01*
X54548818Y-85755140D01*
X54512508Y-85874838D01*
X54500248Y-85999320D01*
X54229000Y-85999320D01*
X54229000Y-84575000D01*
X55001928Y-84575000D01*
X55014188Y-84699482D01*
X55050498Y-84819180D01*
X55109463Y-84929494D01*
X55188815Y-85026185D01*
X55285506Y-85105537D01*
X55395820Y-85164502D01*
X55515518Y-85200812D01*
X55640000Y-85213072D01*
X56229250Y-85210000D01*
X56388000Y-85051250D01*
X56388000Y-84077000D01*
X56642000Y-84077000D01*
X56642000Y-85051250D01*
X56800750Y-85210000D01*
X57390000Y-85213072D01*
X57514482Y-85200812D01*
X57634180Y-85164502D01*
X57744494Y-85105537D01*
X57841185Y-85026185D01*
X57920537Y-84929494D01*
X57979502Y-84819180D01*
X58015812Y-84699482D01*
X58028072Y-84575000D01*
X58025000Y-84235750D01*
X57866250Y-84077000D01*
X56642000Y-84077000D01*
X56388000Y-84077000D01*
X55163750Y-84077000D01*
X55005000Y-84235750D01*
X55001928Y-84575000D01*
X54229000Y-84575000D01*
X54229000Y-83693000D01*
X55033750Y-83693000D01*
X55163750Y-83823000D01*
G36*
X57902869Y-54268722D02*
G01*
X58016246Y-54302953D01*
X58120819Y-54358555D01*
X58212596Y-54433407D01*
X58288091Y-54524664D01*
X58344419Y-54628844D01*
X58379440Y-54741976D01*
X58395001Y-54890031D01*
X58395001Y-70612000D01*
X55626000Y-70612000D01*
X55601224Y-70614440D01*
X55577399Y-70621667D01*
X55555443Y-70633403D01*
X55536197Y-70649197D01*
X55520403Y-70668443D01*
X55508667Y-70690399D01*
X55501440Y-70714224D01*
X55499000Y-70739000D01*
X55499000Y-72648592D01*
X55484482Y-72644188D01*
X55360000Y-72631928D01*
X54895750Y-72635000D01*
X54737000Y-72793750D01*
X54737000Y-72898000D01*
X54483000Y-72898000D01*
X54483000Y-72793750D01*
X54324250Y-72635000D01*
X53860000Y-72631928D01*
X53735518Y-72644188D01*
X53721000Y-72648592D01*
X53721000Y-70739000D01*
X53718560Y-70714224D01*
X53711333Y-70690399D01*
X53699597Y-70668443D01*
X53683803Y-70649197D01*
X53664557Y-70633403D01*
X53642601Y-70621667D01*
X53618776Y-70614440D01*
X53594000Y-70612000D01*
X50739450Y-70612000D01*
X50738000Y-70516750D01*
X50579250Y-70358000D01*
X49530000Y-70358000D01*
X49530000Y-70378000D01*
X49276000Y-70378000D01*
X49276000Y-70358000D01*
X48226750Y-70358000D01*
X48068000Y-70516750D01*
X48066550Y-70612000D01*
X48007893Y-70612000D01*
X48020743Y-69743500D01*
X48064928Y-69743500D01*
X48068000Y-69945250D01*
X48226750Y-70104000D01*
X49276000Y-70104000D01*
X49276000Y-69267250D01*
X49530000Y-69267250D01*
X49530000Y-70104000D01*
X50579250Y-70104000D01*
X50738000Y-69945250D01*
X50741072Y-69743500D01*
X50728812Y-69619018D01*
X50692502Y-69499320D01*
X50633537Y-69389006D01*
X50554185Y-69292315D01*
X50457494Y-69212963D01*
X50347180Y-69153998D01*
X50227482Y-69117688D01*
X50103000Y-69105428D01*
X49688750Y-69108500D01*
X49530000Y-69267250D01*
X49276000Y-69267250D01*
X49117250Y-69108500D01*
X48703000Y-69105428D01*
X48578518Y-69117688D01*
X48458820Y-69153998D01*
X48348506Y-69212963D01*
X48251815Y-69292315D01*
X48172463Y-69389006D01*
X48113498Y-69499320D01*
X48077188Y-69619018D01*
X48064928Y-69743500D01*
X48020743Y-69743500D01*
X48032187Y-68970000D01*
X52071928Y-68970000D01*
X52084188Y-69094482D01*
X52120498Y-69214180D01*
X52179463Y-69324494D01*
X52258815Y-69421185D01*
X52355506Y-69500537D01*
X52465820Y-69559502D01*
X52585518Y-69595812D01*
X52710000Y-69608072D01*
X54324250Y-69605000D01*
X54483000Y-69446250D01*
X54483000Y-68097000D01*
X54737000Y-68097000D01*
X54737000Y-69446250D01*
X54895750Y-69605000D01*
X56510000Y-69608072D01*
X56634482Y-69595812D01*
X56754180Y-69559502D01*
X56864494Y-69500537D01*
X56961185Y-69421185D01*
X57040537Y-69324494D01*
X57099502Y-69214180D01*
X57135812Y-69094482D01*
X57148072Y-68970000D01*
X57145000Y-68255750D01*
X56986250Y-68097000D01*
X54737000Y-68097000D01*
X54483000Y-68097000D01*
X52233750Y-68097000D01*
X52075000Y-68255750D01*
X52071928Y-68970000D01*
X48032187Y-68970000D01*
X48056681Y-67314564D01*
X48098628Y-67176285D01*
X48115572Y-67004250D01*
X48115572Y-66970000D01*
X52071928Y-66970000D01*
X52075000Y-67684250D01*
X52233750Y-67843000D01*
X54483000Y-67843000D01*
X54483000Y-66493750D01*
X54737000Y-66493750D01*
X54737000Y-67843000D01*
X56986250Y-67843000D01*
X57145000Y-67684250D01*
X57148072Y-66970000D01*
X57135812Y-66845518D01*
X57099502Y-66725820D01*
X57040537Y-66615506D01*
X56961185Y-66518815D01*
X56864494Y-66439463D01*
X56754180Y-66380498D01*
X56634482Y-66344188D01*
X56510000Y-66331928D01*
X54895750Y-66335000D01*
X54737000Y-66493750D01*
X54483000Y-66493750D01*
X54324250Y-66335000D01*
X52710000Y-66331928D01*
X52585518Y-66344188D01*
X52465820Y-66380498D01*
X52355506Y-66439463D01*
X52258815Y-66518815D01*
X52179463Y-66615506D01*
X52120498Y-66725820D01*
X52084188Y-66845518D01*
X52071928Y-66970000D01*
X48115572Y-66970000D01*
X48115572Y-66091750D01*
X48098628Y-65919715D01*
X48078310Y-65852737D01*
X48092754Y-64876500D01*
X49334928Y-64876500D01*
X49347188Y-65000982D01*
X49383498Y-65120680D01*
X49442463Y-65230994D01*
X49521815Y-65327685D01*
X49618506Y-65407037D01*
X49728820Y-65466002D01*
X49848518Y-65502312D01*
X49973000Y-65514572D01*
X50387250Y-65511500D01*
X50546000Y-65352750D01*
X50546000Y-64516000D01*
X50800000Y-64516000D01*
X50800000Y-65352750D01*
X50958750Y-65511500D01*
X51373000Y-65514572D01*
X51497482Y-65502312D01*
X51617180Y-65466002D01*
X51727494Y-65407037D01*
X51824185Y-65327685D01*
X51903537Y-65230994D01*
X51962502Y-65120680D01*
X51998812Y-65000982D01*
X52011072Y-64876500D01*
X52128928Y-64876500D01*
X52141188Y-65000982D01*
X52177498Y-65120680D01*
X52236463Y-65230994D01*
X52315815Y-65327685D01*
X52412506Y-65407037D01*
X52522820Y-65466002D01*
X52642518Y-65502312D01*
X52767000Y-65514572D01*
X53181250Y-65511500D01*
X53340000Y-65352750D01*
X53340000Y-64516000D01*
X52290750Y-64516000D01*
X52132000Y-64674750D01*
X52128928Y-64876500D01*
X52011072Y-64876500D01*
X52008000Y-64674750D01*
X51849250Y-64516000D01*
X50800000Y-64516000D01*
X50546000Y-64516000D01*
X49496750Y-64516000D01*
X49338000Y-64674750D01*
X49334928Y-64876500D01*
X48092754Y-64876500D01*
X48101876Y-64260000D01*
X49494750Y-64260000D01*
X49496750Y-64262000D01*
X49669984Y-64262000D01*
X49687000Y-64263676D01*
X49704016Y-64262000D01*
X50546000Y-64262000D01*
X50546000Y-64242000D01*
X50800000Y-64242000D01*
X50800000Y-64262000D01*
X51849250Y-64262000D01*
X52008000Y-64103250D01*
X52011072Y-63901500D01*
X51998812Y-63777018D01*
X51991865Y-63754118D01*
X52148131Y-63754131D01*
X52141188Y-63777018D01*
X52128928Y-63901500D01*
X52132000Y-64103250D01*
X52290750Y-64262000D01*
X53340000Y-64262000D01*
X53340000Y-64242000D01*
X53594000Y-64242000D01*
X53594000Y-64262000D01*
X53614000Y-64262000D01*
X53614000Y-64516000D01*
X53594000Y-64516000D01*
X53594000Y-65352750D01*
X53752750Y-65511500D01*
X54167000Y-65514572D01*
X54291482Y-65502312D01*
X54411180Y-65466002D01*
X54521494Y-65407037D01*
X54618185Y-65327685D01*
X54697537Y-65230994D01*
X54718200Y-65192337D01*
X54826659Y-65281346D01*
X55002120Y-65375132D01*
X55019248Y-65380328D01*
X55060836Y-65414458D01*
X55213291Y-65495947D01*
X55378715Y-65546128D01*
X55550750Y-65563072D01*
X56463250Y-65563072D01*
X56635285Y-65546128D01*
X56800709Y-65495947D01*
X56953164Y-65414458D01*
X57086792Y-65304792D01*
X57196458Y-65171164D01*
X57277947Y-65018709D01*
X57328128Y-64853285D01*
X57345072Y-64681250D01*
X57345072Y-64193750D01*
X57328128Y-64021715D01*
X57277947Y-63856291D01*
X57196458Y-63703836D01*
X57086792Y-63570208D01*
X57001244Y-63500000D01*
X57086792Y-63429792D01*
X57196458Y-63296164D01*
X57277947Y-63143709D01*
X57328128Y-62978285D01*
X57345072Y-62806250D01*
X57345072Y-62318750D01*
X57328128Y-62146715D01*
X57277947Y-61981291D01*
X57196458Y-61828836D01*
X57086792Y-61695208D01*
X56953164Y-61585542D01*
X56800709Y-61504053D01*
X56635285Y-61453872D01*
X56489106Y-61439475D01*
X55745000Y-60695369D01*
X55745000Y-60012817D01*
X55850706Y-59884014D01*
X55988599Y-59626034D01*
X56073513Y-59346111D01*
X56102185Y-59055000D01*
X56073513Y-58763889D01*
X55988599Y-58483966D01*
X55850706Y-58225986D01*
X55665134Y-57999866D01*
X55635313Y-57975393D01*
X55704180Y-57954502D01*
X55814494Y-57895537D01*
X55911185Y-57816185D01*
X55990537Y-57719494D01*
X56049502Y-57609180D01*
X56085812Y-57489482D01*
X56098072Y-57365000D01*
X56098072Y-55665000D01*
X56085812Y-55540518D01*
X56049502Y-55420820D01*
X55990537Y-55310506D01*
X55911185Y-55213815D01*
X55814494Y-55134463D01*
X55704180Y-55075498D01*
X55584482Y-55039188D01*
X55460000Y-55026928D01*
X53760000Y-55026928D01*
X53635518Y-55039188D01*
X53515820Y-55075498D01*
X53405506Y-55134463D01*
X53308815Y-55213815D01*
X53229463Y-55310506D01*
X53170498Y-55420820D01*
X53146034Y-55501466D01*
X53070269Y-55417412D01*
X52836920Y-55243359D01*
X52574099Y-55118175D01*
X52426890Y-55073524D01*
X52197000Y-55194845D01*
X52197000Y-56388000D01*
X52217000Y-56388000D01*
X52217000Y-56642000D01*
X52197000Y-56642000D01*
X52197000Y-56662000D01*
X51943000Y-56662000D01*
X51943000Y-56642000D01*
X49657000Y-56642000D01*
X49657000Y-56662000D01*
X49403000Y-56662000D01*
X49403000Y-56642000D01*
X47117000Y-56642000D01*
X47117000Y-56662000D01*
X46863000Y-56662000D01*
X46863000Y-56642000D01*
X45669186Y-56642000D01*
X45548519Y-56871891D01*
X45645843Y-57146252D01*
X45723726Y-57277000D01*
X45400276Y-57277000D01*
X45407072Y-57208000D01*
X45404000Y-57006250D01*
X45245250Y-56847500D01*
X44196000Y-56847500D01*
X44196000Y-56867500D01*
X43942000Y-56867500D01*
X43942000Y-56847500D01*
X43922000Y-56847500D01*
X43922000Y-56593500D01*
X43942000Y-56593500D01*
X43942000Y-55756750D01*
X44196000Y-55756750D01*
X44196000Y-56593500D01*
X45245250Y-56593500D01*
X45404000Y-56434750D01*
X45407072Y-56233000D01*
X45399697Y-56158109D01*
X45548519Y-56158109D01*
X45669186Y-56388000D01*
X46863000Y-56388000D01*
X46863000Y-55194845D01*
X47117000Y-55194845D01*
X47117000Y-56388000D01*
X49403000Y-56388000D01*
X49403000Y-55194845D01*
X49657000Y-55194845D01*
X49657000Y-56388000D01*
X51943000Y-56388000D01*
X51943000Y-55194845D01*
X51713110Y-55073524D01*
X51565901Y-55118175D01*
X51303080Y-55243359D01*
X51069731Y-55417412D01*
X50874822Y-55633645D01*
X50800000Y-55759255D01*
X50725178Y-55633645D01*
X50530269Y-55417412D01*
X50296920Y-55243359D01*
X50034099Y-55118175D01*
X49886890Y-55073524D01*
X49657000Y-55194845D01*
X49403000Y-55194845D01*
X49173110Y-55073524D01*
X49025901Y-55118175D01*
X48763080Y-55243359D01*
X48529731Y-55417412D01*
X48334822Y-55633645D01*
X48260000Y-55759255D01*
X48185178Y-55633645D01*
X47990269Y-55417412D01*
X47756920Y-55243359D01*
X47494099Y-55118175D01*
X47346890Y-55073524D01*
X47117000Y-55194845D01*
X46863000Y-55194845D01*
X46633110Y-55073524D01*
X46485901Y-55118175D01*
X46223080Y-55243359D01*
X45989731Y-55417412D01*
X45794822Y-55633645D01*
X45645843Y-55883748D01*
X45548519Y-56158109D01*
X45399697Y-56158109D01*
X45394812Y-56108518D01*
X45358502Y-55988820D01*
X45299537Y-55878506D01*
X45220185Y-55781815D01*
X45123494Y-55702463D01*
X45013180Y-55643498D01*
X44893482Y-55607188D01*
X44769000Y-55594928D01*
X44354750Y-55598000D01*
X44196000Y-55756750D01*
X43942000Y-55756750D01*
X43783250Y-55598000D01*
X43369000Y-55594928D01*
X43244518Y-55607188D01*
X43205000Y-55619176D01*
X43205000Y-54896279D01*
X43219722Y-54746131D01*
X43253953Y-54632754D01*
X43309555Y-54528181D01*
X43384407Y-54436404D01*
X43475664Y-54360909D01*
X43579844Y-54304581D01*
X43692976Y-54269560D01*
X43841022Y-54254000D01*
X57752721Y-54254000D01*
X57902869Y-54268722D01*
X57902869Y-54268722D01*
G37*
X57902869Y-54268722D02*
X58016246Y-54302953D01*
X58120819Y-54358555D01*
X58212596Y-54433407D01*
X58288091Y-54524664D01*
X58344419Y-54628844D01*
X58379440Y-54741976D01*
X58395001Y-54890031D01*
X58395001Y-70612000D01*
X55626000Y-70612000D01*
X55601224Y-70614440D01*
X55577399Y-70621667D01*
X55555443Y-70633403D01*
X55536197Y-70649197D01*
X55520403Y-70668443D01*
X55508667Y-70690399D01*
X55501440Y-70714224D01*
X55499000Y-70739000D01*
X55499000Y-72648592D01*
X55484482Y-72644188D01*
X55360000Y-72631928D01*
X54895750Y-72635000D01*
X54737000Y-72793750D01*
X54737000Y-72898000D01*
X54483000Y-72898000D01*
X54483000Y-72793750D01*
X54324250Y-72635000D01*
X53860000Y-72631928D01*
X53735518Y-72644188D01*
X53721000Y-72648592D01*
X53721000Y-70739000D01*
X53718560Y-70714224D01*
X53711333Y-70690399D01*
X53699597Y-70668443D01*
X53683803Y-70649197D01*
X53664557Y-70633403D01*
X53642601Y-70621667D01*
X53618776Y-70614440D01*
X53594000Y-70612000D01*
X50739450Y-70612000D01*
X50738000Y-70516750D01*
X50579250Y-70358000D01*
X49530000Y-70358000D01*
X49530000Y-70378000D01*
X49276000Y-70378000D01*
X49276000Y-70358000D01*
X48226750Y-70358000D01*
X48068000Y-70516750D01*
X48066550Y-70612000D01*
X48007893Y-70612000D01*
X48020743Y-69743500D01*
X48064928Y-69743500D01*
X48068000Y-69945250D01*
X48226750Y-70104000D01*
X49276000Y-70104000D01*
X49276000Y-69267250D01*
X49530000Y-69267250D01*
X49530000Y-70104000D01*
X50579250Y-70104000D01*
X50738000Y-69945250D01*
X50741072Y-69743500D01*
X50728812Y-69619018D01*
X50692502Y-69499320D01*
X50633537Y-69389006D01*
X50554185Y-69292315D01*
X50457494Y-69212963D01*
X50347180Y-69153998D01*
X50227482Y-69117688D01*
X50103000Y-69105428D01*
X49688750Y-69108500D01*
X49530000Y-69267250D01*
X49276000Y-69267250D01*
X49117250Y-69108500D01*
X48703000Y-69105428D01*
X48578518Y-69117688D01*
X48458820Y-69153998D01*
X48348506Y-69212963D01*
X48251815Y-69292315D01*
X48172463Y-69389006D01*
X48113498Y-69499320D01*
X48077188Y-69619018D01*
X48064928Y-69743500D01*
X48020743Y-69743500D01*
X48032187Y-68970000D01*
X52071928Y-68970000D01*
X52084188Y-69094482D01*
X52120498Y-69214180D01*
X52179463Y-69324494D01*
X52258815Y-69421185D01*
X52355506Y-69500537D01*
X52465820Y-69559502D01*
X52585518Y-69595812D01*
X52710000Y-69608072D01*
X54324250Y-69605000D01*
X54483000Y-69446250D01*
X54483000Y-68097000D01*
X54737000Y-68097000D01*
X54737000Y-69446250D01*
X54895750Y-69605000D01*
X56510000Y-69608072D01*
X56634482Y-69595812D01*
X56754180Y-69559502D01*
X56864494Y-69500537D01*
X56961185Y-69421185D01*
X57040537Y-69324494D01*
X57099502Y-69214180D01*
X57135812Y-69094482D01*
X57148072Y-68970000D01*
X57145000Y-68255750D01*
X56986250Y-68097000D01*
X54737000Y-68097000D01*
X54483000Y-68097000D01*
X52233750Y-68097000D01*
X52075000Y-68255750D01*
X52071928Y-68970000D01*
X48032187Y-68970000D01*
X48056681Y-67314564D01*
X48098628Y-67176285D01*
X48115572Y-67004250D01*
X48115572Y-66970000D01*
X52071928Y-66970000D01*
X52075000Y-67684250D01*
X52233750Y-67843000D01*
X54483000Y-67843000D01*
X54483000Y-66493750D01*
X54737000Y-66493750D01*
X54737000Y-67843000D01*
X56986250Y-67843000D01*
X57145000Y-67684250D01*
X57148072Y-66970000D01*
X57135812Y-66845518D01*
X57099502Y-66725820D01*
X57040537Y-66615506D01*
X56961185Y-66518815D01*
X56864494Y-66439463D01*
X56754180Y-66380498D01*
X56634482Y-66344188D01*
X56510000Y-66331928D01*
X54895750Y-66335000D01*
X54737000Y-66493750D01*
X54483000Y-66493750D01*
X54324250Y-66335000D01*
X52710000Y-66331928D01*
X52585518Y-66344188D01*
X52465820Y-66380498D01*
X52355506Y-66439463D01*
X52258815Y-66518815D01*
X52179463Y-66615506D01*
X52120498Y-66725820D01*
X52084188Y-66845518D01*
X52071928Y-66970000D01*
X48115572Y-66970000D01*
X48115572Y-66091750D01*
X48098628Y-65919715D01*
X48078310Y-65852737D01*
X48092754Y-64876500D01*
X49334928Y-64876500D01*
X49347188Y-65000982D01*
X49383498Y-65120680D01*
X49442463Y-65230994D01*
X49521815Y-65327685D01*
X49618506Y-65407037D01*
X49728820Y-65466002D01*
X49848518Y-65502312D01*
X49973000Y-65514572D01*
X50387250Y-65511500D01*
X50546000Y-65352750D01*
X50546000Y-64516000D01*
X50800000Y-64516000D01*
X50800000Y-65352750D01*
X50958750Y-65511500D01*
X51373000Y-65514572D01*
X51497482Y-65502312D01*
X51617180Y-65466002D01*
X51727494Y-65407037D01*
X51824185Y-65327685D01*
X51903537Y-65230994D01*
X51962502Y-65120680D01*
X51998812Y-65000982D01*
X52011072Y-64876500D01*
X52128928Y-64876500D01*
X52141188Y-65000982D01*
X52177498Y-65120680D01*
X52236463Y-65230994D01*
X52315815Y-65327685D01*
X52412506Y-65407037D01*
X52522820Y-65466002D01*
X52642518Y-65502312D01*
X52767000Y-65514572D01*
X53181250Y-65511500D01*
X53340000Y-65352750D01*
X53340000Y-64516000D01*
X52290750Y-64516000D01*
X52132000Y-64674750D01*
X52128928Y-64876500D01*
X52011072Y-64876500D01*
X52008000Y-64674750D01*
X51849250Y-64516000D01*
X50800000Y-64516000D01*
X50546000Y-64516000D01*
X49496750Y-64516000D01*
X49338000Y-64674750D01*
X49334928Y-64876500D01*
X48092754Y-64876500D01*
X48101876Y-64260000D01*
X49494750Y-64260000D01*
X49496750Y-64262000D01*
X49669984Y-64262000D01*
X49687000Y-64263676D01*
X49704016Y-64262000D01*
X50546000Y-64262000D01*
X50546000Y-64242000D01*
X50800000Y-64242000D01*
X50800000Y-64262000D01*
X51849250Y-64262000D01*
X52008000Y-64103250D01*
X52011072Y-63901500D01*
X51998812Y-63777018D01*
X51991865Y-63754118D01*
X52148131Y-63754131D01*
X52141188Y-63777018D01*
X52128928Y-63901500D01*
X52132000Y-64103250D01*
X52290750Y-64262000D01*
X53340000Y-64262000D01*
X53340000Y-64242000D01*
X53594000Y-64242000D01*
X53594000Y-64262000D01*
X53614000Y-64262000D01*
X53614000Y-64516000D01*
X53594000Y-64516000D01*
X53594000Y-65352750D01*
X53752750Y-65511500D01*
X54167000Y-65514572D01*
X54291482Y-65502312D01*
X54411180Y-65466002D01*
X54521494Y-65407037D01*
X54618185Y-65327685D01*
X54697537Y-65230994D01*
X54718200Y-65192337D01*
X54826659Y-65281346D01*
X55002120Y-65375132D01*
X55019248Y-65380328D01*
X55060836Y-65414458D01*
X55213291Y-65495947D01*
X55378715Y-65546128D01*
X55550750Y-65563072D01*
X56463250Y-65563072D01*
X56635285Y-65546128D01*
X56800709Y-65495947D01*
X56953164Y-65414458D01*
X57086792Y-65304792D01*
X57196458Y-65171164D01*
X57277947Y-65018709D01*
X57328128Y-64853285D01*
X57345072Y-64681250D01*
X57345072Y-64193750D01*
X57328128Y-64021715D01*
X57277947Y-63856291D01*
X57196458Y-63703836D01*
X57086792Y-63570208D01*
X57001244Y-63500000D01*
X57086792Y-63429792D01*
X57196458Y-63296164D01*
X57277947Y-63143709D01*
X57328128Y-62978285D01*
X57345072Y-62806250D01*
X57345072Y-62318750D01*
X57328128Y-62146715D01*
X57277947Y-61981291D01*
X57196458Y-61828836D01*
X57086792Y-61695208D01*
X56953164Y-61585542D01*
X56800709Y-61504053D01*
X56635285Y-61453872D01*
X56489106Y-61439475D01*
X55745000Y-60695369D01*
X55745000Y-60012817D01*
X55850706Y-59884014D01*
X55988599Y-59626034D01*
X56073513Y-59346111D01*
X56102185Y-59055000D01*
X56073513Y-58763889D01*
X55988599Y-58483966D01*
X55850706Y-58225986D01*
X55665134Y-57999866D01*
X55635313Y-57975393D01*
X55704180Y-57954502D01*
X55814494Y-57895537D01*
X55911185Y-57816185D01*
X55990537Y-57719494D01*
X56049502Y-57609180D01*
X56085812Y-57489482D01*
X56098072Y-57365000D01*
X56098072Y-55665000D01*
X56085812Y-55540518D01*
X56049502Y-55420820D01*
X55990537Y-55310506D01*
X55911185Y-55213815D01*
X55814494Y-55134463D01*
X55704180Y-55075498D01*
X55584482Y-55039188D01*
X55460000Y-55026928D01*
X53760000Y-55026928D01*
X53635518Y-55039188D01*
X53515820Y-55075498D01*
X53405506Y-55134463D01*
X53308815Y-55213815D01*
X53229463Y-55310506D01*
X53170498Y-55420820D01*
X53146034Y-55501466D01*
X53070269Y-55417412D01*
X52836920Y-55243359D01*
X52574099Y-55118175D01*
X52426890Y-55073524D01*
X52197000Y-55194845D01*
X52197000Y-56388000D01*
X52217000Y-56388000D01*
X52217000Y-56642000D01*
X52197000Y-56642000D01*
X52197000Y-56662000D01*
X51943000Y-56662000D01*
X51943000Y-56642000D01*
X49657000Y-56642000D01*
X49657000Y-56662000D01*
X49403000Y-56662000D01*
X49403000Y-56642000D01*
X47117000Y-56642000D01*
X47117000Y-56662000D01*
X46863000Y-56662000D01*
X46863000Y-56642000D01*
X45669186Y-56642000D01*
X45548519Y-56871891D01*
X45645843Y-57146252D01*
X45723726Y-57277000D01*
X45400276Y-57277000D01*
X45407072Y-57208000D01*
X45404000Y-57006250D01*
X45245250Y-56847500D01*
X44196000Y-56847500D01*
X44196000Y-56867500D01*
X43942000Y-56867500D01*
X43942000Y-56847500D01*
X43922000Y-56847500D01*
X43922000Y-56593500D01*
X43942000Y-56593500D01*
X43942000Y-55756750D01*
X44196000Y-55756750D01*
X44196000Y-56593500D01*
X45245250Y-56593500D01*
X45404000Y-56434750D01*
X45407072Y-56233000D01*
X45399697Y-56158109D01*
X45548519Y-56158109D01*
X45669186Y-56388000D01*
X46863000Y-56388000D01*
X46863000Y-55194845D01*
X47117000Y-55194845D01*
X47117000Y-56388000D01*
X49403000Y-56388000D01*
X49403000Y-55194845D01*
X49657000Y-55194845D01*
X49657000Y-56388000D01*
X51943000Y-56388000D01*
X51943000Y-55194845D01*
X51713110Y-55073524D01*
X51565901Y-55118175D01*
X51303080Y-55243359D01*
X51069731Y-55417412D01*
X50874822Y-55633645D01*
X50800000Y-55759255D01*
X50725178Y-55633645D01*
X50530269Y-55417412D01*
X50296920Y-55243359D01*
X50034099Y-55118175D01*
X49886890Y-55073524D01*
X49657000Y-55194845D01*
X49403000Y-55194845D01*
X49173110Y-55073524D01*
X49025901Y-55118175D01*
X48763080Y-55243359D01*
X48529731Y-55417412D01*
X48334822Y-55633645D01*
X48260000Y-55759255D01*
X48185178Y-55633645D01*
X47990269Y-55417412D01*
X47756920Y-55243359D01*
X47494099Y-55118175D01*
X47346890Y-55073524D01*
X47117000Y-55194845D01*
X46863000Y-55194845D01*
X46633110Y-55073524D01*
X46485901Y-55118175D01*
X46223080Y-55243359D01*
X45989731Y-55417412D01*
X45794822Y-55633645D01*
X45645843Y-55883748D01*
X45548519Y-56158109D01*
X45399697Y-56158109D01*
X45394812Y-56108518D01*
X45358502Y-55988820D01*
X45299537Y-55878506D01*
X45220185Y-55781815D01*
X45123494Y-55702463D01*
X45013180Y-55643498D01*
X44893482Y-55607188D01*
X44769000Y-55594928D01*
X44354750Y-55598000D01*
X44196000Y-55756750D01*
X43942000Y-55756750D01*
X43783250Y-55598000D01*
X43369000Y-55594928D01*
X43244518Y-55607188D01*
X43205000Y-55619176D01*
X43205000Y-54896279D01*
X43219722Y-54746131D01*
X43253953Y-54632754D01*
X43309555Y-54528181D01*
X43384407Y-54436404D01*
X43475664Y-54360909D01*
X43579844Y-54304581D01*
X43692976Y-54269560D01*
X43841022Y-54254000D01*
X57752721Y-54254000D01*
X57902869Y-54268722D01*
M02*
