G04 #@! TF.GenerationSoftware,KiCad,Pcbnew,(5.1.2-1)-1*
G04 #@! TF.CreationDate,2019-12-06T15:49:55-08:00*
G04 #@! TF.ProjectId,pixel-stick,70697865-6c2d-4737-9469-636b2e6b6963,rev?*
G04 #@! TF.SameCoordinates,Original*
G04 #@! TF.FileFunction,Soldermask,Top*
G04 #@! TF.FilePolarity,Negative*
%FSLAX46Y46*%
G04 Gerber Fmt 4.6, Leading zero omitted, Abs format (unit mm)*
G04 Created by KiCad (PCBNEW (5.1.2-1)-1) date 2019-12-06 15:49:55*
%MOMM*%
%LPD*%
G04 APERTURE LIST*
%ADD10C,0.100000*%
G04 APERTURE END LIST*
D10*
G36*
X57688680Y-88549680D02*
G01*
X55087320Y-88549680D01*
X55087320Y-85948320D01*
X57688680Y-85948320D01*
X57688680Y-88549680D01*
X57688680Y-88549680D01*
G37*
G36*
X52957393Y-85998304D02*
G01*
X53194101Y-86096352D01*
X53194103Y-86096353D01*
X53407135Y-86238696D01*
X53588304Y-86419865D01*
X53730647Y-86632897D01*
X53730648Y-86632899D01*
X53828696Y-86869607D01*
X53878680Y-87120893D01*
X53878680Y-87377107D01*
X53828696Y-87628393D01*
X53730648Y-87865101D01*
X53730647Y-87865103D01*
X53588304Y-88078135D01*
X53407135Y-88259304D01*
X53194103Y-88401647D01*
X53194102Y-88401648D01*
X53194101Y-88401648D01*
X52957393Y-88499696D01*
X52706107Y-88549680D01*
X52449893Y-88549680D01*
X52198607Y-88499696D01*
X51961899Y-88401648D01*
X51961898Y-88401648D01*
X51961897Y-88401647D01*
X51748865Y-88259304D01*
X51567696Y-88078135D01*
X51425353Y-87865103D01*
X51425352Y-87865101D01*
X51327304Y-87628393D01*
X51277320Y-87377107D01*
X51277320Y-87120893D01*
X51327304Y-86869607D01*
X51425352Y-86632899D01*
X51425353Y-86632897D01*
X51567696Y-86419865D01*
X51748865Y-86238696D01*
X51961897Y-86096353D01*
X51961899Y-86096352D01*
X52198607Y-85998304D01*
X52449893Y-85948320D01*
X52706107Y-85948320D01*
X52957393Y-85998304D01*
X52957393Y-85998304D01*
G37*
G36*
X49147393Y-85998304D02*
G01*
X49384101Y-86096352D01*
X49384103Y-86096353D01*
X49597135Y-86238696D01*
X49778304Y-86419865D01*
X49920647Y-86632897D01*
X49920648Y-86632899D01*
X50018696Y-86869607D01*
X50068680Y-87120893D01*
X50068680Y-87377107D01*
X50018696Y-87628393D01*
X49920648Y-87865101D01*
X49920647Y-87865103D01*
X49778304Y-88078135D01*
X49597135Y-88259304D01*
X49384103Y-88401647D01*
X49384102Y-88401648D01*
X49384101Y-88401648D01*
X49147393Y-88499696D01*
X48896107Y-88549680D01*
X48639893Y-88549680D01*
X48388607Y-88499696D01*
X48151899Y-88401648D01*
X48151898Y-88401648D01*
X48151897Y-88401647D01*
X47938865Y-88259304D01*
X47757696Y-88078135D01*
X47615353Y-87865103D01*
X47615352Y-87865101D01*
X47517304Y-87628393D01*
X47467320Y-87377107D01*
X47467320Y-87120893D01*
X47517304Y-86869607D01*
X47615352Y-86632899D01*
X47615353Y-86632897D01*
X47757696Y-86419865D01*
X47938865Y-86238696D01*
X48151897Y-86096353D01*
X48151899Y-86096352D01*
X48388607Y-85998304D01*
X48639893Y-85948320D01*
X48896107Y-85948320D01*
X49147393Y-85998304D01*
X49147393Y-85998304D01*
G37*
G36*
X45337393Y-85998304D02*
G01*
X45574101Y-86096352D01*
X45574103Y-86096353D01*
X45787135Y-86238696D01*
X45968304Y-86419865D01*
X46110647Y-86632897D01*
X46110648Y-86632899D01*
X46208696Y-86869607D01*
X46258680Y-87120893D01*
X46258680Y-87377107D01*
X46208696Y-87628393D01*
X46110648Y-87865101D01*
X46110647Y-87865103D01*
X45968304Y-88078135D01*
X45787135Y-88259304D01*
X45574103Y-88401647D01*
X45574102Y-88401648D01*
X45574101Y-88401648D01*
X45337393Y-88499696D01*
X45086107Y-88549680D01*
X44829893Y-88549680D01*
X44578607Y-88499696D01*
X44341899Y-88401648D01*
X44341898Y-88401648D01*
X44341897Y-88401647D01*
X44128865Y-88259304D01*
X43947696Y-88078135D01*
X43805353Y-87865103D01*
X43805352Y-87865101D01*
X43707304Y-87628393D01*
X43657320Y-87377107D01*
X43657320Y-87120893D01*
X43707304Y-86869607D01*
X43805352Y-86632899D01*
X43805353Y-86632897D01*
X43947696Y-86419865D01*
X44128865Y-86238696D01*
X44341897Y-86096353D01*
X44341899Y-86096352D01*
X44578607Y-85998304D01*
X44829893Y-85948320D01*
X45086107Y-85948320D01*
X45337393Y-85998304D01*
X45337393Y-85998304D01*
G37*
G36*
X57283604Y-83278347D02*
G01*
X57320144Y-83289432D01*
X57353821Y-83307433D01*
X57383341Y-83331659D01*
X57407567Y-83361179D01*
X57425568Y-83394856D01*
X57436653Y-83431396D01*
X57441000Y-83475538D01*
X57441000Y-84424462D01*
X57436653Y-84468604D01*
X57425568Y-84505144D01*
X57407567Y-84538821D01*
X57383341Y-84568341D01*
X57353821Y-84592567D01*
X57320144Y-84610568D01*
X57283604Y-84621653D01*
X57239462Y-84626000D01*
X55790538Y-84626000D01*
X55746396Y-84621653D01*
X55709856Y-84610568D01*
X55676179Y-84592567D01*
X55646659Y-84568341D01*
X55622433Y-84538821D01*
X55604432Y-84505144D01*
X55593347Y-84468604D01*
X55589000Y-84424462D01*
X55589000Y-83475538D01*
X55593347Y-83431396D01*
X55604432Y-83394856D01*
X55622433Y-83361179D01*
X55646659Y-83331659D01*
X55676179Y-83307433D01*
X55709856Y-83289432D01*
X55746396Y-83278347D01*
X55790538Y-83274000D01*
X57239462Y-83274000D01*
X57283604Y-83278347D01*
X57283604Y-83278347D01*
G37*
G36*
X53991934Y-79347671D02*
G01*
X54021877Y-79356754D01*
X54049465Y-79371500D01*
X54073651Y-79391349D01*
X54093500Y-79415535D01*
X54108246Y-79443123D01*
X54117329Y-79473066D01*
X54121000Y-79510340D01*
X54121000Y-81779660D01*
X54117329Y-81816934D01*
X54108246Y-81846877D01*
X54093500Y-81874465D01*
X54073651Y-81898651D01*
X54049465Y-81918500D01*
X54021877Y-81933246D01*
X53991934Y-81942329D01*
X53954660Y-81946000D01*
X50185340Y-81946000D01*
X50148066Y-81942329D01*
X50118123Y-81933246D01*
X50090535Y-81918500D01*
X50066349Y-81898651D01*
X50046500Y-81874465D01*
X50031754Y-81846877D01*
X50022671Y-81816934D01*
X50019000Y-81779660D01*
X50019000Y-79510340D01*
X50022671Y-79473066D01*
X50031754Y-79443123D01*
X50046500Y-79415535D01*
X50066349Y-79391349D01*
X50090535Y-79371500D01*
X50118123Y-79356754D01*
X50148066Y-79347671D01*
X50185340Y-79344000D01*
X53954660Y-79344000D01*
X53991934Y-79347671D01*
X53991934Y-79347671D01*
G37*
G36*
X47891934Y-79347671D02*
G01*
X47921877Y-79356754D01*
X47949465Y-79371500D01*
X47973651Y-79391349D01*
X47993500Y-79415535D01*
X48008246Y-79443123D01*
X48017329Y-79473066D01*
X48021000Y-79510340D01*
X48021000Y-81779660D01*
X48017329Y-81816934D01*
X48008246Y-81846877D01*
X47993500Y-81874465D01*
X47973651Y-81898651D01*
X47949465Y-81918500D01*
X47921877Y-81933246D01*
X47891934Y-81942329D01*
X47854660Y-81946000D01*
X44085340Y-81946000D01*
X44048066Y-81942329D01*
X44018123Y-81933246D01*
X43990535Y-81918500D01*
X43966349Y-81898651D01*
X43946500Y-81874465D01*
X43931754Y-81846877D01*
X43922671Y-81816934D01*
X43919000Y-81779660D01*
X43919000Y-79510340D01*
X43922671Y-79473066D01*
X43931754Y-79443123D01*
X43946500Y-79415535D01*
X43966349Y-79391349D01*
X43990535Y-79371500D01*
X44018123Y-79356754D01*
X44048066Y-79347671D01*
X44085340Y-79344000D01*
X47854660Y-79344000D01*
X47891934Y-79347671D01*
X47891934Y-79347671D01*
G37*
G36*
X57283604Y-80478347D02*
G01*
X57320144Y-80489432D01*
X57353821Y-80507433D01*
X57383341Y-80531659D01*
X57407567Y-80561179D01*
X57425568Y-80594856D01*
X57436653Y-80631396D01*
X57441000Y-80675538D01*
X57441000Y-81624462D01*
X57436653Y-81668604D01*
X57425568Y-81705144D01*
X57407567Y-81738821D01*
X57383341Y-81768341D01*
X57353821Y-81792567D01*
X57320144Y-81810568D01*
X57283604Y-81821653D01*
X57239462Y-81826000D01*
X55790538Y-81826000D01*
X55746396Y-81821653D01*
X55709856Y-81810568D01*
X55676179Y-81792567D01*
X55646659Y-81768341D01*
X55622433Y-81738821D01*
X55604432Y-81705144D01*
X55593347Y-81668604D01*
X55589000Y-81624462D01*
X55589000Y-80675538D01*
X55593347Y-80631396D01*
X55604432Y-80594856D01*
X55622433Y-80561179D01*
X55646659Y-80531659D01*
X55676179Y-80507433D01*
X55709856Y-80489432D01*
X55746396Y-80478347D01*
X55790538Y-80474000D01*
X57239462Y-80474000D01*
X57283604Y-80478347D01*
X57283604Y-80478347D01*
G37*
G36*
X57189468Y-76723565D02*
G01*
X57228138Y-76735296D01*
X57263777Y-76754346D01*
X57295017Y-76779983D01*
X57320654Y-76811223D01*
X57339704Y-76846862D01*
X57351435Y-76885532D01*
X57356000Y-76931888D01*
X57356000Y-78008112D01*
X57351435Y-78054468D01*
X57339704Y-78093138D01*
X57320654Y-78128777D01*
X57295017Y-78160017D01*
X57263777Y-78185654D01*
X57228138Y-78204704D01*
X57189468Y-78216435D01*
X57143112Y-78221000D01*
X56491888Y-78221000D01*
X56445532Y-78216435D01*
X56406862Y-78204704D01*
X56371223Y-78185654D01*
X56339983Y-78160017D01*
X56314346Y-78128777D01*
X56295296Y-78093138D01*
X56283565Y-78054468D01*
X56279000Y-78008112D01*
X56279000Y-76931888D01*
X56283565Y-76885532D01*
X56295296Y-76846862D01*
X56314346Y-76811223D01*
X56339983Y-76779983D01*
X56371223Y-76754346D01*
X56406862Y-76735296D01*
X56445532Y-76723565D01*
X56491888Y-76719000D01*
X57143112Y-76719000D01*
X57189468Y-76723565D01*
X57189468Y-76723565D01*
G37*
G36*
X55314468Y-76723565D02*
G01*
X55353138Y-76735296D01*
X55388777Y-76754346D01*
X55420017Y-76779983D01*
X55445654Y-76811223D01*
X55464704Y-76846862D01*
X55476435Y-76885532D01*
X55481000Y-76931888D01*
X55481000Y-78008112D01*
X55476435Y-78054468D01*
X55464704Y-78093138D01*
X55445654Y-78128777D01*
X55420017Y-78160017D01*
X55388777Y-78185654D01*
X55353138Y-78204704D01*
X55314468Y-78216435D01*
X55268112Y-78221000D01*
X54616888Y-78221000D01*
X54570532Y-78216435D01*
X54531862Y-78204704D01*
X54496223Y-78185654D01*
X54464983Y-78160017D01*
X54439346Y-78128777D01*
X54420296Y-78093138D01*
X54408565Y-78054468D01*
X54404000Y-78008112D01*
X54404000Y-76931888D01*
X54408565Y-76885532D01*
X54420296Y-76846862D01*
X54439346Y-76811223D01*
X54464983Y-76779983D01*
X54496223Y-76754346D01*
X54531862Y-76735296D01*
X54570532Y-76723565D01*
X54616888Y-76719000D01*
X55268112Y-76719000D01*
X55314468Y-76723565D01*
X55314468Y-76723565D01*
G37*
G36*
X55411000Y-75321000D02*
G01*
X53809000Y-75321000D01*
X53809000Y-73219000D01*
X55411000Y-73219000D01*
X55411000Y-75321000D01*
X55411000Y-75321000D01*
G37*
G36*
X57711000Y-75321000D02*
G01*
X56109000Y-75321000D01*
X56109000Y-73219000D01*
X57711000Y-73219000D01*
X57711000Y-75321000D01*
X57711000Y-75321000D01*
G37*
G36*
X53111000Y-75321000D02*
G01*
X51509000Y-75321000D01*
X51509000Y-73219000D01*
X53111000Y-73219000D01*
X53111000Y-75321000D01*
X53111000Y-75321000D01*
G37*
G36*
X45486968Y-73167565D02*
G01*
X45525638Y-73179296D01*
X45561277Y-73198346D01*
X45592517Y-73223983D01*
X45618154Y-73255223D01*
X45637204Y-73290862D01*
X45648935Y-73329532D01*
X45653500Y-73375888D01*
X45653500Y-74452112D01*
X45648935Y-74498468D01*
X45637204Y-74537138D01*
X45618154Y-74572777D01*
X45592517Y-74604017D01*
X45561277Y-74629654D01*
X45525638Y-74648704D01*
X45486968Y-74660435D01*
X45440612Y-74665000D01*
X44789388Y-74665000D01*
X44743032Y-74660435D01*
X44704362Y-74648704D01*
X44668723Y-74629654D01*
X44637483Y-74604017D01*
X44611846Y-74572777D01*
X44592796Y-74537138D01*
X44581065Y-74498468D01*
X44576500Y-74452112D01*
X44576500Y-73375888D01*
X44581065Y-73329532D01*
X44592796Y-73290862D01*
X44611846Y-73255223D01*
X44637483Y-73223983D01*
X44668723Y-73198346D01*
X44704362Y-73179296D01*
X44743032Y-73167565D01*
X44789388Y-73163000D01*
X45440612Y-73163000D01*
X45486968Y-73167565D01*
X45486968Y-73167565D01*
G37*
G36*
X47361968Y-73167565D02*
G01*
X47400638Y-73179296D01*
X47436277Y-73198346D01*
X47467517Y-73223983D01*
X47493154Y-73255223D01*
X47512204Y-73290862D01*
X47523935Y-73329532D01*
X47528500Y-73375888D01*
X47528500Y-74452112D01*
X47523935Y-74498468D01*
X47512204Y-74537138D01*
X47493154Y-74572777D01*
X47467517Y-74604017D01*
X47436277Y-74629654D01*
X47400638Y-74648704D01*
X47361968Y-74660435D01*
X47315612Y-74665000D01*
X46664388Y-74665000D01*
X46618032Y-74660435D01*
X46579362Y-74648704D01*
X46543723Y-74629654D01*
X46512483Y-74604017D01*
X46486846Y-74572777D01*
X46467796Y-74537138D01*
X46456065Y-74498468D01*
X46451500Y-74452112D01*
X46451500Y-73375888D01*
X46456065Y-73329532D01*
X46467796Y-73290862D01*
X46486846Y-73255223D01*
X46512483Y-73223983D01*
X46543723Y-73198346D01*
X46579362Y-73179296D01*
X46618032Y-73167565D01*
X46664388Y-73163000D01*
X47315612Y-73163000D01*
X47361968Y-73167565D01*
X47361968Y-73167565D01*
G37*
G36*
X49987468Y-71572065D02*
G01*
X50026138Y-71583796D01*
X50061777Y-71602846D01*
X50093017Y-71628483D01*
X50118654Y-71659723D01*
X50137704Y-71695362D01*
X50149435Y-71734032D01*
X50154000Y-71780388D01*
X50154000Y-72431612D01*
X50149435Y-72477968D01*
X50137704Y-72516638D01*
X50118654Y-72552277D01*
X50093017Y-72583517D01*
X50061777Y-72609154D01*
X50026138Y-72628204D01*
X49987468Y-72639935D01*
X49941112Y-72644500D01*
X48864888Y-72644500D01*
X48818532Y-72639935D01*
X48779862Y-72628204D01*
X48744223Y-72609154D01*
X48712983Y-72583517D01*
X48687346Y-72552277D01*
X48668296Y-72516638D01*
X48656565Y-72477968D01*
X48652000Y-72431612D01*
X48652000Y-71780388D01*
X48656565Y-71734032D01*
X48668296Y-71695362D01*
X48687346Y-71659723D01*
X48712983Y-71628483D01*
X48744223Y-71602846D01*
X48779862Y-71583796D01*
X48818532Y-71572065D01*
X48864888Y-71567500D01*
X49941112Y-71567500D01*
X49987468Y-71572065D01*
X49987468Y-71572065D01*
G37*
G36*
X47361000Y-71955000D02*
G01*
X44709000Y-71955000D01*
X44709000Y-70793000D01*
X47361000Y-70793000D01*
X47361000Y-71955000D01*
X47361000Y-71955000D01*
G37*
G36*
X49987468Y-69697065D02*
G01*
X50026138Y-69708796D01*
X50061777Y-69727846D01*
X50093017Y-69753483D01*
X50118654Y-69784723D01*
X50137704Y-69820362D01*
X50149435Y-69859032D01*
X50154000Y-69905388D01*
X50154000Y-70556612D01*
X50149435Y-70602968D01*
X50137704Y-70641638D01*
X50118654Y-70677277D01*
X50093017Y-70708517D01*
X50061777Y-70734154D01*
X50026138Y-70753204D01*
X49987468Y-70764935D01*
X49941112Y-70769500D01*
X48864888Y-70769500D01*
X48818532Y-70764935D01*
X48779862Y-70753204D01*
X48744223Y-70734154D01*
X48712983Y-70708517D01*
X48687346Y-70677277D01*
X48668296Y-70641638D01*
X48656565Y-70602968D01*
X48652000Y-70556612D01*
X48652000Y-69905388D01*
X48656565Y-69859032D01*
X48668296Y-69820362D01*
X48687346Y-69784723D01*
X48712983Y-69753483D01*
X48744223Y-69727846D01*
X48779862Y-69708796D01*
X48818532Y-69697065D01*
X48864888Y-69692500D01*
X49941112Y-69692500D01*
X49987468Y-69697065D01*
X49987468Y-69697065D01*
G37*
G36*
X47361000Y-69755000D02*
G01*
X44709000Y-69755000D01*
X44709000Y-68593000D01*
X47361000Y-68593000D01*
X47361000Y-69755000D01*
X47361000Y-69755000D01*
G37*
G36*
X56561000Y-69021000D02*
G01*
X52659000Y-69021000D01*
X52659000Y-66919000D01*
X56561000Y-66919000D01*
X56561000Y-69021000D01*
X56561000Y-69021000D01*
G37*
G36*
X47361968Y-65801565D02*
G01*
X47400638Y-65813296D01*
X47436277Y-65832346D01*
X47467517Y-65857983D01*
X47493154Y-65889223D01*
X47512204Y-65924862D01*
X47523935Y-65963532D01*
X47528500Y-66009888D01*
X47528500Y-67086112D01*
X47523935Y-67132468D01*
X47512204Y-67171138D01*
X47493154Y-67206777D01*
X47467517Y-67238017D01*
X47436277Y-67263654D01*
X47400638Y-67282704D01*
X47361968Y-67294435D01*
X47315612Y-67299000D01*
X46664388Y-67299000D01*
X46618032Y-67294435D01*
X46579362Y-67282704D01*
X46543723Y-67263654D01*
X46512483Y-67238017D01*
X46486846Y-67206777D01*
X46467796Y-67171138D01*
X46456065Y-67132468D01*
X46451500Y-67086112D01*
X46451500Y-66009888D01*
X46456065Y-65963532D01*
X46467796Y-65924862D01*
X46486846Y-65889223D01*
X46512483Y-65857983D01*
X46543723Y-65832346D01*
X46579362Y-65813296D01*
X46618032Y-65801565D01*
X46664388Y-65797000D01*
X47315612Y-65797000D01*
X47361968Y-65801565D01*
X47361968Y-65801565D01*
G37*
G36*
X45486968Y-65801565D02*
G01*
X45525638Y-65813296D01*
X45561277Y-65832346D01*
X45592517Y-65857983D01*
X45618154Y-65889223D01*
X45637204Y-65924862D01*
X45648935Y-65963532D01*
X45653500Y-66009888D01*
X45653500Y-67086112D01*
X45648935Y-67132468D01*
X45637204Y-67171138D01*
X45618154Y-67206777D01*
X45592517Y-67238017D01*
X45561277Y-67263654D01*
X45525638Y-67282704D01*
X45486968Y-67294435D01*
X45440612Y-67299000D01*
X44789388Y-67299000D01*
X44743032Y-67294435D01*
X44704362Y-67282704D01*
X44668723Y-67263654D01*
X44637483Y-67238017D01*
X44611846Y-67206777D01*
X44592796Y-67171138D01*
X44581065Y-67132468D01*
X44576500Y-67086112D01*
X44576500Y-66009888D01*
X44581065Y-65963532D01*
X44592796Y-65924862D01*
X44611846Y-65889223D01*
X44637483Y-65857983D01*
X44668723Y-65832346D01*
X44704362Y-65813296D01*
X44743032Y-65801565D01*
X44789388Y-65797000D01*
X45440612Y-65797000D01*
X45486968Y-65801565D01*
X45486968Y-65801565D01*
G37*
G36*
X49987468Y-65808565D02*
G01*
X50026138Y-65820296D01*
X50061777Y-65839346D01*
X50093017Y-65864983D01*
X50118654Y-65896223D01*
X50137704Y-65931862D01*
X50149435Y-65970532D01*
X50154000Y-66016888D01*
X50154000Y-66668112D01*
X50149435Y-66714468D01*
X50137704Y-66753138D01*
X50118654Y-66788777D01*
X50093017Y-66820017D01*
X50061777Y-66845654D01*
X50026138Y-66864704D01*
X49987468Y-66876435D01*
X49941112Y-66881000D01*
X48864888Y-66881000D01*
X48818532Y-66876435D01*
X48779862Y-66864704D01*
X48744223Y-66845654D01*
X48712983Y-66820017D01*
X48687346Y-66788777D01*
X48668296Y-66753138D01*
X48656565Y-66714468D01*
X48652000Y-66668112D01*
X48652000Y-66016888D01*
X48656565Y-65970532D01*
X48668296Y-65931862D01*
X48687346Y-65896223D01*
X48712983Y-65864983D01*
X48744223Y-65839346D01*
X48779862Y-65820296D01*
X48818532Y-65808565D01*
X48864888Y-65804000D01*
X49941112Y-65804000D01*
X49987468Y-65808565D01*
X49987468Y-65808565D01*
G37*
G36*
X49987468Y-63933565D02*
G01*
X50026138Y-63945296D01*
X50061777Y-63964346D01*
X50093017Y-63989983D01*
X50118654Y-64021223D01*
X50137704Y-64056862D01*
X50149435Y-64095532D01*
X50154000Y-64141888D01*
X50154000Y-64793112D01*
X50149435Y-64839468D01*
X50137704Y-64878138D01*
X50118654Y-64913777D01*
X50093017Y-64945017D01*
X50061777Y-64970654D01*
X50026138Y-64989704D01*
X49987468Y-65001435D01*
X49941112Y-65006000D01*
X48864888Y-65006000D01*
X48818532Y-65001435D01*
X48779862Y-64989704D01*
X48744223Y-64970654D01*
X48712983Y-64945017D01*
X48687346Y-64913777D01*
X48668296Y-64878138D01*
X48656565Y-64839468D01*
X48652000Y-64793112D01*
X48652000Y-64141888D01*
X48656565Y-64095532D01*
X48668296Y-64056862D01*
X48687346Y-64021223D01*
X48712983Y-63989983D01*
X48744223Y-63964346D01*
X48779862Y-63945296D01*
X48818532Y-63933565D01*
X48864888Y-63929000D01*
X49941112Y-63929000D01*
X49987468Y-63933565D01*
X49987468Y-63933565D01*
G37*
G36*
X56591468Y-63903565D02*
G01*
X56630138Y-63915296D01*
X56665777Y-63934346D01*
X56697017Y-63959983D01*
X56722654Y-63991223D01*
X56741704Y-64026862D01*
X56753435Y-64065532D01*
X56758000Y-64111888D01*
X56758000Y-64763112D01*
X56753435Y-64809468D01*
X56741704Y-64848138D01*
X56722654Y-64883777D01*
X56697017Y-64915017D01*
X56665777Y-64940654D01*
X56630138Y-64959704D01*
X56591468Y-64971435D01*
X56545112Y-64976000D01*
X55468888Y-64976000D01*
X55422532Y-64971435D01*
X55383862Y-64959704D01*
X55348223Y-64940654D01*
X55316983Y-64915017D01*
X55291346Y-64883777D01*
X55272296Y-64848138D01*
X55260565Y-64809468D01*
X55256000Y-64763112D01*
X55256000Y-64111888D01*
X55260565Y-64065532D01*
X55272296Y-64026862D01*
X55291346Y-63991223D01*
X55316983Y-63959983D01*
X55348223Y-63934346D01*
X55383862Y-63915296D01*
X55422532Y-63903565D01*
X55468888Y-63899000D01*
X56545112Y-63899000D01*
X56591468Y-63903565D01*
X56591468Y-63903565D01*
G37*
G36*
X54051468Y-63855065D02*
G01*
X54090138Y-63866796D01*
X54125777Y-63885846D01*
X54157017Y-63911483D01*
X54182654Y-63942723D01*
X54201704Y-63978362D01*
X54213435Y-64017032D01*
X54218000Y-64063388D01*
X54218000Y-64714612D01*
X54213435Y-64760968D01*
X54201704Y-64799638D01*
X54182654Y-64835277D01*
X54157017Y-64866517D01*
X54125777Y-64892154D01*
X54090138Y-64911204D01*
X54051468Y-64922935D01*
X54005112Y-64927500D01*
X52928888Y-64927500D01*
X52882532Y-64922935D01*
X52843862Y-64911204D01*
X52808223Y-64892154D01*
X52776983Y-64866517D01*
X52751346Y-64835277D01*
X52732296Y-64799638D01*
X52720565Y-64760968D01*
X52716000Y-64714612D01*
X52716000Y-64063388D01*
X52720565Y-64017032D01*
X52732296Y-63978362D01*
X52751346Y-63942723D01*
X52776983Y-63911483D01*
X52808223Y-63885846D01*
X52843862Y-63866796D01*
X52882532Y-63855065D01*
X52928888Y-63850500D01*
X54005112Y-63850500D01*
X54051468Y-63855065D01*
X54051468Y-63855065D01*
G37*
G36*
X47300000Y-64927000D02*
G01*
X44648000Y-64927000D01*
X44648000Y-63765000D01*
X47300000Y-63765000D01*
X47300000Y-64927000D01*
X47300000Y-64927000D01*
G37*
G36*
X56591468Y-62028565D02*
G01*
X56630138Y-62040296D01*
X56665777Y-62059346D01*
X56697017Y-62084983D01*
X56722654Y-62116223D01*
X56741704Y-62151862D01*
X56753435Y-62190532D01*
X56758000Y-62236888D01*
X56758000Y-62888112D01*
X56753435Y-62934468D01*
X56741704Y-62973138D01*
X56722654Y-63008777D01*
X56697017Y-63040017D01*
X56665777Y-63065654D01*
X56630138Y-63084704D01*
X56591468Y-63096435D01*
X56545112Y-63101000D01*
X55468888Y-63101000D01*
X55422532Y-63096435D01*
X55383862Y-63084704D01*
X55348223Y-63065654D01*
X55316983Y-63040017D01*
X55291346Y-63008777D01*
X55272296Y-62973138D01*
X55260565Y-62934468D01*
X55256000Y-62888112D01*
X55256000Y-62236888D01*
X55260565Y-62190532D01*
X55272296Y-62151862D01*
X55291346Y-62116223D01*
X55316983Y-62084983D01*
X55348223Y-62059346D01*
X55383862Y-62040296D01*
X55422532Y-62028565D01*
X55468888Y-62024000D01*
X56545112Y-62024000D01*
X56591468Y-62028565D01*
X56591468Y-62028565D01*
G37*
G36*
X54051468Y-61980065D02*
G01*
X54090138Y-61991796D01*
X54125777Y-62010846D01*
X54157017Y-62036483D01*
X54182654Y-62067723D01*
X54201704Y-62103362D01*
X54213435Y-62142032D01*
X54218000Y-62188388D01*
X54218000Y-62839612D01*
X54213435Y-62885968D01*
X54201704Y-62924638D01*
X54182654Y-62960277D01*
X54157017Y-62991517D01*
X54125777Y-63017154D01*
X54090138Y-63036204D01*
X54051468Y-63047935D01*
X54005112Y-63052500D01*
X52928888Y-63052500D01*
X52882532Y-63047935D01*
X52843862Y-63036204D01*
X52808223Y-63017154D01*
X52776983Y-62991517D01*
X52751346Y-62960277D01*
X52732296Y-62924638D01*
X52720565Y-62885968D01*
X52716000Y-62839612D01*
X52716000Y-62188388D01*
X52720565Y-62142032D01*
X52732296Y-62103362D01*
X52751346Y-62067723D01*
X52776983Y-62036483D01*
X52808223Y-62010846D01*
X52843862Y-61991796D01*
X52882532Y-61980065D01*
X52928888Y-61975500D01*
X54005112Y-61975500D01*
X54051468Y-61980065D01*
X54051468Y-61980065D01*
G37*
G36*
X47300000Y-62727000D02*
G01*
X44648000Y-62727000D01*
X44648000Y-61565000D01*
X47300000Y-61565000D01*
X47300000Y-62727000D01*
X47300000Y-62727000D01*
G37*
G36*
X47100442Y-58160518D02*
G01*
X47166627Y-58167037D01*
X47336466Y-58218557D01*
X47336468Y-58218558D01*
X47414729Y-58260390D01*
X47492991Y-58302222D01*
X47522269Y-58326250D01*
X47630186Y-58414814D01*
X47713448Y-58516271D01*
X47742778Y-58552009D01*
X47826443Y-58708534D01*
X47877963Y-58878373D01*
X47895359Y-59055000D01*
X47877963Y-59231627D01*
X47826443Y-59401466D01*
X47742778Y-59557991D01*
X47713448Y-59593729D01*
X47630186Y-59695186D01*
X47528729Y-59778448D01*
X47492991Y-59807778D01*
X47336466Y-59891443D01*
X47166627Y-59942963D01*
X47100442Y-59949482D01*
X47034260Y-59956000D01*
X46945740Y-59956000D01*
X46879558Y-59949482D01*
X46813373Y-59942963D01*
X46643534Y-59891443D01*
X46487009Y-59807778D01*
X46451271Y-59778448D01*
X46349814Y-59695186D01*
X46266552Y-59593729D01*
X46237222Y-59557991D01*
X46153557Y-59401466D01*
X46102037Y-59231627D01*
X46084641Y-59055000D01*
X46102037Y-58878373D01*
X46153557Y-58708534D01*
X46237222Y-58552009D01*
X46266552Y-58516271D01*
X46349814Y-58414814D01*
X46457731Y-58326250D01*
X46487009Y-58302222D01*
X46565272Y-58260389D01*
X46643532Y-58218558D01*
X46643534Y-58218557D01*
X46813373Y-58167037D01*
X46879558Y-58160518D01*
X46945740Y-58154000D01*
X47034260Y-58154000D01*
X47100442Y-58160518D01*
X47100442Y-58160518D01*
G37*
G36*
X54720442Y-58160518D02*
G01*
X54786627Y-58167037D01*
X54956466Y-58218557D01*
X54956468Y-58218558D01*
X55034729Y-58260390D01*
X55112991Y-58302222D01*
X55142269Y-58326250D01*
X55250186Y-58414814D01*
X55333448Y-58516271D01*
X55362778Y-58552009D01*
X55446443Y-58708534D01*
X55497963Y-58878373D01*
X55515359Y-59055000D01*
X55497963Y-59231627D01*
X55446443Y-59401466D01*
X55362778Y-59557991D01*
X55333448Y-59593729D01*
X55250186Y-59695186D01*
X55148729Y-59778448D01*
X55112991Y-59807778D01*
X54956466Y-59891443D01*
X54786627Y-59942963D01*
X54720442Y-59949482D01*
X54654260Y-59956000D01*
X54565740Y-59956000D01*
X54499558Y-59949482D01*
X54433373Y-59942963D01*
X54263534Y-59891443D01*
X54107009Y-59807778D01*
X54071271Y-59778448D01*
X53969814Y-59695186D01*
X53886552Y-59593729D01*
X53857222Y-59557991D01*
X53773557Y-59401466D01*
X53722037Y-59231627D01*
X53704641Y-59055000D01*
X53722037Y-58878373D01*
X53773557Y-58708534D01*
X53857222Y-58552009D01*
X53886552Y-58516271D01*
X53969814Y-58414814D01*
X54077731Y-58326250D01*
X54107009Y-58302222D01*
X54185272Y-58260389D01*
X54263532Y-58218558D01*
X54263534Y-58218557D01*
X54433373Y-58167037D01*
X54499558Y-58160518D01*
X54565740Y-58154000D01*
X54654260Y-58154000D01*
X54720442Y-58160518D01*
X54720442Y-58160518D01*
G37*
G36*
X52180442Y-58160518D02*
G01*
X52246627Y-58167037D01*
X52416466Y-58218557D01*
X52416468Y-58218558D01*
X52494729Y-58260390D01*
X52572991Y-58302222D01*
X52602269Y-58326250D01*
X52710186Y-58414814D01*
X52793448Y-58516271D01*
X52822778Y-58552009D01*
X52906443Y-58708534D01*
X52957963Y-58878373D01*
X52975359Y-59055000D01*
X52957963Y-59231627D01*
X52906443Y-59401466D01*
X52822778Y-59557991D01*
X52793448Y-59593729D01*
X52710186Y-59695186D01*
X52608729Y-59778448D01*
X52572991Y-59807778D01*
X52416466Y-59891443D01*
X52246627Y-59942963D01*
X52180442Y-59949482D01*
X52114260Y-59956000D01*
X52025740Y-59956000D01*
X51959558Y-59949482D01*
X51893373Y-59942963D01*
X51723534Y-59891443D01*
X51567009Y-59807778D01*
X51531271Y-59778448D01*
X51429814Y-59695186D01*
X51346552Y-59593729D01*
X51317222Y-59557991D01*
X51233557Y-59401466D01*
X51182037Y-59231627D01*
X51164641Y-59055000D01*
X51182037Y-58878373D01*
X51233557Y-58708534D01*
X51317222Y-58552009D01*
X51346552Y-58516271D01*
X51429814Y-58414814D01*
X51537731Y-58326250D01*
X51567009Y-58302222D01*
X51645272Y-58260389D01*
X51723532Y-58218558D01*
X51723534Y-58218557D01*
X51893373Y-58167037D01*
X51959558Y-58160518D01*
X52025740Y-58154000D01*
X52114260Y-58154000D01*
X52180442Y-58160518D01*
X52180442Y-58160518D01*
G37*
G36*
X49640442Y-58160518D02*
G01*
X49706627Y-58167037D01*
X49876466Y-58218557D01*
X49876468Y-58218558D01*
X49954729Y-58260390D01*
X50032991Y-58302222D01*
X50062269Y-58326250D01*
X50170186Y-58414814D01*
X50253448Y-58516271D01*
X50282778Y-58552009D01*
X50366443Y-58708534D01*
X50417963Y-58878373D01*
X50435359Y-59055000D01*
X50417963Y-59231627D01*
X50366443Y-59401466D01*
X50282778Y-59557991D01*
X50253448Y-59593729D01*
X50170186Y-59695186D01*
X50068729Y-59778448D01*
X50032991Y-59807778D01*
X49876466Y-59891443D01*
X49706627Y-59942963D01*
X49640442Y-59949482D01*
X49574260Y-59956000D01*
X49485740Y-59956000D01*
X49419558Y-59949482D01*
X49353373Y-59942963D01*
X49183534Y-59891443D01*
X49027009Y-59807778D01*
X48991271Y-59778448D01*
X48889814Y-59695186D01*
X48806552Y-59593729D01*
X48777222Y-59557991D01*
X48693557Y-59401466D01*
X48642037Y-59231627D01*
X48624641Y-59055000D01*
X48642037Y-58878373D01*
X48693557Y-58708534D01*
X48777222Y-58552009D01*
X48806552Y-58516271D01*
X48889814Y-58414814D01*
X48997731Y-58326250D01*
X49027009Y-58302222D01*
X49105272Y-58260389D01*
X49183532Y-58218558D01*
X49183534Y-58218557D01*
X49353373Y-58167037D01*
X49419558Y-58160518D01*
X49485740Y-58154000D01*
X49574260Y-58154000D01*
X49640442Y-58160518D01*
X49640442Y-58160518D01*
G37*
G36*
X44653468Y-58061565D02*
G01*
X44692138Y-58073296D01*
X44727777Y-58092346D01*
X44759017Y-58117983D01*
X44784654Y-58149223D01*
X44803704Y-58184862D01*
X44815435Y-58223532D01*
X44820000Y-58269888D01*
X44820000Y-58921112D01*
X44815435Y-58967468D01*
X44803704Y-59006138D01*
X44784654Y-59041777D01*
X44759017Y-59073017D01*
X44727777Y-59098654D01*
X44692138Y-59117704D01*
X44653468Y-59129435D01*
X44607112Y-59134000D01*
X43530888Y-59134000D01*
X43484532Y-59129435D01*
X43445862Y-59117704D01*
X43410223Y-59098654D01*
X43378983Y-59073017D01*
X43353346Y-59041777D01*
X43334296Y-59006138D01*
X43322565Y-58967468D01*
X43318000Y-58921112D01*
X43318000Y-58269888D01*
X43322565Y-58223532D01*
X43334296Y-58184862D01*
X43353346Y-58149223D01*
X43378983Y-58117983D01*
X43410223Y-58092346D01*
X43445862Y-58073296D01*
X43484532Y-58061565D01*
X43530888Y-58057000D01*
X44607112Y-58057000D01*
X44653468Y-58061565D01*
X44653468Y-58061565D01*
G37*
G36*
X52180443Y-55620519D02*
G01*
X52246627Y-55627037D01*
X52416466Y-55678557D01*
X52572991Y-55762222D01*
X52608729Y-55791552D01*
X52710186Y-55874814D01*
X52793448Y-55976271D01*
X52822778Y-56012009D01*
X52906443Y-56168534D01*
X52957963Y-56338373D01*
X52975359Y-56515000D01*
X52957963Y-56691627D01*
X52906443Y-56861466D01*
X52822778Y-57017991D01*
X52793448Y-57053729D01*
X52710186Y-57155186D01*
X52638979Y-57213623D01*
X52572991Y-57267778D01*
X52416466Y-57351443D01*
X52246627Y-57402963D01*
X52180443Y-57409481D01*
X52114260Y-57416000D01*
X52025740Y-57416000D01*
X51959557Y-57409481D01*
X51893373Y-57402963D01*
X51723534Y-57351443D01*
X51567009Y-57267778D01*
X51501021Y-57213623D01*
X51429814Y-57155186D01*
X51346552Y-57053729D01*
X51317222Y-57017991D01*
X51233557Y-56861466D01*
X51182037Y-56691627D01*
X51164641Y-56515000D01*
X51182037Y-56338373D01*
X51233557Y-56168534D01*
X51317222Y-56012009D01*
X51346552Y-55976271D01*
X51429814Y-55874814D01*
X51531271Y-55791552D01*
X51567009Y-55762222D01*
X51723534Y-55678557D01*
X51893373Y-55627037D01*
X51959557Y-55620519D01*
X52025740Y-55614000D01*
X52114260Y-55614000D01*
X52180443Y-55620519D01*
X52180443Y-55620519D01*
G37*
G36*
X49640443Y-55620519D02*
G01*
X49706627Y-55627037D01*
X49876466Y-55678557D01*
X50032991Y-55762222D01*
X50068729Y-55791552D01*
X50170186Y-55874814D01*
X50253448Y-55976271D01*
X50282778Y-56012009D01*
X50366443Y-56168534D01*
X50417963Y-56338373D01*
X50435359Y-56515000D01*
X50417963Y-56691627D01*
X50366443Y-56861466D01*
X50282778Y-57017991D01*
X50253448Y-57053729D01*
X50170186Y-57155186D01*
X50098979Y-57213623D01*
X50032991Y-57267778D01*
X49876466Y-57351443D01*
X49706627Y-57402963D01*
X49640443Y-57409481D01*
X49574260Y-57416000D01*
X49485740Y-57416000D01*
X49419557Y-57409481D01*
X49353373Y-57402963D01*
X49183534Y-57351443D01*
X49027009Y-57267778D01*
X48961021Y-57213623D01*
X48889814Y-57155186D01*
X48806552Y-57053729D01*
X48777222Y-57017991D01*
X48693557Y-56861466D01*
X48642037Y-56691627D01*
X48624641Y-56515000D01*
X48642037Y-56338373D01*
X48693557Y-56168534D01*
X48777222Y-56012009D01*
X48806552Y-55976271D01*
X48889814Y-55874814D01*
X48991271Y-55791552D01*
X49027009Y-55762222D01*
X49183534Y-55678557D01*
X49353373Y-55627037D01*
X49419557Y-55620519D01*
X49485740Y-55614000D01*
X49574260Y-55614000D01*
X49640443Y-55620519D01*
X49640443Y-55620519D01*
G37*
G36*
X47100443Y-55620519D02*
G01*
X47166627Y-55627037D01*
X47336466Y-55678557D01*
X47492991Y-55762222D01*
X47528729Y-55791552D01*
X47630186Y-55874814D01*
X47713448Y-55976271D01*
X47742778Y-56012009D01*
X47826443Y-56168534D01*
X47877963Y-56338373D01*
X47895359Y-56515000D01*
X47877963Y-56691627D01*
X47826443Y-56861466D01*
X47742778Y-57017991D01*
X47713448Y-57053729D01*
X47630186Y-57155186D01*
X47558979Y-57213623D01*
X47492991Y-57267778D01*
X47336466Y-57351443D01*
X47166627Y-57402963D01*
X47100443Y-57409481D01*
X47034260Y-57416000D01*
X46945740Y-57416000D01*
X46879557Y-57409481D01*
X46813373Y-57402963D01*
X46643534Y-57351443D01*
X46487009Y-57267778D01*
X46421021Y-57213623D01*
X46349814Y-57155186D01*
X46266552Y-57053729D01*
X46237222Y-57017991D01*
X46153557Y-56861466D01*
X46102037Y-56691627D01*
X46084641Y-56515000D01*
X46102037Y-56338373D01*
X46153557Y-56168534D01*
X46237222Y-56012009D01*
X46266552Y-55976271D01*
X46349814Y-55874814D01*
X46451271Y-55791552D01*
X46487009Y-55762222D01*
X46643534Y-55678557D01*
X46813373Y-55627037D01*
X46879557Y-55620519D01*
X46945740Y-55614000D01*
X47034260Y-55614000D01*
X47100443Y-55620519D01*
X47100443Y-55620519D01*
G37*
G36*
X55511000Y-57416000D02*
G01*
X53709000Y-57416000D01*
X53709000Y-55614000D01*
X55511000Y-55614000D01*
X55511000Y-57416000D01*
X55511000Y-57416000D01*
G37*
G36*
X44653468Y-56186565D02*
G01*
X44692138Y-56198296D01*
X44727777Y-56217346D01*
X44759017Y-56242983D01*
X44784654Y-56274223D01*
X44803704Y-56309862D01*
X44815435Y-56348532D01*
X44820000Y-56394888D01*
X44820000Y-57046112D01*
X44815435Y-57092468D01*
X44803704Y-57131138D01*
X44784654Y-57166777D01*
X44759017Y-57198017D01*
X44727777Y-57223654D01*
X44692138Y-57242704D01*
X44653468Y-57254435D01*
X44607112Y-57259000D01*
X43530888Y-57259000D01*
X43484532Y-57254435D01*
X43445862Y-57242704D01*
X43410223Y-57223654D01*
X43378983Y-57198017D01*
X43353346Y-57166777D01*
X43334296Y-57131138D01*
X43322565Y-57092468D01*
X43318000Y-57046112D01*
X43318000Y-56394888D01*
X43322565Y-56348532D01*
X43334296Y-56309862D01*
X43353346Y-56274223D01*
X43378983Y-56242983D01*
X43410223Y-56217346D01*
X43445862Y-56198296D01*
X43484532Y-56186565D01*
X43530888Y-56182000D01*
X44607112Y-56182000D01*
X44653468Y-56186565D01*
X44653468Y-56186565D01*
G37*
M02*
