G04 #@! TF.GenerationSoftware,KiCad,Pcbnew,(5.1.4)-1*
G04 #@! TF.CreationDate,2019-12-17T12:56:31-08:00*
G04 #@! TF.ProjectId,pixel-stick,70697865-6c2d-4737-9469-636b2e6b6963,rev?*
G04 #@! TF.SameCoordinates,Original*
G04 #@! TF.FileFunction,Legend,Bot*
G04 #@! TF.FilePolarity,Positive*
%FSLAX46Y46*%
G04 Gerber Fmt 4.6, Leading zero omitted, Abs format (unit mm)*
G04 Created by KiCad (PCBNEW (5.1.4)-1) date 2019-12-17 12:56:31*
%MOMM*%
%LPD*%
G04 APERTURE LIST*
%ADD10C,0.125000*%
%ADD11C,0.150000*%
G04 APERTURE END LIST*
D10*
X97033715Y-42791785D02*
X96962286Y-42815595D01*
X96938477Y-42839404D01*
X96914667Y-42887023D01*
X96914667Y-42958452D01*
X96938477Y-43006071D01*
X96962286Y-43029880D01*
X97009905Y-43053690D01*
X97200381Y-43053690D01*
X97200381Y-42553690D01*
X97033715Y-42553690D01*
X96986096Y-42577500D01*
X96962286Y-42601309D01*
X96938477Y-42648928D01*
X96938477Y-42696547D01*
X96962286Y-42744166D01*
X96986096Y-42767976D01*
X97033715Y-42791785D01*
X97200381Y-42791785D01*
X96628953Y-43053690D02*
X96676572Y-43029880D01*
X96700381Y-43006071D01*
X96724191Y-42958452D01*
X96724191Y-42815595D01*
X96700381Y-42767976D01*
X96676572Y-42744166D01*
X96628953Y-42720357D01*
X96557524Y-42720357D01*
X96509905Y-42744166D01*
X96486096Y-42767976D01*
X96462286Y-42815595D01*
X96462286Y-42958452D01*
X96486096Y-43006071D01*
X96509905Y-43029880D01*
X96557524Y-43053690D01*
X96628953Y-43053690D01*
X96033715Y-43053690D02*
X96033715Y-42791785D01*
X96057524Y-42744166D01*
X96105143Y-42720357D01*
X96200381Y-42720357D01*
X96248001Y-42744166D01*
X96033715Y-43029880D02*
X96081334Y-43053690D01*
X96200381Y-43053690D01*
X96248001Y-43029880D01*
X96271810Y-42982261D01*
X96271810Y-42934642D01*
X96248001Y-42887023D01*
X96200381Y-42863214D01*
X96081334Y-42863214D01*
X96033715Y-42839404D01*
X95795620Y-43053690D02*
X95795620Y-42720357D01*
X95795620Y-42815595D02*
X95771810Y-42767976D01*
X95748001Y-42744166D01*
X95700381Y-42720357D01*
X95652762Y-42720357D01*
X95271810Y-43053690D02*
X95271810Y-42553690D01*
X95271810Y-43029880D02*
X95319429Y-43053690D01*
X95414667Y-43053690D01*
X95462286Y-43029880D01*
X95486096Y-43006071D01*
X95509905Y-42958452D01*
X95509905Y-42815595D01*
X95486096Y-42767976D01*
X95462286Y-42744166D01*
X95414667Y-42720357D01*
X95319429Y-42720357D01*
X95271810Y-42744166D01*
X94724191Y-42553690D02*
X94557524Y-43053690D01*
X94390858Y-42553690D01*
X94033715Y-43029880D02*
X94081334Y-43053690D01*
X94176572Y-43053690D01*
X94224191Y-43029880D01*
X94248001Y-42982261D01*
X94248001Y-42791785D01*
X94224191Y-42744166D01*
X94176572Y-42720357D01*
X94081334Y-42720357D01*
X94033715Y-42744166D01*
X94009905Y-42791785D01*
X94009905Y-42839404D01*
X94248001Y-42887023D01*
X93795620Y-43053690D02*
X93795620Y-42720357D01*
X93795620Y-42815595D02*
X93771810Y-42767976D01*
X93748001Y-42744166D01*
X93700381Y-42720357D01*
X93652762Y-42720357D01*
X93509905Y-43029880D02*
X93462286Y-43053690D01*
X93367048Y-43053690D01*
X93319429Y-43029880D01*
X93295620Y-42982261D01*
X93295620Y-42958452D01*
X93319429Y-42910833D01*
X93367048Y-42887023D01*
X93438477Y-42887023D01*
X93486096Y-42863214D01*
X93509905Y-42815595D01*
X93509905Y-42791785D01*
X93486096Y-42744166D01*
X93438477Y-42720357D01*
X93367048Y-42720357D01*
X93319429Y-42744166D01*
X93081334Y-43053690D02*
X93081334Y-42720357D01*
X93081334Y-42553690D02*
X93105143Y-42577500D01*
X93081334Y-42601309D01*
X93057524Y-42577500D01*
X93081334Y-42553690D01*
X93081334Y-42601309D01*
X92771810Y-43053690D02*
X92819429Y-43029880D01*
X92843239Y-43006071D01*
X92867048Y-42958452D01*
X92867048Y-42815595D01*
X92843239Y-42767976D01*
X92819429Y-42744166D01*
X92771810Y-42720357D01*
X92700381Y-42720357D01*
X92652762Y-42744166D01*
X92628953Y-42767976D01*
X92605143Y-42815595D01*
X92605143Y-42958452D01*
X92628953Y-43006071D01*
X92652762Y-43029880D01*
X92700381Y-43053690D01*
X92771810Y-43053690D01*
X92390858Y-42720357D02*
X92390858Y-43053690D01*
X92390858Y-42767976D02*
X92367048Y-42744166D01*
X92319429Y-42720357D01*
X92248001Y-42720357D01*
X92200381Y-42744166D01*
X92176572Y-42791785D01*
X92176572Y-43053690D01*
X91938477Y-43006071D02*
X91914667Y-43029880D01*
X91938477Y-43053690D01*
X91962286Y-43029880D01*
X91938477Y-43006071D01*
X91938477Y-43053690D01*
X91938477Y-42744166D02*
X91914667Y-42767976D01*
X91938477Y-42791785D01*
X91962286Y-42767976D01*
X91938477Y-42744166D01*
X91938477Y-42791785D01*
X91343239Y-42601309D02*
X91319429Y-42577500D01*
X91271810Y-42553690D01*
X91152762Y-42553690D01*
X91105143Y-42577500D01*
X91081334Y-42601309D01*
X91057524Y-42648928D01*
X91057524Y-42696547D01*
X91081334Y-42767976D01*
X91367048Y-43053690D01*
X91057524Y-43053690D01*
X90748001Y-42553690D02*
X90700381Y-42553690D01*
X90652762Y-42577500D01*
X90628953Y-42601309D01*
X90605143Y-42648928D01*
X90581334Y-42744166D01*
X90581334Y-42863214D01*
X90605143Y-42958452D01*
X90628953Y-43006071D01*
X90652762Y-43029880D01*
X90700381Y-43053690D01*
X90748001Y-43053690D01*
X90795620Y-43029880D01*
X90819429Y-43006071D01*
X90843239Y-42958452D01*
X90867048Y-42863214D01*
X90867048Y-42744166D01*
X90843239Y-42648928D01*
X90819429Y-42601309D01*
X90795620Y-42577500D01*
X90748001Y-42553690D01*
X90105143Y-43053690D02*
X90390858Y-43053690D01*
X90248001Y-43053690D02*
X90248001Y-42553690D01*
X90295620Y-42625119D01*
X90343239Y-42672738D01*
X90390858Y-42696547D01*
X89867048Y-43053690D02*
X89771810Y-43053690D01*
X89724191Y-43029880D01*
X89700381Y-43006071D01*
X89652762Y-42934642D01*
X89628953Y-42839404D01*
X89628953Y-42648928D01*
X89652762Y-42601309D01*
X89676572Y-42577500D01*
X89724191Y-42553690D01*
X89819429Y-42553690D01*
X89867048Y-42577500D01*
X89890858Y-42601309D01*
X89914667Y-42648928D01*
X89914667Y-42767976D01*
X89890858Y-42815595D01*
X89867048Y-42839404D01*
X89819429Y-42863214D01*
X89724191Y-42863214D01*
X89676572Y-42839404D01*
X89652762Y-42815595D01*
X89628953Y-42767976D01*
X89152762Y-43053690D02*
X89438477Y-43053690D01*
X89295620Y-43053690D02*
X89295620Y-42553690D01*
X89343239Y-42625119D01*
X89390858Y-42672738D01*
X89438477Y-42696547D01*
X88962286Y-42601309D02*
X88938477Y-42577500D01*
X88890858Y-42553690D01*
X88771810Y-42553690D01*
X88724191Y-42577500D01*
X88700381Y-42601309D01*
X88676572Y-42648928D01*
X88676572Y-42696547D01*
X88700381Y-42767976D01*
X88986096Y-43053690D01*
X88676572Y-43053690D01*
X88367048Y-42553690D02*
X88319429Y-42553690D01*
X88271810Y-42577500D01*
X88248001Y-42601309D01*
X88224191Y-42648928D01*
X88200381Y-42744166D01*
X88200381Y-42863214D01*
X88224191Y-42958452D01*
X88248001Y-43006071D01*
X88271810Y-43029880D01*
X88319429Y-43053690D01*
X88367048Y-43053690D01*
X88414667Y-43029880D01*
X88438477Y-43006071D01*
X88462286Y-42958452D01*
X88486096Y-42863214D01*
X88486096Y-42744166D01*
X88462286Y-42648928D01*
X88438477Y-42601309D01*
X88414667Y-42577500D01*
X88367048Y-42553690D01*
X88033715Y-42553690D02*
X87700381Y-42553690D01*
X87914667Y-43053690D01*
X87295620Y-43053690D02*
X87295620Y-42791785D01*
X87319429Y-42744166D01*
X87367048Y-42720357D01*
X87462286Y-42720357D01*
X87509905Y-42744166D01*
X87295620Y-43029880D02*
X87343239Y-43053690D01*
X87462286Y-43053690D01*
X87509905Y-43029880D01*
X87533715Y-42982261D01*
X87533715Y-42934642D01*
X87509905Y-42887023D01*
X87462286Y-42863214D01*
X87343239Y-42863214D01*
X87295620Y-42839404D01*
X102890858Y-34538190D02*
X102605143Y-34538190D01*
X102748001Y-35038190D02*
X102748001Y-34538190D01*
X102438477Y-35038190D02*
X102438477Y-34538190D01*
X102224191Y-35038190D02*
X102224191Y-34776285D01*
X102248001Y-34728666D01*
X102295620Y-34704857D01*
X102367048Y-34704857D01*
X102414667Y-34728666D01*
X102438477Y-34752476D01*
X101986096Y-35038190D02*
X101986096Y-34704857D01*
X101986096Y-34538190D02*
X102009905Y-34562000D01*
X101986096Y-34585809D01*
X101962286Y-34562000D01*
X101986096Y-34538190D01*
X101986096Y-34585809D01*
X101771810Y-35014380D02*
X101724191Y-35038190D01*
X101628953Y-35038190D01*
X101581334Y-35014380D01*
X101557524Y-34966761D01*
X101557524Y-34942952D01*
X101581334Y-34895333D01*
X101628953Y-34871523D01*
X101700381Y-34871523D01*
X101748001Y-34847714D01*
X101771810Y-34800095D01*
X101771810Y-34776285D01*
X101748001Y-34728666D01*
X101700381Y-34704857D01*
X101628953Y-34704857D01*
X101581334Y-34728666D01*
X100962286Y-35038190D02*
X100962286Y-34704857D01*
X100962286Y-34538190D02*
X100986096Y-34562000D01*
X100962286Y-34585809D01*
X100938477Y-34562000D01*
X100962286Y-34538190D01*
X100962286Y-34585809D01*
X100748001Y-35014380D02*
X100700381Y-35038190D01*
X100605143Y-35038190D01*
X100557524Y-35014380D01*
X100533715Y-34966761D01*
X100533715Y-34942952D01*
X100557524Y-34895333D01*
X100605143Y-34871523D01*
X100676572Y-34871523D01*
X100724191Y-34847714D01*
X100748001Y-34800095D01*
X100748001Y-34776285D01*
X100724191Y-34728666D01*
X100676572Y-34704857D01*
X100605143Y-34704857D01*
X100557524Y-34728666D01*
X99724191Y-35038190D02*
X99724191Y-34776285D01*
X99748001Y-34728666D01*
X99795620Y-34704857D01*
X99890858Y-34704857D01*
X99938477Y-34728666D01*
X99724191Y-35014380D02*
X99771810Y-35038190D01*
X99890858Y-35038190D01*
X99938477Y-35014380D01*
X99962286Y-34966761D01*
X99962286Y-34919142D01*
X99938477Y-34871523D01*
X99890858Y-34847714D01*
X99771810Y-34847714D01*
X99724191Y-34823904D01*
X99105143Y-35038190D02*
X99105143Y-34704857D01*
X99105143Y-34752476D02*
X99081334Y-34728666D01*
X99033715Y-34704857D01*
X98962286Y-34704857D01*
X98914667Y-34728666D01*
X98890858Y-34776285D01*
X98890858Y-35038190D01*
X98890858Y-34776285D02*
X98867048Y-34728666D01*
X98819429Y-34704857D01*
X98748001Y-34704857D01*
X98700381Y-34728666D01*
X98676572Y-34776285D01*
X98676572Y-35038190D01*
X98367048Y-35038190D02*
X98414667Y-35014380D01*
X98438477Y-34990571D01*
X98462286Y-34942952D01*
X98462286Y-34800095D01*
X98438477Y-34752476D01*
X98414667Y-34728666D01*
X98367048Y-34704857D01*
X98295620Y-34704857D01*
X98248001Y-34728666D01*
X98224191Y-34752476D01*
X98200381Y-34800095D01*
X98200381Y-34942952D01*
X98224191Y-34990571D01*
X98248001Y-35014380D01*
X98295620Y-35038190D01*
X98367048Y-35038190D01*
X97771810Y-35038190D02*
X97771810Y-34538190D01*
X97771810Y-35014380D02*
X97819429Y-35038190D01*
X97914667Y-35038190D01*
X97962286Y-35014380D01*
X97986096Y-34990571D01*
X98009905Y-34942952D01*
X98009905Y-34800095D01*
X97986096Y-34752476D01*
X97962286Y-34728666D01*
X97914667Y-34704857D01*
X97819429Y-34704857D01*
X97771810Y-34728666D01*
X97533715Y-35038190D02*
X97533715Y-34704857D01*
X97533715Y-34538190D02*
X97557524Y-34562000D01*
X97533715Y-34585809D01*
X97509905Y-34562000D01*
X97533715Y-34538190D01*
X97533715Y-34585809D01*
X97367048Y-34704857D02*
X97176572Y-34704857D01*
X97295620Y-35038190D02*
X97295620Y-34609619D01*
X97271810Y-34562000D01*
X97224191Y-34538190D01*
X97176572Y-34538190D01*
X97009905Y-35038190D02*
X97009905Y-34704857D01*
X97009905Y-34538190D02*
X97033715Y-34562000D01*
X97009905Y-34585809D01*
X96986096Y-34562000D01*
X97009905Y-34538190D01*
X97009905Y-34585809D01*
X96581334Y-35014380D02*
X96628953Y-35038190D01*
X96724191Y-35038190D01*
X96771810Y-35014380D01*
X96795620Y-34966761D01*
X96795620Y-34776285D01*
X96771810Y-34728666D01*
X96724191Y-34704857D01*
X96628953Y-34704857D01*
X96581334Y-34728666D01*
X96557524Y-34776285D01*
X96557524Y-34823904D01*
X96795620Y-34871523D01*
X96128953Y-35038190D02*
X96128953Y-34538190D01*
X96128953Y-35014380D02*
X96176572Y-35038190D01*
X96271810Y-35038190D01*
X96319429Y-35014380D01*
X96343239Y-34990571D01*
X96367048Y-34942952D01*
X96367048Y-34800095D01*
X96343239Y-34752476D01*
X96319429Y-34728666D01*
X96271810Y-34704857D01*
X96176572Y-34704857D01*
X96128953Y-34728666D01*
X95557524Y-34704857D02*
X95438477Y-35038190D01*
X95319429Y-34704857D01*
X94938477Y-35014380D02*
X94986096Y-35038190D01*
X95081334Y-35038190D01*
X95128953Y-35014380D01*
X95152762Y-34966761D01*
X95152762Y-34776285D01*
X95128953Y-34728666D01*
X95081334Y-34704857D01*
X94986096Y-34704857D01*
X94938477Y-34728666D01*
X94914667Y-34776285D01*
X94914667Y-34823904D01*
X95152762Y-34871523D01*
X94700381Y-35038190D02*
X94700381Y-34704857D01*
X94700381Y-34800095D02*
X94676572Y-34752476D01*
X94652762Y-34728666D01*
X94605143Y-34704857D01*
X94557524Y-34704857D01*
X94414667Y-35014380D02*
X94367048Y-35038190D01*
X94271810Y-35038190D01*
X94224191Y-35014380D01*
X94200381Y-34966761D01*
X94200381Y-34942952D01*
X94224191Y-34895333D01*
X94271810Y-34871523D01*
X94343239Y-34871523D01*
X94390858Y-34847714D01*
X94414667Y-34800095D01*
X94414667Y-34776285D01*
X94390858Y-34728666D01*
X94343239Y-34704857D01*
X94271810Y-34704857D01*
X94224191Y-34728666D01*
X93986096Y-35038190D02*
X93986096Y-34704857D01*
X93986096Y-34538190D02*
X94009905Y-34562000D01*
X93986096Y-34585809D01*
X93962286Y-34562000D01*
X93986096Y-34538190D01*
X93986096Y-34585809D01*
X93676572Y-35038190D02*
X93724191Y-35014380D01*
X93748001Y-34990571D01*
X93771810Y-34942952D01*
X93771810Y-34800095D01*
X93748001Y-34752476D01*
X93724191Y-34728666D01*
X93676572Y-34704857D01*
X93605143Y-34704857D01*
X93557524Y-34728666D01*
X93533715Y-34752476D01*
X93509905Y-34800095D01*
X93509905Y-34942952D01*
X93533715Y-34990571D01*
X93557524Y-35014380D01*
X93605143Y-35038190D01*
X93676572Y-35038190D01*
X93295620Y-34704857D02*
X93295620Y-35038190D01*
X93295620Y-34752476D02*
X93271810Y-34728666D01*
X93224191Y-34704857D01*
X93152762Y-34704857D01*
X93105143Y-34728666D01*
X93081334Y-34776285D01*
X93081334Y-35038190D01*
X92390858Y-35038190D02*
X92438477Y-35014380D01*
X92462286Y-34990571D01*
X92486096Y-34942952D01*
X92486096Y-34800095D01*
X92462286Y-34752476D01*
X92438477Y-34728666D01*
X92390858Y-34704857D01*
X92319429Y-34704857D01*
X92271810Y-34728666D01*
X92248001Y-34752476D01*
X92224191Y-34800095D01*
X92224191Y-34942952D01*
X92248001Y-34990571D01*
X92271810Y-35014380D01*
X92319429Y-35038190D01*
X92390858Y-35038190D01*
X92081334Y-34704857D02*
X91890858Y-34704857D01*
X92009905Y-35038190D02*
X92009905Y-34609619D01*
X91986096Y-34562000D01*
X91938477Y-34538190D01*
X91890858Y-34538190D01*
X91414667Y-34704857D02*
X91224191Y-34704857D01*
X91343239Y-34538190D02*
X91343239Y-34966761D01*
X91319429Y-35014380D01*
X91271810Y-35038190D01*
X91224191Y-35038190D01*
X91057524Y-35038190D02*
X91057524Y-34538190D01*
X90843239Y-35038190D02*
X90843239Y-34776285D01*
X90867048Y-34728666D01*
X90914667Y-34704857D01*
X90986096Y-34704857D01*
X91033715Y-34728666D01*
X91057524Y-34752476D01*
X90414667Y-35014380D02*
X90462286Y-35038190D01*
X90557524Y-35038190D01*
X90605143Y-35014380D01*
X90628953Y-34966761D01*
X90628953Y-34776285D01*
X90605143Y-34728666D01*
X90557524Y-34704857D01*
X90462286Y-34704857D01*
X90414667Y-34728666D01*
X90390858Y-34776285D01*
X90390858Y-34823904D01*
X90628953Y-34871523D01*
X89795620Y-34776285D02*
X89628953Y-34776285D01*
X89557524Y-35038190D02*
X89795620Y-35038190D01*
X89795620Y-34538190D01*
X89557524Y-34538190D01*
X89367048Y-35014380D02*
X89295620Y-35038190D01*
X89176572Y-35038190D01*
X89128953Y-35014380D01*
X89105143Y-34990571D01*
X89081334Y-34942952D01*
X89081334Y-34895333D01*
X89105143Y-34847714D01*
X89128953Y-34823904D01*
X89176572Y-34800095D01*
X89271810Y-34776285D01*
X89319429Y-34752476D01*
X89343239Y-34728666D01*
X89367048Y-34681047D01*
X89367048Y-34633428D01*
X89343239Y-34585809D01*
X89319429Y-34562000D01*
X89271810Y-34538190D01*
X89152762Y-34538190D01*
X89081334Y-34562000D01*
X88867048Y-35038190D02*
X88867048Y-34538190D01*
X88676572Y-34538190D01*
X88628953Y-34562000D01*
X88605143Y-34585809D01*
X88581334Y-34633428D01*
X88581334Y-34704857D01*
X88605143Y-34752476D01*
X88628953Y-34776285D01*
X88676572Y-34800095D01*
X88867048Y-34800095D01*
X88367048Y-35038190D02*
X88367048Y-34704857D01*
X88367048Y-34538190D02*
X88390858Y-34562000D01*
X88367048Y-34585809D01*
X88343239Y-34562000D01*
X88367048Y-34538190D01*
X88367048Y-34585809D01*
X88176572Y-35038190D02*
X87914667Y-34704857D01*
X88176572Y-34704857D02*
X87914667Y-35038190D01*
X87533715Y-35014380D02*
X87581334Y-35038190D01*
X87676572Y-35038190D01*
X87724191Y-35014380D01*
X87748001Y-34966761D01*
X87748001Y-34776285D01*
X87724191Y-34728666D01*
X87676572Y-34704857D01*
X87581334Y-34704857D01*
X87533715Y-34728666D01*
X87509905Y-34776285D01*
X87509905Y-34823904D01*
X87748001Y-34871523D01*
X87224191Y-35038190D02*
X87271810Y-35014380D01*
X87295620Y-34966761D01*
X87295620Y-34538190D01*
X87057524Y-35014380D02*
X86986096Y-35038190D01*
X86867048Y-35038190D01*
X86819429Y-35014380D01*
X86795620Y-34990571D01*
X86771810Y-34942952D01*
X86771810Y-34895333D01*
X86795620Y-34847714D01*
X86819429Y-34823904D01*
X86867048Y-34800095D01*
X86962286Y-34776285D01*
X87009905Y-34752476D01*
X87033715Y-34728666D01*
X87057524Y-34681047D01*
X87057524Y-34633428D01*
X87033715Y-34585809D01*
X87009905Y-34562000D01*
X86962286Y-34538190D01*
X86843239Y-34538190D01*
X86771810Y-34562000D01*
X86628953Y-34704857D02*
X86438477Y-34704857D01*
X86557524Y-34538190D02*
X86557524Y-34966761D01*
X86533715Y-35014380D01*
X86486096Y-35038190D01*
X86438477Y-35038190D01*
X86271810Y-35038190D02*
X86271810Y-34704857D01*
X86271810Y-34538190D02*
X86295620Y-34562000D01*
X86271810Y-34585809D01*
X86248001Y-34562000D01*
X86271810Y-34538190D01*
X86271810Y-34585809D01*
X85819429Y-35014380D02*
X85867048Y-35038190D01*
X85962286Y-35038190D01*
X86009905Y-35014380D01*
X86033715Y-34990571D01*
X86057524Y-34942952D01*
X86057524Y-34800095D01*
X86033715Y-34752476D01*
X86009905Y-34728666D01*
X85962286Y-34704857D01*
X85867048Y-34704857D01*
X85819429Y-34728666D01*
X85605143Y-35038190D02*
X85605143Y-34538190D01*
X85557524Y-34847714D02*
X85414667Y-35038190D01*
X85414667Y-34704857D02*
X85605143Y-34895333D01*
X84819429Y-35038190D02*
X84819429Y-34538190D01*
X84605143Y-35038190D02*
X84605143Y-34776285D01*
X84628953Y-34728666D01*
X84676572Y-34704857D01*
X84748001Y-34704857D01*
X84795620Y-34728666D01*
X84819429Y-34752476D01*
X84152762Y-35038190D02*
X84152762Y-34776285D01*
X84176572Y-34728666D01*
X84224191Y-34704857D01*
X84319429Y-34704857D01*
X84367048Y-34728666D01*
X84152762Y-35014380D02*
X84200381Y-35038190D01*
X84319429Y-35038190D01*
X84367048Y-35014380D01*
X84390858Y-34966761D01*
X84390858Y-34919142D01*
X84367048Y-34871523D01*
X84319429Y-34847714D01*
X84200381Y-34847714D01*
X84152762Y-34823904D01*
X83914667Y-35038190D02*
X83914667Y-34704857D01*
X83914667Y-34800095D02*
X83890858Y-34752476D01*
X83867048Y-34728666D01*
X83819429Y-34704857D01*
X83771810Y-34704857D01*
X83390858Y-35038190D02*
X83390858Y-34538190D01*
X83390858Y-35014380D02*
X83438477Y-35038190D01*
X83533715Y-35038190D01*
X83581334Y-35014380D01*
X83605143Y-34990571D01*
X83628953Y-34942952D01*
X83628953Y-34800095D01*
X83605143Y-34752476D01*
X83581334Y-34728666D01*
X83533715Y-34704857D01*
X83438477Y-34704857D01*
X83390858Y-34728666D01*
X83200381Y-34704857D02*
X83105143Y-35038190D01*
X83009905Y-34800095D01*
X82914667Y-35038190D01*
X82819429Y-34704857D01*
X82414667Y-35038190D02*
X82414667Y-34776285D01*
X82438477Y-34728666D01*
X82486096Y-34704857D01*
X82581334Y-34704857D01*
X82628953Y-34728666D01*
X82414667Y-35014380D02*
X82462286Y-35038190D01*
X82581334Y-35038190D01*
X82628953Y-35014380D01*
X82652762Y-34966761D01*
X82652762Y-34919142D01*
X82628953Y-34871523D01*
X82581334Y-34847714D01*
X82462286Y-34847714D01*
X82414667Y-34823904D01*
X82176572Y-35038190D02*
X82176572Y-34704857D01*
X82176572Y-34800095D02*
X82152762Y-34752476D01*
X82128953Y-34728666D01*
X82081334Y-34704857D01*
X82033715Y-34704857D01*
X81676572Y-35014380D02*
X81724191Y-35038190D01*
X81819429Y-35038190D01*
X81867048Y-35014380D01*
X81890858Y-34966761D01*
X81890858Y-34776285D01*
X81867048Y-34728666D01*
X81819429Y-34704857D01*
X81724191Y-34704857D01*
X81676572Y-34728666D01*
X81652762Y-34776285D01*
X81652762Y-34823904D01*
X81890858Y-34871523D01*
X103521810Y-35913190D02*
X103521810Y-35413190D01*
X103521810Y-35889380D02*
X103569429Y-35913190D01*
X103664667Y-35913190D01*
X103712286Y-35889380D01*
X103736096Y-35865571D01*
X103759905Y-35817952D01*
X103759905Y-35675095D01*
X103736096Y-35627476D01*
X103712286Y-35603666D01*
X103664667Y-35579857D01*
X103569429Y-35579857D01*
X103521810Y-35603666D01*
X103093239Y-35889380D02*
X103140858Y-35913190D01*
X103236096Y-35913190D01*
X103283715Y-35889380D01*
X103307524Y-35841761D01*
X103307524Y-35651285D01*
X103283715Y-35603666D01*
X103236096Y-35579857D01*
X103140858Y-35579857D01*
X103093239Y-35603666D01*
X103069429Y-35651285D01*
X103069429Y-35698904D01*
X103307524Y-35746523D01*
X102878953Y-35889380D02*
X102831334Y-35913190D01*
X102736096Y-35913190D01*
X102688477Y-35889380D01*
X102664667Y-35841761D01*
X102664667Y-35817952D01*
X102688477Y-35770333D01*
X102736096Y-35746523D01*
X102807524Y-35746523D01*
X102855143Y-35722714D01*
X102878953Y-35675095D01*
X102878953Y-35651285D01*
X102855143Y-35603666D01*
X102807524Y-35579857D01*
X102736096Y-35579857D01*
X102688477Y-35603666D01*
X102450381Y-35913190D02*
X102450381Y-35579857D01*
X102450381Y-35413190D02*
X102474191Y-35437000D01*
X102450381Y-35460809D01*
X102426572Y-35437000D01*
X102450381Y-35413190D01*
X102450381Y-35460809D01*
X101998001Y-35579857D02*
X101998001Y-35984619D01*
X102021810Y-36032238D01*
X102045620Y-36056047D01*
X102093239Y-36079857D01*
X102164667Y-36079857D01*
X102212286Y-36056047D01*
X101998001Y-35889380D02*
X102045620Y-35913190D01*
X102140858Y-35913190D01*
X102188477Y-35889380D01*
X102212286Y-35865571D01*
X102236096Y-35817952D01*
X102236096Y-35675095D01*
X102212286Y-35627476D01*
X102188477Y-35603666D01*
X102140858Y-35579857D01*
X102045620Y-35579857D01*
X101998001Y-35603666D01*
X101759905Y-35579857D02*
X101759905Y-35913190D01*
X101759905Y-35627476D02*
X101736096Y-35603666D01*
X101688477Y-35579857D01*
X101617048Y-35579857D01*
X101569429Y-35603666D01*
X101545620Y-35651285D01*
X101545620Y-35913190D01*
X100926572Y-35913190D02*
X100926572Y-35413190D01*
X100926572Y-35603666D02*
X100878953Y-35579857D01*
X100783715Y-35579857D01*
X100736096Y-35603666D01*
X100712286Y-35627476D01*
X100688477Y-35675095D01*
X100688477Y-35817952D01*
X100712286Y-35865571D01*
X100736096Y-35889380D01*
X100783715Y-35913190D01*
X100878953Y-35913190D01*
X100926572Y-35889380D01*
X100521810Y-35579857D02*
X100402762Y-35913190D01*
X100283715Y-35579857D02*
X100402762Y-35913190D01*
X100450381Y-36032238D01*
X100474191Y-36056047D01*
X100521810Y-36079857D01*
X99736096Y-35889380D02*
X99664667Y-35913190D01*
X99545620Y-35913190D01*
X99498001Y-35889380D01*
X99474191Y-35865571D01*
X99450381Y-35817952D01*
X99450381Y-35770333D01*
X99474191Y-35722714D01*
X99498001Y-35698904D01*
X99545620Y-35675095D01*
X99640858Y-35651285D01*
X99688477Y-35627476D01*
X99712286Y-35603666D01*
X99736096Y-35556047D01*
X99736096Y-35508428D01*
X99712286Y-35460809D01*
X99688477Y-35437000D01*
X99640858Y-35413190D01*
X99521810Y-35413190D01*
X99450381Y-35437000D01*
X99236096Y-35913190D02*
X99236096Y-35413190D01*
X99021810Y-35913190D02*
X99021810Y-35651285D01*
X99045620Y-35603666D01*
X99093239Y-35579857D01*
X99164667Y-35579857D01*
X99212286Y-35603666D01*
X99236096Y-35627476D01*
X98593239Y-35889380D02*
X98640858Y-35913190D01*
X98736096Y-35913190D01*
X98783715Y-35889380D01*
X98807524Y-35841761D01*
X98807524Y-35651285D01*
X98783715Y-35603666D01*
X98736096Y-35579857D01*
X98640858Y-35579857D01*
X98593239Y-35603666D01*
X98569429Y-35651285D01*
X98569429Y-35698904D01*
X98807524Y-35746523D01*
X98283715Y-35913190D02*
X98331334Y-35889380D01*
X98355143Y-35841761D01*
X98355143Y-35413190D01*
X98093239Y-35913190D02*
X98093239Y-35413190D01*
X98093239Y-35603666D02*
X98045620Y-35579857D01*
X97950381Y-35579857D01*
X97902762Y-35603666D01*
X97878953Y-35627476D01*
X97855143Y-35675095D01*
X97855143Y-35817952D01*
X97878953Y-35865571D01*
X97902762Y-35889380D01*
X97950381Y-35913190D01*
X98045620Y-35913190D01*
X98093239Y-35889380D01*
X97688477Y-35579857D02*
X97569429Y-35913190D01*
X97450381Y-35579857D02*
X97569429Y-35913190D01*
X97617048Y-36032238D01*
X97640858Y-36056047D01*
X97688477Y-36079857D01*
X96878953Y-35913190D02*
X96878953Y-35413190D01*
X96712286Y-35770333D01*
X96545620Y-35413190D01*
X96545620Y-35913190D01*
X96117048Y-35889380D02*
X96164667Y-35913190D01*
X96259905Y-35913190D01*
X96307524Y-35889380D01*
X96331334Y-35841761D01*
X96331334Y-35651285D01*
X96307524Y-35603666D01*
X96259905Y-35579857D01*
X96164667Y-35579857D01*
X96117048Y-35603666D01*
X96093239Y-35651285D01*
X96093239Y-35698904D01*
X96331334Y-35746523D01*
X95878953Y-35913190D02*
X95878953Y-35579857D01*
X95878953Y-35675095D02*
X95855143Y-35627476D01*
X95831334Y-35603666D01*
X95783715Y-35579857D01*
X95736096Y-35579857D01*
X95569429Y-35913190D02*
X95569429Y-35579857D01*
X95569429Y-35675095D02*
X95545620Y-35627476D01*
X95521810Y-35603666D01*
X95474191Y-35579857D01*
X95426572Y-35579857D01*
X95259905Y-35913190D02*
X95259905Y-35579857D01*
X95259905Y-35413190D02*
X95283715Y-35437000D01*
X95259905Y-35460809D01*
X95236096Y-35437000D01*
X95259905Y-35413190D01*
X95259905Y-35460809D01*
X94807524Y-35889380D02*
X94855143Y-35913190D01*
X94950381Y-35913190D01*
X94998001Y-35889380D01*
X95021810Y-35865571D01*
X95045620Y-35817952D01*
X95045620Y-35675095D01*
X95021810Y-35627476D01*
X94998001Y-35603666D01*
X94950381Y-35579857D01*
X94855143Y-35579857D01*
X94807524Y-35603666D01*
X94593239Y-35913190D02*
X94593239Y-35413190D01*
X94545620Y-35722714D02*
X94402762Y-35913190D01*
X94402762Y-35579857D02*
X94593239Y-35770333D01*
X94188477Y-35865571D02*
X94164667Y-35889380D01*
X94188477Y-35913190D01*
X94212286Y-35889380D01*
X94188477Y-35865571D01*
X94188477Y-35913190D01*
X93640858Y-35413190D02*
X93355143Y-35413190D01*
X93498001Y-35913190D02*
X93498001Y-35413190D01*
X93188477Y-35913190D02*
X93188477Y-35413190D01*
X92974191Y-35913190D02*
X92974191Y-35651285D01*
X92998001Y-35603666D01*
X93045620Y-35579857D01*
X93117048Y-35579857D01*
X93164667Y-35603666D01*
X93188477Y-35627476D01*
X92736096Y-35913190D02*
X92736096Y-35579857D01*
X92736096Y-35413190D02*
X92759905Y-35437000D01*
X92736096Y-35460809D01*
X92712286Y-35437000D01*
X92736096Y-35413190D01*
X92736096Y-35460809D01*
X92521810Y-35889380D02*
X92474191Y-35913190D01*
X92378953Y-35913190D01*
X92331334Y-35889380D01*
X92307524Y-35841761D01*
X92307524Y-35817952D01*
X92331334Y-35770333D01*
X92378953Y-35746523D01*
X92450381Y-35746523D01*
X92498001Y-35722714D01*
X92521810Y-35675095D01*
X92521810Y-35651285D01*
X92498001Y-35603666D01*
X92450381Y-35579857D01*
X92378953Y-35579857D01*
X92331334Y-35603666D01*
X91712286Y-35913190D02*
X91712286Y-35413190D01*
X91712286Y-35603666D02*
X91664667Y-35579857D01*
X91569429Y-35579857D01*
X91521810Y-35603666D01*
X91498001Y-35627476D01*
X91474191Y-35675095D01*
X91474191Y-35817952D01*
X91498001Y-35865571D01*
X91521810Y-35889380D01*
X91569429Y-35913190D01*
X91664667Y-35913190D01*
X91712286Y-35889380D01*
X91188477Y-35913190D02*
X91236096Y-35889380D01*
X91259905Y-35865571D01*
X91283715Y-35817952D01*
X91283715Y-35675095D01*
X91259905Y-35627476D01*
X91236096Y-35603666D01*
X91188477Y-35579857D01*
X91117048Y-35579857D01*
X91069429Y-35603666D01*
X91045620Y-35627476D01*
X91021810Y-35675095D01*
X91021810Y-35817952D01*
X91045620Y-35865571D01*
X91069429Y-35889380D01*
X91117048Y-35913190D01*
X91188477Y-35913190D01*
X90593239Y-35913190D02*
X90593239Y-35651285D01*
X90617048Y-35603666D01*
X90664667Y-35579857D01*
X90759905Y-35579857D01*
X90807524Y-35603666D01*
X90593239Y-35889380D02*
X90640858Y-35913190D01*
X90759905Y-35913190D01*
X90807524Y-35889380D01*
X90831334Y-35841761D01*
X90831334Y-35794142D01*
X90807524Y-35746523D01*
X90759905Y-35722714D01*
X90640858Y-35722714D01*
X90593239Y-35698904D01*
X90355143Y-35913190D02*
X90355143Y-35579857D01*
X90355143Y-35675095D02*
X90331334Y-35627476D01*
X90307524Y-35603666D01*
X90259905Y-35579857D01*
X90212286Y-35579857D01*
X89831334Y-35913190D02*
X89831334Y-35413190D01*
X89831334Y-35889380D02*
X89878953Y-35913190D01*
X89974191Y-35913190D01*
X90021810Y-35889380D01*
X90045620Y-35865571D01*
X90069429Y-35817952D01*
X90069429Y-35675095D01*
X90045620Y-35627476D01*
X90021810Y-35603666D01*
X89974191Y-35579857D01*
X89878953Y-35579857D01*
X89831334Y-35603666D01*
X89212286Y-35913190D02*
X89212286Y-35579857D01*
X89212286Y-35413190D02*
X89236096Y-35437000D01*
X89212286Y-35460809D01*
X89188477Y-35437000D01*
X89212286Y-35413190D01*
X89212286Y-35460809D01*
X88998001Y-35889380D02*
X88950381Y-35913190D01*
X88855143Y-35913190D01*
X88807524Y-35889380D01*
X88783715Y-35841761D01*
X88783715Y-35817952D01*
X88807524Y-35770333D01*
X88855143Y-35746523D01*
X88926572Y-35746523D01*
X88974191Y-35722714D01*
X88998001Y-35675095D01*
X88998001Y-35651285D01*
X88974191Y-35603666D01*
X88926572Y-35579857D01*
X88855143Y-35579857D01*
X88807524Y-35603666D01*
X87974191Y-35913190D02*
X87974191Y-35413190D01*
X87974191Y-35889380D02*
X88021810Y-35913190D01*
X88117048Y-35913190D01*
X88164667Y-35889380D01*
X88188477Y-35865571D01*
X88212286Y-35817952D01*
X88212286Y-35675095D01*
X88188477Y-35627476D01*
X88164667Y-35603666D01*
X88117048Y-35579857D01*
X88021810Y-35579857D01*
X87974191Y-35603666D01*
X87545620Y-35889380D02*
X87593239Y-35913190D01*
X87688477Y-35913190D01*
X87736096Y-35889380D01*
X87759905Y-35841761D01*
X87759905Y-35651285D01*
X87736096Y-35603666D01*
X87688477Y-35579857D01*
X87593239Y-35579857D01*
X87545620Y-35603666D01*
X87521810Y-35651285D01*
X87521810Y-35698904D01*
X87759905Y-35746523D01*
X87331334Y-35889380D02*
X87283715Y-35913190D01*
X87188477Y-35913190D01*
X87140858Y-35889380D01*
X87117048Y-35841761D01*
X87117048Y-35817952D01*
X87140858Y-35770333D01*
X87188477Y-35746523D01*
X87259905Y-35746523D01*
X87307524Y-35722714D01*
X87331334Y-35675095D01*
X87331334Y-35651285D01*
X87307524Y-35603666D01*
X87259905Y-35579857D01*
X87188477Y-35579857D01*
X87140858Y-35603666D01*
X86902762Y-35913190D02*
X86902762Y-35579857D01*
X86902762Y-35413190D02*
X86926572Y-35437000D01*
X86902762Y-35460809D01*
X86878953Y-35437000D01*
X86902762Y-35413190D01*
X86902762Y-35460809D01*
X86450381Y-35579857D02*
X86450381Y-35984619D01*
X86474191Y-36032238D01*
X86498001Y-36056047D01*
X86545620Y-36079857D01*
X86617048Y-36079857D01*
X86664667Y-36056047D01*
X86450381Y-35889380D02*
X86498001Y-35913190D01*
X86593239Y-35913190D01*
X86640858Y-35889380D01*
X86664667Y-35865571D01*
X86688477Y-35817952D01*
X86688477Y-35675095D01*
X86664667Y-35627476D01*
X86640858Y-35603666D01*
X86593239Y-35579857D01*
X86498001Y-35579857D01*
X86450381Y-35603666D01*
X86212286Y-35579857D02*
X86212286Y-35913190D01*
X86212286Y-35627476D02*
X86188477Y-35603666D01*
X86140858Y-35579857D01*
X86069429Y-35579857D01*
X86021810Y-35603666D01*
X85998001Y-35651285D01*
X85998001Y-35913190D01*
X85569429Y-35889380D02*
X85617048Y-35913190D01*
X85712286Y-35913190D01*
X85759905Y-35889380D01*
X85783715Y-35841761D01*
X85783715Y-35651285D01*
X85759905Y-35603666D01*
X85712286Y-35579857D01*
X85617048Y-35579857D01*
X85569429Y-35603666D01*
X85545620Y-35651285D01*
X85545620Y-35698904D01*
X85783715Y-35746523D01*
X85117048Y-35913190D02*
X85117048Y-35413190D01*
X85117048Y-35889380D02*
X85164667Y-35913190D01*
X85259905Y-35913190D01*
X85307524Y-35889380D01*
X85331334Y-35865571D01*
X85355143Y-35817952D01*
X85355143Y-35675095D01*
X85331334Y-35627476D01*
X85307524Y-35603666D01*
X85259905Y-35579857D01*
X85164667Y-35579857D01*
X85117048Y-35603666D01*
X84569429Y-35579857D02*
X84378953Y-35579857D01*
X84498001Y-35413190D02*
X84498001Y-35841761D01*
X84474191Y-35889380D01*
X84426572Y-35913190D01*
X84378953Y-35913190D01*
X84140858Y-35913190D02*
X84188477Y-35889380D01*
X84212286Y-35865571D01*
X84236096Y-35817952D01*
X84236096Y-35675095D01*
X84212286Y-35627476D01*
X84188477Y-35603666D01*
X84140858Y-35579857D01*
X84069429Y-35579857D01*
X84021810Y-35603666D01*
X83998001Y-35627476D01*
X83974191Y-35675095D01*
X83974191Y-35817952D01*
X83998001Y-35865571D01*
X84021810Y-35889380D01*
X84069429Y-35913190D01*
X84140858Y-35913190D01*
X83164667Y-35913190D02*
X83164667Y-35651285D01*
X83188477Y-35603666D01*
X83236096Y-35579857D01*
X83331334Y-35579857D01*
X83378953Y-35603666D01*
X83164667Y-35889380D02*
X83212286Y-35913190D01*
X83331334Y-35913190D01*
X83378953Y-35889380D01*
X83402762Y-35841761D01*
X83402762Y-35794142D01*
X83378953Y-35746523D01*
X83331334Y-35722714D01*
X83212286Y-35722714D01*
X83164667Y-35698904D01*
X82712286Y-35889380D02*
X82759905Y-35913190D01*
X82855143Y-35913190D01*
X82902762Y-35889380D01*
X82926572Y-35865571D01*
X82950381Y-35817952D01*
X82950381Y-35675095D01*
X82926572Y-35627476D01*
X82902762Y-35603666D01*
X82855143Y-35579857D01*
X82759905Y-35579857D01*
X82712286Y-35603666D01*
X82283715Y-35889380D02*
X82331334Y-35913190D01*
X82426572Y-35913190D01*
X82474191Y-35889380D01*
X82498001Y-35865571D01*
X82521810Y-35817952D01*
X82521810Y-35675095D01*
X82498001Y-35627476D01*
X82474191Y-35603666D01*
X82426572Y-35579857D01*
X82331334Y-35579857D01*
X82283715Y-35603666D01*
X81878953Y-35889380D02*
X81926572Y-35913190D01*
X82021810Y-35913190D01*
X82069429Y-35889380D01*
X82093239Y-35841761D01*
X82093239Y-35651285D01*
X82069429Y-35603666D01*
X82021810Y-35579857D01*
X81926572Y-35579857D01*
X81878953Y-35603666D01*
X81855143Y-35651285D01*
X81855143Y-35698904D01*
X82093239Y-35746523D01*
X81640858Y-35579857D02*
X81640858Y-36079857D01*
X81640858Y-35603666D02*
X81593239Y-35579857D01*
X81498001Y-35579857D01*
X81450381Y-35603666D01*
X81426572Y-35627476D01*
X81402762Y-35675095D01*
X81402762Y-35817952D01*
X81426572Y-35865571D01*
X81450381Y-35889380D01*
X81498001Y-35913190D01*
X81593239Y-35913190D01*
X81640858Y-35889380D01*
X81259905Y-35579857D02*
X81069429Y-35579857D01*
X81188477Y-35413190D02*
X81188477Y-35841761D01*
X81164667Y-35889380D01*
X81117048Y-35913190D01*
X81069429Y-35913190D01*
X103188477Y-36788190D02*
X103188477Y-36526285D01*
X103212286Y-36478666D01*
X103259905Y-36454857D01*
X103355143Y-36454857D01*
X103402762Y-36478666D01*
X103188477Y-36764380D02*
X103236096Y-36788190D01*
X103355143Y-36788190D01*
X103402762Y-36764380D01*
X103426572Y-36716761D01*
X103426572Y-36669142D01*
X103402762Y-36621523D01*
X103355143Y-36597714D01*
X103236096Y-36597714D01*
X103188477Y-36573904D01*
X102569429Y-36454857D02*
X102569429Y-36954857D01*
X102569429Y-36478666D02*
X102521810Y-36454857D01*
X102426572Y-36454857D01*
X102378953Y-36478666D01*
X102355143Y-36502476D01*
X102331334Y-36550095D01*
X102331334Y-36692952D01*
X102355143Y-36740571D01*
X102378953Y-36764380D01*
X102426572Y-36788190D01*
X102521810Y-36788190D01*
X102569429Y-36764380D01*
X102117048Y-36788190D02*
X102117048Y-36454857D01*
X102117048Y-36550095D02*
X102093239Y-36502476D01*
X102069429Y-36478666D01*
X102021810Y-36454857D01*
X101974191Y-36454857D01*
X101617048Y-36764380D02*
X101664667Y-36788190D01*
X101759905Y-36788190D01*
X101807524Y-36764380D01*
X101831334Y-36716761D01*
X101831334Y-36526285D01*
X101807524Y-36478666D01*
X101759905Y-36454857D01*
X101664667Y-36454857D01*
X101617048Y-36478666D01*
X101593239Y-36526285D01*
X101593239Y-36573904D01*
X101831334Y-36621523D01*
X101378953Y-36597714D02*
X100998001Y-36597714D01*
X100759905Y-36454857D02*
X100759905Y-36954857D01*
X100759905Y-36478666D02*
X100712286Y-36454857D01*
X100617048Y-36454857D01*
X100569429Y-36478666D01*
X100545620Y-36502476D01*
X100521810Y-36550095D01*
X100521810Y-36692952D01*
X100545620Y-36740571D01*
X100569429Y-36764380D01*
X100617048Y-36788190D01*
X100712286Y-36788190D01*
X100759905Y-36764380D01*
X100307524Y-36788190D02*
X100307524Y-36454857D01*
X100307524Y-36550095D02*
X100283715Y-36502476D01*
X100259905Y-36478666D01*
X100212286Y-36454857D01*
X100164667Y-36454857D01*
X99926572Y-36788190D02*
X99974191Y-36764380D01*
X99998001Y-36740571D01*
X100021810Y-36692952D01*
X100021810Y-36550095D01*
X99998001Y-36502476D01*
X99974191Y-36478666D01*
X99926572Y-36454857D01*
X99855143Y-36454857D01*
X99807524Y-36478666D01*
X99783715Y-36502476D01*
X99759905Y-36550095D01*
X99759905Y-36692952D01*
X99783715Y-36740571D01*
X99807524Y-36764380D01*
X99855143Y-36788190D01*
X99926572Y-36788190D01*
X99331334Y-36454857D02*
X99331334Y-36859619D01*
X99355143Y-36907238D01*
X99378953Y-36931047D01*
X99426572Y-36954857D01*
X99498001Y-36954857D01*
X99545620Y-36931047D01*
X99331334Y-36764380D02*
X99378953Y-36788190D01*
X99474191Y-36788190D01*
X99521810Y-36764380D01*
X99545620Y-36740571D01*
X99569429Y-36692952D01*
X99569429Y-36550095D01*
X99545620Y-36502476D01*
X99521810Y-36478666D01*
X99474191Y-36454857D01*
X99378953Y-36454857D01*
X99331334Y-36478666D01*
X99093239Y-36788190D02*
X99093239Y-36454857D01*
X99093239Y-36550095D02*
X99069429Y-36502476D01*
X99045620Y-36478666D01*
X98998001Y-36454857D01*
X98950381Y-36454857D01*
X98569429Y-36788190D02*
X98569429Y-36526285D01*
X98593239Y-36478666D01*
X98640858Y-36454857D01*
X98736096Y-36454857D01*
X98783715Y-36478666D01*
X98569429Y-36764380D02*
X98617048Y-36788190D01*
X98736096Y-36788190D01*
X98783715Y-36764380D01*
X98807524Y-36716761D01*
X98807524Y-36669142D01*
X98783715Y-36621523D01*
X98736096Y-36597714D01*
X98617048Y-36597714D01*
X98569429Y-36573904D01*
X98331334Y-36788190D02*
X98331334Y-36454857D01*
X98331334Y-36502476D02*
X98307524Y-36478666D01*
X98259905Y-36454857D01*
X98188477Y-36454857D01*
X98140858Y-36478666D01*
X98117048Y-36526285D01*
X98117048Y-36788190D01*
X98117048Y-36526285D02*
X98093239Y-36478666D01*
X98045620Y-36454857D01*
X97974191Y-36454857D01*
X97926572Y-36478666D01*
X97902762Y-36526285D01*
X97902762Y-36788190D01*
X97664667Y-36788190D02*
X97664667Y-36454857D01*
X97664667Y-36502476D02*
X97640858Y-36478666D01*
X97593239Y-36454857D01*
X97521810Y-36454857D01*
X97474191Y-36478666D01*
X97450381Y-36526285D01*
X97450381Y-36788190D01*
X97450381Y-36526285D02*
X97426572Y-36478666D01*
X97378953Y-36454857D01*
X97307524Y-36454857D01*
X97259905Y-36478666D01*
X97236096Y-36526285D01*
X97236096Y-36788190D01*
X96807524Y-36764380D02*
X96855143Y-36788190D01*
X96950381Y-36788190D01*
X96998001Y-36764380D01*
X97021810Y-36716761D01*
X97021810Y-36526285D01*
X96998001Y-36478666D01*
X96950381Y-36454857D01*
X96855143Y-36454857D01*
X96807524Y-36478666D01*
X96783715Y-36526285D01*
X96783715Y-36573904D01*
X97021810Y-36621523D01*
X96355143Y-36788190D02*
X96355143Y-36288190D01*
X96355143Y-36764380D02*
X96402762Y-36788190D01*
X96498001Y-36788190D01*
X96545620Y-36764380D01*
X96569429Y-36740571D01*
X96593239Y-36692952D01*
X96593239Y-36550095D01*
X96569429Y-36502476D01*
X96545620Y-36478666D01*
X96498001Y-36454857D01*
X96402762Y-36454857D01*
X96355143Y-36478666D01*
X95736096Y-36526285D02*
X95569429Y-36526285D01*
X95498001Y-36788190D02*
X95736096Y-36788190D01*
X95736096Y-36288190D01*
X95498001Y-36288190D01*
X95307524Y-36764380D02*
X95236096Y-36788190D01*
X95117048Y-36788190D01*
X95069429Y-36764380D01*
X95045620Y-36740571D01*
X95021810Y-36692952D01*
X95021810Y-36645333D01*
X95045620Y-36597714D01*
X95069429Y-36573904D01*
X95117048Y-36550095D01*
X95212286Y-36526285D01*
X95259905Y-36502476D01*
X95283715Y-36478666D01*
X95307524Y-36431047D01*
X95307524Y-36383428D01*
X95283715Y-36335809D01*
X95259905Y-36312000D01*
X95212286Y-36288190D01*
X95093239Y-36288190D01*
X95021810Y-36312000D01*
X94807524Y-36788190D02*
X94807524Y-36288190D01*
X94617048Y-36288190D01*
X94569429Y-36312000D01*
X94545620Y-36335809D01*
X94521810Y-36383428D01*
X94521810Y-36454857D01*
X94545620Y-36502476D01*
X94569429Y-36526285D01*
X94617048Y-36550095D01*
X94807524Y-36550095D01*
X94307524Y-36597714D02*
X93926572Y-36597714D01*
X93593239Y-36288190D02*
X93545620Y-36288190D01*
X93498001Y-36312000D01*
X93474191Y-36335809D01*
X93450381Y-36383428D01*
X93426572Y-36478666D01*
X93426572Y-36597714D01*
X93450381Y-36692952D01*
X93474191Y-36740571D01*
X93498001Y-36764380D01*
X93545620Y-36788190D01*
X93593239Y-36788190D01*
X93640858Y-36764380D01*
X93664667Y-36740571D01*
X93688477Y-36692952D01*
X93712286Y-36597714D01*
X93712286Y-36478666D01*
X93688477Y-36383428D01*
X93664667Y-36335809D01*
X93640858Y-36312000D01*
X93593239Y-36288190D01*
X92950381Y-36788190D02*
X93236096Y-36788190D01*
X93093239Y-36788190D02*
X93093239Y-36288190D01*
X93140858Y-36359619D01*
X93188477Y-36407238D01*
X93236096Y-36431047D01*
X92355143Y-36788190D02*
X92355143Y-36454857D01*
X92355143Y-36502476D02*
X92331334Y-36478666D01*
X92283715Y-36454857D01*
X92212286Y-36454857D01*
X92164667Y-36478666D01*
X92140858Y-36526285D01*
X92140858Y-36788190D01*
X92140858Y-36526285D02*
X92117048Y-36478666D01*
X92069429Y-36454857D01*
X91998001Y-36454857D01*
X91950381Y-36478666D01*
X91926572Y-36526285D01*
X91926572Y-36788190D01*
X91617048Y-36788190D02*
X91664667Y-36764380D01*
X91688477Y-36740571D01*
X91712286Y-36692952D01*
X91712286Y-36550095D01*
X91688477Y-36502476D01*
X91664667Y-36478666D01*
X91617048Y-36454857D01*
X91545620Y-36454857D01*
X91498001Y-36478666D01*
X91474191Y-36502476D01*
X91450381Y-36550095D01*
X91450381Y-36692952D01*
X91474191Y-36740571D01*
X91498001Y-36764380D01*
X91545620Y-36788190D01*
X91617048Y-36788190D01*
X91021810Y-36788190D02*
X91021810Y-36288190D01*
X91021810Y-36764380D02*
X91069429Y-36788190D01*
X91164667Y-36788190D01*
X91212286Y-36764380D01*
X91236096Y-36740571D01*
X91259905Y-36692952D01*
X91259905Y-36550095D01*
X91236096Y-36502476D01*
X91212286Y-36478666D01*
X91164667Y-36454857D01*
X91069429Y-36454857D01*
X91021810Y-36478666D01*
X90569429Y-36454857D02*
X90569429Y-36788190D01*
X90783715Y-36454857D02*
X90783715Y-36716761D01*
X90759905Y-36764380D01*
X90712286Y-36788190D01*
X90640858Y-36788190D01*
X90593239Y-36764380D01*
X90569429Y-36740571D01*
X90259905Y-36788190D02*
X90307524Y-36764380D01*
X90331334Y-36716761D01*
X90331334Y-36288190D01*
X89878953Y-36764380D02*
X89926572Y-36788190D01*
X90021810Y-36788190D01*
X90069429Y-36764380D01*
X90093239Y-36716761D01*
X90093239Y-36526285D01*
X90069429Y-36478666D01*
X90021810Y-36454857D01*
X89926572Y-36454857D01*
X89878953Y-36478666D01*
X89855143Y-36526285D01*
X89855143Y-36573904D01*
X90093239Y-36621523D01*
X89307524Y-36454857D02*
X89212286Y-36788190D01*
X89117048Y-36550095D01*
X89021810Y-36788190D01*
X88926572Y-36454857D01*
X88736096Y-36788190D02*
X88736096Y-36454857D01*
X88736096Y-36288190D02*
X88759905Y-36312000D01*
X88736096Y-36335809D01*
X88712286Y-36312000D01*
X88736096Y-36288190D01*
X88736096Y-36335809D01*
X88569429Y-36454857D02*
X88378953Y-36454857D01*
X88498001Y-36288190D02*
X88498001Y-36716761D01*
X88474191Y-36764380D01*
X88426572Y-36788190D01*
X88378953Y-36788190D01*
X88212286Y-36788190D02*
X88212286Y-36288190D01*
X87998001Y-36788190D02*
X87998001Y-36526285D01*
X88021810Y-36478666D01*
X88069429Y-36454857D01*
X88140858Y-36454857D01*
X88188477Y-36478666D01*
X88212286Y-36502476D01*
X87450381Y-36454857D02*
X87259905Y-36454857D01*
X87378953Y-36288190D02*
X87378953Y-36716761D01*
X87355143Y-36764380D01*
X87307524Y-36788190D01*
X87259905Y-36788190D01*
X87093239Y-36788190D02*
X87093239Y-36288190D01*
X86878953Y-36788190D02*
X86878953Y-36526285D01*
X86902762Y-36478666D01*
X86950381Y-36454857D01*
X87021810Y-36454857D01*
X87069429Y-36478666D01*
X87093239Y-36502476D01*
X86450381Y-36764380D02*
X86498001Y-36788190D01*
X86593239Y-36788190D01*
X86640858Y-36764380D01*
X86664667Y-36716761D01*
X86664667Y-36526285D01*
X86640858Y-36478666D01*
X86593239Y-36454857D01*
X86498001Y-36454857D01*
X86450381Y-36478666D01*
X86426572Y-36526285D01*
X86426572Y-36573904D01*
X86664667Y-36621523D01*
X85831334Y-36526285D02*
X85664667Y-36526285D01*
X85593239Y-36788190D02*
X85831334Y-36788190D01*
X85831334Y-36288190D01*
X85593239Y-36288190D01*
X85402762Y-36764380D02*
X85331334Y-36788190D01*
X85212286Y-36788190D01*
X85164667Y-36764380D01*
X85140858Y-36740571D01*
X85117048Y-36692952D01*
X85117048Y-36645333D01*
X85140858Y-36597714D01*
X85164667Y-36573904D01*
X85212286Y-36550095D01*
X85307524Y-36526285D01*
X85355143Y-36502476D01*
X85378953Y-36478666D01*
X85402762Y-36431047D01*
X85402762Y-36383428D01*
X85378953Y-36335809D01*
X85355143Y-36312000D01*
X85307524Y-36288190D01*
X85188477Y-36288190D01*
X85117048Y-36312000D01*
X84902762Y-36788190D02*
X84902762Y-36288190D01*
X84712286Y-36288190D01*
X84664667Y-36312000D01*
X84640858Y-36335809D01*
X84617048Y-36383428D01*
X84617048Y-36454857D01*
X84640858Y-36502476D01*
X84664667Y-36526285D01*
X84712286Y-36550095D01*
X84902762Y-36550095D01*
X84402762Y-36788190D02*
X84402762Y-36454857D01*
X84402762Y-36288190D02*
X84426572Y-36312000D01*
X84402762Y-36335809D01*
X84378953Y-36312000D01*
X84402762Y-36288190D01*
X84402762Y-36335809D01*
X84212286Y-36788190D02*
X83950381Y-36454857D01*
X84212286Y-36454857D02*
X83950381Y-36788190D01*
X83569429Y-36764380D02*
X83617048Y-36788190D01*
X83712286Y-36788190D01*
X83759905Y-36764380D01*
X83783715Y-36716761D01*
X83783715Y-36526285D01*
X83759905Y-36478666D01*
X83712286Y-36454857D01*
X83617048Y-36454857D01*
X83569429Y-36478666D01*
X83545620Y-36526285D01*
X83545620Y-36573904D01*
X83783715Y-36621523D01*
X83259905Y-36788190D02*
X83307524Y-36764380D01*
X83331334Y-36716761D01*
X83331334Y-36288190D01*
X83093239Y-36764380D02*
X83021810Y-36788190D01*
X82902762Y-36788190D01*
X82855143Y-36764380D01*
X82831334Y-36740571D01*
X82807524Y-36692952D01*
X82807524Y-36645333D01*
X82831334Y-36597714D01*
X82855143Y-36573904D01*
X82902762Y-36550095D01*
X82998001Y-36526285D01*
X83045620Y-36502476D01*
X83069429Y-36478666D01*
X83093239Y-36431047D01*
X83093239Y-36383428D01*
X83069429Y-36335809D01*
X83045620Y-36312000D01*
X82998001Y-36288190D01*
X82878953Y-36288190D01*
X82807524Y-36312000D01*
X82664667Y-36454857D02*
X82474191Y-36454857D01*
X82593239Y-36288190D02*
X82593239Y-36716761D01*
X82569429Y-36764380D01*
X82521810Y-36788190D01*
X82474191Y-36788190D01*
X82307524Y-36788190D02*
X82307524Y-36454857D01*
X82307524Y-36288190D02*
X82331334Y-36312000D01*
X82307524Y-36335809D01*
X82283715Y-36312000D01*
X82307524Y-36288190D01*
X82307524Y-36335809D01*
X81855143Y-36764380D02*
X81902762Y-36788190D01*
X81998001Y-36788190D01*
X82045620Y-36764380D01*
X82069429Y-36740571D01*
X82093239Y-36692952D01*
X82093239Y-36550095D01*
X82069429Y-36502476D01*
X82045620Y-36478666D01*
X81998001Y-36454857D01*
X81902762Y-36454857D01*
X81855143Y-36478666D01*
X81640858Y-36788190D02*
X81640858Y-36288190D01*
X81593239Y-36597714D02*
X81450381Y-36788190D01*
X81450381Y-36454857D02*
X81640858Y-36645333D01*
X102819429Y-37329857D02*
X102628953Y-37329857D01*
X102748001Y-37663190D02*
X102748001Y-37234619D01*
X102724191Y-37187000D01*
X102676572Y-37163190D01*
X102628953Y-37163190D01*
X102462286Y-37663190D02*
X102462286Y-37329857D01*
X102462286Y-37163190D02*
X102486096Y-37187000D01*
X102462286Y-37210809D01*
X102438477Y-37187000D01*
X102462286Y-37163190D01*
X102462286Y-37210809D01*
X102224191Y-37663190D02*
X102224191Y-37329857D01*
X102224191Y-37425095D02*
X102200381Y-37377476D01*
X102176572Y-37353666D01*
X102128953Y-37329857D01*
X102081334Y-37329857D01*
X101914667Y-37663190D02*
X101914667Y-37329857D01*
X101914667Y-37377476D02*
X101890858Y-37353666D01*
X101843239Y-37329857D01*
X101771810Y-37329857D01*
X101724191Y-37353666D01*
X101700381Y-37401285D01*
X101700381Y-37663190D01*
X101700381Y-37401285D02*
X101676572Y-37353666D01*
X101628953Y-37329857D01*
X101557524Y-37329857D01*
X101509905Y-37353666D01*
X101486096Y-37401285D01*
X101486096Y-37663190D01*
X101295620Y-37329857D02*
X101200381Y-37663190D01*
X101105143Y-37425095D01*
X101009905Y-37663190D01*
X100914667Y-37329857D01*
X100509905Y-37663190D02*
X100509905Y-37401285D01*
X100533715Y-37353666D01*
X100581334Y-37329857D01*
X100676572Y-37329857D01*
X100724191Y-37353666D01*
X100509905Y-37639380D02*
X100557524Y-37663190D01*
X100676572Y-37663190D01*
X100724191Y-37639380D01*
X100748001Y-37591761D01*
X100748001Y-37544142D01*
X100724191Y-37496523D01*
X100676572Y-37472714D01*
X100557524Y-37472714D01*
X100509905Y-37448904D01*
X100271810Y-37663190D02*
X100271810Y-37329857D01*
X100271810Y-37425095D02*
X100248001Y-37377476D01*
X100224191Y-37353666D01*
X100176572Y-37329857D01*
X100128953Y-37329857D01*
X99771810Y-37639380D02*
X99819429Y-37663190D01*
X99914667Y-37663190D01*
X99962286Y-37639380D01*
X99986096Y-37591761D01*
X99986096Y-37401285D01*
X99962286Y-37353666D01*
X99914667Y-37329857D01*
X99819429Y-37329857D01*
X99771810Y-37353666D01*
X99748001Y-37401285D01*
X99748001Y-37448904D01*
X99986096Y-37496523D01*
X98938477Y-37663190D02*
X98938477Y-37401285D01*
X98962286Y-37353666D01*
X99009905Y-37329857D01*
X99105143Y-37329857D01*
X99152762Y-37353666D01*
X98938477Y-37639380D02*
X98986096Y-37663190D01*
X99105143Y-37663190D01*
X99152762Y-37639380D01*
X99176572Y-37591761D01*
X99176572Y-37544142D01*
X99152762Y-37496523D01*
X99105143Y-37472714D01*
X98986096Y-37472714D01*
X98938477Y-37448904D01*
X98700381Y-37329857D02*
X98700381Y-37663190D01*
X98700381Y-37377476D02*
X98676572Y-37353666D01*
X98628953Y-37329857D01*
X98557524Y-37329857D01*
X98509905Y-37353666D01*
X98486096Y-37401285D01*
X98486096Y-37663190D01*
X98033715Y-37663190D02*
X98033715Y-37163190D01*
X98033715Y-37639380D02*
X98081334Y-37663190D01*
X98176572Y-37663190D01*
X98224191Y-37639380D01*
X98248001Y-37615571D01*
X98271810Y-37567952D01*
X98271810Y-37425095D01*
X98248001Y-37377476D01*
X98224191Y-37353666D01*
X98176572Y-37329857D01*
X98081334Y-37329857D01*
X98033715Y-37353666D01*
X97343239Y-37663190D02*
X97390858Y-37639380D01*
X97414667Y-37615571D01*
X97438477Y-37567952D01*
X97438477Y-37425095D01*
X97414667Y-37377476D01*
X97390858Y-37353666D01*
X97343239Y-37329857D01*
X97271810Y-37329857D01*
X97224191Y-37353666D01*
X97200381Y-37377476D01*
X97176572Y-37425095D01*
X97176572Y-37567952D01*
X97200381Y-37615571D01*
X97224191Y-37639380D01*
X97271810Y-37663190D01*
X97343239Y-37663190D01*
X96962286Y-37329857D02*
X96962286Y-37829857D01*
X96962286Y-37353666D02*
X96914667Y-37329857D01*
X96819429Y-37329857D01*
X96771810Y-37353666D01*
X96748001Y-37377476D01*
X96724191Y-37425095D01*
X96724191Y-37567952D01*
X96748001Y-37615571D01*
X96771810Y-37639380D01*
X96819429Y-37663190D01*
X96914667Y-37663190D01*
X96962286Y-37639380D01*
X96319429Y-37639380D02*
X96367048Y-37663190D01*
X96462286Y-37663190D01*
X96509905Y-37639380D01*
X96533715Y-37591761D01*
X96533715Y-37401285D01*
X96509905Y-37353666D01*
X96462286Y-37329857D01*
X96367048Y-37329857D01*
X96319429Y-37353666D01*
X96295620Y-37401285D01*
X96295620Y-37448904D01*
X96533715Y-37496523D01*
X96081334Y-37663190D02*
X96081334Y-37329857D01*
X96081334Y-37425095D02*
X96057524Y-37377476D01*
X96033715Y-37353666D01*
X95986096Y-37329857D01*
X95938477Y-37329857D01*
X95557524Y-37663190D02*
X95557524Y-37401285D01*
X95581334Y-37353666D01*
X95628953Y-37329857D01*
X95724191Y-37329857D01*
X95771810Y-37353666D01*
X95557524Y-37639380D02*
X95605143Y-37663190D01*
X95724191Y-37663190D01*
X95771810Y-37639380D01*
X95795620Y-37591761D01*
X95795620Y-37544142D01*
X95771810Y-37496523D01*
X95724191Y-37472714D01*
X95605143Y-37472714D01*
X95557524Y-37448904D01*
X95390858Y-37329857D02*
X95200381Y-37329857D01*
X95319429Y-37163190D02*
X95319429Y-37591761D01*
X95295620Y-37639380D01*
X95248001Y-37663190D01*
X95200381Y-37663190D01*
X94843239Y-37639380D02*
X94890858Y-37663190D01*
X94986096Y-37663190D01*
X95033715Y-37639380D01*
X95057524Y-37591761D01*
X95057524Y-37401285D01*
X95033715Y-37353666D01*
X94986096Y-37329857D01*
X94890858Y-37329857D01*
X94843239Y-37353666D01*
X94819429Y-37401285D01*
X94819429Y-37448904D01*
X95057524Y-37496523D01*
X93986096Y-37163190D02*
X94224191Y-37163190D01*
X94248001Y-37401285D01*
X94224191Y-37377476D01*
X94176572Y-37353666D01*
X94057524Y-37353666D01*
X94009905Y-37377476D01*
X93986096Y-37401285D01*
X93962286Y-37448904D01*
X93962286Y-37567952D01*
X93986096Y-37615571D01*
X94009905Y-37639380D01*
X94057524Y-37663190D01*
X94176572Y-37663190D01*
X94224191Y-37639380D01*
X94248001Y-37615571D01*
X93819429Y-37163190D02*
X93652762Y-37663190D01*
X93486096Y-37163190D01*
X92867048Y-37663190D02*
X92914667Y-37639380D01*
X92938477Y-37615571D01*
X92962286Y-37567952D01*
X92962286Y-37425095D01*
X92938477Y-37377476D01*
X92914667Y-37353666D01*
X92867048Y-37329857D01*
X92795620Y-37329857D01*
X92748001Y-37353666D01*
X92724191Y-37377476D01*
X92700381Y-37425095D01*
X92700381Y-37567952D01*
X92724191Y-37615571D01*
X92748001Y-37639380D01*
X92795620Y-37663190D01*
X92867048Y-37663190D01*
X92486096Y-37663190D02*
X92486096Y-37329857D01*
X92486096Y-37425095D02*
X92462286Y-37377476D01*
X92438477Y-37353666D01*
X92390858Y-37329857D01*
X92343239Y-37329857D01*
X91533715Y-37663190D02*
X91819429Y-37663190D01*
X91676572Y-37663190D02*
X91676572Y-37163190D01*
X91724191Y-37234619D01*
X91771810Y-37282238D01*
X91819429Y-37306047D01*
X91343239Y-37210809D02*
X91319429Y-37187000D01*
X91271810Y-37163190D01*
X91152762Y-37163190D01*
X91105143Y-37187000D01*
X91081334Y-37210809D01*
X91057524Y-37258428D01*
X91057524Y-37306047D01*
X91081334Y-37377476D01*
X91367048Y-37663190D01*
X91057524Y-37663190D01*
X90914667Y-37163190D02*
X90748001Y-37663190D01*
X90581334Y-37163190D01*
X90081334Y-37163190D02*
X89962286Y-37663190D01*
X89867048Y-37306047D01*
X89771810Y-37663190D01*
X89652762Y-37163190D01*
X89486096Y-37639380D02*
X89414667Y-37663190D01*
X89295620Y-37663190D01*
X89248001Y-37639380D01*
X89224191Y-37615571D01*
X89200381Y-37567952D01*
X89200381Y-37520333D01*
X89224191Y-37472714D01*
X89248001Y-37448904D01*
X89295620Y-37425095D01*
X89390858Y-37401285D01*
X89438477Y-37377476D01*
X89462286Y-37353666D01*
X89486096Y-37306047D01*
X89486096Y-37258428D01*
X89462286Y-37210809D01*
X89438477Y-37187000D01*
X89390858Y-37163190D01*
X89271810Y-37163190D01*
X89200381Y-37187000D01*
X89009905Y-37210809D02*
X88986096Y-37187000D01*
X88938477Y-37163190D01*
X88819429Y-37163190D01*
X88771810Y-37187000D01*
X88748001Y-37210809D01*
X88724191Y-37258428D01*
X88724191Y-37306047D01*
X88748001Y-37377476D01*
X89033715Y-37663190D01*
X88724191Y-37663190D01*
X88438477Y-37377476D02*
X88486096Y-37353666D01*
X88509905Y-37329857D01*
X88533715Y-37282238D01*
X88533715Y-37258428D01*
X88509905Y-37210809D01*
X88486096Y-37187000D01*
X88438477Y-37163190D01*
X88343239Y-37163190D01*
X88295620Y-37187000D01*
X88271810Y-37210809D01*
X88248001Y-37258428D01*
X88248001Y-37282238D01*
X88271810Y-37329857D01*
X88295620Y-37353666D01*
X88343239Y-37377476D01*
X88438477Y-37377476D01*
X88486096Y-37401285D01*
X88509905Y-37425095D01*
X88533715Y-37472714D01*
X88533715Y-37567952D01*
X88509905Y-37615571D01*
X88486096Y-37639380D01*
X88438477Y-37663190D01*
X88343239Y-37663190D01*
X88295620Y-37639380D01*
X88271810Y-37615571D01*
X88248001Y-37567952D01*
X88248001Y-37472714D01*
X88271810Y-37425095D01*
X88295620Y-37401285D01*
X88343239Y-37377476D01*
X88081334Y-37663190D02*
X87819429Y-37329857D01*
X88081334Y-37329857D02*
X87819429Y-37663190D01*
X87676572Y-37663190D02*
X87414667Y-37329857D01*
X87676572Y-37329857D02*
X87414667Y-37663190D01*
X86843239Y-37329857D02*
X86843239Y-37829857D01*
X86843239Y-37353666D02*
X86795620Y-37329857D01*
X86700381Y-37329857D01*
X86652762Y-37353666D01*
X86628953Y-37377476D01*
X86605143Y-37425095D01*
X86605143Y-37567952D01*
X86628953Y-37615571D01*
X86652762Y-37639380D01*
X86700381Y-37663190D01*
X86795620Y-37663190D01*
X86843239Y-37639380D01*
X86390858Y-37663190D02*
X86390858Y-37329857D01*
X86390858Y-37163190D02*
X86414667Y-37187000D01*
X86390858Y-37210809D01*
X86367048Y-37187000D01*
X86390858Y-37163190D01*
X86390858Y-37210809D01*
X86200381Y-37663190D02*
X85938477Y-37329857D01*
X86200381Y-37329857D02*
X85938477Y-37663190D01*
X85557524Y-37639380D02*
X85605143Y-37663190D01*
X85700381Y-37663190D01*
X85748001Y-37639380D01*
X85771810Y-37591761D01*
X85771810Y-37401285D01*
X85748001Y-37353666D01*
X85700381Y-37329857D01*
X85605143Y-37329857D01*
X85557524Y-37353666D01*
X85533715Y-37401285D01*
X85533715Y-37448904D01*
X85771810Y-37496523D01*
X85248001Y-37663190D02*
X85295620Y-37639380D01*
X85319429Y-37591761D01*
X85319429Y-37163190D01*
X84700381Y-37639380D02*
X84652762Y-37663190D01*
X84557524Y-37663190D01*
X84509905Y-37639380D01*
X84486096Y-37591761D01*
X84486096Y-37567952D01*
X84509905Y-37520333D01*
X84557524Y-37496523D01*
X84628953Y-37496523D01*
X84676572Y-37472714D01*
X84700381Y-37425095D01*
X84700381Y-37401285D01*
X84676572Y-37353666D01*
X84628953Y-37329857D01*
X84557524Y-37329857D01*
X84509905Y-37353666D01*
X84343239Y-37329857D02*
X84152762Y-37329857D01*
X84271810Y-37163190D02*
X84271810Y-37591761D01*
X84248001Y-37639380D01*
X84200381Y-37663190D01*
X84152762Y-37663190D01*
X83986096Y-37663190D02*
X83986096Y-37329857D01*
X83986096Y-37425095D02*
X83962286Y-37377476D01*
X83938477Y-37353666D01*
X83890858Y-37329857D01*
X83843239Y-37329857D01*
X83676572Y-37663190D02*
X83676572Y-37329857D01*
X83676572Y-37163190D02*
X83700381Y-37187000D01*
X83676572Y-37210809D01*
X83652762Y-37187000D01*
X83676572Y-37163190D01*
X83676572Y-37210809D01*
X83438477Y-37329857D02*
X83438477Y-37663190D01*
X83438477Y-37377476D02*
X83414667Y-37353666D01*
X83367048Y-37329857D01*
X83295620Y-37329857D01*
X83248001Y-37353666D01*
X83224191Y-37401285D01*
X83224191Y-37663190D01*
X82771810Y-37329857D02*
X82771810Y-37734619D01*
X82795620Y-37782238D01*
X82819429Y-37806047D01*
X82867048Y-37829857D01*
X82938477Y-37829857D01*
X82986096Y-37806047D01*
X82771810Y-37639380D02*
X82819429Y-37663190D01*
X82914667Y-37663190D01*
X82962286Y-37639380D01*
X82986096Y-37615571D01*
X83009905Y-37567952D01*
X83009905Y-37425095D01*
X82986096Y-37377476D01*
X82962286Y-37353666D01*
X82914667Y-37329857D01*
X82819429Y-37329857D01*
X82771810Y-37353666D01*
X82557524Y-37639380D02*
X82509905Y-37663190D01*
X82414667Y-37663190D01*
X82367048Y-37639380D01*
X82343239Y-37591761D01*
X82343239Y-37567952D01*
X82367048Y-37520333D01*
X82414667Y-37496523D01*
X82486096Y-37496523D01*
X82533715Y-37472714D01*
X82557524Y-37425095D01*
X82557524Y-37401285D01*
X82533715Y-37353666D01*
X82486096Y-37329857D01*
X82414667Y-37329857D01*
X82367048Y-37353666D01*
X82128953Y-37615571D02*
X82105143Y-37639380D01*
X82128953Y-37663190D01*
X82152762Y-37639380D01*
X82128953Y-37615571D01*
X82128953Y-37663190D01*
X103902762Y-38038190D02*
X103617048Y-38038190D01*
X103759905Y-38538190D02*
X103759905Y-38038190D01*
X103450381Y-38538190D02*
X103450381Y-38038190D01*
X103236096Y-38538190D02*
X103236096Y-38276285D01*
X103259905Y-38228666D01*
X103307524Y-38204857D01*
X103378953Y-38204857D01*
X103426572Y-38228666D01*
X103450381Y-38252476D01*
X102807524Y-38514380D02*
X102855143Y-38538190D01*
X102950381Y-38538190D01*
X102998001Y-38514380D01*
X103021810Y-38466761D01*
X103021810Y-38276285D01*
X102998001Y-38228666D01*
X102950381Y-38204857D01*
X102855143Y-38204857D01*
X102807524Y-38228666D01*
X102783715Y-38276285D01*
X102783715Y-38323904D01*
X103021810Y-38371523D01*
X102188477Y-38538190D02*
X102188477Y-38038190D01*
X102188477Y-38228666D02*
X102140858Y-38204857D01*
X102045620Y-38204857D01*
X101998001Y-38228666D01*
X101974191Y-38252476D01*
X101950381Y-38300095D01*
X101950381Y-38442952D01*
X101974191Y-38490571D01*
X101998001Y-38514380D01*
X102045620Y-38538190D01*
X102140858Y-38538190D01*
X102188477Y-38514380D01*
X101664667Y-38538190D02*
X101712286Y-38514380D01*
X101736096Y-38490571D01*
X101759905Y-38442952D01*
X101759905Y-38300095D01*
X101736096Y-38252476D01*
X101712286Y-38228666D01*
X101664667Y-38204857D01*
X101593239Y-38204857D01*
X101545620Y-38228666D01*
X101521810Y-38252476D01*
X101498001Y-38300095D01*
X101498001Y-38442952D01*
X101521810Y-38490571D01*
X101545620Y-38514380D01*
X101593239Y-38538190D01*
X101664667Y-38538190D01*
X101069429Y-38538190D02*
X101069429Y-38276285D01*
X101093239Y-38228666D01*
X101140858Y-38204857D01*
X101236096Y-38204857D01*
X101283715Y-38228666D01*
X101069429Y-38514380D02*
X101117048Y-38538190D01*
X101236096Y-38538190D01*
X101283715Y-38514380D01*
X101307524Y-38466761D01*
X101307524Y-38419142D01*
X101283715Y-38371523D01*
X101236096Y-38347714D01*
X101117048Y-38347714D01*
X101069429Y-38323904D01*
X100831334Y-38538190D02*
X100831334Y-38204857D01*
X100831334Y-38300095D02*
X100807524Y-38252476D01*
X100783715Y-38228666D01*
X100736096Y-38204857D01*
X100688477Y-38204857D01*
X100307524Y-38538190D02*
X100307524Y-38038190D01*
X100307524Y-38514380D02*
X100355143Y-38538190D01*
X100450381Y-38538190D01*
X100498001Y-38514380D01*
X100521810Y-38490571D01*
X100545620Y-38442952D01*
X100545620Y-38300095D01*
X100521810Y-38252476D01*
X100498001Y-38228666D01*
X100450381Y-38204857D01*
X100355143Y-38204857D01*
X100307524Y-38228666D01*
X99688477Y-38538190D02*
X99688477Y-38204857D01*
X99688477Y-38038190D02*
X99712286Y-38062000D01*
X99688477Y-38085809D01*
X99664667Y-38062000D01*
X99688477Y-38038190D01*
X99688477Y-38085809D01*
X99474191Y-38514380D02*
X99426572Y-38538190D01*
X99331334Y-38538190D01*
X99283715Y-38514380D01*
X99259905Y-38466761D01*
X99259905Y-38442952D01*
X99283715Y-38395333D01*
X99331334Y-38371523D01*
X99402762Y-38371523D01*
X99450381Y-38347714D01*
X99474191Y-38300095D01*
X99474191Y-38276285D01*
X99450381Y-38228666D01*
X99402762Y-38204857D01*
X99331334Y-38204857D01*
X99283715Y-38228666D01*
X98664667Y-38204857D02*
X98664667Y-38704857D01*
X98664667Y-38228666D02*
X98617048Y-38204857D01*
X98521810Y-38204857D01*
X98474191Y-38228666D01*
X98450381Y-38252476D01*
X98426572Y-38300095D01*
X98426572Y-38442952D01*
X98450381Y-38490571D01*
X98474191Y-38514380D01*
X98521810Y-38538190D01*
X98617048Y-38538190D01*
X98664667Y-38514380D01*
X98140858Y-38538190D02*
X98188477Y-38514380D01*
X98212286Y-38490571D01*
X98236096Y-38442952D01*
X98236096Y-38300095D01*
X98212286Y-38252476D01*
X98188477Y-38228666D01*
X98140858Y-38204857D01*
X98069429Y-38204857D01*
X98021810Y-38228666D01*
X97998001Y-38252476D01*
X97974191Y-38300095D01*
X97974191Y-38442952D01*
X97998001Y-38490571D01*
X98021810Y-38514380D01*
X98069429Y-38538190D01*
X98140858Y-38538190D01*
X97807524Y-38204857D02*
X97712286Y-38538190D01*
X97617048Y-38300095D01*
X97521810Y-38538190D01*
X97426572Y-38204857D01*
X97045620Y-38514380D02*
X97093239Y-38538190D01*
X97188477Y-38538190D01*
X97236096Y-38514380D01*
X97259905Y-38466761D01*
X97259905Y-38276285D01*
X97236096Y-38228666D01*
X97188477Y-38204857D01*
X97093239Y-38204857D01*
X97045620Y-38228666D01*
X97021810Y-38276285D01*
X97021810Y-38323904D01*
X97259905Y-38371523D01*
X96807524Y-38538190D02*
X96807524Y-38204857D01*
X96807524Y-38300095D02*
X96783715Y-38252476D01*
X96759905Y-38228666D01*
X96712286Y-38204857D01*
X96664667Y-38204857D01*
X96307524Y-38514380D02*
X96355143Y-38538190D01*
X96450381Y-38538190D01*
X96498001Y-38514380D01*
X96521810Y-38466761D01*
X96521810Y-38276285D01*
X96498001Y-38228666D01*
X96450381Y-38204857D01*
X96355143Y-38204857D01*
X96307524Y-38228666D01*
X96283715Y-38276285D01*
X96283715Y-38323904D01*
X96521810Y-38371523D01*
X95855143Y-38538190D02*
X95855143Y-38038190D01*
X95855143Y-38514380D02*
X95902762Y-38538190D01*
X95998001Y-38538190D01*
X96045620Y-38514380D01*
X96069429Y-38490571D01*
X96093239Y-38442952D01*
X96093239Y-38300095D01*
X96069429Y-38252476D01*
X96045620Y-38228666D01*
X95998001Y-38204857D01*
X95902762Y-38204857D01*
X95855143Y-38228666D01*
X95236096Y-38538190D02*
X95236096Y-38038190D01*
X95236096Y-38228666D02*
X95188477Y-38204857D01*
X95093239Y-38204857D01*
X95045620Y-38228666D01*
X95021810Y-38252476D01*
X94998001Y-38300095D01*
X94998001Y-38442952D01*
X95021810Y-38490571D01*
X95045620Y-38514380D01*
X95093239Y-38538190D01*
X95188477Y-38538190D01*
X95236096Y-38514380D01*
X94831334Y-38204857D02*
X94712286Y-38538190D01*
X94593239Y-38204857D02*
X94712286Y-38538190D01*
X94759905Y-38657238D01*
X94783715Y-38681047D01*
X94831334Y-38704857D01*
X94093239Y-38204857D02*
X93902762Y-38204857D01*
X94021810Y-38038190D02*
X94021810Y-38466761D01*
X93998001Y-38514380D01*
X93950381Y-38538190D01*
X93902762Y-38538190D01*
X93736096Y-38538190D02*
X93736096Y-38038190D01*
X93521810Y-38538190D02*
X93521810Y-38276285D01*
X93545620Y-38228666D01*
X93593239Y-38204857D01*
X93664667Y-38204857D01*
X93712286Y-38228666D01*
X93736096Y-38252476D01*
X93093239Y-38514380D02*
X93140858Y-38538190D01*
X93236096Y-38538190D01*
X93283715Y-38514380D01*
X93307524Y-38466761D01*
X93307524Y-38276285D01*
X93283715Y-38228666D01*
X93236096Y-38204857D01*
X93140858Y-38204857D01*
X93093239Y-38228666D01*
X93069429Y-38276285D01*
X93069429Y-38323904D01*
X93307524Y-38371523D01*
X92474191Y-38538190D02*
X92474191Y-38038190D01*
X92474191Y-38228666D02*
X92426572Y-38204857D01*
X92331334Y-38204857D01*
X92283715Y-38228666D01*
X92259905Y-38252476D01*
X92236096Y-38300095D01*
X92236096Y-38442952D01*
X92259905Y-38490571D01*
X92283715Y-38514380D01*
X92331334Y-38538190D01*
X92426572Y-38538190D01*
X92474191Y-38514380D01*
X91807524Y-38204857D02*
X91807524Y-38538190D01*
X92021810Y-38204857D02*
X92021810Y-38466761D01*
X91998001Y-38514380D01*
X91950381Y-38538190D01*
X91878953Y-38538190D01*
X91831334Y-38514380D01*
X91807524Y-38490571D01*
X91593239Y-38514380D02*
X91545620Y-38538190D01*
X91450381Y-38538190D01*
X91402762Y-38514380D01*
X91378953Y-38466761D01*
X91378953Y-38442952D01*
X91402762Y-38395333D01*
X91450381Y-38371523D01*
X91521810Y-38371523D01*
X91569429Y-38347714D01*
X91593239Y-38300095D01*
X91593239Y-38276285D01*
X91569429Y-38228666D01*
X91521810Y-38204857D01*
X91450381Y-38204857D01*
X91402762Y-38228666D01*
X90831334Y-38204857D02*
X90712286Y-38538190D01*
X90593239Y-38204857D01*
X90331334Y-38538190D02*
X90378953Y-38514380D01*
X90402762Y-38490571D01*
X90426572Y-38442952D01*
X90426572Y-38300095D01*
X90402762Y-38252476D01*
X90378953Y-38228666D01*
X90331334Y-38204857D01*
X90259905Y-38204857D01*
X90212286Y-38228666D01*
X90188477Y-38252476D01*
X90164667Y-38300095D01*
X90164667Y-38442952D01*
X90188477Y-38490571D01*
X90212286Y-38514380D01*
X90259905Y-38538190D01*
X90331334Y-38538190D01*
X89878953Y-38538190D02*
X89926572Y-38514380D01*
X89950381Y-38466761D01*
X89950381Y-38038190D01*
X89759905Y-38204857D02*
X89569429Y-38204857D01*
X89688477Y-38038190D02*
X89688477Y-38466761D01*
X89664667Y-38514380D01*
X89617048Y-38538190D01*
X89569429Y-38538190D01*
X89188477Y-38538190D02*
X89188477Y-38276285D01*
X89212286Y-38228666D01*
X89259905Y-38204857D01*
X89355143Y-38204857D01*
X89402762Y-38228666D01*
X89188477Y-38514380D02*
X89236096Y-38538190D01*
X89355143Y-38538190D01*
X89402762Y-38514380D01*
X89426572Y-38466761D01*
X89426572Y-38419142D01*
X89402762Y-38371523D01*
X89355143Y-38347714D01*
X89236096Y-38347714D01*
X89188477Y-38323904D01*
X88736096Y-38204857D02*
X88736096Y-38609619D01*
X88759905Y-38657238D01*
X88783715Y-38681047D01*
X88831334Y-38704857D01*
X88902762Y-38704857D01*
X88950381Y-38681047D01*
X88736096Y-38514380D02*
X88783715Y-38538190D01*
X88878953Y-38538190D01*
X88926572Y-38514380D01*
X88950381Y-38490571D01*
X88974191Y-38442952D01*
X88974191Y-38300095D01*
X88950381Y-38252476D01*
X88926572Y-38228666D01*
X88878953Y-38204857D01*
X88783715Y-38204857D01*
X88736096Y-38228666D01*
X88307524Y-38514380D02*
X88355143Y-38538190D01*
X88450381Y-38538190D01*
X88498001Y-38514380D01*
X88521810Y-38466761D01*
X88521810Y-38276285D01*
X88498001Y-38228666D01*
X88450381Y-38204857D01*
X88355143Y-38204857D01*
X88307524Y-38228666D01*
X88283715Y-38276285D01*
X88283715Y-38323904D01*
X88521810Y-38371523D01*
X87617048Y-38538190D02*
X87664667Y-38514380D01*
X87688477Y-38490571D01*
X87712286Y-38442952D01*
X87712286Y-38300095D01*
X87688477Y-38252476D01*
X87664667Y-38228666D01*
X87617048Y-38204857D01*
X87545620Y-38204857D01*
X87498001Y-38228666D01*
X87474191Y-38252476D01*
X87450381Y-38300095D01*
X87450381Y-38442952D01*
X87474191Y-38490571D01*
X87498001Y-38514380D01*
X87545620Y-38538190D01*
X87617048Y-38538190D01*
X87307524Y-38204857D02*
X87117048Y-38204857D01*
X87236096Y-38538190D02*
X87236096Y-38109619D01*
X87212286Y-38062000D01*
X87164667Y-38038190D01*
X87117048Y-38038190D01*
X86640858Y-38204857D02*
X86450381Y-38204857D01*
X86569429Y-38038190D02*
X86569429Y-38466761D01*
X86545620Y-38514380D01*
X86498001Y-38538190D01*
X86450381Y-38538190D01*
X86283715Y-38538190D02*
X86283715Y-38038190D01*
X86069429Y-38538190D02*
X86069429Y-38276285D01*
X86093239Y-38228666D01*
X86140858Y-38204857D01*
X86212286Y-38204857D01*
X86259905Y-38228666D01*
X86283715Y-38252476D01*
X85640858Y-38514380D02*
X85688477Y-38538190D01*
X85783715Y-38538190D01*
X85831334Y-38514380D01*
X85855143Y-38466761D01*
X85855143Y-38276285D01*
X85831334Y-38228666D01*
X85783715Y-38204857D01*
X85688477Y-38204857D01*
X85640858Y-38228666D01*
X85617048Y-38276285D01*
X85617048Y-38323904D01*
X85855143Y-38371523D01*
X84950381Y-38538190D02*
X84998001Y-38514380D01*
X85021810Y-38466761D01*
X85021810Y-38038190D01*
X84759905Y-38538190D02*
X84759905Y-38204857D01*
X84759905Y-38038190D02*
X84783715Y-38062000D01*
X84759905Y-38085809D01*
X84736096Y-38062000D01*
X84759905Y-38038190D01*
X84759905Y-38085809D01*
X84307524Y-38204857D02*
X84307524Y-38609619D01*
X84331334Y-38657238D01*
X84355143Y-38681047D01*
X84402762Y-38704857D01*
X84474191Y-38704857D01*
X84521810Y-38681047D01*
X84307524Y-38514380D02*
X84355143Y-38538190D01*
X84450381Y-38538190D01*
X84498001Y-38514380D01*
X84521810Y-38490571D01*
X84545620Y-38442952D01*
X84545620Y-38300095D01*
X84521810Y-38252476D01*
X84498001Y-38228666D01*
X84450381Y-38204857D01*
X84355143Y-38204857D01*
X84307524Y-38228666D01*
X84069429Y-38538190D02*
X84069429Y-38038190D01*
X83855143Y-38538190D02*
X83855143Y-38276285D01*
X83878953Y-38228666D01*
X83926572Y-38204857D01*
X83998001Y-38204857D01*
X84045620Y-38228666D01*
X84069429Y-38252476D01*
X83688477Y-38204857D02*
X83498001Y-38204857D01*
X83617048Y-38038190D02*
X83617048Y-38466761D01*
X83593239Y-38514380D01*
X83545620Y-38538190D01*
X83498001Y-38538190D01*
X82974191Y-38514380D02*
X82926572Y-38538190D01*
X82831334Y-38538190D01*
X82783715Y-38514380D01*
X82759905Y-38466761D01*
X82759905Y-38442952D01*
X82783715Y-38395333D01*
X82831334Y-38371523D01*
X82902762Y-38371523D01*
X82950381Y-38347714D01*
X82974191Y-38300095D01*
X82974191Y-38276285D01*
X82950381Y-38228666D01*
X82902762Y-38204857D01*
X82831334Y-38204857D01*
X82783715Y-38228666D01*
X82617048Y-38204857D02*
X82426572Y-38204857D01*
X82545620Y-38038190D02*
X82545620Y-38466761D01*
X82521810Y-38514380D01*
X82474191Y-38538190D01*
X82426572Y-38538190D01*
X82259905Y-38538190D02*
X82259905Y-38204857D01*
X82259905Y-38300095D02*
X82236096Y-38252476D01*
X82212286Y-38228666D01*
X82164667Y-38204857D01*
X82117048Y-38204857D01*
X81950381Y-38538190D02*
X81950381Y-38204857D01*
X81950381Y-38038190D02*
X81974191Y-38062000D01*
X81950381Y-38085809D01*
X81926572Y-38062000D01*
X81950381Y-38038190D01*
X81950381Y-38085809D01*
X81712286Y-38204857D02*
X81712286Y-38538190D01*
X81712286Y-38252476D02*
X81688477Y-38228666D01*
X81640858Y-38204857D01*
X81569429Y-38204857D01*
X81521810Y-38228666D01*
X81498001Y-38276285D01*
X81498001Y-38538190D01*
X81045620Y-38204857D02*
X81045620Y-38609619D01*
X81069429Y-38657238D01*
X81093239Y-38681047D01*
X81140858Y-38704857D01*
X81212286Y-38704857D01*
X81259905Y-38681047D01*
X81045620Y-38514380D02*
X81093239Y-38538190D01*
X81188477Y-38538190D01*
X81236096Y-38514380D01*
X81259905Y-38490571D01*
X81283715Y-38442952D01*
X81283715Y-38300095D01*
X81259905Y-38252476D01*
X81236096Y-38228666D01*
X81188477Y-38204857D01*
X81093239Y-38204857D01*
X81045620Y-38228666D01*
X102355143Y-39413190D02*
X102355143Y-39151285D01*
X102378953Y-39103666D01*
X102426572Y-39079857D01*
X102521810Y-39079857D01*
X102569429Y-39103666D01*
X102355143Y-39389380D02*
X102402762Y-39413190D01*
X102521810Y-39413190D01*
X102569429Y-39389380D01*
X102593239Y-39341761D01*
X102593239Y-39294142D01*
X102569429Y-39246523D01*
X102521810Y-39222714D01*
X102402762Y-39222714D01*
X102355143Y-39198904D01*
X102117048Y-39079857D02*
X102117048Y-39413190D01*
X102117048Y-39127476D02*
X102093239Y-39103666D01*
X102045620Y-39079857D01*
X101974191Y-39079857D01*
X101926572Y-39103666D01*
X101902762Y-39151285D01*
X101902762Y-39413190D01*
X101450381Y-39413190D02*
X101450381Y-38913190D01*
X101450381Y-39389380D02*
X101498001Y-39413190D01*
X101593239Y-39413190D01*
X101640858Y-39389380D01*
X101664667Y-39365571D01*
X101688477Y-39317952D01*
X101688477Y-39175095D01*
X101664667Y-39127476D01*
X101640858Y-39103666D01*
X101593239Y-39079857D01*
X101498001Y-39079857D01*
X101450381Y-39103666D01*
X100831334Y-39413190D02*
X100831334Y-38913190D01*
X100617048Y-39413190D02*
X100617048Y-39151285D01*
X100640858Y-39103666D01*
X100688477Y-39079857D01*
X100759905Y-39079857D01*
X100807524Y-39103666D01*
X100831334Y-39127476D01*
X100164667Y-39413190D02*
X100164667Y-39151285D01*
X100188477Y-39103666D01*
X100236096Y-39079857D01*
X100331334Y-39079857D01*
X100378953Y-39103666D01*
X100164667Y-39389380D02*
X100212286Y-39413190D01*
X100331334Y-39413190D01*
X100378953Y-39389380D01*
X100402762Y-39341761D01*
X100402762Y-39294142D01*
X100378953Y-39246523D01*
X100331334Y-39222714D01*
X100212286Y-39222714D01*
X100164667Y-39198904D01*
X99926572Y-39079857D02*
X99926572Y-39413190D01*
X99926572Y-39127476D02*
X99902762Y-39103666D01*
X99855143Y-39079857D01*
X99783715Y-39079857D01*
X99736096Y-39103666D01*
X99712286Y-39151285D01*
X99712286Y-39413190D01*
X99259905Y-39413190D02*
X99259905Y-38913190D01*
X99259905Y-39389380D02*
X99307524Y-39413190D01*
X99402762Y-39413190D01*
X99450381Y-39389380D01*
X99474191Y-39365571D01*
X99498001Y-39317952D01*
X99498001Y-39175095D01*
X99474191Y-39127476D01*
X99450381Y-39103666D01*
X99402762Y-39079857D01*
X99307524Y-39079857D01*
X99259905Y-39103666D01*
X98950381Y-39413190D02*
X98998001Y-39389380D01*
X99021810Y-39341761D01*
X99021810Y-38913190D01*
X98569429Y-39389380D02*
X98617048Y-39413190D01*
X98712286Y-39413190D01*
X98759905Y-39389380D01*
X98783715Y-39341761D01*
X98783715Y-39151285D01*
X98759905Y-39103666D01*
X98712286Y-39079857D01*
X98617048Y-39079857D01*
X98569429Y-39103666D01*
X98545620Y-39151285D01*
X98545620Y-39198904D01*
X98783715Y-39246523D01*
X98355143Y-39389380D02*
X98307524Y-39413190D01*
X98212286Y-39413190D01*
X98164667Y-39389380D01*
X98140858Y-39341761D01*
X98140858Y-39317952D01*
X98164667Y-39270333D01*
X98212286Y-39246523D01*
X98283715Y-39246523D01*
X98331334Y-39222714D01*
X98355143Y-39175095D01*
X98355143Y-39151285D01*
X98331334Y-39103666D01*
X98283715Y-39079857D01*
X98212286Y-39079857D01*
X98164667Y-39103666D01*
X97331334Y-39413190D02*
X97331334Y-39151285D01*
X97355143Y-39103666D01*
X97402762Y-39079857D01*
X97498001Y-39079857D01*
X97545620Y-39103666D01*
X97331334Y-39389380D02*
X97378953Y-39413190D01*
X97498001Y-39413190D01*
X97545620Y-39389380D01*
X97569429Y-39341761D01*
X97569429Y-39294142D01*
X97545620Y-39246523D01*
X97498001Y-39222714D01*
X97378953Y-39222714D01*
X97331334Y-39198904D01*
X97021810Y-39413190D02*
X97069429Y-39389380D01*
X97093239Y-39341761D01*
X97093239Y-38913190D01*
X96759905Y-39413190D02*
X96807524Y-39389380D01*
X96831334Y-39341761D01*
X96831334Y-38913190D01*
X96236096Y-39079857D02*
X96117048Y-39413190D01*
X95998001Y-39079857D01*
X95736096Y-39413190D02*
X95783715Y-39389380D01*
X95807524Y-39365571D01*
X95831334Y-39317952D01*
X95831334Y-39175095D01*
X95807524Y-39127476D01*
X95783715Y-39103666D01*
X95736096Y-39079857D01*
X95664667Y-39079857D01*
X95617048Y-39103666D01*
X95593239Y-39127476D01*
X95569429Y-39175095D01*
X95569429Y-39317952D01*
X95593239Y-39365571D01*
X95617048Y-39389380D01*
X95664667Y-39413190D01*
X95736096Y-39413190D01*
X95283715Y-39413190D02*
X95331334Y-39389380D01*
X95355143Y-39341761D01*
X95355143Y-38913190D01*
X95164667Y-39079857D02*
X94974191Y-39079857D01*
X95093239Y-38913190D02*
X95093239Y-39341761D01*
X95069429Y-39389380D01*
X95021810Y-39413190D01*
X94974191Y-39413190D01*
X94593239Y-39413190D02*
X94593239Y-39151285D01*
X94617048Y-39103666D01*
X94664667Y-39079857D01*
X94759905Y-39079857D01*
X94807524Y-39103666D01*
X94593239Y-39389380D02*
X94640858Y-39413190D01*
X94759905Y-39413190D01*
X94807524Y-39389380D01*
X94831334Y-39341761D01*
X94831334Y-39294142D01*
X94807524Y-39246523D01*
X94759905Y-39222714D01*
X94640858Y-39222714D01*
X94593239Y-39198904D01*
X94140858Y-39079857D02*
X94140858Y-39484619D01*
X94164667Y-39532238D01*
X94188477Y-39556047D01*
X94236096Y-39579857D01*
X94307524Y-39579857D01*
X94355143Y-39556047D01*
X94140858Y-39389380D02*
X94188477Y-39413190D01*
X94283715Y-39413190D01*
X94331334Y-39389380D01*
X94355143Y-39365571D01*
X94378953Y-39317952D01*
X94378953Y-39175095D01*
X94355143Y-39127476D01*
X94331334Y-39103666D01*
X94283715Y-39079857D01*
X94188477Y-39079857D01*
X94140858Y-39103666D01*
X93712286Y-39389380D02*
X93759905Y-39413190D01*
X93855143Y-39413190D01*
X93902762Y-39389380D01*
X93926572Y-39341761D01*
X93926572Y-39151285D01*
X93902762Y-39103666D01*
X93855143Y-39079857D01*
X93759905Y-39079857D01*
X93712286Y-39103666D01*
X93688477Y-39151285D01*
X93688477Y-39198904D01*
X93926572Y-39246523D01*
X93093239Y-39413190D02*
X93093239Y-39079857D01*
X93093239Y-39175095D02*
X93069429Y-39127476D01*
X93045620Y-39103666D01*
X92998001Y-39079857D01*
X92950381Y-39079857D01*
X92593239Y-39389380D02*
X92640858Y-39413190D01*
X92736096Y-39413190D01*
X92783715Y-39389380D01*
X92807524Y-39341761D01*
X92807524Y-39151285D01*
X92783715Y-39103666D01*
X92736096Y-39079857D01*
X92640858Y-39079857D01*
X92593239Y-39103666D01*
X92569429Y-39151285D01*
X92569429Y-39198904D01*
X92807524Y-39246523D01*
X92140858Y-39079857D02*
X92140858Y-39484619D01*
X92164667Y-39532238D01*
X92188477Y-39556047D01*
X92236096Y-39579857D01*
X92307524Y-39579857D01*
X92355143Y-39556047D01*
X92140858Y-39389380D02*
X92188477Y-39413190D01*
X92283715Y-39413190D01*
X92331334Y-39389380D01*
X92355143Y-39365571D01*
X92378953Y-39317952D01*
X92378953Y-39175095D01*
X92355143Y-39127476D01*
X92331334Y-39103666D01*
X92283715Y-39079857D01*
X92188477Y-39079857D01*
X92140858Y-39103666D01*
X91688477Y-39079857D02*
X91688477Y-39413190D01*
X91902762Y-39079857D02*
X91902762Y-39341761D01*
X91878953Y-39389380D01*
X91831334Y-39413190D01*
X91759905Y-39413190D01*
X91712286Y-39389380D01*
X91688477Y-39365571D01*
X91378953Y-39413190D02*
X91426572Y-39389380D01*
X91450381Y-39341761D01*
X91450381Y-38913190D01*
X90974191Y-39413190D02*
X90974191Y-39151285D01*
X90998001Y-39103666D01*
X91045620Y-39079857D01*
X91140858Y-39079857D01*
X91188477Y-39103666D01*
X90974191Y-39389380D02*
X91021810Y-39413190D01*
X91140858Y-39413190D01*
X91188477Y-39389380D01*
X91212286Y-39341761D01*
X91212286Y-39294142D01*
X91188477Y-39246523D01*
X91140858Y-39222714D01*
X91021810Y-39222714D01*
X90974191Y-39198904D01*
X90807524Y-39079857D02*
X90617048Y-39079857D01*
X90736096Y-38913190D02*
X90736096Y-39341761D01*
X90712286Y-39389380D01*
X90664667Y-39413190D01*
X90617048Y-39413190D01*
X90450381Y-39413190D02*
X90450381Y-39079857D01*
X90450381Y-38913190D02*
X90474191Y-38937000D01*
X90450381Y-38960809D01*
X90426572Y-38937000D01*
X90450381Y-38913190D01*
X90450381Y-38960809D01*
X90140858Y-39413190D02*
X90188477Y-39389380D01*
X90212286Y-39365571D01*
X90236096Y-39317952D01*
X90236096Y-39175095D01*
X90212286Y-39127476D01*
X90188477Y-39103666D01*
X90140858Y-39079857D01*
X90069429Y-39079857D01*
X90021810Y-39103666D01*
X89998001Y-39127476D01*
X89974191Y-39175095D01*
X89974191Y-39317952D01*
X89998001Y-39365571D01*
X90021810Y-39389380D01*
X90069429Y-39413190D01*
X90140858Y-39413190D01*
X89759905Y-39079857D02*
X89759905Y-39413190D01*
X89759905Y-39127476D02*
X89736096Y-39103666D01*
X89688477Y-39079857D01*
X89617048Y-39079857D01*
X89569429Y-39103666D01*
X89545620Y-39151285D01*
X89545620Y-39413190D01*
X89307524Y-39365571D02*
X89283715Y-39389380D01*
X89307524Y-39413190D01*
X89331334Y-39389380D01*
X89307524Y-39365571D01*
X89307524Y-39413190D01*
X88712286Y-39270333D02*
X88474191Y-39270333D01*
X88759905Y-39413190D02*
X88593239Y-38913190D01*
X88426572Y-39413190D01*
X87617048Y-39413190D02*
X87902762Y-39413190D01*
X87759905Y-39413190D02*
X87759905Y-38913190D01*
X87807524Y-38984619D01*
X87855143Y-39032238D01*
X87902762Y-39056047D01*
X87426572Y-39270333D02*
X87188477Y-39270333D01*
X87474191Y-39413190D02*
X87307524Y-38913190D01*
X87140858Y-39413190D01*
X86593239Y-39079857D02*
X86593239Y-39579857D01*
X86593239Y-39103666D02*
X86545620Y-39079857D01*
X86450381Y-39079857D01*
X86402762Y-39103666D01*
X86378953Y-39127476D01*
X86355143Y-39175095D01*
X86355143Y-39317952D01*
X86378953Y-39365571D01*
X86402762Y-39389380D01*
X86450381Y-39413190D01*
X86545620Y-39413190D01*
X86593239Y-39389380D01*
X86069429Y-39413190D02*
X86117048Y-39389380D01*
X86140858Y-39365571D01*
X86164667Y-39317952D01*
X86164667Y-39175095D01*
X86140858Y-39127476D01*
X86117048Y-39103666D01*
X86069429Y-39079857D01*
X85998001Y-39079857D01*
X85950381Y-39103666D01*
X85926572Y-39127476D01*
X85902762Y-39175095D01*
X85902762Y-39317952D01*
X85926572Y-39365571D01*
X85950381Y-39389380D01*
X85998001Y-39413190D01*
X86069429Y-39413190D01*
X85617048Y-39413190D02*
X85664667Y-39389380D01*
X85688477Y-39341761D01*
X85688477Y-38913190D01*
X85474191Y-39079857D02*
X85355143Y-39413190D01*
X85236096Y-39079857D02*
X85355143Y-39413190D01*
X85402762Y-39532238D01*
X85426572Y-39556047D01*
X85474191Y-39579857D01*
X84736096Y-39079857D02*
X84545620Y-39079857D01*
X84664667Y-39413190D02*
X84664667Y-38984619D01*
X84640858Y-38937000D01*
X84593239Y-38913190D01*
X84545620Y-38913190D01*
X84164667Y-39079857D02*
X84164667Y-39413190D01*
X84378953Y-39079857D02*
X84378953Y-39341761D01*
X84355143Y-39389380D01*
X84307524Y-39413190D01*
X84236096Y-39413190D01*
X84188477Y-39389380D01*
X84164667Y-39365571D01*
X83950381Y-39389380D02*
X83902762Y-39413190D01*
X83807524Y-39413190D01*
X83759905Y-39389380D01*
X83736096Y-39341761D01*
X83736096Y-39317952D01*
X83759905Y-39270333D01*
X83807524Y-39246523D01*
X83878953Y-39246523D01*
X83926572Y-39222714D01*
X83950381Y-39175095D01*
X83950381Y-39151285D01*
X83926572Y-39103666D01*
X83878953Y-39079857D01*
X83807524Y-39079857D01*
X83759905Y-39103666D01*
X83331334Y-39389380D02*
X83378953Y-39413190D01*
X83474191Y-39413190D01*
X83521810Y-39389380D01*
X83545620Y-39341761D01*
X83545620Y-39151285D01*
X83521810Y-39103666D01*
X83474191Y-39079857D01*
X83378953Y-39079857D01*
X83331334Y-39103666D01*
X83307524Y-39151285D01*
X83307524Y-39198904D01*
X83545620Y-39246523D01*
X82712286Y-39413190D02*
X82712286Y-39079857D01*
X82712286Y-38913190D02*
X82736096Y-38937000D01*
X82712286Y-38960809D01*
X82688477Y-38937000D01*
X82712286Y-38913190D01*
X82712286Y-38960809D01*
X82498001Y-39389380D02*
X82450381Y-39413190D01*
X82355143Y-39413190D01*
X82307524Y-39389380D01*
X82283715Y-39341761D01*
X82283715Y-39317952D01*
X82307524Y-39270333D01*
X82355143Y-39246523D01*
X82426572Y-39246523D01*
X82474191Y-39222714D01*
X82498001Y-39175095D01*
X82498001Y-39151285D01*
X82474191Y-39103666D01*
X82426572Y-39079857D01*
X82355143Y-39079857D01*
X82307524Y-39103666D01*
X102914667Y-40288190D02*
X102914667Y-39954857D01*
X102914667Y-39788190D02*
X102938477Y-39812000D01*
X102914667Y-39835809D01*
X102890858Y-39812000D01*
X102914667Y-39788190D01*
X102914667Y-39835809D01*
X102676572Y-39954857D02*
X102676572Y-40288190D01*
X102676572Y-40002476D02*
X102652762Y-39978666D01*
X102605143Y-39954857D01*
X102533715Y-39954857D01*
X102486096Y-39978666D01*
X102462286Y-40026285D01*
X102462286Y-40288190D01*
X102009905Y-40264380D02*
X102057524Y-40288190D01*
X102152762Y-40288190D01*
X102200381Y-40264380D01*
X102224191Y-40240571D01*
X102248001Y-40192952D01*
X102248001Y-40050095D01*
X102224191Y-40002476D01*
X102200381Y-39978666D01*
X102152762Y-39954857D01*
X102057524Y-39954857D01*
X102009905Y-39978666D01*
X101724191Y-40288190D02*
X101771810Y-40264380D01*
X101795620Y-40216761D01*
X101795620Y-39788190D01*
X101319429Y-39954857D02*
X101319429Y-40288190D01*
X101533715Y-39954857D02*
X101533715Y-40216761D01*
X101509905Y-40264380D01*
X101462286Y-40288190D01*
X101390858Y-40288190D01*
X101343239Y-40264380D01*
X101319429Y-40240571D01*
X100867048Y-40288190D02*
X100867048Y-39788190D01*
X100867048Y-40264380D02*
X100914667Y-40288190D01*
X101009905Y-40288190D01*
X101057524Y-40264380D01*
X101081334Y-40240571D01*
X101105143Y-40192952D01*
X101105143Y-40050095D01*
X101081334Y-40002476D01*
X101057524Y-39978666D01*
X101009905Y-39954857D01*
X100914667Y-39954857D01*
X100867048Y-39978666D01*
X100438477Y-40264380D02*
X100486096Y-40288190D01*
X100581334Y-40288190D01*
X100628953Y-40264380D01*
X100652762Y-40216761D01*
X100652762Y-40026285D01*
X100628953Y-39978666D01*
X100581334Y-39954857D01*
X100486096Y-39954857D01*
X100438477Y-39978666D01*
X100414667Y-40026285D01*
X100414667Y-40073904D01*
X100652762Y-40121523D01*
X99986096Y-40288190D02*
X99986096Y-39788190D01*
X99986096Y-40264380D02*
X100033715Y-40288190D01*
X100128953Y-40288190D01*
X100176572Y-40264380D01*
X100200381Y-40240571D01*
X100224191Y-40192952D01*
X100224191Y-40050095D01*
X100200381Y-40002476D01*
X100176572Y-39978666D01*
X100128953Y-39954857D01*
X100033715Y-39954857D01*
X99986096Y-39978666D01*
X99438477Y-39954857D02*
X99248001Y-39954857D01*
X99367048Y-39788190D02*
X99367048Y-40216761D01*
X99343239Y-40264380D01*
X99295620Y-40288190D01*
X99248001Y-40288190D01*
X99009905Y-40288190D02*
X99057524Y-40264380D01*
X99081334Y-40240571D01*
X99105143Y-40192952D01*
X99105143Y-40050095D01*
X99081334Y-40002476D01*
X99057524Y-39978666D01*
X99009905Y-39954857D01*
X98938477Y-39954857D01*
X98890858Y-39978666D01*
X98867048Y-40002476D01*
X98843239Y-40050095D01*
X98843239Y-40192952D01*
X98867048Y-40240571D01*
X98890858Y-40264380D01*
X98938477Y-40288190D01*
X99009905Y-40288190D01*
X98248001Y-40288190D02*
X98248001Y-39954857D01*
X98248001Y-40050095D02*
X98224191Y-40002476D01*
X98200381Y-39978666D01*
X98152762Y-39954857D01*
X98105143Y-39954857D01*
X97748001Y-40264380D02*
X97795620Y-40288190D01*
X97890858Y-40288190D01*
X97938477Y-40264380D01*
X97962286Y-40216761D01*
X97962286Y-40026285D01*
X97938477Y-39978666D01*
X97890858Y-39954857D01*
X97795620Y-39954857D01*
X97748001Y-39978666D01*
X97724191Y-40026285D01*
X97724191Y-40073904D01*
X97962286Y-40121523D01*
X97295620Y-40288190D02*
X97295620Y-39788190D01*
X97295620Y-40264380D02*
X97343239Y-40288190D01*
X97438477Y-40288190D01*
X97486096Y-40264380D01*
X97509905Y-40240571D01*
X97533715Y-40192952D01*
X97533715Y-40050095D01*
X97509905Y-40002476D01*
X97486096Y-39978666D01*
X97438477Y-39954857D01*
X97343239Y-39954857D01*
X97295620Y-39978666D01*
X96843239Y-39954857D02*
X96843239Y-40288190D01*
X97057524Y-39954857D02*
X97057524Y-40216761D01*
X97033715Y-40264380D01*
X96986096Y-40288190D01*
X96914667Y-40288190D01*
X96867048Y-40264380D01*
X96843239Y-40240571D01*
X96390858Y-40264380D02*
X96438477Y-40288190D01*
X96533715Y-40288190D01*
X96581334Y-40264380D01*
X96605143Y-40240571D01*
X96628953Y-40192952D01*
X96628953Y-40050095D01*
X96605143Y-40002476D01*
X96581334Y-39978666D01*
X96533715Y-39954857D01*
X96438477Y-39954857D01*
X96390858Y-39978666D01*
X95986096Y-40264380D02*
X96033715Y-40288190D01*
X96128953Y-40288190D01*
X96176572Y-40264380D01*
X96200381Y-40216761D01*
X96200381Y-40026285D01*
X96176572Y-39978666D01*
X96128953Y-39954857D01*
X96033715Y-39954857D01*
X95986096Y-39978666D01*
X95962286Y-40026285D01*
X95962286Y-40073904D01*
X96200381Y-40121523D01*
X95438477Y-39954857D02*
X95248001Y-39954857D01*
X95367048Y-39788190D02*
X95367048Y-40216761D01*
X95343239Y-40264380D01*
X95295620Y-40288190D01*
X95248001Y-40288190D01*
X95081334Y-40288190D02*
X95081334Y-39788190D01*
X94867048Y-40288190D02*
X94867048Y-40026285D01*
X94890858Y-39978666D01*
X94938477Y-39954857D01*
X95009905Y-39954857D01*
X95057524Y-39978666D01*
X95081334Y-40002476D01*
X94438477Y-40264380D02*
X94486096Y-40288190D01*
X94581334Y-40288190D01*
X94628953Y-40264380D01*
X94652762Y-40216761D01*
X94652762Y-40026285D01*
X94628953Y-39978666D01*
X94581334Y-39954857D01*
X94486096Y-39954857D01*
X94438477Y-39978666D01*
X94414667Y-40026285D01*
X94414667Y-40073904D01*
X94652762Y-40121523D01*
X93819429Y-40288190D02*
X93819429Y-39954857D01*
X93819429Y-40050095D02*
X93795620Y-40002476D01*
X93771810Y-39978666D01*
X93724191Y-39954857D01*
X93676572Y-39954857D01*
X93509905Y-40288190D02*
X93509905Y-39954857D01*
X93509905Y-39788190D02*
X93533715Y-39812000D01*
X93509905Y-39835809D01*
X93486096Y-39812000D01*
X93509905Y-39788190D01*
X93509905Y-39835809D01*
X93295620Y-40264380D02*
X93248001Y-40288190D01*
X93152762Y-40288190D01*
X93105143Y-40264380D01*
X93081334Y-40216761D01*
X93081334Y-40192952D01*
X93105143Y-40145333D01*
X93152762Y-40121523D01*
X93224191Y-40121523D01*
X93271810Y-40097714D01*
X93295620Y-40050095D01*
X93295620Y-40026285D01*
X93271810Y-39978666D01*
X93224191Y-39954857D01*
X93152762Y-39954857D01*
X93105143Y-39978666D01*
X92867048Y-40288190D02*
X92867048Y-39788190D01*
X92819429Y-40097714D02*
X92676572Y-40288190D01*
X92676572Y-39954857D02*
X92867048Y-40145333D01*
X92009905Y-40288190D02*
X92057524Y-40264380D01*
X92081334Y-40240571D01*
X92105143Y-40192952D01*
X92105143Y-40050095D01*
X92081334Y-40002476D01*
X92057524Y-39978666D01*
X92009905Y-39954857D01*
X91938477Y-39954857D01*
X91890858Y-39978666D01*
X91867048Y-40002476D01*
X91843239Y-40050095D01*
X91843239Y-40192952D01*
X91867048Y-40240571D01*
X91890858Y-40264380D01*
X91938477Y-40288190D01*
X92009905Y-40288190D01*
X91700381Y-39954857D02*
X91509905Y-39954857D01*
X91628953Y-40288190D02*
X91628953Y-39859619D01*
X91605143Y-39812000D01*
X91557524Y-39788190D01*
X91509905Y-39788190D01*
X90748001Y-40288190D02*
X90748001Y-39788190D01*
X90748001Y-40264380D02*
X90795620Y-40288190D01*
X90890858Y-40288190D01*
X90938477Y-40264380D01*
X90962286Y-40240571D01*
X90986096Y-40192952D01*
X90986096Y-40050095D01*
X90962286Y-40002476D01*
X90938477Y-39978666D01*
X90890858Y-39954857D01*
X90795620Y-39954857D01*
X90748001Y-39978666D01*
X90295620Y-40288190D02*
X90295620Y-40026285D01*
X90319429Y-39978666D01*
X90367048Y-39954857D01*
X90462286Y-39954857D01*
X90509905Y-39978666D01*
X90295620Y-40264380D02*
X90343239Y-40288190D01*
X90462286Y-40288190D01*
X90509905Y-40264380D01*
X90533715Y-40216761D01*
X90533715Y-40169142D01*
X90509905Y-40121523D01*
X90462286Y-40097714D01*
X90343239Y-40097714D01*
X90295620Y-40073904D01*
X90057524Y-40288190D02*
X90057524Y-39954857D01*
X90057524Y-40002476D02*
X90033715Y-39978666D01*
X89986096Y-39954857D01*
X89914667Y-39954857D01*
X89867048Y-39978666D01*
X89843239Y-40026285D01*
X89843239Y-40288190D01*
X89843239Y-40026285D02*
X89819429Y-39978666D01*
X89771810Y-39954857D01*
X89700381Y-39954857D01*
X89652762Y-39978666D01*
X89628953Y-40026285D01*
X89628953Y-40288190D01*
X89176572Y-40288190D02*
X89176572Y-40026285D01*
X89200381Y-39978666D01*
X89248001Y-39954857D01*
X89343239Y-39954857D01*
X89390858Y-39978666D01*
X89176572Y-40264380D02*
X89224191Y-40288190D01*
X89343239Y-40288190D01*
X89390858Y-40264380D01*
X89414667Y-40216761D01*
X89414667Y-40169142D01*
X89390858Y-40121523D01*
X89343239Y-40097714D01*
X89224191Y-40097714D01*
X89176572Y-40073904D01*
X88724191Y-39954857D02*
X88724191Y-40359619D01*
X88748001Y-40407238D01*
X88771810Y-40431047D01*
X88819429Y-40454857D01*
X88890858Y-40454857D01*
X88938477Y-40431047D01*
X88724191Y-40264380D02*
X88771810Y-40288190D01*
X88867048Y-40288190D01*
X88914667Y-40264380D01*
X88938477Y-40240571D01*
X88962286Y-40192952D01*
X88962286Y-40050095D01*
X88938477Y-40002476D01*
X88914667Y-39978666D01*
X88867048Y-39954857D01*
X88771810Y-39954857D01*
X88724191Y-39978666D01*
X88486096Y-40288190D02*
X88486096Y-39954857D01*
X88486096Y-39788190D02*
X88509905Y-39812000D01*
X88486096Y-39835809D01*
X88462286Y-39812000D01*
X88486096Y-39788190D01*
X88486096Y-39835809D01*
X88248001Y-39954857D02*
X88248001Y-40288190D01*
X88248001Y-40002476D02*
X88224191Y-39978666D01*
X88176572Y-39954857D01*
X88105143Y-39954857D01*
X88057524Y-39978666D01*
X88033715Y-40026285D01*
X88033715Y-40288190D01*
X87581334Y-39954857D02*
X87581334Y-40359619D01*
X87605143Y-40407238D01*
X87628953Y-40431047D01*
X87676572Y-40454857D01*
X87748001Y-40454857D01*
X87795620Y-40431047D01*
X87581334Y-40264380D02*
X87628953Y-40288190D01*
X87724191Y-40288190D01*
X87771810Y-40264380D01*
X87795620Y-40240571D01*
X87819429Y-40192952D01*
X87819429Y-40050095D01*
X87795620Y-40002476D01*
X87771810Y-39978666D01*
X87724191Y-39954857D01*
X87628953Y-39954857D01*
X87581334Y-39978666D01*
X87033715Y-39954857D02*
X86843239Y-39954857D01*
X86962286Y-39788190D02*
X86962286Y-40216761D01*
X86938477Y-40264380D01*
X86890858Y-40288190D01*
X86843239Y-40288190D01*
X86676572Y-40288190D02*
X86676572Y-39788190D01*
X86462286Y-40288190D02*
X86462286Y-40026285D01*
X86486096Y-39978666D01*
X86533715Y-39954857D01*
X86605143Y-39954857D01*
X86652762Y-39978666D01*
X86676572Y-40002476D01*
X86033715Y-40264380D02*
X86081334Y-40288190D01*
X86176572Y-40288190D01*
X86224191Y-40264380D01*
X86248001Y-40216761D01*
X86248001Y-40026285D01*
X86224191Y-39978666D01*
X86176572Y-39954857D01*
X86081334Y-39954857D01*
X86033715Y-39978666D01*
X86009905Y-40026285D01*
X86009905Y-40073904D01*
X86248001Y-40121523D01*
X85414667Y-40288190D02*
X85414667Y-39788190D01*
X85414667Y-39978666D02*
X85367048Y-39954857D01*
X85271810Y-39954857D01*
X85224191Y-39978666D01*
X85200381Y-40002476D01*
X85176572Y-40050095D01*
X85176572Y-40192952D01*
X85200381Y-40240571D01*
X85224191Y-40264380D01*
X85271810Y-40288190D01*
X85367048Y-40288190D01*
X85414667Y-40264380D01*
X84890858Y-40288190D02*
X84938477Y-40264380D01*
X84962286Y-40240571D01*
X84986096Y-40192952D01*
X84986096Y-40050095D01*
X84962286Y-40002476D01*
X84938477Y-39978666D01*
X84890858Y-39954857D01*
X84819429Y-39954857D01*
X84771810Y-39978666D01*
X84748001Y-40002476D01*
X84724191Y-40050095D01*
X84724191Y-40192952D01*
X84748001Y-40240571D01*
X84771810Y-40264380D01*
X84819429Y-40288190D01*
X84890858Y-40288190D01*
X84295620Y-40288190D02*
X84295620Y-40026285D01*
X84319429Y-39978666D01*
X84367048Y-39954857D01*
X84462286Y-39954857D01*
X84509905Y-39978666D01*
X84295620Y-40264380D02*
X84343239Y-40288190D01*
X84462286Y-40288190D01*
X84509905Y-40264380D01*
X84533715Y-40216761D01*
X84533715Y-40169142D01*
X84509905Y-40121523D01*
X84462286Y-40097714D01*
X84343239Y-40097714D01*
X84295620Y-40073904D01*
X84057524Y-40288190D02*
X84057524Y-39954857D01*
X84057524Y-40050095D02*
X84033715Y-40002476D01*
X84009905Y-39978666D01*
X83962286Y-39954857D01*
X83914667Y-39954857D01*
X83533715Y-40288190D02*
X83533715Y-39788190D01*
X83533715Y-40264380D02*
X83581334Y-40288190D01*
X83676572Y-40288190D01*
X83724191Y-40264380D01*
X83748001Y-40240571D01*
X83771810Y-40192952D01*
X83771810Y-40050095D01*
X83748001Y-40002476D01*
X83724191Y-39978666D01*
X83676572Y-39954857D01*
X83581334Y-39954857D01*
X83533715Y-39978666D01*
X82914667Y-40288190D02*
X82914667Y-39788190D01*
X82914667Y-39978666D02*
X82867048Y-39954857D01*
X82771810Y-39954857D01*
X82724191Y-39978666D01*
X82700381Y-40002476D01*
X82676572Y-40050095D01*
X82676572Y-40192952D01*
X82700381Y-40240571D01*
X82724191Y-40264380D01*
X82771810Y-40288190D01*
X82867048Y-40288190D01*
X82914667Y-40264380D01*
X82248001Y-39954857D02*
X82248001Y-40288190D01*
X82462286Y-39954857D02*
X82462286Y-40216761D01*
X82438477Y-40264380D01*
X82390858Y-40288190D01*
X82319429Y-40288190D01*
X82271810Y-40264380D01*
X82248001Y-40240571D01*
X82081334Y-39954857D02*
X81890858Y-39954857D01*
X82009905Y-39788190D02*
X82009905Y-40216761D01*
X81986096Y-40264380D01*
X81938477Y-40288190D01*
X81890858Y-40288190D01*
X98224191Y-40829857D02*
X98224191Y-41163190D01*
X98224191Y-40877476D02*
X98200381Y-40853666D01*
X98152762Y-40829857D01*
X98081334Y-40829857D01*
X98033715Y-40853666D01*
X98009905Y-40901285D01*
X98009905Y-41163190D01*
X97700381Y-41163190D02*
X97748001Y-41139380D01*
X97771810Y-41115571D01*
X97795620Y-41067952D01*
X97795620Y-40925095D01*
X97771810Y-40877476D01*
X97748001Y-40853666D01*
X97700381Y-40829857D01*
X97628953Y-40829857D01*
X97581334Y-40853666D01*
X97557524Y-40877476D01*
X97533715Y-40925095D01*
X97533715Y-41067952D01*
X97557524Y-41115571D01*
X97581334Y-41139380D01*
X97628953Y-41163190D01*
X97700381Y-41163190D01*
X96867048Y-41163190D02*
X96914667Y-41139380D01*
X96938477Y-41115571D01*
X96962286Y-41067952D01*
X96962286Y-40925095D01*
X96938477Y-40877476D01*
X96914667Y-40853666D01*
X96867048Y-40829857D01*
X96795620Y-40829857D01*
X96748001Y-40853666D01*
X96724191Y-40877476D01*
X96700381Y-40925095D01*
X96700381Y-41067952D01*
X96724191Y-41115571D01*
X96748001Y-41139380D01*
X96795620Y-41163190D01*
X96867048Y-41163190D01*
X96557524Y-40829857D02*
X96367048Y-40829857D01*
X96486096Y-40663190D02*
X96486096Y-41091761D01*
X96462286Y-41139380D01*
X96414667Y-41163190D01*
X96367048Y-41163190D01*
X96200381Y-41163190D02*
X96200381Y-40663190D01*
X95986096Y-41163190D02*
X95986096Y-40901285D01*
X96009905Y-40853666D01*
X96057524Y-40829857D01*
X96128953Y-40829857D01*
X96176572Y-40853666D01*
X96200381Y-40877476D01*
X95557524Y-41139380D02*
X95605143Y-41163190D01*
X95700381Y-41163190D01*
X95748001Y-41139380D01*
X95771810Y-41091761D01*
X95771810Y-40901285D01*
X95748001Y-40853666D01*
X95700381Y-40829857D01*
X95605143Y-40829857D01*
X95557524Y-40853666D01*
X95533715Y-40901285D01*
X95533715Y-40948904D01*
X95771810Y-40996523D01*
X95319429Y-41163190D02*
X95319429Y-40829857D01*
X95319429Y-40925095D02*
X95295620Y-40877476D01*
X95271810Y-40853666D01*
X95224191Y-40829857D01*
X95176572Y-40829857D01*
X94628953Y-40829857D02*
X94628953Y-41329857D01*
X94628953Y-40853666D02*
X94581334Y-40829857D01*
X94486096Y-40829857D01*
X94438477Y-40853666D01*
X94414667Y-40877476D01*
X94390858Y-40925095D01*
X94390858Y-41067952D01*
X94414667Y-41115571D01*
X94438477Y-41139380D01*
X94486096Y-41163190D01*
X94581334Y-41163190D01*
X94628953Y-41139380D01*
X94176572Y-41163190D02*
X94176572Y-40829857D01*
X94176572Y-40925095D02*
X94152762Y-40877476D01*
X94128953Y-40853666D01*
X94081334Y-40829857D01*
X94033715Y-40829857D01*
X93795620Y-41163190D02*
X93843239Y-41139380D01*
X93867048Y-41115571D01*
X93890858Y-41067952D01*
X93890858Y-40925095D01*
X93867048Y-40877476D01*
X93843239Y-40853666D01*
X93795620Y-40829857D01*
X93724191Y-40829857D01*
X93676572Y-40853666D01*
X93652762Y-40877476D01*
X93628953Y-40925095D01*
X93628953Y-41067952D01*
X93652762Y-41115571D01*
X93676572Y-41139380D01*
X93724191Y-41163190D01*
X93795620Y-41163190D01*
X93486096Y-40829857D02*
X93295620Y-40829857D01*
X93414667Y-40663190D02*
X93414667Y-41091761D01*
X93390858Y-41139380D01*
X93343239Y-41163190D01*
X93295620Y-41163190D01*
X92938477Y-41139380D02*
X92986096Y-41163190D01*
X93081334Y-41163190D01*
X93128953Y-41139380D01*
X93152762Y-41091761D01*
X93152762Y-40901285D01*
X93128953Y-40853666D01*
X93081334Y-40829857D01*
X92986096Y-40829857D01*
X92938477Y-40853666D01*
X92914667Y-40901285D01*
X92914667Y-40948904D01*
X93152762Y-40996523D01*
X92486096Y-41139380D02*
X92533715Y-41163190D01*
X92628953Y-41163190D01*
X92676572Y-41139380D01*
X92700381Y-41115571D01*
X92724191Y-41067952D01*
X92724191Y-40925095D01*
X92700381Y-40877476D01*
X92676572Y-40853666D01*
X92628953Y-40829857D01*
X92533715Y-40829857D01*
X92486096Y-40853666D01*
X92343239Y-40829857D02*
X92152762Y-40829857D01*
X92271810Y-40663190D02*
X92271810Y-41091761D01*
X92248001Y-41139380D01*
X92200381Y-41163190D01*
X92152762Y-41163190D01*
X91986096Y-41163190D02*
X91986096Y-40829857D01*
X91986096Y-40663190D02*
X92009905Y-40687000D01*
X91986096Y-40710809D01*
X91962286Y-40687000D01*
X91986096Y-40663190D01*
X91986096Y-40710809D01*
X91676572Y-41163190D02*
X91724191Y-41139380D01*
X91748001Y-41115571D01*
X91771810Y-41067952D01*
X91771810Y-40925095D01*
X91748001Y-40877476D01*
X91724191Y-40853666D01*
X91676572Y-40829857D01*
X91605143Y-40829857D01*
X91557524Y-40853666D01*
X91533715Y-40877476D01*
X91509905Y-40925095D01*
X91509905Y-41067952D01*
X91533715Y-41115571D01*
X91557524Y-41139380D01*
X91605143Y-41163190D01*
X91676572Y-41163190D01*
X91295620Y-40829857D02*
X91295620Y-41163190D01*
X91295620Y-40877476D02*
X91271810Y-40853666D01*
X91224191Y-40829857D01*
X91152762Y-40829857D01*
X91105143Y-40853666D01*
X91081334Y-40901285D01*
X91081334Y-41163190D01*
X90462286Y-41163190D02*
X90462286Y-40829857D01*
X90462286Y-40663190D02*
X90486096Y-40687000D01*
X90462286Y-40710809D01*
X90438477Y-40687000D01*
X90462286Y-40663190D01*
X90462286Y-40710809D01*
X90248001Y-41139380D02*
X90200381Y-41163190D01*
X90105143Y-41163190D01*
X90057524Y-41139380D01*
X90033715Y-41091761D01*
X90033715Y-41067952D01*
X90057524Y-41020333D01*
X90105143Y-40996523D01*
X90176572Y-40996523D01*
X90224191Y-40972714D01*
X90248001Y-40925095D01*
X90248001Y-40901285D01*
X90224191Y-40853666D01*
X90176572Y-40829857D01*
X90105143Y-40829857D01*
X90057524Y-40853666D01*
X89438477Y-41163190D02*
X89438477Y-40829857D01*
X89438477Y-40663190D02*
X89462286Y-40687000D01*
X89438477Y-40710809D01*
X89414667Y-40687000D01*
X89438477Y-40663190D01*
X89438477Y-40710809D01*
X89200381Y-40829857D02*
X89200381Y-41163190D01*
X89200381Y-40877476D02*
X89176572Y-40853666D01*
X89128953Y-40829857D01*
X89057524Y-40829857D01*
X89009905Y-40853666D01*
X88986096Y-40901285D01*
X88986096Y-41163190D01*
X88533715Y-41139380D02*
X88581334Y-41163190D01*
X88676572Y-41163190D01*
X88724191Y-41139380D01*
X88748001Y-41115571D01*
X88771810Y-41067952D01*
X88771810Y-40925095D01*
X88748001Y-40877476D01*
X88724191Y-40853666D01*
X88676572Y-40829857D01*
X88581334Y-40829857D01*
X88533715Y-40853666D01*
X88248001Y-41163190D02*
X88295620Y-41139380D01*
X88319429Y-41091761D01*
X88319429Y-40663190D01*
X87843239Y-40829857D02*
X87843239Y-41163190D01*
X88057524Y-40829857D02*
X88057524Y-41091761D01*
X88033715Y-41139380D01*
X87986096Y-41163190D01*
X87914667Y-41163190D01*
X87867048Y-41139380D01*
X87843239Y-41115571D01*
X87390858Y-41163190D02*
X87390858Y-40663190D01*
X87390858Y-41139380D02*
X87438477Y-41163190D01*
X87533715Y-41163190D01*
X87581334Y-41139380D01*
X87605143Y-41115571D01*
X87628953Y-41067952D01*
X87628953Y-40925095D01*
X87605143Y-40877476D01*
X87581334Y-40853666D01*
X87533715Y-40829857D01*
X87438477Y-40829857D01*
X87390858Y-40853666D01*
X86962286Y-41139380D02*
X87009905Y-41163190D01*
X87105143Y-41163190D01*
X87152762Y-41139380D01*
X87176572Y-41091761D01*
X87176572Y-40901285D01*
X87152762Y-40853666D01*
X87105143Y-40829857D01*
X87009905Y-40829857D01*
X86962286Y-40853666D01*
X86938477Y-40901285D01*
X86938477Y-40948904D01*
X87176572Y-40996523D01*
X86509905Y-41163190D02*
X86509905Y-40663190D01*
X86509905Y-41139380D02*
X86557524Y-41163190D01*
X86652762Y-41163190D01*
X86700381Y-41139380D01*
X86724191Y-41115571D01*
X86748001Y-41067952D01*
X86748001Y-40925095D01*
X86724191Y-40877476D01*
X86700381Y-40853666D01*
X86652762Y-40829857D01*
X86557524Y-40829857D01*
X86509905Y-40853666D01*
X86271810Y-41115571D02*
X86248001Y-41139380D01*
X86271810Y-41163190D01*
X86295620Y-41139380D01*
X86271810Y-41115571D01*
X86271810Y-41163190D01*
X101367048Y-44895190D02*
X101367048Y-44395190D01*
X101248001Y-44395190D01*
X101176572Y-44419000D01*
X101128953Y-44466619D01*
X101105143Y-44514238D01*
X101081334Y-44609476D01*
X101081334Y-44680904D01*
X101105143Y-44776142D01*
X101128953Y-44823761D01*
X101176572Y-44871380D01*
X101248001Y-44895190D01*
X101367048Y-44895190D01*
X100676572Y-44871380D02*
X100724191Y-44895190D01*
X100819429Y-44895190D01*
X100867048Y-44871380D01*
X100890858Y-44823761D01*
X100890858Y-44633285D01*
X100867048Y-44585666D01*
X100819429Y-44561857D01*
X100724191Y-44561857D01*
X100676572Y-44585666D01*
X100652762Y-44633285D01*
X100652762Y-44680904D01*
X100890858Y-44728523D01*
X100462286Y-44871380D02*
X100414667Y-44895190D01*
X100319429Y-44895190D01*
X100271810Y-44871380D01*
X100248001Y-44823761D01*
X100248001Y-44799952D01*
X100271810Y-44752333D01*
X100319429Y-44728523D01*
X100390858Y-44728523D01*
X100438477Y-44704714D01*
X100462286Y-44657095D01*
X100462286Y-44633285D01*
X100438477Y-44585666D01*
X100390858Y-44561857D01*
X100319429Y-44561857D01*
X100271810Y-44585666D01*
X100033715Y-44895190D02*
X100033715Y-44561857D01*
X100033715Y-44395190D02*
X100057524Y-44419000D01*
X100033715Y-44442809D01*
X100009905Y-44419000D01*
X100033715Y-44395190D01*
X100033715Y-44442809D01*
X99581334Y-44561857D02*
X99581334Y-44966619D01*
X99605143Y-45014238D01*
X99628953Y-45038047D01*
X99676572Y-45061857D01*
X99748001Y-45061857D01*
X99795620Y-45038047D01*
X99581334Y-44871380D02*
X99628953Y-44895190D01*
X99724191Y-44895190D01*
X99771810Y-44871380D01*
X99795620Y-44847571D01*
X99819429Y-44799952D01*
X99819429Y-44657095D01*
X99795620Y-44609476D01*
X99771810Y-44585666D01*
X99724191Y-44561857D01*
X99628953Y-44561857D01*
X99581334Y-44585666D01*
X99343239Y-44561857D02*
X99343239Y-44895190D01*
X99343239Y-44609476D02*
X99319429Y-44585666D01*
X99271810Y-44561857D01*
X99200381Y-44561857D01*
X99152762Y-44585666D01*
X99128953Y-44633285D01*
X99128953Y-44895190D01*
X98700381Y-44871380D02*
X98748001Y-44895190D01*
X98843239Y-44895190D01*
X98890858Y-44871380D01*
X98914667Y-44823761D01*
X98914667Y-44633285D01*
X98890858Y-44585666D01*
X98843239Y-44561857D01*
X98748001Y-44561857D01*
X98700381Y-44585666D01*
X98676572Y-44633285D01*
X98676572Y-44680904D01*
X98914667Y-44728523D01*
X98248001Y-44895190D02*
X98248001Y-44395190D01*
X98248001Y-44871380D02*
X98295620Y-44895190D01*
X98390858Y-44895190D01*
X98438477Y-44871380D01*
X98462286Y-44847571D01*
X98486096Y-44799952D01*
X98486096Y-44657095D01*
X98462286Y-44609476D01*
X98438477Y-44585666D01*
X98390858Y-44561857D01*
X98295620Y-44561857D01*
X98248001Y-44585666D01*
X97628953Y-44895190D02*
X97628953Y-44395190D01*
X97628953Y-44585666D02*
X97581334Y-44561857D01*
X97486096Y-44561857D01*
X97438477Y-44585666D01*
X97414667Y-44609476D01*
X97390858Y-44657095D01*
X97390858Y-44799952D01*
X97414667Y-44847571D01*
X97438477Y-44871380D01*
X97486096Y-44895190D01*
X97581334Y-44895190D01*
X97628953Y-44871380D01*
X97224191Y-44561857D02*
X97105143Y-44895190D01*
X96986096Y-44561857D02*
X97105143Y-44895190D01*
X97152762Y-45014238D01*
X97176572Y-45038047D01*
X97224191Y-45061857D01*
X96414667Y-44895190D02*
X96414667Y-44395190D01*
X96128953Y-44895190D02*
X96343239Y-44609476D01*
X96128953Y-44395190D02*
X96414667Y-44680904D01*
X95962286Y-44561857D02*
X95843239Y-44895190D01*
X95724191Y-44561857D02*
X95843239Y-44895190D01*
X95890858Y-45014238D01*
X95914667Y-45038047D01*
X95962286Y-45061857D01*
X95462286Y-44895190D02*
X95509905Y-44871380D01*
X95533715Y-44823761D01*
X95533715Y-44395190D01*
X95081334Y-44871380D02*
X95128953Y-44895190D01*
X95224191Y-44895190D01*
X95271810Y-44871380D01*
X95295620Y-44823761D01*
X95295620Y-44633285D01*
X95271810Y-44585666D01*
X95224191Y-44561857D01*
X95128953Y-44561857D01*
X95081334Y-44585666D01*
X95057524Y-44633285D01*
X95057524Y-44680904D01*
X95295620Y-44728523D01*
X94462286Y-44895190D02*
X94462286Y-44395190D01*
X94176572Y-44895190D02*
X94390858Y-44609476D01*
X94176572Y-44395190D02*
X94462286Y-44680904D01*
X93890858Y-44895190D02*
X93938477Y-44871380D01*
X93962286Y-44823761D01*
X93962286Y-44395190D01*
X93486096Y-44895190D02*
X93486096Y-44633285D01*
X93509905Y-44585666D01*
X93557524Y-44561857D01*
X93652762Y-44561857D01*
X93700381Y-44585666D01*
X93486096Y-44871380D02*
X93533715Y-44895190D01*
X93652762Y-44895190D01*
X93700381Y-44871380D01*
X93724191Y-44823761D01*
X93724191Y-44776142D01*
X93700381Y-44728523D01*
X93652762Y-44704714D01*
X93533715Y-44704714D01*
X93486096Y-44680904D01*
X93033715Y-44561857D02*
X93033715Y-44895190D01*
X93248001Y-44561857D02*
X93248001Y-44823761D01*
X93224191Y-44871380D01*
X93176572Y-44895190D01*
X93105143Y-44895190D01*
X93057524Y-44871380D01*
X93033715Y-44847571D01*
X92819429Y-44871380D02*
X92771810Y-44895190D01*
X92676572Y-44895190D01*
X92628953Y-44871380D01*
X92605143Y-44823761D01*
X92605143Y-44799952D01*
X92628953Y-44752333D01*
X92676572Y-44728523D01*
X92748001Y-44728523D01*
X92795620Y-44704714D01*
X92819429Y-44657095D01*
X92819429Y-44633285D01*
X92795620Y-44585666D01*
X92748001Y-44561857D01*
X92676572Y-44561857D01*
X92628953Y-44585666D01*
X91795620Y-44895190D02*
X91795620Y-44633285D01*
X91819429Y-44585666D01*
X91867048Y-44561857D01*
X91962286Y-44561857D01*
X92009905Y-44585666D01*
X91795620Y-44871380D02*
X91843239Y-44895190D01*
X91962286Y-44895190D01*
X92009905Y-44871380D01*
X92033715Y-44823761D01*
X92033715Y-44776142D01*
X92009905Y-44728523D01*
X91962286Y-44704714D01*
X91843239Y-44704714D01*
X91795620Y-44680904D01*
X91557524Y-44561857D02*
X91557524Y-44895190D01*
X91557524Y-44609476D02*
X91533715Y-44585666D01*
X91486096Y-44561857D01*
X91414667Y-44561857D01*
X91367048Y-44585666D01*
X91343239Y-44633285D01*
X91343239Y-44895190D01*
X90890858Y-44895190D02*
X90890858Y-44395190D01*
X90890858Y-44871380D02*
X90938477Y-44895190D01*
X91033715Y-44895190D01*
X91081334Y-44871380D01*
X91105143Y-44847571D01*
X91128953Y-44799952D01*
X91128953Y-44657095D01*
X91105143Y-44609476D01*
X91081334Y-44585666D01*
X91033715Y-44561857D01*
X90938477Y-44561857D01*
X90890858Y-44585666D01*
X90295620Y-44871380D02*
X90224191Y-44895190D01*
X90105143Y-44895190D01*
X90057524Y-44871380D01*
X90033715Y-44847571D01*
X90009905Y-44799952D01*
X90009905Y-44752333D01*
X90033715Y-44704714D01*
X90057524Y-44680904D01*
X90105143Y-44657095D01*
X90200381Y-44633285D01*
X90248001Y-44609476D01*
X90271810Y-44585666D01*
X90295620Y-44538047D01*
X90295620Y-44490428D01*
X90271810Y-44442809D01*
X90248001Y-44419000D01*
X90200381Y-44395190D01*
X90081334Y-44395190D01*
X90009905Y-44419000D01*
X89581334Y-44871380D02*
X89628953Y-44895190D01*
X89724191Y-44895190D01*
X89771810Y-44871380D01*
X89795620Y-44847571D01*
X89819429Y-44799952D01*
X89819429Y-44657095D01*
X89795620Y-44609476D01*
X89771810Y-44585666D01*
X89724191Y-44561857D01*
X89628953Y-44561857D01*
X89581334Y-44585666D01*
X89295620Y-44895190D02*
X89343239Y-44871380D01*
X89367048Y-44847571D01*
X89390858Y-44799952D01*
X89390858Y-44657095D01*
X89367048Y-44609476D01*
X89343239Y-44585666D01*
X89295620Y-44561857D01*
X89224191Y-44561857D01*
X89176572Y-44585666D01*
X89152762Y-44609476D01*
X89128953Y-44657095D01*
X89128953Y-44799952D01*
X89152762Y-44847571D01*
X89176572Y-44871380D01*
X89224191Y-44895190D01*
X89295620Y-44895190D01*
X88986096Y-44561857D02*
X88795620Y-44561857D01*
X88914667Y-44395190D02*
X88914667Y-44823761D01*
X88890858Y-44871380D01*
X88843239Y-44895190D01*
X88795620Y-44895190D01*
X88700381Y-44561857D02*
X88509905Y-44561857D01*
X88628953Y-44395190D02*
X88628953Y-44823761D01*
X88605143Y-44871380D01*
X88557524Y-44895190D01*
X88509905Y-44895190D01*
X88390858Y-44561857D02*
X88271810Y-44895190D01*
X88152762Y-44561857D02*
X88271810Y-44895190D01*
X88319429Y-45014238D01*
X88343239Y-45038047D01*
X88390858Y-45061857D01*
X87581334Y-44895190D02*
X87581334Y-44395190D01*
X87295620Y-44895190D01*
X87295620Y-44395190D01*
X86867048Y-44871380D02*
X86914667Y-44895190D01*
X87009905Y-44895190D01*
X87057524Y-44871380D01*
X87081334Y-44823761D01*
X87081334Y-44633285D01*
X87057524Y-44585666D01*
X87009905Y-44561857D01*
X86914667Y-44561857D01*
X86867048Y-44585666D01*
X86843239Y-44633285D01*
X86843239Y-44680904D01*
X87081334Y-44728523D01*
X86414667Y-44895190D02*
X86414667Y-44633285D01*
X86438477Y-44585666D01*
X86486096Y-44561857D01*
X86581334Y-44561857D01*
X86628953Y-44585666D01*
X86414667Y-44871380D02*
X86462286Y-44895190D01*
X86581334Y-44895190D01*
X86628953Y-44871380D01*
X86652762Y-44823761D01*
X86652762Y-44776142D01*
X86628953Y-44728523D01*
X86581334Y-44704714D01*
X86462286Y-44704714D01*
X86414667Y-44680904D01*
X86105143Y-44895190D02*
X86152762Y-44871380D01*
X86176572Y-44823761D01*
X86176572Y-44395190D01*
X85843239Y-44895190D02*
X85890858Y-44871380D01*
X85914667Y-44823761D01*
X85914667Y-44395190D01*
X85700381Y-44561857D02*
X85581334Y-44895190D01*
X85462286Y-44561857D02*
X85581334Y-44895190D01*
X85628953Y-45014238D01*
X85652762Y-45038047D01*
X85700381Y-45061857D01*
X84890858Y-44895190D02*
X84890858Y-44561857D01*
X84890858Y-44395190D02*
X84914667Y-44419000D01*
X84890858Y-44442809D01*
X84867048Y-44419000D01*
X84890858Y-44395190D01*
X84890858Y-44442809D01*
X84652762Y-44561857D02*
X84652762Y-44895190D01*
X84652762Y-44609476D02*
X84628953Y-44585666D01*
X84581334Y-44561857D01*
X84509905Y-44561857D01*
X84462286Y-44585666D01*
X84438477Y-44633285D01*
X84438477Y-44895190D01*
X83533715Y-44847571D02*
X83557524Y-44871380D01*
X83628953Y-44895190D01*
X83676572Y-44895190D01*
X83748001Y-44871380D01*
X83795620Y-44823761D01*
X83819429Y-44776142D01*
X83843239Y-44680904D01*
X83843239Y-44609476D01*
X83819429Y-44514238D01*
X83795620Y-44466619D01*
X83748001Y-44419000D01*
X83676572Y-44395190D01*
X83628953Y-44395190D01*
X83557524Y-44419000D01*
X83533715Y-44442809D01*
X83343239Y-44752333D02*
X83105143Y-44752333D01*
X83390858Y-44895190D02*
X83224191Y-44395190D01*
X83057524Y-44895190D01*
D11*
X98486095Y-32596071D02*
X98152761Y-32596071D01*
X98009904Y-33119880D02*
X98486095Y-33119880D01*
X98486095Y-32119880D01*
X98009904Y-32119880D01*
X97628952Y-33072261D02*
X97486095Y-33119880D01*
X97248000Y-33119880D01*
X97152761Y-33072261D01*
X97105142Y-33024642D01*
X97057523Y-32929404D01*
X97057523Y-32834166D01*
X97105142Y-32738928D01*
X97152761Y-32691309D01*
X97248000Y-32643690D01*
X97438476Y-32596071D01*
X97533714Y-32548452D01*
X97581333Y-32500833D01*
X97628952Y-32405595D01*
X97628952Y-32310357D01*
X97581333Y-32215119D01*
X97533714Y-32167500D01*
X97438476Y-32119880D01*
X97200380Y-32119880D01*
X97057523Y-32167500D01*
X96628952Y-33119880D02*
X96628952Y-32119880D01*
X96248000Y-32119880D01*
X96152761Y-32167500D01*
X96105142Y-32215119D01*
X96057523Y-32310357D01*
X96057523Y-32453214D01*
X96105142Y-32548452D01*
X96152761Y-32596071D01*
X96248000Y-32643690D01*
X96628952Y-32643690D01*
X95628952Y-33119880D02*
X95628952Y-32453214D01*
X95628952Y-32119880D02*
X95676571Y-32167500D01*
X95628952Y-32215119D01*
X95581333Y-32167500D01*
X95628952Y-32119880D01*
X95628952Y-32215119D01*
X95248000Y-33119880D02*
X94724190Y-32453214D01*
X95248000Y-32453214D02*
X94724190Y-33119880D01*
X93962285Y-33072261D02*
X94057523Y-33119880D01*
X94248000Y-33119880D01*
X94343238Y-33072261D01*
X94390857Y-32977023D01*
X94390857Y-32596071D01*
X94343238Y-32500833D01*
X94248000Y-32453214D01*
X94057523Y-32453214D01*
X93962285Y-32500833D01*
X93914666Y-32596071D01*
X93914666Y-32691309D01*
X94390857Y-32786547D01*
X93343238Y-33119880D02*
X93438476Y-33072261D01*
X93486095Y-32977023D01*
X93486095Y-32119880D01*
X93009904Y-33072261D02*
X92867047Y-33119880D01*
X92628952Y-33119880D01*
X92533714Y-33072261D01*
X92486095Y-33024642D01*
X92438476Y-32929404D01*
X92438476Y-32834166D01*
X92486095Y-32738928D01*
X92533714Y-32691309D01*
X92628952Y-32643690D01*
X92819428Y-32596071D01*
X92914666Y-32548452D01*
X92962285Y-32500833D01*
X93009904Y-32405595D01*
X93009904Y-32310357D01*
X92962285Y-32215119D01*
X92914666Y-32167500D01*
X92819428Y-32119880D01*
X92581333Y-32119880D01*
X92438476Y-32167500D01*
X92152761Y-32453214D02*
X91771809Y-32453214D01*
X92009904Y-32119880D02*
X92009904Y-32977023D01*
X91962285Y-33072261D01*
X91867047Y-33119880D01*
X91771809Y-33119880D01*
X91438476Y-33119880D02*
X91438476Y-32453214D01*
X91438476Y-32119880D02*
X91486095Y-32167500D01*
X91438476Y-32215119D01*
X91390857Y-32167500D01*
X91438476Y-32119880D01*
X91438476Y-32215119D01*
X90533714Y-33072261D02*
X90628952Y-33119880D01*
X90819428Y-33119880D01*
X90914666Y-33072261D01*
X90962285Y-33024642D01*
X91009904Y-32929404D01*
X91009904Y-32643690D01*
X90962285Y-32548452D01*
X90914666Y-32500833D01*
X90819428Y-32453214D01*
X90628952Y-32453214D01*
X90533714Y-32500833D01*
X90105142Y-33119880D02*
X90105142Y-32119880D01*
X90009904Y-32738928D02*
X89724190Y-33119880D01*
X89724190Y-32453214D02*
X90105142Y-32834166D01*
X88533714Y-33119880D02*
X88533714Y-32119880D01*
X88200380Y-32834166D01*
X87867047Y-32119880D01*
X87867047Y-33119880D01*
X87390857Y-33119880D02*
X87390857Y-32453214D01*
X87390857Y-32119880D02*
X87438476Y-32167500D01*
X87390857Y-32215119D01*
X87343238Y-32167500D01*
X87390857Y-32119880D01*
X87390857Y-32215119D01*
X86914666Y-32453214D02*
X86914666Y-33119880D01*
X86914666Y-32548452D02*
X86867047Y-32500833D01*
X86771809Y-32453214D01*
X86628952Y-32453214D01*
X86533714Y-32500833D01*
X86486095Y-32596071D01*
X86486095Y-33119880D01*
X86009904Y-33119880D02*
X86009904Y-32453214D01*
X86009904Y-32119880D02*
X86057523Y-32167500D01*
X86009904Y-32215119D01*
X85962285Y-32167500D01*
X86009904Y-32119880D01*
X86009904Y-32215119D01*
M02*
