G04 #@! TF.GenerationSoftware,KiCad,Pcbnew,(5.1.2-1)-1*
G04 #@! TF.CreationDate,2019-12-06T14:14:37-08:00*
G04 #@! TF.ProjectId,pixel-stick,70697865-6c2d-4737-9469-636b2e6b6963,rev?*
G04 #@! TF.SameCoordinates,Original*
G04 #@! TF.FileFunction,Legend,Top*
G04 #@! TF.FilePolarity,Positive*
%FSLAX46Y46*%
G04 Gerber Fmt 4.6, Leading zero omitted, Abs format (unit mm)*
G04 Created by KiCad (PCBNEW (5.1.2-1)-1) date 2019-12-06 14:14:37*
%MOMM*%
%LPD*%
G04 APERTURE LIST*
%ADD10C,0.150000*%
%ADD11C,0.120000*%
G04 APERTURE END LIST*
D10*
X55816619Y-89114380D02*
X56149952Y-90114380D01*
X56483285Y-89114380D01*
X56816619Y-89733428D02*
X57578523Y-89733428D01*
X57197571Y-90114380D02*
X57197571Y-89352476D01*
X53141523Y-90019142D02*
X53093904Y-90066761D01*
X52951047Y-90114380D01*
X52855809Y-90114380D01*
X52712952Y-90066761D01*
X52617714Y-89971523D01*
X52570095Y-89876285D01*
X52522476Y-89685809D01*
X52522476Y-89542952D01*
X52570095Y-89352476D01*
X52617714Y-89257238D01*
X52712952Y-89162000D01*
X52855809Y-89114380D01*
X52951047Y-89114380D01*
X53093904Y-89162000D01*
X53141523Y-89209619D01*
X44577095Y-89162000D02*
X44481857Y-89114380D01*
X44339000Y-89114380D01*
X44196142Y-89162000D01*
X44100904Y-89257238D01*
X44053285Y-89352476D01*
X44005666Y-89542952D01*
X44005666Y-89685809D01*
X44053285Y-89876285D01*
X44100904Y-89971523D01*
X44196142Y-90066761D01*
X44339000Y-90114380D01*
X44434238Y-90114380D01*
X44577095Y-90066761D01*
X44624714Y-90019142D01*
X44624714Y-89685809D01*
X44434238Y-89685809D01*
X45053285Y-90114380D02*
X45053285Y-89114380D01*
X45624714Y-90114380D01*
X45624714Y-89114380D01*
X46100904Y-90114380D02*
X46100904Y-89114380D01*
X46339000Y-89114380D01*
X46481857Y-89162000D01*
X46577095Y-89257238D01*
X46624714Y-89352476D01*
X46672333Y-89542952D01*
X46672333Y-89685809D01*
X46624714Y-89876285D01*
X46577095Y-89971523D01*
X46481857Y-90066761D01*
X46339000Y-90114380D01*
X46100904Y-90114380D01*
X49014095Y-90114380D02*
X49014095Y-89114380D01*
X49252190Y-89114380D01*
X49395047Y-89162000D01*
X49490285Y-89257238D01*
X49537904Y-89352476D01*
X49585523Y-89542952D01*
X49585523Y-89685809D01*
X49537904Y-89876285D01*
X49490285Y-89971523D01*
X49395047Y-90066761D01*
X49252190Y-90114380D01*
X49014095Y-90114380D01*
D11*
X55047000Y-61815000D02*
X55047000Y-64500000D01*
X56967000Y-61815000D02*
X55047000Y-61815000D01*
X56967000Y-64500000D02*
X56967000Y-61815000D01*
X52757000Y-63192922D02*
X52757000Y-63710078D01*
X54177000Y-63192922D02*
X54177000Y-63710078D01*
X55940000Y-55185000D02*
X55940000Y-56515000D01*
X54610000Y-55185000D02*
X55940000Y-55185000D01*
X55940000Y-57785000D02*
X55940000Y-60385000D01*
X53340000Y-57785000D02*
X55940000Y-57785000D01*
X53340000Y-55185000D02*
X53340000Y-57785000D01*
X55940000Y-60385000D02*
X45660000Y-60385000D01*
X53340000Y-55185000D02*
X45660000Y-55185000D01*
X45660000Y-55185000D02*
X45660000Y-60385000D01*
X47645000Y-71174000D02*
X47645000Y-68724000D01*
X44425000Y-69374000D02*
X44425000Y-71174000D01*
X47584000Y-64146000D02*
X47584000Y-61696000D01*
X44364000Y-62346000D02*
X44364000Y-64146000D01*
X51200000Y-75220000D02*
X51200000Y-69210000D01*
X58020000Y-72970000D02*
X58020000Y-69210000D01*
X51200000Y-69210000D02*
X52460000Y-69210000D01*
X58020000Y-69210000D02*
X56760000Y-69210000D01*
X49963000Y-63192922D02*
X49963000Y-63710078D01*
X51383000Y-63192922D02*
X51383000Y-63710078D01*
X57425000Y-83152064D02*
X57425000Y-81947936D01*
X55605000Y-83152064D02*
X55605000Y-81947936D01*
X54020000Y-83655000D02*
X54020000Y-82655000D01*
X54520000Y-83155000D02*
X53520000Y-83155000D01*
X53280000Y-77449437D02*
X52215563Y-76385000D01*
X53280000Y-83840563D02*
X52215563Y-84905000D01*
X53280000Y-83840563D02*
X53280000Y-82155000D01*
X53280000Y-77449437D02*
X53280000Y-79135000D01*
X52215563Y-76385000D02*
X44760000Y-76385000D01*
X52215563Y-84905000D02*
X44760000Y-84905000D01*
X44760000Y-84905000D02*
X44760000Y-82155000D01*
X44760000Y-76385000D02*
X44760000Y-79135000D01*
X46311078Y-65838000D02*
X45793922Y-65838000D01*
X46311078Y-67258000D02*
X45793922Y-67258000D01*
X46311078Y-73204000D02*
X45793922Y-73204000D01*
X46311078Y-74624000D02*
X45793922Y-74624000D01*
X48693000Y-70909922D02*
X48693000Y-71427078D01*
X50113000Y-70909922D02*
X50113000Y-71427078D01*
X56138578Y-76760000D02*
X55621422Y-76760000D01*
X56138578Y-78180000D02*
X55621422Y-78180000D01*
X43359000Y-57399422D02*
X43359000Y-57916578D01*
X44779000Y-57399422D02*
X44779000Y-57916578D01*
D10*
X58279380Y-64238095D02*
X57279380Y-64238095D01*
X57279380Y-64000000D01*
X57327000Y-63857142D01*
X57422238Y-63761904D01*
X57517476Y-63714285D01*
X57707952Y-63666666D01*
X57850809Y-63666666D01*
X58041285Y-63714285D01*
X58136523Y-63761904D01*
X58231761Y-63857142D01*
X58279380Y-64000000D01*
X58279380Y-64238095D01*
X57374619Y-63285714D02*
X57327000Y-63238095D01*
X57279380Y-63142857D01*
X57279380Y-62904761D01*
X57327000Y-62809523D01*
X57374619Y-62761904D01*
X57469857Y-62714285D01*
X57565095Y-62714285D01*
X57707952Y-62761904D01*
X58279380Y-63333333D01*
X58279380Y-62714285D01*
X55569380Y-63618166D02*
X55093190Y-63951500D01*
X55569380Y-64189595D02*
X54569380Y-64189595D01*
X54569380Y-63808642D01*
X54617000Y-63713404D01*
X54664619Y-63665785D01*
X54759857Y-63618166D01*
X54902714Y-63618166D01*
X54997952Y-63665785D01*
X55045571Y-63713404D01*
X55093190Y-63808642D01*
X55093190Y-64189595D01*
X54902714Y-62761023D02*
X55569380Y-62761023D01*
X54521761Y-62999119D02*
X55236047Y-63237214D01*
X55236047Y-62618166D01*
X50038095Y-57237380D02*
X50038095Y-58046904D01*
X50085714Y-58142142D01*
X50133333Y-58189761D01*
X50228571Y-58237380D01*
X50419047Y-58237380D01*
X50514285Y-58189761D01*
X50561904Y-58142142D01*
X50609523Y-58046904D01*
X50609523Y-57237380D01*
X51038095Y-57332619D02*
X51085714Y-57285000D01*
X51180952Y-57237380D01*
X51419047Y-57237380D01*
X51514285Y-57285000D01*
X51561904Y-57332619D01*
X51609523Y-57427857D01*
X51609523Y-57523095D01*
X51561904Y-57665952D01*
X50990476Y-58237380D01*
X51609523Y-58237380D01*
X45212095Y-69810380D02*
X45212095Y-70619904D01*
X45259714Y-70715142D01*
X45307333Y-70762761D01*
X45402571Y-70810380D01*
X45593047Y-70810380D01*
X45688285Y-70762761D01*
X45735904Y-70715142D01*
X45783523Y-70619904D01*
X45783523Y-69810380D01*
X46688285Y-70143714D02*
X46688285Y-70810380D01*
X46450190Y-69762761D02*
X46212095Y-70477047D01*
X46831142Y-70477047D01*
X45339095Y-62655380D02*
X45339095Y-63464904D01*
X45386714Y-63560142D01*
X45434333Y-63607761D01*
X45529571Y-63655380D01*
X45720047Y-63655380D01*
X45815285Y-63607761D01*
X45862904Y-63560142D01*
X45910523Y-63464904D01*
X45910523Y-62655380D01*
X46291476Y-62655380D02*
X46910523Y-62655380D01*
X46577190Y-63036333D01*
X46720047Y-63036333D01*
X46815285Y-63083952D01*
X46862904Y-63131571D01*
X46910523Y-63226809D01*
X46910523Y-63464904D01*
X46862904Y-63560142D01*
X46815285Y-63607761D01*
X46720047Y-63655380D01*
X46434333Y-63655380D01*
X46339095Y-63607761D01*
X46291476Y-63560142D01*
X53975095Y-70572380D02*
X53975095Y-71381904D01*
X54022714Y-71477142D01*
X54070333Y-71524761D01*
X54165571Y-71572380D01*
X54356047Y-71572380D01*
X54451285Y-71524761D01*
X54498904Y-71477142D01*
X54546523Y-71381904D01*
X54546523Y-70572380D01*
X55546523Y-71572380D02*
X54975095Y-71572380D01*
X55260809Y-71572380D02*
X55260809Y-70572380D01*
X55165571Y-70715238D01*
X55070333Y-70810476D01*
X54975095Y-70858095D01*
X50379333Y-63982380D02*
X50046000Y-63506190D01*
X49807904Y-63982380D02*
X49807904Y-62982380D01*
X50188857Y-62982380D01*
X50284095Y-63030000D01*
X50331714Y-63077619D01*
X50379333Y-63172857D01*
X50379333Y-63315714D01*
X50331714Y-63410952D01*
X50284095Y-63458571D01*
X50188857Y-63506190D01*
X49807904Y-63506190D01*
X50712666Y-62982380D02*
X51331714Y-62982380D01*
X50998380Y-63363333D01*
X51141238Y-63363333D01*
X51236476Y-63410952D01*
X51284095Y-63458571D01*
X51331714Y-63553809D01*
X51331714Y-63791904D01*
X51284095Y-63887142D01*
X51236476Y-63934761D01*
X51141238Y-63982380D01*
X50855523Y-63982380D01*
X50760285Y-63934761D01*
X50712666Y-63887142D01*
X56570571Y-82759333D02*
X56570571Y-83092666D01*
X57094380Y-83092666D02*
X56094380Y-83092666D01*
X56094380Y-82616476D01*
X57094380Y-81711714D02*
X57094380Y-82283142D01*
X57094380Y-81997428D02*
X56094380Y-81997428D01*
X56237238Y-82092666D01*
X56332476Y-82187904D01*
X56380095Y-82283142D01*
X48982333Y-81002142D02*
X48934714Y-81049761D01*
X48791857Y-81097380D01*
X48696619Y-81097380D01*
X48553761Y-81049761D01*
X48458523Y-80954523D01*
X48410904Y-80859285D01*
X48363285Y-80668809D01*
X48363285Y-80525952D01*
X48410904Y-80335476D01*
X48458523Y-80240238D01*
X48553761Y-80145000D01*
X48696619Y-80097380D01*
X48791857Y-80097380D01*
X48934714Y-80145000D01*
X48982333Y-80192619D01*
X49315666Y-80097380D02*
X49982333Y-80097380D01*
X49553761Y-81097380D01*
X45807333Y-66905142D02*
X45759714Y-66952761D01*
X45616857Y-67000380D01*
X45521619Y-67000380D01*
X45378761Y-66952761D01*
X45283523Y-66857523D01*
X45235904Y-66762285D01*
X45188285Y-66571809D01*
X45188285Y-66428952D01*
X45235904Y-66238476D01*
X45283523Y-66143238D01*
X45378761Y-66048000D01*
X45521619Y-66000380D01*
X45616857Y-66000380D01*
X45759714Y-66048000D01*
X45807333Y-66095619D01*
X46664476Y-66000380D02*
X46474000Y-66000380D01*
X46378761Y-66048000D01*
X46331142Y-66095619D01*
X46235904Y-66238476D01*
X46188285Y-66428952D01*
X46188285Y-66809904D01*
X46235904Y-66905142D01*
X46283523Y-66952761D01*
X46378761Y-67000380D01*
X46569238Y-67000380D01*
X46664476Y-66952761D01*
X46712095Y-66905142D01*
X46759714Y-66809904D01*
X46759714Y-66571809D01*
X46712095Y-66476571D01*
X46664476Y-66428952D01*
X46569238Y-66381333D01*
X46378761Y-66381333D01*
X46283523Y-66428952D01*
X46235904Y-66476571D01*
X46188285Y-66571809D01*
X45807333Y-74398142D02*
X45759714Y-74445761D01*
X45616857Y-74493380D01*
X45521619Y-74493380D01*
X45378761Y-74445761D01*
X45283523Y-74350523D01*
X45235904Y-74255285D01*
X45188285Y-74064809D01*
X45188285Y-73921952D01*
X45235904Y-73731476D01*
X45283523Y-73636238D01*
X45378761Y-73541000D01*
X45521619Y-73493380D01*
X45616857Y-73493380D01*
X45759714Y-73541000D01*
X45807333Y-73588619D01*
X46712095Y-73493380D02*
X46235904Y-73493380D01*
X46188285Y-73969571D01*
X46235904Y-73921952D01*
X46331142Y-73874333D01*
X46569238Y-73874333D01*
X46664476Y-73921952D01*
X46712095Y-73969571D01*
X46759714Y-74064809D01*
X46759714Y-74302904D01*
X46712095Y-74398142D01*
X46664476Y-74445761D01*
X46569238Y-74493380D01*
X46331142Y-74493380D01*
X46235904Y-74445761D01*
X46188285Y-74398142D01*
X49887142Y-71383666D02*
X49934761Y-71431285D01*
X49982380Y-71574142D01*
X49982380Y-71669380D01*
X49934761Y-71812238D01*
X49839523Y-71907476D01*
X49744285Y-71955095D01*
X49553809Y-72002714D01*
X49410952Y-72002714D01*
X49220476Y-71955095D01*
X49125238Y-71907476D01*
X49030000Y-71812238D01*
X48982380Y-71669380D01*
X48982380Y-71574142D01*
X49030000Y-71431285D01*
X49077619Y-71383666D01*
X48982380Y-71050333D02*
X48982380Y-70431285D01*
X49363333Y-70764619D01*
X49363333Y-70621761D01*
X49410952Y-70526523D01*
X49458571Y-70478904D01*
X49553809Y-70431285D01*
X49791904Y-70431285D01*
X49887142Y-70478904D01*
X49934761Y-70526523D01*
X49982380Y-70621761D01*
X49982380Y-70907476D01*
X49934761Y-71002714D01*
X49887142Y-71050333D01*
X55713333Y-77827142D02*
X55665714Y-77874761D01*
X55522857Y-77922380D01*
X55427619Y-77922380D01*
X55284761Y-77874761D01*
X55189523Y-77779523D01*
X55141904Y-77684285D01*
X55094285Y-77493809D01*
X55094285Y-77350952D01*
X55141904Y-77160476D01*
X55189523Y-77065238D01*
X55284761Y-76970000D01*
X55427619Y-76922380D01*
X55522857Y-76922380D01*
X55665714Y-76970000D01*
X55713333Y-77017619D01*
X56094285Y-77017619D02*
X56141904Y-76970000D01*
X56237142Y-76922380D01*
X56475238Y-76922380D01*
X56570476Y-76970000D01*
X56618095Y-77017619D01*
X56665714Y-77112857D01*
X56665714Y-77208095D01*
X56618095Y-77350952D01*
X56046666Y-77922380D01*
X56665714Y-77922380D01*
X44553142Y-57824666D02*
X44600761Y-57872285D01*
X44648380Y-58015142D01*
X44648380Y-58110380D01*
X44600761Y-58253238D01*
X44505523Y-58348476D01*
X44410285Y-58396095D01*
X44219809Y-58443714D01*
X44076952Y-58443714D01*
X43886476Y-58396095D01*
X43791238Y-58348476D01*
X43696000Y-58253238D01*
X43648380Y-58110380D01*
X43648380Y-58015142D01*
X43696000Y-57872285D01*
X43743619Y-57824666D01*
X44648380Y-56872285D02*
X44648380Y-57443714D01*
X44648380Y-57158000D02*
X43648380Y-57158000D01*
X43791238Y-57253238D01*
X43886476Y-57348476D01*
X43934095Y-57443714D01*
M02*
