G04 #@! TF.GenerationSoftware,KiCad,Pcbnew,(5.1.4)-1*
G04 #@! TF.CreationDate,2019-12-17T12:56:31-08:00*
G04 #@! TF.ProjectId,pixel-stick,70697865-6c2d-4737-9469-636b2e6b6963,rev?*
G04 #@! TF.SameCoordinates,Original*
G04 #@! TF.FileFunction,Legend,Top*
G04 #@! TF.FilePolarity,Positive*
%FSLAX46Y46*%
G04 Gerber Fmt 4.6, Leading zero omitted, Abs format (unit mm)*
G04 Created by KiCad (PCBNEW (5.1.4)-1) date 2019-12-17 12:56:31*
%MOMM*%
%LPD*%
G04 APERTURE LIST*
%ADD10C,0.150000*%
%ADD11C,0.120000*%
%ADD12C,0.125000*%
G04 APERTURE END LIST*
D10*
X79047619Y-33297619D02*
X79380952Y-33773809D01*
X79619047Y-33297619D02*
X79619047Y-34297619D01*
X79238095Y-34297619D01*
X79142857Y-34250000D01*
X79095238Y-34202380D01*
X79047619Y-34107142D01*
X79047619Y-33964285D01*
X79095238Y-33869047D01*
X79142857Y-33821428D01*
X79238095Y-33773809D01*
X79619047Y-33773809D01*
X78666666Y-33345238D02*
X78523809Y-33297619D01*
X78285714Y-33297619D01*
X78190476Y-33345238D01*
X78142857Y-33392857D01*
X78095238Y-33488095D01*
X78095238Y-33583333D01*
X78142857Y-33678571D01*
X78190476Y-33726190D01*
X78285714Y-33773809D01*
X78476190Y-33821428D01*
X78571428Y-33869047D01*
X78619047Y-33916666D01*
X78666666Y-34011904D01*
X78666666Y-34107142D01*
X78619047Y-34202380D01*
X78571428Y-34250000D01*
X78476190Y-34297619D01*
X78238095Y-34297619D01*
X78095238Y-34250000D01*
X77809523Y-34297619D02*
X77238095Y-34297619D01*
X77523809Y-33297619D02*
X77523809Y-34297619D01*
X95011904Y-33297619D02*
X95011904Y-34297619D01*
X94630952Y-34297619D01*
X94535714Y-34250000D01*
X94488095Y-34202380D01*
X94440476Y-34107142D01*
X94440476Y-33964285D01*
X94488095Y-33869047D01*
X94535714Y-33821428D01*
X94630952Y-33773809D01*
X95011904Y-33773809D01*
X93440476Y-33297619D02*
X93773809Y-33773809D01*
X94011904Y-33297619D02*
X94011904Y-34297619D01*
X93630952Y-34297619D01*
X93535714Y-34250000D01*
X93488095Y-34202380D01*
X93440476Y-34107142D01*
X93440476Y-33964285D01*
X93488095Y-33869047D01*
X93535714Y-33821428D01*
X93630952Y-33773809D01*
X94011904Y-33773809D01*
X92488095Y-34250000D02*
X92583333Y-34297619D01*
X92726190Y-34297619D01*
X92869047Y-34250000D01*
X92964285Y-34154761D01*
X93011904Y-34059523D01*
X93059523Y-33869047D01*
X93059523Y-33726190D01*
X93011904Y-33535714D01*
X92964285Y-33440476D01*
X92869047Y-33345238D01*
X92726190Y-33297619D01*
X92630952Y-33297619D01*
X92488095Y-33345238D01*
X92440476Y-33392857D01*
X92440476Y-33726190D01*
X92630952Y-33726190D01*
D11*
X110390000Y-41610000D02*
X109175000Y-41610000D01*
X114350000Y-41550000D02*
X116610000Y-41550000D01*
X114350000Y-41050000D02*
X116610000Y-41050000D01*
X112750000Y-36450000D02*
X112750000Y-35450000D01*
X114350000Y-36450000D02*
X112750000Y-36450000D01*
X114350000Y-35450000D02*
X114350000Y-36450000D01*
X112750000Y-35450000D02*
X114350000Y-35450000D01*
X112750000Y-41050000D02*
X112750000Y-42050000D01*
X114350000Y-41050000D02*
X112750000Y-41050000D01*
X114350000Y-42050000D02*
X114350000Y-41050000D01*
X112750000Y-42050000D02*
X114350000Y-42050000D01*
X110390000Y-34690000D02*
X110390000Y-35610000D01*
X110390000Y-42810000D02*
X110390000Y-41890000D01*
X112250000Y-37250000D02*
X116610000Y-37250000D01*
X112250000Y-40250000D02*
X112250000Y-37250000D01*
X116610000Y-40250000D02*
X112250000Y-40250000D01*
X110390000Y-35610000D02*
X110390000Y-35890000D01*
X108790000Y-35610000D02*
X110390000Y-35610000D01*
X108790000Y-34690000D02*
X108790000Y-35610000D01*
X116610000Y-34690000D02*
X108790000Y-34690000D01*
X116610000Y-42810000D02*
X116610000Y-34690000D01*
X108790000Y-42810000D02*
X116610000Y-42810000D01*
X108790000Y-41890000D02*
X108790000Y-42810000D01*
X110390000Y-41890000D02*
X108790000Y-41890000D01*
X110390000Y-41610000D02*
X110390000Y-41890000D01*
X103650000Y-43670000D02*
X103650000Y-41220000D01*
X100430000Y-41870000D02*
X100430000Y-43670000D01*
X84587499Y-32580000D02*
X84587499Y-31250000D01*
X85917499Y-32580000D02*
X84587499Y-32580000D01*
X87187499Y-32580000D02*
X87187499Y-29920000D01*
X87187499Y-29920000D02*
X89787499Y-29920000D01*
X87187499Y-32580000D02*
X89787499Y-32580000D01*
X89787499Y-32580000D02*
X89787499Y-29920000D01*
X95337499Y-29680000D02*
X95337499Y-29980000D01*
X91197499Y-32820000D02*
X91197499Y-32520000D01*
X91197499Y-29980000D02*
X91197499Y-29680000D01*
X95337499Y-32820000D02*
X91197499Y-32820000D01*
X95337499Y-32520000D02*
X95337499Y-32820000D01*
X91197499Y-29680000D02*
X95337499Y-29680000D01*
X79047499Y-32820000D02*
X79047499Y-32520000D01*
X83187499Y-29680000D02*
X83187499Y-29980000D01*
X83187499Y-32520000D02*
X83187499Y-32820000D01*
X79047499Y-29680000D02*
X83187499Y-29680000D01*
X79047499Y-29980000D02*
X79047499Y-29680000D01*
X83187499Y-32820000D02*
X79047499Y-32820000D01*
X94960000Y-35898578D02*
X94960000Y-35381422D01*
X93540000Y-35898578D02*
X93540000Y-35381422D01*
X93540000Y-45803922D02*
X93540000Y-46321078D01*
X94960000Y-45803922D02*
X94960000Y-46321078D01*
D10*
X92650000Y-34700000D02*
X92650000Y-47000000D01*
X92650000Y-47000000D02*
X72650000Y-47000000D01*
X92650000Y-34690000D02*
X72650000Y-34690000D01*
X72650000Y-47000000D02*
X72650000Y-34700000D01*
D11*
X99530000Y-30891422D02*
X99530000Y-31408578D01*
X98110000Y-30891422D02*
X98110000Y-31408578D01*
X104300000Y-30891422D02*
X104300000Y-31408578D01*
X105720000Y-30891422D02*
X105720000Y-31408578D01*
X102790000Y-35430000D02*
X100340000Y-35430000D01*
X100990000Y-38650000D02*
X102790000Y-38650000D01*
X102675000Y-32730000D02*
X101215000Y-32730000D01*
X102675000Y-29570000D02*
X100515000Y-29570000D01*
X102675000Y-29570000D02*
X102675000Y-30500000D01*
X102675000Y-32730000D02*
X102675000Y-31800000D01*
X98100000Y-35408578D02*
X98100000Y-34891422D01*
X99520000Y-35408578D02*
X99520000Y-34891422D01*
X106230000Y-36781422D02*
X106230000Y-37298578D01*
X104810000Y-36781422D02*
X104810000Y-37298578D01*
X98140000Y-43188578D02*
X98140000Y-42671422D01*
X99560000Y-43188578D02*
X99560000Y-42671422D01*
X105940000Y-42291422D02*
X105940000Y-42808578D01*
X104520000Y-42291422D02*
X104520000Y-42808578D01*
X98100000Y-38671422D02*
X98100000Y-39188578D01*
X99520000Y-38671422D02*
X99520000Y-39188578D01*
X103040000Y-47620000D02*
X101040000Y-47620000D01*
X103040000Y-45420000D02*
X101040000Y-45420000D01*
D10*
X107152380Y-39083333D02*
X107866666Y-39083333D01*
X108009523Y-39130952D01*
X108104761Y-39226190D01*
X108152380Y-39369047D01*
X108152380Y-39464285D01*
X108152380Y-38083333D02*
X108152380Y-38654761D01*
X108152380Y-38369047D02*
X107152380Y-38369047D01*
X107295238Y-38464285D01*
X107390476Y-38559523D01*
X107438095Y-38654761D01*
X104392380Y-43531904D02*
X105201904Y-43531904D01*
X105297142Y-43484285D01*
X105344761Y-43436666D01*
X105392380Y-43341428D01*
X105392380Y-43150952D01*
X105344761Y-43055714D01*
X105297142Y-43008095D01*
X105201904Y-42960476D01*
X104392380Y-42960476D01*
X105392380Y-41960476D02*
X105392380Y-42531904D01*
X105392380Y-42246190D02*
X104392380Y-42246190D01*
X104535238Y-42341428D01*
X104630476Y-42436666D01*
X104678095Y-42531904D01*
X83039879Y-31583333D02*
X83754165Y-31583333D01*
X83897022Y-31630952D01*
X83992260Y-31726190D01*
X84039879Y-31869047D01*
X84039879Y-31964285D01*
X83135118Y-31154761D02*
X83087499Y-31107142D01*
X83039879Y-31011904D01*
X83039879Y-30773809D01*
X83087499Y-30678571D01*
X83135118Y-30630952D01*
X83230356Y-30583333D01*
X83325594Y-30583333D01*
X83468451Y-30630952D01*
X84039879Y-31202380D01*
X84039879Y-30583333D01*
X91934165Y-27904761D02*
X92077022Y-27952380D01*
X92315118Y-27952380D01*
X92410356Y-27904761D01*
X92457975Y-27857142D01*
X92505594Y-27761904D01*
X92505594Y-27666666D01*
X92457975Y-27571428D01*
X92410356Y-27523809D01*
X92315118Y-27476190D01*
X92124641Y-27428571D01*
X92029403Y-27380952D01*
X91981784Y-27333333D01*
X91934165Y-27238095D01*
X91934165Y-27142857D01*
X91981784Y-27047619D01*
X92029403Y-27000000D01*
X92124641Y-26952380D01*
X92362737Y-26952380D01*
X92505594Y-27000000D01*
X92838927Y-26952380D02*
X93077022Y-27952380D01*
X93267499Y-27238095D01*
X93457975Y-27952380D01*
X93696070Y-26952380D01*
X94029403Y-27047619D02*
X94077022Y-27000000D01*
X94172260Y-26952380D01*
X94410356Y-26952380D01*
X94505594Y-27000000D01*
X94553213Y-27047619D01*
X94600832Y-27142857D01*
X94600832Y-27238095D01*
X94553213Y-27380952D01*
X93981784Y-27952380D01*
X94600832Y-27952380D01*
X79684165Y-27904761D02*
X79827022Y-27952380D01*
X80065118Y-27952380D01*
X80160356Y-27904761D01*
X80207975Y-27857142D01*
X80255594Y-27761904D01*
X80255594Y-27666666D01*
X80207975Y-27571428D01*
X80160356Y-27523809D01*
X80065118Y-27476190D01*
X79874641Y-27428571D01*
X79779403Y-27380952D01*
X79731784Y-27333333D01*
X79684165Y-27238095D01*
X79684165Y-27142857D01*
X79731784Y-27047619D01*
X79779403Y-27000000D01*
X79874641Y-26952380D01*
X80112737Y-26952380D01*
X80255594Y-27000000D01*
X80588927Y-26952380D02*
X80827022Y-27952380D01*
X81017499Y-27238095D01*
X81207975Y-27952380D01*
X81446070Y-26952380D01*
X82350832Y-27952380D02*
X81779403Y-27952380D01*
X82065118Y-27952380D02*
X82065118Y-26952380D01*
X81969879Y-27095238D01*
X81874641Y-27190476D01*
X81779403Y-27238095D01*
X93052380Y-35806666D02*
X92576190Y-36140000D01*
X93052380Y-36378095D02*
X92052380Y-36378095D01*
X92052380Y-35997142D01*
X92100000Y-35901904D01*
X92147619Y-35854285D01*
X92242857Y-35806666D01*
X92385714Y-35806666D01*
X92480952Y-35854285D01*
X92528571Y-35901904D01*
X92576190Y-35997142D01*
X92576190Y-36378095D01*
X92052380Y-35473333D02*
X92052380Y-34854285D01*
X92433333Y-35187619D01*
X92433333Y-35044761D01*
X92480952Y-34949523D01*
X92528571Y-34901904D01*
X92623809Y-34854285D01*
X92861904Y-34854285D01*
X92957142Y-34901904D01*
X93004761Y-34949523D01*
X93052380Y-35044761D01*
X93052380Y-35330476D01*
X93004761Y-35425714D01*
X92957142Y-35473333D01*
X96257142Y-46229166D02*
X96304761Y-46276785D01*
X96352380Y-46419642D01*
X96352380Y-46514880D01*
X96304761Y-46657738D01*
X96209523Y-46752976D01*
X96114285Y-46800595D01*
X95923809Y-46848214D01*
X95780952Y-46848214D01*
X95590476Y-46800595D01*
X95495238Y-46752976D01*
X95400000Y-46657738D01*
X95352380Y-46514880D01*
X95352380Y-46419642D01*
X95400000Y-46276785D01*
X95447619Y-46229166D01*
X95352380Y-45372023D02*
X95352380Y-45562500D01*
X95400000Y-45657738D01*
X95447619Y-45705357D01*
X95590476Y-45800595D01*
X95780952Y-45848214D01*
X96161904Y-45848214D01*
X96257142Y-45800595D01*
X96304761Y-45752976D01*
X96352380Y-45657738D01*
X96352380Y-45467261D01*
X96304761Y-45372023D01*
X96257142Y-45324404D01*
X96161904Y-45276785D01*
X95923809Y-45276785D01*
X95828571Y-45324404D01*
X95780952Y-45372023D01*
X95733333Y-45467261D01*
X95733333Y-45657738D01*
X95780952Y-45752976D01*
X95828571Y-45800595D01*
X95923809Y-45848214D01*
X84702380Y-41611904D02*
X85511904Y-41611904D01*
X85607142Y-41564285D01*
X85654761Y-41516666D01*
X85702380Y-41421428D01*
X85702380Y-41230952D01*
X85654761Y-41135714D01*
X85607142Y-41088095D01*
X85511904Y-41040476D01*
X84702380Y-41040476D01*
X85035714Y-40135714D02*
X85702380Y-40135714D01*
X84654761Y-40373809D02*
X85369047Y-40611904D01*
X85369047Y-39992857D01*
D12*
X98736666Y-31376190D02*
X98570000Y-31138095D01*
X98450952Y-31376190D02*
X98450952Y-30876190D01*
X98641428Y-30876190D01*
X98689047Y-30900000D01*
X98712857Y-30923809D01*
X98736666Y-30971428D01*
X98736666Y-31042857D01*
X98712857Y-31090476D01*
X98689047Y-31114285D01*
X98641428Y-31138095D01*
X98450952Y-31138095D01*
X99212857Y-31376190D02*
X98927142Y-31376190D01*
X99070000Y-31376190D02*
X99070000Y-30876190D01*
X99022380Y-30947619D01*
X98974761Y-30995238D01*
X98927142Y-31019047D01*
X104976666Y-31376190D02*
X104810000Y-31138095D01*
X104690952Y-31376190D02*
X104690952Y-30876190D01*
X104881428Y-30876190D01*
X104929047Y-30900000D01*
X104952857Y-30923809D01*
X104976666Y-30971428D01*
X104976666Y-31042857D01*
X104952857Y-31090476D01*
X104929047Y-31114285D01*
X104881428Y-31138095D01*
X104690952Y-31138095D01*
X105167142Y-30923809D02*
X105190952Y-30900000D01*
X105238571Y-30876190D01*
X105357619Y-30876190D01*
X105405238Y-30900000D01*
X105429047Y-30923809D01*
X105452857Y-30971428D01*
X105452857Y-31019047D01*
X105429047Y-31090476D01*
X105143333Y-31376190D01*
X105452857Y-31376190D01*
X101616190Y-37470952D02*
X102020952Y-37470952D01*
X102068571Y-37447142D01*
X102092380Y-37423333D01*
X102116190Y-37375714D01*
X102116190Y-37280476D01*
X102092380Y-37232857D01*
X102068571Y-37209047D01*
X102020952Y-37185238D01*
X101616190Y-37185238D01*
X101663809Y-36970952D02*
X101640000Y-36947142D01*
X101616190Y-36899523D01*
X101616190Y-36780476D01*
X101640000Y-36732857D01*
X101663809Y-36709047D01*
X101711428Y-36685238D01*
X101759047Y-36685238D01*
X101830476Y-36709047D01*
X102116190Y-36994761D01*
X102116190Y-36685238D01*
X102138809Y-31197619D02*
X102115000Y-31245238D01*
X102067380Y-31292857D01*
X101995952Y-31364285D01*
X101972142Y-31411904D01*
X101972142Y-31459523D01*
X102091190Y-31435714D02*
X102067380Y-31483333D01*
X102019761Y-31530952D01*
X101924523Y-31554761D01*
X101757857Y-31554761D01*
X101662619Y-31530952D01*
X101615000Y-31483333D01*
X101591190Y-31435714D01*
X101591190Y-31340476D01*
X101615000Y-31292857D01*
X101662619Y-31245238D01*
X101757857Y-31221428D01*
X101924523Y-31221428D01*
X102019761Y-31245238D01*
X102067380Y-31292857D01*
X102091190Y-31340476D01*
X102091190Y-31435714D01*
X102091190Y-30745238D02*
X102091190Y-31030952D01*
X102091190Y-30888095D02*
X101591190Y-30888095D01*
X101662619Y-30935714D01*
X101710238Y-30983333D01*
X101734047Y-31030952D01*
X98726666Y-35328571D02*
X98702857Y-35352380D01*
X98631428Y-35376190D01*
X98583809Y-35376190D01*
X98512380Y-35352380D01*
X98464761Y-35304761D01*
X98440952Y-35257142D01*
X98417142Y-35161904D01*
X98417142Y-35090476D01*
X98440952Y-34995238D01*
X98464761Y-34947619D01*
X98512380Y-34900000D01*
X98583809Y-34876190D01*
X98631428Y-34876190D01*
X98702857Y-34900000D01*
X98726666Y-34923809D01*
X99179047Y-34876190D02*
X98940952Y-34876190D01*
X98917142Y-35114285D01*
X98940952Y-35090476D01*
X98988571Y-35066666D01*
X99107619Y-35066666D01*
X99155238Y-35090476D01*
X99179047Y-35114285D01*
X99202857Y-35161904D01*
X99202857Y-35280952D01*
X99179047Y-35328571D01*
X99155238Y-35352380D01*
X99107619Y-35376190D01*
X98988571Y-35376190D01*
X98940952Y-35352380D01*
X98917142Y-35328571D01*
X105486666Y-37231071D02*
X105462857Y-37254880D01*
X105391428Y-37278690D01*
X105343809Y-37278690D01*
X105272380Y-37254880D01*
X105224761Y-37207261D01*
X105200952Y-37159642D01*
X105177142Y-37064404D01*
X105177142Y-36992976D01*
X105200952Y-36897738D01*
X105224761Y-36850119D01*
X105272380Y-36802500D01*
X105343809Y-36778690D01*
X105391428Y-36778690D01*
X105462857Y-36802500D01*
X105486666Y-36826309D01*
X105915238Y-36945357D02*
X105915238Y-37278690D01*
X105796190Y-36754880D02*
X105677142Y-37112023D01*
X105986666Y-37112023D01*
X98766666Y-43108571D02*
X98742857Y-43132380D01*
X98671428Y-43156190D01*
X98623809Y-43156190D01*
X98552380Y-43132380D01*
X98504761Y-43084761D01*
X98480952Y-43037142D01*
X98457142Y-42941904D01*
X98457142Y-42870476D01*
X98480952Y-42775238D01*
X98504761Y-42727619D01*
X98552380Y-42680000D01*
X98623809Y-42656190D01*
X98671428Y-42656190D01*
X98742857Y-42680000D01*
X98766666Y-42703809D01*
X98933333Y-42656190D02*
X99242857Y-42656190D01*
X99076190Y-42846666D01*
X99147619Y-42846666D01*
X99195238Y-42870476D01*
X99219047Y-42894285D01*
X99242857Y-42941904D01*
X99242857Y-43060952D01*
X99219047Y-43108571D01*
X99195238Y-43132380D01*
X99147619Y-43156190D01*
X99004761Y-43156190D01*
X98957142Y-43132380D01*
X98933333Y-43108571D01*
X105196666Y-42728571D02*
X105172857Y-42752380D01*
X105101428Y-42776190D01*
X105053809Y-42776190D01*
X104982380Y-42752380D01*
X104934761Y-42704761D01*
X104910952Y-42657142D01*
X104887142Y-42561904D01*
X104887142Y-42490476D01*
X104910952Y-42395238D01*
X104934761Y-42347619D01*
X104982380Y-42300000D01*
X105053809Y-42276190D01*
X105101428Y-42276190D01*
X105172857Y-42300000D01*
X105196666Y-42323809D01*
X105387142Y-42323809D02*
X105410952Y-42300000D01*
X105458571Y-42276190D01*
X105577619Y-42276190D01*
X105625238Y-42300000D01*
X105649047Y-42323809D01*
X105672857Y-42371428D01*
X105672857Y-42419047D01*
X105649047Y-42490476D01*
X105363333Y-42776190D01*
X105672857Y-42776190D01*
X98726666Y-39108571D02*
X98702857Y-39132380D01*
X98631428Y-39156190D01*
X98583809Y-39156190D01*
X98512380Y-39132380D01*
X98464761Y-39084761D01*
X98440952Y-39037142D01*
X98417142Y-38941904D01*
X98417142Y-38870476D01*
X98440952Y-38775238D01*
X98464761Y-38727619D01*
X98512380Y-38680000D01*
X98583809Y-38656190D01*
X98631428Y-38656190D01*
X98702857Y-38680000D01*
X98726666Y-38703809D01*
X99202857Y-39156190D02*
X98917142Y-39156190D01*
X99060000Y-39156190D02*
X99060000Y-38656190D01*
X99012380Y-38727619D01*
X98964761Y-38775238D01*
X98917142Y-38799047D01*
X102266190Y-46553333D02*
X102266190Y-46791428D01*
X101766190Y-46791428D01*
X102266190Y-46124761D02*
X102266190Y-46410476D01*
X102266190Y-46267619D02*
X101766190Y-46267619D01*
X101837619Y-46315238D01*
X101885238Y-46362857D01*
X101909047Y-46410476D01*
M02*
